<?xml version="1.0" encoding="UTF-8" standalone="no"?>
<!DOCTYPE svg PUBLIC "-//W3C//DTD SVG 1.1//EN"
 "http://www.w3.org/Graphics/SVG/1.1/DTD/svg11.dtd">
<!-- Generated by graphviz version 7.1.0 (20230122.1345)
 -->
<!-- Title: snakemake_dag Pages: 1 -->
<svg width="871pt" height="2132pt"
 viewBox="0.00 0.00 871.00 2132.00" xmlns="http://www.w3.org/2000/svg" xmlns:xlink="http://www.w3.org/1999/xlink">
<g id="graph0" class="graph" transform="scale(1 1) rotate(0) translate(4 2128)">
<title>snakemake_dag</title>
<polygon fill="white" stroke="none" points="-4,4 -4,-2128 867,-2128 867,4 -4,4"/>
<!-- 0 -->
<g id="node1" class="node">
<title>0</title>
<path fill="none" stroke="#c6d856" stroke-width="2" d="M423,-36C423,-36 393,-36 393,-36 387,-36 381,-30 381,-24 381,-24 381,-12 381,-12 381,-6 387,0 393,0 393,0 423,0 423,0 429,0 435,-6 435,-12 435,-12 435,-24 435,-24 435,-30 429,-36 423,-36"/>
<text text-anchor="middle" x="408" y="-15.5" font-family="sans" font-size="10.00">finish</text>
</g>
<!-- 1 -->
<g id="node2" class="node">
<title>1</title>
<path fill="none" stroke="#56d873" stroke-width="2" d="M307.5,-1764C307.5,-1764 122.5,-1764 122.5,-1764 116.5,-1764 110.5,-1758 110.5,-1752 110.5,-1752 110.5,-1740 110.5,-1740 110.5,-1734 116.5,-1728 122.5,-1728 122.5,-1728 307.5,-1728 307.5,-1728 313.5,-1728 319.5,-1734 319.5,-1740 319.5,-1740 319.5,-1752 319.5,-1752 319.5,-1758 313.5,-1764 307.5,-1764"/>
<text text-anchor="middle" x="215" y="-1743.5" font-family="sans" font-size="10.00">generate_segemehl_index_transcriptome</text>
</g>
<!-- 1&#45;&gt;0 -->
<g id="edge13" class="edge">
<title>1&#45;&gt;0</title>
<path fill="none" stroke="grey" stroke-width="2" d="M212.1,-1727.12C208,-1700.26 201,-1647.84 201,-1603 201,-1603 201,-1603 201,-161 201,-114.5 219.74,-101.11 256,-72 288.37,-46.01 334.35,-32.34 367.25,-25.44"/>
<polygon fill="grey" stroke="grey" stroke-width="2" points="367.91,-28.88 377.06,-23.54 366.57,-22.01 367.91,-28.88"/>
</g>
<!-- 25 -->
<g id="node26" class="node">
<title>25</title>
<path fill="none" stroke="#d8bc56" stroke-width="2" d="M394.5,-1692C394.5,-1692 241.5,-1692 241.5,-1692 235.5,-1692 229.5,-1686 229.5,-1680 229.5,-1680 229.5,-1668 229.5,-1668 229.5,-1662 235.5,-1656 241.5,-1656 241.5,-1656 394.5,-1656 394.5,-1656 400.5,-1656 406.5,-1662 406.5,-1668 406.5,-1668 406.5,-1680 406.5,-1680 406.5,-1686 400.5,-1692 394.5,-1692"/>
<text text-anchor="middle" x="318" y="-1671.5" font-family="sans" font-size="10.00">mapping_transcriptome_segemehl</text>
</g>
<!-- 1&#45;&gt;25 -->
<g id="edge42" class="edge">
<title>1&#45;&gt;25</title>
<path fill="none" stroke="grey" stroke-width="2" d="M241.26,-1727.15C253.36,-1718.93 267.94,-1709.02 281.13,-1700.06"/>
<polygon fill="grey" stroke="grey" stroke-width="2" points="282.98,-1703.03 289.29,-1694.51 279.05,-1697.24 282.98,-1703.03"/>
</g>
<!-- 2 -->
<g id="node3" class="node">
<title>2</title>
<path fill="none" stroke="#5692d8" stroke-width="2" d="M343.5,-1836C343.5,-1836 304.5,-1836 304.5,-1836 298.5,-1836 292.5,-1830 292.5,-1824 292.5,-1824 292.5,-1812 292.5,-1812 292.5,-1806 298.5,-1800 304.5,-1800 304.5,-1800 343.5,-1800 343.5,-1800 349.5,-1800 355.5,-1806 355.5,-1812 355.5,-1812 355.5,-1824 355.5,-1824 355.5,-1830 349.5,-1836 343.5,-1836"/>
<text text-anchor="middle" x="324" y="-1815.5" font-family="sans" font-size="10.00">trim_fasta</text>
</g>
<!-- 2&#45;&gt;1 -->
<g id="edge14" class="edge">
<title>2&#45;&gt;1</title>
<path fill="none" stroke="grey" stroke-width="2" d="M296.21,-1799.15C283.27,-1790.84 267.66,-1780.82 253.6,-1771.79"/>
<polygon fill="grey" stroke="grey" stroke-width="2" points="255.59,-1768.91 245.28,-1766.45 251.81,-1774.8 255.59,-1768.91"/>
</g>
<!-- 2&#45;&gt;25 -->
<g id="edge40" class="edge">
<title>2&#45;&gt;25</title>
<path fill="none" stroke="grey" stroke-width="2" d="M326.24,-1799.23C328.17,-1781.25 330.3,-1752.64 328,-1728 327.3,-1720.54 326.06,-1712.57 324.69,-1705.13"/>
<polygon fill="grey" stroke="grey" stroke-width="2" points="328.16,-1704.63 322.76,-1695.52 321.3,-1706.01 328.16,-1704.63"/>
</g>
<!-- 31 -->
<g id="node32" class="node">
<title>31</title>
<path fill="none" stroke="#9fd856" stroke-width="2" d="M576,-1764C576,-1764 426,-1764 426,-1764 420,-1764 414,-1758 414,-1752 414,-1752 414,-1740 414,-1740 414,-1734 420,-1728 426,-1728 426,-1728 576,-1728 576,-1728 582,-1728 588,-1734 588,-1740 588,-1740 588,-1752 588,-1752 588,-1758 582,-1764 576,-1764"/>
<text text-anchor="middle" x="501" y="-1743.5" font-family="sans" font-size="10.00">mapping_transcriptome_oligomap</text>
</g>
<!-- 2&#45;&gt;31 -->
<g id="edge48" class="edge">
<title>2&#45;&gt;31</title>
<path fill="none" stroke="grey" stroke-width="2" d="M356.46,-1804.16C380.83,-1794.53 414.82,-1781.08 443.72,-1769.66"/>
<polygon fill="grey" stroke="grey" stroke-width="2" points="444.92,-1772.94 452.93,-1766.01 442.34,-1766.43 444.92,-1772.94"/>
</g>
<!-- 3 -->
<g id="node4" class="node">
<title>3</title>
<path fill="none" stroke="#78d856" stroke-width="2" d="M382.5,-1908C382.5,-1908 263.5,-1908 263.5,-1908 257.5,-1908 251.5,-1902 251.5,-1896 251.5,-1896 251.5,-1884 251.5,-1884 251.5,-1878 257.5,-1872 263.5,-1872 263.5,-1872 382.5,-1872 382.5,-1872 388.5,-1872 394.5,-1878 394.5,-1884 394.5,-1884 394.5,-1896 394.5,-1896 394.5,-1902 388.5,-1908 382.5,-1908"/>
<text text-anchor="middle" x="323" y="-1887.5" font-family="sans" font-size="10.00">extract_transcriptome_seqs</text>
</g>
<!-- 3&#45;&gt;2 -->
<g id="edge15" class="edge">
<title>3&#45;&gt;2</title>
<path fill="none" stroke="grey" stroke-width="2" d="M323.25,-1871.34C323.35,-1864.75 323.46,-1857.08 323.56,-1849.67"/>
<polygon fill="grey" stroke="grey" stroke-width="2" points="327.06,-1849.98 323.7,-1839.93 320.06,-1849.88 327.06,-1849.98"/>
</g>
<!-- 4 -->
<g id="node5" class="node">
<title>4</title>
<path fill="none" stroke="#56d0d8" stroke-width="2" d="M570.5,-1980C570.5,-1980 481.5,-1980 481.5,-1980 475.5,-1980 469.5,-1974 469.5,-1968 469.5,-1968 469.5,-1956 469.5,-1956 469.5,-1950 475.5,-1944 481.5,-1944 481.5,-1944 570.5,-1944 570.5,-1944 576.5,-1944 582.5,-1950 582.5,-1956 582.5,-1956 582.5,-1968 582.5,-1968 582.5,-1974 576.5,-1980 570.5,-1980"/>
<text text-anchor="middle" x="526" y="-1959.5" font-family="sans" font-size="10.00">trim_genome_seq_id</text>
</g>
<!-- 4&#45;&gt;3 -->
<g id="edge16" class="edge">
<title>4&#45;&gt;3</title>
<path fill="none" stroke="grey" stroke-width="2" d="M473.99,-1943.06C447.48,-1933.93 415.02,-1922.73 386.99,-1913.07"/>
<polygon fill="grey" stroke="grey" stroke-width="2" points="388.34,-1909.83 377.74,-1909.88 386.05,-1916.44 388.34,-1909.83"/>
</g>
<!-- 5 -->
<g id="node6" class="node">
<title>5</title>
<path fill="none" stroke="#56b9d8" stroke-width="2" d="M724,-1908C724,-1908 566,-1908 566,-1908 560,-1908 554,-1902 554,-1896 554,-1896 554,-1884 554,-1884 554,-1878 560,-1872 566,-1872 566,-1872 724,-1872 724,-1872 730,-1872 736,-1878 736,-1884 736,-1884 736,-1896 736,-1896 736,-1902 730,-1908 724,-1908"/>
<text text-anchor="middle" x="645" y="-1887.5" font-family="sans" font-size="10.00">generate_segemehl_index_genome</text>
</g>
<!-- 4&#45;&gt;5 -->
<g id="edge17" class="edge">
<title>4&#45;&gt;5</title>
<path fill="none" stroke="grey" stroke-width="2" d="M556.34,-1943.15C570.74,-1934.68 588.18,-1924.42 603.77,-1915.25"/>
<polygon fill="grey" stroke="grey" stroke-width="2" points="605.26,-1918.43 612.11,-1910.35 601.72,-1912.4 605.26,-1918.43"/>
</g>
<!-- 8 -->
<g id="node9" class="node">
<title>8</title>
<path fill="none" stroke="#d85656" stroke-width="2" d="M161,-1260C161,-1260 57,-1260 57,-1260 51,-1260 45,-1254 45,-1248 45,-1248 45,-1236 45,-1236 45,-1230 51,-1224 57,-1224 57,-1224 161,-1224 161,-1224 167,-1224 173,-1230 173,-1236 173,-1236 173,-1248 173,-1248 173,-1254 167,-1260 161,-1260"/>
<text text-anchor="middle" x="109" y="-1239.5" font-family="sans" font-size="10.00">create_header_genome</text>
</g>
<!-- 4&#45;&gt;8 -->
<g id="edge19" class="edge">
<title>4&#45;&gt;8</title>
<path fill="none" stroke="grey" stroke-width="2" d="M468.65,-1945.69C466.07,-1945.1 463.51,-1944.53 461,-1944 287.5,-1907.14 82,-1996.37 82,-1819 82,-1819 82,-1819 82,-1385 82,-1345.79 92.06,-1301.54 99.9,-1273.02"/>
<polygon fill="grey" stroke="grey" stroke-width="2" points="103.19,-1274.21 102.57,-1263.64 96.46,-1272.29 103.19,-1274.21"/>
</g>
<!-- 10 -->
<g id="node11" class="node">
<title>10</title>
<path fill="none" stroke="#d88d56" stroke-width="2" d="M90,-1188C90,-1188 12,-1188 12,-1188 6,-1188 0,-1182 0,-1176 0,-1176 0,-1164 0,-1164 0,-1158 6,-1152 12,-1152 12,-1152 90,-1152 90,-1152 96,-1152 102,-1158 102,-1164 102,-1164 102,-1176 102,-1176 102,-1182 96,-1188 90,-1188"/>
<text text-anchor="middle" x="51" y="-1167.5" font-family="sans" font-size="10.00">create_index_fasta</text>
</g>
<!-- 4&#45;&gt;10 -->
<g id="edge21" class="edge">
<title>4&#45;&gt;10</title>
<path fill="none" stroke="grey" stroke-width="2" d="M468.69,-1945.48C466.1,-1944.95 463.53,-1944.45 461,-1944 378.79,-1929.39 160.27,-1948.04 87,-1908 42.84,-1883.87 17,-1869.32 17,-1819 17,-1819 17,-1819 17,-1313 17,-1273.39 29.67,-1229.23 39.54,-1200.83"/>
<polygon fill="grey" stroke="grey" stroke-width="2" points="42.82,-1202.05 42.93,-1191.45 36.24,-1199.67 42.82,-1202.05"/>
</g>
<!-- 37 -->
<g id="node38" class="node">
<title>37</title>
<path fill="none" stroke="#88d856" stroke-width="2" d="M706.5,-1836C706.5,-1836 579.5,-1836 579.5,-1836 573.5,-1836 567.5,-1830 567.5,-1824 567.5,-1824 567.5,-1812 567.5,-1812 567.5,-1806 573.5,-1800 579.5,-1800 579.5,-1800 706.5,-1800 706.5,-1800 712.5,-1800 718.5,-1806 718.5,-1812 718.5,-1812 718.5,-1824 718.5,-1824 718.5,-1830 712.5,-1836 706.5,-1836"/>
<text text-anchor="middle" x="643" y="-1815.5" font-family="sans" font-size="10.00">mapping_genome_segemehl</text>
</g>
<!-- 4&#45;&gt;37 -->
<g id="edge58" class="edge">
<title>4&#45;&gt;37</title>
<path fill="none" stroke="grey" stroke-width="2" d="M525.57,-1943.17C526,-1923.81 529.38,-1892.87 545,-1872 553.92,-1860.08 566.34,-1850.54 579.34,-1843.03"/>
<polygon fill="grey" stroke="grey" stroke-width="2" points="580.97,-1846.12 588.16,-1838.35 577.69,-1839.94 580.97,-1846.12"/>
</g>
<!-- 39 -->
<g id="node40" class="node">
<title>39</title>
<path fill="none" stroke="#80d856" stroke-width="2" d="M815,-1764C815,-1764 691,-1764 691,-1764 685,-1764 679,-1758 679,-1752 679,-1752 679,-1740 679,-1740 679,-1734 685,-1728 691,-1728 691,-1728 815,-1728 815,-1728 821,-1728 827,-1734 827,-1740 827,-1740 827,-1752 827,-1752 827,-1758 821,-1764 815,-1764"/>
<text text-anchor="middle" x="753" y="-1743.5" font-family="sans" font-size="10.00">mapping_genome_oligomap</text>
</g>
<!-- 4&#45;&gt;39 -->
<g id="edge61" class="edge">
<title>4&#45;&gt;39</title>
<path fill="none" stroke="grey" stroke-width="2" d="M583.39,-1954.86C641.19,-1947.37 724.64,-1932.6 745,-1908 775.23,-1871.49 768.96,-1812.82 761.26,-1777.29"/>
<polygon fill="grey" stroke="grey" stroke-width="2" points="764.73,-1776.77 759.01,-1767.85 757.92,-1778.39 764.73,-1776.77"/>
</g>
<!-- 5&#45;&gt;0 -->
<g id="edge4" class="edge">
<title>5&#45;&gt;0</title>
<path fill="none" stroke="grey" stroke-width="2" d="M725.87,-1871.07C787.91,-1851.98 863,-1814.87 863,-1747 863,-1747 863,-1747 863,-161 863,-74.61 560.34,-34.68 448.71,-22.89"/>
<polygon fill="grey" stroke="grey" stroke-width="2" points="449.09,-19.41 438.79,-21.87 448.38,-26.38 449.09,-19.41"/>
</g>
<!-- 5&#45;&gt;37 -->
<g id="edge56" class="edge">
<title>5&#45;&gt;37</title>
<path fill="none" stroke="grey" stroke-width="2" d="M644.5,-1871.34C644.31,-1864.75 644.09,-1857.08 643.88,-1849.67"/>
<polygon fill="grey" stroke="grey" stroke-width="2" points="647.38,-1849.82 643.6,-1839.93 640.39,-1850.02 647.38,-1849.82"/>
</g>
<!-- 6 -->
<g id="node7" class="node">
<title>6</title>
<path fill="none" stroke="#afd856" stroke-width="2" d="M759,-1404C759,-1404 725,-1404 725,-1404 719,-1404 713,-1398 713,-1392 713,-1392 713,-1380 713,-1380 713,-1374 719,-1368 725,-1368 725,-1368 759,-1368 759,-1368 765,-1368 771,-1374 771,-1380 771,-1380 771,-1392 771,-1392 771,-1398 765,-1404 759,-1404"/>
<text text-anchor="middle" x="742" y="-1383.5" font-family="sans" font-size="10.00">gtftobed</text>
</g>
<!-- 6&#45;&gt;0 -->
<g id="edge5" class="edge">
<title>6&#45;&gt;0</title>
<path fill="none" stroke="grey" stroke-width="2" d="M742.41,-1367.07C743,-1340.13 744,-1287.63 744,-1243 744,-1243 744,-1243 744,-161 744,-34.05 537.98,-18.85 448.58,-18.23"/>
<polygon fill="grey" stroke="grey" stroke-width="2" points="448.81,-14.72 438.81,-18.23 448.81,-21.72 448.81,-14.72"/>
</g>
<!-- 21 -->
<g id="node22" class="node">
<title>21</title>
<path fill="none" stroke="#5682d8" stroke-width="2" d="M631.5,-1332C631.5,-1332 578.5,-1332 578.5,-1332 572.5,-1332 566.5,-1326 566.5,-1320 566.5,-1320 566.5,-1308 566.5,-1308 566.5,-1302 572.5,-1296 578.5,-1296 578.5,-1296 631.5,-1296 631.5,-1296 637.5,-1296 643.5,-1302 643.5,-1308 643.5,-1308 643.5,-1320 643.5,-1320 643.5,-1326 637.5,-1332 631.5,-1332"/>
<text text-anchor="middle" x="605" y="-1311.5" font-family="sans" font-size="10.00">trans_to_gen</text>
</g>
<!-- 6&#45;&gt;21 -->
<g id="edge35" class="edge">
<title>6&#45;&gt;21</title>
<path fill="none" stroke="grey" stroke-width="2" d="M712.27,-1369.81C694.51,-1360.74 671.56,-1349.01 651.45,-1338.73"/>
<polygon fill="grey" stroke="grey" stroke-width="2" points="653.19,-1335.69 642.7,-1334.26 650.01,-1341.93 653.19,-1335.69"/>
</g>
<!-- 7 -->
<g id="node8" class="node">
<title>7</title>
<path fill="none" stroke="#56c1d8" stroke-width="2" d="M771,-1476C771,-1476 713,-1476 713,-1476 707,-1476 701,-1470 701,-1464 701,-1464 701,-1452 701,-1452 701,-1446 707,-1440 713,-1440 713,-1440 771,-1440 771,-1440 777,-1440 783,-1446 783,-1452 783,-1452 783,-1464 783,-1464 783,-1470 777,-1476 771,-1476"/>
<text text-anchor="middle" x="742" y="-1455.5" font-family="sans" font-size="10.00">get_exons_gtf</text>
</g>
<!-- 7&#45;&gt;6 -->
<g id="edge18" class="edge">
<title>7&#45;&gt;6</title>
<path fill="none" stroke="grey" stroke-width="2" d="M742,-1439.34C742,-1432.75 742,-1425.08 742,-1417.67"/>
<polygon fill="grey" stroke="grey" stroke-width="2" points="745.5,-1417.93 742,-1407.93 738.5,-1417.93 745.5,-1417.93"/>
</g>
<!-- 8&#45;&gt;0 -->
<g id="edge1" class="edge">
<title>8&#45;&gt;0</title>
<path fill="none" stroke="grey" stroke-width="2" d="M120.72,-1223C136.6,-1196.83 163,-1146.21 163,-1099 163,-1099 163,-1099 163,-161 163,-120.03 157.63,-100.56 187,-72 212.4,-47.3 310.94,-31.17 367.49,-23.74"/>
<polygon fill="grey" stroke="grey" stroke-width="2" points="367.74,-27.24 377.22,-22.51 366.85,-20.3 367.74,-27.24"/>
</g>
<!-- 19 -->
<g id="node20" class="node">
<title>19</title>
<path fill="none" stroke="#568ad8" stroke-width="2" d="M496,-1188C496,-1188 448,-1188 448,-1188 442,-1188 436,-1182 436,-1176 436,-1176 436,-1164 436,-1164 436,-1158 442,-1152 448,-1152 448,-1152 496,-1152 496,-1152 502,-1152 508,-1158 508,-1164 508,-1164 508,-1176 508,-1176 508,-1182 502,-1188 496,-1188"/>
<text text-anchor="middle" x="472" y="-1167.5" font-family="sans" font-size="10.00">add_header</text>
</g>
<!-- 8&#45;&gt;19 -->
<g id="edge31" class="edge">
<title>8&#45;&gt;19</title>
<path fill="none" stroke="grey" stroke-width="2" d="M173.9,-1228.49C245.25,-1214.73 358.3,-1192.93 422.73,-1180.5"/>
<polygon fill="grey" stroke="grey" stroke-width="2" points="423.2,-1183.98 432.36,-1178.65 421.87,-1177.1 423.2,-1183.98"/>
</g>
<!-- 9 -->
<g id="node10" class="node">
<title>9</title>
<path fill="none" stroke="#d89556" stroke-width="2" d="M123,-900C123,-900 61,-900 61,-900 55,-900 49,-894 49,-888 49,-888 49,-876 49,-876 49,-870 55,-864 61,-864 61,-864 123,-864 123,-864 129,-864 135,-870 135,-876 135,-876 135,-888 135,-888 135,-894 129,-900 123,-900"/>
<text text-anchor="middle" x="92" y="-879.5" font-family="sans" font-size="10.00">extract_chr_len</text>
</g>
<!-- 9&#45;&gt;0 -->
<g id="edge6" class="edge">
<title>9&#45;&gt;0</title>
<path fill="none" stroke="grey" stroke-width="2" d="M95.52,-863.15C100.5,-836.32 109,-783.94 109,-739 109,-739 109,-739 109,-161 109,-117.63 115.15,-99.1 149,-72 182.2,-45.42 303.06,-29.55 367.26,-22.81"/>
<polygon fill="grey" stroke="grey" stroke-width="2" points="367.45,-26.31 377.04,-21.82 366.74,-19.35 367.45,-26.31"/>
</g>
<!-- 11 -->
<g id="node12" class="node">
<title>11</title>
<path fill="none" stroke="#56d85b" stroke-width="2" d="M350.5,-828C350.5,-828 241.5,-828 241.5,-828 235.5,-828 229.5,-822 229.5,-816 229.5,-816 229.5,-804 229.5,-804 229.5,-798 235.5,-792 241.5,-792 241.5,-792 350.5,-792 350.5,-792 356.5,-792 362.5,-798 362.5,-804 362.5,-804 362.5,-816 362.5,-816 362.5,-822 356.5,-828 350.5,-828"/>
<text text-anchor="middle" x="296" y="-807.5" font-family="sans" font-size="10.00">extend_mirs_annotations</text>
</g>
<!-- 9&#45;&gt;11 -->
<g id="edge22" class="edge">
<title>9&#45;&gt;11</title>
<path fill="none" stroke="grey" stroke-width="2" d="M135.76,-865.98C163.67,-856.41 200.32,-843.83 231.53,-833.12"/>
<polygon fill="grey" stroke="grey" stroke-width="2" points="232.45,-836.51 240.77,-829.95 230.17,-829.89 232.45,-836.51"/>
</g>
<!-- 10&#45;&gt;9 -->
<g id="edge20" class="edge">
<title>10&#45;&gt;9</title>
<path fill="none" stroke="grey" stroke-width="2" d="M53.56,-1151.11C60.4,-1103.46 79.09,-973.05 87.63,-913.45"/>
<polygon fill="grey" stroke="grey" stroke-width="2" points="91.05,-914.28 89.01,-903.88 84.12,-913.28 91.05,-914.28"/>
</g>
<!-- 11&#45;&gt;0 -->
<g id="edge10" class="edge">
<title>11&#45;&gt;0</title>
<path fill="none" stroke="grey" stroke-width="2" d="M283.63,-791.09C266.87,-765.03 239,-714.55 239,-667 239,-667 239,-667 239,-161 239,-93.88 318.11,-52.13 368.08,-32.46"/>
<polygon fill="grey" stroke="grey" stroke-width="2" points="369.14,-35.8 377.26,-29 366.67,-29.25 369.14,-35.8"/>
</g>
<!-- 42 -->
<g id="node43" class="node">
<title>42</title>
<path fill="none" stroke="#70d856" stroke-width="2" d="M630.5,-756C630.5,-756 511.5,-756 511.5,-756 505.5,-756 499.5,-750 499.5,-744 499.5,-744 499.5,-732 499.5,-732 499.5,-726 505.5,-720 511.5,-720 511.5,-720 630.5,-720 630.5,-720 636.5,-720 642.5,-726 642.5,-732 642.5,-732 642.5,-744 642.5,-744 642.5,-750 636.5,-756 630.5,-756"/>
<text text-anchor="middle" x="571" y="-735.5" font-family="sans" font-size="10.00">intersect_extended_premir</text>
</g>
<!-- 11&#45;&gt;42 -->
<g id="edge66" class="edge">
<title>11&#45;&gt;42</title>
<path fill="none" stroke="grey" stroke-width="2" d="M363.27,-791.88C400.95,-782.29 448.23,-770.25 488.17,-760.08"/>
<polygon fill="grey" stroke="grey" stroke-width="2" points="488.82,-763.53 497.65,-757.67 487.1,-756.75 488.82,-763.53"/>
</g>
<!-- 44 -->
<g id="node45" class="node">
<title>44</title>
<path fill="none" stroke="#5673d8" stroke-width="2" d="M425,-468C425,-468 311,-468 311,-468 305,-468 299,-462 299,-456 299,-456 299,-444 299,-444 299,-438 305,-432 311,-432 311,-432 425,-432 425,-432 431,-432 437,-438 437,-444 437,-444 437,-456 437,-456 437,-462 431,-468 425,-468"/>
<text text-anchor="middle" x="368" y="-447.5" font-family="sans" font-size="10.00">intersect_extended_mirna</text>
</g>
<!-- 11&#45;&gt;44 -->
<g id="edge70" class="edge">
<title>11&#45;&gt;44</title>
<path fill="none" stroke="grey" stroke-width="2" d="M292.27,-791.16C287,-764.34 278,-711.98 278,-667 278,-667 278,-667 278,-593 278,-552.55 275.18,-538.05 297,-504 303.84,-493.33 313.63,-484.04 323.76,-476.34"/>
<polygon fill="grey" stroke="grey" stroke-width="2" points="325.69,-479.27 331.86,-470.65 321.67,-473.54 325.69,-479.27"/>
</g>
<!-- 12 -->
<g id="node13" class="node">
<title>12</title>
<path fill="none" stroke="#d86e56" stroke-width="2" d="M330,-900C330,-900 262,-900 262,-900 256,-900 250,-894 250,-888 250,-888 250,-876 250,-876 250,-870 256,-864 262,-864 262,-864 330,-864 330,-864 336,-864 342,-870 342,-876 342,-876 342,-888 342,-888 342,-894 336,-900 330,-900"/>
<text text-anchor="middle" x="296" y="-879.5" font-family="sans" font-size="10.00">map_chr_names</text>
</g>
<!-- 12&#45;&gt;11 -->
<g id="edge23" class="edge">
<title>12&#45;&gt;11</title>
<path fill="none" stroke="grey" stroke-width="2" d="M296,-863.34C296,-856.75 296,-849.08 296,-841.67"/>
<polygon fill="grey" stroke="grey" stroke-width="2" points="299.5,-841.93 296,-831.93 292.5,-841.93 299.5,-841.93"/>
</g>
<!-- 13 -->
<g id="node14" class="node">
<title>13</title>
<path fill="none" stroke="#56c9d8" stroke-width="2" d="M704,-540C704,-540 662,-540 662,-540 656,-540 650,-534 650,-528 650,-528 650,-516 650,-516 650,-510 656,-504 662,-504 662,-504 704,-504 704,-504 710,-504 716,-510 716,-516 716,-516 716,-528 716,-528 716,-534 710,-540 704,-540"/>
<text text-anchor="middle" x="683" y="-519.5" font-family="sans" font-size="10.00">index_bam</text>
</g>
<!-- 13&#45;&gt;0 -->
<g id="edge2" class="edge">
<title>13&#45;&gt;0</title>
<path fill="none" stroke="grey" stroke-width="2" d="M685.69,-503.12C689.5,-476.24 696,-423.81 696,-379 696,-379 696,-379 696,-161 696,-52.05 528.14,-26.69 448.72,-20.79"/>
<polygon fill="grey" stroke="grey" stroke-width="2" points="449.1,-17.31 438.9,-20.14 448.65,-24.29 449.1,-17.31"/>
</g>
<!-- 14 -->
<g id="node15" class="node">
<title>14</title>
<path fill="none" stroke="#d86656" stroke-width="2" d="M605,-828C605,-828 537,-828 537,-828 531,-828 525,-822 525,-816 525,-816 525,-804 525,-804 525,-798 531,-792 537,-792 537,-792 605,-792 605,-792 611,-792 617,-798 617,-804 617,-804 617,-816 617,-816 617,-822 611,-828 605,-828"/>
<text text-anchor="middle" x="571" y="-807.5" font-family="sans" font-size="10.00">sort_by_position</text>
</g>
<!-- 14&#45;&gt;13 -->
<g id="edge24" class="edge">
<title>14&#45;&gt;13</title>
<path fill="none" stroke="grey" stroke-width="2" d="M611.71,-791.03C626.59,-782.49 642.16,-770.85 652,-756 693.33,-693.61 691.35,-601.03 686.91,-553.54"/>
<polygon fill="grey" stroke="grey" stroke-width="2" points="690.42,-553.45 685.88,-543.87 683.46,-554.19 690.42,-553.45"/>
</g>
<!-- 14&#45;&gt;42 -->
<g id="edge67" class="edge">
<title>14&#45;&gt;42</title>
<path fill="none" stroke="grey" stroke-width="2" d="M571,-791.34C571,-784.75 571,-777.08 571,-769.67"/>
<polygon fill="grey" stroke="grey" stroke-width="2" points="574.5,-769.93 571,-759.93 567.5,-769.93 574.5,-769.93"/>
</g>
<!-- 15 -->
<g id="node16" class="node">
<title>15</title>
<path fill="none" stroke="#567bd8" stroke-width="2" d="M592,-900C592,-900 524,-900 524,-900 518,-900 512,-894 512,-888 512,-888 512,-876 512,-876 512,-870 518,-864 524,-864 524,-864 592,-864 592,-864 598,-864 604,-870 604,-876 604,-876 604,-888 604,-888 604,-894 598,-900 592,-900"/>
<text text-anchor="middle" x="558" y="-879.5" font-family="sans" font-size="10.00">convert_to_bam</text>
</g>
<!-- 15&#45;&gt;14 -->
<g id="edge25" class="edge">
<title>15&#45;&gt;14</title>
<path fill="none" stroke="grey" stroke-width="2" d="M561.28,-863.34C562.5,-856.75 563.93,-849.08 565.3,-841.67"/>
<polygon fill="grey" stroke="grey" stroke-width="2" points="568.74,-842.35 567.12,-831.88 561.86,-841.07 568.74,-842.35"/>
</g>
<!-- 16 -->
<g id="node17" class="node">
<title>16</title>
<path fill="none" stroke="#8fd856" stroke-width="2" d="M503,-972C503,-972 441,-972 441,-972 435,-972 429,-966 429,-960 429,-960 429,-948 429,-948 429,-942 435,-936 441,-936 441,-936 503,-936 503,-936 509,-936 515,-942 515,-948 515,-948 515,-960 515,-960 515,-966 509,-972 503,-972"/>
<text text-anchor="middle" x="472" y="-951.5" font-family="sans" font-size="10.00">filter_by_indels</text>
</g>
<!-- 16&#45;&gt;15 -->
<g id="edge26" class="edge">
<title>16&#45;&gt;15</title>
<path fill="none" stroke="grey" stroke-width="2" d="M493.7,-935.34C503.51,-927.36 515.29,-917.77 526.07,-908.99"/>
<polygon fill="grey" stroke="grey" stroke-width="2" points="528.11,-911.84 533.66,-902.81 523.69,-906.41 528.11,-911.84"/>
</g>
<!-- 41 -->
<g id="node42" class="node">
<title>41</title>
<path fill="none" stroke="#56d8d0" stroke-width="2" d="M534,-684C534,-684 408,-684 408,-684 402,-684 396,-678 396,-672 396,-672 396,-660 396,-660 396,-654 402,-648 408,-648 408,-648 534,-648 534,-648 540,-648 546,-654 546,-660 546,-660 546,-672 546,-672 546,-678 540,-684 534,-684"/>
<text text-anchor="middle" x="471" y="-663.5" font-family="sans" font-size="10.00">premir_intersection_sam_file</text>
</g>
<!-- 16&#45;&gt;41 -->
<g id="edge65" class="edge">
<title>16&#45;&gt;41</title>
<path fill="none" stroke="grey" stroke-width="2" d="M471.94,-935.11C471.77,-887.56 471.32,-757.6 471.11,-697.83"/>
<polygon fill="grey" stroke="grey" stroke-width="2" points="474.61,-697.9 471.07,-687.91 467.61,-697.92 474.61,-697.9"/>
</g>
<!-- 17 -->
<g id="node18" class="node">
<title>17</title>
<path fill="none" stroke="#56d892" stroke-width="2" d="M508.5,-1044C508.5,-1044 435.5,-1044 435.5,-1044 429.5,-1044 423.5,-1038 423.5,-1032 423.5,-1032 423.5,-1020 423.5,-1020 423.5,-1014 429.5,-1008 435.5,-1008 435.5,-1008 508.5,-1008 508.5,-1008 514.5,-1008 520.5,-1014 520.5,-1020 520.5,-1020 520.5,-1032 520.5,-1032 520.5,-1038 514.5,-1044 508.5,-1044"/>
<text text-anchor="middle" x="472" y="-1023.5" font-family="sans" font-size="10.00">remove_inferiors</text>
</g>
<!-- 17&#45;&gt;16 -->
<g id="edge27" class="edge">
<title>17&#45;&gt;16</title>
<path fill="none" stroke="grey" stroke-width="2" d="M472,-1007.34C472,-1000.75 472,-993.08 472,-985.67"/>
<polygon fill="grey" stroke="grey" stroke-width="2" points="475.5,-985.93 472,-975.93 468.5,-985.93 475.5,-985.93"/>
</g>
<!-- 18 -->
<g id="node19" class="node">
<title>18</title>
<path fill="none" stroke="#56d882" stroke-width="2" d="M487,-1116C487,-1116 457,-1116 457,-1116 451,-1116 445,-1110 445,-1104 445,-1104 445,-1092 445,-1092 445,-1086 451,-1080 457,-1080 457,-1080 487,-1080 487,-1080 493,-1080 499,-1086 499,-1092 499,-1092 499,-1104 499,-1104 499,-1110 493,-1116 487,-1116"/>
<text text-anchor="middle" x="472" y="-1095.5" font-family="sans" font-size="10.00">sort_id</text>
</g>
<!-- 18&#45;&gt;17 -->
<g id="edge28" class="edge">
<title>18&#45;&gt;17</title>
<path fill="none" stroke="grey" stroke-width="2" d="M472,-1079.34C472,-1072.75 472,-1065.08 472,-1057.67"/>
<polygon fill="grey" stroke="grey" stroke-width="2" points="475.5,-1057.93 472,-1047.93 468.5,-1057.93 475.5,-1057.93"/>
</g>
<!-- 19&#45;&gt;18 -->
<g id="edge29" class="edge">
<title>19&#45;&gt;18</title>
<path fill="none" stroke="grey" stroke-width="2" d="M472,-1151.34C472,-1144.75 472,-1137.08 472,-1129.67"/>
<polygon fill="grey" stroke="grey" stroke-width="2" points="475.5,-1129.93 472,-1119.93 468.5,-1129.93 475.5,-1129.93"/>
</g>
<!-- 20 -->
<g id="node21" class="node">
<title>20</title>
<path fill="none" stroke="#ced856" stroke-width="2" d="M500.5,-1260C500.5,-1260 449.5,-1260 449.5,-1260 443.5,-1260 437.5,-1254 437.5,-1248 437.5,-1248 437.5,-1236 437.5,-1236 437.5,-1230 443.5,-1224 449.5,-1224 449.5,-1224 500.5,-1224 500.5,-1224 506.5,-1224 512.5,-1230 512.5,-1236 512.5,-1236 512.5,-1248 512.5,-1248 512.5,-1254 506.5,-1260 500.5,-1260"/>
<text text-anchor="middle" x="475" y="-1239.5" font-family="sans" font-size="10.00">cat_mapping</text>
</g>
<!-- 20&#45;&gt;19 -->
<g id="edge30" class="edge">
<title>20&#45;&gt;19</title>
<path fill="none" stroke="grey" stroke-width="2" d="M474.24,-1223.34C473.96,-1216.75 473.63,-1209.08 473.31,-1201.67"/>
<polygon fill="grey" stroke="grey" stroke-width="2" points="476.82,-1201.77 472.9,-1191.93 469.83,-1202.07 476.82,-1201.77"/>
</g>
<!-- 21&#45;&gt;20 -->
<g id="edge33" class="edge">
<title>21&#45;&gt;20</title>
<path fill="none" stroke="grey" stroke-width="2" d="M571.86,-1295.15C555.97,-1286.6 536.7,-1276.22 519.55,-1266.99"/>
<polygon fill="grey" stroke="grey" stroke-width="2" points="521.21,-1263.91 510.75,-1262.25 517.89,-1270.07 521.21,-1263.91"/>
</g>
<!-- 22 -->
<g id="node23" class="node">
<title>22</title>
<path fill="none" stroke="#569ad8" stroke-width="2" d="M675.5,-1404C675.5,-1404 534.5,-1404 534.5,-1404 528.5,-1404 522.5,-1398 522.5,-1392 522.5,-1392 522.5,-1380 522.5,-1380 522.5,-1374 528.5,-1368 534.5,-1368 534.5,-1368 675.5,-1368 675.5,-1368 681.5,-1368 687.5,-1374 687.5,-1380 687.5,-1380 687.5,-1392 687.5,-1392 687.5,-1398 681.5,-1404 675.5,-1404"/>
<text text-anchor="middle" x="605" y="-1383.5" font-family="sans" font-size="10.00">remove_headers_transcriptome</text>
</g>
<!-- 22&#45;&gt;21 -->
<g id="edge34" class="edge">
<title>22&#45;&gt;21</title>
<path fill="none" stroke="grey" stroke-width="2" d="M605,-1367.34C605,-1360.75 605,-1353.08 605,-1345.67"/>
<polygon fill="grey" stroke="grey" stroke-width="2" points="608.5,-1345.93 605,-1335.93 601.5,-1345.93 608.5,-1345.93"/>
</g>
<!-- 23 -->
<g id="node24" class="node">
<title>23</title>
<path fill="none" stroke="#d8d356" stroke-width="2" d="M655.5,-1476C655.5,-1476 554.5,-1476 554.5,-1476 548.5,-1476 542.5,-1470 542.5,-1464 542.5,-1464 542.5,-1452 542.5,-1452 542.5,-1446 548.5,-1440 554.5,-1440 554.5,-1440 655.5,-1440 655.5,-1440 661.5,-1440 667.5,-1446 667.5,-1452 667.5,-1452 667.5,-1464 667.5,-1464 667.5,-1470 661.5,-1476 655.5,-1476"/>
<text text-anchor="middle" x="605" y="-1455.5" font-family="sans" font-size="10.00">filter_nh_transcriptome</text>
</g>
<!-- 23&#45;&gt;22 -->
<g id="edge36" class="edge">
<title>23&#45;&gt;22</title>
<path fill="none" stroke="grey" stroke-width="2" d="M605,-1439.34C605,-1432.75 605,-1425.08 605,-1417.67"/>
<polygon fill="grey" stroke="grey" stroke-width="2" points="608.5,-1417.93 605,-1407.93 601.5,-1417.93 608.5,-1417.93"/>
</g>
<!-- 24 -->
<g id="node25" class="node">
<title>24</title>
<path fill="none" stroke="#56d8c1" stroke-width="2" d="M558,-1548C558,-1548 436,-1548 436,-1548 430,-1548 424,-1542 424,-1536 424,-1536 424,-1524 424,-1524 424,-1518 430,-1512 436,-1512 436,-1512 558,-1512 558,-1512 564,-1512 570,-1518 570,-1524 570,-1524 570,-1536 570,-1536 570,-1542 564,-1548 558,-1548"/>
<text text-anchor="middle" x="497" y="-1527.5" font-family="sans" font-size="10.00">merge_transcriptome_maps</text>
</g>
<!-- 24&#45;&gt;23 -->
<g id="edge37" class="edge">
<title>24&#45;&gt;23</title>
<path fill="none" stroke="grey" stroke-width="2" d="M524.53,-1511.15C537.35,-1502.84 552.82,-1492.82 566.75,-1483.79"/>
<polygon fill="grey" stroke="grey" stroke-width="2" points="568.49,-1486.83 574.98,-1478.46 564.68,-1480.96 568.49,-1486.83"/>
</g>
<!-- 25&#45;&gt;24 -->
<g id="edge38" class="edge">
<title>25&#45;&gt;24</title>
<path fill="none" stroke="grey" stroke-width="2" d="M334.26,-1655.07C351.88,-1636.18 381.34,-1606.15 410,-1584 423.25,-1573.76 438.6,-1563.84 452.69,-1555.41"/>
<polygon fill="grey" stroke="grey" stroke-width="2" points="454.17,-1558.6 461.03,-1550.52 450.64,-1552.56 454.17,-1558.6"/>
</g>
<!-- 26 -->
<g id="node27" class="node">
<title>26</title>
<path fill="none" stroke="#d89c56" stroke-width="2" d="M485.5,-1908C485.5,-1908 424.5,-1908 424.5,-1908 418.5,-1908 412.5,-1902 412.5,-1896 412.5,-1896 412.5,-1884 412.5,-1884 412.5,-1878 418.5,-1872 424.5,-1872 424.5,-1872 485.5,-1872 485.5,-1872 491.5,-1872 497.5,-1878 497.5,-1884 497.5,-1884 497.5,-1896 497.5,-1896 497.5,-1902 491.5,-1908 485.5,-1908"/>
<text text-anchor="middle" x="455" y="-1887.5" font-family="sans" font-size="10.00">fastx_collapser</text>
</g>
<!-- 26&#45;&gt;25 -->
<g id="edge41" class="edge">
<title>26&#45;&gt;25</title>
<path fill="none" stroke="grey" stroke-width="2" d="M437.44,-1871.17C428.13,-1861.26 416.83,-1848.43 408,-1836 377.09,-1792.48 348.27,-1737.37 331.93,-1704.22"/>
<polygon fill="grey" stroke="grey" stroke-width="2" points="335.15,-1702.83 327.62,-1695.38 328.86,-1705.9 335.15,-1702.83"/>
</g>
<!-- 32 -->
<g id="node33" class="node">
<title>32</title>
<path fill="none" stroke="#56d87b" stroke-width="2" d="M537,-1836C537,-1836 429,-1836 429,-1836 423,-1836 417,-1830 417,-1824 417,-1824 417,-1812 417,-1812 417,-1806 423,-1800 429,-1800 429,-1800 537,-1800 537,-1800 543,-1800 549,-1806 549,-1812 549,-1812 549,-1824 549,-1824 549,-1830 543,-1836 537,-1836"/>
<text text-anchor="middle" x="483" y="-1815.5" font-family="sans" font-size="10.00">filter_fasta_for_oligomap</text>
</g>
<!-- 26&#45;&gt;32 -->
<g id="edge50" class="edge">
<title>26&#45;&gt;32</title>
<path fill="none" stroke="grey" stroke-width="2" d="M462.07,-1871.34C464.8,-1864.51 468,-1856.5 471.07,-1848.83"/>
<polygon fill="grey" stroke="grey" stroke-width="2" points="474.25,-1850.3 474.72,-1839.71 467.75,-1847.7 474.25,-1850.3"/>
</g>
<!-- 26&#45;&gt;37 -->
<g id="edge57" class="edge">
<title>26&#45;&gt;37</title>
<path fill="none" stroke="grey" stroke-width="2" d="M498.13,-1872.94C523.25,-1863.59 555.3,-1851.65 582.87,-1841.39"/>
<polygon fill="grey" stroke="grey" stroke-width="2" points="583.79,-1844.78 591.94,-1838.01 581.35,-1838.22 583.79,-1844.78"/>
</g>
<!-- 27 -->
<g id="node28" class="node">
<title>27</title>
<path fill="none" stroke="#56d8c9" stroke-width="2" d="M439.5,-1980C439.5,-1980 406.5,-1980 406.5,-1980 400.5,-1980 394.5,-1974 394.5,-1968 394.5,-1968 394.5,-1956 394.5,-1956 394.5,-1950 400.5,-1944 406.5,-1944 406.5,-1944 439.5,-1944 439.5,-1944 445.5,-1944 451.5,-1950 451.5,-1956 451.5,-1956 451.5,-1968 451.5,-1968 451.5,-1974 445.5,-1980 439.5,-1980"/>
<text text-anchor="middle" x="423" y="-1959.5" font-family="sans" font-size="10.00">cutadapt</text>
</g>
<!-- 27&#45;&gt;26 -->
<g id="edge43" class="edge">
<title>27&#45;&gt;26</title>
<path fill="none" stroke="grey" stroke-width="2" d="M431.07,-1943.34C434.23,-1936.43 437.94,-1928.31 441.49,-1920.56"/>
<polygon fill="grey" stroke="grey" stroke-width="2" points="444.58,-1922.2 445.56,-1911.65 438.22,-1919.29 444.58,-1922.2"/>
</g>
<!-- 28 -->
<g id="node29" class="node">
<title>28</title>
<path fill="none" stroke="#565bd8" stroke-width="2" d="M456,-2052C456,-2052 390,-2052 390,-2052 384,-2052 378,-2046 378,-2040 378,-2040 378,-2028 378,-2028 378,-2022 384,-2016 390,-2016 390,-2016 456,-2016 456,-2016 462,-2016 468,-2022 468,-2028 468,-2028 468,-2040 468,-2040 468,-2046 462,-2052 456,-2052"/>
<text text-anchor="middle" x="423" y="-2031.5" font-family="sans" font-size="10.00">fasta_formatter</text>
</g>
<!-- 28&#45;&gt;27 -->
<g id="edge44" class="edge">
<title>28&#45;&gt;27</title>
<path fill="none" stroke="grey" stroke-width="2" d="M423,-2015.34C423,-2008.75 423,-2001.08 423,-1993.67"/>
<polygon fill="grey" stroke="grey" stroke-width="2" points="426.5,-1993.93 423,-1983.93 419.5,-1993.93 426.5,-1993.93"/>
</g>
<!-- 29 -->
<g id="node30" class="node">
<title>29</title>
<path fill="none" stroke="#d85e56" stroke-width="2" d="M438,-2124C438,-2124 408,-2124 408,-2124 402,-2124 396,-2118 396,-2112 396,-2112 396,-2100 396,-2100 396,-2094 402,-2088 408,-2088 408,-2088 438,-2088 438,-2088 444,-2088 450,-2094 450,-2100 450,-2100 450,-2112 450,-2112 450,-2118 444,-2124 438,-2124"/>
<text text-anchor="middle" x="423" y="-2103.5" font-family="sans" font-size="10.00">start</text>
</g>
<!-- 29&#45;&gt;28 -->
<g id="edge45" class="edge">
<title>29&#45;&gt;28</title>
<path fill="none" stroke="grey" stroke-width="2" d="M423,-2087.34C423,-2080.75 423,-2073.08 423,-2065.67"/>
<polygon fill="grey" stroke="grey" stroke-width="2" points="426.5,-2065.93 423,-2055.93 419.5,-2065.93 426.5,-2065.93"/>
</g>
<!-- 30 -->
<g id="node31" class="node">
<title>30</title>
<path fill="none" stroke="#56d8a9" stroke-width="2" d="M571,-1620C571,-1620 431,-1620 431,-1620 425,-1620 419,-1614 419,-1608 419,-1608 419,-1596 419,-1596 419,-1590 425,-1584 431,-1584 431,-1584 571,-1584 571,-1584 577,-1584 583,-1590 583,-1596 583,-1596 583,-1608 583,-1608 583,-1614 577,-1620 571,-1620"/>
<text text-anchor="middle" x="501" y="-1599.5" font-family="sans" font-size="10.00">oligomap_transcriptome_toSAM</text>
</g>
<!-- 30&#45;&gt;24 -->
<g id="edge39" class="edge">
<title>30&#45;&gt;24</title>
<path fill="none" stroke="grey" stroke-width="2" d="M499.99,-1583.34C499.61,-1576.75 499.18,-1569.08 498.75,-1561.67"/>
<polygon fill="grey" stroke="grey" stroke-width="2" points="502.26,-1561.71 498.2,-1551.92 495.27,-1562.11 502.26,-1561.71"/>
</g>
<!-- 31&#45;&gt;30 -->
<g id="edge46" class="edge">
<title>31&#45;&gt;30</title>
<path fill="none" stroke="grey" stroke-width="2" d="M547.37,-1727.13C562.45,-1718.85 577.48,-1707.36 586,-1692 593.76,-1678.01 593.76,-1669.99 586,-1656 579.54,-1644.36 569.35,-1634.94 558.23,-1627.46"/>
<polygon fill="grey" stroke="grey" stroke-width="2" points="560.33,-1624.64 549.96,-1622.44 556.69,-1630.62 560.33,-1624.64"/>
</g>
<!-- 33 -->
<g id="node34" class="node">
<title>33</title>
<path fill="none" stroke="#59d856" stroke-width="2" d="M565,-1692C565,-1692 437,-1692 437,-1692 431,-1692 425,-1686 425,-1680 425,-1680 425,-1668 425,-1668 425,-1662 431,-1656 437,-1656 437,-1656 565,-1656 565,-1656 571,-1656 577,-1662 577,-1668 577,-1668 577,-1680 577,-1680 577,-1686 571,-1692 565,-1692"/>
<text text-anchor="middle" x="501" y="-1671.5" font-family="sans" font-size="10.00">sort_transcriptome_oligomap</text>
</g>
<!-- 31&#45;&gt;33 -->
<g id="edge51" class="edge">
<title>31&#45;&gt;33</title>
<path fill="none" stroke="grey" stroke-width="2" d="M501,-1727.34C501,-1720.75 501,-1713.08 501,-1705.67"/>
<polygon fill="grey" stroke="grey" stroke-width="2" points="504.5,-1705.93 501,-1695.93 497.5,-1705.93 504.5,-1705.93"/>
</g>
<!-- 32&#45;&gt;31 -->
<g id="edge49" class="edge">
<title>32&#45;&gt;31</title>
<path fill="none" stroke="grey" stroke-width="2" d="M487.54,-1799.34C489.26,-1792.67 491.26,-1784.89 493.19,-1777.39"/>
<polygon fill="grey" stroke="grey" stroke-width="2" points="496.54,-1778.39 495.64,-1767.83 489.76,-1776.65 496.54,-1778.39"/>
</g>
<!-- 32&#45;&gt;39 -->
<g id="edge62" class="edge">
<title>32&#45;&gt;39</title>
<path fill="none" stroke="grey" stroke-width="2" d="M549.74,-1799.7C586.52,-1790.16 632.47,-1778.25 671.37,-1768.16"/>
<polygon fill="grey" stroke="grey" stroke-width="2" points="672,-1771.62 680.8,-1765.72 670.25,-1764.84 672,-1771.62"/>
</g>
<!-- 33&#45;&gt;30 -->
<g id="edge47" class="edge">
<title>33&#45;&gt;30</title>
<path fill="none" stroke="grey" stroke-width="2" d="M501,-1655.34C501,-1648.75 501,-1641.08 501,-1633.67"/>
<polygon fill="grey" stroke="grey" stroke-width="2" points="504.5,-1633.93 501,-1623.93 497.5,-1633.93 504.5,-1633.93"/>
</g>
<!-- 34 -->
<g id="node35" class="node">
<title>34</title>
<path fill="none" stroke="#56a2d8" stroke-width="2" d="M532.5,-1332C532.5,-1332 417.5,-1332 417.5,-1332 411.5,-1332 405.5,-1326 405.5,-1320 405.5,-1320 405.5,-1308 405.5,-1308 405.5,-1302 411.5,-1296 417.5,-1296 417.5,-1296 532.5,-1296 532.5,-1296 538.5,-1296 544.5,-1302 544.5,-1308 544.5,-1308 544.5,-1320 544.5,-1320 544.5,-1326 538.5,-1332 532.5,-1332"/>
<text text-anchor="middle" x="475" y="-1311.5" font-family="sans" font-size="10.00">remove_headers_genome</text>
</g>
<!-- 34&#45;&gt;20 -->
<g id="edge32" class="edge">
<title>34&#45;&gt;20</title>
<path fill="none" stroke="grey" stroke-width="2" d="M475,-1295.34C475,-1288.75 475,-1281.08 475,-1273.67"/>
<polygon fill="grey" stroke="grey" stroke-width="2" points="478.5,-1273.93 475,-1263.93 471.5,-1273.93 478.5,-1273.93"/>
</g>
<!-- 35 -->
<g id="node36" class="node">
<title>35</title>
<path fill="none" stroke="#b6d856" stroke-width="2" d="M512.5,-1476C512.5,-1476 437.5,-1476 437.5,-1476 431.5,-1476 425.5,-1470 425.5,-1464 425.5,-1464 425.5,-1452 425.5,-1452 425.5,-1446 431.5,-1440 437.5,-1440 437.5,-1440 512.5,-1440 512.5,-1440 518.5,-1440 524.5,-1446 524.5,-1452 524.5,-1452 524.5,-1464 524.5,-1464 524.5,-1470 518.5,-1476 512.5,-1476"/>
<text text-anchor="middle" x="475" y="-1455.5" font-family="sans" font-size="10.00">nh_filter_genome</text>
</g>
<!-- 35&#45;&gt;34 -->
<g id="edge52" class="edge">
<title>35&#45;&gt;34</title>
<path fill="none" stroke="grey" stroke-width="2" d="M475,-1439.02C475,-1415.54 475,-1374.11 475,-1345.64"/>
<polygon fill="grey" stroke="grey" stroke-width="2" points="478.5,-1345.87 475,-1335.87 471.5,-1345.87 478.5,-1345.87"/>
</g>
<!-- 36 -->
<g id="node37" class="node">
<title>36</title>
<path fill="none" stroke="#a7d856" stroke-width="2" d="M696,-1548C696,-1548 600,-1548 600,-1548 594,-1548 588,-1542 588,-1536 588,-1536 588,-1524 588,-1524 588,-1518 594,-1512 600,-1512 600,-1512 696,-1512 696,-1512 702,-1512 708,-1518 708,-1524 708,-1524 708,-1536 708,-1536 708,-1542 702,-1548 696,-1548"/>
<text text-anchor="middle" x="648" y="-1527.5" font-family="sans" font-size="10.00">merge_genome_maps</text>
</g>
<!-- 36&#45;&gt;35 -->
<g id="edge53" class="edge">
<title>36&#45;&gt;35</title>
<path fill="none" stroke="grey" stroke-width="2" d="M603.9,-1511.15C581.82,-1502.22 554.84,-1491.31 531.29,-1481.77"/>
<polygon fill="grey" stroke="grey" stroke-width="2" points="532.71,-1478.58 522.13,-1478.07 530.09,-1485.06 532.71,-1478.58"/>
</g>
<!-- 37&#45;&gt;36 -->
<g id="edge55" class="edge">
<title>37&#45;&gt;36</title>
<path fill="none" stroke="grey" stroke-width="2" d="M643.31,-1799.11C644.14,-1751.56 646.42,-1621.6 647.46,-1561.83"/>
<polygon fill="grey" stroke="grey" stroke-width="2" points="650.96,-1561.97 647.63,-1551.91 643.96,-1561.85 650.96,-1561.97"/>
</g>
<!-- 38 -->
<g id="node39" class="node">
<title>38</title>
<path fill="none" stroke="#56a9d8" stroke-width="2" d="M797,-1620C797,-1620 683,-1620 683,-1620 677,-1620 671,-1614 671,-1608 671,-1608 671,-1596 671,-1596 671,-1590 677,-1584 683,-1584 683,-1584 797,-1584 797,-1584 803,-1584 809,-1590 809,-1596 809,-1596 809,-1608 809,-1608 809,-1614 803,-1620 797,-1620"/>
<text text-anchor="middle" x="740" y="-1599.5" font-family="sans" font-size="10.00">oligomap_genome_toSAM</text>
</g>
<!-- 38&#45;&gt;36 -->
<g id="edge54" class="edge">
<title>38&#45;&gt;36</title>
<path fill="none" stroke="grey" stroke-width="2" d="M716.78,-1583.34C706.19,-1575.27 693.43,-1565.57 681.8,-1556.72"/>
<polygon fill="grey" stroke="grey" stroke-width="2" points="684.01,-1554 673.94,-1550.73 679.78,-1559.58 684.01,-1554"/>
</g>
<!-- 39&#45;&gt;38 -->
<g id="edge59" class="edge">
<title>39&#45;&gt;38</title>
<path fill="none" stroke="grey" stroke-width="2" d="M727.69,-1727.06C717,-1717.92 705.73,-1705.83 700,-1692 693.88,-1677.22 694.92,-1671.17 700,-1656 702.99,-1647.08 708.13,-1638.47 713.75,-1630.87"/>
<polygon fill="grey" stroke="grey" stroke-width="2" points="716.37,-1633.2 719.94,-1623.23 710.93,-1628.8 716.37,-1633.2"/>
</g>
<!-- 40 -->
<g id="node41" class="node">
<title>40</title>
<path fill="none" stroke="#56d89a" stroke-width="2" d="M823,-1692C823,-1692 721,-1692 721,-1692 715,-1692 709,-1686 709,-1680 709,-1680 709,-1668 709,-1668 709,-1662 715,-1656 721,-1656 721,-1656 823,-1656 823,-1656 829,-1656 835,-1662 835,-1668 835,-1668 835,-1680 835,-1680 835,-1686 829,-1692 823,-1692"/>
<text text-anchor="middle" x="772" y="-1671.5" font-family="sans" font-size="10.00">sort_genome_oligomap</text>
</g>
<!-- 39&#45;&gt;40 -->
<g id="edge63" class="edge">
<title>39&#45;&gt;40</title>
<path fill="none" stroke="grey" stroke-width="2" d="M757.79,-1727.34C759.6,-1720.67 761.72,-1712.89 763.75,-1705.39"/>
<polygon fill="grey" stroke="grey" stroke-width="2" points="767.11,-1706.39 766.35,-1695.82 760.35,-1704.56 767.11,-1706.39"/>
</g>
<!-- 40&#45;&gt;38 -->
<g id="edge60" class="edge">
<title>40&#45;&gt;38</title>
<path fill="none" stroke="grey" stroke-width="2" d="M763.93,-1655.34C760.77,-1648.43 757.06,-1640.31 753.51,-1632.56"/>
<polygon fill="grey" stroke="grey" stroke-width="2" points="756.78,-1631.29 749.44,-1623.65 750.42,-1634.2 756.78,-1631.29"/>
</g>
<!-- 41&#45;&gt;0 -->
<g id="edge12" class="edge">
<title>41&#45;&gt;0</title>
<path fill="none" stroke="grey" stroke-width="2" d="M491.43,-647.35C501.05,-637.86 511.77,-625.38 518,-612 568.9,-502.69 641.86,-169.56 571,-72 543.23,-33.77 487.21,-22.58 448.66,-19.59"/>
<polygon fill="grey" stroke="grey" stroke-width="2" points="449.03,-16.1 438.85,-19.02 448.63,-23.09 449.03,-16.1"/>
</g>
<!-- 43 -->
<g id="node44" class="node">
<title>43</title>
<path fill="none" stroke="#d8a456" stroke-width="2" d="M494,-396C494,-396 372,-396 372,-396 366,-396 360,-390 360,-384 360,-384 360,-372 360,-372 360,-366 366,-360 372,-360 372,-360 494,-360 494,-360 500,-360 506,-366 506,-372 506,-372 506,-384 506,-384 506,-390 500,-396 494,-396"/>
<text text-anchor="middle" x="433" y="-375.5" font-family="sans" font-size="10.00">mirna_intersection_sam_file</text>
</g>
<!-- 41&#45;&gt;43 -->
<g id="edge69" class="edge">
<title>41&#45;&gt;43</title>
<path fill="none" stroke="grey" stroke-width="2" d="M484.04,-647.37C490.52,-637.51 497.66,-624.68 501,-612 513.23,-565.58 512.83,-550.52 501,-504 491.9,-468.24 470.28,-431.66 453.84,-407.39"/>
<polygon fill="grey" stroke="grey" stroke-width="2" points="456.8,-405.53 448.22,-399.32 451.06,-409.53 456.8,-405.53"/>
</g>
<!-- 46 -->
<g id="node47" class="node">
<title>46</title>
<path fill="none" stroke="#d8ac56" stroke-width="2" d="M479.5,-612C479.5,-612 318.5,-612 318.5,-612 312.5,-612 306.5,-606 306.5,-600 306.5,-600 306.5,-588 306.5,-588 306.5,-582 312.5,-576 318.5,-576 318.5,-576 479.5,-576 479.5,-576 485.5,-576 491.5,-582 491.5,-588 491.5,-588 491.5,-600 491.5,-600 491.5,-606 485.5,-612 479.5,-612"/>
<text text-anchor="middle" x="399" y="-591.5" font-family="sans" font-size="10.00">convert_intersected_premir_to_bam</text>
</g>
<!-- 41&#45;&gt;46 -->
<g id="edge73" class="edge">
<title>41&#45;&gt;46</title>
<path fill="none" stroke="grey" stroke-width="2" d="M452.83,-647.34C444.88,-639.6 435.37,-630.36 426.57,-621.81"/>
<polygon fill="grey" stroke="grey" stroke-width="2" points="429.19,-619.47 419.58,-615.01 424.31,-624.49 429.19,-619.47"/>
</g>
<!-- 42&#45;&gt;41 -->
<g id="edge64" class="edge">
<title>42&#45;&gt;41</title>
<path fill="none" stroke="grey" stroke-width="2" d="M545.51,-719.15C533.75,-710.93 519.6,-701.02 506.8,-692.06"/>
<polygon fill="grey" stroke="grey" stroke-width="2" points="509.13,-689.42 498.93,-686.55 505.11,-695.15 509.13,-689.42"/>
</g>
<!-- 49 -->
<g id="node50" class="node">
<title>49</title>
<path fill="none" stroke="#56d8d8" stroke-width="2" d="M644,-684C644,-684 576,-684 576,-684 570,-684 564,-678 564,-672 564,-672 564,-660 564,-660 564,-654 570,-648 576,-648 576,-648 644,-648 644,-648 650,-648 656,-654 656,-660 656,-660 656,-672 656,-672 656,-678 650,-684 644,-684"/>
<text text-anchor="middle" x="610" y="-663.5" font-family="sans" font-size="10.00">quant_mirna_pri</text>
</g>
<!-- 42&#45;&gt;49 -->
<g id="edge77" class="edge">
<title>42&#45;&gt;49</title>
<path fill="none" stroke="grey" stroke-width="2" d="M580.84,-719.34C584.74,-712.34 589.32,-704.12 593.69,-696.28"/>
<polygon fill="grey" stroke="grey" stroke-width="2" points="596.74,-697.99 598.55,-687.55 590.63,-694.58 596.74,-697.99"/>
</g>
<!-- 43&#45;&gt;0 -->
<g id="edge7" class="edge">
<title>43&#45;&gt;0</title>
<path fill="none" stroke="grey" stroke-width="2" d="M427.16,-359.03C419.66,-334.97 407.01,-290.81 402,-252 392.69,-179.96 399.39,-94.39 404.22,-49.68"/>
<polygon fill="grey" stroke="grey" stroke-width="2" points="407.68,-50.27 405.33,-39.93 400.72,-49.48 407.68,-50.27"/>
</g>
<!-- 47 -->
<g id="node48" class="node">
<title>47</title>
<path fill="none" stroke="#566bd8" stroke-width="2" d="M385,-324C385,-324 279,-324 279,-324 273,-324 267,-318 267,-312 267,-312 267,-300 267,-300 267,-294 273,-288 279,-288 279,-288 385,-288 385,-288 391,-288 397,-294 397,-300 397,-300 397,-312 397,-312 397,-318 391,-324 385,-324"/>
<text text-anchor="middle" x="332" y="-303.5" font-family="sans" font-size="10.00">mintersected_mirna_tag</text>
</g>
<!-- 43&#45;&gt;47 -->
<g id="edge74" class="edge">
<title>43&#45;&gt;47</title>
<path fill="none" stroke="grey" stroke-width="2" d="M407.25,-359.15C395.38,-350.93 381.08,-341.02 368.16,-332.06"/>
<polygon fill="grey" stroke="grey" stroke-width="2" points="370.4,-329.36 360.19,-326.54 366.41,-335.11 370.4,-329.36"/>
</g>
<!-- 52 -->
<g id="node53" class="node">
<title>52</title>
<path fill="none" stroke="#61d856" stroke-width="2" d="M536.5,-324C536.5,-324 465.5,-324 465.5,-324 459.5,-324 453.5,-318 453.5,-312 453.5,-312 453.5,-300 453.5,-300 453.5,-294 459.5,-288 465.5,-288 465.5,-288 536.5,-288 536.5,-288 542.5,-288 548.5,-294 548.5,-300 548.5,-300 548.5,-312 548.5,-312 548.5,-318 542.5,-324 536.5,-324"/>
<text text-anchor="middle" x="501" y="-303.5" font-family="sans" font-size="10.00">uncollapse_reads</text>
</g>
<!-- 43&#45;&gt;52 -->
<g id="edge80" class="edge">
<title>43&#45;&gt;52</title>
<path fill="none" stroke="grey" stroke-width="2" d="M450.16,-359.34C457.59,-351.69 466.46,-342.56 474.69,-334.08"/>
<polygon fill="grey" stroke="grey" stroke-width="2" points="477.04,-336.68 481.5,-327.07 472.02,-331.81 477.04,-336.68"/>
</g>
<!-- 44&#45;&gt;43 -->
<g id="edge68" class="edge">
<title>44&#45;&gt;43</title>
<path fill="none" stroke="grey" stroke-width="2" d="M384.4,-431.34C391.43,-423.77 399.8,-414.75 407.6,-406.35"/>
<polygon fill="grey" stroke="grey" stroke-width="2" points="410.08,-408.83 414.32,-399.12 404.95,-404.07 410.08,-408.83"/>
</g>
<!-- 44&#45;&gt;47 -->
<g id="edge75" class="edge">
<title>44&#45;&gt;47</title>
<path fill="none" stroke="grey" stroke-width="2" d="M361.89,-431.46C358.43,-421.2 354.18,-407.95 351,-396 345.87,-376.73 341.17,-354.82 337.74,-337.56"/>
<polygon fill="grey" stroke="grey" stroke-width="2" points="341.19,-336.97 335.84,-327.83 334.32,-338.31 341.19,-336.97"/>
</g>
<!-- 45 -->
<g id="node46" class="node">
<title>45</title>
<path fill="none" stroke="#d87556" stroke-width="2" d="M480,-540C480,-540 318,-540 318,-540 312,-540 306,-534 306,-528 306,-528 306,-516 306,-516 306,-510 312,-504 318,-504 318,-504 480,-504 480,-504 486,-504 492,-510 492,-516 492,-516 492,-528 492,-528 492,-534 486,-540 480,-540"/>
<text text-anchor="middle" x="399" y="-519.5" font-family="sans" font-size="10.00">sort_intersected_premir_by_position</text>
</g>
<!-- 45&#45;&gt;44 -->
<g id="edge71" class="edge">
<title>45&#45;&gt;44</title>
<path fill="none" stroke="grey" stroke-width="2" d="M391.18,-503.34C388.12,-496.43 384.52,-488.31 381.09,-480.56"/>
<polygon fill="grey" stroke="grey" stroke-width="2" points="384.4,-479.4 377.15,-471.67 378,-482.23 384.4,-479.4"/>
</g>
<!-- 46&#45;&gt;45 -->
<g id="edge72" class="edge">
<title>46&#45;&gt;45</title>
<path fill="none" stroke="grey" stroke-width="2" d="M399,-575.34C399,-568.75 399,-561.08 399,-553.67"/>
<polygon fill="grey" stroke="grey" stroke-width="2" points="402.5,-553.93 399,-543.93 395.5,-553.93 402.5,-553.93"/>
</g>
<!-- 47&#45;&gt;0 -->
<g id="edge11" class="edge">
<title>47&#45;&gt;0</title>
<path fill="none" stroke="grey" stroke-width="2" d="M330.01,-287.3C326.24,-246.92 321.33,-145.79 356,-72 360.56,-62.3 367.65,-53.3 375.14,-45.58"/>
<polygon fill="grey" stroke="grey" stroke-width="2" points="377.3,-48.35 382.14,-38.92 372.48,-43.28 377.3,-48.35"/>
</g>
<!-- 48 -->
<g id="node49" class="node">
<title>48</title>
<path fill="none" stroke="#d8b456" stroke-width="2" d="M656,-468C656,-468 600,-468 600,-468 594,-468 588,-462 588,-456 588,-456 588,-444 588,-444 588,-438 594,-432 600,-432 600,-432 656,-432 656,-432 662,-432 668,-438 668,-444 668,-444 668,-456 668,-456 668,-462 662,-468 656,-468"/>
<text text-anchor="middle" x="628" y="-447.5" font-family="sans" font-size="10.00">merge_tables</text>
</g>
<!-- 48&#45;&gt;0 -->
<g id="edge8" class="edge">
<title>48&#45;&gt;0</title>
<path fill="none" stroke="grey" stroke-width="2" d="M628,-431.07C628,-404.13 628,-351.62 628,-307 628,-307 628,-307 628,-161 628,-120.03 632.96,-100.98 604,-72 562.79,-30.76 493.02,-20.69 448.79,-18.72"/>
<polygon fill="grey" stroke="grey" stroke-width="2" points="449.07,-15.23 438.97,-18.43 448.87,-22.22 449.07,-15.23"/>
</g>
<!-- 49&#45;&gt;48 -->
<g id="edge76" class="edge">
<title>49&#45;&gt;48</title>
<path fill="none" stroke="grey" stroke-width="2" d="M611.5,-647.12C614.57,-610.62 621.6,-527.13 625.41,-481.74"/>
<polygon fill="grey" stroke="grey" stroke-width="2" points="628.88,-482.25 626.23,-471.99 621.91,-481.66 628.88,-482.25"/>
</g>
<!-- 50 -->
<g id="node51" class="node">
<title>50</title>
<path fill="none" stroke="#d88556" stroke-width="2" d="M550,-180C550,-180 422,-180 422,-180 416,-180 410,-174 410,-168 410,-168 410,-156 410,-156 410,-150 416,-144 422,-144 422,-144 550,-144 550,-144 556,-144 562,-150 562,-156 562,-156 562,-168 562,-168 562,-174 556,-180 550,-180"/>
<text text-anchor="middle" x="486" y="-159.5" font-family="sans" font-size="10.00">sort_uncollpased_by_position</text>
</g>
<!-- 50&#45;&gt;0 -->
<g id="edge3" class="edge">
<title>50&#45;&gt;0</title>
<path fill="none" stroke="grey" stroke-width="2" d="M460.06,-143.06C448.59,-133.85 435.94,-121.69 428,-108 417.68,-90.21 412.68,-67.56 410.26,-49.56"/>
<polygon fill="grey" stroke="grey" stroke-width="2" points="413.77,-49.43 409.2,-39.87 406.81,-50.19 413.77,-49.43"/>
</g>
<!-- 53 -->
<g id="node54" class="node">
<title>53</title>
<path fill="none" stroke="#56d8b9" stroke-width="2" d="M549.5,-108C549.5,-108 448.5,-108 448.5,-108 442.5,-108 436.5,-102 436.5,-96 436.5,-96 436.5,-84 436.5,-84 436.5,-78 442.5,-72 448.5,-72 448.5,-72 549.5,-72 549.5,-72 555.5,-72 561.5,-78 561.5,-84 561.5,-84 561.5,-96 561.5,-96 561.5,-102 555.5,-108 549.5,-108"/>
<text text-anchor="middle" x="499" y="-87.5" font-family="sans" font-size="10.00">uncollapsed_index_bam</text>
</g>
<!-- 50&#45;&gt;53 -->
<g id="edge81" class="edge">
<title>50&#45;&gt;53</title>
<path fill="none" stroke="grey" stroke-width="2" d="M489.28,-143.34C490.5,-136.75 491.93,-129.08 493.3,-121.67"/>
<polygon fill="grey" stroke="grey" stroke-width="2" points="496.74,-122.35 495.12,-111.88 489.86,-121.07 496.74,-122.35"/>
</g>
<!-- 51 -->
<g id="node52" class="node">
<title>51</title>
<path fill="none" stroke="#56d86b" stroke-width="2" d="M549.5,-252C549.5,-252 422.5,-252 422.5,-252 416.5,-252 410.5,-246 410.5,-240 410.5,-240 410.5,-228 410.5,-228 410.5,-222 416.5,-216 422.5,-216 422.5,-216 549.5,-216 549.5,-216 555.5,-216 561.5,-222 561.5,-228 561.5,-228 561.5,-240 561.5,-240 561.5,-246 555.5,-252 549.5,-252"/>
<text text-anchor="middle" x="486" y="-231.5" font-family="sans" font-size="10.00">uncollpased_convert_to_bam</text>
</g>
<!-- 51&#45;&gt;50 -->
<g id="edge78" class="edge">
<title>51&#45;&gt;50</title>
<path fill="none" stroke="grey" stroke-width="2" d="M486,-215.34C486,-208.75 486,-201.08 486,-193.67"/>
<polygon fill="grey" stroke="grey" stroke-width="2" points="489.5,-193.93 486,-183.93 482.5,-193.93 489.5,-193.93"/>
</g>
<!-- 52&#45;&gt;51 -->
<g id="edge79" class="edge">
<title>52&#45;&gt;51</title>
<path fill="none" stroke="grey" stroke-width="2" d="M497.21,-287.34C495.79,-280.67 494.12,-272.89 492.51,-265.39"/>
<polygon fill="grey" stroke="grey" stroke-width="2" points="495.99,-264.91 490.47,-255.86 489.14,-266.37 495.99,-264.91"/>
</g>
<!-- 53&#45;&gt;0 -->
<g id="edge9" class="edge">
<title>53&#45;&gt;0</title>
<path fill="none" stroke="grey" stroke-width="2" d="M476.04,-71.34C465.56,-63.27 452.94,-53.57 441.43,-44.72"/>
<polygon fill="grey" stroke="grey" stroke-width="2" points="443.73,-42.07 433.67,-38.75 439.46,-47.62 443.73,-42.07"/>
</g>
</g>
</svg>
