<?xml version="1.0" encoding="UTF-8" standalone="no"?>
<!DOCTYPE svg PUBLIC "-//W3C//DTD SVG 1.1//EN"
 "http://www.w3.org/Graphics/SVG/1.1/DTD/svg11.dtd">
<!-- Generated by graphviz version 7.1.0 (20230122.1345)
 -->
<!-- Title: snakemake_dag Pages: 1 -->
<svg width="1216pt" height="2204pt"
 viewBox="0.00 0.00 1216.28 2204.00" xmlns="http://www.w3.org/2000/svg" xmlns:xlink="http://www.w3.org/1999/xlink">
<g id="graph0" class="graph" transform="scale(1 1) rotate(0) translate(4 2200)">
<title>snakemake_dag</title>
<polygon fill="white" stroke="none" points="-4,4 -4,-2200 1212.28,-2200 1212.28,4 -4,4"/>
<!-- 0 -->
<g id="node1" class="node">
<title>0</title>
<path fill="none" stroke="#56d8a9" stroke-width="2" d="M600,-36C600,-36 570,-36 570,-36 564,-36 558,-30 558,-24 558,-24 558,-12 558,-12 558,-6 564,0 570,0 570,0 600,0 600,0 606,0 612,-6 612,-12 612,-12 612,-24 612,-24 612,-30 606,-36 600,-36"/>
<text text-anchor="middle" x="585" y="-15.5" font-family="sans" font-size="10.00">finish</text>
</g>
<!-- 1 -->
<g id="node2" class="node">
<title>1</title>
<path fill="none" stroke="#97d856" stroke-width="2" d="M487.5,-756C487.5,-756 340.5,-756 340.5,-756 334.5,-756 328.5,-750 328.5,-744 328.5,-744 328.5,-732 328.5,-732 328.5,-726 334.5,-720 340.5,-720 340.5,-720 487.5,-720 487.5,-720 493.5,-720 499.5,-726 499.5,-732 499.5,-732 499.5,-744 499.5,-744 499.5,-750 493.5,-756 487.5,-756"/>
<text text-anchor="middle" x="414" y="-735.5" font-family="sans" font-size="10.00">filter_sam_by_intersecting_primir</text>
</g>
<!-- 1&#45;&gt;0 -->
<g id="edge6" class="edge">
<title>1&#45;&gt;0</title>
<path fill="none" stroke="grey" stroke-width="2" d="M430.87,-719.35C453.26,-693.98 490,-644.77 490,-595 490,-595 490,-595 490,-161 490,-114.3 525.93,-71.34 553.6,-45.17"/>
<polygon fill="grey" stroke="grey" stroke-width="2" points="555.69,-48 560.73,-38.68 550.98,-42.82 555.69,-48"/>
</g>
<!-- 42 -->
<g id="node43" class="node">
<title>42</title>
<path fill="none" stroke="#97d856" stroke-width="2" d="M417,-468C417,-468 271,-468 271,-468 265,-468 259,-462 259,-456 259,-456 259,-444 259,-444 259,-438 265,-432 271,-432 271,-432 417,-432 417,-432 423,-432 429,-438 429,-444 429,-444 429,-456 429,-456 429,-462 423,-468 417,-468"/>
<text text-anchor="middle" x="344" y="-447.5" font-family="sans" font-size="10.00">filter_sam_by_intersecting_mirna</text>
</g>
<!-- 1&#45;&gt;42 -->
<g id="edge61" class="edge">
<title>1&#45;&gt;42</title>
<path fill="none" stroke="grey" stroke-width="2" d="M422.09,-719.27C426.26,-709.16 430.89,-696.13 433,-684 441.22,-636.71 447.61,-621.72 433,-576 420.86,-538.03 392.51,-501.75 371.04,-478.15"/>
<polygon fill="grey" stroke="grey" stroke-width="2" points="373.79,-475.96 364.4,-471.05 368.68,-480.74 373.79,-475.96"/>
</g>
<!-- 45 -->
<g id="node46" class="node">
<title>45</title>
<path fill="none" stroke="#d8c356" stroke-width="2" d="M412,-684C412,-684 228,-684 228,-684 222,-684 216,-678 216,-672 216,-672 216,-660 216,-660 216,-654 222,-648 228,-648 228,-648 412,-648 412,-648 418,-648 424,-654 424,-660 424,-660 424,-672 424,-672 424,-678 418,-684 412,-684"/>
<text text-anchor="middle" x="320" y="-663.5" font-family="sans" font-size="10.00">convert_intersecting_primir_sam_to_bam</text>
</g>
<!-- 1&#45;&gt;45 -->
<g id="edge65" class="edge">
<title>1&#45;&gt;45</title>
<path fill="none" stroke="grey" stroke-width="2" d="M390.28,-719.34C379.34,-711.19 366.16,-701.37 354.17,-692.45"/>
<polygon fill="grey" stroke="grey" stroke-width="2" points="356.58,-689.88 346.47,-686.71 352.4,-695.49 356.58,-689.88"/>
</g>
<!-- 2 -->
<g id="node3" class="node">
<title>2</title>
<path fill="none" stroke="#56d88a" stroke-width="2" d="M467,-1044C467,-1044 405,-1044 405,-1044 399,-1044 393,-1038 393,-1032 393,-1032 393,-1020 393,-1020 393,-1014 399,-1008 405,-1008 405,-1008 467,-1008 467,-1008 473,-1008 479,-1014 479,-1020 479,-1020 479,-1032 479,-1032 479,-1038 473,-1044 467,-1044"/>
<text text-anchor="middle" x="436" y="-1023.5" font-family="sans" font-size="10.00">filter_by_indels</text>
</g>
<!-- 2&#45;&gt;1 -->
<g id="edge10" class="edge">
<title>2&#45;&gt;1</title>
<path fill="none" stroke="grey" stroke-width="2" d="M434.62,-1007.11C430.97,-959.56 420.97,-829.6 416.37,-769.83"/>
<polygon fill="grey" stroke="grey" stroke-width="2" points="419.86,-769.6 415.61,-759.9 412.89,-770.14 419.86,-769.6"/>
</g>
<!-- 37 -->
<g id="node38" class="node">
<title>37</title>
<path fill="none" stroke="#d88556" stroke-width="2" d="M396,-972C396,-972 268,-972 268,-972 262,-972 256,-966 256,-960 256,-960 256,-948 256,-948 256,-942 262,-936 268,-936 268,-936 396,-936 396,-936 402,-936 408,-942 408,-948 408,-948 408,-960 408,-960 408,-966 402,-972 396,-972"/>
<text text-anchor="middle" x="332" y="-951.5" font-family="sans" font-size="10.00">convert_all_alns_sam_to_bam</text>
</g>
<!-- 2&#45;&gt;37 -->
<g id="edge55" class="edge">
<title>2&#45;&gt;37</title>
<path fill="none" stroke="grey" stroke-width="2" d="M409.49,-1007.15C397.26,-998.93 382.54,-989.02 369.23,-980.06"/>
<polygon fill="grey" stroke="grey" stroke-width="2" points="371.23,-977.18 360.98,-974.5 367.32,-982.99 371.23,-977.18"/>
</g>
<!-- 3 -->
<g id="node4" class="node">
<title>3</title>
<path fill="none" stroke="#9fd856" stroke-width="2" d="M645.5,-1116C645.5,-1116 572.5,-1116 572.5,-1116 566.5,-1116 560.5,-1110 560.5,-1104 560.5,-1104 560.5,-1092 560.5,-1092 560.5,-1086 566.5,-1080 572.5,-1080 572.5,-1080 645.5,-1080 645.5,-1080 651.5,-1080 657.5,-1086 657.5,-1092 657.5,-1092 657.5,-1104 657.5,-1104 657.5,-1110 651.5,-1116 645.5,-1116"/>
<text text-anchor="middle" x="609" y="-1095.5" font-family="sans" font-size="10.00">remove_inferiors</text>
</g>
<!-- 3&#45;&gt;2 -->
<g id="edge11" class="edge">
<title>3&#45;&gt;2</title>
<path fill="none" stroke="grey" stroke-width="2" d="M564.9,-1079.15C542.65,-1070.15 515.43,-1059.14 491.74,-1049.55"/>
<polygon fill="grey" stroke="grey" stroke-width="2" points="493.11,-1046.33 482.53,-1045.83 490.49,-1052.82 493.11,-1046.33"/>
</g>
<!-- 4 -->
<g id="node5" class="node">
<title>4</title>
<path fill="none" stroke="#566bd8" stroke-width="2" d="M686.5,-1188C686.5,-1188 617.5,-1188 617.5,-1188 611.5,-1188 605.5,-1182 605.5,-1176 605.5,-1176 605.5,-1164 605.5,-1164 605.5,-1158 611.5,-1152 617.5,-1152 617.5,-1152 686.5,-1152 686.5,-1152 692.5,-1152 698.5,-1158 698.5,-1164 698.5,-1164 698.5,-1176 698.5,-1176 698.5,-1182 692.5,-1188 686.5,-1188"/>
<text text-anchor="middle" x="652" y="-1167.5" font-family="sans" font-size="10.00">sort_maps_by_id</text>
</g>
<!-- 4&#45;&gt;3 -->
<g id="edge12" class="edge">
<title>4&#45;&gt;3</title>
<path fill="none" stroke="grey" stroke-width="2" d="M641.15,-1151.34C636.75,-1144.18 631.56,-1135.73 626.65,-1127.73"/>
<polygon fill="grey" stroke="grey" stroke-width="2" points="629.8,-1126.17 621.58,-1119.48 623.83,-1129.83 629.8,-1126.17"/>
</g>
<!-- 5 -->
<g id="node6" class="node">
<title>5</title>
<path fill="none" stroke="#56b1d8" stroke-width="2" d="M768,-1260C768,-1260 676,-1260 676,-1260 670,-1260 664,-1254 664,-1248 664,-1248 664,-1236 664,-1236 664,-1230 670,-1224 676,-1224 676,-1224 768,-1224 768,-1224 774,-1224 780,-1230 780,-1236 780,-1236 780,-1248 780,-1248 780,-1254 774,-1260 768,-1260"/>
<text text-anchor="middle" x="722" y="-1239.5" font-family="sans" font-size="10.00">add_header_all_maps</text>
</g>
<!-- 5&#45;&gt;4 -->
<g id="edge13" class="edge">
<title>5&#45;&gt;4</title>
<path fill="none" stroke="grey" stroke-width="2" d="M704.34,-1223.34C696.69,-1215.69 687.56,-1206.56 679.08,-1198.08"/>
<polygon fill="grey" stroke="grey" stroke-width="2" points="681.59,-1195.64 672.04,-1191.04 676.64,-1200.59 681.59,-1195.64"/>
</g>
<!-- 6 -->
<g id="node7" class="node">
<title>6</title>
<path fill="none" stroke="#d85e56" stroke-width="2" d="M1060,-1404C1060,-1404 956,-1404 956,-1404 950,-1404 944,-1398 944,-1392 944,-1392 944,-1380 944,-1380 944,-1374 950,-1368 956,-1368 956,-1368 1060,-1368 1060,-1368 1066,-1368 1072,-1374 1072,-1380 1072,-1380 1072,-1392 1072,-1392 1072,-1398 1066,-1404 1060,-1404"/>
<text text-anchor="middle" x="1008" y="-1383.5" font-family="sans" font-size="10.00">create_genome_header</text>
</g>
<!-- 6&#45;&gt;5 -->
<g id="edge15" class="edge">
<title>6&#45;&gt;5</title>
<path fill="none" stroke="grey" stroke-width="2" d="M971.78,-1367.02C920.42,-1341.52 826.36,-1294.82 769.47,-1266.57"/>
<polygon fill="grey" stroke="grey" stroke-width="2" points="771.15,-1263.5 760.64,-1262.18 768.04,-1269.77 771.15,-1263.5"/>
</g>
<!-- 7 -->
<g id="node8" class="node">
<title>7</title>
<path fill="none" stroke="#565bd8" stroke-width="2" d="M867,-2052C867,-2052 773,-2052 773,-2052 767,-2052 761,-2046 761,-2040 761,-2040 761,-2028 761,-2028 761,-2022 767,-2016 773,-2016 773,-2016 867,-2016 867,-2016 873,-2016 879,-2022 879,-2028 879,-2028 879,-2040 879,-2040 879,-2046 873,-2052 867,-2052"/>
<text text-anchor="middle" x="820" y="-2031.5" font-family="sans" font-size="10.00">trim_genome_seq_ids</text>
</g>
<!-- 7&#45;&gt;6 -->
<g id="edge16" class="edge">
<title>7&#45;&gt;6</title>
<path fill="none" stroke="grey" stroke-width="2" d="M879.82,-2025.73C936.83,-2017.57 1017.14,-2002.46 1039,-1980 1067.21,-1951.01 1058,-1931.45 1058,-1891 1058,-1891 1058,-1891 1058,-1529 1058,-1488.02 1039.24,-1443.97 1024.71,-1415.98"/>
<polygon fill="grey" stroke="grey" stroke-width="2" points="1027.87,-1414.48 1020.04,-1407.34 1021.71,-1417.8 1027.87,-1414.48"/>
</g>
<!-- 19 -->
<g id="node20" class="node">
<title>19</title>
<path fill="none" stroke="#56c1d8" stroke-width="2" d="M593.5,-1980C593.5,-1980 474.5,-1980 474.5,-1980 468.5,-1980 462.5,-1974 462.5,-1968 462.5,-1968 462.5,-1956 462.5,-1956 462.5,-1950 468.5,-1944 474.5,-1944 474.5,-1944 593.5,-1944 593.5,-1944 599.5,-1944 605.5,-1950 605.5,-1956 605.5,-1956 605.5,-1968 605.5,-1968 605.5,-1974 599.5,-1980 593.5,-1980"/>
<text text-anchor="middle" x="534" y="-1959.5" font-family="sans" font-size="10.00">extract_transcriptome_seqs</text>
</g>
<!-- 7&#45;&gt;19 -->
<g id="edge32" class="edge">
<title>7&#45;&gt;19</title>
<path fill="none" stroke="grey" stroke-width="2" d="M760.05,-2018.33C719.1,-2008.3 664.24,-1994.88 618.83,-1983.76"/>
<polygon fill="grey" stroke="grey" stroke-width="2" points="619.77,-1980.39 609.23,-1981.41 618.11,-1987.19 619.77,-1980.39"/>
</g>
<!-- 30 -->
<g id="node31" class="node">
<title>30</title>
<path fill="none" stroke="#568ad8" stroke-width="2" d="M942.5,-1908C942.5,-1908 835.5,-1908 835.5,-1908 829.5,-1908 823.5,-1902 823.5,-1896 823.5,-1896 823.5,-1884 823.5,-1884 823.5,-1878 829.5,-1872 835.5,-1872 835.5,-1872 942.5,-1872 942.5,-1872 948.5,-1872 954.5,-1878 954.5,-1884 954.5,-1884 954.5,-1896 954.5,-1896 954.5,-1902 948.5,-1908 942.5,-1908"/>
<text text-anchor="middle" x="889" y="-1887.5" font-family="sans" font-size="10.00">map_genome_segemehl</text>
</g>
<!-- 7&#45;&gt;30 -->
<g id="edge46" class="edge">
<title>7&#45;&gt;30</title>
<path fill="none" stroke="grey" stroke-width="2" d="M820.96,-2015.33C822.6,-1996.65 827.03,-1966.8 839,-1944 843.92,-1934.63 850.96,-1925.72 858.22,-1917.98"/>
<polygon fill="grey" stroke="grey" stroke-width="2" points="860.63,-1920.52 865.23,-1910.98 855.68,-1915.56 860.63,-1920.52"/>
</g>
<!-- 31 -->
<g id="node32" class="node">
<title>31</title>
<path fill="none" stroke="#d8d356" stroke-width="2" d="M1018,-1980C1018,-1980 860,-1980 860,-1980 854,-1980 848,-1974 848,-1968 848,-1968 848,-1956 848,-1956 848,-1950 854,-1944 860,-1944 860,-1944 1018,-1944 1018,-1944 1024,-1944 1030,-1950 1030,-1956 1030,-1956 1030,-1968 1030,-1968 1030,-1974 1024,-1980 1018,-1980"/>
<text text-anchor="middle" x="939" y="-1959.5" font-family="sans" font-size="10.00">generate_segemehl_index_genome</text>
</g>
<!-- 7&#45;&gt;31 -->
<g id="edge47" class="edge">
<title>7&#45;&gt;31</title>
<path fill="none" stroke="grey" stroke-width="2" d="M850.34,-2015.15C864.74,-2006.68 882.18,-1996.42 897.77,-1987.25"/>
<polygon fill="grey" stroke="grey" stroke-width="2" points="899.26,-1990.43 906.11,-1982.35 895.72,-1984.4 899.26,-1990.43"/>
</g>
<!-- 34 -->
<g id="node35" class="node">
<title>34</title>
<path fill="none" stroke="#5673d8" stroke-width="2" d="M848,-1836C848,-1836 744,-1836 744,-1836 738,-1836 732,-1830 732,-1824 732,-1824 732,-1812 732,-1812 732,-1806 738,-1800 744,-1800 744,-1800 848,-1800 848,-1800 854,-1800 860,-1806 860,-1812 860,-1812 860,-1824 860,-1824 860,-1830 854,-1836 848,-1836"/>
<text text-anchor="middle" x="796" y="-1815.5" font-family="sans" font-size="10.00">map_genome_oligomap</text>
</g>
<!-- 7&#45;&gt;34 -->
<g id="edge50" class="edge">
<title>7&#45;&gt;34</title>
<path fill="none" stroke="grey" stroke-width="2" d="M818,-2015.12C813.9,-1978.62 804.54,-1895.13 799.45,-1849.74"/>
<polygon fill="grey" stroke="grey" stroke-width="2" points="802.95,-1849.53 798.35,-1839.99 795.99,-1850.31 802.95,-1849.53"/>
</g>
<!-- 41 -->
<g id="node42" class="node">
<title>41</title>
<path fill="none" stroke="#78d856" stroke-width="2" d="M289,-1332C289,-1332 167,-1332 167,-1332 161,-1332 155,-1326 155,-1320 155,-1320 155,-1308 155,-1308 155,-1302 161,-1296 167,-1296 167,-1296 289,-1296 289,-1296 295,-1296 301,-1302 301,-1308 301,-1308 301,-1320 301,-1320 301,-1326 295,-1332 289,-1332"/>
<text text-anchor="middle" x="228" y="-1311.5" font-family="sans" font-size="10.00">create_index_genome_fasta</text>
</g>
<!-- 7&#45;&gt;41 -->
<g id="edge59" class="edge">
<title>7&#45;&gt;41</title>
<path fill="none" stroke="grey" stroke-width="2" d="M760.33,-2018.73C755.5,-2017.75 750.67,-2016.82 746,-2016 629.37,-1995.5 228,-2009.42 228,-1891 228,-1891 228,-1891 228,-1457 228,-1418.65 228,-1374.48 228,-1345.72"/>
<polygon fill="grey" stroke="grey" stroke-width="2" points="231.5,-1345.96 228,-1335.96 224.5,-1345.96 231.5,-1345.96"/>
</g>
<!-- 56 -->
<g id="node57" class="node">
<title>56</title>
<path fill="none" stroke="#56d0d8" stroke-width="2" d="M1025.5,-180C1025.5,-180 894.5,-180 894.5,-180 888.5,-180 882.5,-174 882.5,-168 882.5,-168 882.5,-156 882.5,-156 882.5,-150 888.5,-144 894.5,-144 894.5,-144 1025.5,-144 1025.5,-144 1031.5,-144 1037.5,-150 1037.5,-156 1037.5,-156 1037.5,-168 1037.5,-168 1037.5,-174 1031.5,-180 1025.5,-180"/>
<text text-anchor="middle" x="960" y="-159.5" font-family="sans" font-size="10.00">compress_reference_genome</text>
</g>
<!-- 7&#45;&gt;56 -->
<g id="edge82" class="edge">
<title>7&#45;&gt;56</title>
<path fill="none" stroke="grey" stroke-width="2" d="M879.78,-2026.71C930.07,-2019.84 1003.02,-2006.14 1062,-1980 1124.35,-1952.37 1187,-1959.2 1187,-1891 1187,-1891 1187,-1891 1187,-305 1187,-237.56 1114.1,-200.95 1050.92,-181.89"/>
<polygon fill="grey" stroke="grey" stroke-width="2" points="1051.93,-178.54 1041.35,-179.14 1049.99,-185.27 1051.93,-178.54"/>
</g>
<!-- 8 -->
<g id="node9" class="node">
<title>8</title>
<path fill="none" stroke="#56d8a2" stroke-width="2" d="M755.5,-1332C755.5,-1332 688.5,-1332 688.5,-1332 682.5,-1332 676.5,-1326 676.5,-1320 676.5,-1320 676.5,-1308 676.5,-1308 676.5,-1302 682.5,-1296 688.5,-1296 688.5,-1296 755.5,-1296 755.5,-1296 761.5,-1296 767.5,-1302 767.5,-1308 767.5,-1308 767.5,-1320 767.5,-1320 767.5,-1326 761.5,-1332 755.5,-1332"/>
<text text-anchor="middle" x="722" y="-1311.5" font-family="sans" font-size="10.00">merge_all_maps</text>
</g>
<!-- 8&#45;&gt;5 -->
<g id="edge14" class="edge">
<title>8&#45;&gt;5</title>
<path fill="none" stroke="grey" stroke-width="2" d="M722,-1295.34C722,-1288.75 722,-1281.08 722,-1273.67"/>
<polygon fill="grey" stroke="grey" stroke-width="2" points="725.5,-1273.93 722,-1263.93 718.5,-1273.93 725.5,-1273.93"/>
</g>
<!-- 9 -->
<g id="node10" class="node">
<title>9</title>
<path fill="none" stroke="#b6d856" stroke-width="2" d="M685.5,-1404C685.5,-1404 540.5,-1404 540.5,-1404 534.5,-1404 528.5,-1398 528.5,-1392 528.5,-1392 528.5,-1380 528.5,-1380 528.5,-1374 534.5,-1368 540.5,-1368 540.5,-1368 685.5,-1368 685.5,-1368 691.5,-1368 697.5,-1374 697.5,-1380 697.5,-1380 697.5,-1392 697.5,-1392 697.5,-1398 691.5,-1404 685.5,-1404"/>
<text text-anchor="middle" x="613" y="-1383.5" font-family="sans" font-size="10.00">transcriptome_to_genome_maps</text>
</g>
<!-- 9&#45;&gt;8 -->
<g id="edge18" class="edge">
<title>9&#45;&gt;8</title>
<path fill="none" stroke="grey" stroke-width="2" d="M640.79,-1367.15C653.73,-1358.84 669.34,-1348.82 683.4,-1339.79"/>
<polygon fill="grey" stroke="grey" stroke-width="2" points="685.19,-1342.8 691.72,-1334.45 681.41,-1336.91 685.19,-1342.8"/>
</g>
<!-- 10 -->
<g id="node11" class="node">
<title>10</title>
<path fill="none" stroke="#567bd8" stroke-width="2" d="M555,-1476C555,-1476 369,-1476 369,-1476 363,-1476 357,-1470 357,-1464 357,-1464 357,-1452 357,-1452 357,-1446 363,-1440 369,-1440 369,-1440 555,-1440 555,-1440 561,-1440 567,-1446 567,-1452 567,-1452 567,-1464 567,-1464 567,-1470 561,-1476 555,-1476"/>
<text text-anchor="middle" x="462" y="-1455.5" font-family="sans" font-size="10.00">remove_header_transcriptome_mappings</text>
</g>
<!-- 10&#45;&gt;9 -->
<g id="edge19" class="edge">
<title>10&#45;&gt;9</title>
<path fill="none" stroke="grey" stroke-width="2" d="M500.49,-1439.15C519.41,-1430.38 542.45,-1419.71 562.74,-1410.3"/>
<polygon fill="grey" stroke="grey" stroke-width="2" points="563.97,-1413.59 571.57,-1406.21 561.02,-1407.24 563.97,-1413.59"/>
</g>
<!-- 11 -->
<g id="node12" class="node">
<title>11</title>
<path fill="none" stroke="#d85656" stroke-width="2" d="M520.5,-1548C520.5,-1548 403.5,-1548 403.5,-1548 397.5,-1548 391.5,-1542 391.5,-1536 391.5,-1536 391.5,-1524 391.5,-1524 391.5,-1518 397.5,-1512 403.5,-1512 403.5,-1512 520.5,-1512 520.5,-1512 526.5,-1512 532.5,-1518 532.5,-1524 532.5,-1524 532.5,-1536 532.5,-1536 532.5,-1542 526.5,-1548 520.5,-1548"/>
<text text-anchor="middle" x="462" y="-1527.5" font-family="sans" font-size="10.00">filter_transcriptome_by_nh</text>
</g>
<!-- 11&#45;&gt;10 -->
<g id="edge21" class="edge">
<title>11&#45;&gt;10</title>
<path fill="none" stroke="grey" stroke-width="2" d="M462,-1511.34C462,-1504.75 462,-1497.08 462,-1489.67"/>
<polygon fill="grey" stroke="grey" stroke-width="2" points="465.5,-1489.93 462,-1479.93 458.5,-1489.93 465.5,-1489.93"/>
</g>
<!-- 12 -->
<g id="node13" class="node">
<title>12</title>
<path fill="none" stroke="#56d8c1" stroke-width="2" d="M523,-1620C523,-1620 401,-1620 401,-1620 395,-1620 389,-1614 389,-1608 389,-1608 389,-1596 389,-1596 389,-1590 395,-1584 401,-1584 401,-1584 523,-1584 523,-1584 529,-1584 535,-1590 535,-1596 535,-1596 535,-1608 535,-1608 535,-1614 529,-1620 523,-1620"/>
<text text-anchor="middle" x="462" y="-1599.5" font-family="sans" font-size="10.00">merge_transcriptome_maps</text>
</g>
<!-- 12&#45;&gt;11 -->
<g id="edge22" class="edge">
<title>12&#45;&gt;11</title>
<path fill="none" stroke="grey" stroke-width="2" d="M462,-1583.34C462,-1576.75 462,-1569.08 462,-1561.67"/>
<polygon fill="grey" stroke="grey" stroke-width="2" points="465.5,-1561.93 462,-1551.93 458.5,-1561.93 465.5,-1561.93"/>
</g>
<!-- 13 -->
<g id="node14" class="node">
<title>13</title>
<path fill="none" stroke="#5692d8" stroke-width="2" d="M470.5,-1764C470.5,-1764 337.5,-1764 337.5,-1764 331.5,-1764 325.5,-1758 325.5,-1752 325.5,-1752 325.5,-1740 325.5,-1740 325.5,-1734 331.5,-1728 337.5,-1728 337.5,-1728 470.5,-1728 470.5,-1728 476.5,-1728 482.5,-1734 482.5,-1740 482.5,-1740 482.5,-1752 482.5,-1752 482.5,-1758 476.5,-1764 470.5,-1764"/>
<text text-anchor="middle" x="404" y="-1743.5" font-family="sans" font-size="10.00">map_transcriptome_segemehl</text>
</g>
<!-- 13&#45;&gt;12 -->
<g id="edge23" class="edge">
<title>13&#45;&gt;12</title>
<path fill="none" stroke="grey" stroke-width="2" d="M410.46,-1727.14C417.08,-1709.09 427.81,-1680.43 438,-1656 441.23,-1648.26 444.88,-1639.97 448.35,-1632.3"/>
<polygon fill="grey" stroke="grey" stroke-width="2" points="451.49,-1633.85 452.47,-1623.3 445.13,-1630.94 451.49,-1633.85"/>
</g>
<!-- 14 -->
<g id="node15" class="node">
<title>14</title>
<path fill="none" stroke="#56a9d8" stroke-width="2" d="M739,-1980C739,-1980 637,-1980 637,-1980 631,-1980 625,-1974 625,-1968 625,-1968 625,-1956 625,-1956 625,-1950 631,-1944 637,-1944 637,-1944 739,-1944 739,-1944 745,-1944 751,-1950 751,-1956 751,-1956 751,-1968 751,-1968 751,-1974 745,-1980 739,-1980"/>
<text text-anchor="middle" x="688" y="-1959.5" font-family="sans" font-size="10.00">collapse_identical_reads</text>
</g>
<!-- 14&#45;&gt;13 -->
<g id="edge25" class="edge">
<title>14&#45;&gt;13</title>
<path fill="none" stroke="grey" stroke-width="2" d="M624.31,-1946.12C621.16,-1945.4 618.05,-1944.69 615,-1944 464.48,-1909.95 369.67,-1965.02 285,-1836 276.22,-1822.62 276.29,-1813.42 285,-1800 293.13,-1787.48 304.98,-1777.89 318.09,-1770.55"/>
<polygon fill="grey" stroke="grey" stroke-width="2" points="319.27,-1773.88 326.64,-1766.27 316.14,-1767.62 319.27,-1773.88"/>
</g>
<!-- 24 -->
<g id="node25" class="node">
<title>24</title>
<path fill="none" stroke="#d6d856" stroke-width="2" d="M742,-1908C742,-1908 634,-1908 634,-1908 628,-1908 622,-1902 622,-1896 622,-1896 622,-1884 622,-1884 622,-1878 628,-1872 634,-1872 634,-1872 742,-1872 742,-1872 748,-1872 754,-1878 754,-1884 754,-1884 754,-1896 754,-1896 754,-1902 748,-1908 742,-1908"/>
<text text-anchor="middle" x="688" y="-1887.5" font-family="sans" font-size="10.00">filter_fasta_for_oligomap</text>
</g>
<!-- 14&#45;&gt;24 -->
<g id="edge38" class="edge">
<title>14&#45;&gt;24</title>
<path fill="none" stroke="grey" stroke-width="2" d="M688,-1943.34C688,-1936.75 688,-1929.08 688,-1921.67"/>
<polygon fill="grey" stroke="grey" stroke-width="2" points="691.5,-1921.93 688,-1911.93 684.5,-1921.93 691.5,-1921.93"/>
</g>
<!-- 14&#45;&gt;30 -->
<g id="edge44" class="edge">
<title>14&#45;&gt;30</title>
<path fill="none" stroke="grey" stroke-width="2" d="M739.5,-1943.06C765.74,-1933.93 797.89,-1922.73 825.64,-1913.07"/>
<polygon fill="grey" stroke="grey" stroke-width="2" points="826.48,-1916.48 834.77,-1909.88 824.18,-1909.87 826.48,-1916.48"/>
</g>
<!-- 15 -->
<g id="node16" class="node">
<title>15</title>
<path fill="none" stroke="#5663d8" stroke-width="2" d="M725,-2052C725,-2052 651,-2052 651,-2052 645,-2052 639,-2046 639,-2040 639,-2040 639,-2028 639,-2028 639,-2022 645,-2016 651,-2016 651,-2016 725,-2016 725,-2016 731,-2016 737,-2022 737,-2028 737,-2028 737,-2040 737,-2040 737,-2046 731,-2052 725,-2052"/>
<text text-anchor="middle" x="688" y="-2031.5" font-family="sans" font-size="10.00">remove_adapters</text>
</g>
<!-- 15&#45;&gt;14 -->
<g id="edge28" class="edge">
<title>15&#45;&gt;14</title>
<path fill="none" stroke="grey" stroke-width="2" d="M688,-2015.34C688,-2008.75 688,-2001.08 688,-1993.67"/>
<polygon fill="grey" stroke="grey" stroke-width="2" points="691.5,-1993.93 688,-1983.93 684.5,-1993.93 691.5,-1993.93"/>
</g>
<!-- 16 -->
<g id="node17" class="node">
<title>16</title>
<path fill="none" stroke="#88d856" stroke-width="2" d="M714,-2124C714,-2124 662,-2124 662,-2124 656,-2124 650,-2118 650,-2112 650,-2112 650,-2100 650,-2100 650,-2094 656,-2088 662,-2088 662,-2088 714,-2088 714,-2088 720,-2088 726,-2094 726,-2100 726,-2100 726,-2112 726,-2112 726,-2118 720,-2124 714,-2124"/>
<text text-anchor="middle" x="688" y="-2103.5" font-family="sans" font-size="10.00">format_fasta</text>
</g>
<!-- 16&#45;&gt;15 -->
<g id="edge29" class="edge">
<title>16&#45;&gt;15</title>
<path fill="none" stroke="grey" stroke-width="2" d="M688,-2087.34C688,-2080.75 688,-2073.08 688,-2065.67"/>
<polygon fill="grey" stroke="grey" stroke-width="2" points="691.5,-2065.93 688,-2055.93 684.5,-2065.93 691.5,-2065.93"/>
</g>
<!-- 17 -->
<g id="node18" class="node">
<title>17</title>
<path fill="none" stroke="#d89c56" stroke-width="2" d="M703,-2196C703,-2196 673,-2196 673,-2196 667,-2196 661,-2190 661,-2184 661,-2184 661,-2172 661,-2172 661,-2166 667,-2160 673,-2160 673,-2160 703,-2160 703,-2160 709,-2160 715,-2166 715,-2172 715,-2172 715,-2184 715,-2184 715,-2190 709,-2196 703,-2196"/>
<text text-anchor="middle" x="688" y="-2175.5" font-family="sans" font-size="10.00">start</text>
</g>
<!-- 17&#45;&gt;16 -->
<g id="edge30" class="edge">
<title>17&#45;&gt;16</title>
<path fill="none" stroke="grey" stroke-width="2" d="M688,-2159.34C688,-2152.75 688,-2145.08 688,-2137.67"/>
<polygon fill="grey" stroke="grey" stroke-width="2" points="691.5,-2137.93 688,-2127.93 684.5,-2137.93 691.5,-2137.93"/>
</g>
<!-- 18 -->
<g id="node19" class="node">
<title>18</title>
<path fill="none" stroke="#d8ac56" stroke-width="2" d="M592,-1908C592,-1908 472,-1908 472,-1908 466,-1908 460,-1902 460,-1896 460,-1896 460,-1884 460,-1884 460,-1878 466,-1872 472,-1872 472,-1872 592,-1872 592,-1872 598,-1872 604,-1878 604,-1884 604,-1884 604,-1896 604,-1896 604,-1902 598,-1908 592,-1908"/>
<text text-anchor="middle" x="532" y="-1887.5" font-family="sans" font-size="10.00">trim_transcriptome_seq_ids</text>
</g>
<!-- 18&#45;&gt;13 -->
<g id="edge27" class="edge">
<title>18&#45;&gt;13</title>
<path fill="none" stroke="grey" stroke-width="2" d="M532.6,-1871.04C532.32,-1851.57 529.07,-1820.53 513,-1800 503.33,-1787.65 490.04,-1777.99 476.07,-1770.51"/>
<polygon fill="grey" stroke="grey" stroke-width="2" points="478.01,-1767.57 467.49,-1766.31 474.93,-1773.85 478.01,-1767.57"/>
</g>
<!-- 20 -->
<g id="node21" class="node">
<title>20</title>
<path fill="none" stroke="#c6d856" stroke-width="2" d="M491.5,-1836C491.5,-1836 306.5,-1836 306.5,-1836 300.5,-1836 294.5,-1830 294.5,-1824 294.5,-1824 294.5,-1812 294.5,-1812 294.5,-1806 300.5,-1800 306.5,-1800 306.5,-1800 491.5,-1800 491.5,-1800 497.5,-1800 503.5,-1806 503.5,-1812 503.5,-1812 503.5,-1824 503.5,-1824 503.5,-1830 497.5,-1836 491.5,-1836"/>
<text text-anchor="middle" x="399" y="-1815.5" font-family="sans" font-size="10.00">generate_segemehl_index_transcriptome</text>
</g>
<!-- 18&#45;&gt;20 -->
<g id="edge33" class="edge">
<title>18&#45;&gt;20</title>
<path fill="none" stroke="grey" stroke-width="2" d="M498.09,-1871.15C481.76,-1862.56 461.93,-1852.12 444.32,-1842.85"/>
<polygon fill="grey" stroke="grey" stroke-width="2" points="446,-1839.78 435.52,-1838.22 442.74,-1845.98 446,-1839.78"/>
</g>
<!-- 23 -->
<g id="node24" class="node">
<title>23</title>
<path fill="none" stroke="#d89556" stroke-width="2" d="M702,-1836C702,-1836 572,-1836 572,-1836 566,-1836 560,-1830 560,-1824 560,-1824 560,-1812 560,-1812 560,-1806 566,-1800 572,-1800 572,-1800 702,-1800 702,-1800 708,-1800 714,-1806 714,-1812 714,-1812 714,-1824 714,-1824 714,-1830 708,-1836 702,-1836"/>
<text text-anchor="middle" x="637" y="-1815.5" font-family="sans" font-size="10.00">map_transcriptome_oligomap</text>
</g>
<!-- 18&#45;&gt;23 -->
<g id="edge36" class="edge">
<title>18&#45;&gt;23</title>
<path fill="none" stroke="grey" stroke-width="2" d="M558.77,-1871.15C571.23,-1862.84 586.27,-1852.82 599.82,-1843.79"/>
<polygon fill="grey" stroke="grey" stroke-width="2" points="601.38,-1846.95 607.76,-1838.49 597.5,-1841.13 601.38,-1846.95"/>
</g>
<!-- 19&#45;&gt;18 -->
<g id="edge31" class="edge">
<title>19&#45;&gt;18</title>
<path fill="none" stroke="grey" stroke-width="2" d="M533.5,-1943.34C533.31,-1936.75 533.09,-1929.08 532.88,-1921.67"/>
<polygon fill="grey" stroke="grey" stroke-width="2" points="536.38,-1921.82 532.6,-1911.93 529.39,-1922.02 536.38,-1921.82"/>
</g>
<!-- 20&#45;&gt;13 -->
<g id="edge26" class="edge">
<title>20&#45;&gt;13</title>
<path fill="none" stroke="grey" stroke-width="2" d="M400.26,-1799.34C400.73,-1792.75 401.28,-1785.08 401.81,-1777.67"/>
<polygon fill="grey" stroke="grey" stroke-width="2" points="405.28,-1778.15 402.51,-1767.92 398.3,-1777.65 405.28,-1778.15"/>
</g>
<!-- 21 -->
<g id="node22" class="node">
<title>21</title>
<path fill="none" stroke="#bed856" stroke-width="2" d="M642.5,-1692C642.5,-1692 459.5,-1692 459.5,-1692 453.5,-1692 447.5,-1686 447.5,-1680 447.5,-1680 447.5,-1668 447.5,-1668 447.5,-1662 453.5,-1656 459.5,-1656 459.5,-1656 642.5,-1656 642.5,-1656 648.5,-1656 654.5,-1662 654.5,-1668 654.5,-1668 654.5,-1680 654.5,-1680 654.5,-1686 648.5,-1692 642.5,-1692"/>
<text text-anchor="middle" x="551" y="-1671.5" font-family="sans" font-size="10.00">convert_transcriptome_to_sam_oligomap</text>
</g>
<!-- 21&#45;&gt;12 -->
<g id="edge24" class="edge">
<title>21&#45;&gt;12</title>
<path fill="none" stroke="grey" stroke-width="2" d="M528.54,-1655.34C518.29,-1647.27 505.95,-1637.57 494.7,-1628.72"/>
<polygon fill="grey" stroke="grey" stroke-width="2" points="497.16,-1626.2 487.14,-1622.77 492.84,-1631.71 497.16,-1626.2"/>
</g>
<!-- 22 -->
<g id="node23" class="node">
<title>22</title>
<path fill="none" stroke="#5682d8" stroke-width="2" d="M669,-1764C669,-1764 541,-1764 541,-1764 535,-1764 529,-1758 529,-1752 529,-1752 529,-1740 529,-1740 529,-1734 535,-1728 541,-1728 541,-1728 669,-1728 669,-1728 675,-1728 681,-1734 681,-1740 681,-1740 681,-1752 681,-1752 681,-1758 675,-1764 669,-1764"/>
<text text-anchor="middle" x="605" y="-1743.5" font-family="sans" font-size="10.00">sort_transcriptome_oligomap</text>
</g>
<!-- 22&#45;&gt;21 -->
<g id="edge34" class="edge">
<title>22&#45;&gt;21</title>
<path fill="none" stroke="grey" stroke-width="2" d="M591.37,-1727.34C585.73,-1720.01 579.03,-1711.34 572.74,-1703.18"/>
<polygon fill="grey" stroke="grey" stroke-width="2" points="575.54,-1701.08 566.66,-1695.3 570,-1705.35 575.54,-1701.08"/>
</g>
<!-- 23&#45;&gt;22 -->
<g id="edge35" class="edge">
<title>23&#45;&gt;22</title>
<path fill="none" stroke="grey" stroke-width="2" d="M628.93,-1799.34C625.77,-1792.43 622.06,-1784.31 618.51,-1776.56"/>
<polygon fill="grey" stroke="grey" stroke-width="2" points="621.78,-1775.29 614.44,-1767.65 615.42,-1778.2 621.78,-1775.29"/>
</g>
<!-- 24&#45;&gt;23 -->
<g id="edge37" class="edge">
<title>24&#45;&gt;23</title>
<path fill="none" stroke="grey" stroke-width="2" d="M675.13,-1871.34C669.8,-1864.01 663.47,-1855.34 657.53,-1847.18"/>
<polygon fill="grey" stroke="grey" stroke-width="2" points="660.54,-1845.37 651.83,-1839.35 654.89,-1849.49 660.54,-1845.37"/>
</g>
<!-- 24&#45;&gt;34 -->
<g id="edge51" class="edge">
<title>24&#45;&gt;34</title>
<path fill="none" stroke="grey" stroke-width="2" d="M715.53,-1871.15C728.35,-1862.84 743.82,-1852.82 757.75,-1843.79"/>
<polygon fill="grey" stroke="grey" stroke-width="2" points="759.49,-1846.83 765.98,-1838.46 755.68,-1840.96 759.49,-1846.83"/>
</g>
<!-- 25 -->
<g id="node26" class="node">
<title>25</title>
<path fill="none" stroke="#d8bc56" stroke-width="2" d="M712.5,-1476C712.5,-1476 597.5,-1476 597.5,-1476 591.5,-1476 585.5,-1470 585.5,-1464 585.5,-1464 585.5,-1452 585.5,-1452 585.5,-1446 591.5,-1440 597.5,-1440 597.5,-1440 712.5,-1440 712.5,-1440 718.5,-1440 724.5,-1446 724.5,-1452 724.5,-1452 724.5,-1464 724.5,-1464 724.5,-1470 718.5,-1476 712.5,-1476"/>
<text text-anchor="middle" x="655" y="-1455.5" font-family="sans" font-size="10.00">convert_exons_gtf_to_bed</text>
</g>
<!-- 25&#45;&gt;9 -->
<g id="edge20" class="edge">
<title>25&#45;&gt;9</title>
<path fill="none" stroke="grey" stroke-width="2" d="M644.4,-1439.34C640.16,-1432.26 635.15,-1423.92 630.4,-1416"/>
<polygon fill="grey" stroke="grey" stroke-width="2" points="633.44,-1414.27 625.3,-1407.5 627.44,-1417.87 633.44,-1414.27"/>
</g>
<!-- 26 -->
<g id="node27" class="node">
<title>26</title>
<path fill="none" stroke="#56d863" stroke-width="2" d="M684,-1548C684,-1548 626,-1548 626,-1548 620,-1548 614,-1542 614,-1536 614,-1536 614,-1524 614,-1524 614,-1518 620,-1512 626,-1512 626,-1512 684,-1512 684,-1512 690,-1512 696,-1518 696,-1524 696,-1524 696,-1536 696,-1536 696,-1542 690,-1548 684,-1548"/>
<text text-anchor="middle" x="655" y="-1527.5" font-family="sans" font-size="10.00">get_exons_gtf</text>
</g>
<!-- 26&#45;&gt;25 -->
<g id="edge39" class="edge">
<title>26&#45;&gt;25</title>
<path fill="none" stroke="grey" stroke-width="2" d="M655,-1511.34C655,-1504.75 655,-1497.08 655,-1489.67"/>
<polygon fill="grey" stroke="grey" stroke-width="2" points="658.5,-1489.93 655,-1479.93 651.5,-1489.93 658.5,-1489.93"/>
</g>
<!-- 27 -->
<g id="node28" class="node">
<title>27</title>
<path fill="none" stroke="#d88d56" stroke-width="2" d="M888,-1404C888,-1404 728,-1404 728,-1404 722,-1404 716,-1398 716,-1392 716,-1392 716,-1380 716,-1380 716,-1374 722,-1368 728,-1368 728,-1368 888,-1368 888,-1368 894,-1368 900,-1374 900,-1380 900,-1380 900,-1392 900,-1392 900,-1398 894,-1404 888,-1404"/>
<text text-anchor="middle" x="808" y="-1383.5" font-family="sans" font-size="10.00">remove_header_genome_mappings</text>
</g>
<!-- 27&#45;&gt;8 -->
<g id="edge17" class="edge">
<title>27&#45;&gt;8</title>
<path fill="none" stroke="grey" stroke-width="2" d="M786.3,-1367.34C776.49,-1359.36 764.71,-1349.77 753.93,-1340.99"/>
<polygon fill="grey" stroke="grey" stroke-width="2" points="756.31,-1338.41 746.34,-1334.81 751.89,-1343.84 756.31,-1338.41"/>
</g>
<!-- 28 -->
<g id="node29" class="node">
<title>28</title>
<path fill="none" stroke="#56d85b" stroke-width="2" d="M853.5,-1548C853.5,-1548 762.5,-1548 762.5,-1548 756.5,-1548 750.5,-1542 750.5,-1536 750.5,-1536 750.5,-1524 750.5,-1524 750.5,-1518 756.5,-1512 762.5,-1512 762.5,-1512 853.5,-1512 853.5,-1512 859.5,-1512 865.5,-1518 865.5,-1524 865.5,-1524 865.5,-1536 865.5,-1536 865.5,-1542 859.5,-1548 853.5,-1548"/>
<text text-anchor="middle" x="808" y="-1527.5" font-family="sans" font-size="10.00">filter_genome_by_nh</text>
</g>
<!-- 28&#45;&gt;27 -->
<g id="edge40" class="edge">
<title>28&#45;&gt;27</title>
<path fill="none" stroke="grey" stroke-width="2" d="M808,-1511.02C808,-1487.54 808,-1446.11 808,-1417.64"/>
<polygon fill="grey" stroke="grey" stroke-width="2" points="811.5,-1417.87 808,-1407.87 804.5,-1417.87 811.5,-1417.87"/>
</g>
<!-- 29 -->
<g id="node30" class="node">
<title>29</title>
<path fill="none" stroke="#70d856" stroke-width="2" d="M856,-1620C856,-1620 760,-1620 760,-1620 754,-1620 748,-1614 748,-1608 748,-1608 748,-1596 748,-1596 748,-1590 754,-1584 760,-1584 760,-1584 856,-1584 856,-1584 862,-1584 868,-1590 868,-1596 868,-1596 868,-1608 868,-1608 868,-1614 862,-1620 856,-1620"/>
<text text-anchor="middle" x="808" y="-1599.5" font-family="sans" font-size="10.00">merge_genome_maps</text>
</g>
<!-- 29&#45;&gt;28 -->
<g id="edge41" class="edge">
<title>29&#45;&gt;28</title>
<path fill="none" stroke="grey" stroke-width="2" d="M808,-1583.34C808,-1576.75 808,-1569.08 808,-1561.67"/>
<polygon fill="grey" stroke="grey" stroke-width="2" points="811.5,-1561.93 808,-1551.93 804.5,-1561.93 811.5,-1561.93"/>
</g>
<!-- 30&#45;&gt;29 -->
<g id="edge42" class="edge">
<title>30&#45;&gt;29</title>
<path fill="none" stroke="grey" stroke-width="2" d="M893.47,-1871.3C902.75,-1830.48 920.26,-1727.79 882,-1656 876.1,-1644.93 866.74,-1635.62 856.63,-1628.06"/>
<polygon fill="grey" stroke="grey" stroke-width="2" points="858.69,-1625.22 848.45,-1622.5 854.75,-1631.01 858.69,-1625.22"/>
</g>
<!-- 31&#45;&gt;30 -->
<g id="edge45" class="edge">
<title>31&#45;&gt;30</title>
<path fill="none" stroke="grey" stroke-width="2" d="M926.38,-1943.34C921.21,-1936.1 915.09,-1927.53 909.32,-1919.45"/>
<polygon fill="grey" stroke="grey" stroke-width="2" points="912.21,-1917.47 903.55,-1911.37 906.51,-1921.54 912.21,-1917.47"/>
</g>
<!-- 32 -->
<g id="node33" class="node">
<title>32</title>
<path fill="none" stroke="#56d8d8" stroke-width="2" d="M860.5,-1692C860.5,-1692 703.5,-1692 703.5,-1692 697.5,-1692 691.5,-1686 691.5,-1680 691.5,-1680 691.5,-1668 691.5,-1668 691.5,-1662 697.5,-1656 703.5,-1656 703.5,-1656 860.5,-1656 860.5,-1656 866.5,-1656 872.5,-1662 872.5,-1668 872.5,-1668 872.5,-1680 872.5,-1680 872.5,-1686 866.5,-1692 860.5,-1692"/>
<text text-anchor="middle" x="782" y="-1671.5" font-family="sans" font-size="10.00">convert_genome_to_sam_oligomap</text>
</g>
<!-- 32&#45;&gt;29 -->
<g id="edge43" class="edge">
<title>32&#45;&gt;29</title>
<path fill="none" stroke="grey" stroke-width="2" d="M788.56,-1655.34C791.07,-1648.59 794,-1640.69 796.82,-1633.11"/>
<polygon fill="grey" stroke="grey" stroke-width="2" points="800.1,-1634.33 800.3,-1623.74 793.53,-1631.9 800.1,-1634.33"/>
</g>
<!-- 33 -->
<g id="node34" class="node">
<title>33</title>
<path fill="none" stroke="#56b9d8" stroke-width="2" d="M846,-1764C846,-1764 744,-1764 744,-1764 738,-1764 732,-1758 732,-1752 732,-1752 732,-1740 732,-1740 732,-1734 738,-1728 744,-1728 744,-1728 846,-1728 846,-1728 852,-1728 858,-1734 858,-1740 858,-1740 858,-1752 858,-1752 858,-1758 852,-1764 846,-1764"/>
<text text-anchor="middle" x="795" y="-1743.5" font-family="sans" font-size="10.00">sort_genome_oligomap</text>
</g>
<!-- 33&#45;&gt;32 -->
<g id="edge48" class="edge">
<title>33&#45;&gt;32</title>
<path fill="none" stroke="grey" stroke-width="2" d="M791.72,-1727.34C790.5,-1720.75 789.07,-1713.08 787.7,-1705.67"/>
<polygon fill="grey" stroke="grey" stroke-width="2" points="791.14,-1705.07 785.88,-1695.88 784.26,-1706.35 791.14,-1705.07"/>
</g>
<!-- 34&#45;&gt;33 -->
<g id="edge49" class="edge">
<title>34&#45;&gt;33</title>
<path fill="none" stroke="grey" stroke-width="2" d="M795.75,-1799.34C795.65,-1792.75 795.54,-1785.08 795.44,-1777.67"/>
<polygon fill="grey" stroke="grey" stroke-width="2" points="798.94,-1777.88 795.3,-1767.93 791.94,-1777.98 798.94,-1777.88"/>
</g>
<!-- 35 -->
<g id="node36" class="node">
<title>35</title>
<path fill="none" stroke="#afd856" stroke-width="2" d="M146,-828C146,-828 30,-828 30,-828 24,-828 18,-822 18,-816 18,-816 18,-804 18,-804 18,-798 24,-792 30,-792 30,-792 146,-792 146,-792 152,-792 158,-798 158,-804 158,-804 158,-816 158,-816 158,-822 152,-828 146,-828"/>
<text text-anchor="middle" x="88" y="-807.5" font-family="sans" font-size="10.00">intersect_extended_primir</text>
</g>
<!-- 35&#45;&gt;1 -->
<g id="edge9" class="edge">
<title>35&#45;&gt;1</title>
<path fill="none" stroke="grey" stroke-width="2" d="M158.74,-793.81C205.26,-783.82 266.74,-770.62 317.7,-759.68"/>
<polygon fill="grey" stroke="grey" stroke-width="2" points="318.42,-763.1 327.46,-757.58 316.95,-756.26 318.42,-763.1"/>
</g>
<!-- 50 -->
<g id="node51" class="node">
<title>50</title>
<path fill="none" stroke="#d87d56" stroke-width="2" d="M123,-684C123,-684 59,-684 59,-684 53,-684 47,-678 47,-672 47,-672 47,-660 47,-660 47,-654 53,-648 59,-648 59,-648 123,-648 123,-648 129,-648 135,-654 135,-660 135,-660 135,-672 135,-672 135,-678 129,-684 123,-684"/>
<text text-anchor="middle" x="91" y="-663.5" font-family="sans" font-size="10.00">quantify_primir</text>
</g>
<!-- 35&#45;&gt;50 -->
<g id="edge72" class="edge">
<title>35&#45;&gt;50</title>
<path fill="none" stroke="grey" stroke-width="2" d="M88.38,-791.02C88.88,-767.54 89.75,-726.11 90.35,-697.64"/>
<polygon fill="grey" stroke="grey" stroke-width="2" points="93.85,-697.94 90.56,-687.86 86.85,-697.79 93.85,-697.94"/>
</g>
<!-- 36 -->
<g id="node37" class="node">
<title>36</title>
<path fill="none" stroke="#a7d856" stroke-width="2" d="M142,-900C142,-900 12,-900 12,-900 6,-900 0,-894 0,-888 0,-888 0,-876 0,-876 0,-870 6,-864 12,-864 12,-864 142,-864 142,-864 148,-864 154,-870 154,-876 154,-876 154,-888 154,-888 154,-894 148,-900 142,-900"/>
<text text-anchor="middle" x="77" y="-879.5" font-family="sans" font-size="10.00">sort_all_alns_bam_by_position</text>
</g>
<!-- 36&#45;&gt;35 -->
<g id="edge52" class="edge">
<title>36&#45;&gt;35</title>
<path fill="none" stroke="grey" stroke-width="2" d="M79.78,-863.34C80.81,-856.75 82.02,-849.08 83.18,-841.67"/>
<polygon fill="grey" stroke="grey" stroke-width="2" points="86.62,-842.31 84.72,-831.89 79.71,-841.23 86.62,-842.31"/>
</g>
<!-- 37&#45;&gt;36 -->
<g id="edge54" class="edge">
<title>37&#45;&gt;36</title>
<path fill="none" stroke="grey" stroke-width="2" d="M266.66,-935.06C232.47,-925.68 190.39,-914.13 154.56,-904.29"/>
<polygon fill="grey" stroke="grey" stroke-width="2" points="155.66,-900.96 145.09,-901.69 153.8,-907.71 155.66,-900.96"/>
</g>
<!-- 38 -->
<g id="node39" class="node">
<title>38</title>
<path fill="none" stroke="#56a2d8" stroke-width="2" d="M293.5,-900C293.5,-900 184.5,-900 184.5,-900 178.5,-900 172.5,-894 172.5,-888 172.5,-888 172.5,-876 172.5,-876 172.5,-870 178.5,-864 184.5,-864 184.5,-864 293.5,-864 293.5,-864 299.5,-864 305.5,-870 305.5,-876 305.5,-876 305.5,-888 305.5,-888 305.5,-894 299.5,-900 293.5,-900"/>
<text text-anchor="middle" x="239" y="-879.5" font-family="sans" font-size="10.00">extend_mirs_annotations</text>
</g>
<!-- 38&#45;&gt;35 -->
<g id="edge53" class="edge">
<title>38&#45;&gt;35</title>
<path fill="none" stroke="grey" stroke-width="2" d="M200.51,-863.15C181.59,-854.38 158.55,-843.71 138.26,-834.3"/>
<polygon fill="grey" stroke="grey" stroke-width="2" points="139.98,-831.24 129.43,-830.21 137.03,-837.59 139.98,-831.24"/>
</g>
<!-- 43 -->
<g id="node44" class="node">
<title>43</title>
<path fill="none" stroke="#59d856" stroke-width="2" d="M332,-540C332,-540 218,-540 218,-540 212,-540 206,-534 206,-528 206,-528 206,-516 206,-516 206,-510 212,-504 218,-504 218,-504 332,-504 332,-504 338,-504 344,-510 344,-516 344,-516 344,-528 344,-528 344,-534 338,-540 332,-540"/>
<text text-anchor="middle" x="275" y="-519.5" font-family="sans" font-size="10.00">intersect_extended_mirna</text>
</g>
<!-- 38&#45;&gt;43 -->
<g id="edge63" class="edge">
<title>38&#45;&gt;43</title>
<path fill="none" stroke="grey" stroke-width="2" d="M227.76,-863.41C212.2,-837.33 186,-786.37 186,-739 186,-739 186,-739 186,-665 186,-624.55 183.29,-610.13 205,-576 211.8,-565.31 221.57,-555.97 231.65,-548.24"/>
<polygon fill="grey" stroke="grey" stroke-width="2" points="233.57,-551.17 239.7,-542.52 229.52,-545.46 233.57,-551.17"/>
</g>
<!-- 39 -->
<g id="node40" class="node">
<title>39</title>
<path fill="none" stroke="#569ad8" stroke-width="2" d="M725,-972C725,-972 657,-972 657,-972 651,-972 645,-966 645,-960 645,-960 645,-948 645,-948 645,-942 651,-936 657,-936 657,-936 725,-936 725,-936 731,-936 737,-942 737,-948 737,-948 737,-960 737,-960 737,-966 731,-972 725,-972"/>
<text text-anchor="middle" x="691" y="-951.5" font-family="sans" font-size="10.00">map_chr_names</text>
</g>
<!-- 39&#45;&gt;38 -->
<g id="edge57" class="edge">
<title>39&#45;&gt;38</title>
<path fill="none" stroke="grey" stroke-width="2" d="M644.33,-945.77C567.45,-933.87 413.31,-909.99 318.84,-895.36"/>
<polygon fill="grey" stroke="grey" stroke-width="2" points="319.61,-891.94 309.19,-893.87 318.54,-898.86 319.61,-891.94"/>
</g>
<!-- 55 -->
<g id="node56" class="node">
<title>55</title>
<path fill="none" stroke="#56d8b9" stroke-width="2" d="M1155.5,-108C1155.5,-108 1030.5,-108 1030.5,-108 1024.5,-108 1018.5,-102 1018.5,-96 1018.5,-96 1018.5,-84 1018.5,-84 1018.5,-78 1024.5,-72 1030.5,-72 1030.5,-72 1155.5,-72 1155.5,-72 1161.5,-72 1167.5,-78 1167.5,-84 1167.5,-84 1167.5,-96 1167.5,-96 1167.5,-102 1161.5,-108 1155.5,-108"/>
<text text-anchor="middle" x="1093" y="-87.5" font-family="sans" font-size="10.00">create_per_run_ascii_pileups</text>
</g>
<!-- 39&#45;&gt;55 -->
<g id="edge80" class="edge">
<title>39&#45;&gt;55</title>
<path fill="none" stroke="grey" stroke-width="2" d="M737.86,-948.54C854.59,-936.15 1149,-896.43 1149,-811 1149,-811 1149,-811 1149,-449 1149,-312.5 1253.3,-262.18 1185,-144 1178.08,-132.03 1167.31,-122.52 1155.55,-115.06"/>
<polygon fill="grey" stroke="grey" stroke-width="2" points="1157.59,-112.2 1147.17,-110.27 1154.12,-118.27 1157.59,-112.2"/>
</g>
<!-- 58 -->
<g id="node59" class="node">
<title>58</title>
<path fill="none" stroke="#56d87b" stroke-width="2" d="M781.5,-108C781.5,-108 644.5,-108 644.5,-108 638.5,-108 632.5,-102 632.5,-96 632.5,-96 632.5,-84 632.5,-84 632.5,-78 638.5,-72 644.5,-72 644.5,-72 781.5,-72 781.5,-72 787.5,-72 793.5,-78 793.5,-84 793.5,-84 793.5,-96 793.5,-96 793.5,-102 787.5,-108 781.5,-108"/>
<text text-anchor="middle" x="713" y="-87.5" font-family="sans" font-size="10.00">create_per_library_ascii_pileups</text>
</g>
<!-- 39&#45;&gt;58 -->
<g id="edge86" class="edge">
<title>39&#45;&gt;58</title>
<path fill="none" stroke="grey" stroke-width="2" d="M644.29,-935.6C596.12,-914.26 528,-873.11 528,-811 528,-811 528,-811 528,-233 528,-173.28 589.42,-135.23 641.48,-113.71"/>
<polygon fill="grey" stroke="grey" stroke-width="2" points="642.62,-117.03 650.63,-110.1 640.05,-110.52 642.62,-117.03"/>
</g>
<!-- 59 -->
<g id="node60" class="node">
<title>59</title>
<path fill="none" stroke="#56d89a" stroke-width="2" d="M974.5,-108C974.5,-108 823.5,-108 823.5,-108 817.5,-108 811.5,-102 811.5,-96 811.5,-96 811.5,-84 811.5,-84 811.5,-78 817.5,-72 823.5,-72 823.5,-72 974.5,-72 974.5,-72 980.5,-72 986.5,-78 986.5,-84 986.5,-84 986.5,-96 986.5,-96 986.5,-102 980.5,-108 974.5,-108"/>
<text text-anchor="middle" x="899" y="-87.5" font-family="sans" font-size="10.00">create_per_condition_ascii_pileups</text>
</g>
<!-- 39&#45;&gt;59 -->
<g id="edge91" class="edge">
<title>39&#45;&gt;59</title>
<path fill="none" stroke="grey" stroke-width="2" d="M737.71,-935.6C785.88,-914.26 854,-873.11 854,-811 854,-811 854,-811 854,-233 854,-192.45 870.88,-148.3 883.96,-120.18"/>
<polygon fill="grey" stroke="grey" stroke-width="2" points="886.94,-122.06 888.14,-111.53 880.64,-119.01 886.94,-122.06"/>
</g>
<!-- 40 -->
<g id="node41" class="node">
<title>40</title>
<path fill="none" stroke="#d86656" stroke-width="2" d="M259,-1260C259,-1260 197,-1260 197,-1260 191,-1260 185,-1254 185,-1248 185,-1248 185,-1236 185,-1236 185,-1230 191,-1224 197,-1224 197,-1224 259,-1224 259,-1224 265,-1224 271,-1230 271,-1236 271,-1236 271,-1248 271,-1248 271,-1254 265,-1260 259,-1260"/>
<text text-anchor="middle" x="228" y="-1239.5" font-family="sans" font-size="10.00">extract_chr_len</text>
</g>
<!-- 40&#45;&gt;38 -->
<g id="edge56" class="edge">
<title>40&#45;&gt;38</title>
<path fill="none" stroke="grey" stroke-width="2" d="M228,-1223.07C228,-1196.13 228,-1143.62 228,-1099 228,-1099 228,-1099 228,-1025 228,-986.54 232.06,-942.39 235.25,-913.67"/>
<polygon fill="grey" stroke="grey" stroke-width="2" points="238.71,-914.24 236.37,-903.91 231.75,-913.44 238.71,-914.24"/>
</g>
<!-- 41&#45;&gt;40 -->
<g id="edge58" class="edge">
<title>41&#45;&gt;40</title>
<path fill="none" stroke="grey" stroke-width="2" d="M228,-1295.34C228,-1288.75 228,-1281.08 228,-1273.67"/>
<polygon fill="grey" stroke="grey" stroke-width="2" points="231.5,-1273.93 228,-1263.93 224.5,-1273.93 231.5,-1273.93"/>
</g>
<!-- 42&#45;&gt;0 -->
<g id="edge2" class="edge">
<title>42&#45;&gt;0</title>
<path fill="none" stroke="grey" stroke-width="2" d="M342.76,-431.08C341,-404.15 338,-351.66 338,-307 338,-307 338,-307 338,-161 338,-66.9 474.4,-34.24 544.48,-23.67"/>
<polygon fill="grey" stroke="grey" stroke-width="2" points="544.73,-27.17 554.15,-22.31 543.76,-20.24 544.73,-27.17"/>
</g>
<!-- 49 -->
<g id="node50" class="node">
<title>49</title>
<path fill="none" stroke="#d87556" stroke-width="2" d="M291.5,-396C291.5,-396 170.5,-396 170.5,-396 164.5,-396 158.5,-390 158.5,-384 158.5,-384 158.5,-372 158.5,-372 158.5,-366 164.5,-360 170.5,-360 170.5,-360 291.5,-360 291.5,-360 297.5,-360 303.5,-366 303.5,-372 303.5,-372 303.5,-384 303.5,-384 303.5,-390 297.5,-396 291.5,-396"/>
<text text-anchor="middle" x="231" y="-375.5" font-family="sans" font-size="10.00">add_intersecting_mirna_tag</text>
</g>
<!-- 42&#45;&gt;49 -->
<g id="edge71" class="edge">
<title>42&#45;&gt;49</title>
<path fill="none" stroke="grey" stroke-width="2" d="M315.19,-431.15C301.65,-422.76 285.28,-412.62 270.59,-403.52"/>
<polygon fill="grey" stroke="grey" stroke-width="2" points="272.67,-400.7 262.33,-398.41 268.99,-406.65 272.67,-400.7"/>
</g>
<!-- 53 -->
<g id="node54" class="node">
<title>53</title>
<path fill="none" stroke="#d8b456" stroke-width="2" d="M449.5,-396C449.5,-396 378.5,-396 378.5,-396 372.5,-396 366.5,-390 366.5,-384 366.5,-384 366.5,-372 366.5,-372 366.5,-366 372.5,-360 378.5,-360 378.5,-360 449.5,-360 449.5,-360 455.5,-360 461.5,-366 461.5,-372 461.5,-372 461.5,-384 461.5,-384 461.5,-390 455.5,-396 449.5,-396"/>
<text text-anchor="middle" x="414" y="-375.5" font-family="sans" font-size="10.00">uncollapse_reads</text>
</g>
<!-- 42&#45;&gt;53 -->
<g id="edge75" class="edge">
<title>42&#45;&gt;53</title>
<path fill="none" stroke="grey" stroke-width="2" d="M361.66,-431.34C369.31,-423.69 378.44,-414.56 386.92,-406.08"/>
<polygon fill="grey" stroke="grey" stroke-width="2" points="389.36,-408.59 393.96,-399.04 384.41,-403.64 389.36,-408.59"/>
</g>
<!-- 43&#45;&gt;42 -->
<g id="edge60" class="edge">
<title>43&#45;&gt;42</title>
<path fill="none" stroke="grey" stroke-width="2" d="M292.41,-503.34C299.95,-495.69 308.95,-486.56 317.31,-478.08"/>
<polygon fill="grey" stroke="grey" stroke-width="2" points="319.7,-480.64 324.23,-471.06 314.72,-475.72 319.7,-480.64"/>
</g>
<!-- 43&#45;&gt;49 -->
<g id="edge70" class="edge">
<title>43&#45;&gt;49</title>
<path fill="none" stroke="grey" stroke-width="2" d="M265.38,-503.28C260.22,-493.17 254.1,-480.15 250,-468 243.58,-448.98 238.85,-426.92 235.72,-409.52"/>
<polygon fill="grey" stroke="grey" stroke-width="2" points="239.18,-408.97 234.05,-399.7 232.28,-410.14 239.18,-408.97"/>
</g>
<!-- 44 -->
<g id="node45" class="node">
<title>44</title>
<path fill="none" stroke="#56c9d8" stroke-width="2" d="M412,-612C412,-612 226,-612 226,-612 220,-612 214,-606 214,-600 214,-600 214,-588 214,-588 214,-582 220,-576 226,-576 226,-576 412,-576 412,-576 418,-576 424,-582 424,-588 424,-588 424,-600 424,-600 424,-606 418,-612 412,-612"/>
<text text-anchor="middle" x="319" y="-591.5" font-family="sans" font-size="10.00">sort_intersecting_primir_bam_by_position</text>
</g>
<!-- 44&#45;&gt;43 -->
<g id="edge62" class="edge">
<title>44&#45;&gt;43</title>
<path fill="none" stroke="grey" stroke-width="2" d="M307.9,-575.34C303.4,-568.18 298.09,-559.73 293.06,-551.73"/>
<polygon fill="grey" stroke="grey" stroke-width="2" points="296.15,-550.07 287.86,-543.46 290.22,-553.79 296.15,-550.07"/>
</g>
<!-- 45&#45;&gt;44 -->
<g id="edge64" class="edge">
<title>45&#45;&gt;44</title>
<path fill="none" stroke="grey" stroke-width="2" d="M319.75,-647.34C319.65,-640.75 319.54,-633.08 319.44,-625.67"/>
<polygon fill="grey" stroke="grey" stroke-width="2" points="322.94,-625.88 319.3,-615.93 315.94,-625.98 322.94,-625.88"/>
</g>
<!-- 46 -->
<g id="node47" class="node">
<title>46</title>
<path fill="none" stroke="#61d856" stroke-width="2" d="M245,-180C245,-180 189,-180 189,-180 183,-180 177,-174 177,-168 177,-168 177,-156 177,-156 177,-150 183,-144 189,-144 189,-144 245,-144 245,-144 251,-144 257,-150 257,-156 257,-156 257,-168 257,-168 257,-174 251,-180 245,-180"/>
<text text-anchor="middle" x="217" y="-159.5" font-family="sans" font-size="10.00">merge_tables</text>
</g>
<!-- 46&#45;&gt;0 -->
<g id="edge1" class="edge">
<title>46&#45;&gt;0</title>
<path fill="none" stroke="grey" stroke-width="2" d="M232.92,-143.27C252.34,-122.79 287.18,-89.65 324,-72 396.68,-37.15 491.4,-25.19 544.45,-21.1"/>
<polygon fill="grey" stroke="grey" stroke-width="2" points="544.56,-24.6 554.29,-20.41 544.07,-17.62 544.56,-24.6"/>
</g>
<!-- 47 -->
<g id="node48" class="node">
<title>47</title>
<path fill="none" stroke="#68d856" stroke-width="2" d="M248,-252C248,-252 186,-252 186,-252 180,-252 174,-246 174,-240 174,-240 174,-228 174,-228 174,-222 180,-216 186,-216 186,-216 248,-216 248,-216 254,-216 260,-222 260,-228 260,-228 260,-240 260,-240 260,-246 254,-252 248,-252"/>
<text text-anchor="middle" x="217" y="-231.5" font-family="sans" font-size="10.00">quantify_mirna</text>
</g>
<!-- 47&#45;&gt;46 -->
<g id="edge66" class="edge">
<title>47&#45;&gt;46</title>
<path fill="none" stroke="grey" stroke-width="2" d="M217,-215.34C217,-208.75 217,-201.08 217,-193.67"/>
<polygon fill="grey" stroke="grey" stroke-width="2" points="220.5,-193.93 217,-183.93 213.5,-193.93 220.5,-193.93"/>
</g>
<!-- 48 -->
<g id="node49" class="node">
<title>48</title>
<path fill="none" stroke="#56d8b1" stroke-width="2" d="M297.5,-324C297.5,-324 136.5,-324 136.5,-324 130.5,-324 124.5,-318 124.5,-312 124.5,-312 124.5,-300 124.5,-300 124.5,-294 130.5,-288 136.5,-288 136.5,-288 297.5,-288 297.5,-288 303.5,-288 309.5,-294 309.5,-300 309.5,-300 309.5,-312 309.5,-312 309.5,-318 303.5,-324 297.5,-324"/>
<text text-anchor="middle" x="217" y="-303.5" font-family="sans" font-size="10.00">sort_intersecting_mirna_by_feat_tag</text>
</g>
<!-- 48&#45;&gt;47 -->
<g id="edge68" class="edge">
<title>48&#45;&gt;47</title>
<path fill="none" stroke="grey" stroke-width="2" d="M217,-287.34C217,-280.75 217,-273.08 217,-265.67"/>
<polygon fill="grey" stroke="grey" stroke-width="2" points="220.5,-265.93 217,-255.93 213.5,-265.93 220.5,-265.93"/>
</g>
<!-- 49&#45;&gt;48 -->
<g id="edge69" class="edge">
<title>49&#45;&gt;48</title>
<path fill="none" stroke="grey" stroke-width="2" d="M227.47,-359.34C226.15,-352.75 224.62,-345.08 223.13,-337.67"/>
<polygon fill="grey" stroke="grey" stroke-width="2" points="226.57,-336.99 221.17,-327.87 219.7,-338.36 226.57,-336.99"/>
</g>
<!-- 50&#45;&gt;46 -->
<g id="edge67" class="edge">
<title>50&#45;&gt;46</title>
<path fill="none" stroke="grey" stroke-width="2" d="M91.83,-647.07C93,-620.14 95,-567.64 95,-523 95,-523 95,-523 95,-305 95,-254.48 139.97,-212.97 175.3,-188.14"/>
<polygon fill="grey" stroke="grey" stroke-width="2" points="177.06,-191.17 183.39,-182.68 173.15,-185.37 177.06,-191.17"/>
</g>
<!-- 51 -->
<g id="node52" class="node">
<title>51</title>
<path fill="none" stroke="#8fd856" stroke-width="2" d="M775,-252C775,-252 593,-252 593,-252 587,-252 581,-246 581,-240 581,-240 581,-228 581,-228 581,-222 587,-216 593,-216 593,-216 775,-216 775,-216 781,-216 787,-222 787,-228 787,-228 787,-240 787,-240 787,-246 781,-252 775,-252"/>
<text text-anchor="middle" x="684" y="-231.5" font-family="sans" font-size="10.00">sort_uncollpased_reads_bam_by_position</text>
</g>
<!-- 51&#45;&gt;0 -->
<g id="edge5" class="edge">
<title>51&#45;&gt;0</title>
<path fill="none" stroke="grey" stroke-width="2" d="M651.32,-215.14C637.88,-206.24 623.32,-194.31 614,-180 588.12,-140.26 583.66,-83.86 583.69,-49.44"/>
<polygon fill="grey" stroke="grey" stroke-width="2" points="587.19,-49.66 583.86,-39.6 580.19,-49.53 587.19,-49.66"/>
</g>
<!-- 54 -->
<g id="node55" class="node">
<title>54</title>
<path fill="none" stroke="#56d882" stroke-width="2" d="M775.5,-180C775.5,-180 644.5,-180 644.5,-180 638.5,-180 632.5,-174 632.5,-168 632.5,-168 632.5,-156 632.5,-156 632.5,-150 638.5,-144 644.5,-144 644.5,-144 775.5,-144 775.5,-144 781.5,-144 787.5,-150 787.5,-156 787.5,-156 787.5,-168 787.5,-168 787.5,-174 781.5,-180 775.5,-180"/>
<text text-anchor="middle" x="710" y="-159.5" font-family="sans" font-size="10.00">index_uncollapsed_reads_bam</text>
</g>
<!-- 51&#45;&gt;54 -->
<g id="edge76" class="edge">
<title>51&#45;&gt;54</title>
<path fill="none" stroke="grey" stroke-width="2" d="M690.56,-215.34C693.07,-208.59 696,-200.69 698.82,-193.11"/>
<polygon fill="grey" stroke="grey" stroke-width="2" points="702.1,-194.33 702.3,-183.74 695.53,-191.9 702.1,-194.33"/>
</g>
<!-- 51&#45;&gt;55 -->
<g id="edge81" class="edge">
<title>51&#45;&gt;55</title>
<path fill="none" stroke="grey" stroke-width="2" d="M787.84,-228.88C922.47,-222.44 1143.1,-207.77 1168,-180 1178.68,-168.09 1175.36,-158.21 1168,-144 1162.23,-132.86 1152.93,-123.56 1142.8,-116.03"/>
<polygon fill="grey" stroke="grey" stroke-width="2" points="1144.83,-113.17 1134.58,-110.5 1140.92,-118.98 1144.83,-113.17"/>
</g>
<!-- 51&#45;&gt;58 -->
<g id="edge87" class="edge">
<title>51&#45;&gt;58</title>
<path fill="none" stroke="grey" stroke-width="2" d="M654.48,-215.03C642.68,-206.11 630.4,-194.19 624,-180 617.42,-165.41 616.09,-157.91 624,-144 630.67,-132.27 641.07,-122.86 652.45,-115.43"/>
<polygon fill="grey" stroke="grey" stroke-width="2" points="654.11,-118.51 660.95,-110.42 650.56,-112.48 654.11,-118.51"/>
</g>
<!-- 51&#45;&gt;59 -->
<g id="edge92" class="edge">
<title>51&#45;&gt;59</title>
<path fill="none" stroke="grey" stroke-width="2" d="M729.53,-215.11C750.77,-205.9 775.95,-193.73 797,-180 804.85,-174.88 842.48,-141.62 869.75,-117.26"/>
<polygon fill="grey" stroke="grey" stroke-width="2" points="871.88,-120.05 877,-110.77 867.22,-114.83 871.88,-120.05"/>
</g>
<!-- 52 -->
<g id="node53" class="node">
<title>52</title>
<path fill="none" stroke="#56d8c9" stroke-width="2" d="M748,-324C748,-324 568,-324 568,-324 562,-324 556,-318 556,-312 556,-312 556,-300 556,-300 556,-294 562,-288 568,-288 568,-288 748,-288 748,-288 754,-288 760,-294 760,-300 760,-300 760,-312 760,-312 760,-318 754,-324 748,-324"/>
<text text-anchor="middle" x="658" y="-303.5" font-family="sans" font-size="10.00">convert_uncollpased_reads_sam_to_bam</text>
</g>
<!-- 52&#45;&gt;51 -->
<g id="edge73" class="edge">
<title>52&#45;&gt;51</title>
<path fill="none" stroke="grey" stroke-width="2" d="M664.56,-287.34C667.07,-280.59 670,-272.69 672.82,-265.11"/>
<polygon fill="grey" stroke="grey" stroke-width="2" points="676.1,-266.33 676.3,-255.74 669.53,-263.9 676.1,-266.33"/>
</g>
<!-- 53&#45;&gt;52 -->
<g id="edge74" class="edge">
<title>53&#45;&gt;52</title>
<path fill="none" stroke="grey" stroke-width="2" d="M462.5,-363.09C496.99,-353.19 543.97,-339.71 583.23,-328.45"/>
<polygon fill="grey" stroke="grey" stroke-width="2" points="584.12,-331.84 592.77,-325.71 582.19,-325.11 584.12,-331.84"/>
</g>
<!-- 54&#45;&gt;0 -->
<g id="edge3" class="edge">
<title>54&#45;&gt;0</title>
<path fill="none" stroke="grey" stroke-width="2" d="M670.34,-143.15C654.32,-134.39 636.66,-122.56 624,-108 609.23,-91.02 599.26,-67.56 593.1,-48.99"/>
<polygon fill="grey" stroke="grey" stroke-width="2" points="596.52,-48.21 590.24,-39.67 589.83,-50.26 596.52,-48.21"/>
</g>
<!-- 54&#45;&gt;55 -->
<g id="edge79" class="edge">
<title>54&#45;&gt;55</title>
<path fill="none" stroke="grey" stroke-width="2" d="M788.43,-146.67C851.32,-135.17 939.55,-119.05 1004.87,-107.11"/>
<polygon fill="grey" stroke="grey" stroke-width="2" points="1005.42,-110.56 1014.63,-105.32 1004.17,-103.68 1005.42,-110.56"/>
</g>
<!-- 54&#45;&gt;58 -->
<g id="edge85" class="edge">
<title>54&#45;&gt;58</title>
<path fill="none" stroke="grey" stroke-width="2" d="M710.76,-143.34C711.04,-136.75 711.37,-129.08 711.69,-121.67"/>
<polygon fill="grey" stroke="grey" stroke-width="2" points="715.17,-122.07 712.1,-111.93 708.18,-121.77 715.17,-122.07"/>
</g>
<!-- 54&#45;&gt;59 -->
<g id="edge90" class="edge">
<title>54&#45;&gt;59</title>
<path fill="none" stroke="grey" stroke-width="2" d="M758.18,-143.15C782.64,-134.1 812.59,-123.01 838.57,-113.38"/>
<polygon fill="grey" stroke="grey" stroke-width="2" points="839.58,-116.74 847.74,-109.99 837.15,-110.18 839.58,-116.74"/>
</g>
<!-- 55&#45;&gt;0 -->
<g id="edge8" class="edge">
<title>55&#45;&gt;0</title>
<path fill="none" stroke="grey" stroke-width="2" d="M1017.59,-75.44C1010.3,-74.23 1003.01,-73.07 996,-72 860.74,-51.44 699.64,-32.18 625.73,-23.63"/>
<polygon fill="grey" stroke="grey" stroke-width="2" points="626.31,-20.18 615.98,-22.51 625.51,-27.13 626.31,-20.18"/>
</g>
<!-- 56&#45;&gt;55 -->
<g id="edge77" class="edge">
<title>56&#45;&gt;55</title>
<path fill="none" stroke="grey" stroke-width="2" d="M993.91,-143.15C1010.24,-134.56 1030.07,-124.12 1047.68,-114.85"/>
<polygon fill="grey" stroke="grey" stroke-width="2" points="1049.26,-117.98 1056.48,-110.22 1046,-111.78 1049.26,-117.98"/>
</g>
<!-- 56&#45;&gt;58 -->
<g id="edge83" class="edge">
<title>56&#45;&gt;58</title>
<path fill="none" stroke="grey" stroke-width="2" d="M896.71,-143.06C863.74,-133.72 823.19,-122.23 788.58,-112.42"/>
<polygon fill="grey" stroke="grey" stroke-width="2" points="789.61,-109.07 779.04,-109.71 787.7,-115.81 789.61,-109.07"/>
</g>
<!-- 56&#45;&gt;59 -->
<g id="edge88" class="edge">
<title>56&#45;&gt;59</title>
<path fill="none" stroke="grey" stroke-width="2" d="M944.61,-143.34C938.08,-135.85 930.33,-126.95 923.08,-118.63"/>
<polygon fill="grey" stroke="grey" stroke-width="2" points="925.8,-116.42 916.59,-111.18 920.52,-121.02 925.8,-116.42"/>
</g>
<!-- 57 -->
<g id="node58" class="node">
<title>57</title>
<path fill="none" stroke="#ced856" stroke-width="2" d="M1146.5,-180C1146.5,-180 1067.5,-180 1067.5,-180 1061.5,-180 1055.5,-174 1055.5,-168 1055.5,-168 1055.5,-156 1055.5,-156 1055.5,-150 1061.5,-144 1067.5,-144 1067.5,-144 1146.5,-144 1146.5,-144 1152.5,-144 1158.5,-150 1158.5,-156 1158.5,-156 1158.5,-168 1158.5,-168 1158.5,-174 1152.5,-180 1146.5,-180"/>
<text text-anchor="middle" x="1107" y="-159.5" font-family="sans" font-size="10.00">create_empty_bed</text>
</g>
<!-- 57&#45;&gt;55 -->
<g id="edge78" class="edge">
<title>57&#45;&gt;55</title>
<path fill="none" stroke="grey" stroke-width="2" d="M1103.47,-143.34C1102.15,-136.75 1100.62,-129.08 1099.13,-121.67"/>
<polygon fill="grey" stroke="grey" stroke-width="2" points="1102.57,-120.99 1097.17,-111.87 1095.7,-122.36 1102.57,-120.99"/>
</g>
<!-- 57&#45;&gt;58 -->
<g id="edge84" class="edge">
<title>57&#45;&gt;58</title>
<path fill="none" stroke="grey" stroke-width="2" d="M1054.74,-145.76C1052.13,-145.14 1049.54,-144.54 1047,-144 943.8,-121.86 913.34,-125.83 807.04,-108.62"/>
<polygon fill="grey" stroke="grey" stroke-width="2" points="807.83,-105.2 797.4,-107.02 806.69,-112.11 807.83,-105.2"/>
</g>
<!-- 57&#45;&gt;59 -->
<g id="edge89" class="edge">
<title>57&#45;&gt;59</title>
<path fill="none" stroke="grey" stroke-width="2" d="M1054.51,-143.34C1027.13,-134.12 993.38,-122.76 964.33,-112.98"/>
<polygon fill="grey" stroke="grey" stroke-width="2" points="965.66,-109.74 955.06,-109.87 963.42,-116.37 965.66,-109.74"/>
</g>
<!-- 58&#45;&gt;0 -->
<g id="edge4" class="edge">
<title>58&#45;&gt;0</title>
<path fill="none" stroke="grey" stroke-width="2" d="M680.37,-71.15C663.23,-61.78 642.12,-50.23 624.11,-40.39"/>
<polygon fill="grey" stroke="grey" stroke-width="2" points="625.91,-37.38 615.46,-35.66 622.55,-43.52 625.91,-37.38"/>
</g>
<!-- 59&#45;&gt;0 -->
<g id="edge7" class="edge">
<title>59&#45;&gt;0</title>
<path fill="none" stroke="grey" stroke-width="2" d="M818.54,-71.06C756.63,-57.26 673.68,-38.77 625.12,-27.94"/>
<polygon fill="grey" stroke="grey" stroke-width="2" points="626.15,-24.59 615.63,-25.83 624.63,-31.42 626.15,-24.59"/>
</g>
</g>
</svg>
