<?xml version="1.0" encoding="UTF-8" standalone="no"?>
<!DOCTYPE svg PUBLIC "-//W3C//DTD SVG 1.1//EN"
 "http://www.w3.org/Graphics/SVG/1.1/DTD/svg11.dtd">
<!-- Generated by graphviz version 2.43.0 (0)
 -->
<!-- Title: snakemake_dag Pages: 1 -->
<svg width="1017pt" height="1772pt"
 viewBox="0.00 0.00 1016.50 1772.00" xmlns="http://www.w3.org/2000/svg" xmlns:xlink="http://www.w3.org/1999/xlink">
<g id="graph0" class="graph" transform="scale(1 1) rotate(0) translate(4 1768)">
<title>snakemake_dag</title>
<polygon fill="white" stroke="transparent" points="-4,4 -4,-1768 1012.5,-1768 1012.5,4 -4,4"/>
<!-- 0 -->
<g id="node1" class="node">
<title>0</title>
<path fill="none" stroke="#565bd8" stroke-width="2" d="M524.5,-36C524.5,-36 494.5,-36 494.5,-36 488.5,-36 482.5,-30 482.5,-24 482.5,-24 482.5,-12 482.5,-12 482.5,-6 488.5,0 494.5,0 494.5,0 524.5,0 524.5,0 530.5,0 536.5,-6 536.5,-12 536.5,-12 536.5,-24 536.5,-24 536.5,-30 530.5,-36 524.5,-36"/>
<text text-anchor="middle" x="509.5" y="-15.5" font-family="sans" font-size="10.00">finish</text>
</g>
<!-- 1 -->
<g id="node2" class="node">
<title>1</title>
<path fill="none" stroke="#d87d56" stroke-width="2" d="M942,-1404C942,-1404 747,-1404 747,-1404 741,-1404 735,-1398 735,-1392 735,-1392 735,-1380 735,-1380 735,-1374 741,-1368 747,-1368 747,-1368 942,-1368 942,-1368 948,-1368 954,-1374 954,-1380 954,-1380 954,-1392 954,-1392 954,-1398 948,-1404 942,-1404"/>
<text text-anchor="middle" x="844.5" y="-1383.5" font-family="sans" font-size="10.00">generate_segemehl_index_transcriptome</text>
</g>
<!-- 1&#45;&gt;0 -->
<g id="edge1" class="edge">
<title>1&#45;&gt;0</title>
<path fill="none" stroke="grey" stroke-width="2" d="M844.1,-1367.95C843.52,-1341.29 842.5,-1288.12 842.5,-1243 842.5,-1243 842.5,-1243 842.5,-161 842.5,-33.7 634.03,-18.95 546.99,-18.34"/>
<polygon fill="grey" stroke="grey" stroke-width="2" points="546.75,-14.84 536.75,-18.33 546.75,-21.84 546.75,-14.84"/>
</g>
<!-- 31 -->
<g id="node32" class="node">
<title>31</title>
<path fill="none" stroke="#68d856" stroke-width="2" d="M584.5,-1332C584.5,-1332 422.5,-1332 422.5,-1332 416.5,-1332 410.5,-1326 410.5,-1320 410.5,-1320 410.5,-1308 410.5,-1308 410.5,-1302 416.5,-1296 422.5,-1296 422.5,-1296 584.5,-1296 584.5,-1296 590.5,-1296 596.5,-1302 596.5,-1308 596.5,-1308 596.5,-1320 596.5,-1320 596.5,-1326 590.5,-1332 584.5,-1332"/>
<text text-anchor="middle" x="503.5" y="-1311.5" font-family="sans" font-size="10.00">mapping_transcriptome_segemehl</text>
</g>
<!-- 1&#45;&gt;31 -->
<g id="edge43" class="edge">
<title>1&#45;&gt;31</title>
<path fill="none" stroke="grey" stroke-width="2" d="M761.52,-1367.97C711.61,-1357.72 647.96,-1344.66 596.38,-1334.07"/>
<polygon fill="grey" stroke="grey" stroke-width="2" points="597.06,-1330.63 586.56,-1332.05 595.65,-1337.49 597.06,-1330.63"/>
</g>
<!-- 2 -->
<g id="node3" class="node">
<title>2</title>
<path fill="none" stroke="#d86e56" stroke-width="2" d="M643,-1476C643,-1476 600,-1476 600,-1476 594,-1476 588,-1470 588,-1464 588,-1464 588,-1452 588,-1452 588,-1446 594,-1440 600,-1440 600,-1440 643,-1440 643,-1440 649,-1440 655,-1446 655,-1452 655,-1452 655,-1464 655,-1464 655,-1470 649,-1476 643,-1476"/>
<text text-anchor="middle" x="621.5" y="-1455.5" font-family="sans" font-size="10.00">trim_fasta</text>
</g>
<!-- 2&#45;&gt;1 -->
<g id="edge9" class="edge">
<title>2&#45;&gt;1</title>
<path fill="none" stroke="grey" stroke-width="2" d="M655.37,-1446.37C688.53,-1435.96 739.88,-1419.84 780.72,-1407.02"/>
<polygon fill="grey" stroke="grey" stroke-width="2" points="781.83,-1410.34 790.32,-1404.01 779.73,-1403.66 781.83,-1410.34"/>
</g>
<!-- 2&#45;&gt;31 -->
<g id="edge42" class="edge">
<title>2&#45;&gt;31</title>
<path fill="none" stroke="grey" stroke-width="2" d="M587.55,-1446.81C566.04,-1438.62 539.38,-1424.97 523.5,-1404 510.09,-1386.29 505.37,-1361.27 503.85,-1342.27"/>
<polygon fill="grey" stroke="grey" stroke-width="2" points="507.33,-1341.94 503.28,-1332.15 500.34,-1342.32 507.33,-1341.94"/>
</g>
<!-- 37 -->
<g id="node38" class="node">
<title>37</title>
<path fill="none" stroke="#56d873" stroke-width="2" d="M704.5,-1404C704.5,-1404 544.5,-1404 544.5,-1404 538.5,-1404 532.5,-1398 532.5,-1392 532.5,-1392 532.5,-1380 532.5,-1380 532.5,-1374 538.5,-1368 544.5,-1368 544.5,-1368 704.5,-1368 704.5,-1368 710.5,-1368 716.5,-1374 716.5,-1380 716.5,-1380 716.5,-1392 716.5,-1392 716.5,-1398 710.5,-1404 704.5,-1404"/>
<text text-anchor="middle" x="624.5" y="-1383.5" font-family="sans" font-size="10.00">mapping_transcriptome_oligomap</text>
</g>
<!-- 2&#45;&gt;37 -->
<g id="edge50" class="edge">
<title>2&#45;&gt;37</title>
<path fill="none" stroke="grey" stroke-width="2" d="M622.24,-1439.7C622.57,-1431.98 622.97,-1422.71 623.34,-1414.11"/>
<polygon fill="grey" stroke="grey" stroke-width="2" points="626.84,-1414.25 623.77,-1404.1 619.84,-1413.95 626.84,-1414.25"/>
</g>
<!-- 3 -->
<g id="node4" class="node">
<title>3</title>
<path fill="none" stroke="#d86656" stroke-width="2" d="M675.5,-1548C675.5,-1548 547.5,-1548 547.5,-1548 541.5,-1548 535.5,-1542 535.5,-1536 535.5,-1536 535.5,-1524 535.5,-1524 535.5,-1518 541.5,-1512 547.5,-1512 547.5,-1512 675.5,-1512 675.5,-1512 681.5,-1512 687.5,-1518 687.5,-1524 687.5,-1524 687.5,-1536 687.5,-1536 687.5,-1542 681.5,-1548 675.5,-1548"/>
<text text-anchor="middle" x="611.5" y="-1527.5" font-family="sans" font-size="10.00">extract_transcriptome_seqs</text>
</g>
<!-- 3&#45;&gt;2 -->
<g id="edge10" class="edge">
<title>3&#45;&gt;2</title>
<path fill="none" stroke="grey" stroke-width="2" d="M613.97,-1511.7C615.07,-1503.98 616.4,-1494.71 617.63,-1486.11"/>
<polygon fill="grey" stroke="grey" stroke-width="2" points="621.11,-1486.5 619.06,-1476.1 614.18,-1485.51 621.11,-1486.5"/>
</g>
<!-- 4 -->
<g id="node5" class="node">
<title>4</title>
<path fill="none" stroke="#d85e56" stroke-width="2" d="M385,-1620C385,-1620 290,-1620 290,-1620 284,-1620 278,-1614 278,-1608 278,-1608 278,-1596 278,-1596 278,-1590 284,-1584 290,-1584 290,-1584 385,-1584 385,-1584 391,-1584 397,-1590 397,-1596 397,-1596 397,-1608 397,-1608 397,-1614 391,-1620 385,-1620"/>
<text text-anchor="middle" x="337.5" y="-1599.5" font-family="sans" font-size="10.00">trim_genome_seq_id</text>
</g>
<!-- 4&#45;&gt;3 -->
<g id="edge11" class="edge">
<title>4&#45;&gt;3</title>
<path fill="none" stroke="grey" stroke-width="2" d="M397.29,-1585.72C437.7,-1575.4 491.4,-1561.68 534.93,-1550.56"/>
<polygon fill="grey" stroke="grey" stroke-width="2" points="535.8,-1553.95 544.62,-1548.09 534.07,-1547.17 535.8,-1553.95"/>
</g>
<!-- 5 -->
<g id="node6" class="node">
<title>5</title>
<path fill="none" stroke="#d88556" stroke-width="2" d="M282,-1548C282,-1548 115,-1548 115,-1548 109,-1548 103,-1542 103,-1536 103,-1536 103,-1524 103,-1524 103,-1518 109,-1512 115,-1512 115,-1512 282,-1512 282,-1512 288,-1512 294,-1518 294,-1524 294,-1524 294,-1536 294,-1536 294,-1542 288,-1548 282,-1548"/>
<text text-anchor="middle" x="198.5" y="-1527.5" font-family="sans" font-size="10.00">generate_segemehl_index_genome</text>
</g>
<!-- 4&#45;&gt;5 -->
<g id="edge12" class="edge">
<title>4&#45;&gt;5</title>
<path fill="none" stroke="grey" stroke-width="2" d="M303.5,-1583.88C284.9,-1574.51 261.67,-1562.81 241.79,-1552.8"/>
<polygon fill="grey" stroke="grey" stroke-width="2" points="243.14,-1549.56 232.63,-1548.19 239.99,-1555.81 243.14,-1549.56"/>
</g>
<!-- 8 -->
<g id="node9" class="node">
<title>8</title>
<path fill="none" stroke="#d89c56" stroke-width="2" d="M119,-900C119,-900 12,-900 12,-900 6,-900 0,-894 0,-888 0,-888 0,-876 0,-876 0,-870 6,-864 12,-864 12,-864 119,-864 119,-864 125,-864 131,-870 131,-876 131,-876 131,-888 131,-888 131,-894 125,-900 119,-900"/>
<text text-anchor="middle" x="65.5" y="-879.5" font-family="sans" font-size="10.00">create_header_genome</text>
</g>
<!-- 4&#45;&gt;8 -->
<g id="edge14" class="edge">
<title>4&#45;&gt;8</title>
<path fill="none" stroke="grey" stroke-width="2" d="M277.8,-1595.25C214.24,-1587.92 119.3,-1573.08 93.5,-1548 64.28,-1519.6 71.5,-1499.75 71.5,-1459 71.5,-1459 71.5,-1459 71.5,-1025 71.5,-984.96 69.09,-938.63 67.32,-910.07"/>
<polygon fill="grey" stroke="grey" stroke-width="2" points="70.81,-909.8 66.69,-900.04 63.83,-910.24 70.81,-909.8"/>
</g>
<!-- 18 -->
<g id="node19" class="node">
<title>18</title>
<path fill="none" stroke="#d8c356" stroke-width="2" d="M996.5,-828C996.5,-828 910.5,-828 910.5,-828 904.5,-828 898.5,-822 898.5,-816 898.5,-816 898.5,-804 898.5,-804 898.5,-798 904.5,-792 910.5,-792 910.5,-792 996.5,-792 996.5,-792 1002.5,-792 1008.5,-798 1008.5,-804 1008.5,-804 1008.5,-816 1008.5,-816 1008.5,-822 1002.5,-828 996.5,-828"/>
<text text-anchor="middle" x="953.5" y="-807.5" font-family="sans" font-size="10.00">create_index_fasta</text>
</g>
<!-- 4&#45;&gt;18 -->
<g id="edge24" class="edge">
<title>4&#45;&gt;18</title>
<path fill="none" stroke="grey" stroke-width="2" d="M397.25,-1588.23C405.05,-1586.71 412.96,-1585.26 420.5,-1584 546.68,-1562.88 982.5,-1586.94 982.5,-1459 982.5,-1459 982.5,-1459 982.5,-953 982.5,-912.21 970.87,-866.15 962.34,-837.84"/>
<polygon fill="grey" stroke="grey" stroke-width="2" points="965.68,-836.77 959.37,-828.26 958.99,-838.84 965.68,-836.77"/>
</g>
<!-- 43 -->
<g id="node44" class="node">
<title>43</title>
<path fill="none" stroke="#70d856" stroke-width="2" d="M320.5,-1476C320.5,-1476 186.5,-1476 186.5,-1476 180.5,-1476 174.5,-1470 174.5,-1464 174.5,-1464 174.5,-1452 174.5,-1452 174.5,-1446 180.5,-1440 186.5,-1440 186.5,-1440 320.5,-1440 320.5,-1440 326.5,-1440 332.5,-1446 332.5,-1452 332.5,-1452 332.5,-1464 332.5,-1464 332.5,-1470 326.5,-1476 320.5,-1476"/>
<text text-anchor="middle" x="253.5" y="-1455.5" font-family="sans" font-size="10.00">mapping_genome_segemehl</text>
</g>
<!-- 4&#45;&gt;43 -->
<g id="edge58" class="edge">
<title>4&#45;&gt;43</title>
<path fill="none" stroke="grey" stroke-width="2" d="M333.07,-1583.68C327.82,-1565.04 317.92,-1534.97 303.5,-1512 297.05,-1501.72 288.41,-1491.71 280.14,-1483.2"/>
<polygon fill="grey" stroke="grey" stroke-width="2" points="282.59,-1480.7 273.02,-1476.15 277.66,-1485.67 282.59,-1480.7"/>
</g>
<!-- 45 -->
<g id="node46" class="node">
<title>45</title>
<path fill="none" stroke="#59d856" stroke-width="2" d="M426,-1404C426,-1404 295,-1404 295,-1404 289,-1404 283,-1398 283,-1392 283,-1392 283,-1380 283,-1380 283,-1374 289,-1368 295,-1368 295,-1368 426,-1368 426,-1368 432,-1368 438,-1374 438,-1380 438,-1380 438,-1392 438,-1392 438,-1398 432,-1404 426,-1404"/>
<text text-anchor="middle" x="360.5" y="-1383.5" font-family="sans" font-size="10.00">mapping_genome_oligomap</text>
</g>
<!-- 4&#45;&gt;45 -->
<g id="edge63" class="edge">
<title>4&#45;&gt;45</title>
<path fill="none" stroke="grey" stroke-width="2" d="M339.34,-1583.85C343.32,-1546.83 352.74,-1459.18 357.56,-1414.39"/>
<polygon fill="grey" stroke="grey" stroke-width="2" points="361.06,-1414.55 358.65,-1404.23 354.1,-1413.8 361.06,-1414.55"/>
</g>
<!-- 5&#45;&gt;0 -->
<g id="edge2" class="edge">
<title>5&#45;&gt;0</title>
<path fill="none" stroke="grey" stroke-width="2" d="M184.22,-1511.55C177.11,-1501.74 169.25,-1488.91 165.5,-1476 82.98,-1192.19 159.5,-1106.57 159.5,-811 159.5,-811 159.5,-811 159.5,-161 159.5,-94.06 382.12,-43.57 472.26,-25.87"/>
<polygon fill="grey" stroke="grey" stroke-width="2" points="473.17,-29.26 482.33,-23.93 471.84,-22.39 473.17,-29.26"/>
</g>
<!-- 5&#45;&gt;43 -->
<g id="edge59" class="edge">
<title>5&#45;&gt;43</title>
<path fill="none" stroke="grey" stroke-width="2" d="M212.1,-1511.7C218.62,-1503.39 226.57,-1493.28 233.75,-1484.14"/>
<polygon fill="grey" stroke="grey" stroke-width="2" points="236.63,-1486.13 240.06,-1476.1 231.13,-1481.81 236.63,-1486.13"/>
</g>
<!-- 6 -->
<g id="node7" class="node">
<title>6</title>
<path fill="none" stroke="#d89556" stroke-width="2" d="M555,-1044C555,-1044 522,-1044 522,-1044 516,-1044 510,-1038 510,-1032 510,-1032 510,-1020 510,-1020 510,-1014 516,-1008 522,-1008 522,-1008 555,-1008 555,-1008 561,-1008 567,-1014 567,-1020 567,-1020 567,-1032 567,-1032 567,-1038 561,-1044 555,-1044"/>
<text text-anchor="middle" x="538.5" y="-1023.5" font-family="sans" font-size="10.00">gtftobed</text>
</g>
<!-- 6&#45;&gt;0 -->
<g id="edge3" class="edge">
<title>6&#45;&gt;0</title>
<path fill="none" stroke="grey" stroke-width="2" d="M536.52,-1007.98C533.61,-981.36 528.5,-928.23 528.5,-883 528.5,-883 528.5,-883 528.5,-449 528.5,-353.51 547.5,-330.49 547.5,-235 547.5,-235 547.5,-235 547.5,-161 547.5,-119.63 532.27,-73.72 521.09,-45.61"/>
<polygon fill="grey" stroke="grey" stroke-width="2" points="524.22,-44.02 517.19,-36.09 517.74,-46.67 524.22,-44.02"/>
</g>
<!-- 27 -->
<g id="node28" class="node">
<title>27</title>
<path fill="none" stroke="#56d8c1" stroke-width="2" d="M434.5,-972C434.5,-972 378.5,-972 378.5,-972 372.5,-972 366.5,-966 366.5,-960 366.5,-960 366.5,-948 366.5,-948 366.5,-942 372.5,-936 378.5,-936 378.5,-936 434.5,-936 434.5,-936 440.5,-936 446.5,-942 446.5,-948 446.5,-948 446.5,-960 446.5,-960 446.5,-966 440.5,-972 434.5,-972"/>
<text text-anchor="middle" x="406.5" y="-951.5" font-family="sans" font-size="10.00">trans_to_gen</text>
</g>
<!-- 6&#45;&gt;27 -->
<g id="edge36" class="edge">
<title>6&#45;&gt;27</title>
<path fill="none" stroke="grey" stroke-width="2" d="M509.86,-1009.81C491.71,-1000.19 467.94,-987.58 447.78,-976.89"/>
<polygon fill="grey" stroke="grey" stroke-width="2" points="449.27,-973.72 438.8,-972.13 445.99,-979.9 449.27,-973.72"/>
</g>
<!-- 7 -->
<g id="node8" class="node">
<title>7</title>
<path fill="none" stroke="#d88d56" stroke-width="2" d="M569,-1116C569,-1116 508,-1116 508,-1116 502,-1116 496,-1110 496,-1104 496,-1104 496,-1092 496,-1092 496,-1086 502,-1080 508,-1080 508,-1080 569,-1080 569,-1080 575,-1080 581,-1086 581,-1092 581,-1092 581,-1104 581,-1104 581,-1110 575,-1116 569,-1116"/>
<text text-anchor="middle" x="538.5" y="-1095.5" font-family="sans" font-size="10.00">get_exons_gtf</text>
</g>
<!-- 7&#45;&gt;6 -->
<g id="edge13" class="edge">
<title>7&#45;&gt;6</title>
<path fill="none" stroke="grey" stroke-width="2" d="M538.5,-1079.7C538.5,-1071.98 538.5,-1062.71 538.5,-1054.11"/>
<polygon fill="grey" stroke="grey" stroke-width="2" points="542,-1054.1 538.5,-1044.1 535,-1054.1 542,-1054.1"/>
</g>
<!-- 8&#45;&gt;0 -->
<g id="edge4" class="edge">
<title>8&#45;&gt;0</title>
<path fill="none" stroke="grey" stroke-width="2" d="M71.17,-863.73C79.35,-837.21 93.5,-784.73 93.5,-739 93.5,-739 93.5,-739 93.5,-161 93.5,-115.19 107.52,-97.61 145.5,-72 198.38,-36.34 390.34,-24.06 472.15,-20.39"/>
<polygon fill="grey" stroke="grey" stroke-width="2" points="472.42,-23.88 482.26,-19.95 472.12,-16.89 472.42,-23.88"/>
</g>
<!-- 25 -->
<g id="node26" class="node">
<title>25</title>
<path fill="none" stroke="#56d8d0" stroke-width="2" d="M307.5,-828C307.5,-828 257.5,-828 257.5,-828 251.5,-828 245.5,-822 245.5,-816 245.5,-816 245.5,-804 245.5,-804 245.5,-798 251.5,-792 257.5,-792 257.5,-792 307.5,-792 307.5,-792 313.5,-792 319.5,-798 319.5,-804 319.5,-804 319.5,-816 319.5,-816 319.5,-822 313.5,-828 307.5,-828"/>
<text text-anchor="middle" x="282.5" y="-807.5" font-family="sans" font-size="10.00">add_header</text>
</g>
<!-- 8&#45;&gt;25 -->
<g id="edge31" class="edge">
<title>8&#45;&gt;25</title>
<path fill="none" stroke="grey" stroke-width="2" d="M118.31,-863.97C154.16,-852.4 201.15,-837.24 235.66,-826.11"/>
<polygon fill="grey" stroke="grey" stroke-width="2" points="237.06,-829.34 245.5,-822.94 234.91,-822.67 237.06,-829.34"/>
</g>
<!-- 9 -->
<g id="node10" class="node">
<title>9</title>
<path fill="none" stroke="#d8bc56" stroke-width="2" d="M622,-468C622,-468 589,-468 589,-468 583,-468 577,-462 577,-456 577,-456 577,-444 577,-444 577,-438 583,-432 589,-432 589,-432 622,-432 622,-432 628,-432 634,-438 634,-444 634,-444 634,-456 634,-456 634,-462 628,-468 622,-468"/>
<text text-anchor="middle" x="605.5" y="-447.5" font-family="sans" font-size="10.00">gfftobed</text>
</g>
<!-- 9&#45;&gt;0 -->
<g id="edge5" class="edge">
<title>9&#45;&gt;0</title>
<path fill="none" stroke="grey" stroke-width="2" d="M605.3,-431.95C605.01,-405.29 604.5,-352.12 604.5,-307 604.5,-307 604.5,-307 604.5,-161 604.5,-113.01 566.56,-68.96 538.63,-43.04"/>
<polygon fill="grey" stroke="grey" stroke-width="2" points="540.83,-40.31 531.06,-36.22 536.15,-45.52 540.83,-40.31"/>
</g>
<!-- 16 -->
<g id="node17" class="node">
<title>16</title>
<path fill="none" stroke="#d8d356" stroke-width="2" d="M728,-396C728,-396 645,-396 645,-396 639,-396 633,-390 633,-384 633,-384 633,-372 633,-372 633,-366 639,-360 645,-360 645,-360 728,-360 728,-360 734,-360 740,-366 740,-372 740,-372 740,-384 740,-384 740,-390 734,-396 728,-396"/>
<text text-anchor="middle" x="686.5" y="-375.5" font-family="sans" font-size="10.00">filter_mature_mirs</text>
</g>
<!-- 9&#45;&gt;16 -->
<g id="edge22" class="edge">
<title>9&#45;&gt;16</title>
<path fill="none" stroke="grey" stroke-width="2" d="M625.52,-431.7C635.63,-422.97 648.04,-412.24 659.02,-402.75"/>
<polygon fill="grey" stroke="grey" stroke-width="2" points="661.43,-405.29 666.71,-396.1 656.85,-399.99 661.43,-405.29"/>
</g>
<!-- 49 -->
<g id="node50" class="node">
<title>49</title>
<path fill="none" stroke="#5682d8" stroke-width="2" d="M479,-252C479,-252 410,-252 410,-252 404,-252 398,-246 398,-240 398,-240 398,-228 398,-228 398,-222 404,-216 410,-216 410,-216 479,-216 479,-216 485,-216 491,-222 491,-228 491,-228 491,-240 491,-240 491,-246 485,-252 479,-252"/>
<text text-anchor="middle" x="444.5" y="-231.5" font-family="sans" font-size="10.00">intersect_mirna</text>
</g>
<!-- 9&#45;&gt;49 -->
<g id="edge69" class="edge">
<title>9&#45;&gt;49</title>
<path fill="none" stroke="grey" stroke-width="2" d="M592.6,-431.85C564.34,-394.28 496.84,-304.58 463.63,-260.43"/>
<polygon fill="grey" stroke="grey" stroke-width="2" points="466.27,-258.12 457.46,-252.23 460.68,-262.33 466.27,-258.12"/>
</g>
<!-- 10 -->
<g id="node11" class="node">
<title>10</title>
<path fill="none" stroke="#d8ac56" stroke-width="2" d="M646,-540C646,-540 569,-540 569,-540 563,-540 557,-534 557,-528 557,-528 557,-516 557,-516 557,-510 563,-504 569,-504 569,-504 646,-504 646,-504 652,-504 658,-510 658,-516 658,-516 658,-528 658,-528 658,-534 652,-540 646,-540"/>
<text text-anchor="middle" x="607.5" y="-519.5" font-family="sans" font-size="10.00">filter_mir_1_anno</text>
</g>
<!-- 10&#45;&gt;9 -->
<g id="edge15" class="edge">
<title>10&#45;&gt;9</title>
<path fill="none" stroke="grey" stroke-width="2" d="M607.01,-503.7C606.79,-495.98 606.52,-486.71 606.27,-478.11"/>
<polygon fill="grey" stroke="grey" stroke-width="2" points="609.77,-478 605.99,-468.1 602.78,-478.2 609.77,-478"/>
</g>
<!-- 11 -->
<g id="node12" class="node">
<title>11</title>
<path fill="none" stroke="#d8a456" stroke-width="2" d="M644,-612C644,-612 571,-612 571,-612 565,-612 559,-606 559,-600 559,-600 559,-588 559,-588 559,-582 565,-576 571,-576 571,-576 644,-576 644,-576 650,-576 656,-582 656,-588 656,-588 656,-600 656,-600 656,-606 650,-612 644,-612"/>
<text text-anchor="middle" x="607.5" y="-591.5" font-family="sans" font-size="10.00">map_chr_names</text>
</g>
<!-- 11&#45;&gt;10 -->
<g id="edge16" class="edge">
<title>11&#45;&gt;10</title>
<path fill="none" stroke="grey" stroke-width="2" d="M607.5,-575.7C607.5,-567.98 607.5,-558.71 607.5,-550.11"/>
<polygon fill="grey" stroke="grey" stroke-width="2" points="611,-550.1 607.5,-540.1 604,-550.1 611,-550.1"/>
</g>
<!-- 12 -->
<g id="node13" class="node">
<title>12</title>
<path fill="none" stroke="#b6d856" stroke-width="2" d="M710.5,-108C710.5,-108 648.5,-108 648.5,-108 642.5,-108 636.5,-102 636.5,-96 636.5,-96 636.5,-84 636.5,-84 636.5,-78 642.5,-72 648.5,-72 648.5,-72 710.5,-72 710.5,-72 716.5,-72 722.5,-78 722.5,-84 722.5,-84 722.5,-96 722.5,-96 722.5,-102 716.5,-108 710.5,-108"/>
<text text-anchor="middle" x="679.5" y="-87.5" font-family="sans" font-size="10.00">iso_anno_final</text>
</g>
<!-- 12&#45;&gt;0 -->
<g id="edge6" class="edge">
<title>12&#45;&gt;0</title>
<path fill="none" stroke="grey" stroke-width="2" d="M637.91,-71.88C609.81,-60.3 573.05,-45.17 546.07,-34.06"/>
<polygon fill="grey" stroke="grey" stroke-width="2" points="547.18,-30.73 536.61,-30.16 544.52,-37.2 547.18,-30.73"/>
</g>
<!-- 13 -->
<g id="node14" class="node">
<title>13</title>
<path fill="none" stroke="#bed856" stroke-width="2" d="M720.5,-180C720.5,-180 646.5,-180 646.5,-180 640.5,-180 634.5,-174 634.5,-168 634.5,-168 634.5,-156 634.5,-156 634.5,-150 640.5,-144 646.5,-144 646.5,-144 720.5,-144 720.5,-144 726.5,-144 732.5,-150 732.5,-156 732.5,-156 732.5,-168 732.5,-168 732.5,-174 726.5,-180 720.5,-180"/>
<text text-anchor="middle" x="683.5" y="-159.5" font-family="sans" font-size="10.00">iso_anno_concat</text>
</g>
<!-- 13&#45;&gt;12 -->
<g id="edge17" class="edge">
<title>13&#45;&gt;12</title>
<path fill="none" stroke="grey" stroke-width="2" d="M682.51,-143.7C682.07,-135.98 681.54,-126.71 681.05,-118.11"/>
<polygon fill="grey" stroke="grey" stroke-width="2" points="684.54,-117.89 680.48,-108.1 677.55,-118.29 684.54,-117.89"/>
</g>
<!-- 14 -->
<g id="node15" class="node">
<title>14</title>
<path fill="none" stroke="#ced856" stroke-width="2" d="M725,-252C725,-252 646,-252 646,-252 640,-252 634,-246 634,-240 634,-240 634,-228 634,-228 634,-222 640,-216 646,-216 646,-216 725,-216 725,-216 731,-216 737,-222 737,-228 737,-228 737,-240 737,-240 737,-246 731,-252 725,-252"/>
<text text-anchor="middle" x="685.5" y="-231.5" font-family="sans" font-size="10.00">iso_anno_rename</text>
</g>
<!-- 14&#45;&gt;13 -->
<g id="edge18" class="edge">
<title>14&#45;&gt;13</title>
<path fill="none" stroke="grey" stroke-width="2" d="M685.01,-215.7C684.79,-207.98 684.52,-198.71 684.27,-190.11"/>
<polygon fill="grey" stroke="grey" stroke-width="2" points="687.77,-190 683.99,-180.1 680.78,-190.2 687.77,-190"/>
</g>
<!-- 15 -->
<g id="node16" class="node">
<title>15</title>
<path fill="none" stroke="#d6d856" stroke-width="2" d="M704.5,-324C704.5,-324 668.5,-324 668.5,-324 662.5,-324 656.5,-318 656.5,-312 656.5,-312 656.5,-300 656.5,-300 656.5,-294 662.5,-288 668.5,-288 668.5,-288 704.5,-288 704.5,-288 710.5,-288 716.5,-294 716.5,-300 716.5,-300 716.5,-312 716.5,-312 716.5,-318 710.5,-324 704.5,-324"/>
<text text-anchor="middle" x="686.5" y="-303.5" font-family="sans" font-size="10.00">iso_anno</text>
</g>
<!-- 15&#45;&gt;14 -->
<g id="edge19" class="edge">
<title>15&#45;&gt;14</title>
<path fill="none" stroke="grey" stroke-width="2" d="M686.25,-287.7C686.14,-279.98 686.01,-270.71 685.89,-262.11"/>
<polygon fill="grey" stroke="grey" stroke-width="2" points="689.39,-262.05 685.74,-252.1 682.39,-262.15 689.39,-262.05"/>
</g>
<!-- 16&#45;&gt;15 -->
<g id="edge20" class="edge">
<title>16&#45;&gt;15</title>
<path fill="none" stroke="grey" stroke-width="2" d="M686.5,-359.7C686.5,-351.98 686.5,-342.71 686.5,-334.11"/>
<polygon fill="grey" stroke="grey" stroke-width="2" points="690,-334.1 686.5,-324.1 683,-334.1 690,-334.1"/>
</g>
<!-- 17 -->
<g id="node18" class="node">
<title>17</title>
<path fill="none" stroke="#d8cb56" stroke-width="2" d="M968.5,-756C968.5,-756 900.5,-756 900.5,-756 894.5,-756 888.5,-750 888.5,-744 888.5,-744 888.5,-732 888.5,-732 888.5,-726 894.5,-720 900.5,-720 900.5,-720 968.5,-720 968.5,-720 974.5,-720 980.5,-726 980.5,-732 980.5,-732 980.5,-744 980.5,-744 980.5,-750 974.5,-756 968.5,-756"/>
<text text-anchor="middle" x="934.5" y="-735.5" font-family="sans" font-size="10.00">extract_chr_len</text>
</g>
<!-- 17&#45;&gt;15 -->
<g id="edge21" class="edge">
<title>17&#45;&gt;15</title>
<path fill="none" stroke="grey" stroke-width="2" d="M923.31,-719.87C907.49,-693.96 880.5,-642.74 880.5,-595 880.5,-595 880.5,-595 880.5,-521 880.5,-429.61 782.18,-359.88 725.53,-327.29"/>
<polygon fill="grey" stroke="grey" stroke-width="2" points="727.24,-324.24 716.81,-322.38 723.81,-330.34 727.24,-324.24"/>
</g>
<!-- 18&#45;&gt;17 -->
<g id="edge23" class="edge">
<title>18&#45;&gt;17</title>
<path fill="none" stroke="grey" stroke-width="2" d="M948.8,-791.7C946.69,-783.9 944.14,-774.51 941.78,-765.83"/>
<polygon fill="grey" stroke="grey" stroke-width="2" points="945.14,-764.84 939.14,-756.1 938.38,-766.67 945.14,-764.84"/>
</g>
<!-- 19 -->
<g id="node20" class="node">
<title>19</title>
<path fill="none" stroke="#56a9d8" stroke-width="2" d="M323,-324C323,-324 276,-324 276,-324 270,-324 264,-318 264,-312 264,-312 264,-300 264,-300 264,-294 270,-288 276,-288 276,-288 323,-288 323,-288 329,-288 335,-294 335,-300 335,-300 335,-312 335,-312 335,-318 329,-324 323,-324"/>
<text text-anchor="middle" x="299.5" y="-303.5" font-family="sans" font-size="10.00">index_bam</text>
</g>
<!-- 19&#45;&gt;0 -->
<g id="edge7" class="edge">
<title>19&#45;&gt;0</title>
<path fill="none" stroke="grey" stroke-width="2" d="M297.16,-287.57C293.88,-256.35 291.05,-189.89 318.5,-144 353.56,-85.38 427.99,-49.04 472.88,-31.54"/>
<polygon fill="grey" stroke="grey" stroke-width="2" points="474.14,-34.81 482.26,-27.99 471.67,-28.26 474.14,-34.81"/>
</g>
<!-- 20 -->
<g id="node21" class="node">
<title>20</title>
<path fill="none" stroke="#56b1d8" stroke-width="2" d="M336,-468C336,-468 263,-468 263,-468 257,-468 251,-462 251,-456 251,-456 251,-444 251,-444 251,-438 257,-432 263,-432 263,-432 336,-432 336,-432 342,-432 348,-438 348,-444 348,-444 348,-456 348,-456 348,-462 342,-468 336,-468"/>
<text text-anchor="middle" x="299.5" y="-447.5" font-family="sans" font-size="10.00">sort_by_position</text>
</g>
<!-- 20&#45;&gt;19 -->
<g id="edge25" class="edge">
<title>20&#45;&gt;19</title>
<path fill="none" stroke="grey" stroke-width="2" d="M299.5,-431.87C299.5,-407.67 299.5,-363.21 299.5,-334.39"/>
<polygon fill="grey" stroke="grey" stroke-width="2" points="303,-334.19 299.5,-324.19 296,-334.19 303,-334.19"/>
</g>
<!-- 51 -->
<g id="node52" class="node">
<title>51</title>
<path fill="none" stroke="#5692d8" stroke-width="2" d="M410.5,-396C410.5,-396 368.5,-396 368.5,-396 362.5,-396 356.5,-390 356.5,-384 356.5,-384 356.5,-372 356.5,-372 356.5,-366 362.5,-360 368.5,-360 368.5,-360 410.5,-360 410.5,-360 416.5,-360 422.5,-366 422.5,-372 422.5,-372 422.5,-384 422.5,-384 422.5,-390 416.5,-396 410.5,-396"/>
<text text-anchor="middle" x="389.5" y="-375.5" font-family="sans" font-size="10.00">bamtobed</text>
</g>
<!-- 20&#45;&gt;51 -->
<g id="edge71" class="edge">
<title>20&#45;&gt;51</title>
<path fill="none" stroke="grey" stroke-width="2" d="M321.75,-431.7C333.08,-422.88 347.03,-412.03 359.32,-402.47"/>
<polygon fill="grey" stroke="grey" stroke-width="2" points="361.76,-405.01 367.51,-396.1 357.47,-399.48 361.76,-405.01"/>
</g>
<!-- 21 -->
<g id="node22" class="node">
<title>21</title>
<path fill="none" stroke="#56b9d8" stroke-width="2" d="M334,-540C334,-540 263,-540 263,-540 257,-540 251,-534 251,-528 251,-528 251,-516 251,-516 251,-510 257,-504 263,-504 263,-504 334,-504 334,-504 340,-504 346,-510 346,-516 346,-516 346,-528 346,-528 346,-534 340,-540 334,-540"/>
<text text-anchor="middle" x="298.5" y="-519.5" font-family="sans" font-size="10.00">convert_to_bam</text>
</g>
<!-- 21&#45;&gt;20 -->
<g id="edge26" class="edge">
<title>21&#45;&gt;20</title>
<path fill="none" stroke="grey" stroke-width="2" d="M298.75,-503.7C298.86,-495.98 298.99,-486.71 299.11,-478.11"/>
<polygon fill="grey" stroke="grey" stroke-width="2" points="302.61,-478.15 299.26,-468.1 295.61,-478.05 302.61,-478.15"/>
</g>
<!-- 22 -->
<g id="node23" class="node">
<title>22</title>
<path fill="none" stroke="#56c1d8" stroke-width="2" d="M326,-612C326,-612 249,-612 249,-612 243,-612 237,-606 237,-600 237,-600 237,-588 237,-588 237,-582 243,-576 249,-576 249,-576 326,-576 326,-576 332,-576 338,-582 338,-588 338,-588 338,-600 338,-600 338,-606 332,-612 326,-612"/>
<text text-anchor="middle" x="287.5" y="-591.5" font-family="sans" font-size="10.00">uncollapse_reads</text>
</g>
<!-- 22&#45;&gt;21 -->
<g id="edge27" class="edge">
<title>22&#45;&gt;21</title>
<path fill="none" stroke="grey" stroke-width="2" d="M290.22,-575.7C291.43,-567.98 292.89,-558.71 294.24,-550.11"/>
<polygon fill="grey" stroke="grey" stroke-width="2" points="297.72,-550.53 295.81,-540.1 290.8,-549.44 297.72,-550.53"/>
</g>
<!-- 23 -->
<g id="node24" class="node">
<title>23</title>
<path fill="none" stroke="#56c9d8" stroke-width="2" d="M322.5,-684C322.5,-684 246.5,-684 246.5,-684 240.5,-684 234.5,-678 234.5,-672 234.5,-672 234.5,-660 234.5,-660 234.5,-654 240.5,-648 246.5,-648 246.5,-648 322.5,-648 322.5,-648 328.5,-648 334.5,-654 334.5,-660 334.5,-660 334.5,-672 334.5,-672 334.5,-678 328.5,-684 322.5,-684"/>
<text text-anchor="middle" x="284.5" y="-663.5" font-family="sans" font-size="10.00">remove_inferiors</text>
</g>
<!-- 23&#45;&gt;22 -->
<g id="edge28" class="edge">
<title>23&#45;&gt;22</title>
<path fill="none" stroke="grey" stroke-width="2" d="M285.24,-647.7C285.57,-639.98 285.97,-630.71 286.34,-622.11"/>
<polygon fill="grey" stroke="grey" stroke-width="2" points="289.84,-622.25 286.77,-612.1 282.84,-621.95 289.84,-622.25"/>
</g>
<!-- 24 -->
<g id="node25" class="node">
<title>24</title>
<path fill="none" stroke="#56d0d8" stroke-width="2" d="M298.5,-756C298.5,-756 268.5,-756 268.5,-756 262.5,-756 256.5,-750 256.5,-744 256.5,-744 256.5,-732 256.5,-732 256.5,-726 262.5,-720 268.5,-720 268.5,-720 298.5,-720 298.5,-720 304.5,-720 310.5,-726 310.5,-732 310.5,-732 310.5,-744 310.5,-744 310.5,-750 304.5,-756 298.5,-756"/>
<text text-anchor="middle" x="283.5" y="-735.5" font-family="sans" font-size="10.00">sort_id</text>
</g>
<!-- 24&#45;&gt;23 -->
<g id="edge29" class="edge">
<title>24&#45;&gt;23</title>
<path fill="none" stroke="grey" stroke-width="2" d="M283.75,-719.7C283.86,-711.98 283.99,-702.71 284.11,-694.11"/>
<polygon fill="grey" stroke="grey" stroke-width="2" points="287.61,-694.15 284.26,-684.1 280.61,-694.05 287.61,-694.15"/>
</g>
<!-- 25&#45;&gt;24 -->
<g id="edge30" class="edge">
<title>25&#45;&gt;24</title>
<path fill="none" stroke="grey" stroke-width="2" d="M282.75,-791.7C282.86,-783.98 282.99,-774.71 283.11,-766.11"/>
<polygon fill="grey" stroke="grey" stroke-width="2" points="286.61,-766.15 283.26,-756.1 279.61,-766.05 286.61,-766.15"/>
</g>
<!-- 26 -->
<g id="node27" class="node">
<title>26</title>
<path fill="none" stroke="#56d8c9" stroke-width="2" d="M310.5,-900C310.5,-900 254.5,-900 254.5,-900 248.5,-900 242.5,-894 242.5,-888 242.5,-888 242.5,-876 242.5,-876 242.5,-870 248.5,-864 254.5,-864 254.5,-864 310.5,-864 310.5,-864 316.5,-864 322.5,-870 322.5,-876 322.5,-876 322.5,-888 322.5,-888 322.5,-894 316.5,-900 310.5,-900"/>
<text text-anchor="middle" x="282.5" y="-879.5" font-family="sans" font-size="10.00">cat_mapping</text>
</g>
<!-- 26&#45;&gt;25 -->
<g id="edge32" class="edge">
<title>26&#45;&gt;25</title>
<path fill="none" stroke="grey" stroke-width="2" d="M282.5,-863.7C282.5,-855.98 282.5,-846.71 282.5,-838.11"/>
<polygon fill="grey" stroke="grey" stroke-width="2" points="286,-838.1 282.5,-828.1 279,-838.1 286,-838.1"/>
</g>
<!-- 27&#45;&gt;26 -->
<g id="edge33" class="edge">
<title>27&#45;&gt;26</title>
<path fill="none" stroke="grey" stroke-width="2" d="M376.17,-935.88C359.8,-926.64 339.42,-915.13 321.85,-905.21"/>
<polygon fill="grey" stroke="grey" stroke-width="2" points="323.38,-902.06 312.95,-900.19 319.94,-908.15 323.38,-902.06"/>
</g>
<!-- 28 -->
<g id="node29" class="node">
<title>28</title>
<path fill="none" stroke="#56d8b9" stroke-width="2" d="M479.5,-1044C479.5,-1044 331.5,-1044 331.5,-1044 325.5,-1044 319.5,-1038 319.5,-1032 319.5,-1032 319.5,-1020 319.5,-1020 319.5,-1014 325.5,-1008 331.5,-1008 331.5,-1008 479.5,-1008 479.5,-1008 485.5,-1008 491.5,-1014 491.5,-1020 491.5,-1020 491.5,-1032 491.5,-1032 491.5,-1038 485.5,-1044 479.5,-1044"/>
<text text-anchor="middle" x="405.5" y="-1023.5" font-family="sans" font-size="10.00">remove_headers_transcriptome</text>
</g>
<!-- 28&#45;&gt;27 -->
<g id="edge35" class="edge">
<title>28&#45;&gt;27</title>
<path fill="none" stroke="grey" stroke-width="2" d="M405.75,-1007.7C405.86,-999.98 405.99,-990.71 406.11,-982.11"/>
<polygon fill="grey" stroke="grey" stroke-width="2" points="409.61,-982.15 406.26,-972.1 402.61,-982.05 409.61,-982.15"/>
</g>
<!-- 29 -->
<g id="node30" class="node">
<title>29</title>
<path fill="none" stroke="#56d8a9" stroke-width="2" d="M464.5,-1116C464.5,-1116 358.5,-1116 358.5,-1116 352.5,-1116 346.5,-1110 346.5,-1104 346.5,-1104 346.5,-1092 346.5,-1092 346.5,-1086 352.5,-1080 358.5,-1080 358.5,-1080 464.5,-1080 464.5,-1080 470.5,-1080 476.5,-1086 476.5,-1092 476.5,-1092 476.5,-1104 476.5,-1104 476.5,-1110 470.5,-1116 464.5,-1116"/>
<text text-anchor="middle" x="411.5" y="-1095.5" font-family="sans" font-size="10.00">filter_nh_transcriptome</text>
</g>
<!-- 29&#45;&gt;28 -->
<g id="edge37" class="edge">
<title>29&#45;&gt;28</title>
<path fill="none" stroke="grey" stroke-width="2" d="M410.02,-1079.7C409.36,-1071.98 408.56,-1062.71 407.82,-1054.11"/>
<polygon fill="grey" stroke="grey" stroke-width="2" points="411.31,-1053.77 406.97,-1044.1 404.33,-1054.37 411.31,-1053.77"/>
</g>
<!-- 30 -->
<g id="node31" class="node">
<title>30</title>
<path fill="none" stroke="#56d892" stroke-width="2" d="M568.5,-1188C568.5,-1188 438.5,-1188 438.5,-1188 432.5,-1188 426.5,-1182 426.5,-1176 426.5,-1176 426.5,-1164 426.5,-1164 426.5,-1158 432.5,-1152 438.5,-1152 438.5,-1152 568.5,-1152 568.5,-1152 574.5,-1152 580.5,-1158 580.5,-1164 580.5,-1164 580.5,-1176 580.5,-1176 580.5,-1182 574.5,-1188 568.5,-1188"/>
<text text-anchor="middle" x="503.5" y="-1167.5" font-family="sans" font-size="10.00">merge_transcriptome_maps</text>
</g>
<!-- 30&#45;&gt;29 -->
<g id="edge38" class="edge">
<title>30&#45;&gt;29</title>
<path fill="none" stroke="grey" stroke-width="2" d="M480.76,-1151.7C469.06,-1142.8 454.64,-1131.82 441.99,-1122.2"/>
<polygon fill="grey" stroke="grey" stroke-width="2" points="444.06,-1119.37 433.98,-1116.1 439.82,-1124.94 444.06,-1119.37"/>
</g>
<!-- 31&#45;&gt;30 -->
<g id="edge39" class="edge">
<title>31&#45;&gt;30</title>
<path fill="none" stroke="grey" stroke-width="2" d="M503.5,-1295.87C503.5,-1271.67 503.5,-1227.21 503.5,-1198.39"/>
<polygon fill="grey" stroke="grey" stroke-width="2" points="507,-1198.19 503.5,-1188.19 500,-1198.19 507,-1198.19"/>
</g>
<!-- 32 -->
<g id="node33" class="node">
<title>32</title>
<path fill="none" stroke="#78d856" stroke-width="2" d="M492,-1548C492,-1548 425,-1548 425,-1548 419,-1548 413,-1542 413,-1536 413,-1536 413,-1524 413,-1524 413,-1518 419,-1512 425,-1512 425,-1512 492,-1512 492,-1512 498,-1512 504,-1518 504,-1524 504,-1524 504,-1536 504,-1536 504,-1542 498,-1548 492,-1548"/>
<text text-anchor="middle" x="458.5" y="-1527.5" font-family="sans" font-size="10.00">fastx_collapser</text>
</g>
<!-- 32&#45;&gt;31 -->
<g id="edge41" class="edge">
<title>32&#45;&gt;31</title>
<path fill="none" stroke="grey" stroke-width="2" d="M499.18,-1511.88C514.02,-1503.41 529.18,-1491.59 537.5,-1476 545.03,-1461.88 543.41,-1454.87 537.5,-1440 529.37,-1419.55 511.63,-1424.45 503.5,-1404 495.67,-1384.32 496.23,-1360.19 498.43,-1342.03"/>
<polygon fill="grey" stroke="grey" stroke-width="2" points="501.9,-1342.5 499.87,-1332.1 494.98,-1341.49 501.9,-1342.5"/>
</g>
<!-- 38 -->
<g id="node39" class="node">
<title>38</title>
<path fill="none" stroke="#61d856" stroke-width="2" d="M516,-1476C516,-1476 401,-1476 401,-1476 395,-1476 389,-1470 389,-1464 389,-1464 389,-1452 389,-1452 389,-1446 395,-1440 401,-1440 401,-1440 516,-1440 516,-1440 522,-1440 528,-1446 528,-1452 528,-1452 528,-1464 528,-1464 528,-1470 522,-1476 516,-1476"/>
<text text-anchor="middle" x="458.5" y="-1455.5" font-family="sans" font-size="10.00">filter_fasta_for_oligomap</text>
</g>
<!-- 32&#45;&gt;38 -->
<g id="edge51" class="edge">
<title>32&#45;&gt;38</title>
<path fill="none" stroke="grey" stroke-width="2" d="M458.5,-1511.7C458.5,-1503.98 458.5,-1494.71 458.5,-1486.11"/>
<polygon fill="grey" stroke="grey" stroke-width="2" points="462,-1486.1 458.5,-1476.1 455,-1486.1 462,-1486.1"/>
</g>
<!-- 32&#45;&gt;43 -->
<g id="edge57" class="edge">
<title>32&#45;&gt;43</title>
<path fill="none" stroke="grey" stroke-width="2" d="M412.75,-1513.38C383.34,-1503.34 344.83,-1490.19 313.05,-1479.33"/>
<polygon fill="grey" stroke="grey" stroke-width="2" points="314.01,-1475.96 303.42,-1476.04 311.75,-1482.59 314.01,-1475.96"/>
</g>
<!-- 33 -->
<g id="node34" class="node">
<title>33</title>
<path fill="none" stroke="#80d856" stroke-width="2" d="M476,-1620C476,-1620 441,-1620 441,-1620 435,-1620 429,-1614 429,-1608 429,-1608 429,-1596 429,-1596 429,-1590 435,-1584 441,-1584 441,-1584 476,-1584 476,-1584 482,-1584 488,-1590 488,-1596 488,-1596 488,-1608 488,-1608 488,-1614 482,-1620 476,-1620"/>
<text text-anchor="middle" x="458.5" y="-1599.5" font-family="sans" font-size="10.00">cutadapt</text>
</g>
<!-- 33&#45;&gt;32 -->
<g id="edge44" class="edge">
<title>33&#45;&gt;32</title>
<path fill="none" stroke="grey" stroke-width="2" d="M458.5,-1583.7C458.5,-1575.98 458.5,-1566.71 458.5,-1558.11"/>
<polygon fill="grey" stroke="grey" stroke-width="2" points="462,-1558.1 458.5,-1548.1 455,-1558.1 462,-1558.1"/>
</g>
<!-- 34 -->
<g id="node35" class="node">
<title>34</title>
<path fill="none" stroke="#8fd856" stroke-width="2" d="M493,-1692C493,-1692 424,-1692 424,-1692 418,-1692 412,-1686 412,-1680 412,-1680 412,-1668 412,-1668 412,-1662 418,-1656 424,-1656 424,-1656 493,-1656 493,-1656 499,-1656 505,-1662 505,-1668 505,-1668 505,-1680 505,-1680 505,-1686 499,-1692 493,-1692"/>
<text text-anchor="middle" x="458.5" y="-1671.5" font-family="sans" font-size="10.00">fasta_formatter</text>
</g>
<!-- 34&#45;&gt;33 -->
<g id="edge45" class="edge">
<title>34&#45;&gt;33</title>
<path fill="none" stroke="grey" stroke-width="2" d="M458.5,-1655.7C458.5,-1647.98 458.5,-1638.71 458.5,-1630.11"/>
<polygon fill="grey" stroke="grey" stroke-width="2" points="462,-1630.1 458.5,-1620.1 455,-1630.1 462,-1630.1"/>
</g>
<!-- 35 -->
<g id="node36" class="node">
<title>35</title>
<path fill="none" stroke="#a7d856" stroke-width="2" d="M473.5,-1764C473.5,-1764 443.5,-1764 443.5,-1764 437.5,-1764 431.5,-1758 431.5,-1752 431.5,-1752 431.5,-1740 431.5,-1740 431.5,-1734 437.5,-1728 443.5,-1728 443.5,-1728 473.5,-1728 473.5,-1728 479.5,-1728 485.5,-1734 485.5,-1740 485.5,-1740 485.5,-1752 485.5,-1752 485.5,-1758 479.5,-1764 473.5,-1764"/>
<text text-anchor="middle" x="458.5" y="-1743.5" font-family="sans" font-size="10.00">start</text>
</g>
<!-- 35&#45;&gt;34 -->
<g id="edge46" class="edge">
<title>35&#45;&gt;34</title>
<path fill="none" stroke="grey" stroke-width="2" d="M458.5,-1727.7C458.5,-1719.98 458.5,-1710.71 458.5,-1702.11"/>
<polygon fill="grey" stroke="grey" stroke-width="2" points="462,-1702.1 458.5,-1692.1 455,-1702.1 462,-1702.1"/>
</g>
<!-- 36 -->
<g id="node37" class="node">
<title>36</title>
<path fill="none" stroke="#56d882" stroke-width="2" d="M699,-1260C699,-1260 550,-1260 550,-1260 544,-1260 538,-1254 538,-1248 538,-1248 538,-1236 538,-1236 538,-1230 544,-1224 550,-1224 550,-1224 699,-1224 699,-1224 705,-1224 711,-1230 711,-1236 711,-1236 711,-1248 711,-1248 711,-1254 705,-1260 699,-1260"/>
<text text-anchor="middle" x="624.5" y="-1239.5" font-family="sans" font-size="10.00">oligomap_transcriptome_toSAM</text>
</g>
<!-- 36&#45;&gt;30 -->
<g id="edge40" class="edge">
<title>36&#45;&gt;30</title>
<path fill="none" stroke="grey" stroke-width="2" d="M594.9,-1223.88C578.93,-1214.64 559.04,-1203.13 541.89,-1193.21"/>
<polygon fill="grey" stroke="grey" stroke-width="2" points="543.62,-1190.17 533.21,-1188.19 540.12,-1196.23 543.62,-1190.17"/>
</g>
<!-- 37&#45;&gt;36 -->
<g id="edge47" class="edge">
<title>37&#45;&gt;36</title>
<path fill="none" stroke="grey" stroke-width="2" d="M624.5,-1367.87C624.5,-1343.67 624.5,-1299.21 624.5,-1270.39"/>
<polygon fill="grey" stroke="grey" stroke-width="2" points="628,-1270.19 624.5,-1260.19 621,-1270.19 628,-1270.19"/>
</g>
<!-- 39 -->
<g id="node40" class="node">
<title>39</title>
<path fill="none" stroke="#56d87b" stroke-width="2" d="M800.5,-1332C800.5,-1332 664.5,-1332 664.5,-1332 658.5,-1332 652.5,-1326 652.5,-1320 652.5,-1320 652.5,-1308 652.5,-1308 652.5,-1302 658.5,-1296 664.5,-1296 664.5,-1296 800.5,-1296 800.5,-1296 806.5,-1296 812.5,-1302 812.5,-1308 812.5,-1308 812.5,-1320 812.5,-1320 812.5,-1326 806.5,-1332 800.5,-1332"/>
<text text-anchor="middle" x="732.5" y="-1311.5" font-family="sans" font-size="10.00">sort_transcriptome_oligomap</text>
</g>
<!-- 37&#45;&gt;39 -->
<g id="edge52" class="edge">
<title>37&#45;&gt;39</title>
<path fill="none" stroke="grey" stroke-width="2" d="M650.92,-1367.88C664.91,-1358.81 682.28,-1347.55 697.39,-1337.76"/>
<polygon fill="grey" stroke="grey" stroke-width="2" points="699.49,-1340.57 705.98,-1332.19 695.68,-1334.69 699.49,-1340.57"/>
</g>
<!-- 38&#45;&gt;37 -->
<g id="edge49" class="edge">
<title>38&#45;&gt;37</title>
<path fill="none" stroke="grey" stroke-width="2" d="M499.11,-1439.88C521.9,-1430.26 550.53,-1418.19 574.67,-1408.01"/>
<polygon fill="grey" stroke="grey" stroke-width="2" points="576.17,-1411.18 584.02,-1404.07 573.45,-1404.73 576.17,-1411.18"/>
</g>
<!-- 38&#45;&gt;45 -->
<g id="edge62" class="edge">
<title>38&#45;&gt;45</title>
<path fill="none" stroke="grey" stroke-width="2" d="M434.53,-1439.88C421.95,-1430.89 406.37,-1419.76 392.75,-1410.03"/>
<polygon fill="grey" stroke="grey" stroke-width="2" points="394.74,-1407.15 384.57,-1404.19 390.67,-1412.85 394.74,-1407.15"/>
</g>
<!-- 39&#45;&gt;36 -->
<g id="edge48" class="edge">
<title>39&#45;&gt;36</title>
<path fill="none" stroke="grey" stroke-width="2" d="M706.08,-1295.88C692.09,-1286.81 674.72,-1275.55 659.61,-1265.76"/>
<polygon fill="grey" stroke="grey" stroke-width="2" points="661.32,-1262.69 651.02,-1260.19 657.51,-1268.57 661.32,-1262.69"/>
</g>
<!-- 40 -->
<g id="node41" class="node">
<title>40</title>
<path fill="none" stroke="#56d8b1" stroke-width="2" d="M336,-972C336,-972 217,-972 217,-972 211,-972 205,-966 205,-960 205,-960 205,-948 205,-948 205,-942 211,-936 217,-936 217,-936 336,-936 336,-936 342,-936 348,-942 348,-948 348,-948 348,-960 348,-960 348,-966 342,-972 336,-972"/>
<text text-anchor="middle" x="276.5" y="-951.5" font-family="sans" font-size="10.00">remove_headers_genome</text>
</g>
<!-- 40&#45;&gt;26 -->
<g id="edge34" class="edge">
<title>40&#45;&gt;26</title>
<path fill="none" stroke="grey" stroke-width="2" d="M277.98,-935.7C278.64,-927.98 279.44,-918.71 280.18,-910.11"/>
<polygon fill="grey" stroke="grey" stroke-width="2" points="283.67,-910.37 281.03,-900.1 276.69,-909.77 283.67,-910.37"/>
</g>
<!-- 41 -->
<g id="node42" class="node">
<title>41</title>
<path fill="none" stroke="#56d8a2" stroke-width="2" d="M315,-1116C315,-1116 238,-1116 238,-1116 232,-1116 226,-1110 226,-1104 226,-1104 226,-1092 226,-1092 226,-1086 232,-1080 238,-1080 238,-1080 315,-1080 315,-1080 321,-1080 327,-1086 327,-1092 327,-1092 327,-1104 327,-1104 327,-1110 321,-1116 315,-1116"/>
<text text-anchor="middle" x="276.5" y="-1095.5" font-family="sans" font-size="10.00">nh_filter_genome</text>
</g>
<!-- 41&#45;&gt;40 -->
<g id="edge53" class="edge">
<title>41&#45;&gt;40</title>
<path fill="none" stroke="grey" stroke-width="2" d="M276.5,-1079.87C276.5,-1055.67 276.5,-1011.21 276.5,-982.39"/>
<polygon fill="grey" stroke="grey" stroke-width="2" points="280,-982.19 276.5,-972.19 273,-982.19 280,-982.19"/>
</g>
<!-- 42 -->
<g id="node43" class="node">
<title>42</title>
<path fill="none" stroke="#56d88a" stroke-width="2" d="M327,-1188C327,-1188 226,-1188 226,-1188 220,-1188 214,-1182 214,-1176 214,-1176 214,-1164 214,-1164 214,-1158 220,-1152 226,-1152 226,-1152 327,-1152 327,-1152 333,-1152 339,-1158 339,-1164 339,-1164 339,-1176 339,-1176 339,-1182 333,-1188 327,-1188"/>
<text text-anchor="middle" x="276.5" y="-1167.5" font-family="sans" font-size="10.00">merge_genome_maps</text>
</g>
<!-- 42&#45;&gt;41 -->
<g id="edge54" class="edge">
<title>42&#45;&gt;41</title>
<path fill="none" stroke="grey" stroke-width="2" d="M276.5,-1151.7C276.5,-1143.98 276.5,-1134.71 276.5,-1126.11"/>
<polygon fill="grey" stroke="grey" stroke-width="2" points="280,-1126.1 276.5,-1116.1 273,-1126.1 280,-1126.1"/>
</g>
<!-- 43&#45;&gt;42 -->
<g id="edge55" class="edge">
<title>43&#45;&gt;42</title>
<path fill="none" stroke="grey" stroke-width="2" d="M243.93,-1439.71C223.2,-1399.77 178.68,-1298.79 213.5,-1224 218.93,-1212.34 228.32,-1202.34 238.22,-1194.26"/>
<polygon fill="grey" stroke="grey" stroke-width="2" points="240.35,-1197.03 246.2,-1188.2 236.12,-1191.45 240.35,-1197.03"/>
</g>
<!-- 44 -->
<g id="node45" class="node">
<title>44</title>
<path fill="none" stroke="#56d86b" stroke-width="2" d="M356,-1260C356,-1260 235,-1260 235,-1260 229,-1260 223,-1254 223,-1248 223,-1248 223,-1236 223,-1236 223,-1230 229,-1224 235,-1224 235,-1224 356,-1224 356,-1224 362,-1224 368,-1230 368,-1236 368,-1236 368,-1248 368,-1248 368,-1254 362,-1260 356,-1260"/>
<text text-anchor="middle" x="295.5" y="-1239.5" font-family="sans" font-size="10.00">oligomap_genome_toSAM</text>
</g>
<!-- 44&#45;&gt;42 -->
<g id="edge56" class="edge">
<title>44&#45;&gt;42</title>
<path fill="none" stroke="grey" stroke-width="2" d="M290.8,-1223.7C288.69,-1215.9 286.14,-1206.51 283.78,-1197.83"/>
<polygon fill="grey" stroke="grey" stroke-width="2" points="287.14,-1196.84 281.14,-1188.1 280.38,-1198.67 287.14,-1196.84"/>
</g>
<!-- 45&#45;&gt;44 -->
<g id="edge60" class="edge">
<title>45&#45;&gt;44</title>
<path fill="none" stroke="grey" stroke-width="2" d="M365.61,-1367.95C370.21,-1349.27 374.7,-1318.92 363.5,-1296 357.69,-1284.11 347.79,-1274.12 337.32,-1266.12"/>
<polygon fill="grey" stroke="grey" stroke-width="2" points="339.04,-1263.06 328.86,-1260.14 335,-1268.78 339.04,-1263.06"/>
</g>
<!-- 46 -->
<g id="node47" class="node">
<title>46</title>
<path fill="none" stroke="#56d85b" stroke-width="2" d="M342,-1332C342,-1332 235,-1332 235,-1332 229,-1332 223,-1326 223,-1320 223,-1320 223,-1308 223,-1308 223,-1302 229,-1296 235,-1296 235,-1296 342,-1296 342,-1296 348,-1296 354,-1302 354,-1308 354,-1308 354,-1320 354,-1320 354,-1326 348,-1332 342,-1332"/>
<text text-anchor="middle" x="288.5" y="-1311.5" font-family="sans" font-size="10.00">sort_genome_oligomap</text>
</g>
<!-- 45&#45;&gt;46 -->
<g id="edge64" class="edge">
<title>45&#45;&gt;46</title>
<path fill="none" stroke="grey" stroke-width="2" d="M342.7,-1367.7C333.9,-1359.14 323.12,-1348.66 313.5,-1339.3"/>
<polygon fill="grey" stroke="grey" stroke-width="2" points="315.7,-1336.57 306.09,-1332.1 310.82,-1341.58 315.7,-1336.57"/>
</g>
<!-- 46&#45;&gt;44 -->
<g id="edge61" class="edge">
<title>46&#45;&gt;44</title>
<path fill="none" stroke="grey" stroke-width="2" d="M290.23,-1295.7C291,-1287.98 291.93,-1278.71 292.79,-1270.11"/>
<polygon fill="grey" stroke="grey" stroke-width="2" points="296.28,-1270.4 293.79,-1260.1 289.31,-1269.71 296.28,-1270.4"/>
</g>
<!-- 47 -->
<g id="node48" class="node">
<title>47</title>
<path fill="none" stroke="#566bd8" stroke-width="2" d="M501,-108C501,-108 442,-108 442,-108 436,-108 430,-102 430,-96 430,-96 430,-84 430,-84 430,-78 436,-72 442,-72 442,-72 501,-72 501,-72 507,-72 513,-78 513,-84 513,-84 513,-96 513,-96 513,-102 507,-108 501,-108"/>
<text text-anchor="middle" x="471.5" y="-87.5" font-family="sans" font-size="10.00">merge_tables</text>
</g>
<!-- 47&#45;&gt;0 -->
<g id="edge8" class="edge">
<title>47&#45;&gt;0</title>
<path fill="none" stroke="grey" stroke-width="2" d="M480.89,-71.7C485.26,-63.64 490.56,-53.89 495.4,-44.98"/>
<polygon fill="grey" stroke="grey" stroke-width="2" points="498.52,-46.56 500.21,-36.1 492.37,-43.22 498.52,-46.56"/>
</g>
<!-- 48 -->
<g id="node49" class="node">
<title>48</title>
<path fill="none" stroke="#567bd8" stroke-width="2" d="M393.5,-180C393.5,-180 339.5,-180 339.5,-180 333.5,-180 327.5,-174 327.5,-168 327.5,-168 327.5,-156 327.5,-156 327.5,-150 333.5,-144 339.5,-144 339.5,-144 393.5,-144 393.5,-144 399.5,-144 405.5,-150 405.5,-156 405.5,-156 405.5,-168 405.5,-168 405.5,-174 399.5,-180 393.5,-180"/>
<text text-anchor="middle" x="366.5" y="-159.5" font-family="sans" font-size="10.00">quant_mirna</text>
</g>
<!-- 48&#45;&gt;47 -->
<g id="edge65" class="edge">
<title>48&#45;&gt;47</title>
<path fill="none" stroke="grey" stroke-width="2" d="M392.19,-143.88C405.79,-134.81 422.67,-123.55 437.36,-113.76"/>
<polygon fill="grey" stroke="grey" stroke-width="2" points="439.34,-116.65 445.72,-108.19 435.45,-110.82 439.34,-116.65"/>
</g>
<!-- 49&#45;&gt;48 -->
<g id="edge67" class="edge">
<title>49&#45;&gt;48</title>
<path fill="none" stroke="grey" stroke-width="2" d="M425.22,-215.7C415.58,-207.05 403.77,-196.45 393.27,-187.03"/>
<polygon fill="grey" stroke="grey" stroke-width="2" points="395.34,-184.18 385.56,-180.1 390.66,-189.39 395.34,-184.18"/>
</g>
<!-- 52 -->
<g id="node53" class="node">
<title>52</title>
<path fill="none" stroke="#5673d8" stroke-width="2" d="M507.5,-180C507.5,-180 435.5,-180 435.5,-180 429.5,-180 423.5,-174 423.5,-168 423.5,-168 423.5,-156 423.5,-156 423.5,-150 429.5,-144 435.5,-144 435.5,-144 507.5,-144 507.5,-144 513.5,-144 519.5,-150 519.5,-156 519.5,-156 519.5,-168 519.5,-168 519.5,-174 513.5,-180 507.5,-180"/>
<text text-anchor="middle" x="471.5" y="-159.5" font-family="sans" font-size="10.00">quant_mirna_pri</text>
</g>
<!-- 49&#45;&gt;52 -->
<g id="edge72" class="edge">
<title>49&#45;&gt;52</title>
<path fill="none" stroke="grey" stroke-width="2" d="M451.17,-215.7C454.21,-207.81 457.88,-198.3 461.26,-189.55"/>
<polygon fill="grey" stroke="grey" stroke-width="2" points="464.57,-190.69 464.9,-180.1 458.04,-188.17 464.57,-190.69"/>
</g>
<!-- 50 -->
<g id="node51" class="node">
<title>50</title>
<path fill="none" stroke="#568ad8" stroke-width="2" d="M453,-324C453,-324 382,-324 382,-324 376,-324 370,-318 370,-312 370,-312 370,-300 370,-300 370,-294 376,-288 382,-288 382,-288 453,-288 453,-288 459,-288 465,-294 465,-300 465,-300 465,-312 465,-312 465,-318 459,-324 453,-324"/>
<text text-anchor="middle" x="417.5" y="-303.5" font-family="sans" font-size="10.00">sort_alignments</text>
</g>
<!-- 50&#45;&gt;49 -->
<g id="edge68" class="edge">
<title>50&#45;&gt;49</title>
<path fill="none" stroke="grey" stroke-width="2" d="M424.17,-287.7C427.21,-279.81 430.88,-270.3 434.26,-261.55"/>
<polygon fill="grey" stroke="grey" stroke-width="2" points="437.57,-262.69 437.9,-252.1 431.04,-260.17 437.57,-262.69"/>
</g>
<!-- 51&#45;&gt;50 -->
<g id="edge70" class="edge">
<title>51&#45;&gt;50</title>
<path fill="none" stroke="grey" stroke-width="2" d="M396.42,-359.7C399.57,-351.81 403.38,-342.3 406.88,-333.55"/>
<polygon fill="grey" stroke="grey" stroke-width="2" points="410.19,-334.69 410.66,-324.1 403.69,-332.09 410.19,-334.69"/>
</g>
<!-- 52&#45;&gt;47 -->
<g id="edge66" class="edge">
<title>52&#45;&gt;47</title>
<path fill="none" stroke="grey" stroke-width="2" d="M471.5,-143.7C471.5,-135.98 471.5,-126.71 471.5,-118.11"/>
<polygon fill="grey" stroke="grey" stroke-width="2" points="475,-118.1 471.5,-108.1 468,-118.1 475,-118.1"/>
</g>
</g>
</svg>
