<?xml version="1.0" encoding="UTF-8" standalone="no"?>
<!DOCTYPE svg PUBLIC "-//W3C//DTD SVG 1.1//EN"
 "http://www.w3.org/Graphics/SVG/1.1/DTD/svg11.dtd">
<!-- Generated by graphviz version 2.40.1 (20161225.0304)
 -->
<!-- Title: snakemake_dag Pages: 1 -->
<svg width="733pt" height="764pt"
 viewBox="0.00 0.00 732.50 764.00" xmlns="http://www.w3.org/2000/svg" xmlns:xlink="http://www.w3.org/1999/xlink">
<g id="graph0" class="graph" transform="scale(1 1) rotate(0) translate(4 760)">
<title>snakemake_dag</title>
<polygon fill="#ffffff" stroke="transparent" points="-4,4 -4,-760 728.5,-760 728.5,4 -4,4"/>
<!-- 0 -->
<g id="node1" class="node">
<title>0</title>
<path fill="none" stroke="#5682d8" stroke-width="2" d="M357.5,-36C357.5,-36 327.5,-36 327.5,-36 321.5,-36 315.5,-30 315.5,-24 315.5,-24 315.5,-12 315.5,-12 315.5,-6 321.5,0 327.5,0 327.5,0 357.5,0 357.5,0 363.5,0 369.5,-6 369.5,-12 369.5,-12 369.5,-24 369.5,-24 369.5,-30 363.5,-36 357.5,-36"/>
<text text-anchor="middle" x="342.5" y="-15.5" font-family="sans" font-size="10.00" fill="#000000">finish</text>
</g>
<!-- 1 -->
<g id="node2" class="node">
<title>1</title>
<path fill="none" stroke="#d88556" stroke-width="2" d="M362,-108C362,-108 167,-108 167,-108 161,-108 155,-102 155,-96 155,-96 155,-84 155,-84 155,-78 161,-72 167,-72 167,-72 362,-72 362,-72 368,-72 374,-78 374,-84 374,-84 374,-96 374,-96 374,-102 368,-108 362,-108"/>
<text text-anchor="middle" x="264.5" y="-87.5" font-family="sans" font-size="10.00" fill="#000000">generate_segemehl_index_transcriptome</text>
</g>
<!-- 1&#45;&gt;0 -->
<g id="edge3" class="edge">
<title>1&#45;&gt;0</title>
<path fill="none" stroke="#c0c0c0" stroke-width="2" d="M284.1827,-71.8314C293.6051,-63.1337 305.0401,-52.5783 315.2796,-43.1265"/>
<polygon fill="#c0c0c0" stroke="#c0c0c0" stroke-width="2" points="317.8495,-45.5175 322.8236,-36.1628 313.1016,-40.3738 317.8495,-45.5175"/>
</g>
<!-- 2 -->
<g id="node3" class="node">
<title>2</title>
<path fill="none" stroke="#56d8b1" stroke-width="2" d="M289,-180C289,-180 246,-180 246,-180 240,-180 234,-174 234,-168 234,-168 234,-156 234,-156 234,-150 240,-144 246,-144 246,-144 289,-144 289,-144 295,-144 301,-150 301,-156 301,-156 301,-168 301,-168 301,-174 295,-180 289,-180"/>
<text text-anchor="middle" x="267.5" y="-159.5" font-family="sans" font-size="10.00" fill="#000000">trim_fasta</text>
</g>
<!-- 2&#45;&gt;1 -->
<g id="edge7" class="edge">
<title>2&#45;&gt;1</title>
<path fill="none" stroke="#c0c0c0" stroke-width="2" d="M266.743,-143.8314C266.4221,-136.131 266.0406,-126.9743 265.684,-118.4166"/>
<polygon fill="#c0c0c0" stroke="#c0c0c0" stroke-width="2" points="269.1806,-118.2589 265.2672,-108.4133 262.1867,-118.5503 269.1806,-118.2589"/>
</g>
<!-- 3 -->
<g id="node4" class="node">
<title>3</title>
<path fill="none" stroke="#d8cb56" stroke-width="2" d="M334.5,-252C334.5,-252 206.5,-252 206.5,-252 200.5,-252 194.5,-246 194.5,-240 194.5,-240 194.5,-228 194.5,-228 194.5,-222 200.5,-216 206.5,-216 206.5,-216 334.5,-216 334.5,-216 340.5,-216 346.5,-222 346.5,-228 346.5,-228 346.5,-240 346.5,-240 346.5,-246 340.5,-252 334.5,-252"/>
<text text-anchor="middle" x="270.5" y="-231.5" font-family="sans" font-size="10.00" fill="#000000">extract_transcriptome_seqs</text>
</g>
<!-- 3&#45;&gt;2 -->
<g id="edge8" class="edge">
<title>3&#45;&gt;2</title>
<path fill="none" stroke="#c0c0c0" stroke-width="2" d="M269.743,-215.8314C269.4221,-208.131 269.0406,-198.9743 268.684,-190.4166"/>
<polygon fill="#c0c0c0" stroke="#c0c0c0" stroke-width="2" points="272.1806,-190.2589 268.2672,-180.4133 265.1867,-190.5503 272.1806,-190.2589"/>
</g>
<!-- 4 -->
<g id="node5" class="node">
<title>4</title>
<path fill="none" stroke="#569ad8" stroke-width="2" d="M346,-756C346,-756 271,-756 271,-756 265,-756 259,-750 259,-744 259,-744 259,-732 259,-732 259,-726 265,-720 271,-720 271,-720 346,-720 346,-720 352,-720 358,-726 358,-732 358,-732 358,-744 358,-744 358,-750 352,-756 346,-756"/>
<text text-anchor="middle" x="308.5" y="-735.5" font-family="sans" font-size="10.00" fill="#000000">genome_process</text>
</g>
<!-- 4&#45;&gt;3 -->
<g id="edge9" class="edge">
<title>4&#45;&gt;3</title>
<path fill="none" stroke="#c0c0c0" stroke-width="2" d="M301.7136,-719.6497C292.3203,-692.5619 276.5,-640.0977 276.5,-594 276.5,-594 276.5,-594 276.5,-378 276.5,-337.8412 274.1417,-291.4372 272.3821,-262.4031"/>
<polygon fill="#c0c0c0" stroke="#c0c0c0" stroke-width="2" points="275.8599,-261.9376 271.7432,-252.1753 268.8736,-262.3741 275.8599,-261.9376"/>
</g>
<!-- 6 -->
<g id="node7" class="node">
<title>6</title>
<path fill="none" stroke="#56b1d8" stroke-width="2" d="M179,-540C179,-540 12,-540 12,-540 6,-540 0,-534 0,-528 0,-528 0,-516 0,-516 0,-510 6,-504 12,-504 12,-504 179,-504 179,-504 185,-504 191,-510 191,-516 191,-516 191,-528 191,-528 191,-534 185,-540 179,-540"/>
<text text-anchor="middle" x="95.5" y="-519.5" font-family="sans" font-size="10.00" fill="#000000">generate_segemehl_index_genome</text>
</g>
<!-- 4&#45;&gt;6 -->
<g id="edge11" class="edge">
<title>4&#45;&gt;6</title>
<path fill="none" stroke="#c0c0c0" stroke-width="2" d="M266.7238,-719.8513C248.5524,-710.7235 227.7488,-698.5026 211.5,-684 166.6798,-643.9963 129.285,-583.7121 109.8685,-549.0753"/>
<polygon fill="#c0c0c0" stroke="#c0c0c0" stroke-width="2" points="112.7713,-547.0911 104.8776,-540.0242 106.6414,-550.4712 112.7713,-547.0911"/>
</g>
<!-- 9 -->
<g id="node10" class="node">
<title>9</title>
<path fill="none" stroke="#566bd8" stroke-width="2" d="M236,-468C236,-468 129,-468 129,-468 123,-468 117,-462 117,-456 117,-456 117,-444 117,-444 117,-438 123,-432 129,-432 129,-432 236,-432 236,-432 242,-432 248,-438 248,-444 248,-444 248,-456 248,-456 248,-462 242,-468 236,-468"/>
<text text-anchor="middle" x="182.5" y="-447.5" font-family="sans" font-size="10.00" fill="#000000">create_header_genome</text>
</g>
<!-- 4&#45;&gt;9 -->
<g id="edge14" class="edge">
<title>4&#45;&gt;9</title>
<path fill="none" stroke="#c0c0c0" stroke-width="2" d="M289.9935,-719.8356C280.7284,-709.9335 269.9328,-697.0574 262.5,-684 251.9809,-665.5208 209.8347,-535.5126 191.31,-477.6548"/>
<polygon fill="#c0c0c0" stroke="#c0c0c0" stroke-width="2" points="194.6195,-476.5127 188.2407,-468.0533 187.9518,-478.6442 194.6195,-476.5127"/>
</g>
<!-- 13 -->
<g id="node14" class="node">
<title>13</title>
<path fill="none" stroke="#b6d856" stroke-width="2" d="M366.5,-684C366.5,-684 316.5,-684 316.5,-684 310.5,-684 304.5,-678 304.5,-672 304.5,-672 304.5,-660 304.5,-660 304.5,-654 310.5,-648 316.5,-648 316.5,-648 366.5,-648 366.5,-648 372.5,-648 378.5,-654 378.5,-660 378.5,-660 378.5,-672 378.5,-672 378.5,-678 372.5,-684 366.5,-684"/>
<text text-anchor="middle" x="341.5" y="-663.5" font-family="sans" font-size="10.00" fill="#000000">mirna_anno</text>
</g>
<!-- 4&#45;&gt;13 -->
<g id="edge19" class="edge">
<title>4&#45;&gt;13</title>
<path fill="none" stroke="#c0c0c0" stroke-width="2" d="M316.8273,-719.8314C320.473,-711.8771 324.8309,-702.369 328.8627,-693.5723"/>
<polygon fill="#c0c0c0" stroke="#c0c0c0" stroke-width="2" points="332.0757,-694.9622 333.0606,-684.4133 325.7123,-692.0456 332.0757,-694.9622"/>
</g>
<!-- 14 -->
<g id="node15" class="node">
<title>14</title>
<path fill="none" stroke="#d85656" stroke-width="2" d="M440,-684C440,-684 409,-684 409,-684 403,-684 397,-678 397,-672 397,-672 397,-660 397,-660 397,-654 403,-648 409,-648 409,-648 440,-648 440,-648 446,-648 452,-654 452,-660 452,-660 452,-672 452,-672 452,-678 446,-684 440,-684"/>
<text text-anchor="middle" x="424.5" y="-663.5" font-family="sans" font-size="10.00" fill="#000000">dict_chr</text>
</g>
<!-- 4&#45;&gt;14 -->
<g id="edge20" class="edge">
<title>4&#45;&gt;14</title>
<path fill="none" stroke="#c0c0c0" stroke-width="2" d="M337.7717,-719.8314C353.0619,-710.3409 371.9156,-698.6386 388.1347,-688.5716"/>
<polygon fill="#c0c0c0" stroke="#c0c0c0" stroke-width="2" points="390.1842,-691.4189 396.8349,-683.1715 386.4927,-685.4714 390.1842,-691.4189"/>
</g>
<!-- 21 -->
<g id="node22" class="node">
<title>21</title>
<path fill="none" stroke="#88d856" stroke-width="2" d="M592.5,-612C592.5,-612 506.5,-612 506.5,-612 500.5,-612 494.5,-606 494.5,-600 494.5,-600 494.5,-588 494.5,-588 494.5,-582 500.5,-576 506.5,-576 506.5,-576 592.5,-576 592.5,-576 598.5,-576 604.5,-582 604.5,-588 604.5,-588 604.5,-600 604.5,-600 604.5,-606 598.5,-612 592.5,-612"/>
<text text-anchor="middle" x="549.5" y="-591.5" font-family="sans" font-size="10.00" fill="#000000">create_index_fasta</text>
</g>
<!-- 4&#45;&gt;21 -->
<g id="edge28" class="edge">
<title>4&#45;&gt;21</title>
<path fill="none" stroke="#c0c0c0" stroke-width="2" d="M358.2792,-726.4177C389.2668,-717.7739 429.0656,-703.979 460.5,-684 487.558,-666.8025 512.682,-639.9749 529.2879,-620.0797"/>
<polygon fill="#c0c0c0" stroke="#c0c0c0" stroke-width="2" points="532.0321,-622.2527 535.6493,-612.2945 526.6116,-617.8235 532.0321,-622.2527"/>
</g>
<!-- 5 -->
<g id="node6" class="node">
<title>5</title>
<path fill="none" stroke="#56d86b" stroke-width="2" d="M409,-324C409,-324 346,-324 346,-324 340,-324 334,-318 334,-312 334,-312 334,-300 334,-300 334,-294 340,-288 346,-288 346,-288 409,-288 409,-288 415,-288 421,-294 421,-300 421,-300 421,-312 421,-312 421,-318 415,-324 409,-324"/>
<text text-anchor="middle" x="377.5" y="-303.5" font-family="sans" font-size="10.00" fill="#000000">filter_anno_gtf</text>
</g>
<!-- 5&#45;&gt;3 -->
<g id="edge10" class="edge">
<title>5&#45;&gt;3</title>
<path fill="none" stroke="#c0c0c0" stroke-width="2" d="M350.4994,-287.8314C337.0669,-278.7927 320.6527,-267.7476 306.1961,-258.0198"/>
<polygon fill="#c0c0c0" stroke="#c0c0c0" stroke-width="2" points="307.7425,-254.8418 297.492,-252.1628 303.8346,-260.6494 307.7425,-254.8418"/>
</g>
<!-- 8 -->
<g id="node9" class="node">
<title>8</title>
<path fill="none" stroke="#d89c56" stroke-width="2" d="M438.5,-252C438.5,-252 376.5,-252 376.5,-252 370.5,-252 364.5,-246 364.5,-240 364.5,-240 364.5,-228 364.5,-228 364.5,-222 370.5,-216 376.5,-216 376.5,-216 438.5,-216 438.5,-216 444.5,-216 450.5,-222 450.5,-228 450.5,-228 450.5,-240 450.5,-240 450.5,-246 444.5,-252 438.5,-252"/>
<text text-anchor="middle" x="407.5" y="-231.5" font-family="sans" font-size="10.00" fill="#000000">get_exons_gtf</text>
</g>
<!-- 5&#45;&gt;8 -->
<g id="edge13" class="edge">
<title>5&#45;&gt;8</title>
<path fill="none" stroke="#c0c0c0" stroke-width="2" d="M385.0703,-287.8314C388.3493,-279.9617 392.262,-270.5712 395.8945,-261.8533"/>
<polygon fill="#c0c0c0" stroke="#c0c0c0" stroke-width="2" points="399.2124,-262.9902 399.8278,-252.4133 392.7508,-260.2979 399.2124,-262.9902"/>
</g>
<!-- 6&#45;&gt;0 -->
<g id="edge4" class="edge">
<title>6&#45;&gt;0</title>
<path fill="none" stroke="#c0c0c0" stroke-width="2" d="M94.0496,-503.8284C91.9993,-476.5296 88.5,-423.3034 88.5,-378 88.5,-378 88.5,-378 88.5,-162 88.5,-119.2408 90.4989,-100.3597 122.5,-72 149.3909,-48.169 249.9753,-30.8466 305.3538,-22.8826"/>
<polygon fill="#c0c0c0" stroke="#c0c0c0" stroke-width="2" points="306.0511,-26.319 315.466,-21.4601 305.0759,-19.3873 306.0511,-26.319"/>
</g>
<!-- 7 -->
<g id="node8" class="node">
<title>7</title>
<path fill="none" stroke="#56d8c9" stroke-width="2" d="M438.5,-108C438.5,-108 404.5,-108 404.5,-108 398.5,-108 392.5,-102 392.5,-96 392.5,-96 392.5,-84 392.5,-84 392.5,-78 398.5,-72 404.5,-72 404.5,-72 438.5,-72 438.5,-72 444.5,-72 450.5,-78 450.5,-84 450.5,-84 450.5,-96 450.5,-96 450.5,-102 444.5,-108 438.5,-108"/>
<text text-anchor="middle" x="421.5" y="-87.5" font-family="sans" font-size="10.00" fill="#000000">gtftobed</text>
</g>
<!-- 7&#45;&gt;0 -->
<g id="edge6" class="edge">
<title>7&#45;&gt;0</title>
<path fill="none" stroke="#c0c0c0" stroke-width="2" d="M401.565,-71.8314C392.0217,-63.1337 380.4401,-52.5783 370.0694,-43.1265"/>
<polygon fill="#c0c0c0" stroke="#c0c0c0" stroke-width="2" points="372.1772,-40.3121 362.4287,-36.1628 367.462,-45.4857 372.1772,-40.3121"/>
</g>
<!-- 8&#45;&gt;7 -->
<g id="edge12" class="edge">
<title>8&#45;&gt;7</title>
<path fill="none" stroke="#c0c0c0" stroke-width="2" d="M409.2731,-215.7623C411.661,-191.201 415.9343,-147.2474 418.7434,-118.3541"/>
<polygon fill="#c0c0c0" stroke="#c0c0c0" stroke-width="2" points="422.2571,-118.3814 419.7413,-108.0896 415.29,-117.704 422.2571,-118.3814"/>
</g>
<!-- 9&#45;&gt;0 -->
<g id="edge5" class="edge">
<title>9&#45;&gt;0</title>
<path fill="none" stroke="#c0c0c0" stroke-width="2" d="M170.3488,-431.7857C153.8788,-405.2865 126.5,-354.0148 126.5,-306 126.5,-306 126.5,-306 126.5,-162 126.5,-121.1184 117.4647,-101.7545 145.5,-72 167.2281,-48.9395 254.6042,-31.7622 305.3969,-23.4905"/>
<polygon fill="#c0c0c0" stroke="#c0c0c0" stroke-width="2" points="306.0144,-26.9364 315.3404,-21.9087 304.9147,-20.0233 306.0144,-26.9364"/>
</g>
<!-- 10 -->
<g id="node11" class="node">
<title>10</title>
<path fill="none" stroke="#d86e56" stroke-width="2" d="M495,-468C495,-468 462,-468 462,-468 456,-468 450,-462 450,-456 450,-456 450,-444 450,-444 450,-438 456,-432 462,-432 462,-432 495,-432 495,-432 501,-432 507,-438 507,-444 507,-444 507,-456 507,-456 507,-462 501,-468 495,-468"/>
<text text-anchor="middle" x="478.5" y="-447.5" font-family="sans" font-size="10.00" fill="#000000">gfftobed</text>
</g>
<!-- 10&#45;&gt;0 -->
<g id="edge2" class="edge">
<title>10&#45;&gt;0</title>
<path fill="none" stroke="#c0c0c0" stroke-width="2" d="M478.5,-431.8146C478.5,-404.4983 478.5,-351.25 478.5,-306 478.5,-306 478.5,-306 478.5,-162 478.5,-121.1184 484.9901,-103.9619 459.5,-72 439.6741,-47.1403 405.7974,-33.2394 379.5835,-25.7916"/>
<polygon fill="#c0c0c0" stroke="#c0c0c0" stroke-width="2" points="380.1623,-22.3246 369.6002,-23.1563 378.3757,-29.0927 380.1623,-22.3246"/>
</g>
<!-- 19 -->
<g id="node20" class="node">
<title>19</title>
<path fill="none" stroke="#56d89a" stroke-width="2" d="M602,-396C602,-396 519,-396 519,-396 513,-396 507,-390 507,-384 507,-384 507,-372 507,-372 507,-366 513,-360 519,-360 519,-360 602,-360 602,-360 608,-360 614,-366 614,-372 614,-372 614,-384 614,-384 614,-390 608,-396 602,-396"/>
<text text-anchor="middle" x="560.5" y="-375.5" font-family="sans" font-size="10.00" fill="#000000">filter_mature_mirs</text>
</g>
<!-- 10&#45;&gt;19 -->
<g id="edge26" class="edge">
<title>10&#45;&gt;19</title>
<path fill="none" stroke="#c0c0c0" stroke-width="2" d="M499.1921,-431.8314C509.1948,-423.0485 521.355,-412.3712 532.1999,-402.8489"/>
<polygon fill="#c0c0c0" stroke="#c0c0c0" stroke-width="2" points="534.6094,-405.3909 539.8146,-396.1628 529.9908,-400.1308 534.6094,-405.3909"/>
</g>
<!-- 11 -->
<g id="node12" class="node">
<title>11</title>
<path fill="none" stroke="#56d882" stroke-width="2" d="M489,-540C489,-540 412,-540 412,-540 406,-540 400,-534 400,-528 400,-528 400,-516 400,-516 400,-510 406,-504 412,-504 412,-504 489,-504 489,-504 495,-504 501,-510 501,-516 501,-516 501,-528 501,-528 501,-534 495,-540 489,-540"/>
<text text-anchor="middle" x="450.5" y="-519.5" font-family="sans" font-size="10.00" fill="#000000">filter_mir_1_anno</text>
</g>
<!-- 11&#45;&gt;10 -->
<g id="edge15" class="edge">
<title>11&#45;&gt;10</title>
<path fill="none" stroke="#c0c0c0" stroke-width="2" d="M457.5656,-503.8314C460.626,-495.9617 464.2779,-486.5712 467.6682,-477.8533"/>
<polygon fill="#c0c0c0" stroke="#c0c0c0" stroke-width="2" points="470.9768,-479.0019 471.3393,-468.4133 464.4527,-476.4647 470.9768,-479.0019"/>
</g>
<!-- 12 -->
<g id="node13" class="node">
<title>12</title>
<path fill="none" stroke="#56c9d8" stroke-width="2" d="M461,-612C461,-612 388,-612 388,-612 382,-612 376,-606 376,-600 376,-600 376,-588 376,-588 376,-582 382,-576 388,-576 388,-576 461,-576 461,-576 467,-576 473,-582 473,-588 473,-588 473,-600 473,-600 473,-606 467,-612 461,-612"/>
<text text-anchor="middle" x="424.5" y="-591.5" font-family="sans" font-size="10.00" fill="#000000">map_chr_names</text>
</g>
<!-- 12&#45;&gt;11 -->
<g id="edge16" class="edge">
<title>12&#45;&gt;11</title>
<path fill="none" stroke="#c0c0c0" stroke-width="2" d="M431.0609,-575.8314C433.9027,-567.9617 437.2937,-558.5712 440.4419,-549.8533"/>
<polygon fill="#c0c0c0" stroke="#c0c0c0" stroke-width="2" points="443.7462,-551.0076 443.8508,-540.4133 437.1623,-548.63 443.7462,-551.0076"/>
</g>
<!-- 13&#45;&gt;12 -->
<g id="edge17" class="edge">
<title>13&#45;&gt;12</title>
<path fill="none" stroke="#c0c0c0" stroke-width="2" d="M362.4444,-647.8314C372.5691,-639.0485 384.8777,-628.3712 395.8548,-618.8489"/>
<polygon fill="#c0c0c0" stroke="#c0c0c0" stroke-width="2" points="398.3019,-621.3595 403.5623,-612.1628 393.7149,-616.0718 398.3019,-621.3595"/>
</g>
<!-- 14&#45;&gt;12 -->
<g id="edge18" class="edge">
<title>14&#45;&gt;12</title>
<path fill="none" stroke="#c0c0c0" stroke-width="2" d="M424.5,-647.8314C424.5,-640.131 424.5,-630.9743 424.5,-622.4166"/>
<polygon fill="#c0c0c0" stroke="#c0c0c0" stroke-width="2" points="428.0001,-622.4132 424.5,-612.4133 421.0001,-622.4133 428.0001,-622.4132"/>
</g>
<!-- 15 -->
<g id="node16" class="node">
<title>15</title>
<path fill="none" stroke="#9fd856" stroke-width="2" d="M584.5,-108C584.5,-108 522.5,-108 522.5,-108 516.5,-108 510.5,-102 510.5,-96 510.5,-96 510.5,-84 510.5,-84 510.5,-78 516.5,-72 522.5,-72 522.5,-72 584.5,-72 584.5,-72 590.5,-72 596.5,-78 596.5,-84 596.5,-84 596.5,-96 596.5,-96 596.5,-102 590.5,-108 584.5,-108"/>
<text text-anchor="middle" x="553.5" y="-87.5" font-family="sans" font-size="10.00" fill="#000000">iso_anno_final</text>
</g>
<!-- 15&#45;&gt;0 -->
<g id="edge1" class="edge">
<title>15&#45;&gt;0</title>
<path fill="none" stroke="#c0c0c0" stroke-width="2" d="M510.2918,-75.256C471.7195,-62.0939 415.8391,-43.0257 379.3404,-30.5711"/>
<polygon fill="#c0c0c0" stroke="#c0c0c0" stroke-width="2" points="380.1849,-27.1612 369.5904,-27.2441 377.9242,-33.7861 380.1849,-27.1612"/>
</g>
<!-- 16 -->
<g id="node17" class="node">
<title>16</title>
<path fill="none" stroke="#59d856" stroke-width="2" d="M594.5,-180C594.5,-180 520.5,-180 520.5,-180 514.5,-180 508.5,-174 508.5,-168 508.5,-168 508.5,-156 508.5,-156 508.5,-150 514.5,-144 520.5,-144 520.5,-144 594.5,-144 594.5,-144 600.5,-144 606.5,-150 606.5,-156 606.5,-156 606.5,-168 606.5,-168 606.5,-174 600.5,-180 594.5,-180"/>
<text text-anchor="middle" x="557.5" y="-159.5" font-family="sans" font-size="10.00" fill="#000000">iso_anno_concat</text>
</g>
<!-- 16&#45;&gt;15 -->
<g id="edge21" class="edge">
<title>16&#45;&gt;15</title>
<path fill="none" stroke="#c0c0c0" stroke-width="2" d="M556.4906,-143.8314C556.0628,-136.131 555.5541,-126.9743 555.0787,-118.4166"/>
<polygon fill="#c0c0c0" stroke="#c0c0c0" stroke-width="2" points="558.5724,-118.2037 554.523,-108.4133 551.5831,-118.592 558.5724,-118.2037"/>
</g>
<!-- 17 -->
<g id="node18" class="node">
<title>17</title>
<path fill="none" stroke="#70d856" stroke-width="2" d="M599,-252C599,-252 520,-252 520,-252 514,-252 508,-246 508,-240 508,-240 508,-228 508,-228 508,-222 514,-216 520,-216 520,-216 599,-216 599,-216 605,-216 611,-222 611,-228 611,-228 611,-240 611,-240 611,-246 605,-252 599,-252"/>
<text text-anchor="middle" x="559.5" y="-231.5" font-family="sans" font-size="10.00" fill="#000000">iso_anno_rename</text>
</g>
<!-- 17&#45;&gt;16 -->
<g id="edge22" class="edge">
<title>17&#45;&gt;16</title>
<path fill="none" stroke="#c0c0c0" stroke-width="2" d="M558.9953,-215.8314C558.7814,-208.131 558.5271,-198.9743 558.2894,-190.4166"/>
<polygon fill="#c0c0c0" stroke="#c0c0c0" stroke-width="2" points="561.7879,-190.3122 558.0115,-180.4133 554.7906,-190.5066 561.7879,-190.3122"/>
</g>
<!-- 18 -->
<g id="node19" class="node">
<title>18</title>
<path fill="none" stroke="#d8b456" stroke-width="2" d="M578.5,-324C578.5,-324 542.5,-324 542.5,-324 536.5,-324 530.5,-318 530.5,-312 530.5,-312 530.5,-300 530.5,-300 530.5,-294 536.5,-288 542.5,-288 542.5,-288 578.5,-288 578.5,-288 584.5,-288 590.5,-294 590.5,-300 590.5,-300 590.5,-312 590.5,-312 590.5,-318 584.5,-324 578.5,-324"/>
<text text-anchor="middle" x="560.5" y="-303.5" font-family="sans" font-size="10.00" fill="#000000">iso_anno</text>
</g>
<!-- 18&#45;&gt;17 -->
<g id="edge23" class="edge">
<title>18&#45;&gt;17</title>
<path fill="none" stroke="#c0c0c0" stroke-width="2" d="M560.2477,-287.8314C560.1407,-280.131 560.0135,-270.9743 559.8947,-262.4166"/>
<polygon fill="#c0c0c0" stroke="#c0c0c0" stroke-width="2" points="563.3944,-262.3637 559.7557,-252.4133 556.3951,-262.4609 563.3944,-262.3637"/>
</g>
<!-- 19&#45;&gt;18 -->
<g id="edge24" class="edge">
<title>19&#45;&gt;18</title>
<path fill="none" stroke="#c0c0c0" stroke-width="2" d="M560.5,-359.8314C560.5,-352.131 560.5,-342.9743 560.5,-334.4166"/>
<polygon fill="#c0c0c0" stroke="#c0c0c0" stroke-width="2" points="564.0001,-334.4132 560.5,-324.4133 557.0001,-334.4133 564.0001,-334.4132"/>
</g>
<!-- 20 -->
<g id="node21" class="node">
<title>20</title>
<path fill="none" stroke="#ced856" stroke-width="2" d="M712.5,-396C712.5,-396 644.5,-396 644.5,-396 638.5,-396 632.5,-390 632.5,-384 632.5,-384 632.5,-372 632.5,-372 632.5,-366 638.5,-360 644.5,-360 644.5,-360 712.5,-360 712.5,-360 718.5,-360 724.5,-366 724.5,-372 724.5,-372 724.5,-384 724.5,-384 724.5,-390 718.5,-396 712.5,-396"/>
<text text-anchor="middle" x="678.5" y="-375.5" font-family="sans" font-size="10.00" fill="#000000">extract_chr_len</text>
</g>
<!-- 20&#45;&gt;18 -->
<g id="edge25" class="edge">
<title>20&#45;&gt;18</title>
<path fill="none" stroke="#c0c0c0" stroke-width="2" d="M648.7236,-359.8314C633.6307,-350.6221 615.1243,-339.3301 598.9657,-329.4706"/>
<polygon fill="#c0c0c0" stroke="#c0c0c0" stroke-width="2" points="600.6263,-326.3838 590.2669,-324.1628 596.9802,-332.3593 600.6263,-326.3838"/>
</g>
<!-- 21&#45;&gt;20 -->
<g id="edge27" class="edge">
<title>21&#45;&gt;20</title>
<path fill="none" stroke="#c0c0c0" stroke-width="2" d="M560.2766,-575.9555C582.9464,-537.9967 635.6716,-449.7127 662.3793,-404.9928"/>
<polygon fill="#c0c0c0" stroke="#c0c0c0" stroke-width="2" points="665.5408,-406.5251 667.6634,-396.1451 659.531,-402.9359 665.5408,-406.5251"/>
</g>
</g>
</svg>
