<?xml version="1.0" encoding="UTF-8" standalone="no"?>
<!DOCTYPE svg PUBLIC "-//W3C//DTD SVG 1.1//EN"
 "http://www.w3.org/Graphics/SVG/1.1/DTD/svg11.dtd">
<!-- Generated by graphviz version 2.38.0 (20140413.2041)
 -->
<!-- Title: snakemake_dag Pages: 1 -->
<svg width="500pt" height="332pt"
 viewBox="0.00 0.00 500.00 332.00" xmlns="http://www.w3.org/2000/svg" xmlns:xlink="http://www.w3.org/1999/xlink">
<g id="graph0" class="graph" transform="scale(1 1) rotate(0) translate(4 328)">
<title>snakemake_dag</title>
<polygon fill="white" stroke="none" points="-4,4 -4,-328 496,-328 496,4 -4,4"/>
<!-- 0 -->
<g id="node1" class="node"><title>0</title>
<path fill="none" stroke="#56d8c1" stroke-width="2" d="M275,-36C275,-36 245,-36 245,-36 239,-36 233,-30 233,-24 233,-24 233,-12 233,-12 233,-6 239,-0 245,-0 245,-0 275,-0 275,-0 281,-0 287,-6 287,-12 287,-12 287,-24 287,-24 287,-30 281,-36 275,-36"/>
<text text-anchor="middle" x="260" y="-15.5" font-family="sans" font-size="10.00">finish</text>
</g>
<!-- 1 -->
<g id="node2" class="node"><title>1</title>
<path fill="none" stroke="#56c1d8" stroke-width="2" d="M408,-108C408,-108 238,-108 238,-108 232,-108 226,-102 226,-96 226,-96 226,-84 226,-84 226,-78 232,-72 238,-72 238,-72 408,-72 408,-72 414,-72 420,-78 420,-84 420,-84 420,-96 420,-96 420,-102 414,-108 408,-108"/>
<text text-anchor="middle" x="323" y="-87.5" font-family="sans" font-size="10.00">generate_segemehl_index_transcriptome</text>
</g>
<!-- 1&#45;&gt;0 -->
<g id="edge3" class="edge"><title>1&#45;&gt;0</title>
<path fill="none" stroke="grey" stroke-width="2" d="M307.427,-71.6966C299.798,-63.2198 290.477,-52.8636 282.124,-43.5826"/>
<polygon fill="grey" stroke="grey" stroke-width="2" points="284.685,-41.1959 275.394,-36.1043 279.482,-45.8787 284.685,-41.1959"/>
</g>
<!-- 2 -->
<g id="node3" class="node"><title>2</title>
<path fill="none" stroke="#56d88a" stroke-width="2" d="M158,-108C158,-108 12,-108 12,-108 6,-108 0,-102 0,-96 0,-96 0,-84 0,-84 0,-78 6,-72 12,-72 12,-72 158,-72 158,-72 164,-72 170,-78 170,-84 170,-84 170,-96 170,-96 170,-102 164,-108 158,-108"/>
<text text-anchor="middle" x="85" y="-87.5" font-family="sans" font-size="10.00">generate_segemehl_index_genome</text>
</g>
<!-- 2&#45;&gt;0 -->
<g id="edge2" class="edge"><title>2&#45;&gt;0</title>
<path fill="none" stroke="grey" stroke-width="2" d="M127.81,-71.8761C157.137,-60.1452 195.62,-44.7519 223.496,-33.6016"/>
<polygon fill="grey" stroke="grey" stroke-width="2" points="224.896,-36.8112 232.881,-29.8475 222.297,-30.3118 224.896,-36.8112"/>
</g>
<!-- 3 -->
<g id="node4" class="node"><title>3</title>
<path fill="none" stroke="#bed856" stroke-width="2" d="M480,-108C480,-108 450,-108 450,-108 444,-108 438,-102 438,-96 438,-96 438,-84 438,-84 438,-78 444,-72 450,-72 450,-72 480,-72 480,-72 486,-72 492,-78 492,-84 492,-84 492,-96 492,-96 492,-102 486,-108 480,-108"/>
<text text-anchor="middle" x="465" y="-87.5" font-family="sans" font-size="10.00">gtftobed</text>
</g>
<!-- 3&#45;&gt;0 -->
<g id="edge1" class="edge"><title>3&#45;&gt;0</title>
<path fill="none" stroke="grey" stroke-width="2" d="M437.653,-75.6113C434.755,-74.3356 431.833,-73.1069 429,-72 384.295,-54.53 331.276,-38.66 296.702,-28.9338"/>
<polygon fill="grey" stroke="grey" stroke-width="2" points="297.601,-25.551 287.029,-26.2375 295.722,-32.294 297.601,-25.551"/>
</g>
<!-- 4 -->
<g id="node5" class="node"><title>4</title>
<path fill="none" stroke="#d85656" stroke-width="2" d="M245,-180C245,-180 151,-180 151,-180 145,-180 139,-174 139,-168 139,-168 139,-156 139,-156 139,-150 145,-144 151,-144 151,-144 245,-144 245,-144 251,-144 257,-150 257,-156 257,-156 257,-168 257,-168 257,-174 251,-180 245,-180"/>
<text text-anchor="middle" x="198" y="-159.5" font-family="sans" font-size="10.00">create_header_genome</text>
</g>
<!-- 4&#45;&gt;0 -->
<g id="edge4" class="edge"><title>4&#45;&gt;0</title>
<path fill="none" stroke="grey" stroke-width="2" d="M199.268,-143.836C201.169,-125.328 205.824,-95.377 217,-72 221.803,-61.9547 228.873,-52.143 235.9,-43.7467"/>
<polygon fill="grey" stroke="grey" stroke-width="2" points="238.584,-45.9945 242.547,-36.169 233.321,-41.3782 238.584,-45.9945"/>
</g>
<!-- 5 -->
<g id="node6" class="node"><title>5</title>
<path fill="none" stroke="#d88d56" stroke-width="2" d="M341,-180C341,-180 305,-180 305,-180 299,-180 293,-174 293,-168 293,-168 293,-156 293,-156 293,-150 299,-144 305,-144 305,-144 341,-144 341,-144 347,-144 353,-150 353,-156 353,-156 353,-168 353,-168 353,-174 347,-180 341,-180"/>
<text text-anchor="middle" x="323" y="-159.5" font-family="sans" font-size="10.00">trim_fasta</text>
</g>
<!-- 5&#45;&gt;1 -->
<g id="edge5" class="edge"><title>5&#45;&gt;1</title>
<path fill="none" stroke="grey" stroke-width="2" d="M323,-143.697C323,-135.983 323,-126.712 323,-118.112"/>
<polygon fill="grey" stroke="grey" stroke-width="2" points="326.5,-118.104 323,-108.104 319.5,-118.104 326.5,-118.104"/>
</g>
<!-- 6 -->
<g id="node7" class="node"><title>6</title>
<path fill="none" stroke="#59d856" stroke-width="2" d="M231.5,-324C231.5,-324 164.5,-324 164.5,-324 158.5,-324 152.5,-318 152.5,-312 152.5,-312 152.5,-300 152.5,-300 152.5,-294 158.5,-288 164.5,-288 164.5,-288 231.5,-288 231.5,-288 237.5,-288 243.5,-294 243.5,-300 243.5,-300 243.5,-312 243.5,-312 243.5,-318 237.5,-324 231.5,-324"/>
<text text-anchor="middle" x="198" y="-303.5" font-family="sans" font-size="10.00">genome_process</text>
</g>
<!-- 6&#45;&gt;2 -->
<g id="edge6" class="edge"><title>6&#45;&gt;2</title>
<path fill="none" stroke="grey" stroke-width="2" d="M188.374,-287.698C175.045,-263.654 150.316,-218.722 130,-180 119.005,-159.043 106.922,-135.093 98.0478,-117.32"/>
<polygon fill="grey" stroke="grey" stroke-width="2" points="101.067,-115.53 93.475,-108.14 94.801,-118.652 101.067,-115.53"/>
</g>
<!-- 6&#45;&gt;4 -->
<g id="edge8" class="edge"><title>6&#45;&gt;4</title>
<path fill="none" stroke="grey" stroke-width="2" d="M198,-287.871C198,-263.67 198,-219.211 198,-190.393"/>
<polygon fill="grey" stroke="grey" stroke-width="2" points="201.5,-190.189 198,-180.189 194.5,-190.189 201.5,-190.189"/>
</g>
<!-- 8 -->
<g id="node9" class="node"><title>8</title>
<path fill="none" stroke="#88d856" stroke-width="2" d="M379.5,-252C379.5,-252 266.5,-252 266.5,-252 260.5,-252 254.5,-246 254.5,-240 254.5,-240 254.5,-228 254.5,-228 254.5,-222 260.5,-216 266.5,-216 266.5,-216 379.5,-216 379.5,-216 385.5,-216 391.5,-222 391.5,-228 391.5,-228 391.5,-240 391.5,-240 391.5,-246 385.5,-252 379.5,-252"/>
<text text-anchor="middle" x="323" y="-231.5" font-family="sans" font-size="10.00">extract_transcriptome_seqs</text>
</g>
<!-- 6&#45;&gt;8 -->
<g id="edge12" class="edge"><title>6&#45;&gt;8</title>
<path fill="none" stroke="grey" stroke-width="2" d="M228.578,-287.876C245.074,-278.639 265.624,-267.131 283.336,-257.212"/>
<polygon fill="grey" stroke="grey" stroke-width="2" points="285.289,-260.13 292.304,-252.19 281.869,-254.022 285.289,-260.13"/>
</g>
<!-- 7 -->
<g id="node8" class="node"><title>7</title>
<path fill="none" stroke="#568ad8" stroke-width="2" d="M480,-252C480,-252 426,-252 426,-252 420,-252 414,-246 414,-240 414,-240 414,-228 414,-228 414,-222 420,-216 426,-216 426,-216 480,-216 480,-216 486,-216 492,-222 492,-228 492,-228 492,-240 492,-240 492,-246 486,-252 480,-252"/>
<text text-anchor="middle" x="453" y="-231.5" font-family="sans" font-size="10.00">get_exons_gtf</text>
</g>
<!-- 7&#45;&gt;3 -->
<g id="edge7" class="edge"><title>7&#45;&gt;3</title>
<path fill="none" stroke="grey" stroke-width="2" d="M454.447,-215.871C456.493,-191.67 460.25,-147.211 462.685,-118.393"/>
<polygon fill="grey" stroke="grey" stroke-width="2" points="466.193,-118.449 463.547,-108.189 459.218,-117.859 466.193,-118.449"/>
</g>
<!-- 8&#45;&gt;5 -->
<g id="edge9" class="edge"><title>8&#45;&gt;5</title>
<path fill="none" stroke="grey" stroke-width="2" d="M323,-215.697C323,-207.983 323,-198.712 323,-190.112"/>
<polygon fill="grey" stroke="grey" stroke-width="2" points="326.5,-190.104 323,-180.104 319.5,-190.104 326.5,-190.104"/>
</g>
<!-- 9 -->
<g id="node10" class="node"><title>9</title>
<path fill="none" stroke="#d8bc56" stroke-width="2" d="M415,-324C415,-324 361,-324 361,-324 355,-324 349,-318 349,-312 349,-312 349,-300 349,-300 349,-294 355,-288 361,-288 361,-288 415,-288 415,-288 421,-288 427,-294 427,-300 427,-300 427,-312 427,-312 427,-318 421,-324 415,-324"/>
<text text-anchor="middle" x="388" y="-303.5" font-family="sans" font-size="10.00">filter_anno_gtf</text>
</g>
<!-- 9&#45;&gt;7 -->
<g id="edge10" class="edge"><title>9&#45;&gt;7</title>
<path fill="none" stroke="grey" stroke-width="2" d="M404.067,-287.697C411.939,-279.22 421.555,-268.864 430.173,-259.583"/>
<polygon fill="grey" stroke="grey" stroke-width="2" points="432.878,-261.814 437.117,-252.104 427.748,-257.051 432.878,-261.814"/>
</g>
<!-- 9&#45;&gt;8 -->
<g id="edge11" class="edge"><title>9&#45;&gt;8</title>
<path fill="none" stroke="grey" stroke-width="2" d="M371.933,-287.697C364.061,-279.22 354.445,-268.864 345.827,-259.583"/>
<polygon fill="grey" stroke="grey" stroke-width="2" points="348.252,-257.051 338.883,-252.104 343.122,-261.814 348.252,-257.051"/>
</g>
</g>
</svg>
