<?xml version="1.0" encoding="UTF-8" standalone="no"?>
<!DOCTYPE svg PUBLIC "-//W3C//DTD SVG 1.1//EN"
 "http://www.w3.org/Graphics/SVG/1.1/DTD/svg11.dtd">
<!-- Generated by graphviz version 7.1.0 (20230122.1345)
 -->
<!-- Title: snakemake_dag Pages: 1 -->
<svg width="852pt" height="1844pt"
 viewBox="0.00 0.00 852.00 1844.00" xmlns="http://www.w3.org/2000/svg" xmlns:xlink="http://www.w3.org/1999/xlink">
<g id="graph0" class="graph" transform="scale(1 1) rotate(0) translate(4 1840)">
<title>snakemake_dag</title>
<polygon fill="white" stroke="none" points="-4,4 -4,-1840 848,-1840 848,4 -4,4"/>
<!-- 0 -->
<g id="node1" class="node">
<title>0</title>
<path fill="none" stroke="#5673d8" stroke-width="2" d="M659,-36C659,-36 629,-36 629,-36 623,-36 617,-30 617,-24 617,-24 617,-12 617,-12 617,-6 623,0 629,0 629,0 659,0 659,0 665,0 671,-6 671,-12 671,-12 671,-24 671,-24 671,-30 665,-36 659,-36"/>
<text text-anchor="middle" x="644" y="-15.5" font-family="sans" font-size="10.00">finish</text>
</g>
<!-- 1 -->
<g id="node2" class="node">
<title>1</title>
<path fill="none" stroke="#61d856" stroke-width="2" d="M659.5,-1476C659.5,-1476 474.5,-1476 474.5,-1476 468.5,-1476 462.5,-1470 462.5,-1464 462.5,-1464 462.5,-1452 462.5,-1452 462.5,-1446 468.5,-1440 474.5,-1440 474.5,-1440 659.5,-1440 659.5,-1440 665.5,-1440 671.5,-1446 671.5,-1452 671.5,-1452 671.5,-1464 671.5,-1464 671.5,-1470 665.5,-1476 659.5,-1476"/>
<text text-anchor="middle" x="567" y="-1455.5" font-family="sans" font-size="10.00">generate_segemehl_index_transcriptome</text>
</g>
<!-- 1&#45;&gt;0 -->
<g id="edge4" class="edge">
<title>1&#45;&gt;0</title>
<path fill="none" stroke="grey" stroke-width="2" d="M610.03,-1439.19C655.28,-1417.26 720,-1375.34 720,-1315 720,-1315 720,-1315 720,-161 720,-117.06 691.36,-73.56 669.25,-46.52"/>
<polygon fill="grey" stroke="grey" stroke-width="2" points="671.97,-44.31 662.83,-38.96 666.64,-48.85 671.97,-44.31"/>
</g>
<!-- 24 -->
<g id="node25" class="node">
<title>24</title>
<path fill="none" stroke="#d85e56" stroke-width="2" d="M607.5,-1404C607.5,-1404 454.5,-1404 454.5,-1404 448.5,-1404 442.5,-1398 442.5,-1392 442.5,-1392 442.5,-1380 442.5,-1380 442.5,-1374 448.5,-1368 454.5,-1368 454.5,-1368 607.5,-1368 607.5,-1368 613.5,-1368 619.5,-1374 619.5,-1380 619.5,-1380 619.5,-1392 619.5,-1392 619.5,-1398 613.5,-1404 607.5,-1404"/>
<text text-anchor="middle" x="531" y="-1383.5" font-family="sans" font-size="10.00">mapping_transcriptome_segemehl</text>
</g>
<!-- 1&#45;&gt;24 -->
<g id="edge32" class="edge">
<title>1&#45;&gt;24</title>
<path fill="none" stroke="grey" stroke-width="2" d="M557.92,-1439.34C554.32,-1432.34 550.09,-1424.12 546.06,-1416.28"/>
<polygon fill="grey" stroke="grey" stroke-width="2" points="549.28,-1414.89 541.59,-1407.59 543.05,-1418.09 549.28,-1414.89"/>
</g>
<!-- 2 -->
<g id="node3" class="node">
<title>2</title>
<path fill="none" stroke="#d88d56" stroke-width="2" d="M522.5,-1548C522.5,-1548 483.5,-1548 483.5,-1548 477.5,-1548 471.5,-1542 471.5,-1536 471.5,-1536 471.5,-1524 471.5,-1524 471.5,-1518 477.5,-1512 483.5,-1512 483.5,-1512 522.5,-1512 522.5,-1512 528.5,-1512 534.5,-1518 534.5,-1524 534.5,-1524 534.5,-1536 534.5,-1536 534.5,-1542 528.5,-1548 522.5,-1548"/>
<text text-anchor="middle" x="503" y="-1527.5" font-family="sans" font-size="10.00">trim_fasta</text>
</g>
<!-- 2&#45;&gt;1 -->
<g id="edge8" class="edge">
<title>2&#45;&gt;1</title>
<path fill="none" stroke="grey" stroke-width="2" d="M519.15,-1511.34C526.07,-1503.77 534.31,-1494.75 541.99,-1486.35"/>
<polygon fill="grey" stroke="grey" stroke-width="2" points="544.43,-1488.88 548.59,-1479.14 539.26,-1484.15 544.43,-1488.88"/>
</g>
<!-- 2&#45;&gt;24 -->
<g id="edge33" class="edge">
<title>2&#45;&gt;24</title>
<path fill="none" stroke="grey" stroke-width="2" d="M480.08,-1511.17C470.04,-1501.9 459.34,-1489.65 454,-1476 448.17,-1461.1 446.56,-1454.16 454,-1440 459.95,-1428.69 469.52,-1419.32 479.93,-1411.77"/>
<polygon fill="grey" stroke="grey" stroke-width="2" points="481.54,-1414.9 487.98,-1406.48 477.7,-1409.05 481.54,-1414.9"/>
</g>
<!-- 30 -->
<g id="node31" class="node">
<title>30</title>
<path fill="none" stroke="#d8c356" stroke-width="2" d="M190,-1476C190,-1476 40,-1476 40,-1476 34,-1476 28,-1470 28,-1464 28,-1464 28,-1452 28,-1452 28,-1446 34,-1440 40,-1440 40,-1440 190,-1440 190,-1440 196,-1440 202,-1446 202,-1452 202,-1452 202,-1464 202,-1464 202,-1470 196,-1476 190,-1476"/>
<text text-anchor="middle" x="115" y="-1455.5" font-family="sans" font-size="10.00">mapping_transcriptome_oligomap</text>
</g>
<!-- 2&#45;&gt;30 -->
<g id="edge40" class="edge">
<title>2&#45;&gt;30</title>
<path fill="none" stroke="grey" stroke-width="2" d="M470.59,-1523.15C415.15,-1513.15 299.96,-1492.37 215.65,-1477.16"/>
<polygon fill="grey" stroke="grey" stroke-width="2" points="216.36,-1473.73 205.9,-1475.4 215.12,-1480.62 216.36,-1473.73"/>
</g>
<!-- 3 -->
<g id="node4" class="node">
<title>3</title>
<path fill="none" stroke="#bed856" stroke-width="2" d="M593.5,-1620C593.5,-1620 474.5,-1620 474.5,-1620 468.5,-1620 462.5,-1614 462.5,-1608 462.5,-1608 462.5,-1596 462.5,-1596 462.5,-1590 468.5,-1584 474.5,-1584 474.5,-1584 593.5,-1584 593.5,-1584 599.5,-1584 605.5,-1590 605.5,-1596 605.5,-1596 605.5,-1608 605.5,-1608 605.5,-1614 599.5,-1620 593.5,-1620"/>
<text text-anchor="middle" x="534" y="-1599.5" font-family="sans" font-size="10.00">extract_transcriptome_seqs</text>
</g>
<!-- 3&#45;&gt;2 -->
<g id="edge9" class="edge">
<title>3&#45;&gt;2</title>
<path fill="none" stroke="grey" stroke-width="2" d="M526.18,-1583.34C523.12,-1576.43 519.52,-1568.31 516.09,-1560.56"/>
<polygon fill="grey" stroke="grey" stroke-width="2" points="519.4,-1559.4 512.15,-1551.67 513,-1562.23 519.4,-1559.4"/>
</g>
<!-- 4 -->
<g id="node5" class="node">
<title>4</title>
<path fill="none" stroke="#56d0d8" stroke-width="2" d="M578.5,-1692C578.5,-1692 489.5,-1692 489.5,-1692 483.5,-1692 477.5,-1686 477.5,-1680 477.5,-1680 477.5,-1668 477.5,-1668 477.5,-1662 483.5,-1656 489.5,-1656 489.5,-1656 578.5,-1656 578.5,-1656 584.5,-1656 590.5,-1662 590.5,-1668 590.5,-1668 590.5,-1680 590.5,-1680 590.5,-1686 584.5,-1692 578.5,-1692"/>
<text text-anchor="middle" x="534" y="-1671.5" font-family="sans" font-size="10.00">trim_genome_seq_id</text>
</g>
<!-- 4&#45;&gt;3 -->
<g id="edge10" class="edge">
<title>4&#45;&gt;3</title>
<path fill="none" stroke="grey" stroke-width="2" d="M534,-1655.34C534,-1648.75 534,-1641.08 534,-1633.67"/>
<polygon fill="grey" stroke="grey" stroke-width="2" points="537.5,-1633.93 534,-1623.93 530.5,-1633.93 537.5,-1633.93"/>
</g>
<!-- 5 -->
<g id="node6" class="node">
<title>5</title>
<path fill="none" stroke="#97d856" stroke-width="2" d="M832,-1620C832,-1620 674,-1620 674,-1620 668,-1620 662,-1614 662,-1608 662,-1608 662,-1596 662,-1596 662,-1590 668,-1584 674,-1584 674,-1584 832,-1584 832,-1584 838,-1584 844,-1590 844,-1596 844,-1596 844,-1608 844,-1608 844,-1614 838,-1620 832,-1620"/>
<text text-anchor="middle" x="753" y="-1599.5" font-family="sans" font-size="10.00">generate_segemehl_index_genome</text>
</g>
<!-- 4&#45;&gt;5 -->
<g id="edge11" class="edge">
<title>4&#45;&gt;5</title>
<path fill="none" stroke="grey" stroke-width="2" d="M590.11,-1655.06C618.96,-1645.84 654.36,-1634.53 684.77,-1624.81"/>
<polygon fill="grey" stroke="grey" stroke-width="2" points="685.69,-1628.19 694.15,-1621.81 683.56,-1621.52 685.69,-1628.19"/>
</g>
<!-- 8 -->
<g id="node9" class="node">
<title>8</title>
<path fill="none" stroke="#56d873" stroke-width="2" d="M397,-972C397,-972 293,-972 293,-972 287,-972 281,-966 281,-960 281,-960 281,-948 281,-948 281,-942 287,-936 293,-936 293,-936 397,-936 397,-936 403,-936 409,-942 409,-948 409,-948 409,-960 409,-960 409,-966 403,-972 397,-972"/>
<text text-anchor="middle" x="345" y="-951.5" font-family="sans" font-size="10.00">create_header_genome</text>
</g>
<!-- 4&#45;&gt;8 -->
<g id="edge13" class="edge">
<title>4&#45;&gt;8</title>
<path fill="none" stroke="grey" stroke-width="2" d="M476.6,-1663.82C338.68,-1640.97 0,-1579.89 0,-1531 0,-1531 0,-1531 0,-1097 0,-1039.54 165.69,-993.53 267.42,-970.69"/>
<polygon fill="grey" stroke="grey" stroke-width="2" points="268.14,-974.11 277.15,-968.54 266.63,-967.28 268.14,-974.11"/>
</g>
<!-- 36 -->
<g id="node37" class="node">
<title>36</title>
<path fill="none" stroke="#b6d856" stroke-width="2" d="M708.5,-1548C708.5,-1548 581.5,-1548 581.5,-1548 575.5,-1548 569.5,-1542 569.5,-1536 569.5,-1536 569.5,-1524 569.5,-1524 569.5,-1518 575.5,-1512 581.5,-1512 581.5,-1512 708.5,-1512 708.5,-1512 714.5,-1512 720.5,-1518 720.5,-1524 720.5,-1524 720.5,-1536 720.5,-1536 720.5,-1542 714.5,-1548 708.5,-1548"/>
<text text-anchor="middle" x="645" y="-1527.5" font-family="sans" font-size="10.00">mapping_genome_segemehl</text>
</g>
<!-- 4&#45;&gt;36 -->
<g id="edge48" class="edge">
<title>4&#45;&gt;36</title>
<path fill="none" stroke="grey" stroke-width="2" d="M571.95,-1655.22C587.15,-1646.47 603.69,-1634.62 615,-1620 628.18,-1602.96 635.75,-1579.8 639.98,-1561.38"/>
<polygon fill="grey" stroke="grey" stroke-width="2" points="643.4,-1562.14 641.96,-1551.64 636.54,-1560.74 643.4,-1562.14"/>
</g>
<!-- 38 -->
<g id="node39" class="node">
<title>38</title>
<path fill="none" stroke="#5692d8" stroke-width="2" d="M356,-1476C356,-1476 232,-1476 232,-1476 226,-1476 220,-1470 220,-1464 220,-1464 220,-1452 220,-1452 220,-1446 226,-1440 232,-1440 232,-1440 356,-1440 356,-1440 362,-1440 368,-1446 368,-1452 368,-1452 368,-1464 368,-1464 368,-1470 362,-1476 356,-1476"/>
<text text-anchor="middle" x="294" y="-1455.5" font-family="sans" font-size="10.00">mapping_genome_oligomap</text>
</g>
<!-- 4&#45;&gt;38 -->
<g id="edge53" class="edge">
<title>4&#45;&gt;38</title>
<path fill="none" stroke="grey" stroke-width="2" d="M501.93,-1655.01C486.58,-1645.62 468.46,-1633.32 454,-1620 409.08,-1578.61 413.29,-1554.06 369,-1512 358.38,-1501.91 345.72,-1492.24 333.86,-1483.98"/>
<polygon fill="grey" stroke="grey" stroke-width="2" points="336.02,-1481.22 325.77,-1478.52 332.1,-1487.02 336.02,-1481.22"/>
</g>
<!-- 5&#45;&gt;0 -->
<g id="edge2" class="edge">
<title>5&#45;&gt;0</title>
<path fill="none" stroke="grey" stroke-width="2" d="M754.04,-1583.07C755.5,-1556.15 758,-1503.65 758,-1459 758,-1459 758,-1459 758,-161 758,-111.51 715.36,-69.44 682.24,-44.23"/>
<polygon fill="grey" stroke="grey" stroke-width="2" points="684.47,-41.52 674.33,-38.44 680.33,-47.17 684.47,-41.52"/>
</g>
<!-- 5&#45;&gt;36 -->
<g id="edge49" class="edge">
<title>5&#45;&gt;36</title>
<path fill="none" stroke="grey" stroke-width="2" d="M725.47,-1583.15C712.65,-1574.84 697.18,-1564.82 683.25,-1555.79"/>
<polygon fill="grey" stroke="grey" stroke-width="2" points="685.32,-1552.96 675.02,-1550.46 681.51,-1558.83 685.32,-1552.96"/>
</g>
<!-- 6 -->
<g id="node7" class="node">
<title>6</title>
<path fill="none" stroke="#80d856" stroke-width="2" d="M532,-1116C532,-1116 498,-1116 498,-1116 492,-1116 486,-1110 486,-1104 486,-1104 486,-1092 486,-1092 486,-1086 492,-1080 498,-1080 498,-1080 532,-1080 532,-1080 538,-1080 544,-1086 544,-1092 544,-1092 544,-1104 544,-1104 544,-1110 538,-1116 532,-1116"/>
<text text-anchor="middle" x="515" y="-1095.5" font-family="sans" font-size="10.00">gtftobed</text>
</g>
<!-- 6&#45;&gt;0 -->
<g id="edge3" class="edge">
<title>6&#45;&gt;0</title>
<path fill="none" stroke="grey" stroke-width="2" d="M544.74,-1094.75C578.51,-1090.55 632.81,-1078.51 663,-1044 689.63,-1013.56 682,-995.45 682,-955 682,-955 682,-955 682,-161 682,-121.16 667.87,-77.11 656.85,-48.8"/>
<polygon fill="grey" stroke="grey" stroke-width="2" points="660.19,-47.73 653.19,-39.77 653.7,-50.36 660.19,-47.73"/>
</g>
<!-- 20 -->
<g id="node21" class="node">
<title>20</title>
<path fill="none" stroke="#56d8c1" stroke-width="2" d="M484.5,-1044C484.5,-1044 431.5,-1044 431.5,-1044 425.5,-1044 419.5,-1038 419.5,-1032 419.5,-1032 419.5,-1020 419.5,-1020 419.5,-1014 425.5,-1008 431.5,-1008 431.5,-1008 484.5,-1008 484.5,-1008 490.5,-1008 496.5,-1014 496.5,-1020 496.5,-1020 496.5,-1032 496.5,-1032 496.5,-1038 490.5,-1044 484.5,-1044"/>
<text text-anchor="middle" x="458" y="-1023.5" font-family="sans" font-size="10.00">trans_to_gen</text>
</g>
<!-- 6&#45;&gt;20 -->
<g id="edge27" class="edge">
<title>6&#45;&gt;20</title>
<path fill="none" stroke="grey" stroke-width="2" d="M500.62,-1079.34C494.59,-1071.93 487.43,-1063.14 480.72,-1054.9"/>
<polygon fill="grey" stroke="grey" stroke-width="2" points="483.52,-1052.79 474.49,-1047.25 478.09,-1057.21 483.52,-1052.79"/>
</g>
<!-- 7 -->
<g id="node8" class="node">
<title>7</title>
<path fill="none" stroke="#70d856" stroke-width="2" d="M540,-1188C540,-1188 482,-1188 482,-1188 476,-1188 470,-1182 470,-1176 470,-1176 470,-1164 470,-1164 470,-1158 476,-1152 482,-1152 482,-1152 540,-1152 540,-1152 546,-1152 552,-1158 552,-1164 552,-1164 552,-1176 552,-1176 552,-1182 546,-1188 540,-1188"/>
<text text-anchor="middle" x="511" y="-1167.5" font-family="sans" font-size="10.00">get_exons_gtf</text>
</g>
<!-- 7&#45;&gt;6 -->
<g id="edge12" class="edge">
<title>7&#45;&gt;6</title>
<path fill="none" stroke="grey" stroke-width="2" d="M512.01,-1151.34C512.39,-1144.75 512.82,-1137.08 513.25,-1129.67"/>
<polygon fill="grey" stroke="grey" stroke-width="2" points="516.73,-1130.11 513.8,-1119.92 509.74,-1129.71 516.73,-1130.11"/>
</g>
<!-- 8&#45;&gt;0 -->
<g id="edge6" class="edge">
<title>8&#45;&gt;0</title>
<path fill="none" stroke="grey" stroke-width="2" d="M346.45,-935.08C348.5,-908.16 352,-855.68 352,-811 352,-811 352,-811 352,-161 352,-50.69 522.61,-26.05 603,-20.56"/>
<polygon fill="grey" stroke="grey" stroke-width="2" points="603.21,-24.06 612.98,-19.97 602.79,-17.07 603.21,-24.06"/>
</g>
<!-- 18 -->
<g id="node19" class="node">
<title>18</title>
<path fill="none" stroke="#56d8c9" stroke-width="2" d="M468,-900C468,-900 420,-900 420,-900 414,-900 408,-894 408,-888 408,-888 408,-876 408,-876 408,-870 414,-864 420,-864 420,-864 468,-864 468,-864 474,-864 480,-870 480,-876 480,-876 480,-888 480,-888 480,-894 474,-900 468,-900"/>
<text text-anchor="middle" x="444" y="-879.5" font-family="sans" font-size="10.00">add_header</text>
</g>
<!-- 8&#45;&gt;18 -->
<g id="edge23" class="edge">
<title>8&#45;&gt;18</title>
<path fill="none" stroke="grey" stroke-width="2" d="M370.24,-935.15C381.76,-927.01 395.61,-917.22 408.18,-908.33"/>
<polygon fill="grey" stroke="grey" stroke-width="2" points="410.19,-911.19 416.34,-902.56 406.15,-905.48 410.19,-911.19"/>
</g>
<!-- 9 -->
<g id="node10" class="node">
<title>9</title>
<path fill="none" stroke="#a7d856" stroke-width="2" d="M616.5,-324C616.5,-324 583.5,-324 583.5,-324 577.5,-324 571.5,-318 571.5,-312 571.5,-312 571.5,-300 571.5,-300 571.5,-294 577.5,-288 583.5,-288 583.5,-288 616.5,-288 616.5,-288 622.5,-288 628.5,-294 628.5,-300 628.5,-300 628.5,-312 628.5,-312 628.5,-318 622.5,-324 616.5,-324"/>
<text text-anchor="middle" x="600" y="-303.5" font-family="sans" font-size="10.00">gfftobed</text>
</g>
<!-- 9&#45;&gt;0 -->
<g id="edge1" class="edge">
<title>9&#45;&gt;0</title>
<path fill="none" stroke="grey" stroke-width="2" d="M604.01,-287.28C609.37,-263.13 618.89,-218.47 625,-180 632.18,-134.76 637.91,-81.97 641.13,-49.52"/>
<polygon fill="grey" stroke="grey" stroke-width="2" points="644.58,-50.24 642.06,-39.95 637.61,-49.56 644.58,-50.24"/>
</g>
<!-- 42 -->
<g id="node43" class="node">
<title>42</title>
<path fill="none" stroke="#d86656" stroke-width="2" d="M566.5,-252C566.5,-252 501.5,-252 501.5,-252 495.5,-252 489.5,-246 489.5,-240 489.5,-240 489.5,-228 489.5,-228 489.5,-222 495.5,-216 501.5,-216 501.5,-216 566.5,-216 566.5,-216 572.5,-216 578.5,-222 578.5,-228 578.5,-228 578.5,-240 578.5,-240 578.5,-246 572.5,-252 566.5,-252"/>
<text text-anchor="middle" x="534" y="-231.5" font-family="sans" font-size="10.00">intersect_mirna</text>
</g>
<!-- 9&#45;&gt;42 -->
<g id="edge59" class="edge">
<title>9&#45;&gt;42</title>
<path fill="none" stroke="grey" stroke-width="2" d="M583.35,-287.34C576.21,-279.77 567.71,-270.75 559.79,-262.35"/>
<polygon fill="grey" stroke="grey" stroke-width="2" points="562.36,-259.98 552.96,-255.1 557.27,-264.78 562.36,-259.98"/>
</g>
<!-- 10 -->
<g id="node11" class="node">
<title>10</title>
<path fill="none" stroke="#d87d56" stroke-width="2" d="M634,-396C634,-396 566,-396 566,-396 560,-396 554,-390 554,-384 554,-384 554,-372 554,-372 554,-366 560,-360 566,-360 566,-360 634,-360 634,-360 640,-360 646,-366 646,-372 646,-372 646,-384 646,-384 646,-390 640,-396 634,-396"/>
<text text-anchor="middle" x="600" y="-375.5" font-family="sans" font-size="10.00">map_chr_names</text>
</g>
<!-- 10&#45;&gt;9 -->
<g id="edge14" class="edge">
<title>10&#45;&gt;9</title>
<path fill="none" stroke="grey" stroke-width="2" d="M600,-359.34C600,-352.75 600,-345.08 600,-337.67"/>
<polygon fill="grey" stroke="grey" stroke-width="2" points="603.5,-337.93 600,-327.93 596.5,-337.93 603.5,-337.93"/>
</g>
<!-- 11 -->
<g id="node12" class="node">
<title>11</title>
<path fill="none" stroke="#d8a456" stroke-width="2" d="M435,-252C435,-252 393,-252 393,-252 387,-252 381,-246 381,-240 381,-240 381,-228 381,-228 381,-222 387,-216 393,-216 393,-216 435,-216 435,-216 441,-216 447,-222 447,-228 447,-228 447,-240 447,-240 447,-246 441,-252 435,-252"/>
<text text-anchor="middle" x="414" y="-231.5" font-family="sans" font-size="10.00">index_bam</text>
</g>
<!-- 11&#45;&gt;0 -->
<g id="edge7" class="edge">
<title>11&#45;&gt;0</title>
<path fill="none" stroke="grey" stroke-width="2" d="M411.46,-215.01C409.69,-196.06 409.53,-166 422,-144 460.31,-76.43 550.53,-42.74 603.41,-28.25"/>
<polygon fill="grey" stroke="grey" stroke-width="2" points="604.28,-31.64 613.07,-25.73 602.51,-24.87 604.28,-31.64"/>
</g>
<!-- 12 -->
<g id="node13" class="node">
<title>12</title>
<path fill="none" stroke="#569ad8" stroke-width="2" d="M478,-468C478,-468 410,-468 410,-468 404,-468 398,-462 398,-456 398,-456 398,-444 398,-444 398,-438 404,-432 410,-432 410,-432 478,-432 478,-432 484,-432 490,-438 490,-444 490,-444 490,-456 490,-456 490,-462 484,-468 478,-468"/>
<text text-anchor="middle" x="444" y="-447.5" font-family="sans" font-size="10.00">sort_by_position</text>
</g>
<!-- 12&#45;&gt;11 -->
<g id="edge15" class="edge">
<title>12&#45;&gt;11</title>
<path fill="none" stroke="grey" stroke-width="2" d="M441.49,-431.12C436.38,-394.62 424.67,-311.13 418.31,-265.74"/>
<polygon fill="grey" stroke="grey" stroke-width="2" points="421.79,-265.39 416.94,-255.97 414.86,-266.36 421.79,-265.39"/>
</g>
<!-- 44 -->
<g id="node45" class="node">
<title>44</title>
<path fill="none" stroke="#56c1d8" stroke-width="2" d="M519.5,-396C519.5,-396 478.5,-396 478.5,-396 472.5,-396 466.5,-390 466.5,-384 466.5,-384 466.5,-372 466.5,-372 466.5,-366 472.5,-360 478.5,-360 478.5,-360 519.5,-360 519.5,-360 525.5,-360 531.5,-366 531.5,-372 531.5,-372 531.5,-384 531.5,-384 531.5,-390 525.5,-396 519.5,-396"/>
<text text-anchor="middle" x="499" y="-375.5" font-family="sans" font-size="10.00">bamtobed</text>
</g>
<!-- 12&#45;&gt;44 -->
<g id="edge62" class="edge">
<title>12&#45;&gt;44</title>
<path fill="none" stroke="grey" stroke-width="2" d="M457.88,-431.34C463.7,-423.93 470.6,-415.14 477.08,-406.9"/>
<polygon fill="grey" stroke="grey" stroke-width="2" points="479.64,-409.31 483.06,-399.28 474.13,-404.98 479.64,-409.31"/>
</g>
<!-- 13 -->
<g id="node14" class="node">
<title>13</title>
<path fill="none" stroke="#d8d356" stroke-width="2" d="M478,-540C478,-540 410,-540 410,-540 404,-540 398,-534 398,-528 398,-528 398,-516 398,-516 398,-510 404,-504 410,-504 410,-504 478,-504 478,-504 484,-504 490,-510 490,-516 490,-516 490,-528 490,-528 490,-534 484,-540 478,-540"/>
<text text-anchor="middle" x="444" y="-519.5" font-family="sans" font-size="10.00">convert_to_bam</text>
</g>
<!-- 13&#45;&gt;12 -->
<g id="edge16" class="edge">
<title>13&#45;&gt;12</title>
<path fill="none" stroke="grey" stroke-width="2" d="M444,-503.34C444,-496.75 444,-489.08 444,-481.67"/>
<polygon fill="grey" stroke="grey" stroke-width="2" points="447.5,-481.93 444,-471.93 440.5,-481.93 447.5,-481.93"/>
</g>
<!-- 14 -->
<g id="node15" class="node">
<title>14</title>
<path fill="none" stroke="#5663d8" stroke-width="2" d="M479.5,-612C479.5,-612 408.5,-612 408.5,-612 402.5,-612 396.5,-606 396.5,-600 396.5,-600 396.5,-588 396.5,-588 396.5,-582 402.5,-576 408.5,-576 408.5,-576 479.5,-576 479.5,-576 485.5,-576 491.5,-582 491.5,-588 491.5,-588 491.5,-600 491.5,-600 491.5,-606 485.5,-612 479.5,-612"/>
<text text-anchor="middle" x="444" y="-591.5" font-family="sans" font-size="10.00">uncollapse_reads</text>
</g>
<!-- 14&#45;&gt;13 -->
<g id="edge17" class="edge">
<title>14&#45;&gt;13</title>
<path fill="none" stroke="grey" stroke-width="2" d="M444,-575.34C444,-568.75 444,-561.08 444,-553.67"/>
<polygon fill="grey" stroke="grey" stroke-width="2" points="447.5,-553.93 444,-543.93 440.5,-553.93 447.5,-553.93"/>
</g>
<!-- 15 -->
<g id="node16" class="node">
<title>15</title>
<path fill="none" stroke="#56d863" stroke-width="2" d="M475,-684C475,-684 413,-684 413,-684 407,-684 401,-678 401,-672 401,-672 401,-660 401,-660 401,-654 407,-648 413,-648 413,-648 475,-648 475,-648 481,-648 487,-654 487,-660 487,-660 487,-672 487,-672 487,-678 481,-684 475,-684"/>
<text text-anchor="middle" x="444" y="-663.5" font-family="sans" font-size="10.00">filter_by_indels</text>
</g>
<!-- 15&#45;&gt;14 -->
<g id="edge18" class="edge">
<title>15&#45;&gt;14</title>
<path fill="none" stroke="grey" stroke-width="2" d="M444,-647.34C444,-640.75 444,-633.08 444,-625.67"/>
<polygon fill="grey" stroke="grey" stroke-width="2" points="447.5,-625.93 444,-615.93 440.5,-625.93 447.5,-625.93"/>
</g>
<!-- 16 -->
<g id="node17" class="node">
<title>16</title>
<path fill="none" stroke="#88d856" stroke-width="2" d="M480.5,-756C480.5,-756 407.5,-756 407.5,-756 401.5,-756 395.5,-750 395.5,-744 395.5,-744 395.5,-732 395.5,-732 395.5,-726 401.5,-720 407.5,-720 407.5,-720 480.5,-720 480.5,-720 486.5,-720 492.5,-726 492.5,-732 492.5,-732 492.5,-744 492.5,-744 492.5,-750 486.5,-756 480.5,-756"/>
<text text-anchor="middle" x="444" y="-735.5" font-family="sans" font-size="10.00">remove_inferiors</text>
</g>
<!-- 16&#45;&gt;15 -->
<g id="edge19" class="edge">
<title>16&#45;&gt;15</title>
<path fill="none" stroke="grey" stroke-width="2" d="M444,-719.34C444,-712.75 444,-705.08 444,-697.67"/>
<polygon fill="grey" stroke="grey" stroke-width="2" points="447.5,-697.93 444,-687.93 440.5,-697.93 447.5,-697.93"/>
</g>
<!-- 17 -->
<g id="node18" class="node">
<title>17</title>
<path fill="none" stroke="#56a2d8" stroke-width="2" d="M459,-828C459,-828 429,-828 429,-828 423,-828 417,-822 417,-816 417,-816 417,-804 417,-804 417,-798 423,-792 429,-792 429,-792 459,-792 459,-792 465,-792 471,-798 471,-804 471,-804 471,-816 471,-816 471,-822 465,-828 459,-828"/>
<text text-anchor="middle" x="444" y="-807.5" font-family="sans" font-size="10.00">sort_id</text>
</g>
<!-- 17&#45;&gt;16 -->
<g id="edge20" class="edge">
<title>17&#45;&gt;16</title>
<path fill="none" stroke="grey" stroke-width="2" d="M444,-791.34C444,-784.75 444,-777.08 444,-769.67"/>
<polygon fill="grey" stroke="grey" stroke-width="2" points="447.5,-769.93 444,-759.93 440.5,-769.93 447.5,-769.93"/>
</g>
<!-- 18&#45;&gt;17 -->
<g id="edge21" class="edge">
<title>18&#45;&gt;17</title>
<path fill="none" stroke="grey" stroke-width="2" d="M444,-863.34C444,-856.75 444,-849.08 444,-841.67"/>
<polygon fill="grey" stroke="grey" stroke-width="2" points="447.5,-841.93 444,-831.93 440.5,-841.93 447.5,-841.93"/>
</g>
<!-- 19 -->
<g id="node20" class="node">
<title>19</title>
<path fill="none" stroke="#8fd856" stroke-width="2" d="M490.5,-972C490.5,-972 439.5,-972 439.5,-972 433.5,-972 427.5,-966 427.5,-960 427.5,-960 427.5,-948 427.5,-948 427.5,-942 433.5,-936 439.5,-936 439.5,-936 490.5,-936 490.5,-936 496.5,-936 502.5,-942 502.5,-948 502.5,-948 502.5,-960 502.5,-960 502.5,-966 496.5,-972 490.5,-972"/>
<text text-anchor="middle" x="465" y="-951.5" font-family="sans" font-size="10.00">cat_mapping</text>
</g>
<!-- 19&#45;&gt;18 -->
<g id="edge22" class="edge">
<title>19&#45;&gt;18</title>
<path fill="none" stroke="grey" stroke-width="2" d="M459.7,-935.34C457.68,-928.59 455.31,-920.69 453.03,-913.11"/>
<polygon fill="grey" stroke="grey" stroke-width="2" points="456.47,-912.37 450.24,-903.8 449.76,-914.39 456.47,-912.37"/>
</g>
<!-- 20&#45;&gt;19 -->
<g id="edge25" class="edge">
<title>20&#45;&gt;19</title>
<path fill="none" stroke="grey" stroke-width="2" d="M459.77,-1007.34C460.42,-1000.75 461.19,-993.08 461.93,-985.67"/>
<polygon fill="grey" stroke="grey" stroke-width="2" points="465.4,-986.21 462.91,-975.91 458.43,-985.52 465.4,-986.21"/>
</g>
<!-- 21 -->
<g id="node22" class="node">
<title>21</title>
<path fill="none" stroke="#56d86b" stroke-width="2" d="M455.5,-1116C455.5,-1116 314.5,-1116 314.5,-1116 308.5,-1116 302.5,-1110 302.5,-1104 302.5,-1104 302.5,-1092 302.5,-1092 302.5,-1086 308.5,-1080 314.5,-1080 314.5,-1080 455.5,-1080 455.5,-1080 461.5,-1080 467.5,-1086 467.5,-1092 467.5,-1092 467.5,-1104 467.5,-1104 467.5,-1110 461.5,-1116 455.5,-1116"/>
<text text-anchor="middle" x="385" y="-1095.5" font-family="sans" font-size="10.00">remove_headers_transcriptome</text>
</g>
<!-- 21&#45;&gt;20 -->
<g id="edge26" class="edge">
<title>21&#45;&gt;20</title>
<path fill="none" stroke="grey" stroke-width="2" d="M403.42,-1079.34C411.49,-1071.6 421.13,-1062.36 430.04,-1053.81"/>
<polygon fill="grey" stroke="grey" stroke-width="2" points="432.35,-1056.44 437.15,-1047 427.51,-1051.39 432.35,-1056.44"/>
</g>
<!-- 22 -->
<g id="node23" class="node">
<title>22</title>
<path fill="none" stroke="#59d856" stroke-width="2" d="M435.5,-1188C435.5,-1188 334.5,-1188 334.5,-1188 328.5,-1188 322.5,-1182 322.5,-1176 322.5,-1176 322.5,-1164 322.5,-1164 322.5,-1158 328.5,-1152 334.5,-1152 334.5,-1152 435.5,-1152 435.5,-1152 441.5,-1152 447.5,-1158 447.5,-1164 447.5,-1164 447.5,-1176 447.5,-1176 447.5,-1182 441.5,-1188 435.5,-1188"/>
<text text-anchor="middle" x="385" y="-1167.5" font-family="sans" font-size="10.00">filter_nh_transcriptome</text>
</g>
<!-- 22&#45;&gt;21 -->
<g id="edge28" class="edge">
<title>22&#45;&gt;21</title>
<path fill="none" stroke="grey" stroke-width="2" d="M385,-1151.34C385,-1144.75 385,-1137.08 385,-1129.67"/>
<polygon fill="grey" stroke="grey" stroke-width="2" points="388.5,-1129.93 385,-1119.93 381.5,-1129.93 388.5,-1129.93"/>
</g>
<!-- 23 -->
<g id="node24" class="node">
<title>23</title>
<path fill="none" stroke="#566bd8" stroke-width="2" d="M446,-1260C446,-1260 324,-1260 324,-1260 318,-1260 312,-1254 312,-1248 312,-1248 312,-1236 312,-1236 312,-1230 318,-1224 324,-1224 324,-1224 446,-1224 446,-1224 452,-1224 458,-1230 458,-1236 458,-1236 458,-1248 458,-1248 458,-1254 452,-1260 446,-1260"/>
<text text-anchor="middle" x="385" y="-1239.5" font-family="sans" font-size="10.00">merge_transcriptome_maps</text>
</g>
<!-- 23&#45;&gt;22 -->
<g id="edge29" class="edge">
<title>23&#45;&gt;22</title>
<path fill="none" stroke="grey" stroke-width="2" d="M385,-1223.34C385,-1216.75 385,-1209.08 385,-1201.67"/>
<polygon fill="grey" stroke="grey" stroke-width="2" points="388.5,-1201.93 385,-1191.93 381.5,-1201.93 388.5,-1201.93"/>
</g>
<!-- 24&#45;&gt;23 -->
<g id="edge31" class="edge">
<title>24&#45;&gt;23</title>
<path fill="none" stroke="grey" stroke-width="2" d="M512.51,-1367.02C487.28,-1342.48 441.86,-1298.3 412.59,-1269.84"/>
<polygon fill="grey" stroke="grey" stroke-width="2" points="415.12,-1267.41 405.51,-1262.95 410.24,-1272.43 415.12,-1267.41"/>
</g>
<!-- 25 -->
<g id="node26" class="node">
<title>25</title>
<path fill="none" stroke="#56d8a9" stroke-width="2" d="M393.5,-1620C393.5,-1620 332.5,-1620 332.5,-1620 326.5,-1620 320.5,-1614 320.5,-1608 320.5,-1608 320.5,-1596 320.5,-1596 320.5,-1590 326.5,-1584 332.5,-1584 332.5,-1584 393.5,-1584 393.5,-1584 399.5,-1584 405.5,-1590 405.5,-1596 405.5,-1596 405.5,-1608 405.5,-1608 405.5,-1614 399.5,-1620 393.5,-1620"/>
<text text-anchor="middle" x="363" y="-1599.5" font-family="sans" font-size="10.00">fastx_collapser</text>
</g>
<!-- 25&#45;&gt;24 -->
<g id="edge34" class="edge">
<title>25&#45;&gt;24</title>
<path fill="none" stroke="grey" stroke-width="2" d="M368.49,-1583.15C379,-1551.28 404.6,-1483.82 445,-1440 455.21,-1428.93 468.24,-1419.32 481.05,-1411.45"/>
<polygon fill="grey" stroke="grey" stroke-width="2" points="482.68,-1414.55 489.57,-1406.49 479.16,-1408.5 482.68,-1414.55"/>
</g>
<!-- 31 -->
<g id="node32" class="node">
<title>31</title>
<path fill="none" stroke="#d89c56" stroke-width="2" d="M348,-1548C348,-1548 240,-1548 240,-1548 234,-1548 228,-1542 228,-1536 228,-1536 228,-1524 228,-1524 228,-1518 234,-1512 240,-1512 240,-1512 348,-1512 348,-1512 354,-1512 360,-1518 360,-1524 360,-1524 360,-1536 360,-1536 360,-1542 354,-1548 348,-1548"/>
<text text-anchor="middle" x="294" y="-1527.5" font-family="sans" font-size="10.00">filter_fasta_for_oligomap</text>
</g>
<!-- 25&#45;&gt;31 -->
<g id="edge42" class="edge">
<title>25&#45;&gt;31</title>
<path fill="none" stroke="grey" stroke-width="2" d="M345.59,-1583.34C338.05,-1575.69 329.05,-1566.56 320.69,-1558.08"/>
<polygon fill="grey" stroke="grey" stroke-width="2" points="323.28,-1555.72 313.77,-1551.06 318.3,-1560.64 323.28,-1555.72"/>
</g>
<!-- 25&#45;&gt;36 -->
<g id="edge50" class="edge">
<title>25&#45;&gt;36</title>
<path fill="none" stroke="grey" stroke-width="2" d="M406.44,-1590.22C447.25,-1580.09 509.44,-1564.65 560.09,-1552.08"/>
<polygon fill="grey" stroke="grey" stroke-width="2" points="560.9,-1555.48 569.76,-1549.68 559.21,-1548.69 560.9,-1555.48"/>
</g>
<!-- 26 -->
<g id="node27" class="node">
<title>26</title>
<path fill="none" stroke="#56d87b" stroke-width="2" d="M379.5,-1692C379.5,-1692 346.5,-1692 346.5,-1692 340.5,-1692 334.5,-1686 334.5,-1680 334.5,-1680 334.5,-1668 334.5,-1668 334.5,-1662 340.5,-1656 346.5,-1656 346.5,-1656 379.5,-1656 379.5,-1656 385.5,-1656 391.5,-1662 391.5,-1668 391.5,-1668 391.5,-1680 391.5,-1680 391.5,-1686 385.5,-1692 379.5,-1692"/>
<text text-anchor="middle" x="363" y="-1671.5" font-family="sans" font-size="10.00">cutadapt</text>
</g>
<!-- 26&#45;&gt;25 -->
<g id="edge35" class="edge">
<title>26&#45;&gt;25</title>
<path fill="none" stroke="grey" stroke-width="2" d="M363,-1655.34C363,-1648.75 363,-1641.08 363,-1633.67"/>
<polygon fill="grey" stroke="grey" stroke-width="2" points="366.5,-1633.93 363,-1623.93 359.5,-1633.93 366.5,-1633.93"/>
</g>
<!-- 27 -->
<g id="node28" class="node">
<title>27</title>
<path fill="none" stroke="#d87556" stroke-width="2" d="M396,-1764C396,-1764 330,-1764 330,-1764 324,-1764 318,-1758 318,-1752 318,-1752 318,-1740 318,-1740 318,-1734 324,-1728 330,-1728 330,-1728 396,-1728 396,-1728 402,-1728 408,-1734 408,-1740 408,-1740 408,-1752 408,-1752 408,-1758 402,-1764 396,-1764"/>
<text text-anchor="middle" x="363" y="-1743.5" font-family="sans" font-size="10.00">fasta_formatter</text>
</g>
<!-- 27&#45;&gt;26 -->
<g id="edge36" class="edge">
<title>27&#45;&gt;26</title>
<path fill="none" stroke="grey" stroke-width="2" d="M363,-1727.34C363,-1720.75 363,-1713.08 363,-1705.67"/>
<polygon fill="grey" stroke="grey" stroke-width="2" points="366.5,-1705.93 363,-1695.93 359.5,-1705.93 366.5,-1705.93"/>
</g>
<!-- 28 -->
<g id="node29" class="node">
<title>28</title>
<path fill="none" stroke="#56d88a" stroke-width="2" d="M378,-1836C378,-1836 348,-1836 348,-1836 342,-1836 336,-1830 336,-1824 336,-1824 336,-1812 336,-1812 336,-1806 342,-1800 348,-1800 348,-1800 378,-1800 378,-1800 384,-1800 390,-1806 390,-1812 390,-1812 390,-1824 390,-1824 390,-1830 384,-1836 378,-1836"/>
<text text-anchor="middle" x="363" y="-1815.5" font-family="sans" font-size="10.00">start</text>
</g>
<!-- 28&#45;&gt;27 -->
<g id="edge37" class="edge">
<title>28&#45;&gt;27</title>
<path fill="none" stroke="grey" stroke-width="2" d="M363,-1799.34C363,-1792.75 363,-1785.08 363,-1777.67"/>
<polygon fill="grey" stroke="grey" stroke-width="2" points="366.5,-1777.93 363,-1767.93 359.5,-1777.93 366.5,-1777.93"/>
</g>
<!-- 29 -->
<g id="node30" class="node">
<title>29</title>
<path fill="none" stroke="#56d8b9" stroke-width="2" d="M236,-1332C236,-1332 96,-1332 96,-1332 90,-1332 84,-1326 84,-1320 84,-1320 84,-1308 84,-1308 84,-1302 90,-1296 96,-1296 96,-1296 236,-1296 236,-1296 242,-1296 248,-1302 248,-1308 248,-1308 248,-1320 248,-1320 248,-1326 242,-1332 236,-1332"/>
<text text-anchor="middle" x="166" y="-1311.5" font-family="sans" font-size="10.00">oligomap_transcriptome_toSAM</text>
</g>
<!-- 29&#45;&gt;23 -->
<g id="edge30" class="edge">
<title>29&#45;&gt;23</title>
<path fill="none" stroke="grey" stroke-width="2" d="M222.11,-1295.06C250.96,-1285.84 286.36,-1274.53 316.77,-1264.81"/>
<polygon fill="grey" stroke="grey" stroke-width="2" points="317.69,-1268.19 326.15,-1261.81 315.56,-1261.52 317.69,-1268.19"/>
</g>
<!-- 30&#45;&gt;29 -->
<g id="edge39" class="edge">
<title>30&#45;&gt;29</title>
<path fill="none" stroke="grey" stroke-width="2" d="M99.36,-1439.29C85.07,-1420.85 68,-1391.43 81,-1368 87.46,-1356.36 97.65,-1346.94 108.77,-1339.46"/>
<polygon fill="grey" stroke="grey" stroke-width="2" points="110.31,-1342.62 117.04,-1334.44 106.67,-1336.64 110.31,-1342.62"/>
</g>
<!-- 32 -->
<g id="node33" class="node">
<title>32</title>
<path fill="none" stroke="#afd856" stroke-width="2" d="M230,-1404C230,-1404 102,-1404 102,-1404 96,-1404 90,-1398 90,-1392 90,-1392 90,-1380 90,-1380 90,-1374 96,-1368 102,-1368 102,-1368 230,-1368 230,-1368 236,-1368 242,-1374 242,-1380 242,-1380 242,-1392 242,-1392 242,-1398 236,-1404 230,-1404"/>
<text text-anchor="middle" x="166" y="-1383.5" font-family="sans" font-size="10.00">sort_transcriptome_oligomap</text>
</g>
<!-- 30&#45;&gt;32 -->
<g id="edge43" class="edge">
<title>30&#45;&gt;32</title>
<path fill="none" stroke="grey" stroke-width="2" d="M127.87,-1439.34C133.2,-1432.01 139.53,-1423.34 145.47,-1415.18"/>
<polygon fill="grey" stroke="grey" stroke-width="2" points="148.11,-1417.49 151.17,-1407.35 142.46,-1413.37 148.11,-1417.49"/>
</g>
<!-- 31&#45;&gt;30 -->
<g id="edge41" class="edge">
<title>31&#45;&gt;30</title>
<path fill="none" stroke="grey" stroke-width="2" d="M248.37,-1511.15C225.42,-1502.18 197.35,-1491.21 172.9,-1481.64"/>
<polygon fill="grey" stroke="grey" stroke-width="2" points="174.27,-1478.42 163.68,-1478.04 171.72,-1484.94 174.27,-1478.42"/>
</g>
<!-- 31&#45;&gt;38 -->
<g id="edge54" class="edge">
<title>31&#45;&gt;38</title>
<path fill="none" stroke="grey" stroke-width="2" d="M294,-1511.34C294,-1504.75 294,-1497.08 294,-1489.67"/>
<polygon fill="grey" stroke="grey" stroke-width="2" points="297.5,-1489.93 294,-1479.93 290.5,-1489.93 297.5,-1489.93"/>
</g>
<!-- 32&#45;&gt;29 -->
<g id="edge38" class="edge">
<title>32&#45;&gt;29</title>
<path fill="none" stroke="grey" stroke-width="2" d="M166,-1367.34C166,-1360.75 166,-1353.08 166,-1345.67"/>
<polygon fill="grey" stroke="grey" stroke-width="2" points="169.5,-1345.93 166,-1335.93 162.5,-1345.93 169.5,-1345.93"/>
</g>
<!-- 33 -->
<g id="node34" class="node">
<title>33</title>
<path fill="none" stroke="#68d856" stroke-width="2" d="M641.5,-1044C641.5,-1044 526.5,-1044 526.5,-1044 520.5,-1044 514.5,-1038 514.5,-1032 514.5,-1032 514.5,-1020 514.5,-1020 514.5,-1014 520.5,-1008 526.5,-1008 526.5,-1008 641.5,-1008 641.5,-1008 647.5,-1008 653.5,-1014 653.5,-1020 653.5,-1020 653.5,-1032 653.5,-1032 653.5,-1038 647.5,-1044 641.5,-1044"/>
<text text-anchor="middle" x="584" y="-1023.5" font-family="sans" font-size="10.00">remove_headers_genome</text>
</g>
<!-- 33&#45;&gt;19 -->
<g id="edge24" class="edge">
<title>33&#45;&gt;19</title>
<path fill="none" stroke="grey" stroke-width="2" d="M553.66,-1007.15C539.26,-998.68 521.82,-988.42 506.23,-979.25"/>
<polygon fill="grey" stroke="grey" stroke-width="2" points="508.28,-976.4 497.89,-974.35 504.74,-982.43 508.28,-976.4"/>
</g>
<!-- 34 -->
<g id="node35" class="node">
<title>34</title>
<path fill="none" stroke="#d8ac56" stroke-width="2" d="M657.5,-1188C657.5,-1188 582.5,-1188 582.5,-1188 576.5,-1188 570.5,-1182 570.5,-1176 570.5,-1176 570.5,-1164 570.5,-1164 570.5,-1158 576.5,-1152 582.5,-1152 582.5,-1152 657.5,-1152 657.5,-1152 663.5,-1152 669.5,-1158 669.5,-1164 669.5,-1164 669.5,-1176 669.5,-1176 669.5,-1182 663.5,-1188 657.5,-1188"/>
<text text-anchor="middle" x="620" y="-1167.5" font-family="sans" font-size="10.00">nh_filter_genome</text>
</g>
<!-- 34&#45;&gt;33 -->
<g id="edge44" class="edge">
<title>34&#45;&gt;33</title>
<path fill="none" stroke="grey" stroke-width="2" d="M615.44,-1151.02C609.46,-1127.44 598.89,-1085.73 591.67,-1057.25"/>
<polygon fill="grey" stroke="grey" stroke-width="2" points="595.12,-1056.61 589.27,-1047.77 588.33,-1058.33 595.12,-1056.61"/>
</g>
<!-- 35 -->
<g id="node36" class="node">
<title>35</title>
<path fill="none" stroke="#d8cb56" stroke-width="2" d="M668,-1260C668,-1260 572,-1260 572,-1260 566,-1260 560,-1254 560,-1248 560,-1248 560,-1236 560,-1236 560,-1230 566,-1224 572,-1224 572,-1224 668,-1224 668,-1224 674,-1224 680,-1230 680,-1236 680,-1236 680,-1248 680,-1248 680,-1254 674,-1260 668,-1260"/>
<text text-anchor="middle" x="620" y="-1239.5" font-family="sans" font-size="10.00">merge_genome_maps</text>
</g>
<!-- 35&#45;&gt;34 -->
<g id="edge45" class="edge">
<title>35&#45;&gt;34</title>
<path fill="none" stroke="grey" stroke-width="2" d="M620,-1223.34C620,-1216.75 620,-1209.08 620,-1201.67"/>
<polygon fill="grey" stroke="grey" stroke-width="2" points="623.5,-1201.93 620,-1191.93 616.5,-1201.93 623.5,-1201.93"/>
</g>
<!-- 36&#45;&gt;35 -->
<g id="edge46" class="edge">
<title>36&#45;&gt;35</title>
<path fill="none" stroke="grey" stroke-width="2" d="M660.99,-1511.3C668.65,-1501.62 677.01,-1488.97 681,-1476 685.7,-1460.71 683.39,-1455.82 681,-1440 671.74,-1378.77 647.15,-1310.36 632.17,-1272.42"/>
<polygon fill="grey" stroke="grey" stroke-width="2" points="635.6,-1271.56 628.62,-1263.58 629.1,-1274.16 635.6,-1271.56"/>
</g>
<!-- 37 -->
<g id="node38" class="node">
<title>37</title>
<path fill="none" stroke="#d6d856" stroke-width="2" d="M418,-1332C418,-1332 304,-1332 304,-1332 298,-1332 292,-1326 292,-1320 292,-1320 292,-1308 292,-1308 292,-1302 298,-1296 304,-1296 304,-1296 418,-1296 418,-1296 424,-1296 430,-1302 430,-1308 430,-1308 430,-1320 430,-1320 430,-1326 424,-1332 418,-1332"/>
<text text-anchor="middle" x="361" y="-1311.5" font-family="sans" font-size="10.00">oligomap_genome_toSAM</text>
</g>
<!-- 37&#45;&gt;35 -->
<g id="edge47" class="edge">
<title>37&#45;&gt;35</title>
<path fill="none" stroke="grey" stroke-width="2" d="M427.36,-1295.06C463.85,-1285.2 509.2,-1272.95 546.73,-1262.8"/>
<polygon fill="grey" stroke="grey" stroke-width="2" points="547.47,-1266.23 556.21,-1260.24 545.65,-1259.47 547.47,-1266.23"/>
</g>
<!-- 38&#45;&gt;37 -->
<g id="edge51" class="edge">
<title>38&#45;&gt;37</title>
<path fill="none" stroke="grey" stroke-width="2" d="M287.99,-1439.21C282.76,-1420.44 277.62,-1390.51 289,-1368 294.56,-1357 303.6,-1347.72 313.43,-1340.16"/>
<polygon fill="grey" stroke="grey" stroke-width="2" points="315.15,-1343.22 321.35,-1334.63 311.15,-1337.48 315.15,-1343.22"/>
</g>
<!-- 39 -->
<g id="node40" class="node">
<title>39</title>
<path fill="none" stroke="#56c9d8" stroke-width="2" d="M412,-1404C412,-1404 310,-1404 310,-1404 304,-1404 298,-1398 298,-1392 298,-1392 298,-1380 298,-1380 298,-1374 304,-1368 310,-1368 310,-1368 412,-1368 412,-1368 418,-1368 424,-1374 424,-1380 424,-1380 424,-1392 424,-1392 424,-1398 418,-1404 412,-1404"/>
<text text-anchor="middle" x="361" y="-1383.5" font-family="sans" font-size="10.00">sort_genome_oligomap</text>
</g>
<!-- 38&#45;&gt;39 -->
<g id="edge55" class="edge">
<title>38&#45;&gt;39</title>
<path fill="none" stroke="grey" stroke-width="2" d="M310.91,-1439.34C318.23,-1431.69 326.97,-1422.56 335.08,-1414.08"/>
<polygon fill="grey" stroke="grey" stroke-width="2" points="337.39,-1416.73 341.77,-1407.09 332.33,-1411.89 337.39,-1416.73"/>
</g>
<!-- 39&#45;&gt;37 -->
<g id="edge52" class="edge">
<title>39&#45;&gt;37</title>
<path fill="none" stroke="grey" stroke-width="2" d="M361,-1367.34C361,-1360.75 361,-1353.08 361,-1345.67"/>
<polygon fill="grey" stroke="grey" stroke-width="2" points="364.5,-1345.93 361,-1335.93 357.5,-1345.93 364.5,-1345.93"/>
</g>
<!-- 40 -->
<g id="node41" class="node">
<title>40</title>
<path fill="none" stroke="#568ad8" stroke-width="2" d="M598,-108C598,-108 542,-108 542,-108 536,-108 530,-102 530,-96 530,-96 530,-84 530,-84 530,-78 536,-72 542,-72 542,-72 598,-72 598,-72 604,-72 610,-78 610,-84 610,-84 610,-96 610,-96 610,-102 604,-108 598,-108"/>
<text text-anchor="middle" x="570" y="-87.5" font-family="sans" font-size="10.00">merge_tables</text>
</g>
<!-- 40&#45;&gt;0 -->
<g id="edge5" class="edge">
<title>40&#45;&gt;0</title>
<path fill="none" stroke="grey" stroke-width="2" d="M588.67,-71.34C596.85,-63.6 606.62,-54.36 615.66,-45.81"/>
<polygon fill="grey" stroke="grey" stroke-width="2" points="618.02,-48.4 622.88,-38.98 613.21,-43.31 618.02,-48.4"/>
</g>
<!-- 41 -->
<g id="node42" class="node">
<title>41</title>
<path fill="none" stroke="#56d8d0" stroke-width="2" d="M493.5,-180C493.5,-180 442.5,-180 442.5,-180 436.5,-180 430.5,-174 430.5,-168 430.5,-168 430.5,-156 430.5,-156 430.5,-150 436.5,-144 442.5,-144 442.5,-144 493.5,-144 493.5,-144 499.5,-144 505.5,-150 505.5,-156 505.5,-156 505.5,-168 505.5,-168 505.5,-174 499.5,-180 493.5,-180"/>
<text text-anchor="middle" x="468" y="-159.5" font-family="sans" font-size="10.00">quant_mirna</text>
</g>
<!-- 41&#45;&gt;40 -->
<g id="edge56" class="edge">
<title>41&#45;&gt;40</title>
<path fill="none" stroke="grey" stroke-width="2" d="M494,-143.15C505.99,-134.93 520.43,-125.02 533.49,-116.06"/>
<polygon fill="grey" stroke="grey" stroke-width="2" points="535.28,-119.07 541.55,-110.53 531.32,-113.3 535.28,-119.07"/>
</g>
<!-- 42&#45;&gt;41 -->
<g id="edge58" class="edge">
<title>42&#45;&gt;41</title>
<path fill="none" stroke="grey" stroke-width="2" d="M517.35,-215.34C510.21,-207.77 501.71,-198.75 493.79,-190.35"/>
<polygon fill="grey" stroke="grey" stroke-width="2" points="496.36,-187.98 486.96,-183.1 491.27,-192.78 496.36,-187.98"/>
</g>
<!-- 45 -->
<g id="node46" class="node">
<title>45</title>
<path fill="none" stroke="#d85656" stroke-width="2" d="M604,-180C604,-180 536,-180 536,-180 530,-180 524,-174 524,-168 524,-168 524,-156 524,-156 524,-150 530,-144 536,-144 536,-144 604,-144 604,-144 610,-144 616,-150 616,-156 616,-156 616,-168 616,-168 616,-174 610,-180 604,-180"/>
<text text-anchor="middle" x="570" y="-159.5" font-family="sans" font-size="10.00">quant_mirna_pri</text>
</g>
<!-- 42&#45;&gt;45 -->
<g id="edge63" class="edge">
<title>42&#45;&gt;45</title>
<path fill="none" stroke="grey" stroke-width="2" d="M543.08,-215.34C546.68,-208.34 550.91,-200.12 554.94,-192.28"/>
<polygon fill="grey" stroke="grey" stroke-width="2" points="557.95,-194.09 559.41,-183.59 551.72,-190.89 557.95,-194.09"/>
</g>
<!-- 43 -->
<g id="node44" class="node">
<title>43</title>
<path fill="none" stroke="#567bd8" stroke-width="2" d="M539.5,-324C539.5,-324 472.5,-324 472.5,-324 466.5,-324 460.5,-318 460.5,-312 460.5,-312 460.5,-300 460.5,-300 460.5,-294 466.5,-288 472.5,-288 472.5,-288 539.5,-288 539.5,-288 545.5,-288 551.5,-294 551.5,-300 551.5,-300 551.5,-312 551.5,-312 551.5,-318 545.5,-324 539.5,-324"/>
<text text-anchor="middle" x="506" y="-303.5" font-family="sans" font-size="10.00">sort_alignments</text>
</g>
<!-- 43&#45;&gt;42 -->
<g id="edge60" class="edge">
<title>43&#45;&gt;42</title>
<path fill="none" stroke="grey" stroke-width="2" d="M513.07,-287.34C515.8,-280.51 519,-272.5 522.07,-264.83"/>
<polygon fill="grey" stroke="grey" stroke-width="2" points="525.25,-266.3 525.72,-255.71 518.75,-263.7 525.25,-266.3"/>
</g>
<!-- 44&#45;&gt;43 -->
<g id="edge61" class="edge">
<title>44&#45;&gt;43</title>
<path fill="none" stroke="grey" stroke-width="2" d="M500.77,-359.34C501.42,-352.75 502.19,-345.08 502.93,-337.67"/>
<polygon fill="grey" stroke="grey" stroke-width="2" points="506.4,-338.21 503.91,-327.91 499.43,-337.52 506.4,-338.21"/>
</g>
<!-- 45&#45;&gt;40 -->
<g id="edge57" class="edge">
<title>45&#45;&gt;40</title>
<path fill="none" stroke="grey" stroke-width="2" d="M570,-143.34C570,-136.75 570,-129.08 570,-121.67"/>
<polygon fill="grey" stroke="grey" stroke-width="2" points="573.5,-121.93 570,-111.93 566.5,-121.93 573.5,-121.93"/>
</g>
</g>
</svg>
