<?xml version="1.0" encoding="UTF-8" standalone="no"?>
<!DOCTYPE svg PUBLIC "-//W3C//DTD SVG 1.1//EN"
 "http://www.w3.org/Graphics/SVG/1.1/DTD/svg11.dtd">
<!-- Generated by graphviz version 7.1.0 (20230122.1345)
 -->
<!-- Title: snakemake_dag Pages: 1 -->
<svg width="996pt" height="1844pt"
 viewBox="0.00 0.00 996.00 1844.00" xmlns="http://www.w3.org/2000/svg" xmlns:xlink="http://www.w3.org/1999/xlink">
<g id="graph0" class="graph" transform="scale(1 1) rotate(0) translate(4 1840)">
<title>snakemake_dag</title>
<polygon fill="white" stroke="none" points="-4,4 -4,-1840 992,-1840 992,4 -4,4"/>
<!-- 0 -->
<g id="node1" class="node">
<title>0</title>
<path fill="none" stroke="#56d0d8" stroke-width="2" d="M505,-36C505,-36 475,-36 475,-36 469,-36 463,-30 463,-24 463,-24 463,-12 463,-12 463,-6 469,0 475,0 475,0 505,0 505,0 511,0 517,-6 517,-12 517,-12 517,-24 517,-24 517,-30 511,-36 505,-36"/>
<text text-anchor="middle" x="490" y="-15.5" font-family="sans" font-size="10.00">finish</text>
</g>
<!-- 1 -->
<g id="node2" class="node">
<title>1</title>
<path fill="none" stroke="#d8cb56" stroke-width="2" d="M289.5,-1476C289.5,-1476 104.5,-1476 104.5,-1476 98.5,-1476 92.5,-1470 92.5,-1464 92.5,-1464 92.5,-1452 92.5,-1452 92.5,-1446 98.5,-1440 104.5,-1440 104.5,-1440 289.5,-1440 289.5,-1440 295.5,-1440 301.5,-1446 301.5,-1452 301.5,-1452 301.5,-1464 301.5,-1464 301.5,-1470 295.5,-1476 289.5,-1476"/>
<text text-anchor="middle" x="197" y="-1455.5" font-family="sans" font-size="10.00">generate_segemehl_index_transcriptome</text>
</g>
<!-- 1&#45;&gt;0 -->
<g id="edge6" class="edge">
<title>1&#45;&gt;0</title>
<path fill="none" stroke="grey" stroke-width="2" d="M188.3,-1439.1C176.27,-1412.63 156,-1361.19 156,-1315 156,-1315 156,-1315 156,-161 156,-34.84 360.31,-19.16 449.34,-18.32"/>
<polygon fill="grey" stroke="grey" stroke-width="2" points="449.08,-21.82 459.07,-18.3 449.06,-14.82 449.08,-21.82"/>
</g>
<!-- 25 -->
<g id="node26" class="node">
<title>25</title>
<path fill="none" stroke="#61d856" stroke-width="2" d="M349.5,-1404C349.5,-1404 196.5,-1404 196.5,-1404 190.5,-1404 184.5,-1398 184.5,-1392 184.5,-1392 184.5,-1380 184.5,-1380 184.5,-1374 190.5,-1368 196.5,-1368 196.5,-1368 349.5,-1368 349.5,-1368 355.5,-1368 361.5,-1374 361.5,-1380 361.5,-1380 361.5,-1392 361.5,-1392 361.5,-1398 355.5,-1404 349.5,-1404"/>
<text text-anchor="middle" x="273" y="-1383.5" font-family="sans" font-size="10.00">mapping_transcriptome_segemehl</text>
</g>
<!-- 1&#45;&gt;25 -->
<g id="edge38" class="edge">
<title>1&#45;&gt;25</title>
<path fill="none" stroke="grey" stroke-width="2" d="M216.18,-1439.34C224.66,-1431.52 234.82,-1422.16 244.19,-1413.53"/>
<polygon fill="grey" stroke="grey" stroke-width="2" points="246.35,-1416.3 251.34,-1406.95 241.61,-1411.15 246.35,-1416.3"/>
</g>
<!-- 2 -->
<g id="node3" class="node">
<title>2</title>
<path fill="none" stroke="#5682d8" stroke-width="2" d="M327.5,-1548C327.5,-1548 288.5,-1548 288.5,-1548 282.5,-1548 276.5,-1542 276.5,-1536 276.5,-1536 276.5,-1524 276.5,-1524 276.5,-1518 282.5,-1512 288.5,-1512 288.5,-1512 327.5,-1512 327.5,-1512 333.5,-1512 339.5,-1518 339.5,-1524 339.5,-1524 339.5,-1536 339.5,-1536 339.5,-1542 333.5,-1548 327.5,-1548"/>
<text text-anchor="middle" x="308" y="-1527.5" font-family="sans" font-size="10.00">trim_fasta</text>
</g>
<!-- 2&#45;&gt;1 -->
<g id="edge12" class="edge">
<title>2&#45;&gt;1</title>
<path fill="none" stroke="grey" stroke-width="2" d="M279.7,-1511.15C266.39,-1502.76 250.31,-1492.62 235.88,-1483.52"/>
<polygon fill="grey" stroke="grey" stroke-width="2" points="238.13,-1480.8 227.81,-1478.43 234.4,-1486.72 238.13,-1480.8"/>
</g>
<!-- 2&#45;&gt;25 -->
<g id="edge40" class="edge">
<title>2&#45;&gt;25</title>
<path fill="none" stroke="grey" stroke-width="2" d="M312.08,-1511.12C315.47,-1492.79 318.62,-1463.7 311,-1440 308.13,-1431.06 303.13,-1422.35 297.68,-1414.66"/>
<polygon fill="grey" stroke="grey" stroke-width="2" points="300.6,-1412.72 291.71,-1406.95 295.06,-1417 300.6,-1412.72"/>
</g>
<!-- 31 -->
<g id="node32" class="node">
<title>31</title>
<path fill="none" stroke="#a7d856" stroke-width="2" d="M558,-1476C558,-1476 408,-1476 408,-1476 402,-1476 396,-1470 396,-1464 396,-1464 396,-1452 396,-1452 396,-1446 402,-1440 408,-1440 408,-1440 558,-1440 558,-1440 564,-1440 570,-1446 570,-1452 570,-1452 570,-1464 570,-1464 570,-1470 564,-1476 558,-1476"/>
<text text-anchor="middle" x="483" y="-1455.5" font-family="sans" font-size="10.00">mapping_transcriptome_oligomap</text>
</g>
<!-- 2&#45;&gt;31 -->
<g id="edge47" class="edge">
<title>2&#45;&gt;31</title>
<path fill="none" stroke="grey" stroke-width="2" d="M340.1,-1516.16C364.19,-1506.53 397.79,-1493.08 426.36,-1481.66"/>
<polygon fill="grey" stroke="grey" stroke-width="2" points="427.46,-1484.99 435.45,-1478.02 424.86,-1478.49 427.46,-1484.99"/>
</g>
<!-- 3 -->
<g id="node4" class="node">
<title>3</title>
<path fill="none" stroke="#b6d856" stroke-width="2" d="M379.5,-1620C379.5,-1620 260.5,-1620 260.5,-1620 254.5,-1620 248.5,-1614 248.5,-1608 248.5,-1608 248.5,-1596 248.5,-1596 248.5,-1590 254.5,-1584 260.5,-1584 260.5,-1584 379.5,-1584 379.5,-1584 385.5,-1584 391.5,-1590 391.5,-1596 391.5,-1596 391.5,-1608 391.5,-1608 391.5,-1614 385.5,-1620 379.5,-1620"/>
<text text-anchor="middle" x="320" y="-1599.5" font-family="sans" font-size="10.00">extract_transcriptome_seqs</text>
</g>
<!-- 3&#45;&gt;2 -->
<g id="edge13" class="edge">
<title>3&#45;&gt;2</title>
<path fill="none" stroke="grey" stroke-width="2" d="M316.97,-1583.34C315.84,-1576.75 314.53,-1569.08 313.26,-1561.67"/>
<polygon fill="grey" stroke="grey" stroke-width="2" points="316.72,-1561.15 311.58,-1551.89 309.82,-1562.33 316.72,-1561.15"/>
</g>
<!-- 4 -->
<g id="node5" class="node">
<title>4</title>
<path fill="none" stroke="#5673d8" stroke-width="2" d="M721.5,-1692C721.5,-1692 632.5,-1692 632.5,-1692 626.5,-1692 620.5,-1686 620.5,-1680 620.5,-1680 620.5,-1668 620.5,-1668 620.5,-1662 626.5,-1656 632.5,-1656 632.5,-1656 721.5,-1656 721.5,-1656 727.5,-1656 733.5,-1662 733.5,-1668 733.5,-1668 733.5,-1680 733.5,-1680 733.5,-1686 727.5,-1692 721.5,-1692"/>
<text text-anchor="middle" x="677" y="-1671.5" font-family="sans" font-size="10.00">trim_genome_seq_id</text>
</g>
<!-- 4&#45;&gt;3 -->
<g id="edge14" class="edge">
<title>4&#45;&gt;3</title>
<path fill="none" stroke="grey" stroke-width="2" d="M619.64,-1661.75C561.59,-1650.37 471.18,-1632.64 404.84,-1619.64"/>
<polygon fill="grey" stroke="grey" stroke-width="2" points="405.79,-1616.25 395.3,-1617.76 404.44,-1623.12 405.79,-1616.25"/>
</g>
<!-- 5 -->
<g id="node6" class="node">
<title>5</title>
<path fill="none" stroke="#56d892" stroke-width="2" d="M816,-1620C816,-1620 658,-1620 658,-1620 652,-1620 646,-1614 646,-1608 646,-1608 646,-1596 646,-1596 646,-1590 652,-1584 658,-1584 658,-1584 816,-1584 816,-1584 822,-1584 828,-1590 828,-1596 828,-1596 828,-1608 828,-1608 828,-1614 822,-1620 816,-1620"/>
<text text-anchor="middle" x="737" y="-1599.5" font-family="sans" font-size="10.00">generate_segemehl_index_genome</text>
</g>
<!-- 4&#45;&gt;5 -->
<g id="edge15" class="edge">
<title>4&#45;&gt;5</title>
<path fill="none" stroke="grey" stroke-width="2" d="M692.14,-1655.34C698.56,-1647.85 706.19,-1638.95 713.32,-1630.63"/>
<polygon fill="grey" stroke="grey" stroke-width="2" points="715.84,-1633.07 719.69,-1623.2 710.52,-1628.51 715.84,-1633.07"/>
</g>
<!-- 8 -->
<g id="node9" class="node">
<title>8</title>
<path fill="none" stroke="#56d87b" stroke-width="2" d="M116,-972C116,-972 12,-972 12,-972 6,-972 0,-966 0,-960 0,-960 0,-948 0,-948 0,-942 6,-936 12,-936 12,-936 116,-936 116,-936 122,-936 128,-942 128,-948 128,-948 128,-960 128,-960 128,-966 122,-972 116,-972"/>
<text text-anchor="middle" x="64" y="-951.5" font-family="sans" font-size="10.00">create_header_genome</text>
</g>
<!-- 4&#45;&gt;8 -->
<g id="edge17" class="edge">
<title>4&#45;&gt;8</title>
<path fill="none" stroke="grey" stroke-width="2" d="M619.61,-1667.16C509.34,-1655.78 275.56,-1630.78 240,-1620 156.12,-1594.56 64,-1618.65 64,-1531 64,-1531 64,-1531 64,-1097 64,-1058.65 64,-1014.48 64,-985.72"/>
<polygon fill="grey" stroke="grey" stroke-width="2" points="67.5,-985.96 64,-975.96 60.5,-985.96 67.5,-985.96"/>
</g>
<!-- 10 -->
<g id="node11" class="node">
<title>10</title>
<path fill="none" stroke="#5663d8" stroke-width="2" d="M937,-900C937,-900 859,-900 859,-900 853,-900 847,-894 847,-888 847,-888 847,-876 847,-876 847,-870 853,-864 859,-864 859,-864 937,-864 937,-864 943,-864 949,-870 949,-876 949,-876 949,-888 949,-888 949,-894 943,-900 937,-900"/>
<text text-anchor="middle" x="898" y="-879.5" font-family="sans" font-size="10.00">create_index_fasta</text>
</g>
<!-- 4&#45;&gt;10 -->
<g id="edge19" class="edge">
<title>4&#45;&gt;10</title>
<path fill="none" stroke="grey" stroke-width="2" d="M734.25,-1668.28C772.41,-1662.42 821.52,-1649.3 855,-1620 887.63,-1591.44 895,-1574.37 895,-1531 895,-1531 895,-1531 895,-1025 895,-986.64 896.11,-942.48 896.98,-913.72"/>
<polygon fill="grey" stroke="grey" stroke-width="2" points="900.47,-914.06 897.28,-903.96 893.47,-913.84 900.47,-914.06"/>
</g>
<!-- 37 -->
<g id="node38" class="node">
<title>37</title>
<path fill="none" stroke="#56c9d8" stroke-width="2" d="M696.5,-1548C696.5,-1548 569.5,-1548 569.5,-1548 563.5,-1548 557.5,-1542 557.5,-1536 557.5,-1536 557.5,-1524 557.5,-1524 557.5,-1518 563.5,-1512 569.5,-1512 569.5,-1512 696.5,-1512 696.5,-1512 702.5,-1512 708.5,-1518 708.5,-1524 708.5,-1524 708.5,-1536 708.5,-1536 708.5,-1542 702.5,-1548 696.5,-1548"/>
<text text-anchor="middle" x="633" y="-1527.5" font-family="sans" font-size="10.00">mapping_genome_segemehl</text>
</g>
<!-- 4&#45;&gt;37 -->
<g id="edge56" class="edge">
<title>4&#45;&gt;37</title>
<path fill="none" stroke="grey" stroke-width="2" d="M659.1,-1655.04C650.77,-1645.47 641.69,-1633.01 637,-1620 630.34,-1601.51 629.31,-1579.46 629.95,-1561.93"/>
<polygon fill="grey" stroke="grey" stroke-width="2" points="633.44,-1562.21 630.57,-1552.01 626.46,-1561.78 633.44,-1562.21"/>
</g>
<!-- 39 -->
<g id="node40" class="node">
<title>39</title>
<path fill="none" stroke="#d88d56" stroke-width="2" d="M770,-1476C770,-1476 646,-1476 646,-1476 640,-1476 634,-1470 634,-1464 634,-1464 634,-1452 634,-1452 634,-1446 640,-1440 646,-1440 646,-1440 770,-1440 770,-1440 776,-1440 782,-1446 782,-1452 782,-1452 782,-1464 782,-1464 782,-1470 776,-1476 770,-1476"/>
<text text-anchor="middle" x="708" y="-1455.5" font-family="sans" font-size="10.00">mapping_genome_oligomap</text>
</g>
<!-- 4&#45;&gt;39 -->
<g id="edge60" class="edge">
<title>4&#45;&gt;39</title>
<path fill="none" stroke="grey" stroke-width="2" d="M734.15,-1670.25C770,-1665.2 813.7,-1652.26 837,-1620 873.07,-1570.06 802.44,-1514.55 752.21,-1483.5"/>
<polygon fill="grey" stroke="grey" stroke-width="2" points="754.18,-1480.6 743.81,-1478.45 750.57,-1486.6 754.18,-1480.6"/>
</g>
<!-- 5&#45;&gt;0 -->
<g id="edge10" class="edge">
<title>5&#45;&gt;0</title>
<path fill="none" stroke="grey" stroke-width="2" d="M747.51,-1583.14C760.72,-1559.55 782.67,-1516.28 791,-1476 794.24,-1460.33 791.29,-1456 791,-1440 783.67,-1032.25 758,-930.82 758,-523 758,-523 758,-523 758,-161 758,-59.29 605.43,-30.23 530.53,-22.08"/>
<polygon fill="grey" stroke="grey" stroke-width="2" points="531.23,-18.64 520.93,-21.13 530.54,-25.6 531.23,-18.64"/>
</g>
<!-- 5&#45;&gt;37 -->
<g id="edge54" class="edge">
<title>5&#45;&gt;37</title>
<path fill="none" stroke="grey" stroke-width="2" d="M710.49,-1583.15C698.26,-1574.93 683.54,-1565.02 670.23,-1556.06"/>
<polygon fill="grey" stroke="grey" stroke-width="2" points="672.23,-1553.18 661.98,-1550.5 668.32,-1558.99 672.23,-1553.18"/>
</g>
<!-- 6 -->
<g id="node7" class="node">
<title>6</title>
<path fill="none" stroke="#d87556" stroke-width="2" d="M347,-1116C347,-1116 313,-1116 313,-1116 307,-1116 301,-1110 301,-1104 301,-1104 301,-1092 301,-1092 301,-1086 307,-1080 313,-1080 313,-1080 347,-1080 347,-1080 353,-1080 359,-1086 359,-1092 359,-1092 359,-1104 359,-1104 359,-1110 353,-1116 347,-1116"/>
<text text-anchor="middle" x="330" y="-1095.5" font-family="sans" font-size="10.00">gtftobed</text>
</g>
<!-- 6&#45;&gt;0 -->
<g id="edge4" class="edge">
<title>6&#45;&gt;0</title>
<path fill="none" stroke="grey" stroke-width="2" d="M330,-1079.07C330,-1052.13 330,-999.62 330,-955 330,-955 330,-955 330,-161 330,-96.77 403.02,-54.51 450.4,-33.86"/>
<polygon fill="grey" stroke="grey" stroke-width="2" points="451.46,-37.21 459.34,-30.12 448.76,-30.75 451.46,-37.21"/>
</g>
<!-- 21 -->
<g id="node22" class="node">
<title>21</title>
<path fill="none" stroke="#c6d856" stroke-width="2" d="M486.5,-1044C486.5,-1044 433.5,-1044 433.5,-1044 427.5,-1044 421.5,-1038 421.5,-1032 421.5,-1032 421.5,-1020 421.5,-1020 421.5,-1014 427.5,-1008 433.5,-1008 433.5,-1008 486.5,-1008 486.5,-1008 492.5,-1008 498.5,-1014 498.5,-1020 498.5,-1020 498.5,-1032 498.5,-1032 498.5,-1038 492.5,-1044 486.5,-1044"/>
<text text-anchor="middle" x="460" y="-1023.5" font-family="sans" font-size="10.00">trans_to_gen</text>
</g>
<!-- 6&#45;&gt;21 -->
<g id="edge33" class="edge">
<title>6&#45;&gt;21</title>
<path fill="none" stroke="grey" stroke-width="2" d="M359.82,-1080.94C376.26,-1072.09 396.99,-1060.93 415.32,-1051.06"/>
<polygon fill="grey" stroke="grey" stroke-width="2" points="416.84,-1054.21 423.99,-1046.39 413.53,-1048.05 416.84,-1054.21"/>
</g>
<!-- 7 -->
<g id="node8" class="node">
<title>7</title>
<path fill="none" stroke="#56d88a" stroke-width="2" d="M359,-1188C359,-1188 301,-1188 301,-1188 295,-1188 289,-1182 289,-1176 289,-1176 289,-1164 289,-1164 289,-1158 295,-1152 301,-1152 301,-1152 359,-1152 359,-1152 365,-1152 371,-1158 371,-1164 371,-1164 371,-1176 371,-1176 371,-1182 365,-1188 359,-1188"/>
<text text-anchor="middle" x="330" y="-1167.5" font-family="sans" font-size="10.00">get_exons_gtf</text>
</g>
<!-- 7&#45;&gt;6 -->
<g id="edge16" class="edge">
<title>7&#45;&gt;6</title>
<path fill="none" stroke="grey" stroke-width="2" d="M330,-1151.34C330,-1144.75 330,-1137.08 330,-1129.67"/>
<polygon fill="grey" stroke="grey" stroke-width="2" points="333.5,-1129.93 330,-1119.93 326.5,-1129.93 333.5,-1129.93"/>
</g>
<!-- 8&#45;&gt;0 -->
<g id="edge8" class="edge">
<title>8&#45;&gt;0</title>
<path fill="none" stroke="grey" stroke-width="2" d="M69.59,-935.27C77.5,-908.6 91,-856.42 91,-811 91,-811 91,-811 91,-161 91,-115.41 104.39,-97.77 142,-72 191.37,-38.17 368.87,-25.08 449.56,-20.8"/>
<polygon fill="grey" stroke="grey" stroke-width="2" points="449.27,-24.32 459.08,-20.32 448.91,-17.33 449.27,-24.32"/>
</g>
<!-- 19 -->
<g id="node20" class="node">
<title>19</title>
<path fill="none" stroke="#d88556" stroke-width="2" d="M503,-900C503,-900 455,-900 455,-900 449,-900 443,-894 443,-888 443,-888 443,-876 443,-876 443,-870 449,-864 455,-864 455,-864 503,-864 503,-864 509,-864 515,-870 515,-876 515,-876 515,-888 515,-888 515,-894 509,-900 503,-900"/>
<text text-anchor="middle" x="479" y="-879.5" font-family="sans" font-size="10.00">add_header</text>
</g>
<!-- 8&#45;&gt;19 -->
<g id="edge29" class="edge">
<title>8&#45;&gt;19</title>
<path fill="none" stroke="grey" stroke-width="2" d="M128.84,-942.06C211.96,-928.04 354.27,-904.04 429.32,-891.38"/>
<polygon fill="grey" stroke="grey" stroke-width="2" points="429.82,-894.85 439.1,-889.73 428.65,-887.94 429.82,-894.85"/>
</g>
<!-- 9 -->
<g id="node10" class="node">
<title>9</title>
<path fill="none" stroke="#afd856" stroke-width="2" d="M976,-684C976,-684 914,-684 914,-684 908,-684 902,-678 902,-672 902,-672 902,-660 902,-660 902,-654 908,-648 914,-648 914,-648 976,-648 976,-648 982,-648 988,-654 988,-660 988,-660 988,-672 988,-672 988,-678 982,-684 976,-684"/>
<text text-anchor="middle" x="945" y="-663.5" font-family="sans" font-size="10.00">extract_chr_len</text>
</g>
<!-- 9&#45;&gt;0 -->
<g id="edge9" class="edge">
<title>9&#45;&gt;0</title>
<path fill="none" stroke="grey" stroke-width="2" d="M945.62,-647.07C946.5,-620.14 948,-567.63 948,-523 948,-523 948,-523 948,-161 948,-74 642.72,-34.41 530.64,-22.8"/>
<polygon fill="grey" stroke="grey" stroke-width="2" points="531.27,-19.35 520.97,-21.83 530.57,-26.32 531.27,-19.35"/>
</g>
<!-- 11 -->
<g id="node12" class="node">
<title>11</title>
<path fill="none" stroke="#56d85b" stroke-width="2" d="M907.5,-612C907.5,-612 798.5,-612 798.5,-612 792.5,-612 786.5,-606 786.5,-600 786.5,-600 786.5,-588 786.5,-588 786.5,-582 792.5,-576 798.5,-576 798.5,-576 907.5,-576 907.5,-576 913.5,-576 919.5,-582 919.5,-588 919.5,-588 919.5,-600 919.5,-600 919.5,-606 913.5,-612 907.5,-612"/>
<text text-anchor="middle" x="853" y="-591.5" font-family="sans" font-size="10.00">extend_mirs_annotations</text>
</g>
<!-- 9&#45;&gt;11 -->
<g id="edge20" class="edge">
<title>9&#45;&gt;11</title>
<path fill="none" stroke="grey" stroke-width="2" d="M921.78,-647.34C911.19,-639.27 898.43,-629.57 886.8,-620.72"/>
<polygon fill="grey" stroke="grey" stroke-width="2" points="889.01,-618 878.94,-614.73 884.78,-623.58 889.01,-618"/>
</g>
<!-- 10&#45;&gt;9 -->
<g id="edge18" class="edge">
<title>10&#45;&gt;9</title>
<path fill="none" stroke="grey" stroke-width="2" d="M901.93,-863.12C909.96,-826.54 928.36,-742.77 938.31,-697.45"/>
<polygon fill="grey" stroke="grey" stroke-width="2" points="941.68,-698.45 940.4,-687.93 934.84,-696.95 941.68,-698.45"/>
</g>
<!-- 11&#45;&gt;0 -->
<g id="edge1" class="edge">
<title>11&#45;&gt;0</title>
<path fill="none" stroke="grey" stroke-width="2" d="M847.2,-575.29C839,-548.63 825,-496.48 825,-451 825,-451 825,-451 825,-161 825,-34.52 620.08,-19.02 530.78,-18.27"/>
<polygon fill="grey" stroke="grey" stroke-width="2" points="531.02,-14.77 521.01,-18.26 531.01,-21.77 531.02,-14.77"/>
</g>
<!-- 43 -->
<g id="node44" class="node">
<title>43</title>
<path fill="none" stroke="#d8d356" stroke-width="2" d="M715.5,-540C715.5,-540 646.5,-540 646.5,-540 640.5,-540 634.5,-534 634.5,-528 634.5,-528 634.5,-516 634.5,-516 634.5,-510 640.5,-504 646.5,-504 646.5,-504 715.5,-504 715.5,-504 721.5,-504 727.5,-510 727.5,-516 727.5,-516 727.5,-528 727.5,-528 727.5,-534 721.5,-540 715.5,-540"/>
<text text-anchor="middle" x="681" y="-519.5" font-family="sans" font-size="10.00">premir_gfftobed</text>
</g>
<!-- 11&#45;&gt;43 -->
<g id="edge66" class="edge">
<title>11&#45;&gt;43</title>
<path fill="none" stroke="grey" stroke-width="2" d="M809.15,-575.15C787.2,-566.22 760.38,-555.31 736.96,-545.77"/>
<polygon fill="grey" stroke="grey" stroke-width="2" points="738.45,-542.6 727.87,-542.08 735.81,-549.09 738.45,-542.6"/>
</g>
<!-- 12 -->
<g id="node13" class="node">
<title>12</title>
<path fill="none" stroke="#56d882" stroke-width="2" d="M872,-684C872,-684 804,-684 804,-684 798,-684 792,-678 792,-672 792,-672 792,-660 792,-660 792,-654 798,-648 804,-648 804,-648 872,-648 872,-648 878,-648 884,-654 884,-660 884,-660 884,-672 884,-672 884,-678 878,-684 872,-684"/>
<text text-anchor="middle" x="838" y="-663.5" font-family="sans" font-size="10.00">map_chr_names</text>
</g>
<!-- 12&#45;&gt;11 -->
<g id="edge21" class="edge">
<title>12&#45;&gt;11</title>
<path fill="none" stroke="grey" stroke-width="2" d="M841.79,-647.34C843.21,-640.67 844.88,-632.89 846.49,-625.39"/>
<polygon fill="grey" stroke="grey" stroke-width="2" points="849.86,-626.37 848.53,-615.86 843.01,-624.91 849.86,-626.37"/>
</g>
<!-- 13 -->
<g id="node14" class="node">
<title>13</title>
<path fill="none" stroke="#56c1d8" stroke-width="2" d="M412,-252C412,-252 370,-252 370,-252 364,-252 358,-246 358,-240 358,-240 358,-228 358,-228 358,-222 364,-216 370,-216 370,-216 412,-216 412,-216 418,-216 424,-222 424,-228 424,-228 424,-240 424,-240 424,-246 418,-252 412,-252"/>
<text text-anchor="middle" x="391" y="-231.5" font-family="sans" font-size="10.00">index_bam</text>
</g>
<!-- 13&#45;&gt;0 -->
<g id="edge2" class="edge">
<title>13&#45;&gt;0</title>
<path fill="none" stroke="grey" stroke-width="2" d="M393.26,-215.45C397.82,-184.61 410.18,-119.48 438,-72 443.51,-62.59 451.06,-53.61 458.7,-45.81"/>
<polygon fill="grey" stroke="grey" stroke-width="2" points="460.97,-48.48 465.74,-39.02 456.11,-43.44 460.97,-48.48"/>
</g>
<!-- 14 -->
<g id="node15" class="node">
<title>14</title>
<path fill="none" stroke="#88d856" stroke-width="2" d="M603,-540C603,-540 535,-540 535,-540 529,-540 523,-534 523,-528 523,-528 523,-516 523,-516 523,-510 529,-504 535,-504 535,-504 603,-504 603,-504 609,-504 615,-510 615,-516 615,-516 615,-528 615,-528 615,-534 609,-540 603,-540"/>
<text text-anchor="middle" x="569" y="-519.5" font-family="sans" font-size="10.00">sort_by_position</text>
</g>
<!-- 14&#45;&gt;13 -->
<g id="edge22" class="edge">
<title>14&#45;&gt;13</title>
<path fill="none" stroke="grey" stroke-width="2" d="M542.18,-503.06C511.71,-481.28 462.64,-441.75 435,-396 410.11,-354.8 399,-299.28 394.26,-265.37"/>
<polygon fill="grey" stroke="grey" stroke-width="2" points="397.76,-265.16 393.03,-255.68 390.82,-266.04 397.76,-265.16"/>
</g>
<!-- 42 -->
<g id="node43" class="node">
<title>42</title>
<path fill="none" stroke="#569ad8" stroke-width="2" d="M686.5,-468C686.5,-468 567.5,-468 567.5,-468 561.5,-468 555.5,-462 555.5,-456 555.5,-456 555.5,-444 555.5,-444 555.5,-438 561.5,-432 567.5,-432 567.5,-432 686.5,-432 686.5,-432 692.5,-432 698.5,-438 698.5,-444 698.5,-444 698.5,-456 698.5,-456 698.5,-462 692.5,-468 686.5,-468"/>
<text text-anchor="middle" x="627" y="-447.5" font-family="sans" font-size="10.00">intersect_extended_premir</text>
</g>
<!-- 14&#45;&gt;42 -->
<g id="edge65" class="edge">
<title>14&#45;&gt;42</title>
<path fill="none" stroke="grey" stroke-width="2" d="M583.64,-503.34C589.77,-495.93 597.05,-487.14 603.88,-478.9"/>
<polygon fill="grey" stroke="grey" stroke-width="2" points="606.55,-481.17 610.24,-471.23 601.16,-476.7 606.55,-481.17"/>
</g>
<!-- 15 -->
<g id="node16" class="node">
<title>15</title>
<path fill="none" stroke="#56d8c9" stroke-width="2" d="M603,-612C603,-612 535,-612 535,-612 529,-612 523,-606 523,-600 523,-600 523,-588 523,-588 523,-582 529,-576 535,-576 535,-576 603,-576 603,-576 609,-576 615,-582 615,-588 615,-588 615,-600 615,-600 615,-606 609,-612 603,-612"/>
<text text-anchor="middle" x="569" y="-591.5" font-family="sans" font-size="10.00">convert_to_bam</text>
</g>
<!-- 15&#45;&gt;14 -->
<g id="edge23" class="edge">
<title>15&#45;&gt;14</title>
<path fill="none" stroke="grey" stroke-width="2" d="M569,-575.34C569,-568.75 569,-561.08 569,-553.67"/>
<polygon fill="grey" stroke="grey" stroke-width="2" points="572.5,-553.93 569,-543.93 565.5,-553.93 572.5,-553.93"/>
</g>
<!-- 16 -->
<g id="node17" class="node">
<title>16</title>
<path fill="none" stroke="#d8a456" stroke-width="2" d="M526,-684C526,-684 464,-684 464,-684 458,-684 452,-678 452,-672 452,-672 452,-660 452,-660 452,-654 458,-648 464,-648 464,-648 526,-648 526,-648 532,-648 538,-654 538,-660 538,-660 538,-672 538,-672 538,-678 532,-684 526,-684"/>
<text text-anchor="middle" x="495" y="-663.5" font-family="sans" font-size="10.00">filter_by_indels</text>
</g>
<!-- 16&#45;&gt;15 -->
<g id="edge24" class="edge">
<title>16&#45;&gt;15</title>
<path fill="none" stroke="grey" stroke-width="2" d="M513.67,-647.34C521.85,-639.6 531.62,-630.36 540.66,-621.81"/>
<polygon fill="grey" stroke="grey" stroke-width="2" points="543.02,-624.4 547.88,-614.98 538.21,-619.31 543.02,-624.4"/>
</g>
<!-- 41 -->
<g id="node42" class="node">
<title>41</title>
<path fill="none" stroke="#d86656" stroke-width="2" d="M546,-396C546,-396 456,-396 456,-396 450,-396 444,-390 444,-384 444,-384 444,-372 444,-372 444,-366 450,-360 456,-360 456,-360 546,-360 546,-360 552,-360 558,-366 558,-372 558,-372 558,-384 558,-384 558,-390 552,-396 546,-396"/>
<text text-anchor="middle" x="501" y="-375.5" font-family="sans" font-size="10.00">intersection_sam_file</text>
</g>
<!-- 16&#45;&gt;41 -->
<g id="edge63" class="edge">
<title>16&#45;&gt;41</title>
<path fill="none" stroke="grey" stroke-width="2" d="M495.38,-647.11C496.37,-599.56 499.1,-469.6 500.35,-409.83"/>
<polygon fill="grey" stroke="grey" stroke-width="2" points="503.85,-409.98 500.56,-399.91 496.85,-409.83 503.85,-409.98"/>
</g>
<!-- 17 -->
<g id="node18" class="node">
<title>17</title>
<path fill="none" stroke="#d85656" stroke-width="2" d="M526.5,-756C526.5,-756 453.5,-756 453.5,-756 447.5,-756 441.5,-750 441.5,-744 441.5,-744 441.5,-732 441.5,-732 441.5,-726 447.5,-720 453.5,-720 453.5,-720 526.5,-720 526.5,-720 532.5,-720 538.5,-726 538.5,-732 538.5,-732 538.5,-744 538.5,-744 538.5,-750 532.5,-756 526.5,-756"/>
<text text-anchor="middle" x="490" y="-735.5" font-family="sans" font-size="10.00">remove_inferiors</text>
</g>
<!-- 17&#45;&gt;16 -->
<g id="edge25" class="edge">
<title>17&#45;&gt;16</title>
<path fill="none" stroke="grey" stroke-width="2" d="M491.26,-719.34C491.73,-712.75 492.28,-705.08 492.81,-697.67"/>
<polygon fill="grey" stroke="grey" stroke-width="2" points="496.28,-698.15 493.51,-687.92 489.3,-697.65 496.28,-698.15"/>
</g>
<!-- 18 -->
<g id="node19" class="node">
<title>18</title>
<path fill="none" stroke="#97d856" stroke-width="2" d="M496,-828C496,-828 466,-828 466,-828 460,-828 454,-822 454,-816 454,-816 454,-804 454,-804 454,-798 460,-792 466,-792 466,-792 496,-792 496,-792 502,-792 508,-798 508,-804 508,-804 508,-816 508,-816 508,-822 502,-828 496,-828"/>
<text text-anchor="middle" x="481" y="-807.5" font-family="sans" font-size="10.00">sort_id</text>
</g>
<!-- 18&#45;&gt;17 -->
<g id="edge26" class="edge">
<title>18&#45;&gt;17</title>
<path fill="none" stroke="grey" stroke-width="2" d="M483.27,-791.34C484.12,-784.75 485.1,-777.08 486.06,-769.67"/>
<polygon fill="grey" stroke="grey" stroke-width="2" points="489.51,-770.27 487.31,-759.9 482.57,-769.38 489.51,-770.27"/>
</g>
<!-- 19&#45;&gt;18 -->
<g id="edge27" class="edge">
<title>19&#45;&gt;18</title>
<path fill="none" stroke="grey" stroke-width="2" d="M479.5,-863.34C479.69,-856.75 479.91,-849.08 480.12,-841.67"/>
<polygon fill="grey" stroke="grey" stroke-width="2" points="483.61,-842.02 480.4,-831.93 476.62,-841.82 483.61,-842.02"/>
</g>
<!-- 20 -->
<g id="node21" class="node">
<title>20</title>
<path fill="none" stroke="#d85e56" stroke-width="2" d="M504.5,-972C504.5,-972 453.5,-972 453.5,-972 447.5,-972 441.5,-966 441.5,-960 441.5,-960 441.5,-948 441.5,-948 441.5,-942 447.5,-936 453.5,-936 453.5,-936 504.5,-936 504.5,-936 510.5,-936 516.5,-942 516.5,-948 516.5,-948 516.5,-960 516.5,-960 516.5,-966 510.5,-972 504.5,-972"/>
<text text-anchor="middle" x="479" y="-951.5" font-family="sans" font-size="10.00">cat_mapping</text>
</g>
<!-- 20&#45;&gt;19 -->
<g id="edge28" class="edge">
<title>20&#45;&gt;19</title>
<path fill="none" stroke="grey" stroke-width="2" d="M479,-935.34C479,-928.75 479,-921.08 479,-913.67"/>
<polygon fill="grey" stroke="grey" stroke-width="2" points="482.5,-913.93 479,-903.93 475.5,-913.93 482.5,-913.93"/>
</g>
<!-- 21&#45;&gt;20 -->
<g id="edge30" class="edge">
<title>21&#45;&gt;20</title>
<path fill="none" stroke="grey" stroke-width="2" d="M464.79,-1007.34C466.6,-1000.67 468.72,-992.89 470.75,-985.39"/>
<polygon fill="grey" stroke="grey" stroke-width="2" points="474.11,-986.39 473.35,-975.82 467.35,-984.56 474.11,-986.39"/>
</g>
<!-- 22 -->
<g id="node23" class="node">
<title>22</title>
<path fill="none" stroke="#567bd8" stroke-width="2" d="M530.5,-1116C530.5,-1116 389.5,-1116 389.5,-1116 383.5,-1116 377.5,-1110 377.5,-1104 377.5,-1104 377.5,-1092 377.5,-1092 377.5,-1086 383.5,-1080 389.5,-1080 389.5,-1080 530.5,-1080 530.5,-1080 536.5,-1080 542.5,-1086 542.5,-1092 542.5,-1092 542.5,-1104 542.5,-1104 542.5,-1110 536.5,-1116 530.5,-1116"/>
<text text-anchor="middle" x="460" y="-1095.5" font-family="sans" font-size="10.00">remove_headers_transcriptome</text>
</g>
<!-- 22&#45;&gt;21 -->
<g id="edge32" class="edge">
<title>22&#45;&gt;21</title>
<path fill="none" stroke="grey" stroke-width="2" d="M460,-1079.34C460,-1072.75 460,-1065.08 460,-1057.67"/>
<polygon fill="grey" stroke="grey" stroke-width="2" points="463.5,-1057.93 460,-1047.93 456.5,-1057.93 463.5,-1057.93"/>
</g>
<!-- 23 -->
<g id="node24" class="node">
<title>23</title>
<path fill="none" stroke="#78d856" stroke-width="2" d="M508.5,-1188C508.5,-1188 407.5,-1188 407.5,-1188 401.5,-1188 395.5,-1182 395.5,-1176 395.5,-1176 395.5,-1164 395.5,-1164 395.5,-1158 401.5,-1152 407.5,-1152 407.5,-1152 508.5,-1152 508.5,-1152 514.5,-1152 520.5,-1158 520.5,-1164 520.5,-1164 520.5,-1176 520.5,-1176 520.5,-1182 514.5,-1188 508.5,-1188"/>
<text text-anchor="middle" x="458" y="-1167.5" font-family="sans" font-size="10.00">filter_nh_transcriptome</text>
</g>
<!-- 23&#45;&gt;22 -->
<g id="edge34" class="edge">
<title>23&#45;&gt;22</title>
<path fill="none" stroke="grey" stroke-width="2" d="M458.5,-1151.34C458.69,-1144.75 458.91,-1137.08 459.12,-1129.67"/>
<polygon fill="grey" stroke="grey" stroke-width="2" points="462.61,-1130.02 459.4,-1119.93 455.62,-1129.82 462.61,-1130.02"/>
</g>
<!-- 24 -->
<g id="node25" class="node">
<title>24</title>
<path fill="none" stroke="#d89556" stroke-width="2" d="M513,-1260C513,-1260 391,-1260 391,-1260 385,-1260 379,-1254 379,-1248 379,-1248 379,-1236 379,-1236 379,-1230 385,-1224 391,-1224 391,-1224 513,-1224 513,-1224 519,-1224 525,-1230 525,-1236 525,-1236 525,-1248 525,-1248 525,-1254 519,-1260 513,-1260"/>
<text text-anchor="middle" x="452" y="-1239.5" font-family="sans" font-size="10.00">merge_transcriptome_maps</text>
</g>
<!-- 24&#45;&gt;23 -->
<g id="edge35" class="edge">
<title>24&#45;&gt;23</title>
<path fill="none" stroke="grey" stroke-width="2" d="M453.51,-1223.34C454.08,-1216.75 454.74,-1209.08 455.37,-1201.67"/>
<polygon fill="grey" stroke="grey" stroke-width="2" points="458.84,-1202.18 456.21,-1191.92 451.87,-1201.58 458.84,-1202.18"/>
</g>
<!-- 25&#45;&gt;24 -->
<g id="edge37" class="edge">
<title>25&#45;&gt;24</title>
<path fill="none" stroke="grey" stroke-width="2" d="M289.26,-1367.07C306.88,-1348.18 336.34,-1318.15 365,-1296 378.25,-1285.76 393.6,-1275.84 407.69,-1267.41"/>
<polygon fill="grey" stroke="grey" stroke-width="2" points="409.17,-1270.6 416.03,-1262.52 405.64,-1264.56 409.17,-1270.6"/>
</g>
<!-- 26 -->
<g id="node27" class="node">
<title>26</title>
<path fill="none" stroke="#56d8b9" stroke-width="2" d="M503.5,-1620C503.5,-1620 442.5,-1620 442.5,-1620 436.5,-1620 430.5,-1614 430.5,-1608 430.5,-1608 430.5,-1596 430.5,-1596 430.5,-1590 436.5,-1584 442.5,-1584 442.5,-1584 503.5,-1584 503.5,-1584 509.5,-1584 515.5,-1590 515.5,-1596 515.5,-1596 515.5,-1608 515.5,-1608 515.5,-1614 509.5,-1620 503.5,-1620"/>
<text text-anchor="middle" x="473" y="-1599.5" font-family="sans" font-size="10.00">fastx_collapser</text>
</g>
<!-- 26&#45;&gt;25 -->
<g id="edge39" class="edge">
<title>26&#45;&gt;25</title>
<path fill="none" stroke="grey" stroke-width="2" d="M442.52,-1583.19C428.03,-1573.84 411.08,-1561.53 398,-1548 358.07,-1506.7 363.48,-1484.37 327,-1440 319.62,-1431.03 310.9,-1421.93 302.64,-1413.87"/>
<polygon fill="grey" stroke="grey" stroke-width="2" points="305.12,-1411.39 295.46,-1407.03 300.29,-1416.46 305.12,-1411.39"/>
</g>
<!-- 32 -->
<g id="node33" class="node">
<title>32</title>
<path fill="none" stroke="#d8ac56" stroke-width="2" d="M527,-1548C527,-1548 419,-1548 419,-1548 413,-1548 407,-1542 407,-1536 407,-1536 407,-1524 407,-1524 407,-1518 413,-1512 419,-1512 419,-1512 527,-1512 527,-1512 533,-1512 539,-1518 539,-1524 539,-1524 539,-1536 539,-1536 539,-1542 533,-1548 527,-1548"/>
<text text-anchor="middle" x="473" y="-1527.5" font-family="sans" font-size="10.00">filter_fasta_for_oligomap</text>
</g>
<!-- 26&#45;&gt;32 -->
<g id="edge48" class="edge">
<title>26&#45;&gt;32</title>
<path fill="none" stroke="grey" stroke-width="2" d="M473,-1583.34C473,-1576.75 473,-1569.08 473,-1561.67"/>
<polygon fill="grey" stroke="grey" stroke-width="2" points="476.5,-1561.93 473,-1551.93 469.5,-1561.93 476.5,-1561.93"/>
</g>
<!-- 26&#45;&gt;37 -->
<g id="edge55" class="edge">
<title>26&#45;&gt;37</title>
<path fill="none" stroke="grey" stroke-width="2" d="M513.79,-1583.15C534.02,-1574.3 558.7,-1563.51 580.34,-1554.04"/>
<polygon fill="grey" stroke="grey" stroke-width="2" points="581.48,-1557.36 589.23,-1550.15 578.67,-1550.95 581.48,-1557.36"/>
</g>
<!-- 27 -->
<g id="node28" class="node">
<title>27</title>
<path fill="none" stroke="#56a2d8" stroke-width="2" d="M489.5,-1692C489.5,-1692 456.5,-1692 456.5,-1692 450.5,-1692 444.5,-1686 444.5,-1680 444.5,-1680 444.5,-1668 444.5,-1668 444.5,-1662 450.5,-1656 456.5,-1656 456.5,-1656 489.5,-1656 489.5,-1656 495.5,-1656 501.5,-1662 501.5,-1668 501.5,-1668 501.5,-1680 501.5,-1680 501.5,-1686 495.5,-1692 489.5,-1692"/>
<text text-anchor="middle" x="473" y="-1671.5" font-family="sans" font-size="10.00">cutadapt</text>
</g>
<!-- 27&#45;&gt;26 -->
<g id="edge41" class="edge">
<title>27&#45;&gt;26</title>
<path fill="none" stroke="grey" stroke-width="2" d="M473,-1655.34C473,-1648.75 473,-1641.08 473,-1633.67"/>
<polygon fill="grey" stroke="grey" stroke-width="2" points="476.5,-1633.93 473,-1623.93 469.5,-1633.93 476.5,-1633.93"/>
</g>
<!-- 28 -->
<g id="node29" class="node">
<title>28</title>
<path fill="none" stroke="#59d856" stroke-width="2" d="M506,-1764C506,-1764 440,-1764 440,-1764 434,-1764 428,-1758 428,-1752 428,-1752 428,-1740 428,-1740 428,-1734 434,-1728 440,-1728 440,-1728 506,-1728 506,-1728 512,-1728 518,-1734 518,-1740 518,-1740 518,-1752 518,-1752 518,-1758 512,-1764 506,-1764"/>
<text text-anchor="middle" x="473" y="-1743.5" font-family="sans" font-size="10.00">fasta_formatter</text>
</g>
<!-- 28&#45;&gt;27 -->
<g id="edge42" class="edge">
<title>28&#45;&gt;27</title>
<path fill="none" stroke="grey" stroke-width="2" d="M473,-1727.34C473,-1720.75 473,-1713.08 473,-1705.67"/>
<polygon fill="grey" stroke="grey" stroke-width="2" points="476.5,-1705.93 473,-1695.93 469.5,-1705.93 476.5,-1705.93"/>
</g>
<!-- 29 -->
<g id="node30" class="node">
<title>29</title>
<path fill="none" stroke="#ced856" stroke-width="2" d="M488,-1836C488,-1836 458,-1836 458,-1836 452,-1836 446,-1830 446,-1824 446,-1824 446,-1812 446,-1812 446,-1806 452,-1800 458,-1800 458,-1800 488,-1800 488,-1800 494,-1800 500,-1806 500,-1812 500,-1812 500,-1824 500,-1824 500,-1830 494,-1836 488,-1836"/>
<text text-anchor="middle" x="473" y="-1815.5" font-family="sans" font-size="10.00">start</text>
</g>
<!-- 29&#45;&gt;28 -->
<g id="edge43" class="edge">
<title>29&#45;&gt;28</title>
<path fill="none" stroke="grey" stroke-width="2" d="M473,-1799.34C473,-1792.75 473,-1785.08 473,-1777.67"/>
<polygon fill="grey" stroke="grey" stroke-width="2" points="476.5,-1777.93 473,-1767.93 469.5,-1777.93 476.5,-1777.93"/>
</g>
<!-- 30 -->
<g id="node31" class="node">
<title>30</title>
<path fill="none" stroke="#56d863" stroke-width="2" d="M526,-1332C526,-1332 386,-1332 386,-1332 380,-1332 374,-1326 374,-1320 374,-1320 374,-1308 374,-1308 374,-1302 380,-1296 386,-1296 386,-1296 526,-1296 526,-1296 532,-1296 538,-1302 538,-1308 538,-1308 538,-1320 538,-1320 538,-1326 532,-1332 526,-1332"/>
<text text-anchor="middle" x="456" y="-1311.5" font-family="sans" font-size="10.00">oligomap_transcriptome_toSAM</text>
</g>
<!-- 30&#45;&gt;24 -->
<g id="edge36" class="edge">
<title>30&#45;&gt;24</title>
<path fill="none" stroke="grey" stroke-width="2" d="M454.99,-1295.34C454.61,-1288.75 454.18,-1281.08 453.75,-1273.67"/>
<polygon fill="grey" stroke="grey" stroke-width="2" points="457.26,-1273.71 453.2,-1263.92 450.27,-1274.11 457.26,-1273.71"/>
</g>
<!-- 31&#45;&gt;30 -->
<g id="edge45" class="edge">
<title>31&#45;&gt;30</title>
<path fill="none" stroke="grey" stroke-width="2" d="M511.25,-1439.07C522.75,-1430.08 534.78,-1418.1 541,-1404 547.45,-1389.36 548.76,-1381.99 541,-1368 534.54,-1356.36 524.35,-1346.94 513.23,-1339.46"/>
<polygon fill="grey" stroke="grey" stroke-width="2" points="515.33,-1336.64 504.96,-1334.44 511.69,-1342.62 515.33,-1336.64"/>
</g>
<!-- 33 -->
<g id="node34" class="node">
<title>33</title>
<path fill="none" stroke="#5692d8" stroke-width="2" d="M520,-1404C520,-1404 392,-1404 392,-1404 386,-1404 380,-1398 380,-1392 380,-1392 380,-1380 380,-1380 380,-1374 386,-1368 392,-1368 392,-1368 520,-1368 520,-1368 526,-1368 532,-1374 532,-1380 532,-1380 532,-1392 532,-1392 532,-1398 526,-1404 520,-1404"/>
<text text-anchor="middle" x="456" y="-1383.5" font-family="sans" font-size="10.00">sort_transcriptome_oligomap</text>
</g>
<!-- 31&#45;&gt;33 -->
<g id="edge49" class="edge">
<title>31&#45;&gt;33</title>
<path fill="none" stroke="grey" stroke-width="2" d="M476.19,-1439.34C473.55,-1432.51 470.46,-1424.5 467.51,-1416.83"/>
<polygon fill="grey" stroke="grey" stroke-width="2" points="470.86,-1415.8 463.99,-1407.73 464.33,-1418.32 470.86,-1415.8"/>
</g>
<!-- 32&#45;&gt;31 -->
<g id="edge46" class="edge">
<title>32&#45;&gt;31</title>
<path fill="none" stroke="grey" stroke-width="2" d="M475.52,-1511.34C476.46,-1504.75 477.56,-1497.08 478.62,-1489.67"/>
<polygon fill="grey" stroke="grey" stroke-width="2" points="482.07,-1490.29 480.01,-1479.9 475.14,-1489.3 482.07,-1490.29"/>
</g>
<!-- 32&#45;&gt;39 -->
<g id="edge59" class="edge">
<title>32&#45;&gt;39</title>
<path fill="none" stroke="grey" stroke-width="2" d="M533.21,-1511.06C564.44,-1501.76 602.83,-1490.33 635.66,-1480.55"/>
<polygon fill="grey" stroke="grey" stroke-width="2" points="636.46,-1483.96 645.04,-1477.75 634.46,-1477.25 636.46,-1483.96"/>
</g>
<!-- 33&#45;&gt;30 -->
<g id="edge44" class="edge">
<title>33&#45;&gt;30</title>
<path fill="none" stroke="grey" stroke-width="2" d="M456,-1367.34C456,-1360.75 456,-1353.08 456,-1345.67"/>
<polygon fill="grey" stroke="grey" stroke-width="2" points="459.5,-1345.93 456,-1335.93 452.5,-1345.93 459.5,-1345.93"/>
</g>
<!-- 34 -->
<g id="node35" class="node">
<title>34</title>
<path fill="none" stroke="#56a9d8" stroke-width="2" d="M645.5,-1044C645.5,-1044 530.5,-1044 530.5,-1044 524.5,-1044 518.5,-1038 518.5,-1032 518.5,-1032 518.5,-1020 518.5,-1020 518.5,-1014 524.5,-1008 530.5,-1008 530.5,-1008 645.5,-1008 645.5,-1008 651.5,-1008 657.5,-1014 657.5,-1020 657.5,-1020 657.5,-1032 657.5,-1032 657.5,-1038 651.5,-1044 645.5,-1044"/>
<text text-anchor="middle" x="588" y="-1023.5" font-family="sans" font-size="10.00">remove_headers_genome</text>
</g>
<!-- 34&#45;&gt;20 -->
<g id="edge31" class="edge">
<title>34&#45;&gt;20</title>
<path fill="none" stroke="grey" stroke-width="2" d="M560.21,-1007.15C547.27,-998.84 531.66,-988.82 517.6,-979.79"/>
<polygon fill="grey" stroke="grey" stroke-width="2" points="519.59,-976.91 509.28,-974.45 515.81,-982.8 519.59,-976.91"/>
</g>
<!-- 35 -->
<g id="node36" class="node">
<title>35</title>
<path fill="none" stroke="#9fd856" stroke-width="2" d="M630.5,-1188C630.5,-1188 555.5,-1188 555.5,-1188 549.5,-1188 543.5,-1182 543.5,-1176 543.5,-1176 543.5,-1164 543.5,-1164 543.5,-1158 549.5,-1152 555.5,-1152 555.5,-1152 630.5,-1152 630.5,-1152 636.5,-1152 642.5,-1158 642.5,-1164 642.5,-1164 642.5,-1176 642.5,-1176 642.5,-1182 636.5,-1188 630.5,-1188"/>
<text text-anchor="middle" x="593" y="-1167.5" font-family="sans" font-size="10.00">nh_filter_genome</text>
</g>
<!-- 35&#45;&gt;34 -->
<g id="edge50" class="edge">
<title>35&#45;&gt;34</title>
<path fill="none" stroke="grey" stroke-width="2" d="M592.37,-1151.02C591.54,-1127.54 590.08,-1086.11 589.08,-1057.64"/>
<polygon fill="grey" stroke="grey" stroke-width="2" points="592.58,-1057.73 588.73,-1047.86 585.59,-1057.98 592.58,-1057.73"/>
</g>
<!-- 36 -->
<g id="node37" class="node">
<title>36</title>
<path fill="none" stroke="#56d89a" stroke-width="2" d="M651,-1260C651,-1260 555,-1260 555,-1260 549,-1260 543,-1254 543,-1248 543,-1248 543,-1236 543,-1236 543,-1230 549,-1224 555,-1224 555,-1224 651,-1224 651,-1224 657,-1224 663,-1230 663,-1236 663,-1236 663,-1248 663,-1248 663,-1254 657,-1260 651,-1260"/>
<text text-anchor="middle" x="603" y="-1239.5" font-family="sans" font-size="10.00">merge_genome_maps</text>
</g>
<!-- 36&#45;&gt;35 -->
<g id="edge51" class="edge">
<title>36&#45;&gt;35</title>
<path fill="none" stroke="grey" stroke-width="2" d="M600.48,-1223.34C599.54,-1216.75 598.44,-1209.08 597.38,-1201.67"/>
<polygon fill="grey" stroke="grey" stroke-width="2" points="600.86,-1201.3 595.99,-1191.9 593.93,-1202.29 600.86,-1201.3"/>
</g>
<!-- 37&#45;&gt;36 -->
<g id="edge53" class="edge">
<title>37&#45;&gt;36</title>
<path fill="none" stroke="grey" stroke-width="2" d="M630.16,-1511.36C628.55,-1501.06 626.55,-1487.81 625,-1476 615.53,-1403.68 608.52,-1318.22 605.18,-1273.61"/>
<polygon fill="grey" stroke="grey" stroke-width="2" points="608.69,-1273.62 604.47,-1263.9 601.71,-1274.13 608.69,-1273.62"/>
</g>
<!-- 38 -->
<g id="node39" class="node">
<title>38</title>
<path fill="none" stroke="#566bd8" stroke-width="2" d="M752,-1332C752,-1332 638,-1332 638,-1332 632,-1332 626,-1326 626,-1320 626,-1320 626,-1308 626,-1308 626,-1302 632,-1296 638,-1296 638,-1296 752,-1296 752,-1296 758,-1296 764,-1302 764,-1308 764,-1308 764,-1320 764,-1320 764,-1326 758,-1332 752,-1332"/>
<text text-anchor="middle" x="695" y="-1311.5" font-family="sans" font-size="10.00">oligomap_genome_toSAM</text>
</g>
<!-- 38&#45;&gt;36 -->
<g id="edge52" class="edge">
<title>38&#45;&gt;36</title>
<path fill="none" stroke="grey" stroke-width="2" d="M671.78,-1295.34C661.19,-1287.27 648.43,-1277.57 636.8,-1268.72"/>
<polygon fill="grey" stroke="grey" stroke-width="2" points="639.01,-1266 628.94,-1262.73 634.78,-1271.58 639.01,-1266"/>
</g>
<!-- 39&#45;&gt;38 -->
<g id="edge57" class="edge">
<title>39&#45;&gt;38</title>
<path fill="none" stroke="grey" stroke-width="2" d="M733.31,-1439.06C744,-1429.92 755.27,-1417.83 761,-1404 767.12,-1389.22 767.92,-1382.43 761,-1368 755.87,-1357.3 747.4,-1348.07 738.22,-1340.45"/>
<polygon fill="grey" stroke="grey" stroke-width="2" points="740.61,-1337.87 730.51,-1334.65 736.4,-1343.46 740.61,-1337.87"/>
</g>
<!-- 40 -->
<g id="node41" class="node">
<title>40</title>
<path fill="none" stroke="#56d8c1" stroke-width="2" d="M740,-1404C740,-1404 638,-1404 638,-1404 632,-1404 626,-1398 626,-1392 626,-1392 626,-1380 626,-1380 626,-1374 632,-1368 638,-1368 638,-1368 740,-1368 740,-1368 746,-1368 752,-1374 752,-1380 752,-1380 752,-1392 752,-1392 752,-1398 746,-1404 740,-1404"/>
<text text-anchor="middle" x="689" y="-1383.5" font-family="sans" font-size="10.00">sort_genome_oligomap</text>
</g>
<!-- 39&#45;&gt;40 -->
<g id="edge61" class="edge">
<title>39&#45;&gt;40</title>
<path fill="none" stroke="grey" stroke-width="2" d="M703.21,-1439.34C701.4,-1432.67 699.28,-1424.89 697.25,-1417.39"/>
<polygon fill="grey" stroke="grey" stroke-width="2" points="700.65,-1416.56 694.65,-1407.82 693.89,-1418.39 700.65,-1416.56"/>
</g>
<!-- 40&#45;&gt;38 -->
<g id="edge58" class="edge">
<title>40&#45;&gt;38</title>
<path fill="none" stroke="grey" stroke-width="2" d="M690.51,-1367.34C691.08,-1360.75 691.74,-1353.08 692.37,-1345.67"/>
<polygon fill="grey" stroke="grey" stroke-width="2" points="695.84,-1346.18 693.21,-1335.92 688.87,-1345.58 695.84,-1346.18"/>
</g>
<!-- 41&#45;&gt;0 -->
<g id="edge3" class="edge">
<title>41&#45;&gt;0</title>
<path fill="none" stroke="grey" stroke-width="2" d="M490.61,-359.3C476.22,-333.07 452,-281.94 452,-235 452,-235 452,-235 452,-161 452,-121.16 466.13,-77.11 477.15,-48.8"/>
<polygon fill="grey" stroke="grey" stroke-width="2" points="480.3,-50.36 480.81,-39.77 473.81,-47.73 480.3,-50.36"/>
</g>
<!-- 48 -->
<g id="node49" class="node">
<title>48</title>
<path fill="none" stroke="#80d856" stroke-width="2" d="M577.5,-324C577.5,-324 506.5,-324 506.5,-324 500.5,-324 494.5,-318 494.5,-312 494.5,-312 494.5,-300 494.5,-300 494.5,-294 500.5,-288 506.5,-288 506.5,-288 577.5,-288 577.5,-288 583.5,-288 589.5,-294 589.5,-300 589.5,-300 589.5,-312 589.5,-312 589.5,-318 583.5,-324 577.5,-324"/>
<text text-anchor="middle" x="542" y="-303.5" font-family="sans" font-size="10.00">uncollapse_reads</text>
</g>
<!-- 41&#45;&gt;48 -->
<g id="edge71" class="edge">
<title>41&#45;&gt;48</title>
<path fill="none" stroke="grey" stroke-width="2" d="M511.35,-359.34C515.49,-352.26 520.37,-343.92 525.01,-336"/>
<polygon fill="grey" stroke="grey" stroke-width="2" points="527.95,-337.91 529.98,-327.51 521.91,-334.37 527.95,-337.91"/>
</g>
<!-- 42&#45;&gt;41 -->
<g id="edge62" class="edge">
<title>42&#45;&gt;41</title>
<path fill="none" stroke="grey" stroke-width="2" d="M594.88,-431.15C579.48,-422.6 560.8,-412.22 544.18,-402.99"/>
<polygon fill="grey" stroke="grey" stroke-width="2" points="546.15,-400.08 535.71,-398.28 542.75,-406.2 546.15,-400.08"/>
</g>
<!-- 45 -->
<g id="node46" class="node">
<title>45</title>
<path fill="none" stroke="#56b1d8" stroke-width="2" d="M690,-396C690,-396 622,-396 622,-396 616,-396 610,-390 610,-384 610,-384 610,-372 610,-372 610,-366 616,-360 622,-360 622,-360 690,-360 690,-360 696,-360 702,-366 702,-372 702,-372 702,-384 702,-384 702,-390 696,-396 690,-396"/>
<text text-anchor="middle" x="656" y="-375.5" font-family="sans" font-size="10.00">quant_mirna_pri</text>
</g>
<!-- 42&#45;&gt;45 -->
<g id="edge68" class="edge">
<title>42&#45;&gt;45</title>
<path fill="none" stroke="grey" stroke-width="2" d="M634.32,-431.34C637.15,-424.51 640.46,-416.5 643.64,-408.83"/>
<polygon fill="grey" stroke="grey" stroke-width="2" points="646.83,-410.28 647.42,-399.7 640.36,-407.6 646.83,-410.28"/>
</g>
<!-- 43&#45;&gt;42 -->
<g id="edge64" class="edge">
<title>43&#45;&gt;42</title>
<path fill="none" stroke="grey" stroke-width="2" d="M667.37,-503.34C661.73,-496.01 655.03,-487.34 648.74,-479.18"/>
<polygon fill="grey" stroke="grey" stroke-width="2" points="651.54,-477.08 642.66,-471.3 646,-481.35 651.54,-477.08"/>
</g>
<!-- 44 -->
<g id="node45" class="node">
<title>44</title>
<path fill="none" stroke="#56d8d8" stroke-width="2" d="M718,-180C718,-180 662,-180 662,-180 656,-180 650,-174 650,-168 650,-168 650,-156 650,-156 650,-150 656,-144 662,-144 662,-144 718,-144 718,-144 724,-144 730,-150 730,-156 730,-156 730,-168 730,-168 730,-174 724,-180 718,-180"/>
<text text-anchor="middle" x="690" y="-159.5" font-family="sans" font-size="10.00">merge_tables</text>
</g>
<!-- 44&#45;&gt;0 -->
<g id="edge11" class="edge">
<title>44&#45;&gt;0</title>
<path fill="none" stroke="grey" stroke-width="2" d="M687.14,-143.08C683.02,-123.06 673.53,-90.96 653,-72 619.12,-40.72 566.53,-27.89 530.29,-22.63"/>
<polygon fill="grey" stroke="grey" stroke-width="2" points="531.12,-19.21 520.75,-21.4 530.22,-26.15 531.12,-19.21"/>
</g>
<!-- 45&#45;&gt;44 -->
<g id="edge67" class="edge">
<title>45&#45;&gt;44</title>
<path fill="none" stroke="grey" stroke-width="2" d="M658.84,-359.12C664.64,-322.62 677.9,-239.13 685.12,-193.74"/>
<polygon fill="grey" stroke="grey" stroke-width="2" points="688.56,-194.39 686.67,-183.97 681.64,-193.29 688.56,-194.39"/>
</g>
<!-- 46 -->
<g id="node47" class="node">
<title>46</title>
<path fill="none" stroke="#d8b456" stroke-width="2" d="M620,-180C620,-180 492,-180 492,-180 486,-180 480,-174 480,-168 480,-168 480,-156 480,-156 480,-150 486,-144 492,-144 492,-144 620,-144 620,-144 626,-144 632,-150 632,-156 632,-156 632,-168 632,-168 632,-174 626,-180 620,-180"/>
<text text-anchor="middle" x="556" y="-159.5" font-family="sans" font-size="10.00">sort_uncollpased_by_position</text>
</g>
<!-- 46&#45;&gt;0 -->
<g id="edge5" class="edge">
<title>46&#45;&gt;0</title>
<path fill="none" stroke="grey" stroke-width="2" d="M536.43,-143.07C527.11,-133.51 516.59,-121.05 510,-108 500.82,-89.84 495.82,-67.5 493.11,-49.74"/>
<polygon fill="grey" stroke="grey" stroke-width="2" points="496.6,-49.38 491.82,-39.93 489.66,-50.3 496.6,-49.38"/>
</g>
<!-- 49 -->
<g id="node50" class="node">
<title>49</title>
<path fill="none" stroke="#56d86b" stroke-width="2" d="M631.5,-108C631.5,-108 530.5,-108 530.5,-108 524.5,-108 518.5,-102 518.5,-96 518.5,-96 518.5,-84 518.5,-84 518.5,-78 524.5,-72 530.5,-72 530.5,-72 631.5,-72 631.5,-72 637.5,-72 643.5,-78 643.5,-84 643.5,-84 643.5,-96 643.5,-96 643.5,-102 637.5,-108 631.5,-108"/>
<text text-anchor="middle" x="581" y="-87.5" font-family="sans" font-size="10.00">uncollapsed_index_bam</text>
</g>
<!-- 46&#45;&gt;49 -->
<g id="edge72" class="edge">
<title>46&#45;&gt;49</title>
<path fill="none" stroke="grey" stroke-width="2" d="M562.31,-143.34C564.72,-136.59 567.54,-128.69 570.25,-121.11"/>
<polygon fill="grey" stroke="grey" stroke-width="2" points="573.52,-122.35 573.59,-111.75 566.93,-119.99 573.52,-122.35"/>
</g>
<!-- 47 -->
<g id="node48" class="node">
<title>47</title>
<path fill="none" stroke="#56d8a9" stroke-width="2" d="M619.5,-252C619.5,-252 492.5,-252 492.5,-252 486.5,-252 480.5,-246 480.5,-240 480.5,-240 480.5,-228 480.5,-228 480.5,-222 486.5,-216 492.5,-216 492.5,-216 619.5,-216 619.5,-216 625.5,-216 631.5,-222 631.5,-228 631.5,-228 631.5,-240 631.5,-240 631.5,-246 625.5,-252 619.5,-252"/>
<text text-anchor="middle" x="556" y="-231.5" font-family="sans" font-size="10.00">uncollpased_convert_to_bam</text>
</g>
<!-- 47&#45;&gt;46 -->
<g id="edge69" class="edge">
<title>47&#45;&gt;46</title>
<path fill="none" stroke="grey" stroke-width="2" d="M556,-215.34C556,-208.75 556,-201.08 556,-193.67"/>
<polygon fill="grey" stroke="grey" stroke-width="2" points="559.5,-193.93 556,-183.93 552.5,-193.93 559.5,-193.93"/>
</g>
<!-- 48&#45;&gt;47 -->
<g id="edge70" class="edge">
<title>48&#45;&gt;47</title>
<path fill="none" stroke="grey" stroke-width="2" d="M545.53,-287.34C546.85,-280.75 548.38,-273.08 549.87,-265.67"/>
<polygon fill="grey" stroke="grey" stroke-width="2" points="553.3,-266.36 551.83,-255.87 546.43,-264.99 553.3,-266.36"/>
</g>
<!-- 49&#45;&gt;0 -->
<g id="edge7" class="edge">
<title>49&#45;&gt;0</title>
<path fill="none" stroke="grey" stroke-width="2" d="M558.04,-71.34C547.56,-63.27 534.94,-53.57 523.43,-44.72"/>
<polygon fill="grey" stroke="grey" stroke-width="2" points="525.73,-42.07 515.67,-38.75 521.46,-47.62 525.73,-42.07"/>
</g>
</g>
</svg>
