<?xml version="1.0" encoding="UTF-8" standalone="no"?>
<!DOCTYPE svg PUBLIC "-//W3C//DTD SVG 1.1//EN"
 "http://www.w3.org/Graphics/SVG/1.1/DTD/svg11.dtd">
<!-- Generated by graphviz version 7.1.0 (20230122.1345)
 -->
<!-- Title: snakemake_dag Pages: 1 -->
<svg width="1135pt" height="2132pt"
 viewBox="0.00 0.00 1135.43 2132.00" xmlns="http://www.w3.org/2000/svg" xmlns:xlink="http://www.w3.org/1999/xlink">
<g id="graph0" class="graph" transform="scale(1 1) rotate(0) translate(4 2128)">
<title>snakemake_dag</title>
<polygon fill="white" stroke="none" points="-4,4 -4,-2128 1131.43,-2128 1131.43,4 -4,4"/>
<!-- 0 -->
<g id="node1" class="node">
<title>0</title>
<path fill="none" stroke="#56d8b9" stroke-width="2" d="M258,-36C258,-36 228,-36 228,-36 222,-36 216,-30 216,-24 216,-24 216,-12 216,-12 216,-6 222,0 228,0 228,0 258,0 258,0 264,0 270,-6 270,-12 270,-12 270,-24 270,-24 270,-30 264,-36 258,-36"/>
<text text-anchor="middle" x="243" y="-15.5" font-family="sans" font-size="10.00">finish</text>
</g>
<!-- 1 -->
<g id="node2" class="node">
<title>1</title>
<path fill="none" stroke="#56d8c9" stroke-width="2" d="M345.5,-684C345.5,-684 198.5,-684 198.5,-684 192.5,-684 186.5,-678 186.5,-672 186.5,-672 186.5,-660 186.5,-660 186.5,-654 192.5,-648 198.5,-648 198.5,-648 345.5,-648 345.5,-648 351.5,-648 357.5,-654 357.5,-660 357.5,-660 357.5,-672 357.5,-672 357.5,-678 351.5,-684 345.5,-684"/>
<text text-anchor="middle" x="272" y="-663.5" font-family="sans" font-size="10.00">filter_sam_by_intersecting_primir</text>
</g>
<!-- 1&#45;&gt;0 -->
<g id="edge2" class="edge">
<title>1&#45;&gt;0</title>
<path fill="none" stroke="grey" stroke-width="2" d="M185.56,-655.96C105.92,-642.29 0,-608.1 0,-523 0,-523 0,-523 0,-161 0,-119.11 0.08,-100.25 31,-72 78.16,-28.91 155,-19.58 202.07,-18.23"/>
<polygon fill="grey" stroke="grey" stroke-width="2" points="202.11,-21.73 212.05,-18.09 202,-14.73 202.11,-21.73"/>
</g>
<!-- 42 -->
<g id="node43" class="node">
<title>42</title>
<path fill="none" stroke="#56a9d8" stroke-width="2" d="M328,-396C328,-396 182,-396 182,-396 176,-396 170,-390 170,-384 170,-384 170,-372 170,-372 170,-366 176,-360 182,-360 182,-360 328,-360 328,-360 334,-360 340,-366 340,-372 340,-372 340,-384 340,-384 340,-390 334,-396 328,-396"/>
<text text-anchor="middle" x="255" y="-375.5" font-family="sans" font-size="10.00">filter_sam_by_intersecting_mirna</text>
</g>
<!-- 1&#45;&gt;42 -->
<g id="edge60" class="edge">
<title>1&#45;&gt;42</title>
<path fill="none" stroke="grey" stroke-width="2" d="M202.94,-647.05C185.73,-639.16 169.28,-627.93 159,-612 132.97,-571.67 142.45,-549.41 158,-504 171.3,-465.17 202.12,-429.09 225.47,-405.77"/>
<polygon fill="grey" stroke="grey" stroke-width="2" points="227.72,-408.47 232.46,-398.99 222.85,-403.44 227.72,-408.47"/>
</g>
<!-- 45 -->
<g id="node46" class="node">
<title>45</title>
<path fill="none" stroke="#565bd8" stroke-width="2" d="M364,-612C364,-612 180,-612 180,-612 174,-612 168,-606 168,-600 168,-600 168,-588 168,-588 168,-582 174,-576 180,-576 180,-576 364,-576 364,-576 370,-576 376,-582 376,-588 376,-588 376,-600 376,-600 376,-606 370,-612 364,-612"/>
<text text-anchor="middle" x="272" y="-591.5" font-family="sans" font-size="10.00">convert_intersecting_primir_sam_to_bam</text>
</g>
<!-- 1&#45;&gt;45 -->
<g id="edge65" class="edge">
<title>1&#45;&gt;45</title>
<path fill="none" stroke="grey" stroke-width="2" d="M272,-647.34C272,-640.75 272,-633.08 272,-625.67"/>
<polygon fill="grey" stroke="grey" stroke-width="2" points="275.5,-625.93 272,-615.93 268.5,-625.93 275.5,-625.93"/>
</g>
<!-- 2 -->
<g id="node3" class="node">
<title>2</title>
<path fill="none" stroke="#d87d56" stroke-width="2" d="M522,-972C522,-972 460,-972 460,-972 454,-972 448,-966 448,-960 448,-960 448,-948 448,-948 448,-942 454,-936 460,-936 460,-936 522,-936 522,-936 528,-936 534,-942 534,-948 534,-948 534,-960 534,-960 534,-966 528,-972 522,-972"/>
<text text-anchor="middle" x="491" y="-951.5" font-family="sans" font-size="10.00">filter_by_indels</text>
</g>
<!-- 2&#45;&gt;1 -->
<g id="edge8" class="edge">
<title>2&#45;&gt;1</title>
<path fill="none" stroke="grey" stroke-width="2" d="M447.26,-946.03C416.61,-939.09 376.53,-925.61 350,-900 293.03,-845.01 277.67,-747.27 273.53,-697.68"/>
<polygon fill="grey" stroke="grey" stroke-width="2" points="277.03,-697.52 272.83,-687.79 270.04,-698.01 277.03,-697.52"/>
</g>
<!-- 37 -->
<g id="node38" class="node">
<title>37</title>
<path fill="none" stroke="#d85656" stroke-width="2" d="M610,-900C610,-900 482,-900 482,-900 476,-900 470,-894 470,-888 470,-888 470,-876 470,-876 470,-870 476,-864 482,-864 482,-864 610,-864 610,-864 616,-864 622,-870 622,-876 622,-876 622,-888 622,-888 622,-894 616,-900 610,-900"/>
<text text-anchor="middle" x="546" y="-879.5" font-family="sans" font-size="10.00">convert_all_alns_sam_to_bam</text>
</g>
<!-- 2&#45;&gt;37 -->
<g id="edge55" class="edge">
<title>2&#45;&gt;37</title>
<path fill="none" stroke="grey" stroke-width="2" d="M504.88,-935.34C510.7,-927.93 517.6,-919.14 524.08,-910.9"/>
<polygon fill="grey" stroke="grey" stroke-width="2" points="526.64,-913.31 530.06,-903.28 521.13,-908.98 526.64,-913.31"/>
</g>
<!-- 3 -->
<g id="node4" class="node">
<title>3</title>
<path fill="none" stroke="#d88556" stroke-width="2" d="M527.5,-1044C527.5,-1044 454.5,-1044 454.5,-1044 448.5,-1044 442.5,-1038 442.5,-1032 442.5,-1032 442.5,-1020 442.5,-1020 442.5,-1014 448.5,-1008 454.5,-1008 454.5,-1008 527.5,-1008 527.5,-1008 533.5,-1008 539.5,-1014 539.5,-1020 539.5,-1020 539.5,-1032 539.5,-1032 539.5,-1038 533.5,-1044 527.5,-1044"/>
<text text-anchor="middle" x="491" y="-1023.5" font-family="sans" font-size="10.00">remove_inferiors</text>
</g>
<!-- 3&#45;&gt;2 -->
<g id="edge9" class="edge">
<title>3&#45;&gt;2</title>
<path fill="none" stroke="grey" stroke-width="2" d="M491,-1007.34C491,-1000.75 491,-993.08 491,-985.67"/>
<polygon fill="grey" stroke="grey" stroke-width="2" points="494.5,-985.93 491,-975.93 487.5,-985.93 494.5,-985.93"/>
</g>
<!-- 4 -->
<g id="node5" class="node">
<title>4</title>
<path fill="none" stroke="#88d856" stroke-width="2" d="M525.5,-1116C525.5,-1116 456.5,-1116 456.5,-1116 450.5,-1116 444.5,-1110 444.5,-1104 444.5,-1104 444.5,-1092 444.5,-1092 444.5,-1086 450.5,-1080 456.5,-1080 456.5,-1080 525.5,-1080 525.5,-1080 531.5,-1080 537.5,-1086 537.5,-1092 537.5,-1092 537.5,-1104 537.5,-1104 537.5,-1110 531.5,-1116 525.5,-1116"/>
<text text-anchor="middle" x="491" y="-1095.5" font-family="sans" font-size="10.00">sort_maps_by_id</text>
</g>
<!-- 4&#45;&gt;3 -->
<g id="edge10" class="edge">
<title>4&#45;&gt;3</title>
<path fill="none" stroke="grey" stroke-width="2" d="M491,-1079.34C491,-1072.75 491,-1065.08 491,-1057.67"/>
<polygon fill="grey" stroke="grey" stroke-width="2" points="494.5,-1057.93 491,-1047.93 487.5,-1057.93 494.5,-1057.93"/>
</g>
<!-- 5 -->
<g id="node6" class="node">
<title>5</title>
<path fill="none" stroke="#56d8a9" stroke-width="2" d="M537,-1188C537,-1188 445,-1188 445,-1188 439,-1188 433,-1182 433,-1176 433,-1176 433,-1164 433,-1164 433,-1158 439,-1152 445,-1152 445,-1152 537,-1152 537,-1152 543,-1152 549,-1158 549,-1164 549,-1164 549,-1176 549,-1176 549,-1182 543,-1188 537,-1188"/>
<text text-anchor="middle" x="491" y="-1167.5" font-family="sans" font-size="10.00">add_header_all_maps</text>
</g>
<!-- 5&#45;&gt;4 -->
<g id="edge11" class="edge">
<title>5&#45;&gt;4</title>
<path fill="none" stroke="grey" stroke-width="2" d="M491,-1151.34C491,-1144.75 491,-1137.08 491,-1129.67"/>
<polygon fill="grey" stroke="grey" stroke-width="2" points="494.5,-1129.93 491,-1119.93 487.5,-1129.93 494.5,-1129.93"/>
</g>
<!-- 6 -->
<g id="node7" class="node">
<title>6</title>
<path fill="none" stroke="#d87556" stroke-width="2" d="M475,-1332C475,-1332 371,-1332 371,-1332 365,-1332 359,-1326 359,-1320 359,-1320 359,-1308 359,-1308 359,-1302 365,-1296 371,-1296 371,-1296 475,-1296 475,-1296 481,-1296 487,-1302 487,-1308 487,-1308 487,-1320 487,-1320 487,-1326 481,-1332 475,-1332"/>
<text text-anchor="middle" x="423" y="-1311.5" font-family="sans" font-size="10.00">create_genome_header</text>
</g>
<!-- 6&#45;&gt;5 -->
<g id="edge13" class="edge">
<title>6&#45;&gt;5</title>
<path fill="none" stroke="grey" stroke-width="2" d="M431.61,-1295.02C443.01,-1271.22 463.24,-1228.97 476.88,-1200.48"/>
<polygon fill="grey" stroke="grey" stroke-width="2" points="479.99,-1202.1 481.15,-1191.57 473.67,-1199.08 479.99,-1202.1"/>
</g>
<!-- 7 -->
<g id="node8" class="node">
<title>7</title>
<path fill="none" stroke="#56d8a2" stroke-width="2" d="M542.5,-1980C542.5,-1980 453.5,-1980 453.5,-1980 447.5,-1980 441.5,-1974 441.5,-1968 441.5,-1968 441.5,-1956 441.5,-1956 441.5,-1950 447.5,-1944 453.5,-1944 453.5,-1944 542.5,-1944 542.5,-1944 548.5,-1944 554.5,-1950 554.5,-1956 554.5,-1956 554.5,-1968 554.5,-1968 554.5,-1974 548.5,-1980 542.5,-1980"/>
<text text-anchor="middle" x="498" y="-1959.5" font-family="sans" font-size="10.00">trim_genome_seq_id</text>
</g>
<!-- 7&#45;&gt;6 -->
<g id="edge14" class="edge">
<title>7&#45;&gt;6</title>
<path fill="none" stroke="grey" stroke-width="2" d="M474.78,-1943.09C445.8,-1918.53 400,-1871.42 400,-1819 400,-1819 400,-1819 400,-1457 400,-1417.98 408.57,-1373.69 415.25,-1345.1"/>
<polygon fill="grey" stroke="grey" stroke-width="2" points="418.56,-1346.27 417.52,-1335.72 411.76,-1344.62 418.56,-1346.27"/>
</g>
<!-- 19 -->
<g id="node20" class="node">
<title>19</title>
<path fill="none" stroke="#97d856" stroke-width="2" d="M979.5,-1908C979.5,-1908 860.5,-1908 860.5,-1908 854.5,-1908 848.5,-1902 848.5,-1896 848.5,-1896 848.5,-1884 848.5,-1884 848.5,-1878 854.5,-1872 860.5,-1872 860.5,-1872 979.5,-1872 979.5,-1872 985.5,-1872 991.5,-1878 991.5,-1884 991.5,-1884 991.5,-1896 991.5,-1896 991.5,-1902 985.5,-1908 979.5,-1908"/>
<text text-anchor="middle" x="920" y="-1887.5" font-family="sans" font-size="10.00">extract_transcriptome_seqs</text>
</g>
<!-- 7&#45;&gt;19 -->
<g id="edge30" class="edge">
<title>7&#45;&gt;19</title>
<path fill="none" stroke="grey" stroke-width="2" d="M555.47,-1953.01C620.73,-1943.73 730.68,-1927.46 834.93,-1908.69"/>
<polygon fill="grey" stroke="grey" stroke-width="2" points="835.42,-1912.16 844.64,-1906.93 834.17,-1905.27 835.42,-1912.16"/>
</g>
<!-- 30 -->
<g id="node31" class="node">
<title>30</title>
<path fill="none" stroke="#56d8b1" stroke-width="2" d="M672.5,-1836C672.5,-1836 565.5,-1836 565.5,-1836 559.5,-1836 553.5,-1830 553.5,-1824 553.5,-1824 553.5,-1812 553.5,-1812 553.5,-1806 559.5,-1800 565.5,-1800 565.5,-1800 672.5,-1800 672.5,-1800 678.5,-1800 684.5,-1806 684.5,-1812 684.5,-1812 684.5,-1824 684.5,-1824 684.5,-1830 678.5,-1836 672.5,-1836"/>
<text text-anchor="middle" x="619" y="-1815.5" font-family="sans" font-size="10.00">map_genome_segemehl</text>
</g>
<!-- 7&#45;&gt;30 -->
<g id="edge43" class="edge">
<title>7&#45;&gt;30</title>
<path fill="none" stroke="grey" stroke-width="2" d="M555.2,-1958.09C590.75,-1952.96 633.95,-1939.98 657,-1908 670.39,-1889.43 658.76,-1865.41 644.95,-1847.01"/>
<polygon fill="grey" stroke="grey" stroke-width="2" points="647.67,-1844.81 638.65,-1839.26 642.24,-1849.22 647.67,-1844.81"/>
</g>
<!-- 31 -->
<g id="node32" class="node">
<title>31</title>
<path fill="none" stroke="#56d8d0" stroke-width="2" d="M636,-1908C636,-1908 478,-1908 478,-1908 472,-1908 466,-1902 466,-1896 466,-1896 466,-1884 466,-1884 466,-1878 472,-1872 478,-1872 478,-1872 636,-1872 636,-1872 642,-1872 648,-1878 648,-1884 648,-1884 648,-1896 648,-1896 648,-1902 642,-1908 636,-1908"/>
<text text-anchor="middle" x="557" y="-1887.5" font-family="sans" font-size="10.00">generate_segemehl_index_genome</text>
</g>
<!-- 7&#45;&gt;31 -->
<g id="edge46" class="edge">
<title>7&#45;&gt;31</title>
<path fill="none" stroke="grey" stroke-width="2" d="M512.89,-1943.34C519.2,-1935.85 526.7,-1926.95 533.71,-1918.63"/>
<polygon fill="grey" stroke="grey" stroke-width="2" points="536.19,-1921.12 539.96,-1911.22 530.84,-1916.61 536.19,-1921.12"/>
</g>
<!-- 33 -->
<g id="node34" class="node">
<title>33</title>
<path fill="none" stroke="#56b9d8" stroke-width="2" d="M562,-1764C562,-1764 458,-1764 458,-1764 452,-1764 446,-1758 446,-1752 446,-1752 446,-1740 446,-1740 446,-1734 452,-1728 458,-1728 458,-1728 562,-1728 562,-1728 568,-1728 574,-1734 574,-1740 574,-1740 574,-1752 574,-1752 574,-1758 568,-1764 562,-1764"/>
<text text-anchor="middle" x="510" y="-1743.5" font-family="sans" font-size="10.00">map_genome_oligomap</text>
</g>
<!-- 7&#45;&gt;33 -->
<g id="edge49" class="edge">
<title>7&#45;&gt;33</title>
<path fill="none" stroke="grey" stroke-width="2" d="M479.4,-1943.2C470.8,-1933.68 461.51,-1921.21 457,-1908 451.83,-1892.86 453.81,-1887.68 457,-1872 463.99,-1837.62 480.77,-1800.96 493.59,-1776.29"/>
<polygon fill="grey" stroke="grey" stroke-width="2" points="496.63,-1778.03 498.26,-1767.56 490.46,-1774.73 496.63,-1778.03"/>
</g>
<!-- 41 -->
<g id="node42" class="node">
<title>41</title>
<path fill="none" stroke="#56c9d8" stroke-width="2" d="M392,-1260C392,-1260 270,-1260 270,-1260 264,-1260 258,-1254 258,-1248 258,-1248 258,-1236 258,-1236 258,-1230 264,-1224 270,-1224 270,-1224 392,-1224 392,-1224 398,-1224 404,-1230 404,-1236 404,-1236 404,-1248 404,-1248 404,-1254 398,-1260 392,-1260"/>
<text text-anchor="middle" x="331" y="-1239.5" font-family="sans" font-size="10.00">create_index_genome_fasta</text>
</g>
<!-- 7&#45;&gt;41 -->
<g id="edge59" class="edge">
<title>7&#45;&gt;41</title>
<path fill="none" stroke="grey" stroke-width="2" d="M448.35,-1943.15C399.12,-1921.89 331,-1881.22 331,-1819 331,-1819 331,-1819 331,-1385 331,-1346.65 331,-1302.48 331,-1273.72"/>
<polygon fill="grey" stroke="grey" stroke-width="2" points="334.5,-1273.96 331,-1263.96 327.5,-1273.96 334.5,-1273.96"/>
</g>
<!-- 8 -->
<g id="node9" class="node">
<title>8</title>
<path fill="none" stroke="#56a2d8" stroke-width="2" d="M630.5,-1260C630.5,-1260 563.5,-1260 563.5,-1260 557.5,-1260 551.5,-1254 551.5,-1248 551.5,-1248 551.5,-1236 551.5,-1236 551.5,-1230 557.5,-1224 563.5,-1224 563.5,-1224 630.5,-1224 630.5,-1224 636.5,-1224 642.5,-1230 642.5,-1236 642.5,-1236 642.5,-1248 642.5,-1248 642.5,-1254 636.5,-1260 630.5,-1260"/>
<text text-anchor="middle" x="597" y="-1239.5" font-family="sans" font-size="10.00">merge_all_maps</text>
</g>
<!-- 8&#45;&gt;5 -->
<g id="edge12" class="edge">
<title>8&#45;&gt;5</title>
<path fill="none" stroke="grey" stroke-width="2" d="M569.98,-1223.15C557.39,-1214.84 542.21,-1204.82 528.54,-1195.79"/>
<polygon fill="grey" stroke="grey" stroke-width="2" points="530.77,-1193.07 520.5,-1190.48 526.92,-1198.91 530.77,-1193.07"/>
</g>
<!-- 9 -->
<g id="node10" class="node">
<title>9</title>
<path fill="none" stroke="#ced856" stroke-width="2" d="M864.5,-1332C864.5,-1332 719.5,-1332 719.5,-1332 713.5,-1332 707.5,-1326 707.5,-1320 707.5,-1320 707.5,-1308 707.5,-1308 707.5,-1302 713.5,-1296 719.5,-1296 719.5,-1296 864.5,-1296 864.5,-1296 870.5,-1296 876.5,-1302 876.5,-1308 876.5,-1308 876.5,-1320 876.5,-1320 876.5,-1326 870.5,-1332 864.5,-1332"/>
<text text-anchor="middle" x="792" y="-1311.5" font-family="sans" font-size="10.00">transcriptome_to_genome_maps</text>
</g>
<!-- 9&#45;&gt;8 -->
<g id="edge16" class="edge">
<title>9&#45;&gt;8</title>
<path fill="none" stroke="grey" stroke-width="2" d="M742.04,-1295.06C715.71,-1285.61 683.27,-1273.97 655.75,-1264.09"/>
<polygon fill="grey" stroke="grey" stroke-width="2" points="656.93,-1260.79 646.34,-1260.71 654.56,-1267.38 656.93,-1260.79"/>
</g>
<!-- 10 -->
<g id="node11" class="node">
<title>10</title>
<path fill="none" stroke="#d8cb56" stroke-width="2" d="M1018,-1404C1018,-1404 832,-1404 832,-1404 826,-1404 820,-1398 820,-1392 820,-1392 820,-1380 820,-1380 820,-1374 826,-1368 832,-1368 832,-1368 1018,-1368 1018,-1368 1024,-1368 1030,-1374 1030,-1380 1030,-1380 1030,-1392 1030,-1392 1030,-1398 1024,-1404 1018,-1404"/>
<text text-anchor="middle" x="925" y="-1383.5" font-family="sans" font-size="10.00">remove_header_transcriptome_mappings</text>
</g>
<!-- 10&#45;&gt;9 -->
<g id="edge17" class="edge">
<title>10&#45;&gt;9</title>
<path fill="none" stroke="grey" stroke-width="2" d="M891.09,-1367.15C874.76,-1358.56 854.93,-1348.12 837.32,-1338.85"/>
<polygon fill="grey" stroke="grey" stroke-width="2" points="839,-1335.78 828.52,-1334.22 835.74,-1341.98 839,-1335.78"/>
</g>
<!-- 11 -->
<g id="node12" class="node">
<title>11</title>
<path fill="none" stroke="#56d87b" stroke-width="2" d="M983.5,-1476C983.5,-1476 866.5,-1476 866.5,-1476 860.5,-1476 854.5,-1470 854.5,-1464 854.5,-1464 854.5,-1452 854.5,-1452 854.5,-1446 860.5,-1440 866.5,-1440 866.5,-1440 983.5,-1440 983.5,-1440 989.5,-1440 995.5,-1446 995.5,-1452 995.5,-1452 995.5,-1464 995.5,-1464 995.5,-1470 989.5,-1476 983.5,-1476"/>
<text text-anchor="middle" x="925" y="-1455.5" font-family="sans" font-size="10.00">filter_transcriptome_by_nh</text>
</g>
<!-- 11&#45;&gt;10 -->
<g id="edge19" class="edge">
<title>11&#45;&gt;10</title>
<path fill="none" stroke="grey" stroke-width="2" d="M925,-1439.34C925,-1432.75 925,-1425.08 925,-1417.67"/>
<polygon fill="grey" stroke="grey" stroke-width="2" points="928.5,-1417.93 925,-1407.93 921.5,-1417.93 928.5,-1417.93"/>
</g>
<!-- 12 -->
<g id="node13" class="node">
<title>12</title>
<path fill="none" stroke="#5682d8" stroke-width="2" d="M986,-1548C986,-1548 864,-1548 864,-1548 858,-1548 852,-1542 852,-1536 852,-1536 852,-1524 852,-1524 852,-1518 858,-1512 864,-1512 864,-1512 986,-1512 986,-1512 992,-1512 998,-1518 998,-1524 998,-1524 998,-1536 998,-1536 998,-1542 992,-1548 986,-1548"/>
<text text-anchor="middle" x="925" y="-1527.5" font-family="sans" font-size="10.00">merge_transcriptome_maps</text>
</g>
<!-- 12&#45;&gt;11 -->
<g id="edge20" class="edge">
<title>12&#45;&gt;11</title>
<path fill="none" stroke="grey" stroke-width="2" d="M925,-1511.34C925,-1504.75 925,-1497.08 925,-1489.67"/>
<polygon fill="grey" stroke="grey" stroke-width="2" points="928.5,-1489.93 925,-1479.93 921.5,-1489.93 928.5,-1489.93"/>
</g>
<!-- 13 -->
<g id="node14" class="node">
<title>13</title>
<path fill="none" stroke="#d86656" stroke-width="2" d="M1073.5,-1692C1073.5,-1692 940.5,-1692 940.5,-1692 934.5,-1692 928.5,-1686 928.5,-1680 928.5,-1680 928.5,-1668 928.5,-1668 928.5,-1662 934.5,-1656 940.5,-1656 940.5,-1656 1073.5,-1656 1073.5,-1656 1079.5,-1656 1085.5,-1662 1085.5,-1668 1085.5,-1668 1085.5,-1680 1085.5,-1680 1085.5,-1686 1079.5,-1692 1073.5,-1692"/>
<text text-anchor="middle" x="1007" y="-1671.5" font-family="sans" font-size="10.00">map_transcriptome_segemehl</text>
</g>
<!-- 13&#45;&gt;12 -->
<g id="edge22" class="edge">
<title>13&#45;&gt;12</title>
<path fill="none" stroke="grey" stroke-width="2" d="M996.61,-1655.02C982.81,-1631.12 958.26,-1588.59 941.8,-1560.1"/>
<polygon fill="grey" stroke="grey" stroke-width="2" points="944.85,-1558.37 936.81,-1551.46 938.78,-1561.87 944.85,-1558.37"/>
</g>
<!-- 14 -->
<g id="node15" class="node">
<title>14</title>
<path fill="none" stroke="#d6d856" stroke-width="2" d="M818,-1908C818,-1908 716,-1908 716,-1908 710,-1908 704,-1902 704,-1896 704,-1896 704,-1884 704,-1884 704,-1878 710,-1872 716,-1872 716,-1872 818,-1872 818,-1872 824,-1872 830,-1878 830,-1884 830,-1884 830,-1896 830,-1896 830,-1902 824,-1908 818,-1908"/>
<text text-anchor="middle" x="767" y="-1887.5" font-family="sans" font-size="10.00">collapse_identical_reads</text>
</g>
<!-- 14&#45;&gt;13 -->
<g id="edge23" class="edge">
<title>14&#45;&gt;13</title>
<path fill="none" stroke="grey" stroke-width="2" d="M830.96,-1873.81C880.71,-1861.73 945.44,-1845.35 971,-1836 1040.44,-1810.58 1081.62,-1826.59 1121,-1764 1129.52,-1750.46 1129.6,-1741.49 1121,-1728 1113.1,-1715.62 1101.48,-1706.08 1088.64,-1698.75"/>
<polygon fill="grey" stroke="grey" stroke-width="2" points="1090.29,-1695.67 1079.8,-1694.24 1087.11,-1701.91 1090.29,-1695.67"/>
</g>
<!-- 23 -->
<g id="node24" class="node">
<title>23</title>
<path fill="none" stroke="#a7d856" stroke-width="2" d="M823,-1836C823,-1836 715,-1836 715,-1836 709,-1836 703,-1830 703,-1824 703,-1824 703,-1812 703,-1812 703,-1806 709,-1800 715,-1800 715,-1800 823,-1800 823,-1800 829,-1800 835,-1806 835,-1812 835,-1812 835,-1824 835,-1824 835,-1830 829,-1836 823,-1836"/>
<text text-anchor="middle" x="769" y="-1815.5" font-family="sans" font-size="10.00">filter_fasta_for_oligomap</text>
</g>
<!-- 14&#45;&gt;23 -->
<g id="edge36" class="edge">
<title>14&#45;&gt;23</title>
<path fill="none" stroke="grey" stroke-width="2" d="M767.5,-1871.34C767.69,-1864.75 767.91,-1857.08 768.12,-1849.67"/>
<polygon fill="grey" stroke="grey" stroke-width="2" points="771.61,-1850.02 768.4,-1839.93 764.62,-1849.82 771.61,-1850.02"/>
</g>
<!-- 14&#45;&gt;30 -->
<g id="edge44" class="edge">
<title>14&#45;&gt;30</title>
<path fill="none" stroke="grey" stroke-width="2" d="M729.27,-1871.15C710.81,-1862.43 688.36,-1851.81 668.54,-1842.43"/>
<polygon fill="grey" stroke="grey" stroke-width="2" points="670.19,-1839.34 659.65,-1838.23 667.2,-1845.67 670.19,-1839.34"/>
</g>
<!-- 15 -->
<g id="node16" class="node">
<title>15</title>
<path fill="none" stroke="#5692d8" stroke-width="2" d="M804,-1980C804,-1980 730,-1980 730,-1980 724,-1980 718,-1974 718,-1968 718,-1968 718,-1956 718,-1956 718,-1950 724,-1944 730,-1944 730,-1944 804,-1944 804,-1944 810,-1944 816,-1950 816,-1956 816,-1956 816,-1968 816,-1968 816,-1974 810,-1980 804,-1980"/>
<text text-anchor="middle" x="767" y="-1959.5" font-family="sans" font-size="10.00">remove_adapters</text>
</g>
<!-- 15&#45;&gt;14 -->
<g id="edge26" class="edge">
<title>15&#45;&gt;14</title>
<path fill="none" stroke="grey" stroke-width="2" d="M767,-1943.34C767,-1936.75 767,-1929.08 767,-1921.67"/>
<polygon fill="grey" stroke="grey" stroke-width="2" points="770.5,-1921.93 767,-1911.93 763.5,-1921.93 770.5,-1921.93"/>
</g>
<!-- 16 -->
<g id="node17" class="node">
<title>16</title>
<path fill="none" stroke="#56d8c1" stroke-width="2" d="M793,-2052C793,-2052 741,-2052 741,-2052 735,-2052 729,-2046 729,-2040 729,-2040 729,-2028 729,-2028 729,-2022 735,-2016 741,-2016 741,-2016 793,-2016 793,-2016 799,-2016 805,-2022 805,-2028 805,-2028 805,-2040 805,-2040 805,-2046 799,-2052 793,-2052"/>
<text text-anchor="middle" x="767" y="-2031.5" font-family="sans" font-size="10.00">format_fasta</text>
</g>
<!-- 16&#45;&gt;15 -->
<g id="edge27" class="edge">
<title>16&#45;&gt;15</title>
<path fill="none" stroke="grey" stroke-width="2" d="M767,-2015.34C767,-2008.75 767,-2001.08 767,-1993.67"/>
<polygon fill="grey" stroke="grey" stroke-width="2" points="770.5,-1993.93 767,-1983.93 763.5,-1993.93 770.5,-1993.93"/>
</g>
<!-- 17 -->
<g id="node18" class="node">
<title>17</title>
<path fill="none" stroke="#56d863" stroke-width="2" d="M782,-2124C782,-2124 752,-2124 752,-2124 746,-2124 740,-2118 740,-2112 740,-2112 740,-2100 740,-2100 740,-2094 746,-2088 752,-2088 752,-2088 782,-2088 782,-2088 788,-2088 794,-2094 794,-2100 794,-2100 794,-2112 794,-2112 794,-2118 788,-2124 782,-2124"/>
<text text-anchor="middle" x="767" y="-2103.5" font-family="sans" font-size="10.00">start</text>
</g>
<!-- 17&#45;&gt;16 -->
<g id="edge28" class="edge">
<title>17&#45;&gt;16</title>
<path fill="none" stroke="grey" stroke-width="2" d="M767,-2087.34C767,-2080.75 767,-2073.08 767,-2065.67"/>
<polygon fill="grey" stroke="grey" stroke-width="2" points="770.5,-2065.93 767,-2055.93 763.5,-2065.93 770.5,-2065.93"/>
</g>
<!-- 18 -->
<g id="node19" class="node">
<title>18</title>
<path fill="none" stroke="#56d89a" stroke-width="2" d="M949.5,-1836C949.5,-1836 872.5,-1836 872.5,-1836 866.5,-1836 860.5,-1830 860.5,-1824 860.5,-1824 860.5,-1812 860.5,-1812 860.5,-1806 866.5,-1800 872.5,-1800 872.5,-1800 949.5,-1800 949.5,-1800 955.5,-1800 961.5,-1806 961.5,-1812 961.5,-1812 961.5,-1824 961.5,-1824 961.5,-1830 955.5,-1836 949.5,-1836"/>
<text text-anchor="middle" x="911" y="-1815.5" font-family="sans" font-size="10.00">trim_fasta_seq_ids</text>
</g>
<!-- 18&#45;&gt;13 -->
<g id="edge24" class="edge">
<title>18&#45;&gt;13</title>
<path fill="none" stroke="grey" stroke-width="2" d="M900.63,-1799.21C891.03,-1780.18 880.16,-1749.77 894,-1728 901.82,-1715.69 913.34,-1706.2 926.07,-1698.88"/>
<polygon fill="grey" stroke="grey" stroke-width="2" points="927.52,-1702.07 934.81,-1694.38 924.32,-1695.84 927.52,-1702.07"/>
</g>
<!-- 20 -->
<g id="node21" class="node">
<title>20</title>
<path fill="none" stroke="#5663d8" stroke-width="2" d="M1099.5,-1764C1099.5,-1764 914.5,-1764 914.5,-1764 908.5,-1764 902.5,-1758 902.5,-1752 902.5,-1752 902.5,-1740 902.5,-1740 902.5,-1734 908.5,-1728 914.5,-1728 914.5,-1728 1099.5,-1728 1099.5,-1728 1105.5,-1728 1111.5,-1734 1111.5,-1740 1111.5,-1740 1111.5,-1752 1111.5,-1752 1111.5,-1758 1105.5,-1764 1099.5,-1764"/>
<text text-anchor="middle" x="1007" y="-1743.5" font-family="sans" font-size="10.00">generate_segemehl_index_transcriptome</text>
</g>
<!-- 18&#45;&gt;20 -->
<g id="edge31" class="edge">
<title>18&#45;&gt;20</title>
<path fill="none" stroke="grey" stroke-width="2" d="M935.47,-1799.15C946.64,-1791.01 960.07,-1781.22 972.27,-1772.33"/>
<polygon fill="grey" stroke="grey" stroke-width="2" points="974.11,-1775.32 980.13,-1766.6 969.98,-1769.66 974.11,-1775.32"/>
</g>
<!-- 22 -->
<g id="node23" class="node">
<title>22</title>
<path fill="none" stroke="#d8d356" stroke-width="2" d="M834,-1764C834,-1764 704,-1764 704,-1764 698,-1764 692,-1758 692,-1752 692,-1752 692,-1740 692,-1740 692,-1734 698,-1728 704,-1728 704,-1728 834,-1728 834,-1728 840,-1728 846,-1734 846,-1740 846,-1740 846,-1752 846,-1752 846,-1758 840,-1764 834,-1764"/>
<text text-anchor="middle" x="769" y="-1743.5" font-family="sans" font-size="10.00">map_transcriptome_oligomap</text>
</g>
<!-- 18&#45;&gt;22 -->
<g id="edge35" class="edge">
<title>18&#45;&gt;22</title>
<path fill="none" stroke="grey" stroke-width="2" d="M874.8,-1799.15C857.11,-1790.43 835.59,-1779.82 816.58,-1770.46"/>
<polygon fill="grey" stroke="grey" stroke-width="2" points="818.37,-1767.43 807.85,-1766.15 815.27,-1773.71 818.37,-1767.43"/>
</g>
<!-- 19&#45;&gt;18 -->
<g id="edge29" class="edge">
<title>19&#45;&gt;18</title>
<path fill="none" stroke="grey" stroke-width="2" d="M917.73,-1871.34C916.88,-1864.75 915.9,-1857.08 914.94,-1849.67"/>
<polygon fill="grey" stroke="grey" stroke-width="2" points="918.43,-1849.38 913.69,-1839.9 911.49,-1850.27 918.43,-1849.38"/>
</g>
<!-- 20&#45;&gt;13 -->
<g id="edge25" class="edge">
<title>20&#45;&gt;13</title>
<path fill="none" stroke="grey" stroke-width="2" d="M1007,-1727.34C1007,-1720.75 1007,-1713.08 1007,-1705.67"/>
<polygon fill="grey" stroke="grey" stroke-width="2" points="1010.5,-1705.93 1007,-1695.93 1003.5,-1705.93 1010.5,-1705.93"/>
</g>
<!-- 21 -->
<g id="node22" class="node">
<title>21</title>
<path fill="none" stroke="#68d856" stroke-width="2" d="M905.5,-1620C905.5,-1620 762.5,-1620 762.5,-1620 756.5,-1620 750.5,-1614 750.5,-1608 750.5,-1608 750.5,-1596 750.5,-1596 750.5,-1590 756.5,-1584 762.5,-1584 762.5,-1584 905.5,-1584 905.5,-1584 911.5,-1584 917.5,-1590 917.5,-1596 917.5,-1596 917.5,-1608 917.5,-1608 917.5,-1614 911.5,-1620 905.5,-1620"/>
<text text-anchor="middle" x="834" y="-1599.5" font-family="sans" font-size="10.00">oligomap_transcriptome_to_sam</text>
</g>
<!-- 21&#45;&gt;12 -->
<g id="edge21" class="edge">
<title>21&#45;&gt;12</title>
<path fill="none" stroke="grey" stroke-width="2" d="M856.96,-1583.34C867.44,-1575.27 880.06,-1565.57 891.57,-1556.72"/>
<polygon fill="grey" stroke="grey" stroke-width="2" points="893.54,-1559.62 899.33,-1550.75 889.27,-1554.07 893.54,-1559.62"/>
</g>
<!-- 22&#45;&gt;21 -->
<g id="edge32" class="edge">
<title>22&#45;&gt;21</title>
<path fill="none" stroke="grey" stroke-width="2" d="M758.04,-1727.23C748.01,-1708.48 736.47,-1678.57 749,-1656 755.46,-1644.36 765.65,-1634.94 776.77,-1627.46"/>
<polygon fill="grey" stroke="grey" stroke-width="2" points="778.31,-1630.62 785.04,-1622.44 774.67,-1624.64 778.31,-1630.62"/>
</g>
<!-- 24 -->
<g id="node25" class="node">
<title>24</title>
<path fill="none" stroke="#56d882" stroke-width="2" d="M898,-1692C898,-1692 770,-1692 770,-1692 764,-1692 758,-1686 758,-1680 758,-1680 758,-1668 758,-1668 758,-1662 764,-1656 770,-1656 770,-1656 898,-1656 898,-1656 904,-1656 910,-1662 910,-1668 910,-1668 910,-1680 910,-1680 910,-1686 904,-1692 898,-1692"/>
<text text-anchor="middle" x="834" y="-1671.5" font-family="sans" font-size="10.00">sort_transcriptome_oligomap</text>
</g>
<!-- 22&#45;&gt;24 -->
<g id="edge37" class="edge">
<title>22&#45;&gt;24</title>
<path fill="none" stroke="grey" stroke-width="2" d="M785.4,-1727.34C792.43,-1719.77 800.8,-1710.75 808.6,-1702.35"/>
<polygon fill="grey" stroke="grey" stroke-width="2" points="811.08,-1704.83 815.32,-1695.12 805.95,-1700.07 811.08,-1704.83"/>
</g>
<!-- 23&#45;&gt;22 -->
<g id="edge34" class="edge">
<title>23&#45;&gt;22</title>
<path fill="none" stroke="grey" stroke-width="2" d="M769,-1799.34C769,-1792.75 769,-1785.08 769,-1777.67"/>
<polygon fill="grey" stroke="grey" stroke-width="2" points="772.5,-1777.93 769,-1767.93 765.5,-1777.93 772.5,-1777.93"/>
</g>
<!-- 23&#45;&gt;33 -->
<g id="edge50" class="edge">
<title>23&#45;&gt;33</title>
<path fill="none" stroke="grey" stroke-width="2" d="M702.64,-1799.06C667.36,-1789.53 623.8,-1777.76 587.03,-1767.82"/>
<polygon fill="grey" stroke="grey" stroke-width="2" points="588.34,-1764.55 577.77,-1765.32 586.51,-1771.3 588.34,-1764.55"/>
</g>
<!-- 24&#45;&gt;21 -->
<g id="edge33" class="edge">
<title>24&#45;&gt;21</title>
<path fill="none" stroke="grey" stroke-width="2" d="M834,-1655.34C834,-1648.75 834,-1641.08 834,-1633.67"/>
<polygon fill="grey" stroke="grey" stroke-width="2" points="837.5,-1633.93 834,-1623.93 830.5,-1633.93 837.5,-1633.93"/>
</g>
<!-- 25 -->
<g id="node26" class="node">
<title>25</title>
<path fill="none" stroke="#56d88a" stroke-width="2" d="M790,-1404C790,-1404 716,-1404 716,-1404 710,-1404 704,-1398 704,-1392 704,-1392 704,-1380 704,-1380 704,-1374 710,-1368 716,-1368 716,-1368 790,-1368 790,-1368 796,-1368 802,-1374 802,-1380 802,-1380 802,-1392 802,-1392 802,-1398 796,-1404 790,-1404"/>
<text text-anchor="middle" x="753" y="-1383.5" font-family="sans" font-size="10.00">exons_gtf_to_bed</text>
</g>
<!-- 25&#45;&gt;9 -->
<g id="edge18" class="edge">
<title>25&#45;&gt;9</title>
<path fill="none" stroke="grey" stroke-width="2" d="M762.84,-1367.34C766.74,-1360.34 771.32,-1352.12 775.69,-1344.28"/>
<polygon fill="grey" stroke="grey" stroke-width="2" points="778.74,-1345.99 780.55,-1335.55 772.63,-1342.58 778.74,-1345.99"/>
</g>
<!-- 26 -->
<g id="node27" class="node">
<title>26</title>
<path fill="none" stroke="#d8a456" stroke-width="2" d="M782,-1476C782,-1476 724,-1476 724,-1476 718,-1476 712,-1470 712,-1464 712,-1464 712,-1452 712,-1452 712,-1446 718,-1440 724,-1440 724,-1440 782,-1440 782,-1440 788,-1440 794,-1446 794,-1452 794,-1452 794,-1464 794,-1464 794,-1470 788,-1476 782,-1476"/>
<text text-anchor="middle" x="753" y="-1455.5" font-family="sans" font-size="10.00">get_exons_gtf</text>
</g>
<!-- 26&#45;&gt;25 -->
<g id="edge38" class="edge">
<title>26&#45;&gt;25</title>
<path fill="none" stroke="grey" stroke-width="2" d="M753,-1439.34C753,-1432.75 753,-1425.08 753,-1417.67"/>
<polygon fill="grey" stroke="grey" stroke-width="2" points="756.5,-1417.93 753,-1407.93 749.5,-1417.93 756.5,-1417.93"/>
</g>
<!-- 27 -->
<g id="node28" class="node">
<title>27</title>
<path fill="none" stroke="#569ad8" stroke-width="2" d="M677,-1332C677,-1332 517,-1332 517,-1332 511,-1332 505,-1326 505,-1320 505,-1320 505,-1308 505,-1308 505,-1302 511,-1296 517,-1296 517,-1296 677,-1296 677,-1296 683,-1296 689,-1302 689,-1308 689,-1308 689,-1320 689,-1320 689,-1326 683,-1332 677,-1332"/>
<text text-anchor="middle" x="597" y="-1311.5" font-family="sans" font-size="10.00">remove_header_genome_mappings</text>
</g>
<!-- 27&#45;&gt;8 -->
<g id="edge15" class="edge">
<title>27&#45;&gt;8</title>
<path fill="none" stroke="grey" stroke-width="2" d="M597,-1295.34C597,-1288.75 597,-1281.08 597,-1273.67"/>
<polygon fill="grey" stroke="grey" stroke-width="2" points="600.5,-1273.93 597,-1263.93 593.5,-1273.93 600.5,-1273.93"/>
</g>
<!-- 28 -->
<g id="node29" class="node">
<title>28</title>
<path fill="none" stroke="#56b1d8" stroke-width="2" d="M642.5,-1476C642.5,-1476 551.5,-1476 551.5,-1476 545.5,-1476 539.5,-1470 539.5,-1464 539.5,-1464 539.5,-1452 539.5,-1452 539.5,-1446 545.5,-1440 551.5,-1440 551.5,-1440 642.5,-1440 642.5,-1440 648.5,-1440 654.5,-1446 654.5,-1452 654.5,-1452 654.5,-1464 654.5,-1464 654.5,-1470 648.5,-1476 642.5,-1476"/>
<text text-anchor="middle" x="597" y="-1455.5" font-family="sans" font-size="10.00">filter_genome_by_nh</text>
</g>
<!-- 28&#45;&gt;27 -->
<g id="edge39" class="edge">
<title>28&#45;&gt;27</title>
<path fill="none" stroke="grey" stroke-width="2" d="M597,-1439.02C597,-1415.54 597,-1374.11 597,-1345.64"/>
<polygon fill="grey" stroke="grey" stroke-width="2" points="600.5,-1345.87 597,-1335.87 593.5,-1345.87 600.5,-1345.87"/>
</g>
<!-- 29 -->
<g id="node30" class="node">
<title>29</title>
<path fill="none" stroke="#d86e56" stroke-width="2" d="M645,-1548C645,-1548 549,-1548 549,-1548 543,-1548 537,-1542 537,-1536 537,-1536 537,-1524 537,-1524 537,-1518 543,-1512 549,-1512 549,-1512 645,-1512 645,-1512 651,-1512 657,-1518 657,-1524 657,-1524 657,-1536 657,-1536 657,-1542 651,-1548 645,-1548"/>
<text text-anchor="middle" x="597" y="-1527.5" font-family="sans" font-size="10.00">merge_genome_maps</text>
</g>
<!-- 29&#45;&gt;28 -->
<g id="edge40" class="edge">
<title>29&#45;&gt;28</title>
<path fill="none" stroke="grey" stroke-width="2" d="M597,-1511.34C597,-1504.75 597,-1497.08 597,-1489.67"/>
<polygon fill="grey" stroke="grey" stroke-width="2" points="600.5,-1489.93 597,-1479.93 593.5,-1489.93 600.5,-1489.93"/>
</g>
<!-- 30&#45;&gt;29 -->
<g id="edge41" class="edge">
<title>30&#45;&gt;29</title>
<path fill="none" stroke="grey" stroke-width="2" d="M617.62,-1799.11C613.97,-1751.56 603.97,-1621.6 599.37,-1561.83"/>
<polygon fill="grey" stroke="grey" stroke-width="2" points="602.86,-1561.6 598.61,-1551.9 595.89,-1562.14 602.86,-1561.6"/>
</g>
<!-- 31&#45;&gt;30 -->
<g id="edge45" class="edge">
<title>31&#45;&gt;30</title>
<path fill="none" stroke="grey" stroke-width="2" d="M572.65,-1871.34C579.28,-1863.85 587.16,-1854.95 594.53,-1846.63"/>
<polygon fill="grey" stroke="grey" stroke-width="2" points="597.13,-1848.97 601.14,-1839.17 591.89,-1844.33 597.13,-1848.97"/>
</g>
<!-- 32 -->
<g id="node33" class="node">
<title>32</title>
<path fill="none" stroke="#9fd856" stroke-width="2" d="M580,-1620C580,-1620 464,-1620 464,-1620 458,-1620 452,-1614 452,-1608 452,-1608 452,-1596 452,-1596 452,-1590 458,-1584 464,-1584 464,-1584 580,-1584 580,-1584 586,-1584 592,-1590 592,-1596 592,-1596 592,-1608 592,-1608 592,-1614 586,-1620 580,-1620"/>
<text text-anchor="middle" x="522" y="-1599.5" font-family="sans" font-size="10.00">oligomap_genome_to_sam</text>
</g>
<!-- 32&#45;&gt;29 -->
<g id="edge42" class="edge">
<title>32&#45;&gt;29</title>
<path fill="none" stroke="grey" stroke-width="2" d="M540.93,-1583.34C549.3,-1575.52 559.33,-1566.16 568.57,-1557.53"/>
<polygon fill="grey" stroke="grey" stroke-width="2" points="570.68,-1560.35 575.61,-1550.97 565.91,-1555.23 570.68,-1560.35"/>
</g>
<!-- 33&#45;&gt;32 -->
<g id="edge47" class="edge">
<title>33&#45;&gt;32</title>
<path fill="none" stroke="grey" stroke-width="2" d="M535.31,-1727.06C546,-1717.92 557.27,-1705.83 563,-1692 569.12,-1677.22 568.17,-1671.14 563,-1656 559.93,-1647.02 554.66,-1638.38 548.89,-1630.78"/>
<polygon fill="grey" stroke="grey" stroke-width="2" points="551.61,-1628.58 542.53,-1623.12 546.23,-1633.05 551.61,-1628.58"/>
</g>
<!-- 34 -->
<g id="node35" class="node">
<title>34</title>
<path fill="none" stroke="#56d892" stroke-width="2" d="M542,-1692C542,-1692 440,-1692 440,-1692 434,-1692 428,-1686 428,-1680 428,-1680 428,-1668 428,-1668 428,-1662 434,-1656 440,-1656 440,-1656 542,-1656 542,-1656 548,-1656 554,-1662 554,-1668 554,-1668 554,-1680 554,-1680 554,-1686 548,-1692 542,-1692"/>
<text text-anchor="middle" x="491" y="-1671.5" font-family="sans" font-size="10.00">sort_genome_oligomap</text>
</g>
<!-- 33&#45;&gt;34 -->
<g id="edge51" class="edge">
<title>33&#45;&gt;34</title>
<path fill="none" stroke="grey" stroke-width="2" d="M505.21,-1727.34C503.4,-1720.67 501.28,-1712.89 499.25,-1705.39"/>
<polygon fill="grey" stroke="grey" stroke-width="2" points="502.65,-1704.56 496.65,-1695.82 495.89,-1706.39 502.65,-1704.56"/>
</g>
<!-- 34&#45;&gt;32 -->
<g id="edge48" class="edge">
<title>34&#45;&gt;32</title>
<path fill="none" stroke="grey" stroke-width="2" d="M498.82,-1655.34C501.88,-1648.43 505.48,-1640.31 508.91,-1632.56"/>
<polygon fill="grey" stroke="grey" stroke-width="2" points="512,-1634.23 512.85,-1623.67 505.6,-1631.4 512,-1634.23"/>
</g>
<!-- 35 -->
<g id="node36" class="node">
<title>35</title>
<path fill="none" stroke="#567bd8" stroke-width="2" d="M561,-756C561,-756 445,-756 445,-756 439,-756 433,-750 433,-744 433,-744 433,-732 433,-732 433,-726 439,-720 445,-720 445,-720 561,-720 561,-720 567,-720 573,-726 573,-732 573,-732 573,-744 573,-744 573,-750 567,-756 561,-756"/>
<text text-anchor="middle" x="503" y="-735.5" font-family="sans" font-size="10.00">intersect_extended_primir</text>
</g>
<!-- 35&#45;&gt;1 -->
<g id="edge7" class="edge">
<title>35&#45;&gt;1</title>
<path fill="none" stroke="grey" stroke-width="2" d="M443.81,-719.06C413.11,-709.76 375.38,-698.33 343.11,-688.55"/>
<polygon fill="grey" stroke="grey" stroke-width="2" points="344.52,-685.32 333.93,-685.77 342.49,-692.02 344.52,-685.32"/>
</g>
<!-- 50 -->
<g id="node51" class="node">
<title>50</title>
<path fill="none" stroke="#c6d856" stroke-width="2" d="M535,-612C535,-612 471,-612 471,-612 465,-612 459,-606 459,-600 459,-600 459,-588 459,-588 459,-582 465,-576 471,-576 471,-576 535,-576 535,-576 541,-576 547,-582 547,-588 547,-588 547,-600 547,-600 547,-606 541,-612 535,-612"/>
<text text-anchor="middle" x="503" y="-591.5" font-family="sans" font-size="10.00">quantify_primir</text>
</g>
<!-- 35&#45;&gt;50 -->
<g id="edge72" class="edge">
<title>35&#45;&gt;50</title>
<path fill="none" stroke="grey" stroke-width="2" d="M503,-719.02C503,-695.54 503,-654.11 503,-625.64"/>
<polygon fill="grey" stroke="grey" stroke-width="2" points="506.5,-625.87 503,-615.87 499.5,-625.87 506.5,-625.87"/>
</g>
<!-- 36 -->
<g id="node37" class="node">
<title>36</title>
<path fill="none" stroke="#56c1d8" stroke-width="2" d="M622,-828C622,-828 492,-828 492,-828 486,-828 480,-822 480,-816 480,-816 480,-804 480,-804 480,-798 486,-792 492,-792 492,-792 622,-792 622,-792 628,-792 634,-798 634,-804 634,-804 634,-816 634,-816 634,-822 628,-828 622,-828"/>
<text text-anchor="middle" x="557" y="-807.5" font-family="sans" font-size="10.00">sort_all_alns_bam_by_position</text>
</g>
<!-- 36&#45;&gt;35 -->
<g id="edge53" class="edge">
<title>36&#45;&gt;35</title>
<path fill="none" stroke="grey" stroke-width="2" d="M543.37,-791.34C537.73,-784.01 531.03,-775.34 524.74,-767.18"/>
<polygon fill="grey" stroke="grey" stroke-width="2" points="527.54,-765.08 518.66,-759.3 522,-769.35 527.54,-765.08"/>
</g>
<!-- 37&#45;&gt;36 -->
<g id="edge54" class="edge">
<title>37&#45;&gt;36</title>
<path fill="none" stroke="grey" stroke-width="2" d="M548.78,-863.34C549.81,-856.75 551.02,-849.08 552.18,-841.67"/>
<polygon fill="grey" stroke="grey" stroke-width="2" points="555.62,-842.31 553.72,-831.89 548.71,-841.23 555.62,-842.31"/>
</g>
<!-- 38 -->
<g id="node39" class="node">
<title>38</title>
<path fill="none" stroke="#568ad8" stroke-width="2" d="M449.5,-828C449.5,-828 340.5,-828 340.5,-828 334.5,-828 328.5,-822 328.5,-816 328.5,-816 328.5,-804 328.5,-804 328.5,-798 334.5,-792 340.5,-792 340.5,-792 449.5,-792 449.5,-792 455.5,-792 461.5,-798 461.5,-804 461.5,-804 461.5,-816 461.5,-816 461.5,-822 455.5,-828 449.5,-828"/>
<text text-anchor="middle" x="395" y="-807.5" font-family="sans" font-size="10.00">extend_mirs_annotations</text>
</g>
<!-- 38&#45;&gt;35 -->
<g id="edge52" class="edge">
<title>38&#45;&gt;35</title>
<path fill="none" stroke="grey" stroke-width="2" d="M422.53,-791.15C435.35,-782.84 450.82,-772.82 464.75,-763.79"/>
<polygon fill="grey" stroke="grey" stroke-width="2" points="466.49,-766.83 472.98,-758.46 462.68,-760.96 466.49,-766.83"/>
</g>
<!-- 43 -->
<g id="node44" class="node">
<title>43</title>
<path fill="none" stroke="#56d85b" stroke-width="2" d="M377,-468C377,-468 263,-468 263,-468 257,-468 251,-462 251,-456 251,-456 251,-444 251,-444 251,-438 257,-432 263,-432 263,-432 377,-432 377,-432 383,-432 389,-438 389,-444 389,-444 389,-456 389,-456 389,-462 383,-468 377,-468"/>
<text text-anchor="middle" x="320" y="-447.5" font-family="sans" font-size="10.00">intersect_extended_mirna</text>
</g>
<!-- 38&#45;&gt;43 -->
<g id="edge63" class="edge">
<title>38&#45;&gt;43</title>
<path fill="none" stroke="grey" stroke-width="2" d="M397.07,-791.1C400,-764.2 405,-711.73 405,-667 405,-667 405,-667 405,-593 405,-552.55 407.22,-538.43 386,-504 379.6,-493.62 370.42,-484.4 360.92,-476.68"/>
<polygon fill="grey" stroke="grey" stroke-width="2" points="363.13,-473.95 353.04,-470.73 358.91,-479.54 363.13,-473.95"/>
</g>
<!-- 39 -->
<g id="node40" class="node">
<title>39</title>
<path fill="none" stroke="#56d0d8" stroke-width="2" d="M439,-900C439,-900 371,-900 371,-900 365,-900 359,-894 359,-888 359,-888 359,-876 359,-876 359,-870 365,-864 371,-864 371,-864 439,-864 439,-864 445,-864 451,-870 451,-876 451,-876 451,-888 451,-888 451,-894 445,-900 439,-900"/>
<text text-anchor="middle" x="405" y="-879.5" font-family="sans" font-size="10.00">map_chr_names</text>
</g>
<!-- 39&#45;&gt;38 -->
<g id="edge57" class="edge">
<title>39&#45;&gt;38</title>
<path fill="none" stroke="grey" stroke-width="2" d="M402.48,-863.34C401.54,-856.75 400.44,-849.08 399.38,-841.67"/>
<polygon fill="grey" stroke="grey" stroke-width="2" points="402.86,-841.3 397.99,-831.9 395.93,-842.29 402.86,-841.3"/>
</g>
<!-- 40 -->
<g id="node41" class="node">
<title>40</title>
<path fill="none" stroke="#d8c356" stroke-width="2" d="M362,-1188C362,-1188 300,-1188 300,-1188 294,-1188 288,-1182 288,-1176 288,-1176 288,-1164 288,-1164 288,-1158 294,-1152 300,-1152 300,-1152 362,-1152 362,-1152 368,-1152 374,-1158 374,-1164 374,-1164 374,-1176 374,-1176 374,-1182 368,-1188 362,-1188"/>
<text text-anchor="middle" x="331" y="-1167.5" font-family="sans" font-size="10.00">extract_chr_len</text>
</g>
<!-- 40&#45;&gt;38 -->
<g id="edge56" class="edge">
<title>40&#45;&gt;38</title>
<path fill="none" stroke="grey" stroke-width="2" d="M331,-1151.07C331,-1124.13 331,-1071.62 331,-1027 331,-1027 331,-1027 331,-953 331,-912.55 332.15,-900.29 350,-864 354.45,-854.96 360.77,-846.19 367.28,-838.46"/>
<polygon fill="grey" stroke="grey" stroke-width="2" points="369.7,-841.01 373.78,-831.23 364.5,-836.33 369.7,-841.01"/>
</g>
<!-- 41&#45;&gt;40 -->
<g id="edge58" class="edge">
<title>41&#45;&gt;40</title>
<path fill="none" stroke="grey" stroke-width="2" d="M331,-1223.34C331,-1216.75 331,-1209.08 331,-1201.67"/>
<polygon fill="grey" stroke="grey" stroke-width="2" points="334.5,-1201.93 331,-1191.93 327.5,-1201.93 334.5,-1201.93"/>
</g>
<!-- 42&#45;&gt;0 -->
<g id="edge4" class="edge">
<title>42&#45;&gt;0</title>
<path fill="none" stroke="grey" stroke-width="2" d="M254.4,-359.25C252.49,-301.99 246.44,-121.72 244.02,-49.43"/>
<polygon fill="grey" stroke="grey" stroke-width="2" points="247.53,-49.76 243.7,-39.89 240.54,-50 247.53,-49.76"/>
</g>
<!-- 47 -->
<g id="node48" class="node">
<title>47</title>
<path fill="none" stroke="#bed856" stroke-width="2" d="M428.5,-324C428.5,-324 307.5,-324 307.5,-324 301.5,-324 295.5,-318 295.5,-312 295.5,-312 295.5,-300 295.5,-300 295.5,-294 301.5,-288 307.5,-288 307.5,-288 428.5,-288 428.5,-288 434.5,-288 440.5,-294 440.5,-300 440.5,-300 440.5,-312 440.5,-312 440.5,-318 434.5,-324 428.5,-324"/>
<text text-anchor="middle" x="368" y="-303.5" font-family="sans" font-size="10.00">add_intersecting_mirna_tag</text>
</g>
<!-- 42&#45;&gt;47 -->
<g id="edge67" class="edge">
<title>42&#45;&gt;47</title>
<path fill="none" stroke="grey" stroke-width="2" d="M283.81,-359.15C297.35,-350.76 313.72,-340.62 328.41,-331.52"/>
<polygon fill="grey" stroke="grey" stroke-width="2" points="330.01,-334.65 336.67,-326.41 326.33,-328.7 330.01,-334.65"/>
</g>
<!-- 53 -->
<g id="node54" class="node">
<title>53</title>
<path fill="none" stroke="#d8b456" stroke-width="2" d="M193.5,-324C193.5,-324 122.5,-324 122.5,-324 116.5,-324 110.5,-318 110.5,-312 110.5,-312 110.5,-300 110.5,-300 110.5,-294 116.5,-288 122.5,-288 122.5,-288 193.5,-288 193.5,-288 199.5,-288 205.5,-294 205.5,-300 205.5,-300 205.5,-312 205.5,-312 205.5,-318 199.5,-324 193.5,-324"/>
<text text-anchor="middle" x="158" y="-303.5" font-family="sans" font-size="10.00">uncollapse_reads</text>
</g>
<!-- 42&#45;&gt;53 -->
<g id="edge75" class="edge">
<title>42&#45;&gt;53</title>
<path fill="none" stroke="grey" stroke-width="2" d="M230.27,-359.15C218.98,-351.01 205.41,-341.22 193.1,-332.33"/>
<polygon fill="grey" stroke="grey" stroke-width="2" points="195.29,-329.6 185.14,-326.58 191.2,-335.27 195.29,-329.6"/>
</g>
<!-- 43&#45;&gt;42 -->
<g id="edge61" class="edge">
<title>43&#45;&gt;42</title>
<path fill="none" stroke="grey" stroke-width="2" d="M303.6,-431.34C296.57,-423.77 288.2,-414.75 280.4,-406.35"/>
<polygon fill="grey" stroke="grey" stroke-width="2" points="283.05,-404.07 273.68,-399.12 277.92,-408.83 283.05,-404.07"/>
</g>
<!-- 43&#45;&gt;47 -->
<g id="edge68" class="edge">
<title>43&#45;&gt;47</title>
<path fill="none" stroke="grey" stroke-width="2" d="M331.28,-431.46C337.3,-421.42 344.4,-408.39 349,-396 355.99,-377.18 360.72,-355.12 363.71,-337.68"/>
<polygon fill="grey" stroke="grey" stroke-width="2" points="367.17,-338.23 365.28,-327.81 360.25,-337.14 367.17,-338.23"/>
</g>
<!-- 44 -->
<g id="node45" class="node">
<title>44</title>
<path fill="none" stroke="#61d856" stroke-width="2" d="M365,-540C365,-540 179,-540 179,-540 173,-540 167,-534 167,-528 167,-528 167,-516 167,-516 167,-510 173,-504 179,-504 179,-504 365,-504 365,-504 371,-504 377,-510 377,-516 377,-516 377,-528 377,-528 377,-534 371,-540 365,-540"/>
<text text-anchor="middle" x="272" y="-519.5" font-family="sans" font-size="10.00">sort_intersecting_primir_bam_by_position</text>
</g>
<!-- 44&#45;&gt;43 -->
<g id="edge62" class="edge">
<title>44&#45;&gt;43</title>
<path fill="none" stroke="grey" stroke-width="2" d="M284.11,-503.34C289.08,-496.1 294.95,-487.53 300.49,-479.45"/>
<polygon fill="grey" stroke="grey" stroke-width="2" points="303.24,-481.62 306.01,-471.4 297.47,-477.67 303.24,-481.62"/>
</g>
<!-- 45&#45;&gt;44 -->
<g id="edge64" class="edge">
<title>45&#45;&gt;44</title>
<path fill="none" stroke="grey" stroke-width="2" d="M272,-575.34C272,-568.75 272,-561.08 272,-553.67"/>
<polygon fill="grey" stroke="grey" stroke-width="2" points="275.5,-553.93 272,-543.93 268.5,-553.93 275.5,-553.93"/>
</g>
<!-- 46 -->
<g id="node47" class="node">
<title>46</title>
<path fill="none" stroke="#d89556" stroke-width="2" d="M462.5,-252C462.5,-252 301.5,-252 301.5,-252 295.5,-252 289.5,-246 289.5,-240 289.5,-240 289.5,-228 289.5,-228 289.5,-222 295.5,-216 301.5,-216 301.5,-216 462.5,-216 462.5,-216 468.5,-216 474.5,-222 474.5,-228 474.5,-228 474.5,-240 474.5,-240 474.5,-246 468.5,-252 462.5,-252"/>
<text text-anchor="middle" x="382" y="-231.5" font-family="sans" font-size="10.00">sort_intersecting_mirna_by_feat_tag</text>
</g>
<!-- 46&#45;&gt;0 -->
<g id="edge5" class="edge">
<title>46&#45;&gt;0</title>
<path fill="none" stroke="grey" stroke-width="2" d="M361.68,-215.16C351.37,-205.44 339.13,-192.8 330,-180 298.83,-136.32 302.21,-118.83 276,-72 271.52,-63.99 266.39,-55.49 261.54,-47.68"/>
<polygon fill="grey" stroke="grey" stroke-width="2" points="264.64,-46.05 256.34,-39.46 258.72,-49.78 264.64,-46.05"/>
</g>
<!-- 49 -->
<g id="node50" class="node">
<title>49</title>
<path fill="none" stroke="#d85e56" stroke-width="2" d="M413,-180C413,-180 351,-180 351,-180 345,-180 339,-174 339,-168 339,-168 339,-156 339,-156 339,-150 345,-144 351,-144 351,-144 413,-144 413,-144 419,-144 425,-150 425,-156 425,-156 425,-168 425,-168 425,-174 419,-180 413,-180"/>
<text text-anchor="middle" x="382" y="-159.5" font-family="sans" font-size="10.00">quantify_mirna</text>
</g>
<!-- 46&#45;&gt;49 -->
<g id="edge71" class="edge">
<title>46&#45;&gt;49</title>
<path fill="none" stroke="grey" stroke-width="2" d="M382,-215.34C382,-208.75 382,-201.08 382,-193.67"/>
<polygon fill="grey" stroke="grey" stroke-width="2" points="385.5,-193.93 382,-183.93 378.5,-193.93 385.5,-193.93"/>
</g>
<!-- 47&#45;&gt;46 -->
<g id="edge66" class="edge">
<title>47&#45;&gt;46</title>
<path fill="none" stroke="grey" stroke-width="2" d="M371.53,-287.34C372.85,-280.75 374.38,-273.08 375.87,-265.67"/>
<polygon fill="grey" stroke="grey" stroke-width="2" points="379.3,-266.36 377.83,-255.87 372.43,-264.99 379.3,-266.36"/>
</g>
<!-- 48 -->
<g id="node49" class="node">
<title>48</title>
<path fill="none" stroke="#56d873" stroke-width="2" d="M410,-108C410,-108 354,-108 354,-108 348,-108 342,-102 342,-96 342,-96 342,-84 342,-84 342,-78 348,-72 354,-72 354,-72 410,-72 410,-72 416,-72 422,-78 422,-84 422,-84 422,-96 422,-96 422,-102 416,-108 410,-108"/>
<text text-anchor="middle" x="382" y="-87.5" font-family="sans" font-size="10.00">merge_tables</text>
</g>
<!-- 48&#45;&gt;0 -->
<g id="edge1" class="edge">
<title>48&#45;&gt;0</title>
<path fill="none" stroke="grey" stroke-width="2" d="M346.56,-71.15C327.02,-61.31 302.71,-49.07 282.55,-38.92"/>
<polygon fill="grey" stroke="grey" stroke-width="2" points="284.13,-35.8 273.63,-34.42 280.98,-42.05 284.13,-35.8"/>
</g>
<!-- 49&#45;&gt;48 -->
<g id="edge70" class="edge">
<title>49&#45;&gt;48</title>
<path fill="none" stroke="grey" stroke-width="2" d="M382,-143.34C382,-136.75 382,-129.08 382,-121.67"/>
<polygon fill="grey" stroke="grey" stroke-width="2" points="385.5,-121.93 382,-111.93 378.5,-121.93 385.5,-121.93"/>
</g>
<!-- 50&#45;&gt;48 -->
<g id="edge69" class="edge">
<title>50&#45;&gt;48</title>
<path fill="none" stroke="grey" stroke-width="2" d="M503,-575.07C503,-548.13 503,-495.62 503,-451 503,-451 503,-451 503,-233 503,-182.51 458.14,-140.86 423.05,-116.01"/>
<polygon fill="grey" stroke="grey" stroke-width="2" points="425.27,-113.28 415.03,-110.54 421.33,-119.07 425.27,-113.28"/>
</g>
<!-- 51 -->
<g id="node52" class="node">
<title>51</title>
<path fill="none" stroke="#d89c56" stroke-width="2" d="M222,-180C222,-180 40,-180 40,-180 34,-180 28,-174 28,-168 28,-168 28,-156 28,-156 28,-150 34,-144 40,-144 40,-144 222,-144 222,-144 228,-144 234,-150 234,-156 234,-156 234,-168 234,-168 234,-174 228,-180 222,-180"/>
<text text-anchor="middle" x="131" y="-159.5" font-family="sans" font-size="10.00">sort_uncollpased_reads_bam_by_position</text>
</g>
<!-- 51&#45;&gt;0 -->
<g id="edge3" class="edge">
<title>51&#45;&gt;0</title>
<path fill="none" stroke="grey" stroke-width="2" d="M163.13,-143.01C177.1,-133.94 192.8,-121.91 204,-108 217.96,-90.66 227.89,-67.55 234.24,-49.22"/>
<polygon fill="grey" stroke="grey" stroke-width="2" points="237.55,-50.34 237.3,-39.75 230.89,-48.19 237.55,-50.34"/>
</g>
<!-- 54 -->
<g id="node55" class="node">
<title>54</title>
<path fill="none" stroke="#d8bc56" stroke-width="2" d="M183.5,-108C183.5,-108 52.5,-108 52.5,-108 46.5,-108 40.5,-102 40.5,-96 40.5,-96 40.5,-84 40.5,-84 40.5,-78 46.5,-72 52.5,-72 52.5,-72 183.5,-72 183.5,-72 189.5,-72 195.5,-78 195.5,-84 195.5,-84 195.5,-96 195.5,-96 195.5,-102 189.5,-108 183.5,-108"/>
<text text-anchor="middle" x="118" y="-87.5" font-family="sans" font-size="10.00">index_uncollapsed_reads_bam</text>
</g>
<!-- 51&#45;&gt;54 -->
<g id="edge76" class="edge">
<title>51&#45;&gt;54</title>
<path fill="none" stroke="grey" stroke-width="2" d="M127.72,-143.34C126.5,-136.75 125.07,-129.08 123.7,-121.67"/>
<polygon fill="grey" stroke="grey" stroke-width="2" points="127.14,-121.07 121.88,-111.88 120.26,-122.35 127.14,-121.07"/>
</g>
<!-- 52 -->
<g id="node53" class="node">
<title>52</title>
<path fill="none" stroke="#5673d8" stroke-width="2" d="M221,-252C221,-252 41,-252 41,-252 35,-252 29,-246 29,-240 29,-240 29,-228 29,-228 29,-222 35,-216 41,-216 41,-216 221,-216 221,-216 227,-216 233,-222 233,-228 233,-228 233,-240 233,-240 233,-246 227,-252 221,-252"/>
<text text-anchor="middle" x="131" y="-231.5" font-family="sans" font-size="10.00">convert_uncollpased_reads_sam_to_bam</text>
</g>
<!-- 52&#45;&gt;51 -->
<g id="edge73" class="edge">
<title>52&#45;&gt;51</title>
<path fill="none" stroke="grey" stroke-width="2" d="M131,-215.34C131,-208.75 131,-201.08 131,-193.67"/>
<polygon fill="grey" stroke="grey" stroke-width="2" points="134.5,-193.93 131,-183.93 127.5,-193.93 134.5,-193.93"/>
</g>
<!-- 53&#45;&gt;52 -->
<g id="edge74" class="edge">
<title>53&#45;&gt;52</title>
<path fill="none" stroke="grey" stroke-width="2" d="M151.19,-287.34C148.55,-280.51 145.46,-272.5 142.51,-264.83"/>
<polygon fill="grey" stroke="grey" stroke-width="2" points="145.86,-263.8 138.99,-255.73 139.33,-266.32 145.86,-263.8"/>
</g>
<!-- 54&#45;&gt;0 -->
<g id="edge6" class="edge">
<title>54&#45;&gt;0</title>
<path fill="none" stroke="grey" stroke-width="2" d="M149.87,-71.15C166.36,-61.92 186.64,-50.56 204.06,-40.81"/>
<polygon fill="grey" stroke="grey" stroke-width="2" points="205.37,-44.09 212.38,-36.15 201.95,-37.98 205.37,-44.09"/>
</g>
</g>
</svg>
