<?xml version="1.0" encoding="UTF-8" standalone="no"?>
<!DOCTYPE svg PUBLIC "-//W3C//DTD SVG 1.1//EN"
 "http://www.w3.org/Graphics/SVG/1.1/DTD/svg11.dtd">
<!-- Generated by graphviz version 7.1.0 (20230122.1345)
 -->
<!-- Title: snakemake_dag Pages: 1 -->
<svg width="977pt" height="1988pt"
 viewBox="0.00 0.00 977.00 1988.00" xmlns="http://www.w3.org/2000/svg" xmlns:xlink="http://www.w3.org/1999/xlink">
<g id="graph0" class="graph" transform="scale(1 1) rotate(0) translate(4 1984)">
<title>snakemake_dag</title>
<polygon fill="white" stroke="none" points="-4,4 -4,-1984 973,-1984 973,4 -4,4"/>
<!-- 0 -->
<g id="node1" class="node">
<title>0</title>
<path fill="none" stroke="#afd856" stroke-width="2" d="M517,-36C517,-36 487,-36 487,-36 481,-36 475,-30 475,-24 475,-24 475,-12 475,-12 475,-6 481,0 487,0 487,0 517,0 517,0 523,0 529,-6 529,-12 529,-12 529,-24 529,-24 529,-30 523,-36 517,-36"/>
<text text-anchor="middle" x="502" y="-15.5" font-family="sans" font-size="10.00">finish</text>
</g>
<!-- 1 -->
<g id="node2" class="node">
<title>1</title>
<path fill="none" stroke="#56d8a2" stroke-width="2" d="M904.5,-1620C904.5,-1620 719.5,-1620 719.5,-1620 713.5,-1620 707.5,-1614 707.5,-1608 707.5,-1608 707.5,-1596 707.5,-1596 707.5,-1590 713.5,-1584 719.5,-1584 719.5,-1584 904.5,-1584 904.5,-1584 910.5,-1584 916.5,-1590 916.5,-1596 916.5,-1596 916.5,-1608 916.5,-1608 916.5,-1614 910.5,-1620 904.5,-1620"/>
<text text-anchor="middle" x="812" y="-1599.5" font-family="sans" font-size="10.00">generate_segemehl_index_transcriptome</text>
</g>
<!-- 1&#45;&gt;0 -->
<g id="edge10" class="edge">
<title>1&#45;&gt;0</title>
<path fill="none" stroke="grey" stroke-width="2" d="M812,-1583.07C812,-1556.13 812,-1503.62 812,-1459 812,-1459 812,-1459 812,-161 812,-43.82 626.66,-22.96 542.6,-19.52"/>
<polygon fill="grey" stroke="grey" stroke-width="2" points="542.92,-16.03 532.81,-19.2 542.69,-23.02 542.92,-16.03"/>
</g>
<!-- 25 -->
<g id="node26" class="node">
<title>25</title>
<path fill="none" stroke="#d8c356" stroke-width="2" d="M563.5,-1548C563.5,-1548 410.5,-1548 410.5,-1548 404.5,-1548 398.5,-1542 398.5,-1536 398.5,-1536 398.5,-1524 398.5,-1524 398.5,-1518 404.5,-1512 410.5,-1512 410.5,-1512 563.5,-1512 563.5,-1512 569.5,-1512 575.5,-1518 575.5,-1524 575.5,-1524 575.5,-1536 575.5,-1536 575.5,-1542 569.5,-1548 563.5,-1548"/>
<text text-anchor="middle" x="487" y="-1527.5" font-family="sans" font-size="10.00">mapping_transcriptome_segemehl</text>
</g>
<!-- 1&#45;&gt;25 -->
<g id="edge38" class="edge">
<title>1&#45;&gt;25</title>
<path fill="none" stroke="grey" stroke-width="2" d="M728.73,-1583.06C684.19,-1573.47 629.15,-1561.62 582.84,-1551.64"/>
<polygon fill="grey" stroke="grey" stroke-width="2" points="583.81,-1548.27 573.3,-1549.59 582.34,-1555.11 583.81,-1548.27"/>
</g>
<!-- 2 -->
<g id="node3" class="node">
<title>2</title>
<path fill="none" stroke="#88d856" stroke-width="2" d="M672.5,-1692C672.5,-1692 633.5,-1692 633.5,-1692 627.5,-1692 621.5,-1686 621.5,-1680 621.5,-1680 621.5,-1668 621.5,-1668 621.5,-1662 627.5,-1656 633.5,-1656 633.5,-1656 672.5,-1656 672.5,-1656 678.5,-1656 684.5,-1662 684.5,-1668 684.5,-1668 684.5,-1680 684.5,-1680 684.5,-1686 678.5,-1692 672.5,-1692"/>
<text text-anchor="middle" x="653" y="-1671.5" font-family="sans" font-size="10.00">trim_fasta</text>
</g>
<!-- 2&#45;&gt;1 -->
<g id="edge12" class="edge">
<title>2&#45;&gt;1</title>
<path fill="none" stroke="grey" stroke-width="2" d="M685.18,-1658.83C706.54,-1649.43 735.08,-1636.86 759.67,-1626.04"/>
<polygon fill="grey" stroke="grey" stroke-width="2" points="760.87,-1629.33 768.61,-1622.1 758.05,-1622.93 760.87,-1629.33"/>
</g>
<!-- 2&#45;&gt;25 -->
<g id="edge39" class="edge">
<title>2&#45;&gt;25</title>
<path fill="none" stroke="grey" stroke-width="2" d="M620.85,-1659.44C617.87,-1658.25 614.88,-1657.09 612,-1656 565.44,-1638.46 539.06,-1657.18 506,-1620 491.98,-1604.23 487.41,-1580.68 486.26,-1561.77"/>
<polygon fill="grey" stroke="grey" stroke-width="2" points="489.76,-1561.93 486.01,-1552.02 482.77,-1562.11 489.76,-1561.93"/>
</g>
<!-- 31 -->
<g id="node32" class="node">
<title>31</title>
<path fill="none" stroke="#d87556" stroke-width="2" d="M677,-1620C677,-1620 527,-1620 527,-1620 521,-1620 515,-1614 515,-1608 515,-1608 515,-1596 515,-1596 515,-1590 521,-1584 527,-1584 527,-1584 677,-1584 677,-1584 683,-1584 689,-1590 689,-1596 689,-1596 689,-1608 689,-1608 689,-1614 683,-1620 677,-1620"/>
<text text-anchor="middle" x="602" y="-1599.5" font-family="sans" font-size="10.00">mapping_transcriptome_oligomap</text>
</g>
<!-- 2&#45;&gt;31 -->
<g id="edge47" class="edge">
<title>2&#45;&gt;31</title>
<path fill="none" stroke="grey" stroke-width="2" d="M640.13,-1655.34C634.8,-1648.01 628.47,-1639.34 622.53,-1631.18"/>
<polygon fill="grey" stroke="grey" stroke-width="2" points="625.54,-1629.37 616.83,-1623.35 619.89,-1633.49 625.54,-1629.37"/>
</g>
<!-- 3 -->
<g id="node4" class="node">
<title>3</title>
<path fill="none" stroke="#c6d856" stroke-width="2" d="M673.5,-1764C673.5,-1764 554.5,-1764 554.5,-1764 548.5,-1764 542.5,-1758 542.5,-1752 542.5,-1752 542.5,-1740 542.5,-1740 542.5,-1734 548.5,-1728 554.5,-1728 554.5,-1728 673.5,-1728 673.5,-1728 679.5,-1728 685.5,-1734 685.5,-1740 685.5,-1740 685.5,-1752 685.5,-1752 685.5,-1758 679.5,-1764 673.5,-1764"/>
<text text-anchor="middle" x="614" y="-1743.5" font-family="sans" font-size="10.00">extract_transcriptome_seqs</text>
</g>
<!-- 3&#45;&gt;2 -->
<g id="edge13" class="edge">
<title>3&#45;&gt;2</title>
<path fill="none" stroke="grey" stroke-width="2" d="M623.84,-1727.34C627.74,-1720.34 632.32,-1712.12 636.69,-1704.28"/>
<polygon fill="grey" stroke="grey" stroke-width="2" points="639.74,-1705.99 641.55,-1695.55 633.63,-1702.58 639.74,-1705.99"/>
</g>
<!-- 4 -->
<g id="node5" class="node">
<title>4</title>
<path fill="none" stroke="#56d8d8" stroke-width="2" d="M371.5,-1836C371.5,-1836 282.5,-1836 282.5,-1836 276.5,-1836 270.5,-1830 270.5,-1824 270.5,-1824 270.5,-1812 270.5,-1812 270.5,-1806 276.5,-1800 282.5,-1800 282.5,-1800 371.5,-1800 371.5,-1800 377.5,-1800 383.5,-1806 383.5,-1812 383.5,-1812 383.5,-1824 383.5,-1824 383.5,-1830 377.5,-1836 371.5,-1836"/>
<text text-anchor="middle" x="327" y="-1815.5" font-family="sans" font-size="10.00">trim_genome_seq_id</text>
</g>
<!-- 4&#45;&gt;3 -->
<g id="edge14" class="edge">
<title>4&#45;&gt;3</title>
<path fill="none" stroke="grey" stroke-width="2" d="M384.39,-1803C425.82,-1792.9 482.45,-1779.09 529.1,-1767.71"/>
<polygon fill="grey" stroke="grey" stroke-width="2" points="529.84,-1771.13 538.72,-1765.36 528.18,-1764.33 529.84,-1771.13"/>
</g>
<!-- 5 -->
<g id="node6" class="node">
<title>5</title>
<path fill="none" stroke="#567bd8" stroke-width="2" d="M280,-1764C280,-1764 122,-1764 122,-1764 116,-1764 110,-1758 110,-1752 110,-1752 110,-1740 110,-1740 110,-1734 116,-1728 122,-1728 122,-1728 280,-1728 280,-1728 286,-1728 292,-1734 292,-1740 292,-1740 292,-1752 292,-1752 292,-1758 286,-1764 280,-1764"/>
<text text-anchor="middle" x="201" y="-1743.5" font-family="sans" font-size="10.00">generate_segemehl_index_genome</text>
</g>
<!-- 4&#45;&gt;5 -->
<g id="edge15" class="edge">
<title>4&#45;&gt;5</title>
<path fill="none" stroke="grey" stroke-width="2" d="M294.88,-1799.15C279.48,-1790.6 260.8,-1780.22 244.18,-1770.99"/>
<polygon fill="grey" stroke="grey" stroke-width="2" points="246.15,-1768.08 235.71,-1766.28 242.75,-1774.2 246.15,-1768.08"/>
</g>
<!-- 8 -->
<g id="node9" class="node">
<title>8</title>
<path fill="none" stroke="#59d856" stroke-width="2" d="M116,-1116C116,-1116 12,-1116 12,-1116 6,-1116 0,-1110 0,-1104 0,-1104 0,-1092 0,-1092 0,-1086 6,-1080 12,-1080 12,-1080 116,-1080 116,-1080 122,-1080 128,-1086 128,-1092 128,-1092 128,-1104 128,-1104 128,-1110 122,-1116 116,-1116"/>
<text text-anchor="middle" x="64" y="-1095.5" font-family="sans" font-size="10.00">create_header_genome</text>
</g>
<!-- 4&#45;&gt;8 -->
<g id="edge17" class="edge">
<title>4&#45;&gt;8</title>
<path fill="none" stroke="grey" stroke-width="2" d="M269.66,-1810.24C210.91,-1802.18 124.87,-1786.85 101,-1764 71.32,-1735.59 76,-1716.09 76,-1675 76,-1675 76,-1675 76,-1241 76,-1202.52 71.57,-1158.37 68.09,-1129.66"/>
<polygon fill="grey" stroke="grey" stroke-width="2" points="71.59,-1129.38 66.86,-1119.9 64.64,-1130.25 71.59,-1129.38"/>
</g>
<!-- 10 -->
<g id="node11" class="node">
<title>10</title>
<path fill="none" stroke="#56d873" stroke-width="2" d="M957,-1044C957,-1044 879,-1044 879,-1044 873,-1044 867,-1038 867,-1032 867,-1032 867,-1020 867,-1020 867,-1014 873,-1008 879,-1008 879,-1008 957,-1008 957,-1008 963,-1008 969,-1014 969,-1020 969,-1020 969,-1032 969,-1032 969,-1038 963,-1044 957,-1044"/>
<text text-anchor="middle" x="918" y="-1023.5" font-family="sans" font-size="10.00">create_index_fasta</text>
</g>
<!-- 4&#45;&gt;10 -->
<g id="edge19" class="edge">
<title>4&#45;&gt;10</title>
<path fill="none" stroke="grey" stroke-width="2" d="M384.27,-1804.06C391.57,-1802.59 398.95,-1801.2 406,-1800 527.23,-1779.45 945,-1797.96 945,-1675 945,-1675 945,-1675 945,-1169 945,-1129.79 934.94,-1085.54 927.1,-1057.02"/>
<polygon fill="grey" stroke="grey" stroke-width="2" points="930.54,-1056.29 924.43,-1047.64 923.81,-1058.21 930.54,-1056.29"/>
</g>
<!-- 37 -->
<g id="node38" class="node">
<title>37</title>
<path fill="none" stroke="#70d856" stroke-width="2" d="M317.5,-1692C317.5,-1692 190.5,-1692 190.5,-1692 184.5,-1692 178.5,-1686 178.5,-1680 178.5,-1680 178.5,-1668 178.5,-1668 178.5,-1662 184.5,-1656 190.5,-1656 190.5,-1656 317.5,-1656 317.5,-1656 323.5,-1656 329.5,-1662 329.5,-1668 329.5,-1668 329.5,-1680 329.5,-1680 329.5,-1686 323.5,-1692 317.5,-1692"/>
<text text-anchor="middle" x="254" y="-1671.5" font-family="sans" font-size="10.00">mapping_genome_segemehl</text>
</g>
<!-- 4&#45;&gt;37 -->
<g id="edge54" class="edge">
<title>4&#45;&gt;37</title>
<path fill="none" stroke="grey" stroke-width="2" d="M324.16,-1799.05C320.67,-1780.4 313.61,-1750.82 301,-1728 295.9,-1718.77 288.94,-1709.77 281.94,-1701.89"/>
<polygon fill="grey" stroke="grey" stroke-width="2" points="284.65,-1699.67 275.26,-1694.77 279.55,-1704.46 284.65,-1699.67"/>
</g>
<!-- 39 -->
<g id="node40" class="node">
<title>39</title>
<path fill="none" stroke="#d88d56" stroke-width="2" d="M403,-1620C403,-1620 279,-1620 279,-1620 273,-1620 267,-1614 267,-1608 267,-1608 267,-1596 267,-1596 267,-1590 273,-1584 279,-1584 279,-1584 403,-1584 403,-1584 409,-1584 415,-1590 415,-1596 415,-1596 415,-1608 415,-1608 415,-1614 409,-1620 403,-1620"/>
<text text-anchor="middle" x="341" y="-1599.5" font-family="sans" font-size="10.00">mapping_genome_oligomap</text>
</g>
<!-- 4&#45;&gt;39 -->
<g id="edge59" class="edge">
<title>4&#45;&gt;39</title>
<path fill="none" stroke="grey" stroke-width="2" d="M329.12,-1799.23C331.91,-1775.02 336.73,-1730.3 339,-1692 340.15,-1672.62 340.65,-1650.83 340.86,-1633.66"/>
<polygon fill="grey" stroke="grey" stroke-width="2" points="344.36,-1633.8 340.96,-1623.77 337.36,-1633.74 344.36,-1633.8"/>
</g>
<!-- 5&#45;&gt;0 -->
<g id="edge6" class="edge">
<title>5&#45;&gt;0</title>
<path fill="none" stroke="grey" stroke-width="2" d="M188.16,-1727.14C181.56,-1717.22 173.9,-1704.39 169,-1692 154.12,-1654.39 150,-1643.45 150,-1603 150,-1603 150,-1603 150,-1529 150,-1305.87 156,-1250.13 156,-1027 156,-1027 156,-1027 156,-161 156,-97.07 211.31,-99.54 269,-72 332.17,-41.84 413.3,-28.41 461.26,-22.76"/>
<polygon fill="grey" stroke="grey" stroke-width="2" points="461.59,-26.25 471.15,-21.67 460.82,-19.29 461.59,-26.25"/>
</g>
<!-- 5&#45;&gt;37 -->
<g id="edge55" class="edge">
<title>5&#45;&gt;37</title>
<path fill="none" stroke="grey" stroke-width="2" d="M214.37,-1727.34C219.92,-1720.01 226.49,-1711.34 232.67,-1703.18"/>
<polygon fill="grey" stroke="grey" stroke-width="2" points="235.37,-1705.4 238.62,-1695.32 229.79,-1701.18 235.37,-1705.4"/>
</g>
<!-- 6 -->
<g id="node7" class="node">
<title>6</title>
<path fill="none" stroke="#5663d8" stroke-width="2" d="M631,-1260C631,-1260 597,-1260 597,-1260 591,-1260 585,-1254 585,-1248 585,-1248 585,-1236 585,-1236 585,-1230 591,-1224 597,-1224 597,-1224 631,-1224 631,-1224 637,-1224 643,-1230 643,-1236 643,-1236 643,-1248 643,-1248 643,-1254 637,-1260 631,-1260"/>
<text text-anchor="middle" x="614" y="-1239.5" font-family="sans" font-size="10.00">gtftobed</text>
</g>
<!-- 6&#45;&gt;0 -->
<g id="edge9" class="edge">
<title>6&#45;&gt;0</title>
<path fill="none" stroke="grey" stroke-width="2" d="M614,-1223.07C614,-1196.13 614,-1143.62 614,-1099 614,-1099 614,-1099 614,-161 614,-111.99 572.35,-69.95 539.85,-44.6"/>
<polygon fill="grey" stroke="grey" stroke-width="2" points="542.21,-41.99 532.11,-38.79 538,-47.59 542.21,-41.99"/>
</g>
<!-- 21 -->
<g id="node22" class="node">
<title>21</title>
<path fill="none" stroke="#56d8b9" stroke-width="2" d="M510.5,-1188C510.5,-1188 457.5,-1188 457.5,-1188 451.5,-1188 445.5,-1182 445.5,-1176 445.5,-1176 445.5,-1164 445.5,-1164 445.5,-1158 451.5,-1152 457.5,-1152 457.5,-1152 510.5,-1152 510.5,-1152 516.5,-1152 522.5,-1158 522.5,-1164 522.5,-1164 522.5,-1176 522.5,-1176 522.5,-1182 516.5,-1188 510.5,-1188"/>
<text text-anchor="middle" x="484" y="-1167.5" font-family="sans" font-size="10.00">trans_to_gen</text>
</g>
<!-- 6&#45;&gt;21 -->
<g id="edge32" class="edge">
<title>6&#45;&gt;21</title>
<path fill="none" stroke="grey" stroke-width="2" d="M584.18,-1224.94C567.74,-1216.09 547.01,-1204.93 528.68,-1195.06"/>
<polygon fill="grey" stroke="grey" stroke-width="2" points="530.47,-1192.05 520.01,-1190.39 527.16,-1198.21 530.47,-1192.05"/>
</g>
<!-- 7 -->
<g id="node8" class="node">
<title>7</title>
<path fill="none" stroke="#d86656" stroke-width="2" d="M643,-1332C643,-1332 585,-1332 585,-1332 579,-1332 573,-1326 573,-1320 573,-1320 573,-1308 573,-1308 573,-1302 579,-1296 585,-1296 585,-1296 643,-1296 643,-1296 649,-1296 655,-1302 655,-1308 655,-1308 655,-1320 655,-1320 655,-1326 649,-1332 643,-1332"/>
<text text-anchor="middle" x="614" y="-1311.5" font-family="sans" font-size="10.00">get_exons_gtf</text>
</g>
<!-- 7&#45;&gt;6 -->
<g id="edge16" class="edge">
<title>7&#45;&gt;6</title>
<path fill="none" stroke="grey" stroke-width="2" d="M614,-1295.34C614,-1288.75 614,-1281.08 614,-1273.67"/>
<polygon fill="grey" stroke="grey" stroke-width="2" points="617.5,-1273.93 614,-1263.93 610.5,-1273.93 617.5,-1273.93"/>
</g>
<!-- 8&#45;&gt;0 -->
<g id="edge3" class="edge">
<title>8&#45;&gt;0</title>
<path fill="none" stroke="grey" stroke-width="2" d="M69.59,-1079.27C77.5,-1052.6 91,-1000.42 91,-955 91,-955 91,-955 91,-161 91,-115.41 104.33,-97.68 142,-72 193.36,-36.99 378.5,-24.49 461.38,-20.58"/>
<polygon fill="grey" stroke="grey" stroke-width="2" points="461.38,-24.08 471.21,-20.14 461.06,-17.09 461.38,-24.08"/>
</g>
<!-- 19 -->
<g id="node20" class="node">
<title>19</title>
<path fill="none" stroke="#56d8d0" stroke-width="2" d="M340,-1044C340,-1044 292,-1044 292,-1044 286,-1044 280,-1038 280,-1032 280,-1032 280,-1020 280,-1020 280,-1014 286,-1008 292,-1008 292,-1008 340,-1008 340,-1008 346,-1008 352,-1014 352,-1020 352,-1020 352,-1032 352,-1032 352,-1038 346,-1044 340,-1044"/>
<text text-anchor="middle" x="316" y="-1023.5" font-family="sans" font-size="10.00">add_header</text>
</g>
<!-- 8&#45;&gt;19 -->
<g id="edge28" class="edge">
<title>8&#45;&gt;19</title>
<path fill="none" stroke="grey" stroke-width="2" d="M128.57,-1079.06C171.64,-1067.1 227.38,-1051.62 266.85,-1040.65"/>
<polygon fill="grey" stroke="grey" stroke-width="2" points="267.7,-1044.05 276.39,-1038 265.82,-1037.31 267.7,-1044.05"/>
</g>
<!-- 9 -->
<g id="node10" class="node">
<title>9</title>
<path fill="none" stroke="#8fd856" stroke-width="2" d="M914,-684C914,-684 852,-684 852,-684 846,-684 840,-678 840,-672 840,-672 840,-660 840,-660 840,-654 846,-648 852,-648 852,-648 914,-648 914,-648 920,-648 926,-654 926,-660 926,-660 926,-672 926,-672 926,-678 920,-684 914,-684"/>
<text text-anchor="middle" x="883" y="-663.5" font-family="sans" font-size="10.00">extract_chr_len</text>
</g>
<!-- 9&#45;&gt;0 -->
<g id="edge11" class="edge">
<title>9&#45;&gt;0</title>
<path fill="none" stroke="grey" stroke-width="2" d="M879.48,-647.15C874.5,-620.32 866,-567.94 866,-523 866,-523 866,-523 866,-161 866,-117.63 860.38,-98.43 826,-72 782.3,-38.42 619.73,-25.33 542.82,-20.93"/>
<polygon fill="grey" stroke="grey" stroke-width="2" points="543.14,-17.45 532.96,-20.4 542.76,-24.44 543.14,-17.45"/>
</g>
<!-- 11 -->
<g id="node12" class="node">
<title>11</title>
<path fill="none" stroke="#d8b456" stroke-width="2" d="M763.5,-612C763.5,-612 654.5,-612 654.5,-612 648.5,-612 642.5,-606 642.5,-600 642.5,-600 642.5,-588 642.5,-588 642.5,-582 648.5,-576 654.5,-576 654.5,-576 763.5,-576 763.5,-576 769.5,-576 775.5,-582 775.5,-588 775.5,-588 775.5,-600 775.5,-600 775.5,-606 769.5,-612 763.5,-612"/>
<text text-anchor="middle" x="709" y="-591.5" font-family="sans" font-size="10.00">extend_mirs_annotations</text>
</g>
<!-- 9&#45;&gt;11 -->
<g id="edge21" class="edge">
<title>9&#45;&gt;11</title>
<path fill="none" stroke="grey" stroke-width="2" d="M839.09,-647.34C816.7,-638.33 789.21,-627.27 765.28,-617.64"/>
<polygon fill="grey" stroke="grey" stroke-width="2" points="766.89,-614.52 756.31,-614.03 764.28,-621.01 766.89,-614.52"/>
</g>
<!-- 10&#45;&gt;9 -->
<g id="edge18" class="edge">
<title>10&#45;&gt;9</title>
<path fill="none" stroke="grey" stroke-width="2" d="M914.27,-1007.16C909,-980.34 900,-927.98 900,-883 900,-883 900,-883 900,-809 900,-770.38 893.72,-726.27 888.8,-697.59"/>
<polygon fill="grey" stroke="grey" stroke-width="2" points="892.26,-697.06 887.05,-687.83 885.37,-698.29 892.26,-697.06"/>
</g>
<!-- 11&#45;&gt;0 -->
<g id="edge4" class="edge">
<title>11&#45;&gt;0</title>
<path fill="none" stroke="grey" stroke-width="2" d="M702.99,-575.3C694.5,-548.67 680,-496.54 680,-451 680,-451 680,-451 680,-161 680,-115.19 662.44,-102.21 628,-72 603.47,-50.48 568.94,-36.79 542.23,-28.72"/>
<polygon fill="grey" stroke="grey" stroke-width="2" points="543.31,-25.39 532.74,-26.03 541.4,-32.13 543.31,-25.39"/>
</g>
<!-- 45 -->
<g id="node46" class="node">
<title>45</title>
<path fill="none" stroke="#d88556" stroke-width="2" d="M573.5,-540C573.5,-540 504.5,-540 504.5,-540 498.5,-540 492.5,-534 492.5,-528 492.5,-528 492.5,-516 492.5,-516 492.5,-510 498.5,-504 504.5,-504 504.5,-504 573.5,-504 573.5,-504 579.5,-504 585.5,-510 585.5,-516 585.5,-516 585.5,-528 585.5,-528 585.5,-534 579.5,-540 573.5,-540"/>
<text text-anchor="middle" x="539" y="-519.5" font-family="sans" font-size="10.00">premir_gfftobed</text>
</g>
<!-- 11&#45;&gt;45 -->
<g id="edge68" class="edge">
<title>11&#45;&gt;45</title>
<path fill="none" stroke="grey" stroke-width="2" d="M665.66,-575.15C643.97,-566.22 617.46,-555.31 594.31,-545.77"/>
<polygon fill="grey" stroke="grey" stroke-width="2" points="595.93,-542.66 585.35,-542.09 593.27,-549.13 595.93,-542.66"/>
</g>
<!-- 12 -->
<g id="node13" class="node">
<title>12</title>
<path fill="none" stroke="#ced856" stroke-width="2" d="M743,-684C743,-684 675,-684 675,-684 669,-684 663,-678 663,-672 663,-672 663,-660 663,-660 663,-654 669,-648 675,-648 675,-648 743,-648 743,-648 749,-648 755,-654 755,-660 755,-660 755,-672 755,-672 755,-678 749,-684 743,-684"/>
<text text-anchor="middle" x="709" y="-663.5" font-family="sans" font-size="10.00">map_chr_names</text>
</g>
<!-- 12&#45;&gt;11 -->
<g id="edge20" class="edge">
<title>12&#45;&gt;11</title>
<path fill="none" stroke="grey" stroke-width="2" d="M709,-647.34C709,-640.75 709,-633.08 709,-625.67"/>
<polygon fill="grey" stroke="grey" stroke-width="2" points="712.5,-625.93 709,-615.93 705.5,-625.93 712.5,-625.93"/>
</g>
<!-- 13 -->
<g id="node14" class="node">
<title>13</title>
<path fill="none" stroke="#56b9d8" stroke-width="2" d="M277,-468C277,-468 235,-468 235,-468 229,-468 223,-462 223,-456 223,-456 223,-444 223,-444 223,-438 229,-432 235,-432 235,-432 277,-432 277,-432 283,-432 289,-438 289,-444 289,-444 289,-456 289,-456 289,-462 283,-468 277,-468"/>
<text text-anchor="middle" x="256" y="-447.5" font-family="sans" font-size="10.00">index_bam</text>
</g>
<!-- 13&#45;&gt;0 -->
<g id="edge1" class="edge">
<title>13&#45;&gt;0</title>
<path fill="none" stroke="grey" stroke-width="2" d="M256.83,-431.07C258,-404.14 260,-351.64 260,-307 260,-307 260,-307 260,-161 260,-116.06 272.81,-99.96 308,-72 352.52,-36.62 418.92,-24.81 461.34,-20.89"/>
<polygon fill="grey" stroke="grey" stroke-width="2" points="461.49,-24.39 471.19,-20.12 460.94,-17.41 461.49,-24.39"/>
</g>
<!-- 14 -->
<g id="node15" class="node">
<title>14</title>
<path fill="none" stroke="#d85656" stroke-width="2" d="M425,-684C425,-684 357,-684 357,-684 351,-684 345,-678 345,-672 345,-672 345,-660 345,-660 345,-654 351,-648 357,-648 357,-648 425,-648 425,-648 431,-648 437,-654 437,-660 437,-660 437,-672 437,-672 437,-678 431,-684 425,-684"/>
<text text-anchor="middle" x="391" y="-663.5" font-family="sans" font-size="10.00">sort_by_position</text>
</g>
<!-- 14&#45;&gt;13 -->
<g id="edge22" class="edge">
<title>14&#45;&gt;13</title>
<path fill="none" stroke="grey" stroke-width="2" d="M379.72,-647.12C356.35,-610.07 302.43,-524.6 274.12,-479.72"/>
<polygon fill="grey" stroke="grey" stroke-width="2" points="277.25,-478.13 268.96,-471.54 271.33,-481.86 277.25,-478.13"/>
</g>
<!-- 44 -->
<g id="node45" class="node">
<title>44</title>
<path fill="none" stroke="#bed856" stroke-width="2" d="M442.5,-612C442.5,-612 401.5,-612 401.5,-612 395.5,-612 389.5,-606 389.5,-600 389.5,-600 389.5,-588 389.5,-588 389.5,-582 395.5,-576 401.5,-576 401.5,-576 442.5,-576 442.5,-576 448.5,-576 454.5,-582 454.5,-588 454.5,-588 454.5,-600 454.5,-600 454.5,-606 448.5,-612 442.5,-612"/>
<text text-anchor="middle" x="422" y="-591.5" font-family="sans" font-size="10.00">bamtobed</text>
</g>
<!-- 14&#45;&gt;44 -->
<g id="edge67" class="edge">
<title>14&#45;&gt;44</title>
<path fill="none" stroke="grey" stroke-width="2" d="M398.82,-647.34C401.88,-640.43 405.48,-632.31 408.91,-624.56"/>
<polygon fill="grey" stroke="grey" stroke-width="2" points="412,-626.23 412.85,-615.67 405.6,-623.4 412,-626.23"/>
</g>
<!-- 15 -->
<g id="node16" class="node">
<title>15</title>
<path fill="none" stroke="#56d0d8" stroke-width="2" d="M425,-756C425,-756 357,-756 357,-756 351,-756 345,-750 345,-744 345,-744 345,-732 345,-732 345,-726 351,-720 357,-720 357,-720 425,-720 425,-720 431,-720 437,-726 437,-732 437,-732 437,-744 437,-744 437,-750 431,-756 425,-756"/>
<text text-anchor="middle" x="391" y="-735.5" font-family="sans" font-size="10.00">convert_to_bam</text>
</g>
<!-- 15&#45;&gt;14 -->
<g id="edge23" class="edge">
<title>15&#45;&gt;14</title>
<path fill="none" stroke="grey" stroke-width="2" d="M391,-719.34C391,-712.75 391,-705.08 391,-697.67"/>
<polygon fill="grey" stroke="grey" stroke-width="2" points="394.5,-697.93 391,-687.93 387.5,-697.93 394.5,-697.93"/>
</g>
<!-- 16 -->
<g id="node17" class="node">
<title>16</title>
<path fill="none" stroke="#61d856" stroke-width="2" d="M348,-828C348,-828 286,-828 286,-828 280,-828 274,-822 274,-816 274,-816 274,-804 274,-804 274,-798 280,-792 286,-792 286,-792 348,-792 348,-792 354,-792 360,-798 360,-804 360,-804 360,-816 360,-816 360,-822 354,-828 348,-828"/>
<text text-anchor="middle" x="317" y="-807.5" font-family="sans" font-size="10.00">filter_by_indels</text>
</g>
<!-- 16&#45;&gt;15 -->
<g id="edge24" class="edge">
<title>16&#45;&gt;15</title>
<path fill="none" stroke="grey" stroke-width="2" d="M335.67,-791.34C343.85,-783.6 353.62,-774.36 362.66,-765.81"/>
<polygon fill="grey" stroke="grey" stroke-width="2" points="365.02,-768.4 369.88,-758.98 360.21,-763.31 365.02,-768.4"/>
</g>
<!-- 41 -->
<g id="node42" class="node">
<title>41</title>
<path fill="none" stroke="#5682d8" stroke-width="2" d="M415,-396C415,-396 325,-396 325,-396 319,-396 313,-390 313,-384 313,-384 313,-372 313,-372 313,-366 319,-360 325,-360 325,-360 415,-360 415,-360 421,-360 427,-366 427,-372 427,-372 427,-384 427,-384 427,-390 421,-396 415,-396"/>
<text text-anchor="middle" x="370" y="-375.5" font-family="sans" font-size="10.00">intersection_sam_file</text>
</g>
<!-- 16&#45;&gt;41 -->
<g id="edge62" class="edge">
<title>16&#45;&gt;41</title>
<path fill="none" stroke="grey" stroke-width="2" d="M317,-791.07C317,-764.13 317,-711.62 317,-667 317,-667 317,-667 317,-521 317,-479.74 336.88,-435.75 352.29,-407.86"/>
<polygon fill="grey" stroke="grey" stroke-width="2" points="355.31,-409.63 357.25,-399.22 349.24,-406.15 355.31,-409.63"/>
</g>
<!-- 17 -->
<g id="node18" class="node">
<title>17</title>
<path fill="none" stroke="#56d89a" stroke-width="2" d="M353.5,-900C353.5,-900 280.5,-900 280.5,-900 274.5,-900 268.5,-894 268.5,-888 268.5,-888 268.5,-876 268.5,-876 268.5,-870 274.5,-864 280.5,-864 280.5,-864 353.5,-864 353.5,-864 359.5,-864 365.5,-870 365.5,-876 365.5,-876 365.5,-888 365.5,-888 365.5,-894 359.5,-900 353.5,-900"/>
<text text-anchor="middle" x="317" y="-879.5" font-family="sans" font-size="10.00">remove_inferiors</text>
</g>
<!-- 17&#45;&gt;16 -->
<g id="edge25" class="edge">
<title>17&#45;&gt;16</title>
<path fill="none" stroke="grey" stroke-width="2" d="M317,-863.34C317,-856.75 317,-849.08 317,-841.67"/>
<polygon fill="grey" stroke="grey" stroke-width="2" points="320.5,-841.93 317,-831.93 313.5,-841.93 320.5,-841.93"/>
</g>
<!-- 18 -->
<g id="node19" class="node">
<title>18</title>
<path fill="none" stroke="#56d882" stroke-width="2" d="M331,-972C331,-972 301,-972 301,-972 295,-972 289,-966 289,-960 289,-960 289,-948 289,-948 289,-942 295,-936 301,-936 301,-936 331,-936 331,-936 337,-936 343,-942 343,-948 343,-948 343,-960 343,-960 343,-966 337,-972 331,-972"/>
<text text-anchor="middle" x="316" y="-951.5" font-family="sans" font-size="10.00">sort_id</text>
</g>
<!-- 18&#45;&gt;17 -->
<g id="edge26" class="edge">
<title>18&#45;&gt;17</title>
<path fill="none" stroke="grey" stroke-width="2" d="M316.25,-935.34C316.35,-928.75 316.46,-921.08 316.56,-913.67"/>
<polygon fill="grey" stroke="grey" stroke-width="2" points="320.06,-913.98 316.7,-903.93 313.06,-913.88 320.06,-913.98"/>
</g>
<!-- 19&#45;&gt;18 -->
<g id="edge27" class="edge">
<title>19&#45;&gt;18</title>
<path fill="none" stroke="grey" stroke-width="2" d="M316,-1007.34C316,-1000.75 316,-993.08 316,-985.67"/>
<polygon fill="grey" stroke="grey" stroke-width="2" points="319.5,-985.93 316,-975.93 312.5,-985.93 319.5,-985.93"/>
</g>
<!-- 20 -->
<g id="node21" class="node">
<title>20</title>
<path fill="none" stroke="#566bd8" stroke-width="2" d="M341.5,-1116C341.5,-1116 290.5,-1116 290.5,-1116 284.5,-1116 278.5,-1110 278.5,-1104 278.5,-1104 278.5,-1092 278.5,-1092 278.5,-1086 284.5,-1080 290.5,-1080 290.5,-1080 341.5,-1080 341.5,-1080 347.5,-1080 353.5,-1086 353.5,-1092 353.5,-1092 353.5,-1104 353.5,-1104 353.5,-1110 347.5,-1116 341.5,-1116"/>
<text text-anchor="middle" x="316" y="-1095.5" font-family="sans" font-size="10.00">cat_mapping</text>
</g>
<!-- 20&#45;&gt;19 -->
<g id="edge29" class="edge">
<title>20&#45;&gt;19</title>
<path fill="none" stroke="grey" stroke-width="2" d="M316,-1079.34C316,-1072.75 316,-1065.08 316,-1057.67"/>
<polygon fill="grey" stroke="grey" stroke-width="2" points="319.5,-1057.93 316,-1047.93 312.5,-1057.93 319.5,-1057.93"/>
</g>
<!-- 21&#45;&gt;20 -->
<g id="edge31" class="edge">
<title>21&#45;&gt;20</title>
<path fill="none" stroke="grey" stroke-width="2" d="M444.61,-1152.59C421.19,-1142.83 391.25,-1130.36 366.16,-1119.9"/>
<polygon fill="grey" stroke="grey" stroke-width="2" points="367.64,-1116.73 357.07,-1116.11 364.95,-1123.19 367.64,-1116.73"/>
</g>
<!-- 22 -->
<g id="node23" class="node">
<title>22</title>
<path fill="none" stroke="#56d892" stroke-width="2" d="M554.5,-1260C554.5,-1260 413.5,-1260 413.5,-1260 407.5,-1260 401.5,-1254 401.5,-1248 401.5,-1248 401.5,-1236 401.5,-1236 401.5,-1230 407.5,-1224 413.5,-1224 413.5,-1224 554.5,-1224 554.5,-1224 560.5,-1224 566.5,-1230 566.5,-1236 566.5,-1236 566.5,-1248 566.5,-1248 566.5,-1254 560.5,-1260 554.5,-1260"/>
<text text-anchor="middle" x="484" y="-1239.5" font-family="sans" font-size="10.00">remove_headers_transcriptome</text>
</g>
<!-- 22&#45;&gt;21 -->
<g id="edge33" class="edge">
<title>22&#45;&gt;21</title>
<path fill="none" stroke="grey" stroke-width="2" d="M484,-1223.34C484,-1216.75 484,-1209.08 484,-1201.67"/>
<polygon fill="grey" stroke="grey" stroke-width="2" points="487.5,-1201.93 484,-1191.93 480.5,-1201.93 487.5,-1201.93"/>
</g>
<!-- 23 -->
<g id="node24" class="node">
<title>23</title>
<path fill="none" stroke="#568ad8" stroke-width="2" d="M535.5,-1332C535.5,-1332 434.5,-1332 434.5,-1332 428.5,-1332 422.5,-1326 422.5,-1320 422.5,-1320 422.5,-1308 422.5,-1308 422.5,-1302 428.5,-1296 434.5,-1296 434.5,-1296 535.5,-1296 535.5,-1296 541.5,-1296 547.5,-1302 547.5,-1308 547.5,-1308 547.5,-1320 547.5,-1320 547.5,-1326 541.5,-1332 535.5,-1332"/>
<text text-anchor="middle" x="485" y="-1311.5" font-family="sans" font-size="10.00">filter_nh_transcriptome</text>
</g>
<!-- 23&#45;&gt;22 -->
<g id="edge34" class="edge">
<title>23&#45;&gt;22</title>
<path fill="none" stroke="grey" stroke-width="2" d="M484.75,-1295.34C484.65,-1288.75 484.54,-1281.08 484.44,-1273.67"/>
<polygon fill="grey" stroke="grey" stroke-width="2" points="487.94,-1273.88 484.3,-1263.93 480.94,-1273.98 487.94,-1273.88"/>
</g>
<!-- 24 -->
<g id="node25" class="node">
<title>24</title>
<path fill="none" stroke="#d89c56" stroke-width="2" d="M548,-1404C548,-1404 426,-1404 426,-1404 420,-1404 414,-1398 414,-1392 414,-1392 414,-1380 414,-1380 414,-1374 420,-1368 426,-1368 426,-1368 548,-1368 548,-1368 554,-1368 560,-1374 560,-1380 560,-1380 560,-1392 560,-1392 560,-1398 554,-1404 548,-1404"/>
<text text-anchor="middle" x="487" y="-1383.5" font-family="sans" font-size="10.00">merge_transcriptome_maps</text>
</g>
<!-- 24&#45;&gt;23 -->
<g id="edge35" class="edge">
<title>24&#45;&gt;23</title>
<path fill="none" stroke="grey" stroke-width="2" d="M486.5,-1367.34C486.31,-1360.75 486.09,-1353.08 485.88,-1345.67"/>
<polygon fill="grey" stroke="grey" stroke-width="2" points="489.38,-1345.82 485.6,-1335.93 482.39,-1346.02 489.38,-1345.82"/>
</g>
<!-- 25&#45;&gt;24 -->
<g id="edge37" class="edge">
<title>25&#45;&gt;24</title>
<path fill="none" stroke="grey" stroke-width="2" d="M487,-1511.02C487,-1487.54 487,-1446.11 487,-1417.64"/>
<polygon fill="grey" stroke="grey" stroke-width="2" points="490.5,-1417.87 487,-1407.87 483.5,-1417.87 490.5,-1417.87"/>
</g>
<!-- 26 -->
<g id="node27" class="node">
<title>26</title>
<path fill="none" stroke="#56d863" stroke-width="2" d="M473.5,-1764C473.5,-1764 412.5,-1764 412.5,-1764 406.5,-1764 400.5,-1758 400.5,-1752 400.5,-1752 400.5,-1740 400.5,-1740 400.5,-1734 406.5,-1728 412.5,-1728 412.5,-1728 473.5,-1728 473.5,-1728 479.5,-1728 485.5,-1734 485.5,-1740 485.5,-1740 485.5,-1752 485.5,-1752 485.5,-1758 479.5,-1764 473.5,-1764"/>
<text text-anchor="middle" x="443" y="-1743.5" font-family="sans" font-size="10.00">fastx_collapser</text>
</g>
<!-- 26&#45;&gt;25 -->
<g id="edge40" class="edge">
<title>26&#45;&gt;25</title>
<path fill="none" stroke="grey" stroke-width="2" d="M446.68,-1727.12C454.2,-1690.54 471.42,-1606.77 480.74,-1561.45"/>
<polygon fill="grey" stroke="grey" stroke-width="2" points="484.11,-1562.44 482.69,-1551.94 477.25,-1561.03 484.11,-1562.44"/>
</g>
<!-- 32 -->
<g id="node33" class="node">
<title>32</title>
<path fill="none" stroke="#78d856" stroke-width="2" d="M591,-1692C591,-1692 483,-1692 483,-1692 477,-1692 471,-1686 471,-1680 471,-1680 471,-1668 471,-1668 471,-1662 477,-1656 483,-1656 483,-1656 591,-1656 591,-1656 597,-1656 603,-1662 603,-1668 603,-1668 603,-1680 603,-1680 603,-1686 597,-1692 591,-1692"/>
<text text-anchor="middle" x="537" y="-1671.5" font-family="sans" font-size="10.00">filter_fasta_for_oligomap</text>
</g>
<!-- 26&#45;&gt;32 -->
<g id="edge48" class="edge">
<title>26&#45;&gt;32</title>
<path fill="none" stroke="grey" stroke-width="2" d="M466.72,-1727.34C477.66,-1719.19 490.84,-1709.37 502.83,-1700.45"/>
<polygon fill="grey" stroke="grey" stroke-width="2" points="504.6,-1703.49 510.53,-1694.71 500.42,-1697.88 504.6,-1703.49"/>
</g>
<!-- 26&#45;&gt;37 -->
<g id="edge56" class="edge">
<title>26&#45;&gt;37</title>
<path fill="none" stroke="grey" stroke-width="2" d="M399.64,-1728.94C374.39,-1719.59 342.16,-1707.65 314.45,-1697.39"/>
<polygon fill="grey" stroke="grey" stroke-width="2" points="315.91,-1694.2 305.32,-1694.01 313.48,-1700.76 315.91,-1694.2"/>
</g>
<!-- 27 -->
<g id="node28" class="node">
<title>27</title>
<path fill="none" stroke="#d85e56" stroke-width="2" d="M459.5,-1836C459.5,-1836 426.5,-1836 426.5,-1836 420.5,-1836 414.5,-1830 414.5,-1824 414.5,-1824 414.5,-1812 414.5,-1812 414.5,-1806 420.5,-1800 426.5,-1800 426.5,-1800 459.5,-1800 459.5,-1800 465.5,-1800 471.5,-1806 471.5,-1812 471.5,-1812 471.5,-1824 471.5,-1824 471.5,-1830 465.5,-1836 459.5,-1836"/>
<text text-anchor="middle" x="443" y="-1815.5" font-family="sans" font-size="10.00">cutadapt</text>
</g>
<!-- 27&#45;&gt;26 -->
<g id="edge41" class="edge">
<title>27&#45;&gt;26</title>
<path fill="none" stroke="grey" stroke-width="2" d="M443,-1799.34C443,-1792.75 443,-1785.08 443,-1777.67"/>
<polygon fill="grey" stroke="grey" stroke-width="2" points="446.5,-1777.93 443,-1767.93 439.5,-1777.93 446.5,-1777.93"/>
</g>
<!-- 28 -->
<g id="node29" class="node">
<title>28</title>
<path fill="none" stroke="#a7d856" stroke-width="2" d="M476,-1908C476,-1908 410,-1908 410,-1908 404,-1908 398,-1902 398,-1896 398,-1896 398,-1884 398,-1884 398,-1878 404,-1872 410,-1872 410,-1872 476,-1872 476,-1872 482,-1872 488,-1878 488,-1884 488,-1884 488,-1896 488,-1896 488,-1902 482,-1908 476,-1908"/>
<text text-anchor="middle" x="443" y="-1887.5" font-family="sans" font-size="10.00">fasta_formatter</text>
</g>
<!-- 28&#45;&gt;27 -->
<g id="edge42" class="edge">
<title>28&#45;&gt;27</title>
<path fill="none" stroke="grey" stroke-width="2" d="M443,-1871.34C443,-1864.75 443,-1857.08 443,-1849.67"/>
<polygon fill="grey" stroke="grey" stroke-width="2" points="446.5,-1849.93 443,-1839.93 439.5,-1849.93 446.5,-1849.93"/>
</g>
<!-- 29 -->
<g id="node30" class="node">
<title>29</title>
<path fill="none" stroke="#d8cb56" stroke-width="2" d="M458,-1980C458,-1980 428,-1980 428,-1980 422,-1980 416,-1974 416,-1968 416,-1968 416,-1956 416,-1956 416,-1950 422,-1944 428,-1944 428,-1944 458,-1944 458,-1944 464,-1944 470,-1950 470,-1956 470,-1956 470,-1968 470,-1968 470,-1974 464,-1980 458,-1980"/>
<text text-anchor="middle" x="443" y="-1959.5" font-family="sans" font-size="10.00">start</text>
</g>
<!-- 29&#45;&gt;28 -->
<g id="edge43" class="edge">
<title>29&#45;&gt;28</title>
<path fill="none" stroke="grey" stroke-width="2" d="M443,-1943.34C443,-1936.75 443,-1929.08 443,-1921.67"/>
<polygon fill="grey" stroke="grey" stroke-width="2" points="446.5,-1921.93 443,-1911.93 439.5,-1921.93 446.5,-1921.93"/>
</g>
<!-- 30 -->
<g id="node31" class="node">
<title>30</title>
<path fill="none" stroke="#56a2d8" stroke-width="2" d="M674,-1476C674,-1476 534,-1476 534,-1476 528,-1476 522,-1470 522,-1464 522,-1464 522,-1452 522,-1452 522,-1446 528,-1440 534,-1440 534,-1440 674,-1440 674,-1440 680,-1440 686,-1446 686,-1452 686,-1452 686,-1464 686,-1464 686,-1470 680,-1476 674,-1476"/>
<text text-anchor="middle" x="604" y="-1455.5" font-family="sans" font-size="10.00">oligomap_transcriptome_toSAM</text>
</g>
<!-- 30&#45;&gt;24 -->
<g id="edge36" class="edge">
<title>30&#45;&gt;24</title>
<path fill="none" stroke="grey" stroke-width="2" d="M574.17,-1439.15C560.01,-1430.68 542.86,-1420.42 527.54,-1411.25"/>
<polygon fill="grey" stroke="grey" stroke-width="2" points="529.75,-1408.5 519.37,-1406.37 526.15,-1414.5 529.75,-1408.5"/>
</g>
<!-- 31&#45;&gt;30 -->
<g id="edge44" class="edge">
<title>31&#45;&gt;30</title>
<path fill="none" stroke="grey" stroke-width="2" d="M602.25,-1583.02C602.58,-1559.54 603.17,-1518.11 603.57,-1489.64"/>
<polygon fill="grey" stroke="grey" stroke-width="2" points="607.06,-1489.91 603.71,-1479.87 600.07,-1489.81 607.06,-1489.91"/>
</g>
<!-- 33 -->
<g id="node34" class="node">
<title>33</title>
<path fill="none" stroke="#56d88a" stroke-width="2" d="M772,-1548C772,-1548 644,-1548 644,-1548 638,-1548 632,-1542 632,-1536 632,-1536 632,-1524 632,-1524 632,-1518 638,-1512 644,-1512 644,-1512 772,-1512 772,-1512 778,-1512 784,-1518 784,-1524 784,-1524 784,-1536 784,-1536 784,-1542 778,-1548 772,-1548"/>
<text text-anchor="middle" x="708" y="-1527.5" font-family="sans" font-size="10.00">sort_transcriptome_oligomap</text>
</g>
<!-- 31&#45;&gt;33 -->
<g id="edge49" class="edge">
<title>31&#45;&gt;33</title>
<path fill="none" stroke="grey" stroke-width="2" d="M629.02,-1583.15C641.61,-1574.84 656.79,-1564.82 670.46,-1555.79"/>
<polygon fill="grey" stroke="grey" stroke-width="2" points="672.08,-1558.91 678.5,-1550.48 668.23,-1553.07 672.08,-1558.91"/>
</g>
<!-- 32&#45;&gt;31 -->
<g id="edge46" class="edge">
<title>32&#45;&gt;31</title>
<path fill="none" stroke="grey" stroke-width="2" d="M553.4,-1655.34C560.43,-1647.77 568.8,-1638.75 576.6,-1630.35"/>
<polygon fill="grey" stroke="grey" stroke-width="2" points="579.08,-1632.83 583.32,-1623.12 573.95,-1628.07 579.08,-1632.83"/>
</g>
<!-- 32&#45;&gt;39 -->
<g id="edge60" class="edge">
<title>32&#45;&gt;39</title>
<path fill="none" stroke="grey" stroke-width="2" d="M486.78,-1655.06C461.3,-1645.97 430.13,-1634.83 403.15,-1625.2"/>
<polygon fill="grey" stroke="grey" stroke-width="2" points="404.54,-1621.97 393.94,-1621.91 402.18,-1628.57 404.54,-1621.97"/>
</g>
<!-- 33&#45;&gt;30 -->
<g id="edge45" class="edge">
<title>33&#45;&gt;30</title>
<path fill="none" stroke="grey" stroke-width="2" d="M681.49,-1511.15C669.26,-1502.93 654.54,-1493.02 641.23,-1484.06"/>
<polygon fill="grey" stroke="grey" stroke-width="2" points="643.23,-1481.18 632.98,-1478.5 639.32,-1486.99 643.23,-1481.18"/>
</g>
<!-- 34 -->
<g id="node35" class="node">
<title>34</title>
<path fill="none" stroke="#56d8a9" stroke-width="2" d="M373.5,-1188C373.5,-1188 258.5,-1188 258.5,-1188 252.5,-1188 246.5,-1182 246.5,-1176 246.5,-1176 246.5,-1164 246.5,-1164 246.5,-1158 252.5,-1152 258.5,-1152 258.5,-1152 373.5,-1152 373.5,-1152 379.5,-1152 385.5,-1158 385.5,-1164 385.5,-1164 385.5,-1176 385.5,-1176 385.5,-1182 379.5,-1188 373.5,-1188"/>
<text text-anchor="middle" x="316" y="-1167.5" font-family="sans" font-size="10.00">remove_headers_genome</text>
</g>
<!-- 34&#45;&gt;20 -->
<g id="edge30" class="edge">
<title>34&#45;&gt;20</title>
<path fill="none" stroke="grey" stroke-width="2" d="M316,-1151.34C316,-1144.75 316,-1137.08 316,-1129.67"/>
<polygon fill="grey" stroke="grey" stroke-width="2" points="319.5,-1129.93 316,-1119.93 312.5,-1129.93 319.5,-1129.93"/>
</g>
<!-- 35 -->
<g id="node36" class="node">
<title>35</title>
<path fill="none" stroke="#56d8c1" stroke-width="2" d="M348.5,-1332C348.5,-1332 273.5,-1332 273.5,-1332 267.5,-1332 261.5,-1326 261.5,-1320 261.5,-1320 261.5,-1308 261.5,-1308 261.5,-1302 267.5,-1296 273.5,-1296 273.5,-1296 348.5,-1296 348.5,-1296 354.5,-1296 360.5,-1302 360.5,-1308 360.5,-1308 360.5,-1320 360.5,-1320 360.5,-1326 354.5,-1332 348.5,-1332"/>
<text text-anchor="middle" x="311" y="-1311.5" font-family="sans" font-size="10.00">nh_filter_genome</text>
</g>
<!-- 35&#45;&gt;34 -->
<g id="edge50" class="edge">
<title>35&#45;&gt;34</title>
<path fill="none" stroke="grey" stroke-width="2" d="M311.63,-1295.02C312.46,-1271.54 313.92,-1230.11 314.92,-1201.64"/>
<polygon fill="grey" stroke="grey" stroke-width="2" points="318.41,-1201.98 315.27,-1191.86 311.42,-1201.73 318.41,-1201.98"/>
</g>
<!-- 36 -->
<g id="node37" class="node">
<title>36</title>
<path fill="none" stroke="#56c1d8" stroke-width="2" d="M350,-1404C350,-1404 254,-1404 254,-1404 248,-1404 242,-1398 242,-1392 242,-1392 242,-1380 242,-1380 242,-1374 248,-1368 254,-1368 254,-1368 350,-1368 350,-1368 356,-1368 362,-1374 362,-1380 362,-1380 362,-1392 362,-1392 362,-1398 356,-1404 350,-1404"/>
<text text-anchor="middle" x="302" y="-1383.5" font-family="sans" font-size="10.00">merge_genome_maps</text>
</g>
<!-- 36&#45;&gt;35 -->
<g id="edge51" class="edge">
<title>36&#45;&gt;35</title>
<path fill="none" stroke="grey" stroke-width="2" d="M304.27,-1367.34C305.12,-1360.75 306.1,-1353.08 307.06,-1345.67"/>
<polygon fill="grey" stroke="grey" stroke-width="2" points="310.51,-1346.27 308.31,-1335.9 303.57,-1345.38 310.51,-1346.27"/>
</g>
<!-- 37&#45;&gt;36 -->
<g id="edge53" class="edge">
<title>37&#45;&gt;36</title>
<path fill="none" stroke="grey" stroke-width="2" d="M245.04,-1655.37C233.56,-1631.67 214.26,-1587.92 207,-1548 204.14,-1532.26 205.15,-1527.89 207,-1512 210.8,-1479.34 205.36,-1467.08 224,-1440 231.67,-1428.86 242.51,-1419.39 253.68,-1411.68"/>
<polygon fill="grey" stroke="grey" stroke-width="2" points="255.31,-1414.79 261.84,-1406.45 251.53,-1408.89 255.31,-1414.79"/>
</g>
<!-- 38 -->
<g id="node39" class="node">
<title>38</title>
<path fill="none" stroke="#d8d356" stroke-width="2" d="M359,-1476C359,-1476 245,-1476 245,-1476 239,-1476 233,-1470 233,-1464 233,-1464 233,-1452 233,-1452 233,-1446 239,-1440 245,-1440 245,-1440 359,-1440 359,-1440 365,-1440 371,-1446 371,-1452 371,-1452 371,-1464 371,-1464 371,-1470 365,-1476 359,-1476"/>
<text text-anchor="middle" x="302" y="-1455.5" font-family="sans" font-size="10.00">oligomap_genome_toSAM</text>
</g>
<!-- 38&#45;&gt;36 -->
<g id="edge52" class="edge">
<title>38&#45;&gt;36</title>
<path fill="none" stroke="grey" stroke-width="2" d="M302,-1439.34C302,-1432.75 302,-1425.08 302,-1417.67"/>
<polygon fill="grey" stroke="grey" stroke-width="2" points="305.5,-1417.93 302,-1407.93 298.5,-1417.93 305.5,-1417.93"/>
</g>
<!-- 39&#45;&gt;38 -->
<g id="edge58" class="edge">
<title>39&#45;&gt;38</title>
<path fill="none" stroke="grey" stroke-width="2" d="M347.77,-1583.3C353.74,-1564.87 360.18,-1535.46 351,-1512 347.24,-1502.4 340.84,-1493.5 333.88,-1485.83"/>
<polygon fill="grey" stroke="grey" stroke-width="2" points="336.59,-1483.6 327.06,-1478.98 331.63,-1488.54 336.59,-1483.6"/>
</g>
<!-- 40 -->
<g id="node41" class="node">
<title>40</title>
<path fill="none" stroke="#56d8c9" stroke-width="2" d="M330,-1548C330,-1548 228,-1548 228,-1548 222,-1548 216,-1542 216,-1536 216,-1536 216,-1524 216,-1524 216,-1518 222,-1512 228,-1512 228,-1512 330,-1512 330,-1512 336,-1512 342,-1518 342,-1524 342,-1524 342,-1536 342,-1536 342,-1542 336,-1548 330,-1548"/>
<text text-anchor="middle" x="279" y="-1527.5" font-family="sans" font-size="10.00">sort_genome_oligomap</text>
</g>
<!-- 39&#45;&gt;40 -->
<g id="edge61" class="edge">
<title>39&#45;&gt;40</title>
<path fill="none" stroke="grey" stroke-width="2" d="M325.35,-1583.34C318.72,-1575.85 310.84,-1566.95 303.47,-1558.63"/>
<polygon fill="grey" stroke="grey" stroke-width="2" points="306.11,-1556.33 296.86,-1551.17 300.87,-1560.97 306.11,-1556.33"/>
</g>
<!-- 40&#45;&gt;38 -->
<g id="edge57" class="edge">
<title>40&#45;&gt;38</title>
<path fill="none" stroke="grey" stroke-width="2" d="M284.8,-1511.34C287.02,-1504.59 289.61,-1496.69 292.11,-1489.11"/>
<polygon fill="grey" stroke="grey" stroke-width="2" points="295.38,-1490.37 295.17,-1479.78 288.73,-1488.19 295.38,-1490.37"/>
</g>
<!-- 41&#45;&gt;0 -->
<g id="edge5" class="edge">
<title>41&#45;&gt;0</title>
<path fill="none" stroke="grey" stroke-width="2" d="M355.9,-359.36C336.78,-333.62 305,-283.53 305,-235 305,-235 305,-235 305,-161 305,-118.5 309.08,-101.16 340,-72 373.27,-40.63 425.4,-27.82 461.5,-22.59"/>
<polygon fill="grey" stroke="grey" stroke-width="2" points="461.53,-26.12 471,-21.37 460.64,-19.17 461.53,-26.12"/>
</g>
<!-- 50 -->
<g id="node51" class="node">
<title>50</title>
<path fill="none" stroke="#d87d56" stroke-width="2" d="M430.5,-324C430.5,-324 359.5,-324 359.5,-324 353.5,-324 347.5,-318 347.5,-312 347.5,-312 347.5,-300 347.5,-300 347.5,-294 353.5,-288 359.5,-288 359.5,-288 430.5,-288 430.5,-288 436.5,-288 442.5,-294 442.5,-300 442.5,-300 442.5,-312 442.5,-312 442.5,-318 436.5,-324 430.5,-324"/>
<text text-anchor="middle" x="395" y="-303.5" font-family="sans" font-size="10.00">uncollapse_reads</text>
</g>
<!-- 41&#45;&gt;50 -->
<g id="edge73" class="edge">
<title>41&#45;&gt;50</title>
<path fill="none" stroke="grey" stroke-width="2" d="M376.31,-359.34C378.72,-352.59 381.54,-344.69 384.25,-337.11"/>
<polygon fill="grey" stroke="grey" stroke-width="2" points="387.52,-338.35 387.59,-327.75 380.93,-335.99 387.52,-338.35"/>
</g>
<!-- 42 -->
<g id="node43" class="node">
<title>42</title>
<path fill="none" stroke="#569ad8" stroke-width="2" d="M531.5,-468C531.5,-468 412.5,-468 412.5,-468 406.5,-468 400.5,-462 400.5,-456 400.5,-456 400.5,-444 400.5,-444 400.5,-438 406.5,-432 412.5,-432 412.5,-432 531.5,-432 531.5,-432 537.5,-432 543.5,-438 543.5,-444 543.5,-444 543.5,-456 543.5,-456 543.5,-462 537.5,-468 531.5,-468"/>
<text text-anchor="middle" x="472" y="-447.5" font-family="sans" font-size="10.00">intersect_extended_premir</text>
</g>
<!-- 42&#45;&gt;41 -->
<g id="edge63" class="edge">
<title>42&#45;&gt;41</title>
<path fill="none" stroke="grey" stroke-width="2" d="M446,-431.15C434.01,-422.93 419.57,-413.02 406.51,-404.06"/>
<polygon fill="grey" stroke="grey" stroke-width="2" points="408.68,-401.3 398.45,-398.53 404.72,-407.07 408.68,-401.3"/>
</g>
<!-- 47 -->
<g id="node48" class="node">
<title>47</title>
<path fill="none" stroke="#56b1d8" stroke-width="2" d="M571,-396C571,-396 503,-396 503,-396 497,-396 491,-390 491,-384 491,-384 491,-372 491,-372 491,-366 497,-360 503,-360 503,-360 571,-360 571,-360 577,-360 583,-366 583,-372 583,-372 583,-384 583,-384 583,-390 577,-396 571,-396"/>
<text text-anchor="middle" x="537" y="-375.5" font-family="sans" font-size="10.00">quant_mirna_pri</text>
</g>
<!-- 42&#45;&gt;47 -->
<g id="edge70" class="edge">
<title>42&#45;&gt;47</title>
<path fill="none" stroke="grey" stroke-width="2" d="M488.4,-431.34C495.43,-423.77 503.8,-414.75 511.6,-406.35"/>
<polygon fill="grey" stroke="grey" stroke-width="2" points="514.08,-408.83 518.32,-399.12 508.95,-404.07 514.08,-408.83"/>
</g>
<!-- 43 -->
<g id="node44" class="node">
<title>43</title>
<path fill="none" stroke="#56d85b" stroke-width="2" d="M462.5,-540C462.5,-540 395.5,-540 395.5,-540 389.5,-540 383.5,-534 383.5,-528 383.5,-528 383.5,-516 383.5,-516 383.5,-510 389.5,-504 395.5,-504 395.5,-504 462.5,-504 462.5,-504 468.5,-504 474.5,-510 474.5,-516 474.5,-516 474.5,-528 474.5,-528 474.5,-534 468.5,-540 462.5,-540"/>
<text text-anchor="middle" x="429" y="-519.5" font-family="sans" font-size="10.00">sort_alignments</text>
</g>
<!-- 43&#45;&gt;42 -->
<g id="edge64" class="edge">
<title>43&#45;&gt;42</title>
<path fill="none" stroke="grey" stroke-width="2" d="M439.85,-503.34C444.25,-496.18 449.44,-487.73 454.35,-479.73"/>
<polygon fill="grey" stroke="grey" stroke-width="2" points="457.17,-481.83 459.42,-471.48 451.2,-478.17 457.17,-481.83"/>
</g>
<!-- 44&#45;&gt;43 -->
<g id="edge66" class="edge">
<title>44&#45;&gt;43</title>
<path fill="none" stroke="grey" stroke-width="2" d="M423.77,-575.34C424.42,-568.75 425.19,-561.08 425.93,-553.67"/>
<polygon fill="grey" stroke="grey" stroke-width="2" points="429.4,-554.21 426.91,-543.91 422.43,-553.52 429.4,-554.21"/>
</g>
<!-- 45&#45;&gt;42 -->
<g id="edge65" class="edge">
<title>45&#45;&gt;42</title>
<path fill="none" stroke="grey" stroke-width="2" d="M522.09,-503.34C514.77,-495.69 506.03,-486.56 497.92,-478.08"/>
<polygon fill="grey" stroke="grey" stroke-width="2" points="500.67,-475.89 491.23,-471.09 495.61,-480.73 500.67,-475.89"/>
</g>
<!-- 46 -->
<g id="node47" class="node">
<title>46</title>
<path fill="none" stroke="#56d86b" stroke-width="2" d="M571,-252C571,-252 515,-252 515,-252 509,-252 503,-246 503,-240 503,-240 503,-228 503,-228 503,-222 509,-216 515,-216 515,-216 571,-216 571,-216 577,-216 583,-222 583,-228 583,-228 583,-240 583,-240 583,-246 577,-252 571,-252"/>
<text text-anchor="middle" x="543" y="-231.5" font-family="sans" font-size="10.00">merge_tables</text>
</g>
<!-- 46&#45;&gt;0 -->
<g id="edge2" class="edge">
<title>46&#45;&gt;0</title>
<path fill="none" stroke="grey" stroke-width="2" d="M539.57,-215.12C532.58,-178.62 516.59,-95.13 507.89,-49.74"/>
<polygon fill="grey" stroke="grey" stroke-width="2" points="511.33,-49.11 506.01,-39.95 504.46,-50.43 511.33,-49.11"/>
</g>
<!-- 47&#45;&gt;46 -->
<g id="edge69" class="edge">
<title>47&#45;&gt;46</title>
<path fill="none" stroke="grey" stroke-width="2" d="M537.76,-359.02C538.75,-335.54 540.5,-294.11 541.71,-265.64"/>
<polygon fill="grey" stroke="grey" stroke-width="2" points="545.19,-266 542.12,-255.86 538.2,-265.71 545.19,-266"/>
</g>
<!-- 48 -->
<g id="node49" class="node">
<title>48</title>
<path fill="none" stroke="#b6d856" stroke-width="2" d="M475,-180C475,-180 347,-180 347,-180 341,-180 335,-174 335,-168 335,-168 335,-156 335,-156 335,-150 341,-144 347,-144 347,-144 475,-144 475,-144 481,-144 487,-150 487,-156 487,-156 487,-168 487,-168 487,-174 481,-180 475,-180"/>
<text text-anchor="middle" x="411" y="-159.5" font-family="sans" font-size="10.00">sort_uncollpased_by_position</text>
</g>
<!-- 48&#45;&gt;0 -->
<g id="edge7" class="edge">
<title>48&#45;&gt;0</title>
<path fill="none" stroke="grey" stroke-width="2" d="M445.14,-143.18C458.88,-134.36 473.66,-122.47 483,-108 494.2,-90.65 498.92,-67.82 500.85,-49.63"/>
<polygon fill="grey" stroke="grey" stroke-width="2" points="504.33,-50.05 501.61,-39.81 497.35,-49.5 504.33,-50.05"/>
</g>
<!-- 51 -->
<g id="node52" class="node">
<title>51</title>
<path fill="none" stroke="#80d856" stroke-width="2" d="M461.5,-108C461.5,-108 360.5,-108 360.5,-108 354.5,-108 348.5,-102 348.5,-96 348.5,-96 348.5,-84 348.5,-84 348.5,-78 354.5,-72 360.5,-72 360.5,-72 461.5,-72 461.5,-72 467.5,-72 473.5,-78 473.5,-84 473.5,-84 473.5,-96 473.5,-96 473.5,-102 467.5,-108 461.5,-108"/>
<text text-anchor="middle" x="411" y="-87.5" font-family="sans" font-size="10.00">uncollapsed_index_bam</text>
</g>
<!-- 48&#45;&gt;51 -->
<g id="edge74" class="edge">
<title>48&#45;&gt;51</title>
<path fill="none" stroke="grey" stroke-width="2" d="M411,-143.34C411,-136.75 411,-129.08 411,-121.67"/>
<polygon fill="grey" stroke="grey" stroke-width="2" points="414.5,-121.93 411,-111.93 407.5,-121.93 414.5,-121.93"/>
</g>
<!-- 49 -->
<g id="node50" class="node">
<title>49</title>
<path fill="none" stroke="#d8bc56" stroke-width="2" d="M472.5,-252C472.5,-252 345.5,-252 345.5,-252 339.5,-252 333.5,-246 333.5,-240 333.5,-240 333.5,-228 333.5,-228 333.5,-222 339.5,-216 345.5,-216 345.5,-216 472.5,-216 472.5,-216 478.5,-216 484.5,-222 484.5,-228 484.5,-228 484.5,-240 484.5,-240 484.5,-246 478.5,-252 472.5,-252"/>
<text text-anchor="middle" x="409" y="-231.5" font-family="sans" font-size="10.00">uncollpased_convert_to_bam</text>
</g>
<!-- 49&#45;&gt;48 -->
<g id="edge71" class="edge">
<title>49&#45;&gt;48</title>
<path fill="none" stroke="grey" stroke-width="2" d="M409.5,-215.34C409.69,-208.75 409.91,-201.08 410.12,-193.67"/>
<polygon fill="grey" stroke="grey" stroke-width="2" points="413.61,-194.02 410.4,-183.93 406.62,-193.82 413.61,-194.02"/>
</g>
<!-- 50&#45;&gt;49 -->
<g id="edge72" class="edge">
<title>50&#45;&gt;49</title>
<path fill="none" stroke="grey" stroke-width="2" d="M398.53,-287.34C399.85,-280.75 401.38,-273.08 402.87,-265.67"/>
<polygon fill="grey" stroke="grey" stroke-width="2" points="406.3,-266.36 404.83,-255.87 399.43,-264.99 406.3,-266.36"/>
</g>
<!-- 51&#45;&gt;0 -->
<g id="edge8" class="edge">
<title>51&#45;&gt;0</title>
<path fill="none" stroke="grey" stroke-width="2" d="M433.96,-71.34C444.44,-63.27 457.06,-53.57 468.57,-44.72"/>
<polygon fill="grey" stroke="grey" stroke-width="2" points="470.54,-47.62 476.33,-38.75 466.27,-42.07 470.54,-47.62"/>
</g>
</g>
</svg>
