<?xml version="1.0" encoding="UTF-8" standalone="no"?>
<!DOCTYPE svg PUBLIC "-//W3C//DTD SVG 1.1//EN"
 "http://www.w3.org/Graphics/SVG/1.1/DTD/svg11.dtd">
<!-- Generated by graphviz version 2.40.1 (20161225.0304)
 -->
<!-- Title: snakemake_dag Pages: 1 -->
<svg width="200pt" height="404pt"
 viewBox="0.00 0.00 200.00 404.00" xmlns="http://www.w3.org/2000/svg" xmlns:xlink="http://www.w3.org/1999/xlink">
<g id="graph0" class="graph" transform="scale(1 1) rotate(0) translate(4 400)">
<title>snakemake_dag</title>
<polygon fill="#ffffff" stroke="transparent" points="-4,4 -4,-400 196,-400 196,4 -4,4"/>
<!-- 0 -->
<g id="node1" class="node">
<title>0</title>
<path fill="none" stroke="#56d8c9" stroke-width="2" d="M106,-36C106,-36 76,-36 76,-36 70,-36 64,-30 64,-24 64,-24 64,-12 64,-12 64,-6 70,0 76,0 76,0 106,0 106,0 112,0 118,-6 118,-12 118,-12 118,-24 118,-24 118,-30 112,-36 106,-36"/>
<text text-anchor="middle" x="91" y="-15.5" font-family="sans" font-size="10.00" fill="#000000">finish</text>
</g>
<!-- 1 -->
<g id="node2" class="node">
<title>1</title>
<path fill="none" stroke="#56a2d8" stroke-width="2" d="M120.5,-108C120.5,-108 61.5,-108 61.5,-108 55.5,-108 49.5,-102 49.5,-96 49.5,-96 49.5,-84 49.5,-84 49.5,-78 55.5,-72 61.5,-72 61.5,-72 120.5,-72 120.5,-72 126.5,-72 132.5,-78 132.5,-84 132.5,-84 132.5,-96 132.5,-96 132.5,-102 126.5,-108 120.5,-108"/>
<text text-anchor="middle" x="91" y="-87.5" font-family="sans" font-size="10.00" fill="#000000">merge_tables</text>
</g>
<!-- 1&#45;&gt;0 -->
<g id="edge1" class="edge">
<title>1&#45;&gt;0</title>
<path fill="none" stroke="#c0c0c0" stroke-width="2" d="M91,-71.8314C91,-64.131 91,-54.9743 91,-46.4166"/>
<polygon fill="#c0c0c0" stroke="#c0c0c0" stroke-width="2" points="94.5001,-46.4132 91,-36.4133 87.5001,-46.4133 94.5001,-46.4132"/>
</g>
<!-- 2 -->
<g id="node3" class="node">
<title>2</title>
<path fill="none" stroke="#78d856" stroke-width="2" d="M66,-180C66,-180 12,-180 12,-180 6,-180 0,-174 0,-168 0,-168 0,-156 0,-156 0,-150 6,-144 12,-144 12,-144 66,-144 66,-144 72,-144 78,-150 78,-156 78,-156 78,-168 78,-168 78,-174 72,-180 66,-180"/>
<text text-anchor="middle" x="39" y="-159.5" font-family="sans" font-size="10.00" fill="#000000">quant_mirna</text>
</g>
<!-- 2&#45;&gt;1 -->
<g id="edge2" class="edge">
<title>2&#45;&gt;1</title>
<path fill="none" stroke="#c0c0c0" stroke-width="2" d="M52.1218,-143.8314C58.0499,-135.6232 65.1729,-125.7606 71.6933,-116.7323"/>
<polygon fill="#c0c0c0" stroke="#c0c0c0" stroke-width="2" points="74.684,-118.5693 77.7015,-108.4133 69.0092,-114.4708 74.684,-118.5693"/>
</g>
<!-- 3 -->
<g id="node4" class="node">
<title>3</title>
<path fill="none" stroke="#56d87b" stroke-width="2" d="M125.5,-252C125.5,-252 56.5,-252 56.5,-252 50.5,-252 44.5,-246 44.5,-240 44.5,-240 44.5,-228 44.5,-228 44.5,-222 50.5,-216 56.5,-216 56.5,-216 125.5,-216 125.5,-216 131.5,-216 137.5,-222 137.5,-228 137.5,-228 137.5,-240 137.5,-240 137.5,-246 131.5,-252 125.5,-252"/>
<text text-anchor="middle" x="91" y="-231.5" font-family="sans" font-size="10.00" fill="#000000">intersect_mirna</text>
</g>
<!-- 3&#45;&gt;2 -->
<g id="edge4" class="edge">
<title>3&#45;&gt;2</title>
<path fill="none" stroke="#c0c0c0" stroke-width="2" d="M77.8782,-215.8314C71.9501,-207.6232 64.8271,-197.7606 58.3067,-188.7323"/>
<polygon fill="#c0c0c0" stroke="#c0c0c0" stroke-width="2" points="60.9908,-186.4708 52.2985,-180.4133 55.316,-190.5693 60.9908,-186.4708"/>
</g>
<!-- 6 -->
<g id="node7" class="node">
<title>6</title>
<path fill="none" stroke="#c6d856" stroke-width="2" d="M180,-180C180,-180 108,-180 108,-180 102,-180 96,-174 96,-168 96,-168 96,-156 96,-156 96,-150 102,-144 108,-144 108,-144 180,-144 180,-144 186,-144 192,-150 192,-156 192,-156 192,-168 192,-168 192,-174 186,-180 180,-180"/>
<text text-anchor="middle" x="144" y="-159.5" font-family="sans" font-size="10.00" fill="#000000">quant_mirna_pri</text>
</g>
<!-- 3&#45;&gt;6 -->
<g id="edge7" class="edge">
<title>3&#45;&gt;6</title>
<path fill="none" stroke="#c0c0c0" stroke-width="2" d="M104.3741,-215.8314C110.4162,-207.6232 117.6763,-197.7606 124.3221,-188.7323"/>
<polygon fill="#c0c0c0" stroke="#c0c0c0" stroke-width="2" points="127.3363,-190.5415 130.4458,-180.4133 121.6989,-186.3918 127.3363,-190.5415"/>
</g>
<!-- 4 -->
<g id="node5" class="node">
<title>4</title>
<path fill="none" stroke="#d85656" stroke-width="2" d="M126.5,-324C126.5,-324 55.5,-324 55.5,-324 49.5,-324 43.5,-318 43.5,-312 43.5,-312 43.5,-300 43.5,-300 43.5,-294 49.5,-288 55.5,-288 55.5,-288 126.5,-288 126.5,-288 132.5,-288 138.5,-294 138.5,-300 138.5,-300 138.5,-312 138.5,-312 138.5,-318 132.5,-324 126.5,-324"/>
<text text-anchor="middle" x="91" y="-303.5" font-family="sans" font-size="10.00" fill="#000000">sort_alignments</text>
</g>
<!-- 4&#45;&gt;3 -->
<g id="edge5" class="edge">
<title>4&#45;&gt;3</title>
<path fill="none" stroke="#c0c0c0" stroke-width="2" d="M91,-287.8314C91,-280.131 91,-270.9743 91,-262.4166"/>
<polygon fill="#c0c0c0" stroke="#c0c0c0" stroke-width="2" points="94.5001,-262.4132 91,-252.4133 87.5001,-262.4133 94.5001,-262.4132"/>
</g>
<!-- 5 -->
<g id="node6" class="node">
<title>5</title>
<path fill="none" stroke="#d8a456" stroke-width="2" d="M112,-396C112,-396 70,-396 70,-396 64,-396 58,-390 58,-384 58,-384 58,-372 58,-372 58,-366 64,-360 70,-360 70,-360 112,-360 112,-360 118,-360 124,-366 124,-372 124,-372 124,-384 124,-384 124,-390 118,-396 112,-396"/>
<text text-anchor="middle" x="91" y="-375.5" font-family="sans" font-size="10.00" fill="#000000">bamtobed</text>
</g>
<!-- 5&#45;&gt;4 -->
<g id="edge6" class="edge">
<title>5&#45;&gt;4</title>
<path fill="none" stroke="#c0c0c0" stroke-width="2" d="M91,-359.8314C91,-352.131 91,-342.9743 91,-334.4166"/>
<polygon fill="#c0c0c0" stroke="#c0c0c0" stroke-width="2" points="94.5001,-334.4132 91,-324.4133 87.5001,-334.4133 94.5001,-334.4132"/>
</g>
<!-- 6&#45;&gt;1 -->
<g id="edge3" class="edge">
<title>6&#45;&gt;1</title>
<path fill="none" stroke="#c0c0c0" stroke-width="2" d="M130.6259,-143.8314C124.5838,-135.6232 117.3237,-125.7606 110.6779,-116.7323"/>
<polygon fill="#c0c0c0" stroke="#c0c0c0" stroke-width="2" points="113.3011,-114.3918 104.5542,-108.4133 107.6637,-118.5415 113.3011,-114.3918"/>
</g>
</g>
</svg>
