<?xml version="1.0" encoding="UTF-8" standalone="no"?>
<!DOCTYPE svg PUBLIC "-//W3C//DTD SVG 1.1//EN"
 "http://www.w3.org/Graphics/SVG/1.1/DTD/svg11.dtd">
<!-- Generated by graphviz version 7.1.0 (20230122.1345)
 -->
<!-- Title: snakemake_dag Pages: 1 -->
<svg width="942pt" height="1844pt"
 viewBox="0.00 0.00 941.50 1844.00" xmlns="http://www.w3.org/2000/svg" xmlns:xlink="http://www.w3.org/1999/xlink">
<g id="graph0" class="graph" transform="scale(1 1) rotate(0) translate(4 1840)">
<title>snakemake_dag</title>
<polygon fill="white" stroke="none" points="-4,4 -4,-1840 937.5,-1840 937.5,4 -4,4"/>
<!-- 0 -->
<g id="node1" class="node">
<title>0</title>
<path fill="none" stroke="#d8a456" stroke-width="2" d="M397,-36C397,-36 367,-36 367,-36 361,-36 355,-30 355,-24 355,-24 355,-12 355,-12 355,-6 361,0 367,0 367,0 397,0 397,0 403,0 409,-6 409,-12 409,-12 409,-24 409,-24 409,-30 403,-36 397,-36"/>
<text text-anchor="middle" x="382" y="-15.5" font-family="sans" font-size="10.00">finish</text>
</g>
<!-- 1 -->
<g id="node2" class="node">
<title>1</title>
<path fill="none" stroke="#80d856" stroke-width="2" d="M921.5,-1476C921.5,-1476 736.5,-1476 736.5,-1476 730.5,-1476 724.5,-1470 724.5,-1464 724.5,-1464 724.5,-1452 724.5,-1452 724.5,-1446 730.5,-1440 736.5,-1440 736.5,-1440 921.5,-1440 921.5,-1440 927.5,-1440 933.5,-1446 933.5,-1452 933.5,-1452 933.5,-1464 933.5,-1464 933.5,-1470 927.5,-1476 921.5,-1476"/>
<text text-anchor="middle" x="829" y="-1455.5" font-family="sans" font-size="10.00">generate_segemehl_index_transcriptome</text>
</g>
<!-- 1&#45;&gt;0 -->
<g id="edge10" class="edge">
<title>1&#45;&gt;0</title>
<path fill="none" stroke="grey" stroke-width="2" d="M835.22,-1439.32C844,-1412.71 859,-1360.61 859,-1315 859,-1315 859,-1315 859,-161 859,-70.2 537.48,-32.78 422.38,-22.29"/>
<polygon fill="grey" stroke="grey" stroke-width="2" points="422.99,-18.83 412.72,-21.44 422.38,-25.81 422.99,-18.83"/>
</g>
<!-- 25 -->
<g id="node26" class="node">
<title>25</title>
<path fill="none" stroke="#565bd8" stroke-width="2" d="M818.5,-1404C818.5,-1404 665.5,-1404 665.5,-1404 659.5,-1404 653.5,-1398 653.5,-1392 653.5,-1392 653.5,-1380 653.5,-1380 653.5,-1374 659.5,-1368 665.5,-1368 665.5,-1368 818.5,-1368 818.5,-1368 824.5,-1368 830.5,-1374 830.5,-1380 830.5,-1380 830.5,-1392 830.5,-1392 830.5,-1398 824.5,-1404 818.5,-1404"/>
<text text-anchor="middle" x="742" y="-1383.5" font-family="sans" font-size="10.00">mapping_transcriptome_segemehl</text>
</g>
<!-- 1&#45;&gt;25 -->
<g id="edge40" class="edge">
<title>1&#45;&gt;25</title>
<path fill="none" stroke="grey" stroke-width="2" d="M807.05,-1439.34C797.13,-1431.36 785.21,-1421.77 774.3,-1412.99"/>
<polygon fill="grey" stroke="grey" stroke-width="2" points="776.59,-1410.34 766.61,-1406.8 772.2,-1415.8 776.59,-1410.34"/>
</g>
<!-- 2 -->
<g id="node3" class="node">
<title>2</title>
<path fill="none" stroke="#56c9d8" stroke-width="2" d="M654.5,-1548C654.5,-1548 615.5,-1548 615.5,-1548 609.5,-1548 603.5,-1542 603.5,-1536 603.5,-1536 603.5,-1524 603.5,-1524 603.5,-1518 609.5,-1512 615.5,-1512 615.5,-1512 654.5,-1512 654.5,-1512 660.5,-1512 666.5,-1518 666.5,-1524 666.5,-1524 666.5,-1536 666.5,-1536 666.5,-1542 660.5,-1548 654.5,-1548"/>
<text text-anchor="middle" x="635" y="-1527.5" font-family="sans" font-size="10.00">trim_fasta</text>
</g>
<!-- 2&#45;&gt;1 -->
<g id="edge12" class="edge">
<title>2&#45;&gt;1</title>
<path fill="none" stroke="grey" stroke-width="2" d="M667.47,-1517.28C694.66,-1507.47 734.22,-1493.2 767.39,-1481.23"/>
<polygon fill="grey" stroke="grey" stroke-width="2" points="768.22,-1484.65 776.44,-1477.97 765.84,-1478.07 768.22,-1484.65"/>
</g>
<!-- 2&#45;&gt;25 -->
<g id="edge39" class="edge">
<title>2&#45;&gt;25</title>
<path fill="none" stroke="grey" stroke-width="2" d="M642.13,-1511.16C650.15,-1492.35 664.39,-1462.39 682,-1440 689.57,-1430.37 699.04,-1421.09 708.2,-1413.06"/>
<polygon fill="grey" stroke="grey" stroke-width="2" points="710.21,-1415.95 715.61,-1406.83 705.7,-1410.6 710.21,-1415.95"/>
</g>
<!-- 31 -->
<g id="node32" class="node">
<title>31</title>
<path fill="none" stroke="#d8c356" stroke-width="2" d="M618,-1476C618,-1476 468,-1476 468,-1476 462,-1476 456,-1470 456,-1464 456,-1464 456,-1452 456,-1452 456,-1446 462,-1440 468,-1440 468,-1440 618,-1440 618,-1440 624,-1440 630,-1446 630,-1452 630,-1452 630,-1464 630,-1464 630,-1470 624,-1476 618,-1476"/>
<text text-anchor="middle" x="543" y="-1455.5" font-family="sans" font-size="10.00">mapping_transcriptome_oligomap</text>
</g>
<!-- 2&#45;&gt;31 -->
<g id="edge46" class="edge">
<title>2&#45;&gt;31</title>
<path fill="none" stroke="grey" stroke-width="2" d="M611.78,-1511.34C601.19,-1503.27 588.43,-1493.57 576.8,-1484.72"/>
<polygon fill="grey" stroke="grey" stroke-width="2" points="579.01,-1482 568.94,-1478.73 574.78,-1487.58 579.01,-1482"/>
</g>
<!-- 3 -->
<g id="node4" class="node">
<title>3</title>
<path fill="none" stroke="#9fd856" stroke-width="2" d="M693.5,-1620C693.5,-1620 574.5,-1620 574.5,-1620 568.5,-1620 562.5,-1614 562.5,-1608 562.5,-1608 562.5,-1596 562.5,-1596 562.5,-1590 568.5,-1584 574.5,-1584 574.5,-1584 693.5,-1584 693.5,-1584 699.5,-1584 705.5,-1590 705.5,-1596 705.5,-1596 705.5,-1608 705.5,-1608 705.5,-1614 699.5,-1620 693.5,-1620"/>
<text text-anchor="middle" x="634" y="-1599.5" font-family="sans" font-size="10.00">extract_transcriptome_seqs</text>
</g>
<!-- 3&#45;&gt;2 -->
<g id="edge13" class="edge">
<title>3&#45;&gt;2</title>
<path fill="none" stroke="grey" stroke-width="2" d="M634.25,-1583.34C634.35,-1576.75 634.46,-1569.08 634.56,-1561.67"/>
<polygon fill="grey" stroke="grey" stroke-width="2" points="638.06,-1561.98 634.7,-1551.93 631.06,-1561.88 638.06,-1561.98"/>
</g>
<!-- 4 -->
<g id="node5" class="node">
<title>4</title>
<path fill="none" stroke="#56d892" stroke-width="2" d="M339.5,-1692C339.5,-1692 250.5,-1692 250.5,-1692 244.5,-1692 238.5,-1686 238.5,-1680 238.5,-1680 238.5,-1668 238.5,-1668 238.5,-1662 244.5,-1656 250.5,-1656 250.5,-1656 339.5,-1656 339.5,-1656 345.5,-1656 351.5,-1662 351.5,-1668 351.5,-1668 351.5,-1680 351.5,-1680 351.5,-1686 345.5,-1692 339.5,-1692"/>
<text text-anchor="middle" x="295" y="-1671.5" font-family="sans" font-size="10.00">trim_genome_seq_id</text>
</g>
<!-- 4&#45;&gt;3 -->
<g id="edge14" class="edge">
<title>4&#45;&gt;3</title>
<path fill="none" stroke="grey" stroke-width="2" d="M352.4,-1661.28C401.83,-1651.17 475.45,-1636.08 548.85,-1620.86"/>
<polygon fill="grey" stroke="grey" stroke-width="2" points="549.54,-1624.29 558.62,-1618.83 548.11,-1617.44 549.54,-1624.29"/>
</g>
<!-- 5 -->
<g id="node6" class="node">
<title>5</title>
<path fill="none" stroke="#56d87b" stroke-width="2" d="M236,-1620C236,-1620 78,-1620 78,-1620 72,-1620 66,-1614 66,-1608 66,-1608 66,-1596 66,-1596 66,-1590 72,-1584 78,-1584 78,-1584 236,-1584 236,-1584 242,-1584 248,-1590 248,-1596 248,-1596 248,-1608 248,-1608 248,-1614 242,-1620 236,-1620"/>
<text text-anchor="middle" x="157" y="-1599.5" font-family="sans" font-size="10.00">generate_segemehl_index_genome</text>
</g>
<!-- 4&#45;&gt;5 -->
<g id="edge15" class="edge">
<title>4&#45;&gt;5</title>
<path fill="none" stroke="grey" stroke-width="2" d="M259.82,-1655.15C242.71,-1646.47 221.91,-1635.92 203.5,-1626.59"/>
<polygon fill="grey" stroke="grey" stroke-width="2" points="205.32,-1623.58 194.82,-1622.18 202.15,-1629.83 205.32,-1623.58"/>
</g>
<!-- 8 -->
<g id="node9" class="node">
<title>8</title>
<path fill="none" stroke="#568ad8" stroke-width="2" d="M157,-972C157,-972 53,-972 53,-972 47,-972 41,-966 41,-960 41,-960 41,-948 41,-948 41,-942 47,-936 53,-936 53,-936 157,-936 157,-936 163,-936 169,-942 169,-948 169,-948 169,-960 169,-960 169,-966 163,-972 157,-972"/>
<text text-anchor="middle" x="105" y="-951.5" font-family="sans" font-size="10.00">create_header_genome</text>
</g>
<!-- 4&#45;&gt;8 -->
<g id="edge17" class="edge">
<title>4&#45;&gt;8</title>
<path fill="none" stroke="grey" stroke-width="2" d="M237.73,-1667.34C175.58,-1660.01 81.88,-1645.1 57,-1620 28.53,-1591.27 38,-1571.45 38,-1531 38,-1531 38,-1531 38,-1097 38,-1054.11 63.3,-1010.31 82.81,-982.91"/>
<polygon fill="grey" stroke="grey" stroke-width="2" points="85.53,-985.12 88.66,-975 79.9,-980.96 85.53,-985.12"/>
</g>
<!-- 10 -->
<g id="node11" class="node">
<title>10</title>
<path fill="none" stroke="#ced856" stroke-width="2" d="M236,-900C236,-900 158,-900 158,-900 152,-900 146,-894 146,-888 146,-888 146,-876 146,-876 146,-870 152,-864 158,-864 158,-864 236,-864 236,-864 242,-864 248,-870 248,-876 248,-876 248,-888 248,-888 248,-894 242,-900 236,-900"/>
<text text-anchor="middle" x="197" y="-879.5" font-family="sans" font-size="10.00">create_index_fasta</text>
</g>
<!-- 4&#45;&gt;10 -->
<g id="edge19" class="edge">
<title>4&#45;&gt;10</title>
<path fill="none" stroke="grey" stroke-width="2" d="M289.96,-1655.08C284.08,-1636.2 273.07,-1606.18 257,-1584 242.77,-1564.36 228.26,-1568.92 216,-1548 195.54,-1513.11 197,-1499.45 197,-1459 197,-1459 197,-1459 197,-1025 197,-986.65 197,-942.48 197,-913.72"/>
<polygon fill="grey" stroke="grey" stroke-width="2" points="200.5,-913.96 197,-903.96 193.5,-913.96 200.5,-913.96"/>
</g>
<!-- 37 -->
<g id="node38" class="node">
<title>37</title>
<path fill="none" stroke="#d85656" stroke-width="2" d="M364.5,-1548C364.5,-1548 237.5,-1548 237.5,-1548 231.5,-1548 225.5,-1542 225.5,-1536 225.5,-1536 225.5,-1524 225.5,-1524 225.5,-1518 231.5,-1512 237.5,-1512 237.5,-1512 364.5,-1512 364.5,-1512 370.5,-1512 376.5,-1518 376.5,-1524 376.5,-1524 376.5,-1536 376.5,-1536 376.5,-1542 370.5,-1548 364.5,-1548"/>
<text text-anchor="middle" x="301" y="-1527.5" font-family="sans" font-size="10.00">mapping_genome_segemehl</text>
</g>
<!-- 4&#45;&gt;37 -->
<g id="edge56" class="edge">
<title>4&#45;&gt;37</title>
<path fill="none" stroke="grey" stroke-width="2" d="M295.76,-1655.02C296.75,-1631.54 298.5,-1590.11 299.71,-1561.64"/>
<polygon fill="grey" stroke="grey" stroke-width="2" points="303.19,-1562 300.12,-1551.86 296.2,-1561.71 303.19,-1562"/>
</g>
<!-- 39 -->
<g id="node40" class="node">
<title>39</title>
<path fill="none" stroke="#56c1d8" stroke-width="2" d="M426,-1476C426,-1476 302,-1476 302,-1476 296,-1476 290,-1470 290,-1464 290,-1464 290,-1452 290,-1452 290,-1446 296,-1440 302,-1440 302,-1440 426,-1440 426,-1440 432,-1440 438,-1446 438,-1452 438,-1452 438,-1464 438,-1464 438,-1470 432,-1476 426,-1476"/>
<text text-anchor="middle" x="364" y="-1455.5" font-family="sans" font-size="10.00">mapping_genome_oligomap</text>
</g>
<!-- 4&#45;&gt;39 -->
<g id="edge59" class="edge">
<title>4&#45;&gt;39</title>
<path fill="none" stroke="grey" stroke-width="2" d="M313.53,-1655.2C335.52,-1632.67 370.96,-1591.52 385,-1548 391.27,-1528.55 385.93,-1506.15 379.06,-1488.69"/>
<polygon fill="grey" stroke="grey" stroke-width="2" points="382.36,-1487.5 375.15,-1479.74 375.94,-1490.3 382.36,-1487.5"/>
</g>
<!-- 5&#45;&gt;0 -->
<g id="edge4" class="edge">
<title>5&#45;&gt;0</title>
<path fill="none" stroke="grey" stroke-width="2" d="M112.01,-1583.11C65.62,-1561.35 0,-1519.82 0,-1459 0,-1459 0,-1459 0,-161 0,-93.52 61.23,-99.15 123,-72 196.05,-39.89 289.34,-26.95 341.69,-21.95"/>
<polygon fill="grey" stroke="grey" stroke-width="2" points="341.72,-25.46 351.37,-21.09 341.1,-18.49 341.72,-25.46"/>
</g>
<!-- 5&#45;&gt;37 -->
<g id="edge55" class="edge">
<title>5&#45;&gt;37</title>
<path fill="none" stroke="grey" stroke-width="2" d="M193.71,-1583.15C211.58,-1574.47 233.31,-1563.91 252.52,-1554.56"/>
<polygon fill="grey" stroke="grey" stroke-width="2" points="253.92,-1557.78 261.38,-1550.26 250.86,-1551.48 253.92,-1557.78"/>
</g>
<!-- 6 -->
<g id="node7" class="node">
<title>6</title>
<path fill="none" stroke="#8fd856" stroke-width="2" d="M781,-1116C781,-1116 747,-1116 747,-1116 741,-1116 735,-1110 735,-1104 735,-1104 735,-1092 735,-1092 735,-1086 741,-1080 747,-1080 747,-1080 781,-1080 781,-1080 787,-1080 793,-1086 793,-1092 793,-1092 793,-1104 793,-1104 793,-1110 787,-1116 781,-1116"/>
<text text-anchor="middle" x="764" y="-1095.5" font-family="sans" font-size="10.00">gtftobed</text>
</g>
<!-- 6&#45;&gt;0 -->
<g id="edge9" class="edge">
<title>6&#45;&gt;0</title>
<path fill="none" stroke="grey" stroke-width="2" d="M793.85,-1082.04C833.06,-1060.04 897,-1014.96 897,-955 897,-955 897,-955 897,-161 897,-120.03 904.14,-98.63 873,-72 839.03,-42.95 534.55,-26.06 422.85,-20.79"/>
<polygon fill="grey" stroke="grey" stroke-width="2" points="423.09,-17.3 412.93,-20.33 422.76,-24.29 423.09,-17.3"/>
</g>
<!-- 21 -->
<g id="node22" class="node">
<title>21</title>
<path fill="none" stroke="#b6d856" stroke-width="2" d="M635.5,-1044C635.5,-1044 582.5,-1044 582.5,-1044 576.5,-1044 570.5,-1038 570.5,-1032 570.5,-1032 570.5,-1020 570.5,-1020 570.5,-1014 576.5,-1008 582.5,-1008 582.5,-1008 635.5,-1008 635.5,-1008 641.5,-1008 647.5,-1014 647.5,-1020 647.5,-1020 647.5,-1032 647.5,-1032 647.5,-1038 641.5,-1044 635.5,-1044"/>
<text text-anchor="middle" x="609" y="-1023.5" font-family="sans" font-size="10.00">trans_to_gen</text>
</g>
<!-- 6&#45;&gt;21 -->
<g id="edge33" class="edge">
<title>6&#45;&gt;21</title>
<path fill="none" stroke="grey" stroke-width="2" d="M734.11,-1083.5C713.17,-1074.05 684.66,-1061.17 660.14,-1050.1"/>
<polygon fill="grey" stroke="grey" stroke-width="2" points="661.79,-1047 651.24,-1046.07 658.91,-1053.38 661.79,-1047"/>
</g>
<!-- 7 -->
<g id="node8" class="node">
<title>7</title>
<path fill="none" stroke="#56d8a9" stroke-width="2" d="M793,-1188C793,-1188 735,-1188 735,-1188 729,-1188 723,-1182 723,-1176 723,-1176 723,-1164 723,-1164 723,-1158 729,-1152 735,-1152 735,-1152 793,-1152 793,-1152 799,-1152 805,-1158 805,-1164 805,-1164 805,-1176 805,-1176 805,-1182 799,-1188 793,-1188"/>
<text text-anchor="middle" x="764" y="-1167.5" font-family="sans" font-size="10.00">get_exons_gtf</text>
</g>
<!-- 7&#45;&gt;6 -->
<g id="edge16" class="edge">
<title>7&#45;&gt;6</title>
<path fill="none" stroke="grey" stroke-width="2" d="M764,-1151.34C764,-1144.75 764,-1137.08 764,-1129.67"/>
<polygon fill="grey" stroke="grey" stroke-width="2" points="767.5,-1129.93 764,-1119.93 760.5,-1129.93 767.5,-1129.93"/>
</g>
<!-- 8&#45;&gt;0 -->
<g id="edge8" class="edge">
<title>8&#45;&gt;0</title>
<path fill="none" stroke="grey" stroke-width="2" d="M105.62,-935.07C106.5,-908.14 108,-855.63 108,-811 108,-811 108,-811 108,-161 108,-57.13 265.13,-29.15 341.41,-21.68"/>
<polygon fill="grey" stroke="grey" stroke-width="2" points="341.55,-25.18 351.2,-20.81 340.93,-18.21 341.55,-25.18"/>
</g>
<!-- 19 -->
<g id="node20" class="node">
<title>19</title>
<path fill="none" stroke="#bed856" stroke-width="2" d="M334,-900C334,-900 286,-900 286,-900 280,-900 274,-894 274,-888 274,-888 274,-876 274,-876 274,-870 280,-864 286,-864 286,-864 334,-864 334,-864 340,-864 346,-870 346,-876 346,-876 346,-888 346,-888 346,-894 340,-900 334,-900"/>
<text text-anchor="middle" x="310" y="-879.5" font-family="sans" font-size="10.00">add_header</text>
</g>
<!-- 8&#45;&gt;19 -->
<g id="edge28" class="edge">
<title>8&#45;&gt;19</title>
<path fill="none" stroke="grey" stroke-width="2" d="M157.53,-935.06C189.33,-924.21 229.62,-910.45 260.8,-899.8"/>
<polygon fill="grey" stroke="grey" stroke-width="2" points="261.93,-903.11 270.26,-896.57 259.67,-896.49 261.93,-903.11"/>
</g>
<!-- 9 -->
<g id="node10" class="node">
<title>9</title>
<path fill="none" stroke="#56d85b" stroke-width="2" d="M228,-612C228,-612 166,-612 166,-612 160,-612 154,-606 154,-600 154,-600 154,-588 154,-588 154,-582 160,-576 166,-576 166,-576 228,-576 228,-576 234,-576 240,-582 240,-588 240,-588 240,-600 240,-600 240,-606 234,-612 228,-612"/>
<text text-anchor="middle" x="197" y="-591.5" font-family="sans" font-size="10.00">extract_chr_len</text>
</g>
<!-- 9&#45;&gt;0 -->
<g id="edge2" class="edge">
<title>9&#45;&gt;0</title>
<path fill="none" stroke="grey" stroke-width="2" d="M189.75,-575.41C179.5,-548.91 162,-496.96 162,-451 162,-451 162,-451 162,-161 162,-118.66 164.78,-100.61 196,-72 236.01,-35.34 299.64,-23.84 341.11,-20.35"/>
<polygon fill="grey" stroke="grey" stroke-width="2" points="341.25,-23.85 350.98,-19.67 340.77,-16.87 341.25,-23.85"/>
</g>
<!-- 11 -->
<g id="node12" class="node">
<title>11</title>
<path fill="none" stroke="#59d856" stroke-width="2" d="M456.5,-540C456.5,-540 347.5,-540 347.5,-540 341.5,-540 335.5,-534 335.5,-528 335.5,-528 335.5,-516 335.5,-516 335.5,-510 341.5,-504 347.5,-504 347.5,-504 456.5,-504 456.5,-504 462.5,-504 468.5,-510 468.5,-516 468.5,-516 468.5,-528 468.5,-528 468.5,-534 462.5,-540 456.5,-540"/>
<text text-anchor="middle" x="402" y="-519.5" font-family="sans" font-size="10.00">extend_mirs_annotations</text>
</g>
<!-- 9&#45;&gt;11 -->
<g id="edge21" class="edge">
<title>9&#45;&gt;11</title>
<path fill="none" stroke="grey" stroke-width="2" d="M240.98,-577.98C269.02,-568.41 305.85,-555.83 337.21,-545.12"/>
<polygon fill="grey" stroke="grey" stroke-width="2" points="338.18,-548.49 346.51,-541.95 335.92,-541.87 338.18,-548.49"/>
</g>
<!-- 10&#45;&gt;9 -->
<g id="edge18" class="edge">
<title>10&#45;&gt;9</title>
<path fill="none" stroke="grey" stroke-width="2" d="M197,-863.11C197,-815.56 197,-685.6 197,-625.83"/>
<polygon fill="grey" stroke="grey" stroke-width="2" points="200.5,-625.91 197,-615.91 193.5,-625.91 200.5,-625.91"/>
</g>
<!-- 11&#45;&gt;0 -->
<g id="edge1" class="edge">
<title>11&#45;&gt;0</title>
<path fill="none" stroke="grey" stroke-width="2" d="M401.87,-503.32C401.38,-449.4 399.36,-282.28 392,-144 390.28,-111.72 387.19,-74.83 384.9,-49.54"/>
<polygon fill="grey" stroke="grey" stroke-width="2" points="388.41,-49.43 384,-39.8 381.44,-50.08 388.41,-49.43"/>
</g>
<!-- 42 -->
<g id="node43" class="node">
<title>42</title>
<path fill="none" stroke="#56d8c1" stroke-width="2" d="M561.5,-468C561.5,-468 442.5,-468 442.5,-468 436.5,-468 430.5,-462 430.5,-456 430.5,-456 430.5,-444 430.5,-444 430.5,-438 436.5,-432 442.5,-432 442.5,-432 561.5,-432 561.5,-432 567.5,-432 573.5,-438 573.5,-444 573.5,-444 573.5,-456 573.5,-456 573.5,-462 567.5,-468 561.5,-468"/>
<text text-anchor="middle" x="502" y="-447.5" font-family="sans" font-size="10.00">intersect_extended_premir</text>
</g>
<!-- 11&#45;&gt;42 -->
<g id="edge65" class="edge">
<title>11&#45;&gt;42</title>
<path fill="none" stroke="grey" stroke-width="2" d="M427.49,-503.15C439.25,-494.93 453.4,-485.02 466.2,-476.06"/>
<polygon fill="grey" stroke="grey" stroke-width="2" points="467.89,-479.15 474.07,-470.55 463.87,-473.42 467.89,-479.15"/>
</g>
<!-- 12 -->
<g id="node13" class="node">
<title>12</title>
<path fill="none" stroke="#56d882" stroke-width="2" d="M436,-612C436,-612 368,-612 368,-612 362,-612 356,-606 356,-600 356,-600 356,-588 356,-588 356,-582 362,-576 368,-576 368,-576 436,-576 436,-576 442,-576 448,-582 448,-588 448,-588 448,-600 448,-600 448,-606 442,-612 436,-612"/>
<text text-anchor="middle" x="402" y="-591.5" font-family="sans" font-size="10.00">map_chr_names</text>
</g>
<!-- 12&#45;&gt;11 -->
<g id="edge20" class="edge">
<title>12&#45;&gt;11</title>
<path fill="none" stroke="grey" stroke-width="2" d="M402,-575.34C402,-568.75 402,-561.08 402,-553.67"/>
<polygon fill="grey" stroke="grey" stroke-width="2" points="405.5,-553.93 402,-543.93 398.5,-553.93 405.5,-553.93"/>
</g>
<!-- 13 -->
<g id="node14" class="node">
<title>13</title>
<path fill="none" stroke="#d86656" stroke-width="2" d="M613,-252C613,-252 571,-252 571,-252 565,-252 559,-246 559,-240 559,-240 559,-228 559,-228 559,-222 565,-216 571,-216 571,-216 613,-216 613,-216 619,-216 625,-222 625,-228 625,-228 625,-240 625,-240 625,-246 619,-252 613,-252"/>
<text text-anchor="middle" x="592" y="-231.5" font-family="sans" font-size="10.00">index_bam</text>
</g>
<!-- 13&#45;&gt;0 -->
<g id="edge3" class="edge">
<title>13&#45;&gt;0</title>
<path fill="none" stroke="grey" stroke-width="2" d="M584.43,-215.17C575.95,-196.37 561.01,-166.41 543,-144 508.4,-100.93 456.13,-63.91 420.61,-41.57"/>
<polygon fill="grey" stroke="grey" stroke-width="2" points="422.63,-38.71 412.28,-36.44 418.96,-44.67 422.63,-38.71"/>
</g>
<!-- 14 -->
<g id="node15" class="node">
<title>14</title>
<path fill="none" stroke="#d89c56" stroke-width="2" d="M567,-540C567,-540 499,-540 499,-540 493,-540 487,-534 487,-528 487,-528 487,-516 487,-516 487,-510 493,-504 499,-504 499,-504 567,-504 567,-504 573,-504 579,-510 579,-516 579,-516 579,-528 579,-528 579,-534 573,-540 567,-540"/>
<text text-anchor="middle" x="533" y="-519.5" font-family="sans" font-size="10.00">sort_by_position</text>
</g>
<!-- 14&#45;&gt;13 -->
<g id="edge22" class="edge">
<title>14&#45;&gt;13</title>
<path fill="none" stroke="grey" stroke-width="2" d="M556.15,-503.16C566.34,-493.89 577.27,-481.65 583,-468 611.4,-400.35 604.1,-311.69 597.41,-265.69"/>
<polygon fill="grey" stroke="grey" stroke-width="2" points="600.87,-265.18 595.86,-255.84 593.96,-266.27 600.87,-265.18"/>
</g>
<!-- 14&#45;&gt;42 -->
<g id="edge64" class="edge">
<title>14&#45;&gt;42</title>
<path fill="none" stroke="grey" stroke-width="2" d="M525.18,-503.34C522.12,-496.43 518.52,-488.31 515.09,-480.56"/>
<polygon fill="grey" stroke="grey" stroke-width="2" points="518.4,-479.4 511.15,-471.67 512,-482.23 518.4,-479.4"/>
</g>
<!-- 15 -->
<g id="node16" class="node">
<title>15</title>
<path fill="none" stroke="#566bd8" stroke-width="2" d="M557,-612C557,-612 489,-612 489,-612 483,-612 477,-606 477,-600 477,-600 477,-588 477,-588 477,-582 483,-576 489,-576 489,-576 557,-576 557,-576 563,-576 569,-582 569,-588 569,-588 569,-600 569,-600 569,-606 563,-612 557,-612"/>
<text text-anchor="middle" x="523" y="-591.5" font-family="sans" font-size="10.00">convert_to_bam</text>
</g>
<!-- 15&#45;&gt;14 -->
<g id="edge23" class="edge">
<title>15&#45;&gt;14</title>
<path fill="none" stroke="grey" stroke-width="2" d="M525.52,-575.34C526.46,-568.75 527.56,-561.08 528.62,-553.67"/>
<polygon fill="grey" stroke="grey" stroke-width="2" points="532.07,-554.29 530.01,-543.9 525.14,-553.3 532.07,-554.29"/>
</g>
<!-- 16 -->
<g id="node17" class="node">
<title>16</title>
<path fill="none" stroke="#56d8b1" stroke-width="2" d="M341,-684C341,-684 279,-684 279,-684 273,-684 267,-678 267,-672 267,-672 267,-660 267,-660 267,-654 273,-648 279,-648 279,-648 341,-648 341,-648 347,-648 353,-654 353,-660 353,-660 353,-672 353,-672 353,-678 347,-684 341,-684"/>
<text text-anchor="middle" x="310" y="-663.5" font-family="sans" font-size="10.00">filter_by_indels</text>
</g>
<!-- 16&#45;&gt;15 -->
<g id="edge24" class="edge">
<title>16&#45;&gt;15</title>
<path fill="none" stroke="grey" stroke-width="2" d="M353.88,-650.58C385.79,-640.09 429.35,-625.78 464.27,-614.3"/>
<polygon fill="grey" stroke="grey" stroke-width="2" points="464.94,-617.76 473.35,-611.32 462.76,-611.11 464.94,-617.76"/>
</g>
<!-- 41 -->
<g id="node42" class="node">
<title>41</title>
<path fill="none" stroke="#5692d8" stroke-width="2" d="M352,-396C352,-396 262,-396 262,-396 256,-396 250,-390 250,-384 250,-384 250,-372 250,-372 250,-366 256,-360 262,-360 262,-360 352,-360 352,-360 358,-360 364,-366 364,-372 364,-372 364,-384 364,-384 364,-390 358,-396 352,-396"/>
<text text-anchor="middle" x="307" y="-375.5" font-family="sans" font-size="10.00">intersection_sam_file</text>
</g>
<!-- 16&#45;&gt;41 -->
<g id="edge62" class="edge">
<title>16&#45;&gt;41</title>
<path fill="none" stroke="grey" stroke-width="2" d="M309.81,-647.11C309.31,-599.56 307.95,-469.6 307.32,-409.83"/>
<polygon fill="grey" stroke="grey" stroke-width="2" points="310.82,-409.87 307.22,-399.91 303.82,-409.95 310.82,-409.87"/>
</g>
<!-- 17 -->
<g id="node18" class="node">
<title>17</title>
<path fill="none" stroke="#61d856" stroke-width="2" d="M346.5,-756C346.5,-756 273.5,-756 273.5,-756 267.5,-756 261.5,-750 261.5,-744 261.5,-744 261.5,-732 261.5,-732 261.5,-726 267.5,-720 273.5,-720 273.5,-720 346.5,-720 346.5,-720 352.5,-720 358.5,-726 358.5,-732 358.5,-732 358.5,-744 358.5,-744 358.5,-750 352.5,-756 346.5,-756"/>
<text text-anchor="middle" x="310" y="-735.5" font-family="sans" font-size="10.00">remove_inferiors</text>
</g>
<!-- 17&#45;&gt;16 -->
<g id="edge25" class="edge">
<title>17&#45;&gt;16</title>
<path fill="none" stroke="grey" stroke-width="2" d="M310,-719.34C310,-712.75 310,-705.08 310,-697.67"/>
<polygon fill="grey" stroke="grey" stroke-width="2" points="313.5,-697.93 310,-687.93 306.5,-697.93 313.5,-697.93"/>
</g>
<!-- 18 -->
<g id="node19" class="node">
<title>18</title>
<path fill="none" stroke="#56a9d8" stroke-width="2" d="M325,-828C325,-828 295,-828 295,-828 289,-828 283,-822 283,-816 283,-816 283,-804 283,-804 283,-798 289,-792 295,-792 295,-792 325,-792 325,-792 331,-792 337,-798 337,-804 337,-804 337,-816 337,-816 337,-822 331,-828 325,-828"/>
<text text-anchor="middle" x="310" y="-807.5" font-family="sans" font-size="10.00">sort_id</text>
</g>
<!-- 18&#45;&gt;17 -->
<g id="edge26" class="edge">
<title>18&#45;&gt;17</title>
<path fill="none" stroke="grey" stroke-width="2" d="M310,-791.34C310,-784.75 310,-777.08 310,-769.67"/>
<polygon fill="grey" stroke="grey" stroke-width="2" points="313.5,-769.93 310,-759.93 306.5,-769.93 313.5,-769.93"/>
</g>
<!-- 19&#45;&gt;18 -->
<g id="edge27" class="edge">
<title>19&#45;&gt;18</title>
<path fill="none" stroke="grey" stroke-width="2" d="M310,-863.34C310,-856.75 310,-849.08 310,-841.67"/>
<polygon fill="grey" stroke="grey" stroke-width="2" points="313.5,-841.93 310,-831.93 306.5,-841.93 313.5,-841.93"/>
</g>
<!-- 20 -->
<g id="node21" class="node">
<title>20</title>
<path fill="none" stroke="#70d856" stroke-width="2" d="M342.5,-972C342.5,-972 291.5,-972 291.5,-972 285.5,-972 279.5,-966 279.5,-960 279.5,-960 279.5,-948 279.5,-948 279.5,-942 285.5,-936 291.5,-936 291.5,-936 342.5,-936 342.5,-936 348.5,-936 354.5,-942 354.5,-948 354.5,-948 354.5,-960 354.5,-960 354.5,-966 348.5,-972 342.5,-972"/>
<text text-anchor="middle" x="317" y="-951.5" font-family="sans" font-size="10.00">cat_mapping</text>
</g>
<!-- 20&#45;&gt;19 -->
<g id="edge29" class="edge">
<title>20&#45;&gt;19</title>
<path fill="none" stroke="grey" stroke-width="2" d="M315.23,-935.34C314.58,-928.75 313.81,-921.08 313.07,-913.67"/>
<polygon fill="grey" stroke="grey" stroke-width="2" points="316.57,-913.52 312.09,-903.91 309.6,-914.21 316.57,-913.52"/>
</g>
<!-- 21&#45;&gt;20 -->
<g id="edge30" class="edge">
<title>21&#45;&gt;20</title>
<path fill="none" stroke="grey" stroke-width="2" d="M569.62,-1015.56C517.37,-1003.03 425.08,-980.91 367.68,-967.15"/>
<polygon fill="grey" stroke="grey" stroke-width="2" points="368.78,-963.81 358.24,-964.89 367.15,-970.62 368.78,-963.81"/>
</g>
<!-- 22 -->
<g id="node23" class="node">
<title>22</title>
<path fill="none" stroke="#56d88a" stroke-width="2" d="M679.5,-1116C679.5,-1116 538.5,-1116 538.5,-1116 532.5,-1116 526.5,-1110 526.5,-1104 526.5,-1104 526.5,-1092 526.5,-1092 526.5,-1086 532.5,-1080 538.5,-1080 538.5,-1080 679.5,-1080 679.5,-1080 685.5,-1080 691.5,-1086 691.5,-1092 691.5,-1092 691.5,-1104 691.5,-1104 691.5,-1110 685.5,-1116 679.5,-1116"/>
<text text-anchor="middle" x="609" y="-1095.5" font-family="sans" font-size="10.00">remove_headers_transcriptome</text>
</g>
<!-- 22&#45;&gt;21 -->
<g id="edge32" class="edge">
<title>22&#45;&gt;21</title>
<path fill="none" stroke="grey" stroke-width="2" d="M609,-1079.34C609,-1072.75 609,-1065.08 609,-1057.67"/>
<polygon fill="grey" stroke="grey" stroke-width="2" points="612.5,-1057.93 609,-1047.93 605.5,-1057.93 612.5,-1057.93"/>
</g>
<!-- 23 -->
<g id="node24" class="node">
<title>23</title>
<path fill="none" stroke="#d8bc56" stroke-width="2" d="M659.5,-1188C659.5,-1188 558.5,-1188 558.5,-1188 552.5,-1188 546.5,-1182 546.5,-1176 546.5,-1176 546.5,-1164 546.5,-1164 546.5,-1158 552.5,-1152 558.5,-1152 558.5,-1152 659.5,-1152 659.5,-1152 665.5,-1152 671.5,-1158 671.5,-1164 671.5,-1164 671.5,-1176 671.5,-1176 671.5,-1182 665.5,-1188 659.5,-1188"/>
<text text-anchor="middle" x="609" y="-1167.5" font-family="sans" font-size="10.00">filter_nh_transcriptome</text>
</g>
<!-- 23&#45;&gt;22 -->
<g id="edge34" class="edge">
<title>23&#45;&gt;22</title>
<path fill="none" stroke="grey" stroke-width="2" d="M609,-1151.34C609,-1144.75 609,-1137.08 609,-1129.67"/>
<polygon fill="grey" stroke="grey" stroke-width="2" points="612.5,-1129.93 609,-1119.93 605.5,-1129.93 612.5,-1129.93"/>
</g>
<!-- 24 -->
<g id="node25" class="node">
<title>24</title>
<path fill="none" stroke="#56d8a2" stroke-width="2" d="M670,-1260C670,-1260 548,-1260 548,-1260 542,-1260 536,-1254 536,-1248 536,-1248 536,-1236 536,-1236 536,-1230 542,-1224 548,-1224 548,-1224 670,-1224 670,-1224 676,-1224 682,-1230 682,-1236 682,-1236 682,-1248 682,-1248 682,-1254 676,-1260 670,-1260"/>
<text text-anchor="middle" x="609" y="-1239.5" font-family="sans" font-size="10.00">merge_transcriptome_maps</text>
</g>
<!-- 24&#45;&gt;23 -->
<g id="edge35" class="edge">
<title>24&#45;&gt;23</title>
<path fill="none" stroke="grey" stroke-width="2" d="M609,-1223.34C609,-1216.75 609,-1209.08 609,-1201.67"/>
<polygon fill="grey" stroke="grey" stroke-width="2" points="612.5,-1201.93 609,-1191.93 605.5,-1201.93 612.5,-1201.93"/>
</g>
<!-- 25&#45;&gt;24 -->
<g id="edge37" class="edge">
<title>25&#45;&gt;24</title>
<path fill="none" stroke="grey" stroke-width="2" d="M725.16,-1367.02C702.27,-1342.58 661.16,-1298.69 634.49,-1270.21"/>
<polygon fill="grey" stroke="grey" stroke-width="2" points="637.17,-1267.95 627.78,-1263.05 632.06,-1272.74 637.17,-1267.95"/>
</g>
<!-- 26 -->
<g id="node27" class="node">
<title>26</title>
<path fill="none" stroke="#5673d8" stroke-width="2" d="M531.5,-1620C531.5,-1620 470.5,-1620 470.5,-1620 464.5,-1620 458.5,-1614 458.5,-1608 458.5,-1608 458.5,-1596 458.5,-1596 458.5,-1590 464.5,-1584 470.5,-1584 470.5,-1584 531.5,-1584 531.5,-1584 537.5,-1584 543.5,-1590 543.5,-1596 543.5,-1596 543.5,-1608 543.5,-1608 543.5,-1614 537.5,-1620 531.5,-1620"/>
<text text-anchor="middle" x="501" y="-1599.5" font-family="sans" font-size="10.00">fastx_collapser</text>
</g>
<!-- 26&#45;&gt;25 -->
<g id="edge38" class="edge">
<title>26&#45;&gt;25</title>
<path fill="none" stroke="grey" stroke-width="2" d="M544.36,-1587C547.62,-1585.98 550.86,-1584.97 554,-1584 608.03,-1567.37 634.69,-1586.6 676,-1548 713.4,-1513.05 695.81,-1487.04 716,-1440 719.3,-1432.3 723.15,-1424.12 726.85,-1416.55"/>
<polygon fill="grey" stroke="grey" stroke-width="2" points="729.95,-1418.16 731.28,-1407.65 723.69,-1415.04 729.95,-1418.16"/>
</g>
<!-- 32 -->
<g id="node33" class="node">
<title>32</title>
<path fill="none" stroke="#5682d8" stroke-width="2" d="M555,-1548C555,-1548 447,-1548 447,-1548 441,-1548 435,-1542 435,-1536 435,-1536 435,-1524 435,-1524 435,-1518 441,-1512 447,-1512 447,-1512 555,-1512 555,-1512 561,-1512 567,-1518 567,-1524 567,-1524 567,-1536 567,-1536 567,-1542 561,-1548 555,-1548"/>
<text text-anchor="middle" x="501" y="-1527.5" font-family="sans" font-size="10.00">filter_fasta_for_oligomap</text>
</g>
<!-- 26&#45;&gt;32 -->
<g id="edge48" class="edge">
<title>26&#45;&gt;32</title>
<path fill="none" stroke="grey" stroke-width="2" d="M501,-1583.34C501,-1576.75 501,-1569.08 501,-1561.67"/>
<polygon fill="grey" stroke="grey" stroke-width="2" points="504.5,-1561.93 501,-1551.93 497.5,-1561.93 504.5,-1561.93"/>
</g>
<!-- 26&#45;&gt;37 -->
<g id="edge54" class="edge">
<title>26&#45;&gt;37</title>
<path fill="none" stroke="grey" stroke-width="2" d="M457.6,-1585.81C430.34,-1576.27 394.71,-1563.8 364.32,-1553.16"/>
<polygon fill="grey" stroke="grey" stroke-width="2" points="365.55,-1549.88 354.95,-1549.88 363.23,-1556.49 365.55,-1549.88"/>
</g>
<!-- 27 -->
<g id="node28" class="node">
<title>27</title>
<path fill="none" stroke="#d8ac56" stroke-width="2" d="M517.5,-1692C517.5,-1692 484.5,-1692 484.5,-1692 478.5,-1692 472.5,-1686 472.5,-1680 472.5,-1680 472.5,-1668 472.5,-1668 472.5,-1662 478.5,-1656 484.5,-1656 484.5,-1656 517.5,-1656 517.5,-1656 523.5,-1656 529.5,-1662 529.5,-1668 529.5,-1668 529.5,-1680 529.5,-1680 529.5,-1686 523.5,-1692 517.5,-1692"/>
<text text-anchor="middle" x="501" y="-1671.5" font-family="sans" font-size="10.00">cutadapt</text>
</g>
<!-- 27&#45;&gt;26 -->
<g id="edge41" class="edge">
<title>27&#45;&gt;26</title>
<path fill="none" stroke="grey" stroke-width="2" d="M501,-1655.34C501,-1648.75 501,-1641.08 501,-1633.67"/>
<polygon fill="grey" stroke="grey" stroke-width="2" points="504.5,-1633.93 501,-1623.93 497.5,-1633.93 504.5,-1633.93"/>
</g>
<!-- 28 -->
<g id="node29" class="node">
<title>28</title>
<path fill="none" stroke="#56a2d8" stroke-width="2" d="M534,-1764C534,-1764 468,-1764 468,-1764 462,-1764 456,-1758 456,-1752 456,-1752 456,-1740 456,-1740 456,-1734 462,-1728 468,-1728 468,-1728 534,-1728 534,-1728 540,-1728 546,-1734 546,-1740 546,-1740 546,-1752 546,-1752 546,-1758 540,-1764 534,-1764"/>
<text text-anchor="middle" x="501" y="-1743.5" font-family="sans" font-size="10.00">fasta_formatter</text>
</g>
<!-- 28&#45;&gt;27 -->
<g id="edge42" class="edge">
<title>28&#45;&gt;27</title>
<path fill="none" stroke="grey" stroke-width="2" d="M501,-1727.34C501,-1720.75 501,-1713.08 501,-1705.67"/>
<polygon fill="grey" stroke="grey" stroke-width="2" points="504.5,-1705.93 501,-1695.93 497.5,-1705.93 504.5,-1705.93"/>
</g>
<!-- 29 -->
<g id="node30" class="node">
<title>29</title>
<path fill="none" stroke="#d85e56" stroke-width="2" d="M516,-1836C516,-1836 486,-1836 486,-1836 480,-1836 474,-1830 474,-1824 474,-1824 474,-1812 474,-1812 474,-1806 480,-1800 486,-1800 486,-1800 516,-1800 516,-1800 522,-1800 528,-1806 528,-1812 528,-1812 528,-1824 528,-1824 528,-1830 522,-1836 516,-1836"/>
<text text-anchor="middle" x="501" y="-1815.5" font-family="sans" font-size="10.00">start</text>
</g>
<!-- 29&#45;&gt;28 -->
<g id="edge43" class="edge">
<title>29&#45;&gt;28</title>
<path fill="none" stroke="grey" stroke-width="2" d="M501,-1799.34C501,-1792.75 501,-1785.08 501,-1777.67"/>
<polygon fill="grey" stroke="grey" stroke-width="2" points="504.5,-1777.93 501,-1767.93 497.5,-1777.93 504.5,-1777.93"/>
</g>
<!-- 30 -->
<g id="node31" class="node">
<title>30</title>
<path fill="none" stroke="#97d856" stroke-width="2" d="M629,-1332C629,-1332 489,-1332 489,-1332 483,-1332 477,-1326 477,-1320 477,-1320 477,-1308 477,-1308 477,-1302 483,-1296 489,-1296 489,-1296 629,-1296 629,-1296 635,-1296 641,-1302 641,-1308 641,-1308 641,-1320 641,-1320 641,-1326 635,-1332 629,-1332"/>
<text text-anchor="middle" x="559" y="-1311.5" font-family="sans" font-size="10.00">oligomap_transcriptome_toSAM</text>
</g>
<!-- 30&#45;&gt;24 -->
<g id="edge36" class="edge">
<title>30&#45;&gt;24</title>
<path fill="none" stroke="grey" stroke-width="2" d="M571.62,-1295.34C576.79,-1288.1 582.91,-1279.53 588.68,-1271.45"/>
<polygon fill="grey" stroke="grey" stroke-width="2" points="591.49,-1273.54 594.45,-1263.37 585.79,-1269.47 591.49,-1273.54"/>
</g>
<!-- 31&#45;&gt;30 -->
<g id="edge44" class="edge">
<title>31&#45;&gt;30</title>
<path fill="none" stroke="grey" stroke-width="2" d="M507.71,-1439.01C494.62,-1430.35 481.21,-1418.63 474,-1404 466.93,-1389.65 466.24,-1381.99 474,-1368 480.46,-1356.36 490.65,-1346.94 501.77,-1339.46"/>
<polygon fill="grey" stroke="grey" stroke-width="2" points="503.31,-1342.62 510.04,-1334.44 499.67,-1336.64 503.31,-1342.62"/>
</g>
<!-- 33 -->
<g id="node34" class="node">
<title>33</title>
<path fill="none" stroke="#d88d56" stroke-width="2" d="M623,-1404C623,-1404 495,-1404 495,-1404 489,-1404 483,-1398 483,-1392 483,-1392 483,-1380 483,-1380 483,-1374 489,-1368 495,-1368 495,-1368 623,-1368 623,-1368 629,-1368 635,-1374 635,-1380 635,-1380 635,-1392 635,-1392 635,-1398 629,-1404 623,-1404"/>
<text text-anchor="middle" x="559" y="-1383.5" font-family="sans" font-size="10.00">sort_transcriptome_oligomap</text>
</g>
<!-- 31&#45;&gt;33 -->
<g id="edge49" class="edge">
<title>31&#45;&gt;33</title>
<path fill="none" stroke="grey" stroke-width="2" d="M547.04,-1439.34C548.56,-1432.67 550.34,-1424.89 552.05,-1417.39"/>
<polygon fill="grey" stroke="grey" stroke-width="2" points="555.42,-1418.38 554.23,-1407.85 548.59,-1416.82 555.42,-1418.38"/>
</g>
<!-- 32&#45;&gt;31 -->
<g id="edge47" class="edge">
<title>32&#45;&gt;31</title>
<path fill="none" stroke="grey" stroke-width="2" d="M511.6,-1511.34C515.84,-1504.26 520.85,-1495.92 525.6,-1488"/>
<polygon fill="grey" stroke="grey" stroke-width="2" points="528.56,-1489.87 530.7,-1479.5 522.56,-1486.27 528.56,-1489.87"/>
</g>
<!-- 32&#45;&gt;39 -->
<g id="edge60" class="edge">
<title>32&#45;&gt;39</title>
<path fill="none" stroke="grey" stroke-width="2" d="M466.07,-1511.15C449.17,-1502.52 428.63,-1492.02 410.43,-1482.72"/>
<polygon fill="grey" stroke="grey" stroke-width="2" points="412.05,-1479.62 401.56,-1478.19 408.87,-1485.86 412.05,-1479.62"/>
</g>
<!-- 33&#45;&gt;30 -->
<g id="edge45" class="edge">
<title>33&#45;&gt;30</title>
<path fill="none" stroke="grey" stroke-width="2" d="M559,-1367.34C559,-1360.75 559,-1353.08 559,-1345.67"/>
<polygon fill="grey" stroke="grey" stroke-width="2" points="562.5,-1345.93 559,-1335.93 555.5,-1345.93 562.5,-1345.93"/>
</g>
<!-- 34 -->
<g id="node35" class="node">
<title>34</title>
<path fill="none" stroke="#56d86b" stroke-width="2" d="M374.5,-1044C374.5,-1044 259.5,-1044 259.5,-1044 253.5,-1044 247.5,-1038 247.5,-1032 247.5,-1032 247.5,-1020 247.5,-1020 247.5,-1014 253.5,-1008 259.5,-1008 259.5,-1008 374.5,-1008 374.5,-1008 380.5,-1008 386.5,-1014 386.5,-1020 386.5,-1020 386.5,-1032 386.5,-1032 386.5,-1038 380.5,-1044 374.5,-1044"/>
<text text-anchor="middle" x="317" y="-1023.5" font-family="sans" font-size="10.00">remove_headers_genome</text>
</g>
<!-- 34&#45;&gt;20 -->
<g id="edge31" class="edge">
<title>34&#45;&gt;20</title>
<path fill="none" stroke="grey" stroke-width="2" d="M317,-1007.34C317,-1000.75 317,-993.08 317,-985.67"/>
<polygon fill="grey" stroke="grey" stroke-width="2" points="320.5,-985.93 317,-975.93 313.5,-985.93 320.5,-985.93"/>
</g>
<!-- 35 -->
<g id="node36" class="node">
<title>35</title>
<path fill="none" stroke="#56b9d8" stroke-width="2" d="M354.5,-1188C354.5,-1188 279.5,-1188 279.5,-1188 273.5,-1188 267.5,-1182 267.5,-1176 267.5,-1176 267.5,-1164 267.5,-1164 267.5,-1158 273.5,-1152 279.5,-1152 279.5,-1152 354.5,-1152 354.5,-1152 360.5,-1152 366.5,-1158 366.5,-1164 366.5,-1164 366.5,-1176 366.5,-1176 366.5,-1182 360.5,-1188 354.5,-1188"/>
<text text-anchor="middle" x="317" y="-1167.5" font-family="sans" font-size="10.00">nh_filter_genome</text>
</g>
<!-- 35&#45;&gt;34 -->
<g id="edge50" class="edge">
<title>35&#45;&gt;34</title>
<path fill="none" stroke="grey" stroke-width="2" d="M317,-1151.02C317,-1127.54 317,-1086.11 317,-1057.64"/>
<polygon fill="grey" stroke="grey" stroke-width="2" points="320.5,-1057.87 317,-1047.87 313.5,-1057.87 320.5,-1057.87"/>
</g>
<!-- 36 -->
<g id="node37" class="node">
<title>36</title>
<path fill="none" stroke="#78d856" stroke-width="2" d="M365,-1260C365,-1260 269,-1260 269,-1260 263,-1260 257,-1254 257,-1248 257,-1248 257,-1236 257,-1236 257,-1230 263,-1224 269,-1224 269,-1224 365,-1224 365,-1224 371,-1224 377,-1230 377,-1236 377,-1236 377,-1248 377,-1248 377,-1254 371,-1260 365,-1260"/>
<text text-anchor="middle" x="317" y="-1239.5" font-family="sans" font-size="10.00">merge_genome_maps</text>
</g>
<!-- 36&#45;&gt;35 -->
<g id="edge51" class="edge">
<title>36&#45;&gt;35</title>
<path fill="none" stroke="grey" stroke-width="2" d="M317,-1223.34C317,-1216.75 317,-1209.08 317,-1201.67"/>
<polygon fill="grey" stroke="grey" stroke-width="2" points="320.5,-1201.93 317,-1191.93 313.5,-1201.93 320.5,-1201.93"/>
</g>
<!-- 37&#45;&gt;36 -->
<g id="edge52" class="edge">
<title>37&#45;&gt;36</title>
<path fill="none" stroke="grey" stroke-width="2" d="M290.24,-1511.17C267.45,-1470.95 219.17,-1370.82 254,-1296 258.86,-1285.55 266.92,-1276.42 275.67,-1268.82"/>
<polygon fill="grey" stroke="grey" stroke-width="2" points="277.65,-1271.72 283.33,-1262.78 273.31,-1266.23 277.65,-1271.72"/>
</g>
<!-- 38 -->
<g id="node39" class="node">
<title>38</title>
<path fill="none" stroke="#d88556" stroke-width="2" d="M389,-1332C389,-1332 275,-1332 275,-1332 269,-1332 263,-1326 263,-1320 263,-1320 263,-1308 263,-1308 263,-1302 269,-1296 275,-1296 275,-1296 389,-1296 389,-1296 395,-1296 401,-1302 401,-1308 401,-1308 401,-1320 401,-1320 401,-1326 395,-1332 389,-1332"/>
<text text-anchor="middle" x="332" y="-1311.5" font-family="sans" font-size="10.00">oligomap_genome_toSAM</text>
</g>
<!-- 38&#45;&gt;36 -->
<g id="edge53" class="edge">
<title>38&#45;&gt;36</title>
<path fill="none" stroke="grey" stroke-width="2" d="M328.21,-1295.34C326.79,-1288.67 325.12,-1280.89 323.51,-1273.39"/>
<polygon fill="grey" stroke="grey" stroke-width="2" points="326.99,-1272.91 321.47,-1263.86 320.14,-1274.37 326.99,-1272.91"/>
</g>
<!-- 39&#45;&gt;38 -->
<g id="edge57" class="edge">
<title>39&#45;&gt;38</title>
<path fill="none" stroke="grey" stroke-width="2" d="M326.84,-1439.1C313.3,-1430.51 299.49,-1418.82 292,-1404 281.78,-1383.78 293.15,-1360.39 306.35,-1342.67"/>
<polygon fill="grey" stroke="grey" stroke-width="2" points="308.73,-1345.29 312.28,-1335.31 303.28,-1340.9 308.73,-1345.29"/>
</g>
<!-- 40 -->
<g id="node41" class="node">
<title>40</title>
<path fill="none" stroke="#56b1d8" stroke-width="2" d="M415,-1404C415,-1404 313,-1404 313,-1404 307,-1404 301,-1398 301,-1392 301,-1392 301,-1380 301,-1380 301,-1374 307,-1368 313,-1368 313,-1368 415,-1368 415,-1368 421,-1368 427,-1374 427,-1380 427,-1380 427,-1392 427,-1392 427,-1398 421,-1404 415,-1404"/>
<text text-anchor="middle" x="364" y="-1383.5" font-family="sans" font-size="10.00">sort_genome_oligomap</text>
</g>
<!-- 39&#45;&gt;40 -->
<g id="edge61" class="edge">
<title>39&#45;&gt;40</title>
<path fill="none" stroke="grey" stroke-width="2" d="M364,-1439.34C364,-1432.75 364,-1425.08 364,-1417.67"/>
<polygon fill="grey" stroke="grey" stroke-width="2" points="367.5,-1417.93 364,-1407.93 360.5,-1417.93 367.5,-1417.93"/>
</g>
<!-- 40&#45;&gt;38 -->
<g id="edge58" class="edge">
<title>40&#45;&gt;38</title>
<path fill="none" stroke="grey" stroke-width="2" d="M355.93,-1367.34C352.77,-1360.43 349.06,-1352.31 345.51,-1344.56"/>
<polygon fill="grey" stroke="grey" stroke-width="2" points="348.78,-1343.29 341.44,-1335.65 342.42,-1346.2 348.78,-1343.29"/>
</g>
<!-- 41&#45;&gt;0 -->
<g id="edge6" class="edge">
<title>41&#45;&gt;0</title>
<path fill="none" stroke="grey" stroke-width="2" d="M281.1,-359.16C249.43,-335.01 200,-288.71 200,-235 200,-235 200,-235 200,-161 200,-120.55 191.93,-102.05 219,-72 250.13,-37.45 304.01,-25.33 341.26,-21.13"/>
<polygon fill="grey" stroke="grey" stroke-width="2" points="341.51,-24.62 351.14,-20.2 340.86,-17.65 341.51,-24.62"/>
</g>
<!-- 47 -->
<g id="node48" class="node">
<title>47</title>
<path fill="none" stroke="#56d8c9" stroke-width="2" d="M342.5,-324C342.5,-324 271.5,-324 271.5,-324 265.5,-324 259.5,-318 259.5,-312 259.5,-312 259.5,-300 259.5,-300 259.5,-294 265.5,-288 271.5,-288 271.5,-288 342.5,-288 342.5,-288 348.5,-288 354.5,-294 354.5,-300 354.5,-300 354.5,-312 354.5,-312 354.5,-318 348.5,-324 342.5,-324"/>
<text text-anchor="middle" x="307" y="-303.5" font-family="sans" font-size="10.00">uncollapse_reads</text>
</g>
<!-- 41&#45;&gt;47 -->
<g id="edge70" class="edge">
<title>41&#45;&gt;47</title>
<path fill="none" stroke="grey" stroke-width="2" d="M307,-359.34C307,-352.75 307,-345.08 307,-337.67"/>
<polygon fill="grey" stroke="grey" stroke-width="2" points="310.5,-337.93 307,-327.93 303.5,-337.93 310.5,-337.93"/>
</g>
<!-- 42&#45;&gt;41 -->
<g id="edge63" class="edge">
<title>42&#45;&gt;41</title>
<path fill="none" stroke="grey" stroke-width="2" d="M452.04,-431.06C426.69,-421.97 395.67,-410.83 368.84,-401.2"/>
<polygon fill="grey" stroke="grey" stroke-width="2" points="370.28,-398 359.68,-397.91 367.91,-404.58 370.28,-398"/>
</g>
<!-- 44 -->
<g id="node45" class="node">
<title>44</title>
<path fill="none" stroke="#d8d356" stroke-width="2" d="M532,-396C532,-396 464,-396 464,-396 458,-396 452,-390 452,-384 452,-384 452,-372 452,-372 452,-366 458,-360 464,-360 464,-360 532,-360 532,-360 538,-360 544,-366 544,-372 544,-372 544,-384 544,-384 544,-390 538,-396 532,-396"/>
<text text-anchor="middle" x="498" y="-375.5" font-family="sans" font-size="10.00">quant_mirna_pri</text>
</g>
<!-- 42&#45;&gt;44 -->
<g id="edge67" class="edge">
<title>42&#45;&gt;44</title>
<path fill="none" stroke="grey" stroke-width="2" d="M500.99,-431.34C500.61,-424.75 500.18,-417.08 499.75,-409.67"/>
<polygon fill="grey" stroke="grey" stroke-width="2" points="503.26,-409.71 499.2,-399.92 496.27,-410.11 503.26,-409.71"/>
</g>
<!-- 43 -->
<g id="node44" class="node">
<title>43</title>
<path fill="none" stroke="#afd856" stroke-width="2" d="M522,-180C522,-180 466,-180 466,-180 460,-180 454,-174 454,-168 454,-168 454,-156 454,-156 454,-150 460,-144 466,-144 466,-144 522,-144 522,-144 528,-144 534,-150 534,-156 534,-156 534,-168 534,-168 534,-174 528,-180 522,-180"/>
<text text-anchor="middle" x="494" y="-159.5" font-family="sans" font-size="10.00">merge_tables</text>
</g>
<!-- 43&#45;&gt;0 -->
<g id="edge7" class="edge">
<title>43&#45;&gt;0</title>
<path fill="none" stroke="grey" stroke-width="2" d="M483.39,-143.27C472.04,-124.82 453.09,-95.39 434,-72 426.74,-63.1 418.23,-53.97 410.22,-45.86"/>
<polygon fill="grey" stroke="grey" stroke-width="2" points="412.87,-43.55 403.31,-39 407.94,-48.52 412.87,-43.55"/>
</g>
<!-- 44&#45;&gt;43 -->
<g id="edge66" class="edge">
<title>44&#45;&gt;43</title>
<path fill="none" stroke="grey" stroke-width="2" d="M497.67,-359.12C496.98,-322.62 495.42,-239.13 494.57,-193.74"/>
<polygon fill="grey" stroke="grey" stroke-width="2" points="498.08,-193.94 494.39,-184 491.08,-194.07 498.08,-193.94"/>
</g>
<!-- 45 -->
<g id="node46" class="node">
<title>45</title>
<path fill="none" stroke="#d8cb56" stroke-width="2" d="M371,-180C371,-180 243,-180 243,-180 237,-180 231,-174 231,-168 231,-168 231,-156 231,-156 231,-150 237,-144 243,-144 243,-144 371,-144 371,-144 377,-144 383,-150 383,-156 383,-156 383,-168 383,-168 383,-174 377,-180 371,-180"/>
<text text-anchor="middle" x="307" y="-159.5" font-family="sans" font-size="10.00">sort_uncollpased_by_position</text>
</g>
<!-- 45&#45;&gt;0 -->
<g id="edge11" class="edge">
<title>45&#45;&gt;0</title>
<path fill="none" stroke="grey" stroke-width="2" d="M331.31,-143.05C342.25,-133.75 354.39,-121.52 362,-108 372.04,-90.16 377.04,-67.65 379.53,-49.73"/>
<polygon fill="grey" stroke="grey" stroke-width="2" points="383,-50.14 380.67,-39.8 376.05,-49.34 383,-50.14"/>
</g>
<!-- 48 -->
<g id="node49" class="node">
<title>48</title>
<path fill="none" stroke="#68d856" stroke-width="2" d="M341.5,-108C341.5,-108 240.5,-108 240.5,-108 234.5,-108 228.5,-102 228.5,-96 228.5,-96 228.5,-84 228.5,-84 228.5,-78 234.5,-72 240.5,-72 240.5,-72 341.5,-72 341.5,-72 347.5,-72 353.5,-78 353.5,-84 353.5,-84 353.5,-96 353.5,-96 353.5,-102 347.5,-108 341.5,-108"/>
<text text-anchor="middle" x="291" y="-87.5" font-family="sans" font-size="10.00">uncollapsed_index_bam</text>
</g>
<!-- 45&#45;&gt;48 -->
<g id="edge71" class="edge">
<title>45&#45;&gt;48</title>
<path fill="none" stroke="grey" stroke-width="2" d="M302.96,-143.34C301.44,-136.67 299.66,-128.89 297.95,-121.39"/>
<polygon fill="grey" stroke="grey" stroke-width="2" points="301.41,-120.82 295.77,-111.85 294.58,-122.38 301.41,-120.82"/>
</g>
<!-- 46 -->
<g id="node47" class="node">
<title>46</title>
<path fill="none" stroke="#56d0d8" stroke-width="2" d="M370.5,-252C370.5,-252 243.5,-252 243.5,-252 237.5,-252 231.5,-246 231.5,-240 231.5,-240 231.5,-228 231.5,-228 231.5,-222 237.5,-216 243.5,-216 243.5,-216 370.5,-216 370.5,-216 376.5,-216 382.5,-222 382.5,-228 382.5,-228 382.5,-240 382.5,-240 382.5,-246 376.5,-252 370.5,-252"/>
<text text-anchor="middle" x="307" y="-231.5" font-family="sans" font-size="10.00">uncollpased_convert_to_bam</text>
</g>
<!-- 46&#45;&gt;45 -->
<g id="edge68" class="edge">
<title>46&#45;&gt;45</title>
<path fill="none" stroke="grey" stroke-width="2" d="M307,-215.34C307,-208.75 307,-201.08 307,-193.67"/>
<polygon fill="grey" stroke="grey" stroke-width="2" points="310.5,-193.93 307,-183.93 303.5,-193.93 310.5,-193.93"/>
</g>
<!-- 47&#45;&gt;46 -->
<g id="edge69" class="edge">
<title>47&#45;&gt;46</title>
<path fill="none" stroke="grey" stroke-width="2" d="M307,-287.34C307,-280.75 307,-273.08 307,-265.67"/>
<polygon fill="grey" stroke="grey" stroke-width="2" points="310.5,-265.93 307,-255.93 303.5,-265.93 310.5,-265.93"/>
</g>
<!-- 48&#45;&gt;0 -->
<g id="edge5" class="edge">
<title>48&#45;&gt;0</title>
<path fill="none" stroke="grey" stroke-width="2" d="M313.96,-71.34C324.44,-63.27 337.06,-53.57 348.57,-44.72"/>
<polygon fill="grey" stroke="grey" stroke-width="2" points="350.54,-47.62 356.33,-38.75 346.27,-42.07 350.54,-47.62"/>
</g>
</g>
</svg>
