<?xml version="1.0" encoding="UTF-8" standalone="no"?>
<!DOCTYPE svg PUBLIC "-//W3C//DTD SVG 1.1//EN"
 "http://www.w3.org/Graphics/SVG/1.1/DTD/svg11.dtd">
<!-- Generated by graphviz version 2.40.1 (20161225.0304)
 -->
<!-- Title: snakemake_dag Pages: 1 -->
<svg width="596pt" height="332pt"
 viewBox="0.00 0.00 595.50 332.00" xmlns="http://www.w3.org/2000/svg" xmlns:xlink="http://www.w3.org/1999/xlink">
<g id="graph0" class="graph" transform="scale(1 1) rotate(0) translate(4 328)">
<title>snakemake_dag</title>
<polygon fill="#ffffff" stroke="transparent" points="-4,4 -4,-328 591.5,-328 591.5,4 -4,4"/>
<!-- 0 -->
<g id="node1" class="node">
<title>0</title>
<path fill="none" stroke="#d85656" stroke-width="2" d="M300.5,-36C300.5,-36 270.5,-36 270.5,-36 264.5,-36 258.5,-30 258.5,-24 258.5,-24 258.5,-12 258.5,-12 258.5,-6 264.5,0 270.5,0 270.5,0 300.5,0 300.5,0 306.5,0 312.5,-6 312.5,-12 312.5,-12 312.5,-24 312.5,-24 312.5,-30 306.5,-36 300.5,-36"/>
<text text-anchor="middle" x="285.5" y="-15.5" font-family="sans" font-size="10.00" fill="#000000">finish</text>
</g>
<!-- 1 -->
<g id="node2" class="node">
<title>1</title>
<path fill="none" stroke="#56c1d8" stroke-width="2" d="M495,-108C495,-108 300,-108 300,-108 294,-108 288,-102 288,-96 288,-96 288,-84 288,-84 288,-78 294,-72 300,-72 300,-72 495,-72 495,-72 501,-72 507,-78 507,-84 507,-84 507,-96 507,-96 507,-102 501,-108 495,-108"/>
<text text-anchor="middle" x="397.5" y="-87.5" font-family="sans" font-size="10.00" fill="#000000">generate_segemehl_index_transcriptome</text>
</g>
<!-- 1&#45;&gt;0 -->
<g id="edge2" class="edge">
<title>1&#45;&gt;0</title>
<path fill="none" stroke="#c0c0c0" stroke-width="2" d="M369.2377,-71.8314C354.7198,-62.4984 336.8745,-51.0264 321.3932,-41.0742"/>
<polygon fill="#c0c0c0" stroke="#c0c0c0" stroke-width="2" points="322.8987,-37.8812 312.5942,-35.4177 319.1134,-43.7695 322.8987,-37.8812"/>
</g>
<!-- 2 -->
<g id="node3" class="node">
<title>2</title>
<path fill="none" stroke="#568ad8" stroke-width="2" d="M419,-180C419,-180 376,-180 376,-180 370,-180 364,-174 364,-168 364,-168 364,-156 364,-156 364,-150 370,-144 376,-144 376,-144 419,-144 419,-144 425,-144 431,-150 431,-156 431,-156 431,-168 431,-168 431,-174 425,-180 419,-180"/>
<text text-anchor="middle" x="397.5" y="-159.5" font-family="sans" font-size="10.00" fill="#000000">trim_fasta</text>
</g>
<!-- 2&#45;&gt;1 -->
<g id="edge5" class="edge">
<title>2&#45;&gt;1</title>
<path fill="none" stroke="#c0c0c0" stroke-width="2" d="M397.5,-143.8314C397.5,-136.131 397.5,-126.9743 397.5,-118.4166"/>
<polygon fill="#c0c0c0" stroke="#c0c0c0" stroke-width="2" points="401.0001,-118.4132 397.5,-108.4133 394.0001,-118.4133 401.0001,-118.4132"/>
</g>
<!-- 3 -->
<g id="node4" class="node">
<title>3</title>
<path fill="none" stroke="#d8bc56" stroke-width="2" d="M461.5,-252C461.5,-252 333.5,-252 333.5,-252 327.5,-252 321.5,-246 321.5,-240 321.5,-240 321.5,-228 321.5,-228 321.5,-222 327.5,-216 333.5,-216 333.5,-216 461.5,-216 461.5,-216 467.5,-216 473.5,-222 473.5,-228 473.5,-228 473.5,-240 473.5,-240 473.5,-246 467.5,-252 461.5,-252"/>
<text text-anchor="middle" x="397.5" y="-231.5" font-family="sans" font-size="10.00" fill="#000000">extract_transcriptome_seqs</text>
</g>
<!-- 3&#45;&gt;2 -->
<g id="edge6" class="edge">
<title>3&#45;&gt;2</title>
<path fill="none" stroke="#c0c0c0" stroke-width="2" d="M397.5,-215.8314C397.5,-208.131 397.5,-198.9743 397.5,-190.4166"/>
<polygon fill="#c0c0c0" stroke="#c0c0c0" stroke-width="2" points="401.0001,-190.4132 397.5,-180.4133 394.0001,-190.4133 401.0001,-190.4132"/>
</g>
<!-- 4 -->
<g id="node5" class="node">
<title>4</title>
<path fill="none" stroke="#d88d56" stroke-width="2" d="M212,-324C212,-324 137,-324 137,-324 131,-324 125,-318 125,-312 125,-312 125,-300 125,-300 125,-294 131,-288 137,-288 137,-288 212,-288 212,-288 218,-288 224,-294 224,-300 224,-300 224,-312 224,-312 224,-318 218,-324 212,-324"/>
<text text-anchor="middle" x="174.5" y="-303.5" font-family="sans" font-size="10.00" fill="#000000">genome_process</text>
</g>
<!-- 4&#45;&gt;3 -->
<g id="edge7" class="edge">
<title>4&#45;&gt;3</title>
<path fill="none" stroke="#c0c0c0" stroke-width="2" d="M224.268,-289.9314C255.9297,-279.7088 297.2888,-266.3552 331.6541,-255.2597"/>
<polygon fill="#c0c0c0" stroke="#c0c0c0" stroke-width="2" points="333.1696,-258.4483 341.6104,-252.0451 331.0187,-251.7869 333.1696,-258.4483"/>
</g>
<!-- 6 -->
<g id="node7" class="node">
<title>6</title>
<path fill="none" stroke="#59d856" stroke-width="2" d="M258,-108C258,-108 91,-108 91,-108 85,-108 79,-102 79,-96 79,-96 79,-84 79,-84 79,-78 85,-72 91,-72 91,-72 258,-72 258,-72 264,-72 270,-78 270,-84 270,-84 270,-96 270,-96 270,-102 264,-108 258,-108"/>
<text text-anchor="middle" x="174.5" y="-87.5" font-family="sans" font-size="10.00" fill="#000000">generate_segemehl_index_genome</text>
</g>
<!-- 4&#45;&gt;6 -->
<g id="edge9" class="edge">
<title>4&#45;&gt;6</title>
<path fill="none" stroke="#c0c0c0" stroke-width="2" d="M174.5,-287.9555C174.5,-250.3938 174.5,-163.5541 174.5,-118.4103"/>
<polygon fill="#c0c0c0" stroke="#c0c0c0" stroke-width="2" points="178.0001,-118.145 174.5,-108.1451 171.0001,-118.1451 178.0001,-118.145"/>
</g>
<!-- 9 -->
<g id="node10" class="node">
<title>9</title>
<path fill="none" stroke="#56d8c1" stroke-width="2" d="M119,-180C119,-180 12,-180 12,-180 6,-180 0,-174 0,-168 0,-168 0,-156 0,-156 0,-150 6,-144 12,-144 12,-144 119,-144 119,-144 125,-144 131,-150 131,-156 131,-156 131,-168 131,-168 131,-174 125,-180 119,-180"/>
<text text-anchor="middle" x="65.5" y="-159.5" font-family="sans" font-size="10.00" fill="#000000">create_header_genome</text>
</g>
<!-- 4&#45;&gt;9 -->
<g id="edge12" class="edge">
<title>4&#45;&gt;9</title>
<path fill="none" stroke="#c0c0c0" stroke-width="2" d="M160.6951,-287.7623C141.6122,-262.5518 107.0641,-216.9103 85.2526,-188.0952"/>
<polygon fill="#c0c0c0" stroke="#c0c0c0" stroke-width="2" points="88.0189,-185.9506 79.1928,-180.0896 82.4376,-190.1754 88.0189,-185.9506"/>
</g>
<!-- 5 -->
<g id="node6" class="node">
<title>5</title>
<path fill="none" stroke="#56d88a" stroke-width="2" d="M502,-324C502,-324 439,-324 439,-324 433,-324 427,-318 427,-312 427,-312 427,-300 427,-300 427,-294 433,-288 439,-288 439,-288 502,-288 502,-288 508,-288 514,-294 514,-300 514,-300 514,-312 514,-312 514,-318 508,-324 502,-324"/>
<text text-anchor="middle" x="470.5" y="-303.5" font-family="sans" font-size="10.00" fill="#000000">filter_anno_gtf</text>
</g>
<!-- 5&#45;&gt;3 -->
<g id="edge8" class="edge">
<title>5&#45;&gt;3</title>
<path fill="none" stroke="#c0c0c0" stroke-width="2" d="M452.079,-287.8314C443.3471,-279.219 432.7683,-268.7851 423.2577,-259.4048"/>
<polygon fill="#c0c0c0" stroke="#c0c0c0" stroke-width="2" points="425.4925,-256.6931 415.9151,-252.1628 420.577,-261.6769 425.4925,-256.6931"/>
</g>
<!-- 8 -->
<g id="node9" class="node">
<title>8</title>
<path fill="none" stroke="#bed856" stroke-width="2" d="M575.5,-252C575.5,-252 513.5,-252 513.5,-252 507.5,-252 501.5,-246 501.5,-240 501.5,-240 501.5,-228 501.5,-228 501.5,-222 507.5,-216 513.5,-216 513.5,-216 575.5,-216 575.5,-216 581.5,-216 587.5,-222 587.5,-228 587.5,-228 587.5,-240 587.5,-240 587.5,-246 581.5,-252 575.5,-252"/>
<text text-anchor="middle" x="544.5" y="-231.5" font-family="sans" font-size="10.00" fill="#000000">get_exons_gtf</text>
</g>
<!-- 5&#45;&gt;8 -->
<g id="edge11" class="edge">
<title>5&#45;&gt;8</title>
<path fill="none" stroke="#c0c0c0" stroke-width="2" d="M489.1733,-287.8314C498.0249,-279.219 508.7486,-268.7851 518.3895,-259.4048"/>
<polygon fill="#c0c0c0" stroke="#c0c0c0" stroke-width="2" points="521.1061,-261.645 525.8326,-252.1628 516.2246,-256.6279 521.1061,-261.645"/>
</g>
<!-- 6&#45;&gt;0 -->
<g id="edge3" class="edge">
<title>6&#45;&gt;0</title>
<path fill="none" stroke="#c0c0c0" stroke-width="2" d="M202.51,-71.8314C216.7909,-62.5681 234.3205,-51.1975 249.5834,-41.2972"/>
<polygon fill="#c0c0c0" stroke="#c0c0c0" stroke-width="2" points="251.7815,-44.0434 258.2664,-35.665 247.9721,-38.1706 251.7815,-44.0434"/>
</g>
<!-- 7 -->
<g id="node8" class="node">
<title>7</title>
<path fill="none" stroke="#88d856" stroke-width="2" d="M571.5,-108C571.5,-108 537.5,-108 537.5,-108 531.5,-108 525.5,-102 525.5,-96 525.5,-96 525.5,-84 525.5,-84 525.5,-78 531.5,-72 537.5,-72 537.5,-72 571.5,-72 571.5,-72 577.5,-72 583.5,-78 583.5,-84 583.5,-84 583.5,-96 583.5,-96 583.5,-102 577.5,-108 571.5,-108"/>
<text text-anchor="middle" x="554.5" y="-87.5" font-family="sans" font-size="10.00" fill="#000000">gtftobed</text>
</g>
<!-- 7&#45;&gt;0 -->
<g id="edge1" class="edge">
<title>7&#45;&gt;0</title>
<path fill="none" stroke="#c0c0c0" stroke-width="2" d="M525.3009,-75.4138C522.3621,-74.1746 519.3945,-73.0109 516.5,-72 449.8064,-48.7071 368.7812,-32.3854 322.571,-24.1501"/>
<polygon fill="#c0c0c0" stroke="#c0c0c0" stroke-width="2" points="323.1591,-20.6999 312.705,-22.4208 321.9506,-27.5948 323.1591,-20.6999"/>
</g>
<!-- 8&#45;&gt;7 -->
<g id="edge10" class="edge">
<title>8&#45;&gt;7</title>
<path fill="none" stroke="#c0c0c0" stroke-width="2" d="M545.7665,-215.7623C547.4721,-191.201 550.5245,-147.2474 552.531,-118.3541"/>
<polygon fill="#c0c0c0" stroke="#c0c0c0" stroke-width="2" points="556.0425,-118.3081 553.2438,-108.0896 549.0593,-117.8231 556.0425,-118.3081"/>
</g>
<!-- 9&#45;&gt;0 -->
<g id="edge4" class="edge">
<title>9&#45;&gt;0</title>
<path fill="none" stroke="#c0c0c0" stroke-width="2" d="M60.544,-143.9048C56.2668,-123.9783 53.0715,-92.1044 69.5,-72 91.8461,-44.6539 192.3357,-28.8343 248.0323,-22.0186"/>
<polygon fill="#c0c0c0" stroke="#c0c0c0" stroke-width="2" points="248.6915,-25.465 258.21,-20.8123 247.8676,-18.5137 248.6915,-25.465"/>
</g>
</g>
</svg>
