<?xml version="1.0" encoding="UTF-8" standalone="no"?>
<!DOCTYPE svg PUBLIC "-//W3C//DTD SVG 1.1//EN"
 "http://www.w3.org/Graphics/SVG/1.1/DTD/svg11.dtd">
<!-- Generated by graphviz version 7.1.0 (20230122.1345)
 -->
<!-- Title: snakemake_dag Pages: 1 -->
<svg width="1157pt" height="2132pt"
 viewBox="0.00 0.00 1156.63 2132.00" xmlns="http://www.w3.org/2000/svg" xmlns:xlink="http://www.w3.org/1999/xlink">
<g id="graph0" class="graph" transform="scale(1 1) rotate(0) translate(4 2128)">
<title>snakemake_dag</title>
<polygon fill="white" stroke="none" points="-4,4 -4,-2128 1152.63,-2128 1152.63,4 -4,4"/>
<!-- 0 -->
<g id="node1" class="node">
<title>0</title>
<path fill="none" stroke="#56d87b" stroke-width="2" d="M150,-36C150,-36 120,-36 120,-36 114,-36 108,-30 108,-24 108,-24 108,-12 108,-12 108,-6 114,0 120,0 120,0 150,0 150,0 156,0 162,-6 162,-12 162,-12 162,-24 162,-24 162,-30 156,-36 150,-36"/>
<text text-anchor="middle" x="135" y="-15.5" font-family="sans" font-size="10.00">finish</text>
</g>
<!-- 1 -->
<g id="node2" class="node">
<title>1</title>
<path fill="none" stroke="#68d856" stroke-width="2" d="M384.5,-684C384.5,-684 237.5,-684 237.5,-684 231.5,-684 225.5,-678 225.5,-672 225.5,-672 225.5,-660 225.5,-660 225.5,-654 231.5,-648 237.5,-648 237.5,-648 384.5,-648 384.5,-648 390.5,-648 396.5,-654 396.5,-660 396.5,-660 396.5,-672 396.5,-672 396.5,-678 390.5,-684 384.5,-684"/>
<text text-anchor="middle" x="311" y="-663.5" font-family="sans" font-size="10.00">filter_sam_by_intersecting_primir</text>
</g>
<!-- 1&#45;&gt;0 -->
<g id="edge6" class="edge">
<title>1&#45;&gt;0</title>
<path fill="none" stroke="grey" stroke-width="2" d="M224.78,-661.43C132.74,-652.44 0,-622.27 0,-523 0,-523 0,-523 0,-161 0,-104.96 55.9,-62.24 95.76,-38.91"/>
<polygon fill="grey" stroke="grey" stroke-width="2" points="97.39,-42.01 104.39,-34.05 93.96,-35.91 97.39,-42.01"/>
</g>
<!-- 42 -->
<g id="node43" class="node">
<title>42</title>
<path fill="none" stroke="#88d856" stroke-width="2" d="M367,-396C367,-396 221,-396 221,-396 215,-396 209,-390 209,-384 209,-384 209,-372 209,-372 209,-366 215,-360 221,-360 221,-360 367,-360 367,-360 373,-360 379,-366 379,-372 379,-372 379,-384 379,-384 379,-390 373,-396 367,-396"/>
<text text-anchor="middle" x="294" y="-375.5" font-family="sans" font-size="10.00">filter_sam_by_intersecting_mirna</text>
</g>
<!-- 1&#45;&gt;42 -->
<g id="edge59" class="edge">
<title>1&#45;&gt;42</title>
<path fill="none" stroke="grey" stroke-width="2" d="M241.94,-647.05C224.73,-639.16 208.28,-627.93 198,-612 171.97,-571.67 181.45,-549.41 197,-504 210.3,-465.17 241.12,-429.09 264.47,-405.77"/>
<polygon fill="grey" stroke="grey" stroke-width="2" points="266.72,-408.47 271.46,-398.99 261.85,-403.44 266.72,-408.47"/>
</g>
<!-- 45 -->
<g id="node46" class="node">
<title>45</title>
<path fill="none" stroke="#a7d856" stroke-width="2" d="M403,-612C403,-612 219,-612 219,-612 213,-612 207,-606 207,-600 207,-600 207,-588 207,-588 207,-582 213,-576 219,-576 219,-576 403,-576 403,-576 409,-576 415,-582 415,-588 415,-588 415,-600 415,-600 415,-606 409,-612 403,-612"/>
<text text-anchor="middle" x="311" y="-591.5" font-family="sans" font-size="10.00">convert_intersecting_primir_sam_to_bam</text>
</g>
<!-- 1&#45;&gt;45 -->
<g id="edge63" class="edge">
<title>1&#45;&gt;45</title>
<path fill="none" stroke="grey" stroke-width="2" d="M311,-647.34C311,-640.75 311,-633.08 311,-625.67"/>
<polygon fill="grey" stroke="grey" stroke-width="2" points="314.5,-625.93 311,-615.93 307.5,-625.93 314.5,-625.93"/>
</g>
<!-- 2 -->
<g id="node3" class="node">
<title>2</title>
<path fill="none" stroke="#97d856" stroke-width="2" d="M483,-972C483,-972 421,-972 421,-972 415,-972 409,-966 409,-960 409,-960 409,-948 409,-948 409,-942 415,-936 421,-936 421,-936 483,-936 483,-936 489,-936 495,-942 495,-948 495,-948 495,-960 495,-960 495,-966 489,-972 483,-972"/>
<text text-anchor="middle" x="452" y="-951.5" font-family="sans" font-size="10.00">filter_by_indels</text>
</g>
<!-- 2&#45;&gt;1 -->
<g id="edge7" class="edge">
<title>2&#45;&gt;1</title>
<path fill="none" stroke="grey" stroke-width="2" d="M412.34,-935.13C397.13,-926.49 380.84,-914.75 370,-900 324.67,-838.34 314.01,-745.45 311.61,-697.71"/>
<polygon fill="grey" stroke="grey" stroke-width="2" points="315.11,-697.85 311.23,-688 308.12,-698.13 315.11,-697.85"/>
</g>
<!-- 37 -->
<g id="node38" class="node">
<title>37</title>
<path fill="none" stroke="#5673d8" stroke-width="2" d="M640,-900C640,-900 512,-900 512,-900 506,-900 500,-894 500,-888 500,-888 500,-876 500,-876 500,-870 506,-864 512,-864 512,-864 640,-864 640,-864 646,-864 652,-870 652,-876 652,-876 652,-888 652,-888 652,-894 646,-900 640,-900"/>
<text text-anchor="middle" x="576" y="-879.5" font-family="sans" font-size="10.00">convert_all_alns_sam_to_bam</text>
</g>
<!-- 2&#45;&gt;37 -->
<g id="edge53" class="edge">
<title>2&#45;&gt;37</title>
<path fill="none" stroke="grey" stroke-width="2" d="M483.61,-935.15C498.77,-926.6 517.15,-916.22 533.51,-906.99"/>
<polygon fill="grey" stroke="grey" stroke-width="2" points="534.82,-910.26 541.81,-902.3 531.38,-904.17 534.82,-910.26"/>
</g>
<!-- 3 -->
<g id="node4" class="node">
<title>3</title>
<path fill="none" stroke="#59d856" stroke-width="2" d="M488.5,-1044C488.5,-1044 415.5,-1044 415.5,-1044 409.5,-1044 403.5,-1038 403.5,-1032 403.5,-1032 403.5,-1020 403.5,-1020 403.5,-1014 409.5,-1008 415.5,-1008 415.5,-1008 488.5,-1008 488.5,-1008 494.5,-1008 500.5,-1014 500.5,-1020 500.5,-1020 500.5,-1032 500.5,-1032 500.5,-1038 494.5,-1044 488.5,-1044"/>
<text text-anchor="middle" x="452" y="-1023.5" font-family="sans" font-size="10.00">remove_inferiors</text>
</g>
<!-- 3&#45;&gt;2 -->
<g id="edge9" class="edge">
<title>3&#45;&gt;2</title>
<path fill="none" stroke="grey" stroke-width="2" d="M452,-1007.34C452,-1000.75 452,-993.08 452,-985.67"/>
<polygon fill="grey" stroke="grey" stroke-width="2" points="455.5,-985.93 452,-975.93 448.5,-985.93 455.5,-985.93"/>
</g>
<!-- 4 -->
<g id="node5" class="node">
<title>4</title>
<path fill="none" stroke="#56a2d8" stroke-width="2" d="M486.5,-1116C486.5,-1116 417.5,-1116 417.5,-1116 411.5,-1116 405.5,-1110 405.5,-1104 405.5,-1104 405.5,-1092 405.5,-1092 405.5,-1086 411.5,-1080 417.5,-1080 417.5,-1080 486.5,-1080 486.5,-1080 492.5,-1080 498.5,-1086 498.5,-1092 498.5,-1092 498.5,-1104 498.5,-1104 498.5,-1110 492.5,-1116 486.5,-1116"/>
<text text-anchor="middle" x="452" y="-1095.5" font-family="sans" font-size="10.00">sort_maps_by_id</text>
</g>
<!-- 4&#45;&gt;3 -->
<g id="edge10" class="edge">
<title>4&#45;&gt;3</title>
<path fill="none" stroke="grey" stroke-width="2" d="M452,-1079.34C452,-1072.75 452,-1065.08 452,-1057.67"/>
<polygon fill="grey" stroke="grey" stroke-width="2" points="455.5,-1057.93 452,-1047.93 448.5,-1057.93 455.5,-1057.93"/>
</g>
<!-- 5 -->
<g id="node6" class="node">
<title>5</title>
<path fill="none" stroke="#5682d8" stroke-width="2" d="M498,-1188C498,-1188 406,-1188 406,-1188 400,-1188 394,-1182 394,-1176 394,-1176 394,-1164 394,-1164 394,-1158 400,-1152 406,-1152 406,-1152 498,-1152 498,-1152 504,-1152 510,-1158 510,-1164 510,-1164 510,-1176 510,-1176 510,-1182 504,-1188 498,-1188"/>
<text text-anchor="middle" x="452" y="-1167.5" font-family="sans" font-size="10.00">add_header_all_maps</text>
</g>
<!-- 5&#45;&gt;4 -->
<g id="edge11" class="edge">
<title>5&#45;&gt;4</title>
<path fill="none" stroke="grey" stroke-width="2" d="M452,-1151.34C452,-1144.75 452,-1137.08 452,-1129.67"/>
<polygon fill="grey" stroke="grey" stroke-width="2" points="455.5,-1129.93 452,-1119.93 448.5,-1129.93 455.5,-1129.93"/>
</g>
<!-- 6 -->
<g id="node7" class="node">
<title>6</title>
<path fill="none" stroke="#d8cb56" stroke-width="2" d="M436,-1332C436,-1332 332,-1332 332,-1332 326,-1332 320,-1326 320,-1320 320,-1320 320,-1308 320,-1308 320,-1302 326,-1296 332,-1296 332,-1296 436,-1296 436,-1296 442,-1296 448,-1302 448,-1308 448,-1308 448,-1320 448,-1320 448,-1326 442,-1332 436,-1332"/>
<text text-anchor="middle" x="384" y="-1311.5" font-family="sans" font-size="10.00">create_genome_header</text>
</g>
<!-- 6&#45;&gt;5 -->
<g id="edge12" class="edge">
<title>6&#45;&gt;5</title>
<path fill="none" stroke="grey" stroke-width="2" d="M392.61,-1295.02C404.01,-1271.22 424.24,-1228.97 437.88,-1200.48"/>
<polygon fill="grey" stroke="grey" stroke-width="2" points="440.99,-1202.1 442.15,-1191.57 434.67,-1199.08 440.99,-1202.1"/>
</g>
<!-- 7 -->
<g id="node8" class="node">
<title>7</title>
<path fill="none" stroke="#56d8d0" stroke-width="2" d="M500,-1980C500,-1980 406,-1980 406,-1980 400,-1980 394,-1974 394,-1968 394,-1968 394,-1956 394,-1956 394,-1950 400,-1944 406,-1944 406,-1944 500,-1944 500,-1944 506,-1944 512,-1950 512,-1956 512,-1956 512,-1968 512,-1968 512,-1974 506,-1980 500,-1980"/>
<text text-anchor="middle" x="453" y="-1959.5" font-family="sans" font-size="10.00">trim_genome_seq_ids</text>
</g>
<!-- 7&#45;&gt;6 -->
<g id="edge14" class="edge">
<title>7&#45;&gt;6</title>
<path fill="none" stroke="grey" stroke-width="2" d="M429.78,-1943.09C400.8,-1918.53 355,-1871.42 355,-1819 355,-1819 355,-1819 355,-1457 355,-1417.68 365.8,-1373.46 374.22,-1344.97"/>
<polygon fill="grey" stroke="grey" stroke-width="2" points="377.51,-1346.18 377.1,-1335.59 370.82,-1344.12 377.51,-1346.18"/>
</g>
<!-- 19 -->
<g id="node20" class="node">
<title>19</title>
<path fill="none" stroke="#56d85b" stroke-width="2" d="M790.5,-1908C790.5,-1908 671.5,-1908 671.5,-1908 665.5,-1908 659.5,-1902 659.5,-1896 659.5,-1896 659.5,-1884 659.5,-1884 659.5,-1878 665.5,-1872 671.5,-1872 671.5,-1872 790.5,-1872 790.5,-1872 796.5,-1872 802.5,-1878 802.5,-1884 802.5,-1884 802.5,-1896 802.5,-1896 802.5,-1902 796.5,-1908 790.5,-1908"/>
<text text-anchor="middle" x="731" y="-1887.5" font-family="sans" font-size="10.00">extract_transcriptome_seqs</text>
</g>
<!-- 7&#45;&gt;19 -->
<g id="edge30" class="edge">
<title>7&#45;&gt;19</title>
<path fill="none" stroke="grey" stroke-width="2" d="M512.98,-1945.9C552.13,-1936.04 603.81,-1923.03 647.02,-1912.14"/>
<polygon fill="grey" stroke="grey" stroke-width="2" points="647.78,-1915.56 656.62,-1909.73 646.07,-1908.78 647.78,-1915.56"/>
</g>
<!-- 30 -->
<g id="node31" class="node">
<title>30</title>
<path fill="none" stroke="#56d8b9" stroke-width="2" d="M565.5,-1836C565.5,-1836 458.5,-1836 458.5,-1836 452.5,-1836 446.5,-1830 446.5,-1824 446.5,-1824 446.5,-1812 446.5,-1812 446.5,-1806 452.5,-1800 458.5,-1800 458.5,-1800 565.5,-1800 565.5,-1800 571.5,-1800 577.5,-1806 577.5,-1812 577.5,-1812 577.5,-1824 577.5,-1824 577.5,-1830 571.5,-1836 565.5,-1836"/>
<text text-anchor="middle" x="512" y="-1815.5" font-family="sans" font-size="10.00">map_genome_segemehl</text>
</g>
<!-- 7&#45;&gt;30 -->
<g id="edge43" class="edge">
<title>7&#45;&gt;30</title>
<path fill="none" stroke="grey" stroke-width="2" d="M434.42,-1943.02C417.74,-1924.62 397.88,-1895.47 412,-1872 419.25,-1859.95 430.27,-1850.49 442.38,-1843.12"/>
<polygon fill="grey" stroke="grey" stroke-width="2" points="443.97,-1846.24 451.07,-1838.38 440.61,-1840.1 443.97,-1846.24"/>
</g>
<!-- 31 -->
<g id="node32" class="node">
<title>31</title>
<path fill="none" stroke="#afd856" stroke-width="2" d="M591,-1908C591,-1908 433,-1908 433,-1908 427,-1908 421,-1902 421,-1896 421,-1896 421,-1884 421,-1884 421,-1878 427,-1872 433,-1872 433,-1872 591,-1872 591,-1872 597,-1872 603,-1878 603,-1884 603,-1884 603,-1896 603,-1896 603,-1902 597,-1908 591,-1908"/>
<text text-anchor="middle" x="512" y="-1887.5" font-family="sans" font-size="10.00">generate_segemehl_index_genome</text>
</g>
<!-- 7&#45;&gt;31 -->
<g id="edge45" class="edge">
<title>7&#45;&gt;31</title>
<path fill="none" stroke="grey" stroke-width="2" d="M467.89,-1943.34C474.2,-1935.85 481.7,-1926.95 488.71,-1918.63"/>
<polygon fill="grey" stroke="grey" stroke-width="2" points="491.19,-1921.12 494.96,-1911.22 485.84,-1916.61 491.19,-1921.12"/>
</g>
<!-- 34 -->
<g id="node35" class="node">
<title>34</title>
<path fill="none" stroke="#61d856" stroke-width="2" d="M683,-1764C683,-1764 579,-1764 579,-1764 573,-1764 567,-1758 567,-1752 567,-1752 567,-1740 567,-1740 567,-1734 573,-1728 579,-1728 579,-1728 683,-1728 683,-1728 689,-1728 695,-1734 695,-1740 695,-1740 695,-1752 695,-1752 695,-1758 689,-1764 683,-1764"/>
<text text-anchor="middle" x="631" y="-1743.5" font-family="sans" font-size="10.00">map_genome_oligomap</text>
</g>
<!-- 7&#45;&gt;34 -->
<g id="edge49" class="edge">
<title>7&#45;&gt;34</title>
<path fill="none" stroke="grey" stroke-width="2" d="M512.89,-1956.51C547.18,-1950.65 588.03,-1937.45 612,-1908 641.96,-1871.2 640.7,-1813.03 636.34,-1777.6"/>
<polygon fill="grey" stroke="grey" stroke-width="2" points="639.82,-1777.2 634.94,-1767.8 632.89,-1778.2 639.82,-1777.2"/>
</g>
<!-- 41 -->
<g id="node42" class="node">
<title>41</title>
<path fill="none" stroke="#d89556" stroke-width="2" d="M353,-1260C353,-1260 231,-1260 231,-1260 225,-1260 219,-1254 219,-1248 219,-1248 219,-1236 219,-1236 219,-1230 225,-1224 231,-1224 231,-1224 353,-1224 353,-1224 359,-1224 365,-1230 365,-1236 365,-1236 365,-1248 365,-1248 365,-1254 359,-1260 353,-1260"/>
<text text-anchor="middle" x="292" y="-1239.5" font-family="sans" font-size="10.00">create_index_genome_fasta</text>
</g>
<!-- 7&#45;&gt;41 -->
<g id="edge57" class="edge">
<title>7&#45;&gt;41</title>
<path fill="none" stroke="grey" stroke-width="2" d="M406,-1943.04C358.48,-1921.46 292,-1880.31 292,-1819 292,-1819 292,-1819 292,-1385 292,-1346.65 292,-1302.48 292,-1273.72"/>
<polygon fill="grey" stroke="grey" stroke-width="2" points="295.5,-1273.96 292,-1263.96 288.5,-1273.96 295.5,-1273.96"/>
</g>
<!-- 8 -->
<g id="node9" class="node">
<title>8</title>
<path fill="none" stroke="#d8bc56" stroke-width="2" d="M591.5,-1260C591.5,-1260 524.5,-1260 524.5,-1260 518.5,-1260 512.5,-1254 512.5,-1248 512.5,-1248 512.5,-1236 512.5,-1236 512.5,-1230 518.5,-1224 524.5,-1224 524.5,-1224 591.5,-1224 591.5,-1224 597.5,-1224 603.5,-1230 603.5,-1236 603.5,-1236 603.5,-1248 603.5,-1248 603.5,-1254 597.5,-1260 591.5,-1260"/>
<text text-anchor="middle" x="558" y="-1239.5" font-family="sans" font-size="10.00">merge_all_maps</text>
</g>
<!-- 8&#45;&gt;5 -->
<g id="edge13" class="edge">
<title>8&#45;&gt;5</title>
<path fill="none" stroke="grey" stroke-width="2" d="M530.98,-1223.15C518.39,-1214.84 503.21,-1204.82 489.54,-1195.79"/>
<polygon fill="grey" stroke="grey" stroke-width="2" points="491.77,-1193.07 481.5,-1190.48 487.92,-1198.91 491.77,-1193.07"/>
</g>
<!-- 9 -->
<g id="node10" class="node">
<title>9</title>
<path fill="none" stroke="#c6d856" stroke-width="2" d="M825.5,-1332C825.5,-1332 680.5,-1332 680.5,-1332 674.5,-1332 668.5,-1326 668.5,-1320 668.5,-1320 668.5,-1308 668.5,-1308 668.5,-1302 674.5,-1296 680.5,-1296 680.5,-1296 825.5,-1296 825.5,-1296 831.5,-1296 837.5,-1302 837.5,-1308 837.5,-1308 837.5,-1320 837.5,-1320 837.5,-1326 831.5,-1332 825.5,-1332"/>
<text text-anchor="middle" x="753" y="-1311.5" font-family="sans" font-size="10.00">transcriptome_to_genome_maps</text>
</g>
<!-- 9&#45;&gt;8 -->
<g id="edge16" class="edge">
<title>9&#45;&gt;8</title>
<path fill="none" stroke="grey" stroke-width="2" d="M703.04,-1295.06C676.71,-1285.61 644.27,-1273.97 616.75,-1264.09"/>
<polygon fill="grey" stroke="grey" stroke-width="2" points="617.93,-1260.79 607.34,-1260.71 615.56,-1267.38 617.93,-1260.79"/>
</g>
<!-- 10 -->
<g id="node11" class="node">
<title>10</title>
<path fill="none" stroke="#d8a456" stroke-width="2" d="M962,-1404C962,-1404 776,-1404 776,-1404 770,-1404 764,-1398 764,-1392 764,-1392 764,-1380 764,-1380 764,-1374 770,-1368 776,-1368 776,-1368 962,-1368 962,-1368 968,-1368 974,-1374 974,-1380 974,-1380 974,-1392 974,-1392 974,-1398 968,-1404 962,-1404"/>
<text text-anchor="middle" x="869" y="-1383.5" font-family="sans" font-size="10.00">remove_header_transcriptome_mappings</text>
</g>
<!-- 10&#45;&gt;9 -->
<g id="edge18" class="edge">
<title>10&#45;&gt;9</title>
<path fill="none" stroke="grey" stroke-width="2" d="M839.43,-1367.15C825.52,-1358.76 808.72,-1348.62 793.64,-1339.52"/>
<polygon fill="grey" stroke="grey" stroke-width="2" points="795.48,-1336.55 785.11,-1334.38 791.86,-1342.54 795.48,-1336.55"/>
</g>
<!-- 11 -->
<g id="node12" class="node">
<title>11</title>
<path fill="none" stroke="#56c9d8" stroke-width="2" d="M927.5,-1476C927.5,-1476 810.5,-1476 810.5,-1476 804.5,-1476 798.5,-1470 798.5,-1464 798.5,-1464 798.5,-1452 798.5,-1452 798.5,-1446 804.5,-1440 810.5,-1440 810.5,-1440 927.5,-1440 927.5,-1440 933.5,-1440 939.5,-1446 939.5,-1452 939.5,-1452 939.5,-1464 939.5,-1464 939.5,-1470 933.5,-1476 927.5,-1476"/>
<text text-anchor="middle" x="869" y="-1455.5" font-family="sans" font-size="10.00">filter_transcriptome_by_nh</text>
</g>
<!-- 11&#45;&gt;10 -->
<g id="edge19" class="edge">
<title>11&#45;&gt;10</title>
<path fill="none" stroke="grey" stroke-width="2" d="M869,-1439.34C869,-1432.75 869,-1425.08 869,-1417.67"/>
<polygon fill="grey" stroke="grey" stroke-width="2" points="872.5,-1417.93 869,-1407.93 865.5,-1417.93 872.5,-1417.93"/>
</g>
<!-- 12 -->
<g id="node13" class="node">
<title>12</title>
<path fill="none" stroke="#56d8c1" stroke-width="2" d="M930,-1548C930,-1548 808,-1548 808,-1548 802,-1548 796,-1542 796,-1536 796,-1536 796,-1524 796,-1524 796,-1518 802,-1512 808,-1512 808,-1512 930,-1512 930,-1512 936,-1512 942,-1518 942,-1524 942,-1524 942,-1536 942,-1536 942,-1542 936,-1548 930,-1548"/>
<text text-anchor="middle" x="869" y="-1527.5" font-family="sans" font-size="10.00">merge_transcriptome_maps</text>
</g>
<!-- 12&#45;&gt;11 -->
<g id="edge20" class="edge">
<title>12&#45;&gt;11</title>
<path fill="none" stroke="grey" stroke-width="2" d="M869,-1511.34C869,-1504.75 869,-1497.08 869,-1489.67"/>
<polygon fill="grey" stroke="grey" stroke-width="2" points="872.5,-1489.93 869,-1479.93 865.5,-1489.93 872.5,-1489.93"/>
</g>
<!-- 13 -->
<g id="node14" class="node">
<title>13</title>
<path fill="none" stroke="#56d0d8" stroke-width="2" d="M1068.5,-1692C1068.5,-1692 935.5,-1692 935.5,-1692 929.5,-1692 923.5,-1686 923.5,-1680 923.5,-1680 923.5,-1668 923.5,-1668 923.5,-1662 929.5,-1656 935.5,-1656 935.5,-1656 1068.5,-1656 1068.5,-1656 1074.5,-1656 1080.5,-1662 1080.5,-1668 1080.5,-1668 1080.5,-1680 1080.5,-1680 1080.5,-1686 1074.5,-1692 1068.5,-1692"/>
<text text-anchor="middle" x="1002" y="-1671.5" font-family="sans" font-size="10.00">map_transcriptome_segemehl</text>
</g>
<!-- 13&#45;&gt;12 -->
<g id="edge21" class="edge">
<title>13&#45;&gt;12</title>
<path fill="none" stroke="grey" stroke-width="2" d="M999.25,-1655.01C995.44,-1635.52 986.91,-1604.46 969,-1584 958.53,-1572.04 944.69,-1562.35 930.66,-1554.69"/>
<polygon fill="grey" stroke="grey" stroke-width="2" points="932.63,-1551.76 922.13,-1550.35 929.45,-1558 932.63,-1551.76"/>
</g>
<!-- 14 -->
<g id="node15" class="node">
<title>14</title>
<path fill="none" stroke="#56d8a9" stroke-width="2" d="M935,-1908C935,-1908 833,-1908 833,-1908 827,-1908 821,-1902 821,-1896 821,-1896 821,-1884 821,-1884 821,-1878 827,-1872 833,-1872 833,-1872 935,-1872 935,-1872 941,-1872 947,-1878 947,-1884 947,-1884 947,-1896 947,-1896 947,-1902 941,-1908 935,-1908"/>
<text text-anchor="middle" x="884" y="-1887.5" font-family="sans" font-size="10.00">collapse_identical_reads</text>
</g>
<!-- 14&#45;&gt;13 -->
<g id="edge25" class="edge">
<title>14&#45;&gt;13</title>
<path fill="none" stroke="grey" stroke-width="2" d="M947.79,-1877.92C1009.5,-1863.44 1099.71,-1831.48 1142,-1764 1150.5,-1750.44 1151.09,-1741.17 1142,-1728 1130.32,-1711.09 1112.49,-1699.57 1093.44,-1691.72"/>
<polygon fill="grey" stroke="grey" stroke-width="2" points="1094.89,-1688.53 1084.29,-1688.34 1092.46,-1695.09 1094.89,-1688.53"/>
</g>
<!-- 24 -->
<g id="node25" class="node">
<title>24</title>
<path fill="none" stroke="#d88556" stroke-width="2" d="M793,-1836C793,-1836 685,-1836 685,-1836 679,-1836 673,-1830 673,-1824 673,-1824 673,-1812 673,-1812 673,-1806 679,-1800 685,-1800 685,-1800 793,-1800 793,-1800 799,-1800 805,-1806 805,-1812 805,-1812 805,-1824 805,-1824 805,-1830 799,-1836 793,-1836"/>
<text text-anchor="middle" x="739" y="-1815.5" font-family="sans" font-size="10.00">filter_fasta_for_oligomap</text>
</g>
<!-- 14&#45;&gt;24 -->
<g id="edge36" class="edge">
<title>14&#45;&gt;24</title>
<path fill="none" stroke="grey" stroke-width="2" d="M847.04,-1871.15C829.04,-1862.47 807.16,-1851.91 787.81,-1842.56"/>
<polygon fill="grey" stroke="grey" stroke-width="2" points="789.4,-1839.45 778.88,-1838.25 786.36,-1845.75 789.4,-1839.45"/>
</g>
<!-- 14&#45;&gt;30 -->
<g id="edge44" class="edge">
<title>14&#45;&gt;30</title>
<path fill="none" stroke="grey" stroke-width="2" d="M820.05,-1873.7C817.33,-1873.11 814.64,-1872.54 812,-1872 737.28,-1856.59 651.52,-1841.72 590.89,-1831.67"/>
<polygon fill="grey" stroke="grey" stroke-width="2" points="591.76,-1828.27 581.33,-1830.1 590.62,-1835.18 591.76,-1828.27"/>
</g>
<!-- 15 -->
<g id="node16" class="node">
<title>15</title>
<path fill="none" stroke="#56d89a" stroke-width="2" d="M921,-1980C921,-1980 847,-1980 847,-1980 841,-1980 835,-1974 835,-1968 835,-1968 835,-1956 835,-1956 835,-1950 841,-1944 847,-1944 847,-1944 921,-1944 921,-1944 927,-1944 933,-1950 933,-1956 933,-1956 933,-1968 933,-1968 933,-1974 927,-1980 921,-1980"/>
<text text-anchor="middle" x="884" y="-1959.5" font-family="sans" font-size="10.00">remove_adapters</text>
</g>
<!-- 15&#45;&gt;14 -->
<g id="edge26" class="edge">
<title>15&#45;&gt;14</title>
<path fill="none" stroke="grey" stroke-width="2" d="M884,-1943.34C884,-1936.75 884,-1929.08 884,-1921.67"/>
<polygon fill="grey" stroke="grey" stroke-width="2" points="887.5,-1921.93 884,-1911.93 880.5,-1921.93 887.5,-1921.93"/>
</g>
<!-- 16 -->
<g id="node17" class="node">
<title>16</title>
<path fill="none" stroke="#80d856" stroke-width="2" d="M910,-2052C910,-2052 858,-2052 858,-2052 852,-2052 846,-2046 846,-2040 846,-2040 846,-2028 846,-2028 846,-2022 852,-2016 858,-2016 858,-2016 910,-2016 910,-2016 916,-2016 922,-2022 922,-2028 922,-2028 922,-2040 922,-2040 922,-2046 916,-2052 910,-2052"/>
<text text-anchor="middle" x="884" y="-2031.5" font-family="sans" font-size="10.00">format_fasta</text>
</g>
<!-- 16&#45;&gt;15 -->
<g id="edge27" class="edge">
<title>16&#45;&gt;15</title>
<path fill="none" stroke="grey" stroke-width="2" d="M884,-2015.34C884,-2008.75 884,-2001.08 884,-1993.67"/>
<polygon fill="grey" stroke="grey" stroke-width="2" points="887.5,-1993.93 884,-1983.93 880.5,-1993.93 887.5,-1993.93"/>
</g>
<!-- 17 -->
<g id="node18" class="node">
<title>17</title>
<path fill="none" stroke="#d8b456" stroke-width="2" d="M899,-2124C899,-2124 869,-2124 869,-2124 863,-2124 857,-2118 857,-2112 857,-2112 857,-2100 857,-2100 857,-2094 863,-2088 869,-2088 869,-2088 899,-2088 899,-2088 905,-2088 911,-2094 911,-2100 911,-2100 911,-2112 911,-2112 911,-2118 905,-2124 899,-2124"/>
<text text-anchor="middle" x="884" y="-2103.5" font-family="sans" font-size="10.00">start</text>
</g>
<!-- 17&#45;&gt;16 -->
<g id="edge28" class="edge">
<title>17&#45;&gt;16</title>
<path fill="none" stroke="grey" stroke-width="2" d="M884,-2087.34C884,-2080.75 884,-2073.08 884,-2065.67"/>
<polygon fill="grey" stroke="grey" stroke-width="2" points="887.5,-2065.93 884,-2055.93 880.5,-2065.93 887.5,-2065.93"/>
</g>
<!-- 18 -->
<g id="node19" class="node">
<title>18</title>
<path fill="none" stroke="#d86656" stroke-width="2" d="M955,-1836C955,-1836 835,-1836 835,-1836 829,-1836 823,-1830 823,-1824 823,-1824 823,-1812 823,-1812 823,-1806 829,-1800 835,-1800 835,-1800 955,-1800 955,-1800 961,-1800 967,-1806 967,-1812 967,-1812 967,-1824 967,-1824 967,-1830 961,-1836 955,-1836"/>
<text text-anchor="middle" x="895" y="-1815.5" font-family="sans" font-size="10.00">trim_transcriptome_seq_ids</text>
</g>
<!-- 18&#45;&gt;13 -->
<g id="edge24" class="edge">
<title>18&#45;&gt;13</title>
<path fill="none" stroke="grey" stroke-width="2" d="M895.01,-1799.31C895.86,-1780.07 899.77,-1749.23 915,-1728 923.29,-1716.45 934.95,-1706.92 947.05,-1699.29"/>
<polygon fill="grey" stroke="grey" stroke-width="2" points="948.69,-1702.39 955.58,-1694.34 945.18,-1696.33 948.69,-1702.39"/>
</g>
<!-- 20 -->
<g id="node21" class="node">
<title>20</title>
<path fill="none" stroke="#d85656" stroke-width="2" d="M1120.5,-1764C1120.5,-1764 935.5,-1764 935.5,-1764 929.5,-1764 923.5,-1758 923.5,-1752 923.5,-1752 923.5,-1740 923.5,-1740 923.5,-1734 929.5,-1728 935.5,-1728 935.5,-1728 1120.5,-1728 1120.5,-1728 1126.5,-1728 1132.5,-1734 1132.5,-1740 1132.5,-1740 1132.5,-1752 1132.5,-1752 1132.5,-1758 1126.5,-1764 1120.5,-1764"/>
<text text-anchor="middle" x="1028" y="-1743.5" font-family="sans" font-size="10.00">generate_segemehl_index_transcriptome</text>
</g>
<!-- 18&#45;&gt;20 -->
<g id="edge31" class="edge">
<title>18&#45;&gt;20</title>
<path fill="none" stroke="grey" stroke-width="2" d="M928.91,-1799.15C945.24,-1790.56 965.07,-1780.12 982.68,-1770.85"/>
<polygon fill="grey" stroke="grey" stroke-width="2" points="984.26,-1773.98 991.48,-1766.22 981,-1767.78 984.26,-1773.98"/>
</g>
<!-- 23 -->
<g id="node24" class="node">
<title>23</title>
<path fill="none" stroke="#56d892" stroke-width="2" d="M855,-1764C855,-1764 725,-1764 725,-1764 719,-1764 713,-1758 713,-1752 713,-1752 713,-1740 713,-1740 713,-1734 719,-1728 725,-1728 725,-1728 855,-1728 855,-1728 861,-1728 867,-1734 867,-1740 867,-1740 867,-1752 867,-1752 867,-1758 861,-1764 855,-1764"/>
<text text-anchor="middle" x="790" y="-1743.5" font-family="sans" font-size="10.00">map_transcriptome_oligomap</text>
</g>
<!-- 18&#45;&gt;23 -->
<g id="edge35" class="edge">
<title>18&#45;&gt;23</title>
<path fill="none" stroke="grey" stroke-width="2" d="M868.23,-1799.15C855.77,-1790.84 840.73,-1780.82 827.18,-1771.79"/>
<polygon fill="grey" stroke="grey" stroke-width="2" points="829.5,-1769.13 819.24,-1766.49 825.62,-1774.95 829.5,-1769.13"/>
</g>
<!-- 19&#45;&gt;18 -->
<g id="edge29" class="edge">
<title>19&#45;&gt;18</title>
<path fill="none" stroke="grey" stroke-width="2" d="M772.81,-1871.15C793.55,-1862.3 818.84,-1851.51 841.03,-1842.04"/>
<polygon fill="grey" stroke="grey" stroke-width="2" points="842.38,-1845.27 850.2,-1838.12 839.63,-1838.83 842.38,-1845.27"/>
</g>
<!-- 20&#45;&gt;13 -->
<g id="edge23" class="edge">
<title>20&#45;&gt;13</title>
<path fill="none" stroke="grey" stroke-width="2" d="M1021.44,-1727.34C1018.93,-1720.59 1016,-1712.69 1013.18,-1705.11"/>
<polygon fill="grey" stroke="grey" stroke-width="2" points="1016.47,-1703.9 1009.7,-1695.74 1009.9,-1706.33 1016.47,-1703.9"/>
</g>
<!-- 21 -->
<g id="node22" class="node">
<title>21</title>
<path fill="none" stroke="#56a9d8" stroke-width="2" d="M947.5,-1620C947.5,-1620 764.5,-1620 764.5,-1620 758.5,-1620 752.5,-1614 752.5,-1608 752.5,-1608 752.5,-1596 752.5,-1596 752.5,-1590 758.5,-1584 764.5,-1584 764.5,-1584 947.5,-1584 947.5,-1584 953.5,-1584 959.5,-1590 959.5,-1596 959.5,-1596 959.5,-1608 959.5,-1608 959.5,-1614 953.5,-1620 947.5,-1620"/>
<text text-anchor="middle" x="856" y="-1599.5" font-family="sans" font-size="10.00">convert_transcriptome_to_sam_oligomap</text>
</g>
<!-- 21&#45;&gt;12 -->
<g id="edge22" class="edge">
<title>21&#45;&gt;12</title>
<path fill="none" stroke="grey" stroke-width="2" d="M859.28,-1583.34C860.5,-1576.75 861.93,-1569.08 863.3,-1561.67"/>
<polygon fill="grey" stroke="grey" stroke-width="2" points="866.74,-1562.35 865.12,-1551.88 859.86,-1561.07 866.74,-1562.35"/>
</g>
<!-- 22 -->
<g id="node23" class="node">
<title>22</title>
<path fill="none" stroke="#bed856" stroke-width="2" d="M880,-1692C880,-1692 752,-1692 752,-1692 746,-1692 740,-1686 740,-1680 740,-1680 740,-1668 740,-1668 740,-1662 746,-1656 752,-1656 752,-1656 880,-1656 880,-1656 886,-1656 892,-1662 892,-1668 892,-1668 892,-1680 892,-1680 892,-1686 886,-1692 880,-1692"/>
<text text-anchor="middle" x="816" y="-1671.5" font-family="sans" font-size="10.00">sort_transcriptome_oligomap</text>
</g>
<!-- 22&#45;&gt;21 -->
<g id="edge32" class="edge">
<title>22&#45;&gt;21</title>
<path fill="none" stroke="grey" stroke-width="2" d="M826.09,-1655.34C830.14,-1648.26 834.9,-1639.92 839.43,-1632"/>
<polygon fill="grey" stroke="grey" stroke-width="2" points="842.35,-1633.95 844.27,-1623.53 836.27,-1630.48 842.35,-1633.95"/>
</g>
<!-- 23&#45;&gt;22 -->
<g id="edge33" class="edge">
<title>23&#45;&gt;22</title>
<path fill="none" stroke="grey" stroke-width="2" d="M796.56,-1727.34C799.07,-1720.59 802,-1712.69 804.82,-1705.11"/>
<polygon fill="grey" stroke="grey" stroke-width="2" points="808.1,-1706.33 808.3,-1695.74 801.53,-1703.9 808.1,-1706.33"/>
</g>
<!-- 24&#45;&gt;23 -->
<g id="edge34" class="edge">
<title>24&#45;&gt;23</title>
<path fill="none" stroke="grey" stroke-width="2" d="M751.87,-1799.34C757.2,-1792.01 763.53,-1783.34 769.47,-1775.18"/>
<polygon fill="grey" stroke="grey" stroke-width="2" points="772.11,-1777.49 775.17,-1767.35 766.46,-1773.37 772.11,-1777.49"/>
</g>
<!-- 24&#45;&gt;34 -->
<g id="edge48" class="edge">
<title>24&#45;&gt;34</title>
<path fill="none" stroke="grey" stroke-width="2" d="M711.47,-1799.15C698.65,-1790.84 683.18,-1780.82 669.25,-1771.79"/>
<polygon fill="grey" stroke="grey" stroke-width="2" points="671.32,-1768.96 661.02,-1766.46 667.51,-1774.83 671.32,-1768.96"/>
</g>
<!-- 25 -->
<g id="node26" class="node">
<title>25</title>
<path fill="none" stroke="#568ad8" stroke-width="2" d="M733.5,-1404C733.5,-1404 618.5,-1404 618.5,-1404 612.5,-1404 606.5,-1398 606.5,-1392 606.5,-1392 606.5,-1380 606.5,-1380 606.5,-1374 612.5,-1368 618.5,-1368 618.5,-1368 733.5,-1368 733.5,-1368 739.5,-1368 745.5,-1374 745.5,-1380 745.5,-1380 745.5,-1392 745.5,-1392 745.5,-1398 739.5,-1404 733.5,-1404"/>
<text text-anchor="middle" x="676" y="-1383.5" font-family="sans" font-size="10.00">convert_exons_gtf_to_bed</text>
</g>
<!-- 25&#45;&gt;9 -->
<g id="edge17" class="edge">
<title>25&#45;&gt;9</title>
<path fill="none" stroke="grey" stroke-width="2" d="M695.43,-1367.34C704.03,-1359.52 714.32,-1350.16 723.81,-1341.53"/>
<polygon fill="grey" stroke="grey" stroke-width="2" points="726.02,-1344.25 731.07,-1334.94 721.31,-1339.07 726.02,-1344.25"/>
</g>
<!-- 26 -->
<g id="node27" class="node">
<title>26</title>
<path fill="none" stroke="#56d8c9" stroke-width="2" d="M705,-1476C705,-1476 647,-1476 647,-1476 641,-1476 635,-1470 635,-1464 635,-1464 635,-1452 635,-1452 635,-1446 641,-1440 647,-1440 647,-1440 705,-1440 705,-1440 711,-1440 717,-1446 717,-1452 717,-1452 717,-1464 717,-1464 717,-1470 711,-1476 705,-1476"/>
<text text-anchor="middle" x="676" y="-1455.5" font-family="sans" font-size="10.00">get_exons_gtf</text>
</g>
<!-- 26&#45;&gt;25 -->
<g id="edge37" class="edge">
<title>26&#45;&gt;25</title>
<path fill="none" stroke="grey" stroke-width="2" d="M676,-1439.34C676,-1432.75 676,-1425.08 676,-1417.67"/>
<polygon fill="grey" stroke="grey" stroke-width="2" points="679.5,-1417.93 676,-1407.93 672.5,-1417.93 679.5,-1417.93"/>
</g>
<!-- 27 -->
<g id="node28" class="node">
<title>27</title>
<path fill="none" stroke="#d86e56" stroke-width="2" d="M638,-1332C638,-1332 478,-1332 478,-1332 472,-1332 466,-1326 466,-1320 466,-1320 466,-1308 466,-1308 466,-1302 472,-1296 478,-1296 478,-1296 638,-1296 638,-1296 644,-1296 650,-1302 650,-1308 650,-1308 650,-1320 650,-1320 650,-1326 644,-1332 638,-1332"/>
<text text-anchor="middle" x="558" y="-1311.5" font-family="sans" font-size="10.00">remove_header_genome_mappings</text>
</g>
<!-- 27&#45;&gt;8 -->
<g id="edge15" class="edge">
<title>27&#45;&gt;8</title>
<path fill="none" stroke="grey" stroke-width="2" d="M558,-1295.34C558,-1288.75 558,-1281.08 558,-1273.67"/>
<polygon fill="grey" stroke="grey" stroke-width="2" points="561.5,-1273.93 558,-1263.93 554.5,-1273.93 561.5,-1273.93"/>
</g>
<!-- 28 -->
<g id="node29" class="node">
<title>28</title>
<path fill="none" stroke="#d8d356" stroke-width="2" d="M603.5,-1476C603.5,-1476 512.5,-1476 512.5,-1476 506.5,-1476 500.5,-1470 500.5,-1464 500.5,-1464 500.5,-1452 500.5,-1452 500.5,-1446 506.5,-1440 512.5,-1440 512.5,-1440 603.5,-1440 603.5,-1440 609.5,-1440 615.5,-1446 615.5,-1452 615.5,-1452 615.5,-1464 615.5,-1464 615.5,-1470 609.5,-1476 603.5,-1476"/>
<text text-anchor="middle" x="558" y="-1455.5" font-family="sans" font-size="10.00">filter_genome_by_nh</text>
</g>
<!-- 28&#45;&gt;27 -->
<g id="edge38" class="edge">
<title>28&#45;&gt;27</title>
<path fill="none" stroke="grey" stroke-width="2" d="M558,-1439.02C558,-1415.54 558,-1374.11 558,-1345.64"/>
<polygon fill="grey" stroke="grey" stroke-width="2" points="561.5,-1345.87 558,-1335.87 554.5,-1345.87 561.5,-1345.87"/>
</g>
<!-- 29 -->
<g id="node30" class="node">
<title>29</title>
<path fill="none" stroke="#56d863" stroke-width="2" d="M606,-1548C606,-1548 510,-1548 510,-1548 504,-1548 498,-1542 498,-1536 498,-1536 498,-1524 498,-1524 498,-1518 504,-1512 510,-1512 510,-1512 606,-1512 606,-1512 612,-1512 618,-1518 618,-1524 618,-1524 618,-1536 618,-1536 618,-1542 612,-1548 606,-1548"/>
<text text-anchor="middle" x="558" y="-1527.5" font-family="sans" font-size="10.00">merge_genome_maps</text>
</g>
<!-- 29&#45;&gt;28 -->
<g id="edge39" class="edge">
<title>29&#45;&gt;28</title>
<path fill="none" stroke="grey" stroke-width="2" d="M558,-1511.34C558,-1504.75 558,-1497.08 558,-1489.67"/>
<polygon fill="grey" stroke="grey" stroke-width="2" points="561.5,-1489.93 558,-1479.93 554.5,-1489.93 561.5,-1489.93"/>
</g>
<!-- 30&#45;&gt;29 -->
<g id="edge41" class="edge">
<title>30&#45;&gt;29</title>
<path fill="none" stroke="grey" stroke-width="2" d="M511.32,-1799.07C510.29,-1759.46 510.38,-1661.85 532,-1584 534.2,-1576.06 537.59,-1567.88 541.2,-1560.39"/>
<polygon fill="grey" stroke="grey" stroke-width="2" points="544.22,-1562.15 545.71,-1551.66 538.01,-1558.94 544.22,-1562.15"/>
</g>
<!-- 31&#45;&gt;30 -->
<g id="edge42" class="edge">
<title>31&#45;&gt;30</title>
<path fill="none" stroke="grey" stroke-width="2" d="M512,-1871.34C512,-1864.75 512,-1857.08 512,-1849.67"/>
<polygon fill="grey" stroke="grey" stroke-width="2" points="515.5,-1849.93 512,-1839.93 508.5,-1849.93 515.5,-1849.93"/>
</g>
<!-- 32 -->
<g id="node33" class="node">
<title>32</title>
<path fill="none" stroke="#8fd856" stroke-width="2" d="M709.5,-1620C709.5,-1620 552.5,-1620 552.5,-1620 546.5,-1620 540.5,-1614 540.5,-1608 540.5,-1608 540.5,-1596 540.5,-1596 540.5,-1590 546.5,-1584 552.5,-1584 552.5,-1584 709.5,-1584 709.5,-1584 715.5,-1584 721.5,-1590 721.5,-1596 721.5,-1596 721.5,-1608 721.5,-1608 721.5,-1614 715.5,-1620 709.5,-1620"/>
<text text-anchor="middle" x="631" y="-1599.5" font-family="sans" font-size="10.00">convert_genome_to_sam_oligomap</text>
</g>
<!-- 32&#45;&gt;29 -->
<g id="edge40" class="edge">
<title>32&#45;&gt;29</title>
<path fill="none" stroke="grey" stroke-width="2" d="M612.58,-1583.34C604.51,-1575.6 594.87,-1566.36 585.96,-1557.81"/>
<polygon fill="grey" stroke="grey" stroke-width="2" points="588.49,-1555.39 578.85,-1551 583.65,-1560.44 588.49,-1555.39"/>
</g>
<!-- 33 -->
<g id="node34" class="node">
<title>33</title>
<path fill="none" stroke="#d85e56" stroke-width="2" d="M682,-1692C682,-1692 580,-1692 580,-1692 574,-1692 568,-1686 568,-1680 568,-1680 568,-1668 568,-1668 568,-1662 574,-1656 580,-1656 580,-1656 682,-1656 682,-1656 688,-1656 694,-1662 694,-1668 694,-1668 694,-1680 694,-1680 694,-1686 688,-1692 682,-1692"/>
<text text-anchor="middle" x="631" y="-1671.5" font-family="sans" font-size="10.00">sort_genome_oligomap</text>
</g>
<!-- 33&#45;&gt;32 -->
<g id="edge46" class="edge">
<title>33&#45;&gt;32</title>
<path fill="none" stroke="grey" stroke-width="2" d="M631,-1655.34C631,-1648.75 631,-1641.08 631,-1633.67"/>
<polygon fill="grey" stroke="grey" stroke-width="2" points="634.5,-1633.93 631,-1623.93 627.5,-1633.93 634.5,-1633.93"/>
</g>
<!-- 34&#45;&gt;33 -->
<g id="edge47" class="edge">
<title>34&#45;&gt;33</title>
<path fill="none" stroke="grey" stroke-width="2" d="M631,-1727.34C631,-1720.75 631,-1713.08 631,-1705.67"/>
<polygon fill="grey" stroke="grey" stroke-width="2" points="634.5,-1705.93 631,-1695.93 627.5,-1705.93 634.5,-1705.93"/>
</g>
<!-- 35 -->
<g id="node36" class="node">
<title>35</title>
<path fill="none" stroke="#d89c56" stroke-width="2" d="M600,-756C600,-756 484,-756 484,-756 478,-756 472,-750 472,-744 472,-744 472,-732 472,-732 472,-726 478,-720 484,-720 484,-720 600,-720 600,-720 606,-720 612,-726 612,-732 612,-732 612,-744 612,-744 612,-750 606,-756 600,-756"/>
<text text-anchor="middle" x="542" y="-735.5" font-family="sans" font-size="10.00">intersect_extended_primir</text>
</g>
<!-- 35&#45;&gt;1 -->
<g id="edge8" class="edge">
<title>35&#45;&gt;1</title>
<path fill="none" stroke="grey" stroke-width="2" d="M482.81,-719.06C452.11,-709.76 414.38,-698.33 382.11,-688.55"/>
<polygon fill="grey" stroke="grey" stroke-width="2" points="383.52,-685.32 372.93,-685.77 381.49,-692.02 383.52,-685.32"/>
</g>
<!-- 50 -->
<g id="node51" class="node">
<title>50</title>
<path fill="none" stroke="#565bd8" stroke-width="2" d="M574,-612C574,-612 510,-612 510,-612 504,-612 498,-606 498,-600 498,-600 498,-588 498,-588 498,-582 504,-576 510,-576 510,-576 574,-576 574,-576 580,-576 586,-582 586,-588 586,-588 586,-600 586,-600 586,-606 580,-612 574,-612"/>
<text text-anchor="middle" x="542" y="-591.5" font-family="sans" font-size="10.00">quantify_primir</text>
</g>
<!-- 35&#45;&gt;50 -->
<g id="edge70" class="edge">
<title>35&#45;&gt;50</title>
<path fill="none" stroke="grey" stroke-width="2" d="M542,-719.02C542,-695.54 542,-654.11 542,-625.64"/>
<polygon fill="grey" stroke="grey" stroke-width="2" points="545.5,-625.87 542,-615.87 538.5,-625.87 545.5,-625.87"/>
</g>
<!-- 36 -->
<g id="node37" class="node">
<title>36</title>
<path fill="none" stroke="#5663d8" stroke-width="2" d="M652,-828C652,-828 522,-828 522,-828 516,-828 510,-822 510,-816 510,-816 510,-804 510,-804 510,-798 516,-792 522,-792 522,-792 652,-792 652,-792 658,-792 664,-798 664,-804 664,-804 664,-816 664,-816 664,-822 658,-828 652,-828"/>
<text text-anchor="middle" x="587" y="-807.5" font-family="sans" font-size="10.00">sort_all_alns_bam_by_position</text>
</g>
<!-- 36&#45;&gt;35 -->
<g id="edge51" class="edge">
<title>36&#45;&gt;35</title>
<path fill="none" stroke="grey" stroke-width="2" d="M575.64,-791.34C571.04,-784.18 565.61,-775.73 560.47,-767.73"/>
<polygon fill="grey" stroke="grey" stroke-width="2" points="563.5,-765.97 555.15,-759.45 557.61,-769.75 563.5,-765.97"/>
</g>
<!-- 37&#45;&gt;36 -->
<g id="edge52" class="edge">
<title>37&#45;&gt;36</title>
<path fill="none" stroke="grey" stroke-width="2" d="M578.78,-863.34C579.81,-856.75 581.02,-849.08 582.18,-841.67"/>
<polygon fill="grey" stroke="grey" stroke-width="2" points="585.62,-842.31 583.72,-831.89 578.71,-841.23 585.62,-842.31"/>
</g>
<!-- 38 -->
<g id="node39" class="node">
<title>38</title>
<path fill="none" stroke="#56d8a2" stroke-width="2" d="M479.5,-828C479.5,-828 370.5,-828 370.5,-828 364.5,-828 358.5,-822 358.5,-816 358.5,-816 358.5,-804 358.5,-804 358.5,-798 364.5,-792 370.5,-792 370.5,-792 479.5,-792 479.5,-792 485.5,-792 491.5,-798 491.5,-804 491.5,-804 491.5,-816 491.5,-816 491.5,-822 485.5,-828 479.5,-828"/>
<text text-anchor="middle" x="425" y="-807.5" font-family="sans" font-size="10.00">extend_mirs_annotations</text>
</g>
<!-- 38&#45;&gt;35 -->
<g id="edge50" class="edge">
<title>38&#45;&gt;35</title>
<path fill="none" stroke="grey" stroke-width="2" d="M454.83,-791.15C468.99,-782.68 486.14,-772.42 501.46,-763.25"/>
<polygon fill="grey" stroke="grey" stroke-width="2" points="502.85,-766.5 509.63,-758.37 499.25,-760.5 502.85,-766.5"/>
</g>
<!-- 43 -->
<g id="node44" class="node">
<title>43</title>
<path fill="none" stroke="#d87556" stroke-width="2" d="M413,-468C413,-468 299,-468 299,-468 293,-468 287,-462 287,-456 287,-456 287,-444 287,-444 287,-438 293,-432 299,-432 299,-432 413,-432 413,-432 419,-432 425,-438 425,-444 425,-444 425,-456 425,-456 425,-462 419,-468 413,-468"/>
<text text-anchor="middle" x="356" y="-447.5" font-family="sans" font-size="10.00">intersect_extended_mirna</text>
</g>
<!-- 38&#45;&gt;43 -->
<g id="edge60" class="edge">
<title>38&#45;&gt;43</title>
<path fill="none" stroke="grey" stroke-width="2" d="M428.94,-791.17C434.5,-764.36 444,-712.02 444,-667 444,-667 444,-667 444,-593 444,-552.55 446.59,-538.2 425,-504 418.3,-493.38 408.67,-484.07 398.73,-476.34"/>
<polygon fill="grey" stroke="grey" stroke-width="2" points="400.98,-473.64 390.82,-470.63 396.88,-479.32 400.98,-473.64"/>
</g>
<!-- 39 -->
<g id="node40" class="node">
<title>39</title>
<path fill="none" stroke="#56d873" stroke-width="2" d="M459,-900C459,-900 391,-900 391,-900 385,-900 379,-894 379,-888 379,-888 379,-876 379,-876 379,-870 385,-864 391,-864 391,-864 459,-864 459,-864 465,-864 471,-870 471,-876 471,-876 471,-888 471,-888 471,-894 465,-900 459,-900"/>
<text text-anchor="middle" x="425" y="-879.5" font-family="sans" font-size="10.00">map_chr_names</text>
</g>
<!-- 39&#45;&gt;38 -->
<g id="edge54" class="edge">
<title>39&#45;&gt;38</title>
<path fill="none" stroke="grey" stroke-width="2" d="M425,-863.34C425,-856.75 425,-849.08 425,-841.67"/>
<polygon fill="grey" stroke="grey" stroke-width="2" points="428.5,-841.93 425,-831.93 421.5,-841.93 428.5,-841.93"/>
</g>
<!-- 40 -->
<g id="node41" class="node">
<title>40</title>
<path fill="none" stroke="#56d88a" stroke-width="2" d="M323,-1188C323,-1188 261,-1188 261,-1188 255,-1188 249,-1182 249,-1176 249,-1176 249,-1164 249,-1164 249,-1158 255,-1152 261,-1152 261,-1152 323,-1152 323,-1152 329,-1152 335,-1158 335,-1164 335,-1164 335,-1176 335,-1176 335,-1182 329,-1188 323,-1188"/>
<text text-anchor="middle" x="292" y="-1167.5" font-family="sans" font-size="10.00">extract_chr_len</text>
</g>
<!-- 40&#45;&gt;38 -->
<g id="edge55" class="edge">
<title>40&#45;&gt;38</title>
<path fill="none" stroke="grey" stroke-width="2" d="M292,-1151.07C292,-1124.13 292,-1071.62 292,-1027 292,-1027 292,-1027 292,-953 292,-900.74 340.58,-859.78 379.03,-835.55"/>
<polygon fill="grey" stroke="grey" stroke-width="2" points="380.73,-838.61 387.47,-830.44 377.1,-832.62 380.73,-838.61"/>
</g>
<!-- 41&#45;&gt;40 -->
<g id="edge56" class="edge">
<title>41&#45;&gt;40</title>
<path fill="none" stroke="grey" stroke-width="2" d="M292,-1223.34C292,-1216.75 292,-1209.08 292,-1201.67"/>
<polygon fill="grey" stroke="grey" stroke-width="2" points="295.5,-1201.93 292,-1191.93 288.5,-1201.93 295.5,-1201.93"/>
</g>
<!-- 42&#45;&gt;0 -->
<g id="edge3" class="edge">
<title>42&#45;&gt;0</title>
<path fill="none" stroke="grey" stroke-width="2" d="M295.24,-359.08C297,-332.15 300,-279.66 300,-235 300,-235 300,-235 300,-161 300,-119.79 301.95,-102.28 274,-72 248.33,-44.18 206.49,-30.85 175.41,-24.53"/>
<polygon fill="grey" stroke="grey" stroke-width="2" points="176.27,-21.13 165.81,-22.77 175.02,-28.01 176.27,-21.13"/>
</g>
<!-- 49 -->
<g id="node50" class="node">
<title>49</title>
<path fill="none" stroke="#ced856" stroke-width="2" d="M467.5,-324C467.5,-324 346.5,-324 346.5,-324 340.5,-324 334.5,-318 334.5,-312 334.5,-312 334.5,-300 334.5,-300 334.5,-294 340.5,-288 346.5,-288 346.5,-288 467.5,-288 467.5,-288 473.5,-288 479.5,-294 479.5,-300 479.5,-300 479.5,-312 479.5,-312 479.5,-318 473.5,-324 467.5,-324"/>
<text text-anchor="middle" x="407" y="-303.5" font-family="sans" font-size="10.00">add_intersecting_mirna_tag</text>
</g>
<!-- 42&#45;&gt;49 -->
<g id="edge68" class="edge">
<title>42&#45;&gt;49</title>
<path fill="none" stroke="grey" stroke-width="2" d="M322.81,-359.15C336.35,-350.76 352.72,-340.62 367.41,-331.52"/>
<polygon fill="grey" stroke="grey" stroke-width="2" points="369.01,-334.65 375.67,-326.41 365.33,-328.7 369.01,-334.65"/>
</g>
<!-- 51 -->
<g id="node52" class="node">
<title>51</title>
<path fill="none" stroke="#5692d8" stroke-width="2" d="M204.5,-324C204.5,-324 133.5,-324 133.5,-324 127.5,-324 121.5,-318 121.5,-312 121.5,-312 121.5,-300 121.5,-300 121.5,-294 127.5,-288 133.5,-288 133.5,-288 204.5,-288 204.5,-288 210.5,-288 216.5,-294 216.5,-300 216.5,-300 216.5,-312 216.5,-312 216.5,-318 210.5,-324 204.5,-324"/>
<text text-anchor="middle" x="169" y="-303.5" font-family="sans" font-size="10.00">uncollapse_reads</text>
</g>
<!-- 42&#45;&gt;51 -->
<g id="edge71" class="edge">
<title>42&#45;&gt;51</title>
<path fill="none" stroke="grey" stroke-width="2" d="M262.13,-359.15C246.85,-350.6 228.33,-340.22 211.84,-330.99"/>
<polygon fill="grey" stroke="grey" stroke-width="2" points="213.88,-328.12 203.45,-326.29 210.46,-334.23 213.88,-328.12"/>
</g>
<!-- 43&#45;&gt;42 -->
<g id="edge58" class="edge">
<title>43&#45;&gt;42</title>
<path fill="none" stroke="grey" stroke-width="2" d="M340.35,-431.34C333.72,-423.85 325.84,-414.95 318.47,-406.63"/>
<polygon fill="grey" stroke="grey" stroke-width="2" points="321.11,-404.33 311.86,-399.17 315.87,-408.97 321.11,-404.33"/>
</g>
<!-- 43&#45;&gt;49 -->
<g id="edge69" class="edge">
<title>43&#45;&gt;49</title>
<path fill="none" stroke="grey" stroke-width="2" d="M368.84,-431.14C375.44,-421.22 383.1,-408.39 388,-396 395.42,-377.24 400.17,-355.06 403.06,-337.53"/>
<polygon fill="grey" stroke="grey" stroke-width="2" points="406.48,-338.3 404.51,-327.89 399.56,-337.26 406.48,-338.3"/>
</g>
<!-- 44 -->
<g id="node45" class="node">
<title>44</title>
<path fill="none" stroke="#56c1d8" stroke-width="2" d="M404,-540C404,-540 218,-540 218,-540 212,-540 206,-534 206,-528 206,-528 206,-516 206,-516 206,-510 212,-504 218,-504 218,-504 404,-504 404,-504 410,-504 416,-510 416,-516 416,-516 416,-528 416,-528 416,-534 410,-540 404,-540"/>
<text text-anchor="middle" x="311" y="-519.5" font-family="sans" font-size="10.00">sort_intersecting_primir_bam_by_position</text>
</g>
<!-- 44&#45;&gt;43 -->
<g id="edge61" class="edge">
<title>44&#45;&gt;43</title>
<path fill="none" stroke="grey" stroke-width="2" d="M322.36,-503.34C326.96,-496.18 332.39,-487.73 337.53,-479.73"/>
<polygon fill="grey" stroke="grey" stroke-width="2" points="340.39,-481.75 342.85,-471.45 334.5,-477.97 340.39,-481.75"/>
</g>
<!-- 45&#45;&gt;44 -->
<g id="edge62" class="edge">
<title>45&#45;&gt;44</title>
<path fill="none" stroke="grey" stroke-width="2" d="M311,-575.34C311,-568.75 311,-561.08 311,-553.67"/>
<polygon fill="grey" stroke="grey" stroke-width="2" points="314.5,-553.93 311,-543.93 307.5,-553.93 314.5,-553.93"/>
</g>
<!-- 46 -->
<g id="node47" class="node">
<title>46</title>
<path fill="none" stroke="#567bd8" stroke-width="2" d="M449,-108C449,-108 393,-108 393,-108 387,-108 381,-102 381,-96 381,-96 381,-84 381,-84 381,-78 387,-72 393,-72 393,-72 449,-72 449,-72 455,-72 461,-78 461,-84 461,-84 461,-96 461,-96 461,-102 455,-108 449,-108"/>
<text text-anchor="middle" x="421" y="-87.5" font-family="sans" font-size="10.00">merge_tables</text>
</g>
<!-- 46&#45;&gt;0 -->
<g id="edge5" class="edge">
<title>46&#45;&gt;0</title>
<path fill="none" stroke="grey" stroke-width="2" d="M380.02,-78.97C325.52,-65.63 229.74,-42.19 175.48,-28.91"/>
<polygon fill="grey" stroke="grey" stroke-width="2" points="176.44,-25.54 165.9,-26.56 174.78,-32.34 176.44,-25.54"/>
</g>
<!-- 47 -->
<g id="node48" class="node">
<title>47</title>
<path fill="none" stroke="#56b1d8" stroke-width="2" d="M452,-180C452,-180 390,-180 390,-180 384,-180 378,-174 378,-168 378,-168 378,-156 378,-156 378,-150 384,-144 390,-144 390,-144 452,-144 452,-144 458,-144 464,-150 464,-156 464,-156 464,-168 464,-168 464,-174 458,-180 452,-180"/>
<text text-anchor="middle" x="421" y="-159.5" font-family="sans" font-size="10.00">quantify_mirna</text>
</g>
<!-- 47&#45;&gt;46 -->
<g id="edge64" class="edge">
<title>47&#45;&gt;46</title>
<path fill="none" stroke="grey" stroke-width="2" d="M421,-143.34C421,-136.75 421,-129.08 421,-121.67"/>
<polygon fill="grey" stroke="grey" stroke-width="2" points="424.5,-121.93 421,-111.93 417.5,-121.93 424.5,-121.93"/>
</g>
<!-- 48 -->
<g id="node49" class="node">
<title>48</title>
<path fill="none" stroke="#56b9d8" stroke-width="2" d="M501.5,-252C501.5,-252 340.5,-252 340.5,-252 334.5,-252 328.5,-246 328.5,-240 328.5,-240 328.5,-228 328.5,-228 328.5,-222 334.5,-216 340.5,-216 340.5,-216 501.5,-216 501.5,-216 507.5,-216 513.5,-222 513.5,-228 513.5,-228 513.5,-240 513.5,-240 513.5,-246 507.5,-252 501.5,-252"/>
<text text-anchor="middle" x="421" y="-231.5" font-family="sans" font-size="10.00">sort_intersecting_mirna_by_feat_tag</text>
</g>
<!-- 48&#45;&gt;47 -->
<g id="edge66" class="edge">
<title>48&#45;&gt;47</title>
<path fill="none" stroke="grey" stroke-width="2" d="M421,-215.34C421,-208.75 421,-201.08 421,-193.67"/>
<polygon fill="grey" stroke="grey" stroke-width="2" points="424.5,-193.93 421,-183.93 417.5,-193.93 424.5,-193.93"/>
</g>
<!-- 49&#45;&gt;48 -->
<g id="edge67" class="edge">
<title>49&#45;&gt;48</title>
<path fill="none" stroke="grey" stroke-width="2" d="M410.53,-287.34C411.85,-280.75 413.38,-273.08 414.87,-265.67"/>
<polygon fill="grey" stroke="grey" stroke-width="2" points="418.3,-266.36 416.83,-255.87 411.43,-264.99 418.3,-266.36"/>
</g>
<!-- 50&#45;&gt;46 -->
<g id="edge65" class="edge">
<title>50&#45;&gt;46</title>
<path fill="none" stroke="grey" stroke-width="2" d="M542,-575.07C542,-548.13 542,-495.62 542,-451 542,-451 542,-451 542,-233 542,-182.51 497.14,-140.86 462.05,-116.01"/>
<polygon fill="grey" stroke="grey" stroke-width="2" points="464.27,-113.28 454.03,-110.54 460.33,-119.07 464.27,-113.28"/>
</g>
<!-- 51&#45;&gt;0 -->
<g id="edge4" class="edge">
<title>51&#45;&gt;0</title>
<path fill="none" stroke="grey" stroke-width="2" d="M120.58,-294.48C97.5,-286.79 71.94,-273.76 58,-252 15.35,-185.41 75.03,-92.89 111.07,-47.05"/>
<polygon fill="grey" stroke="grey" stroke-width="2" points="113.75,-49.3 117.31,-39.32 108.31,-44.9 113.75,-49.3"/>
</g>
<!-- 53 -->
<g id="node54" class="node">
<title>53</title>
<path fill="none" stroke="#d8c356" stroke-width="2" d="M259,-252C259,-252 79,-252 79,-252 73,-252 67,-246 67,-240 67,-240 67,-228 67,-228 67,-222 73,-216 79,-216 79,-216 259,-216 259,-216 265,-216 271,-222 271,-228 271,-228 271,-240 271,-240 271,-246 265,-252 259,-252"/>
<text text-anchor="middle" x="169" y="-231.5" font-family="sans" font-size="10.00">convert_uncollpased_reads_sam_to_bam</text>
</g>
<!-- 51&#45;&gt;53 -->
<g id="edge73" class="edge">
<title>51&#45;&gt;53</title>
<path fill="none" stroke="grey" stroke-width="2" d="M169,-287.34C169,-280.75 169,-273.08 169,-265.67"/>
<polygon fill="grey" stroke="grey" stroke-width="2" points="172.5,-265.93 169,-255.93 165.5,-265.93 172.5,-265.93"/>
</g>
<!-- 52 -->
<g id="node53" class="node">
<title>52</title>
<path fill="none" stroke="#d87d56" stroke-width="2" d="M260,-180C260,-180 78,-180 78,-180 72,-180 66,-174 66,-168 66,-168 66,-156 66,-156 66,-150 72,-144 78,-144 78,-144 260,-144 260,-144 266,-144 272,-150 272,-156 272,-156 272,-168 272,-168 272,-174 266,-180 260,-180"/>
<text text-anchor="middle" x="169" y="-159.5" font-family="sans" font-size="10.00">sort_uncollpased_reads_bam_by_position</text>
</g>
<!-- 52&#45;&gt;0 -->
<g id="edge1" class="edge">
<title>52&#45;&gt;0</title>
<path fill="none" stroke="grey" stroke-width="2" d="M134.57,-143.14C121.55,-134.44 108.16,-122.66 101,-108 91.37,-88.28 100.86,-65.09 112.23,-47.33"/>
<polygon fill="grey" stroke="grey" stroke-width="2" points="115,-49.47 117.87,-39.27 109.27,-45.46 115,-49.47"/>
</g>
<!-- 54 -->
<g id="node55" class="node">
<title>54</title>
<path fill="none" stroke="#9fd856" stroke-width="2" d="M253.5,-108C253.5,-108 122.5,-108 122.5,-108 116.5,-108 110.5,-102 110.5,-96 110.5,-96 110.5,-84 110.5,-84 110.5,-78 116.5,-72 122.5,-72 122.5,-72 253.5,-72 253.5,-72 259.5,-72 265.5,-78 265.5,-84 265.5,-84 265.5,-96 265.5,-96 265.5,-102 259.5,-108 253.5,-108"/>
<text text-anchor="middle" x="188" y="-87.5" font-family="sans" font-size="10.00">index_uncollapsed_reads_bam</text>
</g>
<!-- 52&#45;&gt;54 -->
<g id="edge74" class="edge">
<title>52&#45;&gt;54</title>
<path fill="none" stroke="grey" stroke-width="2" d="M173.79,-143.34C175.6,-136.67 177.72,-128.89 179.75,-121.39"/>
<polygon fill="grey" stroke="grey" stroke-width="2" points="183.11,-122.39 182.35,-111.82 176.35,-120.56 183.11,-122.39"/>
</g>
<!-- 53&#45;&gt;52 -->
<g id="edge72" class="edge">
<title>53&#45;&gt;52</title>
<path fill="none" stroke="grey" stroke-width="2" d="M169,-215.34C169,-208.75 169,-201.08 169,-193.67"/>
<polygon fill="grey" stroke="grey" stroke-width="2" points="172.5,-193.93 169,-183.93 165.5,-193.93 172.5,-193.93"/>
</g>
<!-- 54&#45;&gt;0 -->
<g id="edge2" class="edge">
<title>54&#45;&gt;0</title>
<path fill="none" stroke="grey" stroke-width="2" d="M174.63,-71.34C169.08,-64.01 162.51,-55.34 156.33,-47.18"/>
<polygon fill="grey" stroke="grey" stroke-width="2" points="159.21,-45.18 150.38,-39.32 153.63,-49.4 159.21,-45.18"/>
</g>
</g>
</svg>
