<?xml version="1.0" encoding="UTF-8" standalone="no"?>
<!DOCTYPE svg PUBLIC "-//W3C//DTD SVG 1.1//EN"
 "http://www.w3.org/Graphics/SVG/1.1/DTD/svg11.dtd">
<!-- Generated by graphviz version 7.1.0 (20230122.1345)
 -->
<!-- Title: snakemake_dag Pages: 1 -->
<svg width="982pt" height="2132pt"
 viewBox="0.00 0.00 982.00 2132.00" xmlns="http://www.w3.org/2000/svg" xmlns:xlink="http://www.w3.org/1999/xlink">
<g id="graph0" class="graph" transform="scale(1 1) rotate(0) translate(4 2128)">
<title>snakemake_dag</title>
<polygon fill="white" stroke="none" points="-4,4 -4,-2128 978,-2128 978,4 -4,4"/>
<!-- 0 -->
<g id="node1" class="node">
<title>0</title>
<path fill="none" stroke="#56d892" stroke-width="2" d="M667,-36C667,-36 637,-36 637,-36 631,-36 625,-30 625,-24 625,-24 625,-12 625,-12 625,-6 631,0 637,0 637,0 667,0 667,0 673,0 679,-6 679,-12 679,-12 679,-24 679,-24 679,-30 673,-36 667,-36"/>
<text text-anchor="middle" x="652" y="-15.5" font-family="sans" font-size="10.00">finish</text>
</g>
<!-- 1 -->
<g id="node2" class="node">
<title>1</title>
<path fill="none" stroke="#d86656" stroke-width="2" d="M637.5,-1764C637.5,-1764 452.5,-1764 452.5,-1764 446.5,-1764 440.5,-1758 440.5,-1752 440.5,-1752 440.5,-1740 440.5,-1740 440.5,-1734 446.5,-1728 452.5,-1728 452.5,-1728 637.5,-1728 637.5,-1728 643.5,-1728 649.5,-1734 649.5,-1740 649.5,-1740 649.5,-1752 649.5,-1752 649.5,-1758 643.5,-1764 637.5,-1764"/>
<text text-anchor="middle" x="545" y="-1743.5" font-family="sans" font-size="10.00">generate_segemehl_index_transcriptome</text>
</g>
<!-- 1&#45;&gt;0 -->
<g id="edge4" class="edge">
<title>1&#45;&gt;0</title>
<path fill="none" stroke="grey" stroke-width="2" d="M534.65,-1727.46C517.02,-1697.72 479.89,-1635.6 447,-1584 416,-1535.35 397.42,-1529.15 375,-1476 359.28,-1438.73 356,-1427.45 356,-1387 356,-1387 356,-1387 356,-161 356,-117.63 362.18,-99.14 396,-72 428.8,-45.68 548.26,-29.69 611.73,-22.87"/>
<polygon fill="grey" stroke="grey" stroke-width="2" points="611.78,-26.38 621.36,-21.87 611.05,-19.42 611.78,-26.38"/>
</g>
<!-- 25 -->
<g id="node26" class="node">
<title>25</title>
<path fill="none" stroke="#56d8d0" stroke-width="2" d="M733.5,-1692C733.5,-1692 580.5,-1692 580.5,-1692 574.5,-1692 568.5,-1686 568.5,-1680 568.5,-1680 568.5,-1668 568.5,-1668 568.5,-1662 574.5,-1656 580.5,-1656 580.5,-1656 733.5,-1656 733.5,-1656 739.5,-1656 745.5,-1662 745.5,-1668 745.5,-1668 745.5,-1680 745.5,-1680 745.5,-1686 739.5,-1692 733.5,-1692"/>
<text text-anchor="middle" x="657" y="-1671.5" font-family="sans" font-size="10.00">mapping_transcriptome_segemehl</text>
</g>
<!-- 1&#45;&gt;25 -->
<g id="edge41" class="edge">
<title>1&#45;&gt;25</title>
<path fill="none" stroke="grey" stroke-width="2" d="M573.55,-1727.15C586.98,-1718.76 603.21,-1708.62 617.76,-1699.52"/>
<polygon fill="grey" stroke="grey" stroke-width="2" points="619.31,-1702.68 625.93,-1694.42 615.6,-1696.75 619.31,-1702.68"/>
</g>
<!-- 2 -->
<g id="node3" class="node">
<title>2</title>
<path fill="none" stroke="#569ad8" stroke-width="2" d="M564.5,-1836C564.5,-1836 525.5,-1836 525.5,-1836 519.5,-1836 513.5,-1830 513.5,-1824 513.5,-1824 513.5,-1812 513.5,-1812 513.5,-1806 519.5,-1800 525.5,-1800 525.5,-1800 564.5,-1800 564.5,-1800 570.5,-1800 576.5,-1806 576.5,-1812 576.5,-1812 576.5,-1824 576.5,-1824 576.5,-1830 570.5,-1836 564.5,-1836"/>
<text text-anchor="middle" x="545" y="-1815.5" font-family="sans" font-size="10.00">trim_fasta</text>
</g>
<!-- 2&#45;&gt;1 -->
<g id="edge14" class="edge">
<title>2&#45;&gt;1</title>
<path fill="none" stroke="grey" stroke-width="2" d="M545,-1799.34C545,-1792.75 545,-1785.08 545,-1777.67"/>
<polygon fill="grey" stroke="grey" stroke-width="2" points="548.5,-1777.93 545,-1767.93 541.5,-1777.93 548.5,-1777.93"/>
</g>
<!-- 2&#45;&gt;25 -->
<g id="edge40" class="edge">
<title>2&#45;&gt;25</title>
<path fill="none" stroke="grey" stroke-width="2" d="M577.32,-1811.71C604.31,-1805.41 641.16,-1791.97 659,-1764 669.92,-1746.89 669.11,-1723.91 665.73,-1705.59"/>
<polygon fill="grey" stroke="grey" stroke-width="2" points="669.15,-1704.88 663.54,-1695.89 662.33,-1706.42 669.15,-1704.88"/>
</g>
<!-- 31 -->
<g id="node32" class="node">
<title>31</title>
<path fill="none" stroke="#56d88a" stroke-width="2" d="M410,-1764C410,-1764 260,-1764 260,-1764 254,-1764 248,-1758 248,-1752 248,-1752 248,-1740 248,-1740 248,-1734 254,-1728 260,-1728 260,-1728 410,-1728 410,-1728 416,-1728 422,-1734 422,-1740 422,-1740 422,-1752 422,-1752 422,-1758 416,-1764 410,-1764"/>
<text text-anchor="middle" x="335" y="-1743.5" font-family="sans" font-size="10.00">mapping_transcriptome_oligomap</text>
</g>
<!-- 2&#45;&gt;31 -->
<g id="edge48" class="edge">
<title>2&#45;&gt;31</title>
<path fill="none" stroke="grey" stroke-width="2" d="M512.65,-1806.22C482.98,-1796.33 438.14,-1781.38 400.93,-1768.98"/>
<polygon fill="grey" stroke="grey" stroke-width="2" points="402.1,-1765.68 391.51,-1765.84 399.89,-1772.32 402.1,-1765.68"/>
</g>
<!-- 3 -->
<g id="node4" class="node">
<title>3</title>
<path fill="none" stroke="#56d8c1" stroke-width="2" d="M604.5,-1908C604.5,-1908 485.5,-1908 485.5,-1908 479.5,-1908 473.5,-1902 473.5,-1896 473.5,-1896 473.5,-1884 473.5,-1884 473.5,-1878 479.5,-1872 485.5,-1872 485.5,-1872 604.5,-1872 604.5,-1872 610.5,-1872 616.5,-1878 616.5,-1884 616.5,-1884 616.5,-1896 616.5,-1896 616.5,-1902 610.5,-1908 604.5,-1908"/>
<text text-anchor="middle" x="545" y="-1887.5" font-family="sans" font-size="10.00">extract_transcriptome_seqs</text>
</g>
<!-- 3&#45;&gt;2 -->
<g id="edge15" class="edge">
<title>3&#45;&gt;2</title>
<path fill="none" stroke="grey" stroke-width="2" d="M545,-1871.34C545,-1864.75 545,-1857.08 545,-1849.67"/>
<polygon fill="grey" stroke="grey" stroke-width="2" points="548.5,-1849.93 545,-1839.93 541.5,-1849.93 548.5,-1849.93"/>
</g>
<!-- 4 -->
<g id="node5" class="node">
<title>4</title>
<path fill="none" stroke="#80d856" stroke-width="2" d="M386.5,-1980C386.5,-1980 297.5,-1980 297.5,-1980 291.5,-1980 285.5,-1974 285.5,-1968 285.5,-1968 285.5,-1956 285.5,-1956 285.5,-1950 291.5,-1944 297.5,-1944 297.5,-1944 386.5,-1944 386.5,-1944 392.5,-1944 398.5,-1950 398.5,-1956 398.5,-1956 398.5,-1968 398.5,-1968 398.5,-1974 392.5,-1980 386.5,-1980"/>
<text text-anchor="middle" x="342" y="-1959.5" font-family="sans" font-size="10.00">trim_genome_seq_id</text>
</g>
<!-- 4&#45;&gt;3 -->
<g id="edge16" class="edge">
<title>4&#45;&gt;3</title>
<path fill="none" stroke="grey" stroke-width="2" d="M394.01,-1943.06C420.52,-1933.93 452.98,-1922.73 481.01,-1913.07"/>
<polygon fill="grey" stroke="grey" stroke-width="2" points="481.95,-1916.44 490.26,-1909.88 479.66,-1909.83 481.95,-1916.44"/>
</g>
<!-- 5 -->
<g id="node6" class="node">
<title>5</title>
<path fill="none" stroke="#d89c56" stroke-width="2" d="M302,-1908C302,-1908 144,-1908 144,-1908 138,-1908 132,-1902 132,-1896 132,-1896 132,-1884 132,-1884 132,-1878 138,-1872 144,-1872 144,-1872 302,-1872 302,-1872 308,-1872 314,-1878 314,-1884 314,-1884 314,-1896 314,-1896 314,-1902 308,-1908 302,-1908"/>
<text text-anchor="middle" x="223" y="-1887.5" font-family="sans" font-size="10.00">generate_segemehl_index_genome</text>
</g>
<!-- 4&#45;&gt;5 -->
<g id="edge17" class="edge">
<title>4&#45;&gt;5</title>
<path fill="none" stroke="grey" stroke-width="2" d="M311.66,-1943.15C297.26,-1934.68 279.82,-1924.42 264.23,-1915.25"/>
<polygon fill="grey" stroke="grey" stroke-width="2" points="266.28,-1912.4 255.89,-1910.35 262.74,-1918.43 266.28,-1912.4"/>
</g>
<!-- 8 -->
<g id="node9" class="node">
<title>8</title>
<path fill="none" stroke="#565bd8" stroke-width="2" d="M918,-1260C918,-1260 814,-1260 814,-1260 808,-1260 802,-1254 802,-1248 802,-1248 802,-1236 802,-1236 802,-1230 808,-1224 814,-1224 814,-1224 918,-1224 918,-1224 924,-1224 930,-1230 930,-1236 930,-1236 930,-1248 930,-1248 930,-1254 924,-1260 918,-1260"/>
<text text-anchor="middle" x="866" y="-1239.5" font-family="sans" font-size="10.00">create_header_genome</text>
</g>
<!-- 4&#45;&gt;8 -->
<g id="edge19" class="edge">
<title>4&#45;&gt;8</title>
<path fill="none" stroke="grey" stroke-width="2" d="M399.48,-1945.63C402.35,-1945.04 405.2,-1944.49 408,-1944 491.55,-1929.38 716.7,-1953.95 788,-1908 826.32,-1883.3 839,-1864.59 839,-1819 839,-1819 839,-1819 839,-1385 839,-1345.79 849.06,-1301.54 856.9,-1273.02"/>
<polygon fill="grey" stroke="grey" stroke-width="2" points="860.19,-1274.21 859.57,-1263.64 853.46,-1272.29 860.19,-1274.21"/>
</g>
<!-- 10 -->
<g id="node11" class="node">
<title>10</title>
<path fill="none" stroke="#d8cb56" stroke-width="2" d="M877,-1188C877,-1188 799,-1188 799,-1188 793,-1188 787,-1182 787,-1176 787,-1176 787,-1164 787,-1164 787,-1158 793,-1152 799,-1152 799,-1152 877,-1152 877,-1152 883,-1152 889,-1158 889,-1164 889,-1164 889,-1176 889,-1176 889,-1182 883,-1188 877,-1188"/>
<text text-anchor="middle" x="838" y="-1167.5" font-family="sans" font-size="10.00">create_index_fasta</text>
</g>
<!-- 4&#45;&gt;10 -->
<g id="edge21" class="edge">
<title>4&#45;&gt;10</title>
<path fill="none" stroke="grey" stroke-width="2" d="M399.16,-1945.95C402.15,-1945.26 405.11,-1944.61 408,-1944 576.19,-1908.52 774,-1990.89 774,-1819 774,-1819 774,-1819 774,-1313 774,-1272.55 775.15,-1260.29 793,-1224 797.45,-1214.96 803.77,-1206.19 810.28,-1198.46"/>
<polygon fill="grey" stroke="grey" stroke-width="2" points="812.7,-1201.01 816.78,-1191.23 807.5,-1196.33 812.7,-1201.01"/>
</g>
<!-- 37 -->
<g id="node38" class="node">
<title>37</title>
<path fill="none" stroke="#56d873" stroke-width="2" d="M286.5,-1836C286.5,-1836 159.5,-1836 159.5,-1836 153.5,-1836 147.5,-1830 147.5,-1824 147.5,-1824 147.5,-1812 147.5,-1812 147.5,-1806 153.5,-1800 159.5,-1800 159.5,-1800 286.5,-1800 286.5,-1800 292.5,-1800 298.5,-1806 298.5,-1812 298.5,-1812 298.5,-1824 298.5,-1824 298.5,-1830 292.5,-1836 286.5,-1836"/>
<text text-anchor="middle" x="223" y="-1815.5" font-family="sans" font-size="10.00">mapping_genome_segemehl</text>
</g>
<!-- 4&#45;&gt;37 -->
<g id="edge57" class="edge">
<title>4&#45;&gt;37</title>
<path fill="none" stroke="grey" stroke-width="2" d="M342.46,-1943.14C342.06,-1923.76 338.71,-1892.8 323,-1872 313.89,-1859.93 301.22,-1850.33 287.95,-1842.81"/>
<polygon fill="grey" stroke="grey" stroke-width="2" points="289.9,-1839.88 279.42,-1838.36 286.67,-1846.08 289.9,-1839.88"/>
</g>
<!-- 39 -->
<g id="node40" class="node">
<title>39</title>
<path fill="none" stroke="#c6d856" stroke-width="2" d="M173,-1764C173,-1764 49,-1764 49,-1764 43,-1764 37,-1758 37,-1752 37,-1752 37,-1740 37,-1740 37,-1734 43,-1728 49,-1728 49,-1728 173,-1728 173,-1728 179,-1728 185,-1734 185,-1740 185,-1740 185,-1752 185,-1752 185,-1758 179,-1764 173,-1764"/>
<text text-anchor="middle" x="111" y="-1743.5" font-family="sans" font-size="10.00">mapping_genome_oligomap</text>
</g>
<!-- 4&#45;&gt;39 -->
<g id="edge61" class="edge">
<title>4&#45;&gt;39</title>
<path fill="none" stroke="grey" stroke-width="2" d="M284.73,-1954.76C227.03,-1947.19 143.66,-1932.34 123,-1908 92.28,-1871.81 96.95,-1813.04 103.64,-1777.4"/>
<polygon fill="grey" stroke="grey" stroke-width="2" points="107,-1778.44 105.61,-1767.94 100.14,-1777.01 107,-1778.44"/>
</g>
<!-- 5&#45;&gt;0 -->
<g id="edge8" class="edge">
<title>5&#45;&gt;0</title>
<path fill="none" stroke="grey" stroke-width="2" d="M138.38,-1871.06C75.29,-1852.15 0,-1815.27 0,-1747 0,-1747 0,-1747 0,-161 0,-35.16 469.52,-20.64 611.69,-19.13"/>
<polygon fill="grey" stroke="grey" stroke-width="2" points="611.4,-22.63 621.37,-19.04 611.34,-15.63 611.4,-22.63"/>
</g>
<!-- 5&#45;&gt;37 -->
<g id="edge56" class="edge">
<title>5&#45;&gt;37</title>
<path fill="none" stroke="grey" stroke-width="2" d="M223,-1871.34C223,-1864.75 223,-1857.08 223,-1849.67"/>
<polygon fill="grey" stroke="grey" stroke-width="2" points="226.5,-1849.93 223,-1839.93 219.5,-1849.93 226.5,-1849.93"/>
</g>
<!-- 6 -->
<g id="node7" class="node">
<title>6</title>
<path fill="none" stroke="#d85656" stroke-width="2" d="M442,-1404C442,-1404 408,-1404 408,-1404 402,-1404 396,-1398 396,-1392 396,-1392 396,-1380 396,-1380 396,-1374 402,-1368 408,-1368 408,-1368 442,-1368 442,-1368 448,-1368 454,-1374 454,-1380 454,-1380 454,-1392 454,-1392 454,-1398 448,-1404 442,-1404"/>
<text text-anchor="middle" x="425" y="-1383.5" font-family="sans" font-size="10.00">gtftobed</text>
</g>
<!-- 6&#45;&gt;0 -->
<g id="edge2" class="edge">
<title>6&#45;&gt;0</title>
<path fill="none" stroke="grey" stroke-width="2" d="M418.58,-1367.34C409.5,-1340.75 394,-1288.67 394,-1243 394,-1243 394,-1243 394,-161 394,-118.66 396.14,-99.89 428,-72 455,-48.36 554.37,-31.8 611.27,-24.03"/>
<polygon fill="grey" stroke="grey" stroke-width="2" points="611.63,-27.51 621.08,-22.73 610.71,-20.57 611.63,-27.51"/>
</g>
<!-- 21 -->
<g id="node22" class="node">
<title>21</title>
<path fill="none" stroke="#a7d856" stroke-width="2" d="M569.5,-1332C569.5,-1332 516.5,-1332 516.5,-1332 510.5,-1332 504.5,-1326 504.5,-1320 504.5,-1320 504.5,-1308 504.5,-1308 504.5,-1302 510.5,-1296 516.5,-1296 516.5,-1296 569.5,-1296 569.5,-1296 575.5,-1296 581.5,-1302 581.5,-1308 581.5,-1308 581.5,-1320 581.5,-1320 581.5,-1326 575.5,-1332 569.5,-1332"/>
<text text-anchor="middle" x="543" y="-1311.5" font-family="sans" font-size="10.00">trans_to_gen</text>
</g>
<!-- 6&#45;&gt;21 -->
<g id="edge35" class="edge">
<title>6&#45;&gt;21</title>
<path fill="none" stroke="grey" stroke-width="2" d="M454.78,-1367.34C469.06,-1358.86 486.4,-1348.57 501.92,-1339.37"/>
<polygon fill="grey" stroke="grey" stroke-width="2" points="503.4,-1342.56 510.22,-1334.45 499.83,-1336.54 503.4,-1342.56"/>
</g>
<!-- 7 -->
<g id="node8" class="node">
<title>7</title>
<path fill="none" stroke="#56d89a" stroke-width="2" d="M454,-1476C454,-1476 396,-1476 396,-1476 390,-1476 384,-1470 384,-1464 384,-1464 384,-1452 384,-1452 384,-1446 390,-1440 396,-1440 396,-1440 454,-1440 454,-1440 460,-1440 466,-1446 466,-1452 466,-1452 466,-1464 466,-1464 466,-1470 460,-1476 454,-1476"/>
<text text-anchor="middle" x="425" y="-1455.5" font-family="sans" font-size="10.00">get_exons_gtf</text>
</g>
<!-- 7&#45;&gt;6 -->
<g id="edge18" class="edge">
<title>7&#45;&gt;6</title>
<path fill="none" stroke="grey" stroke-width="2" d="M425,-1439.34C425,-1432.75 425,-1425.08 425,-1417.67"/>
<polygon fill="grey" stroke="grey" stroke-width="2" points="428.5,-1417.93 425,-1407.93 421.5,-1417.93 428.5,-1417.93"/>
</g>
<!-- 8&#45;&gt;0 -->
<g id="edge13" class="edge">
<title>8&#45;&gt;0</title>
<path fill="none" stroke="grey" stroke-width="2" d="M892.42,-1223.01C924.39,-1198.86 974,-1152.74 974,-1099 974,-1099 974,-1099 974,-161 974,-39.36 779.23,-21.03 692.65,-18.9"/>
<polygon fill="grey" stroke="grey" stroke-width="2" points="692.82,-15.4 682.76,-18.73 692.7,-22.4 692.82,-15.4"/>
</g>
<!-- 19 -->
<g id="node20" class="node">
<title>19</title>
<path fill="none" stroke="#56d87b" stroke-width="2" d="M693,-1188C693,-1188 645,-1188 645,-1188 639,-1188 633,-1182 633,-1176 633,-1176 633,-1164 633,-1164 633,-1158 639,-1152 645,-1152 645,-1152 693,-1152 693,-1152 699,-1152 705,-1158 705,-1164 705,-1164 705,-1176 705,-1176 705,-1182 699,-1188 693,-1188"/>
<text text-anchor="middle" x="669" y="-1167.5" font-family="sans" font-size="10.00">add_header</text>
</g>
<!-- 8&#45;&gt;19 -->
<g id="edge31" class="edge">
<title>8&#45;&gt;19</title>
<path fill="none" stroke="grey" stroke-width="2" d="M815.52,-1223.06C785.6,-1212.43 747.84,-1199.02 718.15,-1188.47"/>
<polygon fill="grey" stroke="grey" stroke-width="2" points="719.42,-1185.2 708.82,-1185.15 717.07,-1191.8 719.42,-1185.2"/>
</g>
<!-- 9 -->
<g id="node10" class="node">
<title>9</title>
<path fill="none" stroke="#56b1d8" stroke-width="2" d="M926,-900C926,-900 864,-900 864,-900 858,-900 852,-894 852,-888 852,-888 852,-876 852,-876 852,-870 858,-864 864,-864 864,-864 926,-864 926,-864 932,-864 938,-870 938,-876 938,-876 938,-888 938,-888 938,-894 932,-900 926,-900"/>
<text text-anchor="middle" x="895" y="-879.5" font-family="sans" font-size="10.00">extract_chr_len</text>
</g>
<!-- 9&#45;&gt;0 -->
<g id="edge3" class="edge">
<title>9&#45;&gt;0</title>
<path fill="none" stroke="grey" stroke-width="2" d="M903.7,-863.1C915.73,-836.63 936,-785.19 936,-739 936,-739 936,-739 936,-161 936,-53.39 770.87,-27.33 692.44,-21.02"/>
<polygon fill="grey" stroke="grey" stroke-width="2" points="692.99,-17.55 682.77,-20.32 692.49,-24.53 692.99,-17.55"/>
</g>
<!-- 11 -->
<g id="node12" class="node">
<title>11</title>
<path fill="none" stroke="#56c1d8" stroke-width="2" d="M888.5,-828C888.5,-828 779.5,-828 779.5,-828 773.5,-828 767.5,-822 767.5,-816 767.5,-816 767.5,-804 767.5,-804 767.5,-798 773.5,-792 779.5,-792 779.5,-792 888.5,-792 888.5,-792 894.5,-792 900.5,-798 900.5,-804 900.5,-804 900.5,-816 900.5,-816 900.5,-822 894.5,-828 888.5,-828"/>
<text text-anchor="middle" x="834" y="-807.5" font-family="sans" font-size="10.00">extend_mirs_annotations</text>
</g>
<!-- 9&#45;&gt;11 -->
<g id="edge23" class="edge">
<title>9&#45;&gt;11</title>
<path fill="none" stroke="grey" stroke-width="2" d="M879.61,-863.34C873.08,-855.85 865.33,-846.95 858.08,-838.63"/>
<polygon fill="grey" stroke="grey" stroke-width="2" points="860.8,-836.42 851.59,-831.18 855.52,-841.02 860.8,-836.42"/>
</g>
<!-- 10&#45;&gt;9 -->
<g id="edge20" class="edge">
<title>10&#45;&gt;9</title>
<path fill="none" stroke="grey" stroke-width="2" d="M841.57,-1151.11C851.06,-1103.46 877.05,-973.05 888.93,-913.45"/>
<polygon fill="grey" stroke="grey" stroke-width="2" points="892.32,-914.34 890.84,-903.85 885.46,-912.98 892.32,-914.34"/>
</g>
<!-- 11&#45;&gt;0 -->
<g id="edge1" class="edge">
<title>11&#45;&gt;0</title>
<path fill="none" stroke="grey" stroke-width="2" d="M847.89,-791.33C866.71,-765.54 898,-715.4 898,-667 898,-667 898,-667 898,-161 898,-67.19 762.15,-34.39 692.36,-23.73"/>
<polygon fill="grey" stroke="grey" stroke-width="2" points="693.13,-20.3 682.74,-22.36 692.15,-27.23 693.13,-20.3"/>
</g>
<!-- 42 -->
<g id="node43" class="node">
<title>42</title>
<path fill="none" stroke="#d8bc56" stroke-width="2" d="M736.5,-756C736.5,-756 617.5,-756 617.5,-756 611.5,-756 605.5,-750 605.5,-744 605.5,-744 605.5,-732 605.5,-732 605.5,-726 611.5,-720 617.5,-720 617.5,-720 736.5,-720 736.5,-720 742.5,-720 748.5,-726 748.5,-732 748.5,-732 748.5,-744 748.5,-744 748.5,-750 742.5,-756 736.5,-756"/>
<text text-anchor="middle" x="677" y="-735.5" font-family="sans" font-size="10.00">intersect_extended_premir</text>
</g>
<!-- 11&#45;&gt;42 -->
<g id="edge67" class="edge">
<title>11&#45;&gt;42</title>
<path fill="none" stroke="grey" stroke-width="2" d="M793.98,-791.15C774.21,-782.34 750.13,-771.61 728.96,-762.17"/>
<polygon fill="grey" stroke="grey" stroke-width="2" points="730.55,-759.04 719.99,-758.17 727.7,-765.44 730.55,-759.04"/>
</g>
<!-- 44 -->
<g id="node45" class="node">
<title>44</title>
<path fill="none" stroke="#68d856" stroke-width="2" d="M736,-468C736,-468 622,-468 622,-468 616,-468 610,-462 610,-456 610,-456 610,-444 610,-444 610,-438 616,-432 622,-432 622,-432 736,-432 736,-432 742,-432 748,-438 748,-444 748,-444 748,-456 748,-456 748,-462 742,-468 736,-468"/>
<text text-anchor="middle" x="679" y="-447.5" font-family="sans" font-size="10.00">intersect_extended_mirna</text>
</g>
<!-- 11&#45;&gt;44 -->
<g id="edge71" class="edge">
<title>11&#45;&gt;44</title>
<path fill="none" stroke="grey" stroke-width="2" d="M838.12,-791.14C848.79,-740.11 871.89,-591.68 803,-504 792.06,-490.08 776.76,-479.75 760.63,-472.12"/>
<polygon fill="grey" stroke="grey" stroke-width="2" points="762.14,-468.96 751.57,-468.22 759.37,-475.39 762.14,-468.96"/>
</g>
<!-- 12 -->
<g id="node13" class="node">
<title>12</title>
<path fill="none" stroke="#59d856" stroke-width="2" d="M822,-900C822,-900 754,-900 754,-900 748,-900 742,-894 742,-888 742,-888 742,-876 742,-876 742,-870 748,-864 754,-864 754,-864 822,-864 822,-864 828,-864 834,-870 834,-876 834,-876 834,-888 834,-888 834,-894 828,-900 822,-900"/>
<text text-anchor="middle" x="788" y="-879.5" font-family="sans" font-size="10.00">map_chr_names</text>
</g>
<!-- 12&#45;&gt;11 -->
<g id="edge22" class="edge">
<title>12&#45;&gt;11</title>
<path fill="none" stroke="grey" stroke-width="2" d="M799.61,-863.34C804.31,-856.18 809.87,-847.73 815.12,-839.73"/>
<polygon fill="grey" stroke="grey" stroke-width="2" points="818.01,-841.71 820.57,-831.43 812.16,-837.87 818.01,-841.71"/>
</g>
<!-- 13 -->
<g id="node14" class="node">
<title>13</title>
<path fill="none" stroke="#61d856" stroke-width="2" d="M794,-612C794,-612 752,-612 752,-612 746,-612 740,-606 740,-600 740,-600 740,-588 740,-588 740,-582 746,-576 752,-576 752,-576 794,-576 794,-576 800,-576 806,-582 806,-588 806,-588 806,-600 806,-600 806,-606 800,-612 794,-612"/>
<text text-anchor="middle" x="773" y="-591.5" font-family="sans" font-size="10.00">index_bam</text>
</g>
<!-- 13&#45;&gt;0 -->
<g id="edge9" class="edge">
<title>13&#45;&gt;0</title>
<path fill="none" stroke="grey" stroke-width="2" d="M792.74,-575.4C818.41,-550.47 860,-502.17 860,-451 860,-451 860,-451 860,-161 860,-114.96 842.75,-101 807,-72 773.76,-45.03 726.02,-31.45 692.33,-24.84"/>
<polygon fill="grey" stroke="grey" stroke-width="2" points="693.16,-21.44 682.7,-23.1 691.92,-28.33 693.16,-21.44"/>
</g>
<!-- 14 -->
<g id="node15" class="node">
<title>14</title>
<path fill="none" stroke="#8fd856" stroke-width="2" d="M711,-828C711,-828 643,-828 643,-828 637,-828 631,-822 631,-816 631,-816 631,-804 631,-804 631,-798 637,-792 643,-792 643,-792 711,-792 711,-792 717,-792 723,-798 723,-804 723,-804 723,-816 723,-816 723,-822 717,-828 711,-828"/>
<text text-anchor="middle" x="677" y="-807.5" font-family="sans" font-size="10.00">sort_by_position</text>
</g>
<!-- 14&#45;&gt;13 -->
<g id="edge24" class="edge">
<title>14&#45;&gt;13</title>
<path fill="none" stroke="grey" stroke-width="2" d="M718.8,-791.21C733.63,-782.75 748.9,-771.12 758,-756 782.06,-716.05 781.21,-660.16 777.65,-625.83"/>
<polygon fill="grey" stroke="grey" stroke-width="2" points="781.13,-625.48 776.45,-615.98 774.18,-626.33 781.13,-625.48"/>
</g>
<!-- 14&#45;&gt;42 -->
<g id="edge66" class="edge">
<title>14&#45;&gt;42</title>
<path fill="none" stroke="grey" stroke-width="2" d="M677,-791.34C677,-784.75 677,-777.08 677,-769.67"/>
<polygon fill="grey" stroke="grey" stroke-width="2" points="680.5,-769.93 677,-759.93 673.5,-769.93 680.5,-769.93"/>
</g>
<!-- 15 -->
<g id="node16" class="node">
<title>15</title>
<path fill="none" stroke="#d86e56" stroke-width="2" d="M708,-900C708,-900 640,-900 640,-900 634,-900 628,-894 628,-888 628,-888 628,-876 628,-876 628,-870 634,-864 640,-864 640,-864 708,-864 708,-864 714,-864 720,-870 720,-876 720,-876 720,-888 720,-888 720,-894 714,-900 708,-900"/>
<text text-anchor="middle" x="674" y="-879.5" font-family="sans" font-size="10.00">convert_to_bam</text>
</g>
<!-- 15&#45;&gt;14 -->
<g id="edge25" class="edge">
<title>15&#45;&gt;14</title>
<path fill="none" stroke="grey" stroke-width="2" d="M674.76,-863.34C675.04,-856.75 675.37,-849.08 675.69,-841.67"/>
<polygon fill="grey" stroke="grey" stroke-width="2" points="679.17,-842.07 676.1,-831.93 672.18,-841.77 679.17,-842.07"/>
</g>
<!-- 16 -->
<g id="node17" class="node">
<title>16</title>
<path fill="none" stroke="#56d863" stroke-width="2" d="M700,-972C700,-972 638,-972 638,-972 632,-972 626,-966 626,-960 626,-960 626,-948 626,-948 626,-942 632,-936 638,-936 638,-936 700,-936 700,-936 706,-936 712,-942 712,-948 712,-948 712,-960 712,-960 712,-966 706,-972 700,-972"/>
<text text-anchor="middle" x="669" y="-951.5" font-family="sans" font-size="10.00">filter_by_indels</text>
</g>
<!-- 16&#45;&gt;15 -->
<g id="edge26" class="edge">
<title>16&#45;&gt;15</title>
<path fill="none" stroke="grey" stroke-width="2" d="M670.26,-935.34C670.73,-928.75 671.28,-921.08 671.81,-913.67"/>
<polygon fill="grey" stroke="grey" stroke-width="2" points="675.28,-914.15 672.51,-903.92 668.3,-913.65 675.28,-914.15"/>
</g>
<!-- 41 -->
<g id="node42" class="node">
<title>41</title>
<path fill="none" stroke="#70d856" stroke-width="2" d="M640,-684C640,-684 514,-684 514,-684 508,-684 502,-678 502,-672 502,-672 502,-660 502,-660 502,-654 508,-648 514,-648 514,-648 640,-648 640,-648 646,-648 652,-654 652,-660 652,-660 652,-672 652,-672 652,-678 646,-684 640,-684"/>
<text text-anchor="middle" x="577" y="-663.5" font-family="sans" font-size="10.00">premir_intersection_sam_file</text>
</g>
<!-- 16&#45;&gt;41 -->
<g id="edge65" class="edge">
<title>16&#45;&gt;41</title>
<path fill="none" stroke="grey" stroke-width="2" d="M646.94,-935.02C636.87,-925.63 625.72,-913.33 619,-900 585.35,-833.32 578.31,-743.92 577.06,-697.64"/>
<polygon fill="grey" stroke="grey" stroke-width="2" points="580.56,-697.69 576.88,-687.76 573.56,-697.82 580.56,-697.69"/>
</g>
<!-- 17 -->
<g id="node18" class="node">
<title>17</title>
<path fill="none" stroke="#5682d8" stroke-width="2" d="M705.5,-1044C705.5,-1044 632.5,-1044 632.5,-1044 626.5,-1044 620.5,-1038 620.5,-1032 620.5,-1032 620.5,-1020 620.5,-1020 620.5,-1014 626.5,-1008 632.5,-1008 632.5,-1008 705.5,-1008 705.5,-1008 711.5,-1008 717.5,-1014 717.5,-1020 717.5,-1020 717.5,-1032 717.5,-1032 717.5,-1038 711.5,-1044 705.5,-1044"/>
<text text-anchor="middle" x="669" y="-1023.5" font-family="sans" font-size="10.00">remove_inferiors</text>
</g>
<!-- 17&#45;&gt;16 -->
<g id="edge27" class="edge">
<title>17&#45;&gt;16</title>
<path fill="none" stroke="grey" stroke-width="2" d="M669,-1007.34C669,-1000.75 669,-993.08 669,-985.67"/>
<polygon fill="grey" stroke="grey" stroke-width="2" points="672.5,-985.93 669,-975.93 665.5,-985.93 672.5,-985.93"/>
</g>
<!-- 18 -->
<g id="node19" class="node">
<title>18</title>
<path fill="none" stroke="#bed856" stroke-width="2" d="M684,-1116C684,-1116 654,-1116 654,-1116 648,-1116 642,-1110 642,-1104 642,-1104 642,-1092 642,-1092 642,-1086 648,-1080 654,-1080 654,-1080 684,-1080 684,-1080 690,-1080 696,-1086 696,-1092 696,-1092 696,-1104 696,-1104 696,-1110 690,-1116 684,-1116"/>
<text text-anchor="middle" x="669" y="-1095.5" font-family="sans" font-size="10.00">sort_id</text>
</g>
<!-- 18&#45;&gt;17 -->
<g id="edge28" class="edge">
<title>18&#45;&gt;17</title>
<path fill="none" stroke="grey" stroke-width="2" d="M669,-1079.34C669,-1072.75 669,-1065.08 669,-1057.67"/>
<polygon fill="grey" stroke="grey" stroke-width="2" points="672.5,-1057.93 669,-1047.93 665.5,-1057.93 672.5,-1057.93"/>
</g>
<!-- 19&#45;&gt;18 -->
<g id="edge29" class="edge">
<title>19&#45;&gt;18</title>
<path fill="none" stroke="grey" stroke-width="2" d="M669,-1151.34C669,-1144.75 669,-1137.08 669,-1129.67"/>
<polygon fill="grey" stroke="grey" stroke-width="2" points="672.5,-1129.93 669,-1119.93 665.5,-1129.93 672.5,-1129.93"/>
</g>
<!-- 20 -->
<g id="node21" class="node">
<title>20</title>
<path fill="none" stroke="#d8ac56" stroke-width="2" d="M694.5,-1260C694.5,-1260 643.5,-1260 643.5,-1260 637.5,-1260 631.5,-1254 631.5,-1248 631.5,-1248 631.5,-1236 631.5,-1236 631.5,-1230 637.5,-1224 643.5,-1224 643.5,-1224 694.5,-1224 694.5,-1224 700.5,-1224 706.5,-1230 706.5,-1236 706.5,-1236 706.5,-1248 706.5,-1248 706.5,-1254 700.5,-1260 694.5,-1260"/>
<text text-anchor="middle" x="669" y="-1239.5" font-family="sans" font-size="10.00">cat_mapping</text>
</g>
<!-- 20&#45;&gt;19 -->
<g id="edge30" class="edge">
<title>20&#45;&gt;19</title>
<path fill="none" stroke="grey" stroke-width="2" d="M669,-1223.34C669,-1216.75 669,-1209.08 669,-1201.67"/>
<polygon fill="grey" stroke="grey" stroke-width="2" points="672.5,-1201.93 669,-1191.93 665.5,-1201.93 672.5,-1201.93"/>
</g>
<!-- 21&#45;&gt;20 -->
<g id="edge33" class="edge">
<title>21&#45;&gt;20</title>
<path fill="none" stroke="grey" stroke-width="2" d="M575.12,-1295.15C590.52,-1286.6 609.2,-1276.22 625.82,-1266.99"/>
<polygon fill="grey" stroke="grey" stroke-width="2" points="627.25,-1270.2 634.29,-1262.28 623.85,-1264.08 627.25,-1270.2"/>
</g>
<!-- 22 -->
<g id="node23" class="node">
<title>22</title>
<path fill="none" stroke="#ced856" stroke-width="2" d="M625.5,-1404C625.5,-1404 484.5,-1404 484.5,-1404 478.5,-1404 472.5,-1398 472.5,-1392 472.5,-1392 472.5,-1380 472.5,-1380 472.5,-1374 478.5,-1368 484.5,-1368 484.5,-1368 625.5,-1368 625.5,-1368 631.5,-1368 637.5,-1374 637.5,-1380 637.5,-1380 637.5,-1392 637.5,-1392 637.5,-1398 631.5,-1404 625.5,-1404"/>
<text text-anchor="middle" x="555" y="-1383.5" font-family="sans" font-size="10.00">remove_headers_transcriptome</text>
</g>
<!-- 22&#45;&gt;21 -->
<g id="edge34" class="edge">
<title>22&#45;&gt;21</title>
<path fill="none" stroke="grey" stroke-width="2" d="M551.97,-1367.34C550.84,-1360.75 549.53,-1353.08 548.26,-1345.67"/>
<polygon fill="grey" stroke="grey" stroke-width="2" points="551.72,-1345.15 546.58,-1335.89 544.82,-1346.33 551.72,-1345.15"/>
</g>
<!-- 23 -->
<g id="node24" class="node">
<title>23</title>
<path fill="none" stroke="#56d8b1" stroke-width="2" d="M714.5,-1476C714.5,-1476 613.5,-1476 613.5,-1476 607.5,-1476 601.5,-1470 601.5,-1464 601.5,-1464 601.5,-1452 601.5,-1452 601.5,-1446 607.5,-1440 613.5,-1440 613.5,-1440 714.5,-1440 714.5,-1440 720.5,-1440 726.5,-1446 726.5,-1452 726.5,-1452 726.5,-1464 726.5,-1464 726.5,-1470 720.5,-1476 714.5,-1476"/>
<text text-anchor="middle" x="664" y="-1455.5" font-family="sans" font-size="10.00">filter_nh_transcriptome</text>
</g>
<!-- 23&#45;&gt;22 -->
<g id="edge36" class="edge">
<title>23&#45;&gt;22</title>
<path fill="none" stroke="grey" stroke-width="2" d="M636.21,-1439.15C623.27,-1430.84 607.66,-1420.82 593.6,-1411.79"/>
<polygon fill="grey" stroke="grey" stroke-width="2" points="595.59,-1408.91 585.28,-1406.45 591.81,-1414.8 595.59,-1408.91"/>
</g>
<!-- 24 -->
<g id="node25" class="node">
<title>24</title>
<path fill="none" stroke="#5673d8" stroke-width="2" d="M718,-1548C718,-1548 596,-1548 596,-1548 590,-1548 584,-1542 584,-1536 584,-1536 584,-1524 584,-1524 584,-1518 590,-1512 596,-1512 596,-1512 718,-1512 718,-1512 724,-1512 730,-1518 730,-1524 730,-1524 730,-1536 730,-1536 730,-1542 724,-1548 718,-1548"/>
<text text-anchor="middle" x="657" y="-1527.5" font-family="sans" font-size="10.00">merge_transcriptome_maps</text>
</g>
<!-- 24&#45;&gt;23 -->
<g id="edge37" class="edge">
<title>24&#45;&gt;23</title>
<path fill="none" stroke="grey" stroke-width="2" d="M658.77,-1511.34C659.42,-1504.75 660.19,-1497.08 660.93,-1489.67"/>
<polygon fill="grey" stroke="grey" stroke-width="2" points="664.4,-1490.21 661.91,-1479.91 657.43,-1489.52 664.4,-1490.21"/>
</g>
<!-- 25&#45;&gt;24 -->
<g id="edge39" class="edge">
<title>25&#45;&gt;24</title>
<path fill="none" stroke="grey" stroke-width="2" d="M657,-1655.02C657,-1631.54 657,-1590.11 657,-1561.64"/>
<polygon fill="grey" stroke="grey" stroke-width="2" points="660.5,-1561.87 657,-1551.87 653.5,-1561.87 660.5,-1561.87"/>
</g>
<!-- 26 -->
<g id="node27" class="node">
<title>26</title>
<path fill="none" stroke="#97d856" stroke-width="2" d="M443.5,-1908C443.5,-1908 382.5,-1908 382.5,-1908 376.5,-1908 370.5,-1902 370.5,-1896 370.5,-1896 370.5,-1884 370.5,-1884 370.5,-1878 376.5,-1872 382.5,-1872 382.5,-1872 443.5,-1872 443.5,-1872 449.5,-1872 455.5,-1878 455.5,-1884 455.5,-1884 455.5,-1896 455.5,-1896 455.5,-1902 449.5,-1908 443.5,-1908"/>
<text text-anchor="middle" x="413" y="-1887.5" font-family="sans" font-size="10.00">fastx_collapser</text>
</g>
<!-- 26&#45;&gt;25 -->
<g id="edge42" class="edge">
<title>26&#45;&gt;25</title>
<path fill="none" stroke="grey" stroke-width="2" d="M456.38,-1874.72C459.3,-1873.79 462.19,-1872.88 465,-1872 565.94,-1840.49 630.94,-1859.18 677,-1764 686.04,-1745.33 680.59,-1722.46 673.11,-1704.58"/>
<polygon fill="grey" stroke="grey" stroke-width="2" points="676.32,-1703.17 668.91,-1695.59 669.97,-1706.13 676.32,-1703.17"/>
</g>
<!-- 32 -->
<g id="node33" class="node">
<title>32</title>
<path fill="none" stroke="#d85e56" stroke-width="2" d="M437,-1836C437,-1836 329,-1836 329,-1836 323,-1836 317,-1830 317,-1824 317,-1824 317,-1812 317,-1812 317,-1806 323,-1800 329,-1800 329,-1800 437,-1800 437,-1800 443,-1800 449,-1806 449,-1812 449,-1812 449,-1824 449,-1824 449,-1830 443,-1836 437,-1836"/>
<text text-anchor="middle" x="383" y="-1815.5" font-family="sans" font-size="10.00">filter_fasta_for_oligomap</text>
</g>
<!-- 26&#45;&gt;32 -->
<g id="edge50" class="edge">
<title>26&#45;&gt;32</title>
<path fill="none" stroke="grey" stroke-width="2" d="M405.43,-1871.34C402.5,-1864.51 399.07,-1856.5 395.79,-1848.83"/>
<polygon fill="grey" stroke="grey" stroke-width="2" points="399.02,-1847.5 391.86,-1839.68 392.59,-1850.25 399.02,-1847.5"/>
</g>
<!-- 26&#45;&gt;37 -->
<g id="edge58" class="edge">
<title>26&#45;&gt;37</title>
<path fill="none" stroke="grey" stroke-width="2" d="M369.89,-1873.12C344.42,-1863.73 311.78,-1851.71 283.74,-1841.38"/>
<polygon fill="grey" stroke="grey" stroke-width="2" points="285.06,-1838.14 274.47,-1837.96 282.64,-1844.7 285.06,-1838.14"/>
</g>
<!-- 27 -->
<g id="node28" class="node">
<title>27</title>
<path fill="none" stroke="#d87556" stroke-width="2" d="M461.5,-1980C461.5,-1980 428.5,-1980 428.5,-1980 422.5,-1980 416.5,-1974 416.5,-1968 416.5,-1968 416.5,-1956 416.5,-1956 416.5,-1950 422.5,-1944 428.5,-1944 428.5,-1944 461.5,-1944 461.5,-1944 467.5,-1944 473.5,-1950 473.5,-1956 473.5,-1956 473.5,-1968 473.5,-1968 473.5,-1974 467.5,-1980 461.5,-1980"/>
<text text-anchor="middle" x="445" y="-1959.5" font-family="sans" font-size="10.00">cutadapt</text>
</g>
<!-- 27&#45;&gt;26 -->
<g id="edge43" class="edge">
<title>27&#45;&gt;26</title>
<path fill="none" stroke="grey" stroke-width="2" d="M436.93,-1943.34C433.77,-1936.43 430.06,-1928.31 426.51,-1920.56"/>
<polygon fill="grey" stroke="grey" stroke-width="2" points="429.78,-1919.29 422.44,-1911.65 423.42,-1922.2 429.78,-1919.29"/>
</g>
<!-- 28 -->
<g id="node29" class="node">
<title>28</title>
<path fill="none" stroke="#d88556" stroke-width="2" d="M478,-2052C478,-2052 412,-2052 412,-2052 406,-2052 400,-2046 400,-2040 400,-2040 400,-2028 400,-2028 400,-2022 406,-2016 412,-2016 412,-2016 478,-2016 478,-2016 484,-2016 490,-2022 490,-2028 490,-2028 490,-2040 490,-2040 490,-2046 484,-2052 478,-2052"/>
<text text-anchor="middle" x="445" y="-2031.5" font-family="sans" font-size="10.00">fasta_formatter</text>
</g>
<!-- 28&#45;&gt;27 -->
<g id="edge44" class="edge">
<title>28&#45;&gt;27</title>
<path fill="none" stroke="grey" stroke-width="2" d="M445,-2015.34C445,-2008.75 445,-2001.08 445,-1993.67"/>
<polygon fill="grey" stroke="grey" stroke-width="2" points="448.5,-1993.93 445,-1983.93 441.5,-1993.93 448.5,-1993.93"/>
</g>
<!-- 29 -->
<g id="node30" class="node">
<title>29</title>
<path fill="none" stroke="#56b9d8" stroke-width="2" d="M460,-2124C460,-2124 430,-2124 430,-2124 424,-2124 418,-2118 418,-2112 418,-2112 418,-2100 418,-2100 418,-2094 424,-2088 430,-2088 430,-2088 460,-2088 460,-2088 466,-2088 472,-2094 472,-2100 472,-2100 472,-2112 472,-2112 472,-2118 466,-2124 460,-2124"/>
<text text-anchor="middle" x="445" y="-2103.5" font-family="sans" font-size="10.00">start</text>
</g>
<!-- 29&#45;&gt;28 -->
<g id="edge45" class="edge">
<title>29&#45;&gt;28</title>
<path fill="none" stroke="grey" stroke-width="2" d="M445,-2087.34C445,-2080.75 445,-2073.08 445,-2065.67"/>
<polygon fill="grey" stroke="grey" stroke-width="2" points="448.5,-2065.93 445,-2055.93 441.5,-2065.93 448.5,-2065.93"/>
</g>
<!-- 30 -->
<g id="node31" class="node">
<title>30</title>
<path fill="none" stroke="#d8a456" stroke-width="2" d="M426,-1620C426,-1620 286,-1620 286,-1620 280,-1620 274,-1614 274,-1608 274,-1608 274,-1596 274,-1596 274,-1590 280,-1584 286,-1584 286,-1584 426,-1584 426,-1584 432,-1584 438,-1590 438,-1596 438,-1596 438,-1608 438,-1608 438,-1614 432,-1620 426,-1620"/>
<text text-anchor="middle" x="356" y="-1599.5" font-family="sans" font-size="10.00">oligomap_transcriptome_toSAM</text>
</g>
<!-- 30&#45;&gt;24 -->
<g id="edge38" class="edge">
<title>30&#45;&gt;24</title>
<path fill="none" stroke="grey" stroke-width="2" d="M433.12,-1583.06C475.14,-1573.29 527.25,-1561.18 570.62,-1551.09"/>
<polygon fill="grey" stroke="grey" stroke-width="2" points="571.29,-1554.52 580.24,-1548.85 569.71,-1547.71 571.29,-1554.52"/>
</g>
<!-- 31&#45;&gt;30 -->
<g id="edge46" class="edge">
<title>31&#45;&gt;30</title>
<path fill="none" stroke="grey" stroke-width="2" d="M306.75,-1727.07C295.25,-1718.08 283.22,-1706.1 277,-1692 270.55,-1677.36 269.47,-1670.12 277,-1656 283.06,-1644.63 292.76,-1635.27 303.32,-1627.75"/>
<polygon fill="grey" stroke="grey" stroke-width="2" points="305.01,-1630.83 311.52,-1622.47 301.22,-1624.94 305.01,-1630.83"/>
</g>
<!-- 33 -->
<g id="node34" class="node">
<title>33</title>
<path fill="none" stroke="#56d8a9" stroke-width="2" d="M426,-1692C426,-1692 298,-1692 298,-1692 292,-1692 286,-1686 286,-1680 286,-1680 286,-1668 286,-1668 286,-1662 292,-1656 298,-1656 298,-1656 426,-1656 426,-1656 432,-1656 438,-1662 438,-1668 438,-1668 438,-1680 438,-1680 438,-1686 432,-1692 426,-1692"/>
<text text-anchor="middle" x="362" y="-1671.5" font-family="sans" font-size="10.00">sort_transcriptome_oligomap</text>
</g>
<!-- 31&#45;&gt;33 -->
<g id="edge51" class="edge">
<title>31&#45;&gt;33</title>
<path fill="none" stroke="grey" stroke-width="2" d="M341.81,-1727.34C344.45,-1720.51 347.54,-1712.5 350.49,-1704.83"/>
<polygon fill="grey" stroke="grey" stroke-width="2" points="353.67,-1706.32 354.01,-1695.73 347.14,-1703.8 353.67,-1706.32"/>
</g>
<!-- 32&#45;&gt;31 -->
<g id="edge49" class="edge">
<title>32&#45;&gt;31</title>
<path fill="none" stroke="grey" stroke-width="2" d="M370.89,-1799.34C365.92,-1792.1 360.05,-1783.53 354.51,-1775.45"/>
<polygon fill="grey" stroke="grey" stroke-width="2" points="357.53,-1773.67 348.99,-1767.4 351.76,-1777.62 357.53,-1773.67"/>
</g>
<!-- 32&#45;&gt;39 -->
<g id="edge62" class="edge">
<title>32&#45;&gt;39</title>
<path fill="none" stroke="grey" stroke-width="2" d="M316.11,-1799.79C278.93,-1790.22 232.35,-1778.23 192.98,-1768.1"/>
<polygon fill="grey" stroke="grey" stroke-width="2" points="193.96,-1764.74 183.41,-1765.63 192.22,-1771.52 193.96,-1764.74"/>
</g>
<!-- 33&#45;&gt;30 -->
<g id="edge47" class="edge">
<title>33&#45;&gt;30</title>
<path fill="none" stroke="grey" stroke-width="2" d="M360.49,-1655.34C359.92,-1648.75 359.26,-1641.08 358.63,-1633.67"/>
<polygon fill="grey" stroke="grey" stroke-width="2" points="362.13,-1633.58 357.79,-1623.92 355.16,-1634.18 362.13,-1633.58"/>
</g>
<!-- 34 -->
<g id="node35" class="node">
<title>34</title>
<path fill="none" stroke="#56c9d8" stroke-width="2" d="M726.5,-1332C726.5,-1332 611.5,-1332 611.5,-1332 605.5,-1332 599.5,-1326 599.5,-1320 599.5,-1320 599.5,-1308 599.5,-1308 599.5,-1302 605.5,-1296 611.5,-1296 611.5,-1296 726.5,-1296 726.5,-1296 732.5,-1296 738.5,-1302 738.5,-1308 738.5,-1308 738.5,-1320 738.5,-1320 738.5,-1326 732.5,-1332 726.5,-1332"/>
<text text-anchor="middle" x="669" y="-1311.5" font-family="sans" font-size="10.00">remove_headers_genome</text>
</g>
<!-- 34&#45;&gt;20 -->
<g id="edge32" class="edge">
<title>34&#45;&gt;20</title>
<path fill="none" stroke="grey" stroke-width="2" d="M669,-1295.34C669,-1288.75 669,-1281.08 669,-1273.67"/>
<polygon fill="grey" stroke="grey" stroke-width="2" points="672.5,-1273.93 669,-1263.93 665.5,-1273.93 672.5,-1273.93"/>
</g>
<!-- 35 -->
<g id="node36" class="node">
<title>35</title>
<path fill="none" stroke="#56d0d8" stroke-width="2" d="M571.5,-1476C571.5,-1476 496.5,-1476 496.5,-1476 490.5,-1476 484.5,-1470 484.5,-1464 484.5,-1464 484.5,-1452 484.5,-1452 484.5,-1446 490.5,-1440 496.5,-1440 496.5,-1440 571.5,-1440 571.5,-1440 577.5,-1440 583.5,-1446 583.5,-1452 583.5,-1452 583.5,-1464 583.5,-1464 583.5,-1470 577.5,-1476 571.5,-1476"/>
<text text-anchor="middle" x="534" y="-1455.5" font-family="sans" font-size="10.00">nh_filter_genome</text>
</g>
<!-- 35&#45;&gt;34 -->
<g id="edge52" class="edge">
<title>35&#45;&gt;34</title>
<path fill="none" stroke="grey" stroke-width="2" d="M582.68,-1439.03C609.06,-1428.38 638.06,-1414.89 647,-1404 660.42,-1387.65 665.84,-1364.28 667.94,-1345.59"/>
<polygon fill="grey" stroke="grey" stroke-width="2" points="671.42,-1345.96 668.73,-1335.71 664.45,-1345.4 671.42,-1345.96"/>
</g>
<!-- 36 -->
<g id="node37" class="node">
<title>36</title>
<path fill="none" stroke="#78d856" stroke-width="2" d="M268,-1548C268,-1548 172,-1548 172,-1548 166,-1548 160,-1542 160,-1536 160,-1536 160,-1524 160,-1524 160,-1518 166,-1512 172,-1512 172,-1512 268,-1512 268,-1512 274,-1512 280,-1518 280,-1524 280,-1524 280,-1536 280,-1536 280,-1542 274,-1548 268,-1548"/>
<text text-anchor="middle" x="220" y="-1527.5" font-family="sans" font-size="10.00">merge_genome_maps</text>
</g>
<!-- 36&#45;&gt;35 -->
<g id="edge53" class="edge">
<title>36&#45;&gt;35</title>
<path fill="none" stroke="grey" stroke-width="2" d="M280.83,-1517.7C329.84,-1508.29 400.77,-1494 471.3,-1476.82"/>
<polygon fill="grey" stroke="grey" stroke-width="2" points="471.72,-1480.32 480.6,-1474.54 470.05,-1473.53 471.72,-1480.32"/>
</g>
<!-- 37&#45;&gt;36 -->
<g id="edge54" class="edge">
<title>37&#45;&gt;36</title>
<path fill="none" stroke="grey" stroke-width="2" d="M222.81,-1799.11C222.31,-1751.56 220.95,-1621.6 220.32,-1561.83"/>
<polygon fill="grey" stroke="grey" stroke-width="2" points="223.82,-1561.87 220.22,-1551.91 216.82,-1561.95 223.82,-1561.87"/>
</g>
<!-- 38 -->
<g id="node39" class="node">
<title>38</title>
<path fill="none" stroke="#5692d8" stroke-width="2" d="M180,-1620C180,-1620 66,-1620 66,-1620 60,-1620 54,-1614 54,-1608 54,-1608 54,-1596 54,-1596 54,-1590 60,-1584 66,-1584 66,-1584 180,-1584 180,-1584 186,-1584 192,-1590 192,-1596 192,-1596 192,-1608 192,-1608 192,-1614 186,-1620 180,-1620"/>
<text text-anchor="middle" x="123" y="-1599.5" font-family="sans" font-size="10.00">oligomap_genome_toSAM</text>
</g>
<!-- 38&#45;&gt;36 -->
<g id="edge55" class="edge">
<title>38&#45;&gt;36</title>
<path fill="none" stroke="grey" stroke-width="2" d="M147.73,-1583.15C159.02,-1575.01 172.59,-1565.22 184.9,-1556.33"/>
<polygon fill="grey" stroke="grey" stroke-width="2" points="186.8,-1559.27 192.86,-1550.58 182.71,-1553.6 186.8,-1559.27"/>
</g>
<!-- 39&#45;&gt;38 -->
<g id="edge59" class="edge">
<title>39&#45;&gt;38</title>
<path fill="none" stroke="grey" stroke-width="2" d="M135.57,-1727.2C146.14,-1718.02 157.34,-1705.84 163,-1692 169.05,-1677.19 168.08,-1671.17 163,-1656 160.01,-1647.08 154.87,-1638.47 149.25,-1630.87"/>
<polygon fill="grey" stroke="grey" stroke-width="2" points="152.07,-1628.8 143.06,-1623.23 146.63,-1633.2 152.07,-1628.8"/>
</g>
<!-- 40 -->
<g id="node41" class="node">
<title>40</title>
<path fill="none" stroke="#56d8a2" stroke-width="2" d="M142,-1692C142,-1692 40,-1692 40,-1692 34,-1692 28,-1686 28,-1680 28,-1680 28,-1668 28,-1668 28,-1662 34,-1656 40,-1656 40,-1656 142,-1656 142,-1656 148,-1656 154,-1662 154,-1668 154,-1668 154,-1680 154,-1680 154,-1686 148,-1692 142,-1692"/>
<text text-anchor="middle" x="91" y="-1671.5" font-family="sans" font-size="10.00">sort_genome_oligomap</text>
</g>
<!-- 39&#45;&gt;40 -->
<g id="edge63" class="edge">
<title>39&#45;&gt;40</title>
<path fill="none" stroke="grey" stroke-width="2" d="M105.95,-1727.34C104.05,-1720.67 101.82,-1712.89 99.68,-1705.39"/>
<polygon fill="grey" stroke="grey" stroke-width="2" points="103.06,-1704.47 96.95,-1695.81 96.33,-1706.39 103.06,-1704.47"/>
</g>
<!-- 40&#45;&gt;38 -->
<g id="edge60" class="edge">
<title>40&#45;&gt;38</title>
<path fill="none" stroke="grey" stroke-width="2" d="M99.07,-1655.34C102.23,-1648.43 105.94,-1640.31 109.49,-1632.56"/>
<polygon fill="grey" stroke="grey" stroke-width="2" points="112.58,-1634.2 113.56,-1623.65 106.22,-1631.29 112.58,-1634.2"/>
</g>
<!-- 41&#45;&gt;0 -->
<g id="edge6" class="edge">
<title>41&#45;&gt;0</title>
<path fill="none" stroke="grey" stroke-width="2" d="M522.92,-647.1C504.27,-638.79 484.45,-627.29 470,-612 440.46,-580.74 432,-566.01 432,-523 432,-523 432,-523 432,-161 432,-120.46 423.88,-101.21 452,-72 473.83,-49.33 559.49,-32.86 611.37,-24.73"/>
<polygon fill="grey" stroke="grey" stroke-width="2" points="611.73,-28.21 621.09,-23.25 610.68,-21.29 611.73,-28.21"/>
</g>
<!-- 43 -->
<g id="node44" class="node">
<title>43</title>
<path fill="none" stroke="#d6d856" stroke-width="2" d="M693,-396C693,-396 571,-396 571,-396 565,-396 559,-390 559,-384 559,-384 559,-372 559,-372 559,-366 565,-360 571,-360 571,-360 693,-360 693,-360 699,-360 705,-366 705,-372 705,-372 705,-384 705,-384 705,-390 699,-396 693,-396"/>
<text text-anchor="middle" x="632" y="-375.5" font-family="sans" font-size="10.00">mirna_intersection_sam_file</text>
</g>
<!-- 41&#45;&gt;43 -->
<g id="edge69" class="edge">
<title>41&#45;&gt;43</title>
<path fill="none" stroke="grey" stroke-width="2" d="M529.22,-647.05C513.96,-638.81 498.77,-627.36 490,-612 466.2,-570.31 469.15,-547.71 489,-504 509.03,-459.9 553.15,-425.25 587.13,-403.73"/>
<polygon fill="grey" stroke="grey" stroke-width="2" points="588.93,-406.73 595.63,-398.52 585.28,-400.76 588.93,-406.73"/>
</g>
<!-- 46 -->
<g id="node47" class="node">
<title>46</title>
<path fill="none" stroke="#568ad8" stroke-width="2" d="M671.5,-612C671.5,-612 510.5,-612 510.5,-612 504.5,-612 498.5,-606 498.5,-600 498.5,-600 498.5,-588 498.5,-588 498.5,-582 504.5,-576 510.5,-576 510.5,-576 671.5,-576 671.5,-576 677.5,-576 683.5,-582 683.5,-588 683.5,-588 683.5,-600 683.5,-600 683.5,-606 677.5,-612 671.5,-612"/>
<text text-anchor="middle" x="591" y="-591.5" font-family="sans" font-size="10.00">convert_intersected_premir_to_bam</text>
</g>
<!-- 41&#45;&gt;46 -->
<g id="edge73" class="edge">
<title>41&#45;&gt;46</title>
<path fill="none" stroke="grey" stroke-width="2" d="M580.53,-647.34C581.85,-640.75 583.38,-633.08 584.87,-625.67"/>
<polygon fill="grey" stroke="grey" stroke-width="2" points="588.3,-626.36 586.83,-615.87 581.43,-624.99 588.3,-626.36"/>
</g>
<!-- 42&#45;&gt;41 -->
<g id="edge64" class="edge">
<title>42&#45;&gt;41</title>
<path fill="none" stroke="grey" stroke-width="2" d="M651.51,-719.15C639.75,-710.93 625.6,-701.02 612.8,-692.06"/>
<polygon fill="grey" stroke="grey" stroke-width="2" points="615.13,-689.42 604.93,-686.55 611.11,-695.15 615.13,-689.42"/>
</g>
<!-- 51 -->
<g id="node52" class="node">
<title>51</title>
<path fill="none" stroke="#5663d8" stroke-width="2" d="M782,-540C782,-540 714,-540 714,-540 708,-540 702,-534 702,-528 702,-528 702,-516 702,-516 702,-510 708,-504 714,-504 714,-504 782,-504 782,-504 788,-504 794,-510 794,-516 794,-516 794,-528 794,-528 794,-534 788,-540 782,-540"/>
<text text-anchor="middle" x="748" y="-519.5" font-family="sans" font-size="10.00">quant_mirna_pri</text>
</g>
<!-- 42&#45;&gt;51 -->
<g id="edge80" class="edge">
<title>42&#45;&gt;51</title>
<path fill="none" stroke="grey" stroke-width="2" d="M682.93,-719.12C695.1,-682.46 722.98,-598.41 737.99,-553.16"/>
<polygon fill="grey" stroke="grey" stroke-width="2" points="741.26,-554.44 741.08,-543.85 734.61,-552.24 741.26,-554.44"/>
</g>
<!-- 43&#45;&gt;0 -->
<g id="edge10" class="edge">
<title>43&#45;&gt;0</title>
<path fill="none" stroke="grey" stroke-width="2" d="M632.99,-359.25C636.19,-301.99 646.26,-121.72 650.3,-49.43"/>
<polygon fill="grey" stroke="grey" stroke-width="2" points="653.77,-50.06 650.83,-39.88 646.78,-49.67 653.77,-50.06"/>
</g>
<!-- 48 -->
<g id="node49" class="node">
<title>48</title>
<path fill="none" stroke="#d89556" stroke-width="2" d="M781.5,-324C781.5,-324 684.5,-324 684.5,-324 678.5,-324 672.5,-318 672.5,-312 672.5,-312 672.5,-300 672.5,-300 672.5,-294 678.5,-288 684.5,-288 684.5,-288 781.5,-288 781.5,-288 787.5,-288 793.5,-294 793.5,-300 793.5,-300 793.5,-312 793.5,-312 793.5,-318 787.5,-324 781.5,-324"/>
<text text-anchor="middle" x="733" y="-303.5" font-family="sans" font-size="10.00">intersected_mirna_tag</text>
</g>
<!-- 43&#45;&gt;48 -->
<g id="edge76" class="edge">
<title>43&#45;&gt;48</title>
<path fill="none" stroke="grey" stroke-width="2" d="M657.75,-359.15C669.62,-350.93 683.92,-341.02 696.84,-332.06"/>
<polygon fill="grey" stroke="grey" stroke-width="2" points="698.59,-335.11 704.81,-326.54 694.6,-329.36 698.59,-335.11"/>
</g>
<!-- 54 -->
<g id="node55" class="node">
<title>54</title>
<path fill="none" stroke="#88d856" stroke-width="2" d="M593.5,-324C593.5,-324 522.5,-324 522.5,-324 516.5,-324 510.5,-318 510.5,-312 510.5,-312 510.5,-300 510.5,-300 510.5,-294 516.5,-288 522.5,-288 522.5,-288 593.5,-288 593.5,-288 599.5,-288 605.5,-294 605.5,-300 605.5,-300 605.5,-312 605.5,-312 605.5,-318 599.5,-324 593.5,-324"/>
<text text-anchor="middle" x="558" y="-303.5" font-family="sans" font-size="10.00">uncollapse_reads</text>
</g>
<!-- 43&#45;&gt;54 -->
<g id="edge83" class="edge">
<title>43&#45;&gt;54</title>
<path fill="none" stroke="grey" stroke-width="2" d="M613.33,-359.34C605.15,-351.6 595.38,-342.36 586.34,-333.81"/>
<polygon fill="grey" stroke="grey" stroke-width="2" points="588.79,-331.31 579.12,-326.98 583.98,-336.4 588.79,-331.31"/>
</g>
<!-- 44&#45;&gt;43 -->
<g id="edge68" class="edge">
<title>44&#45;&gt;43</title>
<path fill="none" stroke="grey" stroke-width="2" d="M667.14,-431.34C662.28,-424.1 656.53,-415.53 651.1,-407.45"/>
<polygon fill="grey" stroke="grey" stroke-width="2" points="654.19,-405.77 645.71,-399.41 648.38,-409.67 654.19,-405.77"/>
</g>
<!-- 44&#45;&gt;48 -->
<g id="edge75" class="edge">
<title>44&#45;&gt;48</title>
<path fill="none" stroke="grey" stroke-width="2" d="M693.1,-431.32C700.34,-421.44 708.71,-408.61 714,-396 721.8,-377.4 726.54,-355.21 729.34,-337.65"/>
<polygon fill="grey" stroke="grey" stroke-width="2" points="732.77,-338.37 730.73,-327.98 725.85,-337.38 732.77,-338.37"/>
</g>
<!-- 45 -->
<g id="node46" class="node">
<title>45</title>
<path fill="none" stroke="#d8b456" stroke-width="2" d="M672,-540C672,-540 510,-540 510,-540 504,-540 498,-534 498,-528 498,-528 498,-516 498,-516 498,-510 504,-504 510,-504 510,-504 672,-504 672,-504 678,-504 684,-510 684,-516 684,-516 684,-528 684,-528 684,-534 678,-540 672,-540"/>
<text text-anchor="middle" x="591" y="-519.5" font-family="sans" font-size="10.00">sort_intersected_premir_by_position</text>
</g>
<!-- 45&#45;&gt;44 -->
<g id="edge70" class="edge">
<title>45&#45;&gt;44</title>
<path fill="none" stroke="grey" stroke-width="2" d="M613.21,-503.34C623.24,-495.36 635.29,-485.77 646.33,-476.99"/>
<polygon fill="grey" stroke="grey" stroke-width="2" points="648.48,-479.75 654.13,-470.79 644.12,-474.27 648.48,-479.75"/>
</g>
<!-- 46&#45;&gt;45 -->
<g id="edge72" class="edge">
<title>46&#45;&gt;45</title>
<path fill="none" stroke="grey" stroke-width="2" d="M591,-575.34C591,-568.75 591,-561.08 591,-553.67"/>
<polygon fill="grey" stroke="grey" stroke-width="2" points="594.5,-553.93 591,-543.93 587.5,-553.93 594.5,-553.93"/>
</g>
<!-- 47 -->
<g id="node48" class="node">
<title>47</title>
<path fill="none" stroke="#56d882" stroke-width="2" d="M768,-252C768,-252 698,-252 698,-252 692,-252 686,-246 686,-240 686,-240 686,-228 686,-228 686,-222 692,-216 698,-216 698,-216 768,-216 768,-216 774,-216 780,-222 780,-228 780,-228 780,-240 780,-240 780,-246 774,-252 768,-252"/>
<text text-anchor="middle" x="733" y="-231.5" font-family="sans" font-size="10.00">sort_by_feat_tag</text>
</g>
<!-- 47&#45;&gt;0 -->
<g id="edge12" class="edge">
<title>47&#45;&gt;0</title>
<path fill="none" stroke="grey" stroke-width="2" d="M725.05,-215.45C720.48,-205.18 714.73,-191.93 710,-180 692,-134.61 673.2,-81.14 662.06,-48.68"/>
<polygon fill="grey" stroke="grey" stroke-width="2" points="665.43,-47.72 658.88,-39.39 658.81,-49.99 665.43,-47.72"/>
</g>
<!-- 50 -->
<g id="node51" class="node">
<title>50</title>
<path fill="none" stroke="#56d85b" stroke-width="2" d="M781.5,-180C781.5,-180 730.5,-180 730.5,-180 724.5,-180 718.5,-174 718.5,-168 718.5,-168 718.5,-156 718.5,-156 718.5,-150 724.5,-144 730.5,-144 730.5,-144 781.5,-144 781.5,-144 787.5,-144 793.5,-150 793.5,-156 793.5,-156 793.5,-168 793.5,-168 793.5,-174 787.5,-180 781.5,-180"/>
<text text-anchor="middle" x="756" y="-159.5" font-family="sans" font-size="10.00">quant_mirna</text>
</g>
<!-- 47&#45;&gt;50 -->
<g id="edge79" class="edge">
<title>47&#45;&gt;50</title>
<path fill="none" stroke="grey" stroke-width="2" d="M738.8,-215.34C741.02,-208.59 743.61,-200.69 746.11,-193.11"/>
<polygon fill="grey" stroke="grey" stroke-width="2" points="749.38,-194.37 749.17,-183.78 742.73,-192.19 749.38,-194.37"/>
</g>
<!-- 48&#45;&gt;47 -->
<g id="edge74" class="edge">
<title>48&#45;&gt;47</title>
<path fill="none" stroke="grey" stroke-width="2" d="M733,-287.34C733,-280.75 733,-273.08 733,-265.67"/>
<polygon fill="grey" stroke="grey" stroke-width="2" points="736.5,-265.93 733,-255.93 729.5,-265.93 736.5,-265.93"/>
</g>
<!-- 49 -->
<g id="node50" class="node">
<title>49</title>
<path fill="none" stroke="#56d8c9" stroke-width="2" d="M786,-108C786,-108 730,-108 730,-108 724,-108 718,-102 718,-96 718,-96 718,-84 718,-84 718,-78 724,-72 730,-72 730,-72 786,-72 786,-72 792,-72 798,-78 798,-84 798,-84 798,-96 798,-96 798,-102 792,-108 786,-108"/>
<text text-anchor="middle" x="758" y="-87.5" font-family="sans" font-size="10.00">merge_tables</text>
</g>
<!-- 49&#45;&gt;0 -->
<g id="edge5" class="edge">
<title>49&#45;&gt;0</title>
<path fill="none" stroke="grey" stroke-width="2" d="M730.98,-71.15C718.39,-62.84 703.21,-52.82 689.54,-43.79"/>
<polygon fill="grey" stroke="grey" stroke-width="2" points="691.77,-41.07 681.5,-38.48 687.92,-46.91 691.77,-41.07"/>
</g>
<!-- 50&#45;&gt;49 -->
<g id="edge78" class="edge">
<title>50&#45;&gt;49</title>
<path fill="none" stroke="grey" stroke-width="2" d="M756.5,-143.34C756.69,-136.75 756.91,-129.08 757.12,-121.67"/>
<polygon fill="grey" stroke="grey" stroke-width="2" points="760.61,-122.02 757.4,-111.93 753.62,-121.82 760.61,-122.02"/>
</g>
<!-- 51&#45;&gt;49 -->
<g id="edge77" class="edge">
<title>51&#45;&gt;49</title>
<path fill="none" stroke="grey" stroke-width="2" d="M764.42,-503.27C786.22,-477.8 822,-428.48 822,-379 822,-379 822,-379 822,-233 822,-192.55 820.85,-180.29 803,-144 798.55,-134.96 792.23,-126.19 785.72,-118.46"/>
<polygon fill="grey" stroke="grey" stroke-width="2" points="788.5,-116.33 779.22,-111.23 783.3,-121.01 788.5,-116.33"/>
</g>
<!-- 52 -->
<g id="node53" class="node">
<title>52</title>
<path fill="none" stroke="#56a2d8" stroke-width="2" d="M612,-180C612,-180 484,-180 484,-180 478,-180 472,-174 472,-168 472,-168 472,-156 472,-156 472,-150 478,-144 484,-144 484,-144 612,-144 612,-144 618,-144 624,-150 624,-156 624,-156 624,-168 624,-168 624,-174 618,-180 612,-180"/>
<text text-anchor="middle" x="548" y="-159.5" font-family="sans" font-size="10.00">sort_uncollpased_by_position</text>
</g>
<!-- 52&#45;&gt;0 -->
<g id="edge11" class="edge">
<title>52&#45;&gt;0</title>
<path fill="none" stroke="grey" stroke-width="2" d="M564.82,-143.44C574.12,-133.39 585.65,-120.36 595,-108 609.55,-88.76 624.18,-65.82 634.98,-48.04"/>
<polygon fill="grey" stroke="grey" stroke-width="2" points="637.94,-49.91 640.08,-39.53 631.94,-46.31 637.94,-49.91"/>
</g>
<!-- 55 -->
<g id="node56" class="node">
<title>55</title>
<path fill="none" stroke="#d87d56" stroke-width="2" d="M573.5,-108C573.5,-108 472.5,-108 472.5,-108 466.5,-108 460.5,-102 460.5,-96 460.5,-96 460.5,-84 460.5,-84 460.5,-78 466.5,-72 472.5,-72 472.5,-72 573.5,-72 573.5,-72 579.5,-72 585.5,-78 585.5,-84 585.5,-84 585.5,-96 585.5,-96 585.5,-102 579.5,-108 573.5,-108"/>
<text text-anchor="middle" x="523" y="-87.5" font-family="sans" font-size="10.00">uncollapsed_index_bam</text>
</g>
<!-- 52&#45;&gt;55 -->
<g id="edge84" class="edge">
<title>52&#45;&gt;55</title>
<path fill="none" stroke="grey" stroke-width="2" d="M541.69,-143.34C539.28,-136.59 536.46,-128.69 533.75,-121.11"/>
<polygon fill="grey" stroke="grey" stroke-width="2" points="537.07,-119.99 530.41,-111.75 530.48,-122.35 537.07,-119.99"/>
</g>
<!-- 53 -->
<g id="node54" class="node">
<title>53</title>
<path fill="none" stroke="#afd856" stroke-width="2" d="M611.5,-252C611.5,-252 484.5,-252 484.5,-252 478.5,-252 472.5,-246 472.5,-240 472.5,-240 472.5,-228 472.5,-228 472.5,-222 478.5,-216 484.5,-216 484.5,-216 611.5,-216 611.5,-216 617.5,-216 623.5,-222 623.5,-228 623.5,-228 623.5,-240 623.5,-240 623.5,-246 617.5,-252 611.5,-252"/>
<text text-anchor="middle" x="548" y="-231.5" font-family="sans" font-size="10.00">uncollpased_convert_to_bam</text>
</g>
<!-- 53&#45;&gt;52 -->
<g id="edge81" class="edge">
<title>53&#45;&gt;52</title>
<path fill="none" stroke="grey" stroke-width="2" d="M548,-215.34C548,-208.75 548,-201.08 548,-193.67"/>
<polygon fill="grey" stroke="grey" stroke-width="2" points="551.5,-193.93 548,-183.93 544.5,-193.93 551.5,-193.93"/>
</g>
<!-- 54&#45;&gt;53 -->
<g id="edge82" class="edge">
<title>54&#45;&gt;53</title>
<path fill="none" stroke="grey" stroke-width="2" d="M555.48,-287.34C554.54,-280.75 553.44,-273.08 552.38,-265.67"/>
<polygon fill="grey" stroke="grey" stroke-width="2" points="555.86,-265.3 550.99,-255.9 548.93,-266.29 555.86,-265.3"/>
</g>
<!-- 55&#45;&gt;0 -->
<g id="edge7" class="edge">
<title>55&#45;&gt;0</title>
<path fill="none" stroke="grey" stroke-width="2" d="M555.89,-71.15C573.28,-61.72 594.74,-50.07 612.97,-40.18"/>
<polygon fill="grey" stroke="grey" stroke-width="2" points="614.63,-43.26 621.75,-35.42 611.29,-37.11 614.63,-43.26"/>
</g>
</g>
</svg>
