<?xml version="1.0" encoding="UTF-8" standalone="no"?>
<!DOCTYPE svg PUBLIC "-//W3C//DTD SVG 1.1//EN"
 "http://www.w3.org/Graphics/SVG/1.1/DTD/svg11.dtd">
<!-- Generated by graphviz version 7.1.0 (20230122.1345)
 -->
<!-- Title: snakemake_dag Pages: 1 -->
<svg width="852pt" height="1772pt"
 viewBox="0.00 0.00 852.00 1772.00" xmlns="http://www.w3.org/2000/svg" xmlns:xlink="http://www.w3.org/1999/xlink">
<g id="graph0" class="graph" transform="scale(1 1) rotate(0) translate(4 1768)">
<title>snakemake_dag</title>
<polygon fill="white" stroke="none" points="-4,4 -4,-1768 848,-1768 848,4 -4,4"/>
<!-- 0 -->
<g id="node1" class="node">
<title>0</title>
<path fill="none" stroke="#56d863" stroke-width="2" d="M665,-36C665,-36 635,-36 635,-36 629,-36 623,-30 623,-24 623,-24 623,-12 623,-12 623,-6 629,0 635,0 635,0 665,0 665,0 671,0 677,-6 677,-12 677,-12 677,-24 677,-24 677,-30 671,-36 665,-36"/>
<text text-anchor="middle" x="650" y="-15.5" font-family="sans" font-size="10.00">finish</text>
</g>
<!-- 1 -->
<g id="node2" class="node">
<title>1</title>
<path fill="none" stroke="#56d8d8" stroke-width="2" d="M659.5,-1404C659.5,-1404 474.5,-1404 474.5,-1404 468.5,-1404 462.5,-1398 462.5,-1392 462.5,-1392 462.5,-1380 462.5,-1380 462.5,-1374 468.5,-1368 474.5,-1368 474.5,-1368 659.5,-1368 659.5,-1368 665.5,-1368 671.5,-1374 671.5,-1380 671.5,-1380 671.5,-1392 671.5,-1392 671.5,-1398 665.5,-1404 659.5,-1404"/>
<text text-anchor="middle" x="567" y="-1383.5" font-family="sans" font-size="10.00">generate_segemehl_index_transcriptome</text>
</g>
<!-- 1&#45;&gt;0 -->
<g id="edge7" class="edge">
<title>1&#45;&gt;0</title>
<path fill="none" stroke="grey" stroke-width="2" d="M612.99,-1367.08C659.95,-1345.4 726,-1304.07 726,-1243 726,-1243 726,-1243 726,-161 726,-117.06 697.36,-73.56 675.25,-46.52"/>
<polygon fill="grey" stroke="grey" stroke-width="2" points="677.97,-44.31 668.83,-38.96 672.64,-48.85 677.97,-44.31"/>
</g>
<!-- 23 -->
<g id="node24" class="node">
<title>23</title>
<path fill="none" stroke="#a7d856" stroke-width="2" d="M607.5,-1332C607.5,-1332 454.5,-1332 454.5,-1332 448.5,-1332 442.5,-1326 442.5,-1320 442.5,-1320 442.5,-1308 442.5,-1308 442.5,-1302 448.5,-1296 454.5,-1296 454.5,-1296 607.5,-1296 607.5,-1296 613.5,-1296 619.5,-1302 619.5,-1308 619.5,-1308 619.5,-1320 619.5,-1320 619.5,-1326 613.5,-1332 607.5,-1332"/>
<text text-anchor="middle" x="531" y="-1311.5" font-family="sans" font-size="10.00">mapping_transcriptome_segemehl</text>
</g>
<!-- 1&#45;&gt;23 -->
<g id="edge33" class="edge">
<title>1&#45;&gt;23</title>
<path fill="none" stroke="grey" stroke-width="2" d="M557.92,-1367.34C554.32,-1360.34 550.09,-1352.12 546.06,-1344.28"/>
<polygon fill="grey" stroke="grey" stroke-width="2" points="549.28,-1342.89 541.59,-1335.59 543.05,-1346.09 549.28,-1342.89"/>
</g>
<!-- 2 -->
<g id="node3" class="node">
<title>2</title>
<path fill="none" stroke="#9fd856" stroke-width="2" d="M532.5,-1476C532.5,-1476 493.5,-1476 493.5,-1476 487.5,-1476 481.5,-1470 481.5,-1464 481.5,-1464 481.5,-1452 481.5,-1452 481.5,-1446 487.5,-1440 493.5,-1440 493.5,-1440 532.5,-1440 532.5,-1440 538.5,-1440 544.5,-1446 544.5,-1452 544.5,-1452 544.5,-1464 544.5,-1464 544.5,-1470 538.5,-1476 532.5,-1476"/>
<text text-anchor="middle" x="513" y="-1455.5" font-family="sans" font-size="10.00">trim_fasta</text>
</g>
<!-- 2&#45;&gt;1 -->
<g id="edge8" class="edge">
<title>2&#45;&gt;1</title>
<path fill="none" stroke="grey" stroke-width="2" d="M526.63,-1439.34C532.27,-1432.01 538.97,-1423.34 545.26,-1415.18"/>
<polygon fill="grey" stroke="grey" stroke-width="2" points="548,-1417.35 551.34,-1407.3 542.46,-1413.08 548,-1417.35"/>
</g>
<!-- 2&#45;&gt;23 -->
<g id="edge32" class="edge">
<title>2&#45;&gt;23</title>
<path fill="none" stroke="grey" stroke-width="2" d="M484.27,-1439.16C472.57,-1430.2 460.34,-1418.21 454,-1404 447.48,-1389.39 446.56,-1382.16 454,-1368 459.95,-1356.69 469.52,-1347.32 479.93,-1339.77"/>
<polygon fill="grey" stroke="grey" stroke-width="2" points="481.54,-1342.9 487.98,-1334.48 477.7,-1337.05 481.54,-1342.9"/>
</g>
<!-- 29 -->
<g id="node30" class="node">
<title>29</title>
<path fill="none" stroke="#ced856" stroke-width="2" d="M190,-1404C190,-1404 40,-1404 40,-1404 34,-1404 28,-1398 28,-1392 28,-1392 28,-1380 28,-1380 28,-1374 34,-1368 40,-1368 40,-1368 190,-1368 190,-1368 196,-1368 202,-1374 202,-1380 202,-1380 202,-1392 202,-1392 202,-1398 196,-1404 190,-1404"/>
<text text-anchor="middle" x="115" y="-1383.5" font-family="sans" font-size="10.00">mapping_transcriptome_oligomap</text>
</g>
<!-- 2&#45;&gt;29 -->
<g id="edge39" class="edge">
<title>2&#45;&gt;29</title>
<path fill="none" stroke="grey" stroke-width="2" d="M480.82,-1451.37C427.82,-1442.09 318.51,-1422.94 215.71,-1404.83"/>
<polygon fill="grey" stroke="grey" stroke-width="2" points="216.33,-1401.38 205.87,-1403.09 215.11,-1408.28 216.33,-1401.38"/>
</g>
<!-- 3 -->
<g id="node4" class="node">
<title>3</title>
<path fill="none" stroke="#68d856" stroke-width="2" d="M593.5,-1548C593.5,-1548 474.5,-1548 474.5,-1548 468.5,-1548 462.5,-1542 462.5,-1536 462.5,-1536 462.5,-1524 462.5,-1524 462.5,-1518 468.5,-1512 474.5,-1512 474.5,-1512 593.5,-1512 593.5,-1512 599.5,-1512 605.5,-1518 605.5,-1524 605.5,-1524 605.5,-1536 605.5,-1536 605.5,-1542 599.5,-1548 593.5,-1548"/>
<text text-anchor="middle" x="534" y="-1527.5" font-family="sans" font-size="10.00">extract_transcriptome_seqs</text>
</g>
<!-- 3&#45;&gt;2 -->
<g id="edge9" class="edge">
<title>3&#45;&gt;2</title>
<path fill="none" stroke="grey" stroke-width="2" d="M528.7,-1511.34C526.68,-1504.59 524.31,-1496.69 522.03,-1489.11"/>
<polygon fill="grey" stroke="grey" stroke-width="2" points="525.47,-1488.37 519.24,-1479.8 518.76,-1490.39 525.47,-1488.37"/>
</g>
<!-- 4 -->
<g id="node5" class="node">
<title>4</title>
<path fill="none" stroke="#70d856" stroke-width="2" d="M578.5,-1620C578.5,-1620 489.5,-1620 489.5,-1620 483.5,-1620 477.5,-1614 477.5,-1608 477.5,-1608 477.5,-1596 477.5,-1596 477.5,-1590 483.5,-1584 489.5,-1584 489.5,-1584 578.5,-1584 578.5,-1584 584.5,-1584 590.5,-1590 590.5,-1596 590.5,-1596 590.5,-1608 590.5,-1608 590.5,-1614 584.5,-1620 578.5,-1620"/>
<text text-anchor="middle" x="534" y="-1599.5" font-family="sans" font-size="10.00">trim_genome_seq_id</text>
</g>
<!-- 4&#45;&gt;3 -->
<g id="edge10" class="edge">
<title>4&#45;&gt;3</title>
<path fill="none" stroke="grey" stroke-width="2" d="M534,-1583.34C534,-1576.75 534,-1569.08 534,-1561.67"/>
<polygon fill="grey" stroke="grey" stroke-width="2" points="537.5,-1561.93 534,-1551.93 530.5,-1561.93 537.5,-1561.93"/>
</g>
<!-- 5 -->
<g id="node6" class="node">
<title>5</title>
<path fill="none" stroke="#97d856" stroke-width="2" d="M832,-1548C832,-1548 674,-1548 674,-1548 668,-1548 662,-1542 662,-1536 662,-1536 662,-1524 662,-1524 662,-1518 668,-1512 674,-1512 674,-1512 832,-1512 832,-1512 838,-1512 844,-1518 844,-1524 844,-1524 844,-1536 844,-1536 844,-1542 838,-1548 832,-1548"/>
<text text-anchor="middle" x="753" y="-1527.5" font-family="sans" font-size="10.00">generate_segemehl_index_genome</text>
</g>
<!-- 4&#45;&gt;5 -->
<g id="edge11" class="edge">
<title>4&#45;&gt;5</title>
<path fill="none" stroke="grey" stroke-width="2" d="M590.11,-1583.06C618.96,-1573.84 654.36,-1562.53 684.77,-1552.81"/>
<polygon fill="grey" stroke="grey" stroke-width="2" points="685.69,-1556.19 694.15,-1549.81 683.56,-1549.52 685.69,-1556.19"/>
</g>
<!-- 8 -->
<g id="node9" class="node">
<title>8</title>
<path fill="none" stroke="#56d8c1" stroke-width="2" d="M409,-900C409,-900 305,-900 305,-900 299,-900 293,-894 293,-888 293,-888 293,-876 293,-876 293,-870 299,-864 305,-864 305,-864 409,-864 409,-864 415,-864 421,-870 421,-876 421,-876 421,-888 421,-888 421,-894 415,-900 409,-900"/>
<text text-anchor="middle" x="357" y="-879.5" font-family="sans" font-size="10.00">create_header_genome</text>
</g>
<!-- 4&#45;&gt;8 -->
<g id="edge13" class="edge">
<title>4&#45;&gt;8</title>
<path fill="none" stroke="grey" stroke-width="2" d="M476.6,-1591.82C338.68,-1568.97 0,-1507.89 0,-1459 0,-1459 0,-1459 0,-1025 0,-965.29 174.6,-919.65 279.59,-897.6"/>
<polygon fill="grey" stroke="grey" stroke-width="2" points="280.3,-901.03 289.39,-895.57 278.88,-894.17 280.3,-901.03"/>
</g>
<!-- 35 -->
<g id="node36" class="node">
<title>35</title>
<path fill="none" stroke="#568ad8" stroke-width="2" d="M716.5,-1476C716.5,-1476 589.5,-1476 589.5,-1476 583.5,-1476 577.5,-1470 577.5,-1464 577.5,-1464 577.5,-1452 577.5,-1452 577.5,-1446 583.5,-1440 589.5,-1440 589.5,-1440 716.5,-1440 716.5,-1440 722.5,-1440 728.5,-1446 728.5,-1452 728.5,-1452 728.5,-1464 728.5,-1464 728.5,-1470 722.5,-1476 716.5,-1476"/>
<text text-anchor="middle" x="653" y="-1455.5" font-family="sans" font-size="10.00">mapping_genome_segemehl</text>
</g>
<!-- 4&#45;&gt;35 -->
<g id="edge48" class="edge">
<title>4&#45;&gt;35</title>
<path fill="none" stroke="grey" stroke-width="2" d="M570.99,-1583.01C586.2,-1574.16 603.02,-1562.3 615,-1548 629.33,-1530.9 639.01,-1507.6 645.02,-1489.13"/>
<polygon fill="grey" stroke="grey" stroke-width="2" points="648.36,-1490.17 647.89,-1479.59 641.66,-1488.16 648.36,-1490.17"/>
</g>
<!-- 37 -->
<g id="node38" class="node">
<title>37</title>
<path fill="none" stroke="#56d882" stroke-width="2" d="M356,-1404C356,-1404 232,-1404 232,-1404 226,-1404 220,-1398 220,-1392 220,-1392 220,-1380 220,-1380 220,-1374 226,-1368 232,-1368 232,-1368 356,-1368 356,-1368 362,-1368 368,-1374 368,-1380 368,-1380 368,-1392 368,-1392 368,-1398 362,-1404 356,-1404"/>
<text text-anchor="middle" x="294" y="-1383.5" font-family="sans" font-size="10.00">mapping_genome_oligomap</text>
</g>
<!-- 4&#45;&gt;37 -->
<g id="edge52" class="edge">
<title>4&#45;&gt;37</title>
<path fill="none" stroke="grey" stroke-width="2" d="M501.93,-1583.01C486.58,-1573.62 468.46,-1561.32 454,-1548 409.08,-1506.61 413.29,-1482.06 369,-1440 358.38,-1429.91 345.72,-1420.24 333.86,-1411.98"/>
<polygon fill="grey" stroke="grey" stroke-width="2" points="336.02,-1409.22 325.77,-1406.52 332.1,-1415.02 336.02,-1409.22"/>
</g>
<!-- 5&#45;&gt;0 -->
<g id="edge5" class="edge">
<title>5&#45;&gt;0</title>
<path fill="none" stroke="grey" stroke-width="2" d="M755.28,-1511.1C758.5,-1484.21 764,-1431.76 764,-1387 764,-1387 764,-1387 764,-161 764,-111.51 721.36,-69.44 688.24,-44.23"/>
<polygon fill="grey" stroke="grey" stroke-width="2" points="690.47,-41.52 680.33,-38.44 686.33,-47.17 690.47,-41.52"/>
</g>
<!-- 5&#45;&gt;35 -->
<g id="edge49" class="edge">
<title>5&#45;&gt;35</title>
<path fill="none" stroke="grey" stroke-width="2" d="M727.51,-1511.15C715.75,-1502.93 701.6,-1493.02 688.8,-1484.06"/>
<polygon fill="grey" stroke="grey" stroke-width="2" points="691.13,-1481.42 680.93,-1478.55 687.11,-1487.15 691.13,-1481.42"/>
</g>
<!-- 6 -->
<g id="node7" class="node">
<title>6</title>
<path fill="none" stroke="#d8d356" stroke-width="2" d="M538,-1044C538,-1044 504,-1044 504,-1044 498,-1044 492,-1038 492,-1032 492,-1032 492,-1020 492,-1020 492,-1014 498,-1008 504,-1008 504,-1008 538,-1008 538,-1008 544,-1008 550,-1014 550,-1020 550,-1020 550,-1032 550,-1032 550,-1038 544,-1044 538,-1044"/>
<text text-anchor="middle" x="521" y="-1023.5" font-family="sans" font-size="10.00">gtftobed</text>
</g>
<!-- 6&#45;&gt;0 -->
<g id="edge2" class="edge">
<title>6&#45;&gt;0</title>
<path fill="none" stroke="grey" stroke-width="2" d="M550.74,-1022.75C584.51,-1018.55 638.81,-1006.51 669,-972 695.63,-941.56 688,-923.45 688,-883 688,-883 688,-883 688,-161 688,-121.16 673.87,-77.11 662.85,-48.8"/>
<polygon fill="grey" stroke="grey" stroke-width="2" points="666.19,-47.73 659.19,-39.77 659.7,-50.36 666.19,-47.73"/>
</g>
<!-- 19 -->
<g id="node20" class="node">
<title>19</title>
<path fill="none" stroke="#d8cb56" stroke-width="2" d="M490.5,-972C490.5,-972 437.5,-972 437.5,-972 431.5,-972 425.5,-966 425.5,-960 425.5,-960 425.5,-948 425.5,-948 425.5,-942 431.5,-936 437.5,-936 437.5,-936 490.5,-936 490.5,-936 496.5,-936 502.5,-942 502.5,-948 502.5,-948 502.5,-960 502.5,-960 502.5,-966 496.5,-972 490.5,-972"/>
<text text-anchor="middle" x="464" y="-951.5" font-family="sans" font-size="10.00">trans_to_gen</text>
</g>
<!-- 6&#45;&gt;19 -->
<g id="edge26" class="edge">
<title>6&#45;&gt;19</title>
<path fill="none" stroke="grey" stroke-width="2" d="M506.62,-1007.34C500.59,-999.93 493.43,-991.14 486.72,-982.9"/>
<polygon fill="grey" stroke="grey" stroke-width="2" points="489.52,-980.79 480.49,-975.25 484.09,-985.21 489.52,-980.79"/>
</g>
<!-- 7 -->
<g id="node8" class="node">
<title>7</title>
<path fill="none" stroke="#bed856" stroke-width="2" d="M546,-1116C546,-1116 488,-1116 488,-1116 482,-1116 476,-1110 476,-1104 476,-1104 476,-1092 476,-1092 476,-1086 482,-1080 488,-1080 488,-1080 546,-1080 546,-1080 552,-1080 558,-1086 558,-1092 558,-1092 558,-1104 558,-1104 558,-1110 552,-1116 546,-1116"/>
<text text-anchor="middle" x="517" y="-1095.5" font-family="sans" font-size="10.00">get_exons_gtf</text>
</g>
<!-- 7&#45;&gt;6 -->
<g id="edge12" class="edge">
<title>7&#45;&gt;6</title>
<path fill="none" stroke="grey" stroke-width="2" d="M518.01,-1079.34C518.39,-1072.75 518.82,-1065.08 519.25,-1057.67"/>
<polygon fill="grey" stroke="grey" stroke-width="2" points="522.73,-1058.11 519.8,-1047.92 515.74,-1057.71 522.73,-1058.11"/>
</g>
<!-- 8&#45;&gt;0 -->
<g id="edge6" class="edge">
<title>8&#45;&gt;0</title>
<path fill="none" stroke="grey" stroke-width="2" d="M358.45,-863.08C360.5,-836.16 364,-783.68 364,-739 364,-739 364,-739 364,-161 364,-52.78 530.29,-27.04 609.27,-20.91"/>
<polygon fill="grey" stroke="grey" stroke-width="2" points="609.3,-24.42 619.04,-20.24 608.82,-17.44 609.3,-24.42"/>
</g>
<!-- 17 -->
<g id="node18" class="node">
<title>17</title>
<path fill="none" stroke="#56d85b" stroke-width="2" d="M493,-828C493,-828 445,-828 445,-828 439,-828 433,-822 433,-816 433,-816 433,-804 433,-804 433,-798 439,-792 445,-792 445,-792 493,-792 493,-792 499,-792 505,-798 505,-804 505,-804 505,-816 505,-816 505,-822 499,-828 493,-828"/>
<text text-anchor="middle" x="469" y="-807.5" font-family="sans" font-size="10.00">add_header</text>
</g>
<!-- 8&#45;&gt;17 -->
<g id="edge22" class="edge">
<title>8&#45;&gt;17</title>
<path fill="none" stroke="grey" stroke-width="2" d="M385.55,-863.15C398.98,-854.76 415.21,-844.62 429.76,-835.52"/>
<polygon fill="grey" stroke="grey" stroke-width="2" points="431.31,-838.68 437.93,-830.42 427.6,-832.75 431.31,-838.68"/>
</g>
<!-- 9 -->
<g id="node10" class="node">
<title>9</title>
<path fill="none" stroke="#d88556" stroke-width="2" d="M622.5,-324C622.5,-324 589.5,-324 589.5,-324 583.5,-324 577.5,-318 577.5,-312 577.5,-312 577.5,-300 577.5,-300 577.5,-294 583.5,-288 589.5,-288 589.5,-288 622.5,-288 622.5,-288 628.5,-288 634.5,-294 634.5,-300 634.5,-300 634.5,-312 634.5,-312 634.5,-318 628.5,-324 622.5,-324"/>
<text text-anchor="middle" x="606" y="-303.5" font-family="sans" font-size="10.00">gfftobed</text>
</g>
<!-- 9&#45;&gt;0 -->
<g id="edge4" class="edge">
<title>9&#45;&gt;0</title>
<path fill="none" stroke="grey" stroke-width="2" d="M610.01,-287.28C615.37,-263.13 624.89,-218.47 631,-180 638.18,-134.76 643.91,-81.97 647.13,-49.52"/>
<polygon fill="grey" stroke="grey" stroke-width="2" points="650.58,-50.24 648.06,-39.95 643.61,-49.56 650.58,-50.24"/>
</g>
<!-- 41 -->
<g id="node42" class="node">
<title>41</title>
<path fill="none" stroke="#56d89a" stroke-width="2" d="M578.5,-252C578.5,-252 513.5,-252 513.5,-252 507.5,-252 501.5,-246 501.5,-240 501.5,-240 501.5,-228 501.5,-228 501.5,-222 507.5,-216 513.5,-216 513.5,-216 578.5,-216 578.5,-216 584.5,-216 590.5,-222 590.5,-228 590.5,-228 590.5,-240 590.5,-240 590.5,-246 584.5,-252 578.5,-252"/>
<text text-anchor="middle" x="546" y="-231.5" font-family="sans" font-size="10.00">intersect_mirna</text>
</g>
<!-- 9&#45;&gt;41 -->
<g id="edge58" class="edge">
<title>9&#45;&gt;41</title>
<path fill="none" stroke="grey" stroke-width="2" d="M590.86,-287.34C584.44,-279.85 576.81,-270.95 569.68,-262.63"/>
<polygon fill="grey" stroke="grey" stroke-width="2" points="572.48,-260.51 563.31,-255.2 567.16,-265.07 572.48,-260.51"/>
</g>
<!-- 10 -->
<g id="node11" class="node">
<title>10</title>
<path fill="none" stroke="#5692d8" stroke-width="2" d="M640,-396C640,-396 572,-396 572,-396 566,-396 560,-390 560,-384 560,-384 560,-372 560,-372 560,-366 566,-360 572,-360 572,-360 640,-360 640,-360 646,-360 652,-366 652,-372 652,-372 652,-384 652,-384 652,-390 646,-396 640,-396"/>
<text text-anchor="middle" x="606" y="-375.5" font-family="sans" font-size="10.00">map_chr_names</text>
</g>
<!-- 10&#45;&gt;9 -->
<g id="edge14" class="edge">
<title>10&#45;&gt;9</title>
<path fill="none" stroke="grey" stroke-width="2" d="M606,-359.34C606,-352.75 606,-345.08 606,-337.67"/>
<polygon fill="grey" stroke="grey" stroke-width="2" points="609.5,-337.93 606,-327.93 602.5,-337.93 609.5,-337.93"/>
</g>
<!-- 11 -->
<g id="node12" class="node">
<title>11</title>
<path fill="none" stroke="#d85656" stroke-width="2" d="M447,-252C447,-252 405,-252 405,-252 399,-252 393,-246 393,-240 393,-240 393,-228 393,-228 393,-222 399,-216 405,-216 405,-216 447,-216 447,-216 453,-216 459,-222 459,-228 459,-228 459,-240 459,-240 459,-246 453,-252 447,-252"/>
<text text-anchor="middle" x="426" y="-231.5" font-family="sans" font-size="10.00">index_bam</text>
</g>
<!-- 11&#45;&gt;0 -->
<g id="edge1" class="edge">
<title>11&#45;&gt;0</title>
<path fill="none" stroke="grey" stroke-width="2" d="M421.97,-215.13C418.7,-196.3 416.32,-166.32 428,-144 464.29,-74.67 556.44,-41.47 609.92,-27.57"/>
<polygon fill="grey" stroke="grey" stroke-width="2" points="610.49,-31.03 619.37,-25.24 608.82,-24.24 610.49,-31.03"/>
</g>
<!-- 12 -->
<g id="node13" class="node">
<title>12</title>
<path fill="none" stroke="#56d87b" stroke-width="2" d="M503,-468C503,-468 435,-468 435,-468 429,-468 423,-462 423,-456 423,-456 423,-444 423,-444 423,-438 429,-432 435,-432 435,-432 503,-432 503,-432 509,-432 515,-438 515,-444 515,-444 515,-456 515,-456 515,-462 509,-468 503,-468"/>
<text text-anchor="middle" x="469" y="-447.5" font-family="sans" font-size="10.00">sort_by_position</text>
</g>
<!-- 12&#45;&gt;11 -->
<g id="edge15" class="edge">
<title>12&#45;&gt;11</title>
<path fill="none" stroke="grey" stroke-width="2" d="M465.41,-431.12C458.07,-394.62 441.3,-311.13 432.18,-265.74"/>
<polygon fill="grey" stroke="grey" stroke-width="2" points="435.61,-265.06 430.21,-255.94 428.75,-266.44 435.61,-265.06"/>
</g>
<!-- 43 -->
<g id="node44" class="node">
<title>43</title>
<path fill="none" stroke="#78d856" stroke-width="2" d="M525.5,-396C525.5,-396 484.5,-396 484.5,-396 478.5,-396 472.5,-390 472.5,-384 472.5,-384 472.5,-372 472.5,-372 472.5,-366 478.5,-360 484.5,-360 484.5,-360 525.5,-360 525.5,-360 531.5,-360 537.5,-366 537.5,-372 537.5,-372 537.5,-384 537.5,-384 537.5,-390 531.5,-396 525.5,-396"/>
<text text-anchor="middle" x="505" y="-375.5" font-family="sans" font-size="10.00">bamtobed</text>
</g>
<!-- 12&#45;&gt;43 -->
<g id="edge61" class="edge">
<title>12&#45;&gt;43</title>
<path fill="none" stroke="grey" stroke-width="2" d="M478.08,-431.34C481.68,-424.34 485.91,-416.12 489.94,-408.28"/>
<polygon fill="grey" stroke="grey" stroke-width="2" points="492.95,-410.09 494.41,-399.59 486.72,-406.89 492.95,-410.09"/>
</g>
<!-- 13 -->
<g id="node14" class="node">
<title>13</title>
<path fill="none" stroke="#d8bc56" stroke-width="2" d="M503,-540C503,-540 435,-540 435,-540 429,-540 423,-534 423,-528 423,-528 423,-516 423,-516 423,-510 429,-504 435,-504 435,-504 503,-504 503,-504 509,-504 515,-510 515,-516 515,-516 515,-528 515,-528 515,-534 509,-540 503,-540"/>
<text text-anchor="middle" x="469" y="-519.5" font-family="sans" font-size="10.00">convert_to_bam</text>
</g>
<!-- 13&#45;&gt;12 -->
<g id="edge16" class="edge">
<title>13&#45;&gt;12</title>
<path fill="none" stroke="grey" stroke-width="2" d="M469,-503.34C469,-496.75 469,-489.08 469,-481.67"/>
<polygon fill="grey" stroke="grey" stroke-width="2" points="472.5,-481.93 469,-471.93 465.5,-481.93 472.5,-481.93"/>
</g>
<!-- 14 -->
<g id="node15" class="node">
<title>14</title>
<path fill="none" stroke="#d87d56" stroke-width="2" d="M504.5,-612C504.5,-612 433.5,-612 433.5,-612 427.5,-612 421.5,-606 421.5,-600 421.5,-600 421.5,-588 421.5,-588 421.5,-582 427.5,-576 433.5,-576 433.5,-576 504.5,-576 504.5,-576 510.5,-576 516.5,-582 516.5,-588 516.5,-588 516.5,-600 516.5,-600 516.5,-606 510.5,-612 504.5,-612"/>
<text text-anchor="middle" x="469" y="-591.5" font-family="sans" font-size="10.00">uncollapse_reads</text>
</g>
<!-- 14&#45;&gt;13 -->
<g id="edge17" class="edge">
<title>14&#45;&gt;13</title>
<path fill="none" stroke="grey" stroke-width="2" d="M469,-575.34C469,-568.75 469,-561.08 469,-553.67"/>
<polygon fill="grey" stroke="grey" stroke-width="2" points="472.5,-553.93 469,-543.93 465.5,-553.93 472.5,-553.93"/>
</g>
<!-- 15 -->
<g id="node16" class="node">
<title>15</title>
<path fill="none" stroke="#d8c356" stroke-width="2" d="M505.5,-684C505.5,-684 432.5,-684 432.5,-684 426.5,-684 420.5,-678 420.5,-672 420.5,-672 420.5,-660 420.5,-660 420.5,-654 426.5,-648 432.5,-648 432.5,-648 505.5,-648 505.5,-648 511.5,-648 517.5,-654 517.5,-660 517.5,-660 517.5,-672 517.5,-672 517.5,-678 511.5,-684 505.5,-684"/>
<text text-anchor="middle" x="469" y="-663.5" font-family="sans" font-size="10.00">remove_inferiors</text>
</g>
<!-- 15&#45;&gt;14 -->
<g id="edge18" class="edge">
<title>15&#45;&gt;14</title>
<path fill="none" stroke="grey" stroke-width="2" d="M469,-647.34C469,-640.75 469,-633.08 469,-625.67"/>
<polygon fill="grey" stroke="grey" stroke-width="2" points="472.5,-625.93 469,-615.93 465.5,-625.93 472.5,-625.93"/>
</g>
<!-- 16 -->
<g id="node17" class="node">
<title>16</title>
<path fill="none" stroke="#567bd8" stroke-width="2" d="M484,-756C484,-756 454,-756 454,-756 448,-756 442,-750 442,-744 442,-744 442,-732 442,-732 442,-726 448,-720 454,-720 454,-720 484,-720 484,-720 490,-720 496,-726 496,-732 496,-732 496,-744 496,-744 496,-750 490,-756 484,-756"/>
<text text-anchor="middle" x="469" y="-735.5" font-family="sans" font-size="10.00">sort_id</text>
</g>
<!-- 16&#45;&gt;15 -->
<g id="edge19" class="edge">
<title>16&#45;&gt;15</title>
<path fill="none" stroke="grey" stroke-width="2" d="M469,-719.34C469,-712.75 469,-705.08 469,-697.67"/>
<polygon fill="grey" stroke="grey" stroke-width="2" points="472.5,-697.93 469,-687.93 465.5,-697.93 472.5,-697.93"/>
</g>
<!-- 17&#45;&gt;16 -->
<g id="edge20" class="edge">
<title>17&#45;&gt;16</title>
<path fill="none" stroke="grey" stroke-width="2" d="M469,-791.34C469,-784.75 469,-777.08 469,-769.67"/>
<polygon fill="grey" stroke="grey" stroke-width="2" points="472.5,-769.93 469,-759.93 465.5,-769.93 472.5,-769.93"/>
</g>
<!-- 18 -->
<g id="node19" class="node">
<title>18</title>
<path fill="none" stroke="#56d86b" stroke-width="2" d="M502.5,-900C502.5,-900 451.5,-900 451.5,-900 445.5,-900 439.5,-894 439.5,-888 439.5,-888 439.5,-876 439.5,-876 439.5,-870 445.5,-864 451.5,-864 451.5,-864 502.5,-864 502.5,-864 508.5,-864 514.5,-870 514.5,-876 514.5,-876 514.5,-888 514.5,-888 514.5,-894 508.5,-900 502.5,-900"/>
<text text-anchor="middle" x="477" y="-879.5" font-family="sans" font-size="10.00">cat_mapping</text>
</g>
<!-- 18&#45;&gt;17 -->
<g id="edge21" class="edge">
<title>18&#45;&gt;17</title>
<path fill="none" stroke="grey" stroke-width="2" d="M474.98,-863.34C474.23,-856.75 473.35,-849.08 472.5,-841.67"/>
<polygon fill="grey" stroke="grey" stroke-width="2" points="476,-841.45 471.39,-831.91 469.05,-842.24 476,-841.45"/>
</g>
<!-- 19&#45;&gt;18 -->
<g id="edge23" class="edge">
<title>19&#45;&gt;18</title>
<path fill="none" stroke="grey" stroke-width="2" d="M467.28,-935.34C468.5,-928.75 469.93,-921.08 471.3,-913.67"/>
<polygon fill="grey" stroke="grey" stroke-width="2" points="474.74,-914.35 473.12,-903.88 467.86,-913.07 474.74,-914.35"/>
</g>
<!-- 20 -->
<g id="node21" class="node">
<title>20</title>
<path fill="none" stroke="#56b1d8" stroke-width="2" d="M461.5,-1044C461.5,-1044 320.5,-1044 320.5,-1044 314.5,-1044 308.5,-1038 308.5,-1032 308.5,-1032 308.5,-1020 308.5,-1020 308.5,-1014 314.5,-1008 320.5,-1008 320.5,-1008 461.5,-1008 461.5,-1008 467.5,-1008 473.5,-1014 473.5,-1020 473.5,-1020 473.5,-1032 473.5,-1032 473.5,-1038 467.5,-1044 461.5,-1044"/>
<text text-anchor="middle" x="391" y="-1023.5" font-family="sans" font-size="10.00">remove_headers_transcriptome</text>
</g>
<!-- 20&#45;&gt;19 -->
<g id="edge25" class="edge">
<title>20&#45;&gt;19</title>
<path fill="none" stroke="grey" stroke-width="2" d="M409.42,-1007.34C417.49,-999.6 427.13,-990.36 436.04,-981.81"/>
<polygon fill="grey" stroke="grey" stroke-width="2" points="438.35,-984.44 443.15,-975 433.51,-979.39 438.35,-984.44"/>
</g>
<!-- 21 -->
<g id="node22" class="node">
<title>21</title>
<path fill="none" stroke="#56a2d8" stroke-width="2" d="M441.5,-1116C441.5,-1116 340.5,-1116 340.5,-1116 334.5,-1116 328.5,-1110 328.5,-1104 328.5,-1104 328.5,-1092 328.5,-1092 328.5,-1086 334.5,-1080 340.5,-1080 340.5,-1080 441.5,-1080 441.5,-1080 447.5,-1080 453.5,-1086 453.5,-1092 453.5,-1092 453.5,-1104 453.5,-1104 453.5,-1110 447.5,-1116 441.5,-1116"/>
<text text-anchor="middle" x="391" y="-1095.5" font-family="sans" font-size="10.00">filter_nh_transcriptome</text>
</g>
<!-- 21&#45;&gt;20 -->
<g id="edge27" class="edge">
<title>21&#45;&gt;20</title>
<path fill="none" stroke="grey" stroke-width="2" d="M391,-1079.34C391,-1072.75 391,-1065.08 391,-1057.67"/>
<polygon fill="grey" stroke="grey" stroke-width="2" points="394.5,-1057.93 391,-1047.93 387.5,-1057.93 394.5,-1057.93"/>
</g>
<!-- 22 -->
<g id="node23" class="node">
<title>22</title>
<path fill="none" stroke="#56d8c9" stroke-width="2" d="M452,-1188C452,-1188 330,-1188 330,-1188 324,-1188 318,-1182 318,-1176 318,-1176 318,-1164 318,-1164 318,-1158 324,-1152 330,-1152 330,-1152 452,-1152 452,-1152 458,-1152 464,-1158 464,-1164 464,-1164 464,-1176 464,-1176 464,-1182 458,-1188 452,-1188"/>
<text text-anchor="middle" x="391" y="-1167.5" font-family="sans" font-size="10.00">merge_transcriptome_maps</text>
</g>
<!-- 22&#45;&gt;21 -->
<g id="edge28" class="edge">
<title>22&#45;&gt;21</title>
<path fill="none" stroke="grey" stroke-width="2" d="M391,-1151.34C391,-1144.75 391,-1137.08 391,-1129.67"/>
<polygon fill="grey" stroke="grey" stroke-width="2" points="394.5,-1129.93 391,-1119.93 387.5,-1129.93 394.5,-1129.93"/>
</g>
<!-- 23&#45;&gt;22 -->
<g id="edge30" class="edge">
<title>23&#45;&gt;22</title>
<path fill="none" stroke="grey" stroke-width="2" d="M513.27,-1295.02C489.07,-1270.48 445.52,-1226.3 417.46,-1197.84"/>
<polygon fill="grey" stroke="grey" stroke-width="2" points="420.23,-1195.66 410.71,-1190.99 415.24,-1200.57 420.23,-1195.66"/>
</g>
<!-- 24 -->
<g id="node25" class="node">
<title>24</title>
<path fill="none" stroke="#5673d8" stroke-width="2" d="M393.5,-1548C393.5,-1548 332.5,-1548 332.5,-1548 326.5,-1548 320.5,-1542 320.5,-1536 320.5,-1536 320.5,-1524 320.5,-1524 320.5,-1518 326.5,-1512 332.5,-1512 332.5,-1512 393.5,-1512 393.5,-1512 399.5,-1512 405.5,-1518 405.5,-1524 405.5,-1524 405.5,-1536 405.5,-1536 405.5,-1542 399.5,-1548 393.5,-1548"/>
<text text-anchor="middle" x="363" y="-1527.5" font-family="sans" font-size="10.00">fastx_collapser</text>
</g>
<!-- 24&#45;&gt;23 -->
<g id="edge31" class="edge">
<title>24&#45;&gt;23</title>
<path fill="none" stroke="grey" stroke-width="2" d="M368.34,-1511.13C378.6,-1479.22 403.7,-1411.71 444,-1368 454.29,-1356.84 467.47,-1347.2 480.43,-1339.32"/>
<polygon fill="grey" stroke="grey" stroke-width="2" points="482.14,-1342.38 489.07,-1334.36 478.65,-1336.31 482.14,-1342.38"/>
</g>
<!-- 30 -->
<g id="node31" class="node">
<title>30</title>
<path fill="none" stroke="#b6d856" stroke-width="2" d="M348,-1476C348,-1476 240,-1476 240,-1476 234,-1476 228,-1470 228,-1464 228,-1464 228,-1452 228,-1452 228,-1446 234,-1440 240,-1440 240,-1440 348,-1440 348,-1440 354,-1440 360,-1446 360,-1452 360,-1452 360,-1464 360,-1464 360,-1470 354,-1476 348,-1476"/>
<text text-anchor="middle" x="294" y="-1455.5" font-family="sans" font-size="10.00">filter_fasta_for_oligomap</text>
</g>
<!-- 24&#45;&gt;30 -->
<g id="edge41" class="edge">
<title>24&#45;&gt;30</title>
<path fill="none" stroke="grey" stroke-width="2" d="M345.59,-1511.34C338.05,-1503.69 329.05,-1494.56 320.69,-1486.08"/>
<polygon fill="grey" stroke="grey" stroke-width="2" points="323.28,-1483.72 313.77,-1479.06 318.3,-1488.64 323.28,-1483.72"/>
</g>
<!-- 24&#45;&gt;35 -->
<g id="edge47" class="edge">
<title>24&#45;&gt;35</title>
<path fill="none" stroke="grey" stroke-width="2" d="M406.42,-1518.52C448.47,-1508.37 513.44,-1492.69 566.13,-1479.97"/>
<polygon fill="grey" stroke="grey" stroke-width="2" points="566.71,-1483.43 575.61,-1477.68 565.07,-1476.62 566.71,-1483.43"/>
</g>
<!-- 25 -->
<g id="node26" class="node">
<title>25</title>
<path fill="none" stroke="#569ad8" stroke-width="2" d="M379.5,-1620C379.5,-1620 346.5,-1620 346.5,-1620 340.5,-1620 334.5,-1614 334.5,-1608 334.5,-1608 334.5,-1596 334.5,-1596 334.5,-1590 340.5,-1584 346.5,-1584 346.5,-1584 379.5,-1584 379.5,-1584 385.5,-1584 391.5,-1590 391.5,-1596 391.5,-1596 391.5,-1608 391.5,-1608 391.5,-1614 385.5,-1620 379.5,-1620"/>
<text text-anchor="middle" x="363" y="-1599.5" font-family="sans" font-size="10.00">cutadapt</text>
</g>
<!-- 25&#45;&gt;24 -->
<g id="edge34" class="edge">
<title>25&#45;&gt;24</title>
<path fill="none" stroke="grey" stroke-width="2" d="M363,-1583.34C363,-1576.75 363,-1569.08 363,-1561.67"/>
<polygon fill="grey" stroke="grey" stroke-width="2" points="366.5,-1561.93 363,-1551.93 359.5,-1561.93 366.5,-1561.93"/>
</g>
<!-- 26 -->
<g id="node27" class="node">
<title>26</title>
<path fill="none" stroke="#d87556" stroke-width="2" d="M396,-1692C396,-1692 330,-1692 330,-1692 324,-1692 318,-1686 318,-1680 318,-1680 318,-1668 318,-1668 318,-1662 324,-1656 330,-1656 330,-1656 396,-1656 396,-1656 402,-1656 408,-1662 408,-1668 408,-1668 408,-1680 408,-1680 408,-1686 402,-1692 396,-1692"/>
<text text-anchor="middle" x="363" y="-1671.5" font-family="sans" font-size="10.00">fasta_formatter</text>
</g>
<!-- 26&#45;&gt;25 -->
<g id="edge35" class="edge">
<title>26&#45;&gt;25</title>
<path fill="none" stroke="grey" stroke-width="2" d="M363,-1655.34C363,-1648.75 363,-1641.08 363,-1633.67"/>
<polygon fill="grey" stroke="grey" stroke-width="2" points="366.5,-1633.93 363,-1623.93 359.5,-1633.93 366.5,-1633.93"/>
</g>
<!-- 27 -->
<g id="node28" class="node">
<title>27</title>
<path fill="none" stroke="#59d856" stroke-width="2" d="M378,-1764C378,-1764 348,-1764 348,-1764 342,-1764 336,-1758 336,-1752 336,-1752 336,-1740 336,-1740 336,-1734 342,-1728 348,-1728 348,-1728 378,-1728 378,-1728 384,-1728 390,-1734 390,-1740 390,-1740 390,-1752 390,-1752 390,-1758 384,-1764 378,-1764"/>
<text text-anchor="middle" x="363" y="-1743.5" font-family="sans" font-size="10.00">start</text>
</g>
<!-- 27&#45;&gt;26 -->
<g id="edge36" class="edge">
<title>27&#45;&gt;26</title>
<path fill="none" stroke="grey" stroke-width="2" d="M363,-1727.34C363,-1720.75 363,-1713.08 363,-1705.67"/>
<polygon fill="grey" stroke="grey" stroke-width="2" points="366.5,-1705.93 363,-1695.93 359.5,-1705.93 366.5,-1705.93"/>
</g>
<!-- 28 -->
<g id="node29" class="node">
<title>28</title>
<path fill="none" stroke="#5663d8" stroke-width="2" d="M236,-1260C236,-1260 96,-1260 96,-1260 90,-1260 84,-1254 84,-1248 84,-1248 84,-1236 84,-1236 84,-1230 90,-1224 96,-1224 96,-1224 236,-1224 236,-1224 242,-1224 248,-1230 248,-1236 248,-1236 248,-1248 248,-1248 248,-1254 242,-1260 236,-1260"/>
<text text-anchor="middle" x="166" y="-1239.5" font-family="sans" font-size="10.00">oligomap_transcriptome_toSAM</text>
</g>
<!-- 28&#45;&gt;22 -->
<g id="edge29" class="edge">
<title>28&#45;&gt;22</title>
<path fill="none" stroke="grey" stroke-width="2" d="M223.65,-1223.06C253.42,-1213.8 289.98,-1202.43 321.32,-1192.68"/>
<polygon fill="grey" stroke="grey" stroke-width="2" points="322.1,-1196.1 330.61,-1189.79 320.02,-1189.42 322.1,-1196.1"/>
</g>
<!-- 29&#45;&gt;28 -->
<g id="edge38" class="edge">
<title>29&#45;&gt;28</title>
<path fill="none" stroke="grey" stroke-width="2" d="M99.36,-1367.29C85.07,-1348.85 68,-1319.43 81,-1296 87.46,-1284.36 97.65,-1274.94 108.77,-1267.46"/>
<polygon fill="grey" stroke="grey" stroke-width="2" points="110.31,-1270.62 117.04,-1262.44 106.67,-1264.64 110.31,-1270.62"/>
</g>
<!-- 31 -->
<g id="node32" class="node">
<title>31</title>
<path fill="none" stroke="#566bd8" stroke-width="2" d="M230,-1332C230,-1332 102,-1332 102,-1332 96,-1332 90,-1326 90,-1320 90,-1320 90,-1308 90,-1308 90,-1302 96,-1296 102,-1296 102,-1296 230,-1296 230,-1296 236,-1296 242,-1302 242,-1308 242,-1308 242,-1320 242,-1320 242,-1326 236,-1332 230,-1332"/>
<text text-anchor="middle" x="166" y="-1311.5" font-family="sans" font-size="10.00">sort_transcriptome_oligomap</text>
</g>
<!-- 29&#45;&gt;31 -->
<g id="edge42" class="edge">
<title>29&#45;&gt;31</title>
<path fill="none" stroke="grey" stroke-width="2" d="M127.87,-1367.34C133.2,-1360.01 139.53,-1351.34 145.47,-1343.18"/>
<polygon fill="grey" stroke="grey" stroke-width="2" points="148.11,-1345.49 151.17,-1335.35 142.46,-1341.37 148.11,-1345.49"/>
</g>
<!-- 30&#45;&gt;29 -->
<g id="edge40" class="edge">
<title>30&#45;&gt;29</title>
<path fill="none" stroke="grey" stroke-width="2" d="M248.37,-1439.15C225.42,-1430.18 197.35,-1419.21 172.9,-1409.64"/>
<polygon fill="grey" stroke="grey" stroke-width="2" points="174.27,-1406.42 163.68,-1406.04 171.72,-1412.94 174.27,-1406.42"/>
</g>
<!-- 30&#45;&gt;37 -->
<g id="edge53" class="edge">
<title>30&#45;&gt;37</title>
<path fill="none" stroke="grey" stroke-width="2" d="M294,-1439.34C294,-1432.75 294,-1425.08 294,-1417.67"/>
<polygon fill="grey" stroke="grey" stroke-width="2" points="297.5,-1417.93 294,-1407.93 290.5,-1417.93 297.5,-1417.93"/>
</g>
<!-- 31&#45;&gt;28 -->
<g id="edge37" class="edge">
<title>31&#45;&gt;28</title>
<path fill="none" stroke="grey" stroke-width="2" d="M166,-1295.34C166,-1288.75 166,-1281.08 166,-1273.67"/>
<polygon fill="grey" stroke="grey" stroke-width="2" points="169.5,-1273.93 166,-1263.93 162.5,-1273.93 169.5,-1273.93"/>
</g>
<!-- 32 -->
<g id="node33" class="node">
<title>32</title>
<path fill="none" stroke="#56d8d0" stroke-width="2" d="M647.5,-972C647.5,-972 532.5,-972 532.5,-972 526.5,-972 520.5,-966 520.5,-960 520.5,-960 520.5,-948 520.5,-948 520.5,-942 526.5,-936 532.5,-936 532.5,-936 647.5,-936 647.5,-936 653.5,-936 659.5,-942 659.5,-948 659.5,-948 659.5,-960 659.5,-960 659.5,-966 653.5,-972 647.5,-972"/>
<text text-anchor="middle" x="590" y="-951.5" font-family="sans" font-size="10.00">remove_headers_genome</text>
</g>
<!-- 32&#45;&gt;18 -->
<g id="edge24" class="edge">
<title>32&#45;&gt;18</title>
<path fill="none" stroke="grey" stroke-width="2" d="M561.19,-935.15C547.65,-926.76 531.28,-916.62 516.59,-907.52"/>
<polygon fill="grey" stroke="grey" stroke-width="2" points="518.67,-904.7 508.33,-902.41 514.99,-910.65 518.67,-904.7"/>
</g>
<!-- 33 -->
<g id="node34" class="node">
<title>33</title>
<path fill="none" stroke="#56d8b1" stroke-width="2" d="M663.5,-1116C663.5,-1116 588.5,-1116 588.5,-1116 582.5,-1116 576.5,-1110 576.5,-1104 576.5,-1104 576.5,-1092 576.5,-1092 576.5,-1086 582.5,-1080 588.5,-1080 588.5,-1080 663.5,-1080 663.5,-1080 669.5,-1080 675.5,-1086 675.5,-1092 675.5,-1092 675.5,-1104 675.5,-1104 675.5,-1110 669.5,-1116 663.5,-1116"/>
<text text-anchor="middle" x="626" y="-1095.5" font-family="sans" font-size="10.00">nh_filter_genome</text>
</g>
<!-- 33&#45;&gt;32 -->
<g id="edge43" class="edge">
<title>33&#45;&gt;32</title>
<path fill="none" stroke="grey" stroke-width="2" d="M621.44,-1079.02C615.46,-1055.44 604.89,-1013.73 597.67,-985.25"/>
<polygon fill="grey" stroke="grey" stroke-width="2" points="601.12,-984.61 595.27,-975.77 594.33,-986.33 601.12,-984.61"/>
</g>
<!-- 34 -->
<g id="node35" class="node">
<title>34</title>
<path fill="none" stroke="#56d88a" stroke-width="2" d="M674,-1188C674,-1188 578,-1188 578,-1188 572,-1188 566,-1182 566,-1176 566,-1176 566,-1164 566,-1164 566,-1158 572,-1152 578,-1152 578,-1152 674,-1152 674,-1152 680,-1152 686,-1158 686,-1164 686,-1164 686,-1176 686,-1176 686,-1182 680,-1188 674,-1188"/>
<text text-anchor="middle" x="626" y="-1167.5" font-family="sans" font-size="10.00">merge_genome_maps</text>
</g>
<!-- 34&#45;&gt;33 -->
<g id="edge44" class="edge">
<title>34&#45;&gt;33</title>
<path fill="none" stroke="grey" stroke-width="2" d="M626,-1151.34C626,-1144.75 626,-1137.08 626,-1129.67"/>
<polygon fill="grey" stroke="grey" stroke-width="2" points="629.5,-1129.93 626,-1119.93 622.5,-1129.93 629.5,-1129.93"/>
</g>
<!-- 35&#45;&gt;34 -->
<g id="edge46" class="edge">
<title>35&#45;&gt;34</title>
<path fill="none" stroke="grey" stroke-width="2" d="M665.18,-1439.25C671.23,-1429.35 677.89,-1416.52 681,-1404 684.85,-1388.47 683.17,-1383.85 681,-1368 672.7,-1307.42 650.68,-1239.2 637.16,-1201.04"/>
<polygon fill="grey" stroke="grey" stroke-width="2" points="640.47,-1199.92 633.79,-1191.7 633.89,-1202.29 640.47,-1199.92"/>
</g>
<!-- 36 -->
<g id="node37" class="node">
<title>36</title>
<path fill="none" stroke="#d8ac56" stroke-width="2" d="M418,-1260C418,-1260 304,-1260 304,-1260 298,-1260 292,-1254 292,-1248 292,-1248 292,-1236 292,-1236 292,-1230 298,-1224 304,-1224 304,-1224 418,-1224 418,-1224 424,-1224 430,-1230 430,-1236 430,-1236 430,-1248 430,-1248 430,-1254 424,-1260 418,-1260"/>
<text text-anchor="middle" x="361" y="-1239.5" font-family="sans" font-size="10.00">oligomap_genome_toSAM</text>
</g>
<!-- 36&#45;&gt;34 -->
<g id="edge45" class="edge">
<title>36&#45;&gt;34</title>
<path fill="none" stroke="grey" stroke-width="2" d="M428.9,-1223.06C466.73,-1213.07 513.87,-1200.62 552.56,-1190.4"/>
<polygon fill="grey" stroke="grey" stroke-width="2" points="553.36,-1193.81 562.14,-1187.87 551.58,-1187.04 553.36,-1193.81"/>
</g>
<!-- 37&#45;&gt;36 -->
<g id="edge50" class="edge">
<title>37&#45;&gt;36</title>
<path fill="none" stroke="grey" stroke-width="2" d="M287.99,-1367.21C282.76,-1348.44 277.62,-1318.51 289,-1296 294.56,-1285 303.6,-1275.72 313.43,-1268.16"/>
<polygon fill="grey" stroke="grey" stroke-width="2" points="315.15,-1271.22 321.35,-1262.63 311.15,-1265.48 315.15,-1271.22"/>
</g>
<!-- 38 -->
<g id="node39" class="node">
<title>38</title>
<path fill="none" stroke="#56d8a9" stroke-width="2" d="M412,-1332C412,-1332 310,-1332 310,-1332 304,-1332 298,-1326 298,-1320 298,-1320 298,-1308 298,-1308 298,-1302 304,-1296 310,-1296 310,-1296 412,-1296 412,-1296 418,-1296 424,-1302 424,-1308 424,-1308 424,-1320 424,-1320 424,-1326 418,-1332 412,-1332"/>
<text text-anchor="middle" x="361" y="-1311.5" font-family="sans" font-size="10.00">sort_genome_oligomap</text>
</g>
<!-- 37&#45;&gt;38 -->
<g id="edge54" class="edge">
<title>37&#45;&gt;38</title>
<path fill="none" stroke="grey" stroke-width="2" d="M310.91,-1367.34C318.23,-1359.69 326.97,-1350.56 335.08,-1342.08"/>
<polygon fill="grey" stroke="grey" stroke-width="2" points="337.39,-1344.73 341.77,-1335.09 332.33,-1339.89 337.39,-1344.73"/>
</g>
<!-- 38&#45;&gt;36 -->
<g id="edge51" class="edge">
<title>38&#45;&gt;36</title>
<path fill="none" stroke="grey" stroke-width="2" d="M361,-1295.34C361,-1288.75 361,-1281.08 361,-1273.67"/>
<polygon fill="grey" stroke="grey" stroke-width="2" points="364.5,-1273.93 361,-1263.93 357.5,-1273.93 364.5,-1273.93"/>
</g>
<!-- 39 -->
<g id="node40" class="node">
<title>39</title>
<path fill="none" stroke="#56d8a2" stroke-width="2" d="M604,-108C604,-108 548,-108 548,-108 542,-108 536,-102 536,-96 536,-96 536,-84 536,-84 536,-78 542,-72 548,-72 548,-72 604,-72 604,-72 610,-72 616,-78 616,-84 616,-84 616,-96 616,-96 616,-102 610,-108 604,-108"/>
<text text-anchor="middle" x="576" y="-87.5" font-family="sans" font-size="10.00">merge_tables</text>
</g>
<!-- 39&#45;&gt;0 -->
<g id="edge3" class="edge">
<title>39&#45;&gt;0</title>
<path fill="none" stroke="grey" stroke-width="2" d="M594.67,-71.34C602.85,-63.6 612.62,-54.36 621.66,-45.81"/>
<polygon fill="grey" stroke="grey" stroke-width="2" points="624.02,-48.4 628.88,-38.98 619.21,-43.31 624.02,-48.4"/>
</g>
<!-- 40 -->
<g id="node41" class="node">
<title>40</title>
<path fill="none" stroke="#d86e56" stroke-width="2" d="M499.5,-180C499.5,-180 448.5,-180 448.5,-180 442.5,-180 436.5,-174 436.5,-168 436.5,-168 436.5,-156 436.5,-156 436.5,-150 442.5,-144 448.5,-144 448.5,-144 499.5,-144 499.5,-144 505.5,-144 511.5,-150 511.5,-156 511.5,-156 511.5,-168 511.5,-168 511.5,-174 505.5,-180 499.5,-180"/>
<text text-anchor="middle" x="474" y="-159.5" font-family="sans" font-size="10.00">quant_mirna</text>
</g>
<!-- 40&#45;&gt;39 -->
<g id="edge55" class="edge">
<title>40&#45;&gt;39</title>
<path fill="none" stroke="grey" stroke-width="2" d="M500,-143.15C511.99,-134.93 526.43,-125.02 539.49,-116.06"/>
<polygon fill="grey" stroke="grey" stroke-width="2" points="541.28,-119.07 547.55,-110.53 537.32,-113.3 541.28,-119.07"/>
</g>
<!-- 41&#45;&gt;40 -->
<g id="edge57" class="edge">
<title>41&#45;&gt;40</title>
<path fill="none" stroke="grey" stroke-width="2" d="M527.83,-215.34C519.88,-207.6 510.37,-198.36 501.57,-189.81"/>
<polygon fill="grey" stroke="grey" stroke-width="2" points="504.19,-187.47 494.58,-183.01 499.31,-192.49 504.19,-187.47"/>
</g>
<!-- 44 -->
<g id="node45" class="node">
<title>44</title>
<path fill="none" stroke="#c6d856" stroke-width="2" d="M610,-180C610,-180 542,-180 542,-180 536,-180 530,-174 530,-168 530,-168 530,-156 530,-156 530,-150 536,-144 542,-144 542,-144 610,-144 610,-144 616,-144 622,-150 622,-156 622,-156 622,-168 622,-168 622,-174 616,-180 610,-180"/>
<text text-anchor="middle" x="576" y="-159.5" font-family="sans" font-size="10.00">quant_mirna_pri</text>
</g>
<!-- 41&#45;&gt;44 -->
<g id="edge62" class="edge">
<title>41&#45;&gt;44</title>
<path fill="none" stroke="grey" stroke-width="2" d="M553.57,-215.34C556.5,-208.51 559.93,-200.5 563.21,-192.83"/>
<polygon fill="grey" stroke="grey" stroke-width="2" points="566.41,-194.25 567.14,-183.68 559.98,-191.5 566.41,-194.25"/>
</g>
<!-- 42 -->
<g id="node43" class="node">
<title>42</title>
<path fill="none" stroke="#56c1d8" stroke-width="2" d="M545.5,-324C545.5,-324 478.5,-324 478.5,-324 472.5,-324 466.5,-318 466.5,-312 466.5,-312 466.5,-300 466.5,-300 466.5,-294 472.5,-288 478.5,-288 478.5,-288 545.5,-288 545.5,-288 551.5,-288 557.5,-294 557.5,-300 557.5,-300 557.5,-312 557.5,-312 557.5,-318 551.5,-324 545.5,-324"/>
<text text-anchor="middle" x="512" y="-303.5" font-family="sans" font-size="10.00">sort_alignments</text>
</g>
<!-- 42&#45;&gt;41 -->
<g id="edge59" class="edge">
<title>42&#45;&gt;41</title>
<path fill="none" stroke="grey" stroke-width="2" d="M520.58,-287.34C523.94,-280.43 527.88,-272.31 531.64,-264.56"/>
<polygon fill="grey" stroke="grey" stroke-width="2" points="534.76,-266.15 535.98,-255.62 528.46,-263.09 534.76,-266.15"/>
</g>
<!-- 43&#45;&gt;42 -->
<g id="edge60" class="edge">
<title>43&#45;&gt;42</title>
<path fill="none" stroke="grey" stroke-width="2" d="M506.77,-359.34C507.42,-352.75 508.19,-345.08 508.93,-337.67"/>
<polygon fill="grey" stroke="grey" stroke-width="2" points="512.4,-338.21 509.91,-327.91 505.43,-337.52 512.4,-338.21"/>
</g>
<!-- 44&#45;&gt;39 -->
<g id="edge56" class="edge">
<title>44&#45;&gt;39</title>
<path fill="none" stroke="grey" stroke-width="2" d="M576,-143.34C576,-136.75 576,-129.08 576,-121.67"/>
<polygon fill="grey" stroke="grey" stroke-width="2" points="579.5,-121.93 576,-111.93 572.5,-121.93 579.5,-121.93"/>
</g>
</g>
</svg>
