<?xml version="1.0" encoding="UTF-8" standalone="no"?>
<!DOCTYPE svg PUBLIC "-//W3C//DTD SVG 1.1//EN"
 "http://www.w3.org/Graphics/SVG/1.1/DTD/svg11.dtd">
<!-- Generated by graphviz version 7.1.0 (20230122.1345)
 -->
<!-- Title: snakemake_dag Pages: 1 -->
<svg width="977pt" height="1844pt"
 viewBox="0.00 0.00 977.00 1844.00" xmlns="http://www.w3.org/2000/svg" xmlns:xlink="http://www.w3.org/1999/xlink">
<g id="graph0" class="graph" transform="scale(1 1) rotate(0) translate(4 1840)">
<title>snakemake_dag</title>
<polygon fill="white" stroke="none" points="-4,4 -4,-1840 973,-1840 973,4 -4,4"/>
<!-- 0 -->
<g id="node1" class="node">
<title>0</title>
<path fill="none" stroke="#afd856" stroke-width="2" d="M530,-36C530,-36 500,-36 500,-36 494,-36 488,-30 488,-24 488,-24 488,-12 488,-12 488,-6 494,0 500,0 500,0 530,0 530,0 536,0 542,-6 542,-12 542,-12 542,-24 542,-24 542,-30 536,-36 530,-36"/>
<text text-anchor="middle" x="515" y="-15.5" font-family="sans" font-size="10.00">finish</text>
</g>
<!-- 1 -->
<g id="node2" class="node">
<title>1</title>
<path fill="none" stroke="#d86656" stroke-width="2" d="M904.5,-1476C904.5,-1476 719.5,-1476 719.5,-1476 713.5,-1476 707.5,-1470 707.5,-1464 707.5,-1464 707.5,-1452 707.5,-1452 707.5,-1446 713.5,-1440 719.5,-1440 719.5,-1440 904.5,-1440 904.5,-1440 910.5,-1440 916.5,-1446 916.5,-1452 916.5,-1452 916.5,-1464 916.5,-1464 916.5,-1470 910.5,-1476 904.5,-1476"/>
<text text-anchor="middle" x="812" y="-1455.5" font-family="sans" font-size="10.00">generate_segemehl_index_transcriptome</text>
</g>
<!-- 1&#45;&gt;0 -->
<g id="edge1" class="edge">
<title>1&#45;&gt;0</title>
<path fill="none" stroke="grey" stroke-width="2" d="M812,-1439.07C812,-1412.13 812,-1359.62 812,-1315 812,-1315 812,-1315 812,-161 812,-48.78 637.27,-25.17 555.85,-20.26"/>
<polygon fill="grey" stroke="grey" stroke-width="2" points="556.13,-16.77 545.96,-19.75 555.77,-23.76 556.13,-16.77"/>
</g>
<!-- 26 -->
<g id="node27" class="node">
<title>26</title>
<path fill="none" stroke="#56b9d8" stroke-width="2" d="M563.5,-1404C563.5,-1404 410.5,-1404 410.5,-1404 404.5,-1404 398.5,-1398 398.5,-1392 398.5,-1392 398.5,-1380 398.5,-1380 398.5,-1374 404.5,-1368 410.5,-1368 410.5,-1368 563.5,-1368 563.5,-1368 569.5,-1368 575.5,-1374 575.5,-1380 575.5,-1380 575.5,-1392 575.5,-1392 575.5,-1398 569.5,-1404 563.5,-1404"/>
<text text-anchor="middle" x="487" y="-1383.5" font-family="sans" font-size="10.00">mapping_transcriptome_segemehl</text>
</g>
<!-- 1&#45;&gt;26 -->
<g id="edge38" class="edge">
<title>1&#45;&gt;26</title>
<path fill="none" stroke="grey" stroke-width="2" d="M728.73,-1439.06C684.19,-1429.47 629.15,-1417.62 582.84,-1407.64"/>
<polygon fill="grey" stroke="grey" stroke-width="2" points="583.81,-1404.27 573.3,-1405.59 582.34,-1411.11 583.81,-1404.27"/>
</g>
<!-- 2 -->
<g id="node3" class="node">
<title>2</title>
<path fill="none" stroke="#569ad8" stroke-width="2" d="M672.5,-1548C672.5,-1548 633.5,-1548 633.5,-1548 627.5,-1548 621.5,-1542 621.5,-1536 621.5,-1536 621.5,-1524 621.5,-1524 621.5,-1518 627.5,-1512 633.5,-1512 633.5,-1512 672.5,-1512 672.5,-1512 678.5,-1512 684.5,-1518 684.5,-1524 684.5,-1524 684.5,-1536 684.5,-1536 684.5,-1542 678.5,-1548 672.5,-1548"/>
<text text-anchor="middle" x="653" y="-1527.5" font-family="sans" font-size="10.00">trim_fasta</text>
</g>
<!-- 2&#45;&gt;1 -->
<g id="edge10" class="edge">
<title>2&#45;&gt;1</title>
<path fill="none" stroke="grey" stroke-width="2" d="M685.18,-1514.83C706.54,-1505.43 735.08,-1492.86 759.67,-1482.04"/>
<polygon fill="grey" stroke="grey" stroke-width="2" points="760.87,-1485.33 768.61,-1478.1 758.05,-1478.93 760.87,-1485.33"/>
</g>
<!-- 2&#45;&gt;26 -->
<g id="edge39" class="edge">
<title>2&#45;&gt;26</title>
<path fill="none" stroke="grey" stroke-width="2" d="M620.85,-1515.44C617.87,-1514.25 614.88,-1513.09 612,-1512 565.44,-1494.46 539.06,-1513.18 506,-1476 491.98,-1460.23 487.41,-1436.68 486.26,-1417.77"/>
<polygon fill="grey" stroke="grey" stroke-width="2" points="489.76,-1417.93 486.01,-1408.02 482.77,-1418.11 489.76,-1417.93"/>
</g>
<!-- 32 -->
<g id="node33" class="node">
<title>32</title>
<path fill="none" stroke="#56d8a9" stroke-width="2" d="M677,-1476C677,-1476 527,-1476 527,-1476 521,-1476 515,-1470 515,-1464 515,-1464 515,-1452 515,-1452 515,-1446 521,-1440 527,-1440 527,-1440 677,-1440 677,-1440 683,-1440 689,-1446 689,-1452 689,-1452 689,-1464 689,-1464 689,-1470 683,-1476 677,-1476"/>
<text text-anchor="middle" x="602" y="-1455.5" font-family="sans" font-size="10.00">mapping_transcriptome_oligomap</text>
</g>
<!-- 2&#45;&gt;32 -->
<g id="edge46" class="edge">
<title>2&#45;&gt;32</title>
<path fill="none" stroke="grey" stroke-width="2" d="M640.13,-1511.34C634.8,-1504.01 628.47,-1495.34 622.53,-1487.18"/>
<polygon fill="grey" stroke="grey" stroke-width="2" points="625.54,-1485.37 616.83,-1479.35 619.89,-1489.49 625.54,-1485.37"/>
</g>
<!-- 3 -->
<g id="node4" class="node">
<title>3</title>
<path fill="none" stroke="#567bd8" stroke-width="2" d="M673.5,-1620C673.5,-1620 554.5,-1620 554.5,-1620 548.5,-1620 542.5,-1614 542.5,-1608 542.5,-1608 542.5,-1596 542.5,-1596 542.5,-1590 548.5,-1584 554.5,-1584 554.5,-1584 673.5,-1584 673.5,-1584 679.5,-1584 685.5,-1590 685.5,-1596 685.5,-1596 685.5,-1608 685.5,-1608 685.5,-1614 679.5,-1620 673.5,-1620"/>
<text text-anchor="middle" x="614" y="-1599.5" font-family="sans" font-size="10.00">extract_transcriptome_seqs</text>
</g>
<!-- 3&#45;&gt;2 -->
<g id="edge11" class="edge">
<title>3&#45;&gt;2</title>
<path fill="none" stroke="grey" stroke-width="2" d="M623.84,-1583.34C627.74,-1576.34 632.32,-1568.12 636.69,-1560.28"/>
<polygon fill="grey" stroke="grey" stroke-width="2" points="639.74,-1561.99 641.55,-1551.55 633.63,-1558.58 639.74,-1561.99"/>
</g>
<!-- 4 -->
<g id="node5" class="node">
<title>4</title>
<path fill="none" stroke="#566bd8" stroke-width="2" d="M371.5,-1692C371.5,-1692 282.5,-1692 282.5,-1692 276.5,-1692 270.5,-1686 270.5,-1680 270.5,-1680 270.5,-1668 270.5,-1668 270.5,-1662 276.5,-1656 282.5,-1656 282.5,-1656 371.5,-1656 371.5,-1656 377.5,-1656 383.5,-1662 383.5,-1668 383.5,-1668 383.5,-1680 383.5,-1680 383.5,-1686 377.5,-1692 371.5,-1692"/>
<text text-anchor="middle" x="327" y="-1671.5" font-family="sans" font-size="10.00">trim_genome_seq_id</text>
</g>
<!-- 4&#45;&gt;3 -->
<g id="edge12" class="edge">
<title>4&#45;&gt;3</title>
<path fill="none" stroke="grey" stroke-width="2" d="M384.39,-1659C425.82,-1648.9 482.45,-1635.09 529.1,-1623.71"/>
<polygon fill="grey" stroke="grey" stroke-width="2" points="529.84,-1627.13 538.72,-1621.36 528.18,-1620.33 529.84,-1627.13"/>
</g>
<!-- 5 -->
<g id="node6" class="node">
<title>5</title>
<path fill="none" stroke="#d88d56" stroke-width="2" d="M280,-1620C280,-1620 122,-1620 122,-1620 116,-1620 110,-1614 110,-1608 110,-1608 110,-1596 110,-1596 110,-1590 116,-1584 122,-1584 122,-1584 280,-1584 280,-1584 286,-1584 292,-1590 292,-1596 292,-1596 292,-1608 292,-1608 292,-1614 286,-1620 280,-1620"/>
<text text-anchor="middle" x="201" y="-1599.5" font-family="sans" font-size="10.00">generate_segemehl_index_genome</text>
</g>
<!-- 4&#45;&gt;5 -->
<g id="edge13" class="edge">
<title>4&#45;&gt;5</title>
<path fill="none" stroke="grey" stroke-width="2" d="M294.88,-1655.15C279.48,-1646.6 260.8,-1636.22 244.18,-1626.99"/>
<polygon fill="grey" stroke="grey" stroke-width="2" points="246.15,-1624.08 235.71,-1622.28 242.75,-1630.2 246.15,-1624.08"/>
</g>
<!-- 8 -->
<g id="node9" class="node">
<title>8</title>
<path fill="none" stroke="#68d856" stroke-width="2" d="M116,-972C116,-972 12,-972 12,-972 6,-972 0,-966 0,-960 0,-960 0,-948 0,-948 0,-942 6,-936 12,-936 12,-936 116,-936 116,-936 122,-936 128,-942 128,-948 128,-948 128,-960 128,-960 128,-966 122,-972 116,-972"/>
<text text-anchor="middle" x="64" y="-951.5" font-family="sans" font-size="10.00">create_header_genome</text>
</g>
<!-- 4&#45;&gt;8 -->
<g id="edge15" class="edge">
<title>4&#45;&gt;8</title>
<path fill="none" stroke="grey" stroke-width="2" d="M269.66,-1666.24C210.91,-1658.18 124.87,-1642.85 101,-1620 71.32,-1591.59 76,-1572.09 76,-1531 76,-1531 76,-1531 76,-1097 76,-1058.52 71.57,-1014.37 68.09,-985.66"/>
<polygon fill="grey" stroke="grey" stroke-width="2" points="71.59,-985.38 66.86,-975.9 64.64,-986.25 71.59,-985.38"/>
</g>
<!-- 10 -->
<g id="node11" class="node">
<title>10</title>
<path fill="none" stroke="#d87556" stroke-width="2" d="M957,-900C957,-900 879,-900 879,-900 873,-900 867,-894 867,-888 867,-888 867,-876 867,-876 867,-870 873,-864 879,-864 879,-864 957,-864 957,-864 963,-864 969,-870 969,-876 969,-876 969,-888 969,-888 969,-894 963,-900 957,-900"/>
<text text-anchor="middle" x="918" y="-879.5" font-family="sans" font-size="10.00">create_index_fasta</text>
</g>
<!-- 4&#45;&gt;10 -->
<g id="edge17" class="edge">
<title>4&#45;&gt;10</title>
<path fill="none" stroke="grey" stroke-width="2" d="M384.27,-1660.06C391.57,-1658.59 398.95,-1657.2 406,-1656 527.23,-1635.45 945,-1653.96 945,-1531 945,-1531 945,-1531 945,-1025 945,-985.79 934.94,-941.54 927.1,-913.02"/>
<polygon fill="grey" stroke="grey" stroke-width="2" points="930.54,-912.29 924.43,-903.64 923.81,-914.21 930.54,-912.29"/>
</g>
<!-- 38 -->
<g id="node39" class="node">
<title>38</title>
<path fill="none" stroke="#a7d856" stroke-width="2" d="M317.5,-1548C317.5,-1548 190.5,-1548 190.5,-1548 184.5,-1548 178.5,-1542 178.5,-1536 178.5,-1536 178.5,-1524 178.5,-1524 178.5,-1518 184.5,-1512 190.5,-1512 190.5,-1512 317.5,-1512 317.5,-1512 323.5,-1512 329.5,-1518 329.5,-1524 329.5,-1524 329.5,-1536 329.5,-1536 329.5,-1542 323.5,-1548 317.5,-1548"/>
<text text-anchor="middle" x="254" y="-1527.5" font-family="sans" font-size="10.00">mapping_genome_segemehl</text>
</g>
<!-- 4&#45;&gt;38 -->
<g id="edge55" class="edge">
<title>4&#45;&gt;38</title>
<path fill="none" stroke="grey" stroke-width="2" d="M324.16,-1655.05C320.67,-1636.4 313.61,-1606.82 301,-1584 295.9,-1574.77 288.94,-1565.77 281.94,-1557.89"/>
<polygon fill="grey" stroke="grey" stroke-width="2" points="284.65,-1555.67 275.26,-1550.77 279.55,-1560.46 284.65,-1555.67"/>
</g>
<!-- 40 -->
<g id="node41" class="node">
<title>40</title>
<path fill="none" stroke="#56d863" stroke-width="2" d="M403,-1476C403,-1476 279,-1476 279,-1476 273,-1476 267,-1470 267,-1464 267,-1464 267,-1452 267,-1452 267,-1446 273,-1440 279,-1440 279,-1440 403,-1440 403,-1440 409,-1440 415,-1446 415,-1452 415,-1452 415,-1464 415,-1464 415,-1470 409,-1476 403,-1476"/>
<text text-anchor="middle" x="341" y="-1455.5" font-family="sans" font-size="10.00">mapping_genome_oligomap</text>
</g>
<!-- 4&#45;&gt;40 -->
<g id="edge59" class="edge">
<title>4&#45;&gt;40</title>
<path fill="none" stroke="grey" stroke-width="2" d="M329.12,-1655.23C331.91,-1631.02 336.73,-1586.3 339,-1548 340.15,-1528.62 340.65,-1506.83 340.86,-1489.66"/>
<polygon fill="grey" stroke="grey" stroke-width="2" points="344.36,-1489.8 340.96,-1479.77 337.36,-1489.74 344.36,-1489.8"/>
</g>
<!-- 5&#45;&gt;0 -->
<g id="edge2" class="edge">
<title>5&#45;&gt;0</title>
<path fill="none" stroke="grey" stroke-width="2" d="M188.16,-1583.14C181.56,-1573.22 173.9,-1560.39 169,-1548 154.12,-1510.39 150,-1499.45 150,-1459 150,-1459 150,-1459 150,-1385 150,-1161.87 156,-1106.13 156,-883 156,-883 156,-883 156,-161 156,-93.13 380.65,-43.78 474.53,-26.12"/>
<polygon fill="grey" stroke="grey" stroke-width="2" points="474.95,-29.6 484.15,-24.34 473.68,-22.72 474.95,-29.6"/>
</g>
<!-- 5&#45;&gt;38 -->
<g id="edge53" class="edge">
<title>5&#45;&gt;38</title>
<path fill="none" stroke="grey" stroke-width="2" d="M214.37,-1583.34C219.92,-1576.01 226.49,-1567.34 232.67,-1559.18"/>
<polygon fill="grey" stroke="grey" stroke-width="2" points="235.37,-1561.4 238.62,-1551.32 229.79,-1557.18 235.37,-1561.4"/>
</g>
<!-- 6 -->
<g id="node7" class="node">
<title>6</title>
<path fill="none" stroke="#5692d8" stroke-width="2" d="M633,-1116C633,-1116 599,-1116 599,-1116 593,-1116 587,-1110 587,-1104 587,-1104 587,-1092 587,-1092 587,-1086 593,-1080 599,-1080 599,-1080 633,-1080 633,-1080 639,-1080 645,-1086 645,-1092 645,-1092 645,-1104 645,-1104 645,-1110 639,-1116 633,-1116"/>
<text text-anchor="middle" x="616" y="-1095.5" font-family="sans" font-size="10.00">gtftobed</text>
</g>
<!-- 6&#45;&gt;0 -->
<g id="edge5" class="edge">
<title>6&#45;&gt;0</title>
<path fill="none" stroke="grey" stroke-width="2" d="M616,-1079.07C616,-1052.13 616,-999.62 616,-955 616,-955 616,-955 616,-161 616,-113.57 578.12,-70.98 548.76,-45.08"/>
<polygon fill="grey" stroke="grey" stroke-width="2" points="551.39,-42.73 541.5,-38.92 546.86,-48.06 551.39,-42.73"/>
</g>
<!-- 22 -->
<g id="node23" class="node">
<title>22</title>
<path fill="none" stroke="#56d8a2" stroke-width="2" d="M512.5,-1044C512.5,-1044 459.5,-1044 459.5,-1044 453.5,-1044 447.5,-1038 447.5,-1032 447.5,-1032 447.5,-1020 447.5,-1020 447.5,-1014 453.5,-1008 459.5,-1008 459.5,-1008 512.5,-1008 512.5,-1008 518.5,-1008 524.5,-1014 524.5,-1020 524.5,-1020 524.5,-1032 524.5,-1032 524.5,-1038 518.5,-1044 512.5,-1044"/>
<text text-anchor="middle" x="486" y="-1023.5" font-family="sans" font-size="10.00">trans_to_gen</text>
</g>
<!-- 6&#45;&gt;22 -->
<g id="edge32" class="edge">
<title>6&#45;&gt;22</title>
<path fill="none" stroke="grey" stroke-width="2" d="M586.18,-1080.94C569.74,-1072.09 549.01,-1060.93 530.68,-1051.06"/>
<polygon fill="grey" stroke="grey" stroke-width="2" points="532.47,-1048.05 522.01,-1046.39 529.16,-1054.21 532.47,-1048.05"/>
</g>
<!-- 7 -->
<g id="node8" class="node">
<title>7</title>
<path fill="none" stroke="#56d87b" stroke-width="2" d="M645,-1188C645,-1188 587,-1188 587,-1188 581,-1188 575,-1182 575,-1176 575,-1176 575,-1164 575,-1164 575,-1158 581,-1152 587,-1152 587,-1152 645,-1152 645,-1152 651,-1152 657,-1158 657,-1164 657,-1164 657,-1176 657,-1176 657,-1182 651,-1188 645,-1188"/>
<text text-anchor="middle" x="616" y="-1167.5" font-family="sans" font-size="10.00">get_exons_gtf</text>
</g>
<!-- 7&#45;&gt;6 -->
<g id="edge14" class="edge">
<title>7&#45;&gt;6</title>
<path fill="none" stroke="grey" stroke-width="2" d="M616,-1151.34C616,-1144.75 616,-1137.08 616,-1129.67"/>
<polygon fill="grey" stroke="grey" stroke-width="2" points="619.5,-1129.93 616,-1119.93 612.5,-1129.93 619.5,-1129.93"/>
</g>
<!-- 8&#45;&gt;0 -->
<g id="edge8" class="edge">
<title>8&#45;&gt;0</title>
<path fill="none" stroke="grey" stroke-width="2" d="M69.59,-935.27C77.5,-908.6 91,-856.42 91,-811 91,-811 91,-811 91,-161 91,-115.41 104.27,-97.58 142,-72 195.52,-35.72 388.85,-23.86 474.11,-20.35"/>
<polygon fill="grey" stroke="grey" stroke-width="2" points="474.19,-23.85 484.05,-19.96 473.92,-16.85 474.19,-23.85"/>
</g>
<!-- 20 -->
<g id="node21" class="node">
<title>20</title>
<path fill="none" stroke="#d8ac56" stroke-width="2" d="M326,-900C326,-900 278,-900 278,-900 272,-900 266,-894 266,-888 266,-888 266,-876 266,-876 266,-870 272,-864 278,-864 278,-864 326,-864 326,-864 332,-864 338,-870 338,-876 338,-876 338,-888 338,-888 338,-894 332,-900 326,-900"/>
<text text-anchor="middle" x="302" y="-879.5" font-family="sans" font-size="10.00">add_header</text>
</g>
<!-- 8&#45;&gt;20 -->
<g id="edge27" class="edge">
<title>8&#45;&gt;20</title>
<path fill="none" stroke="grey" stroke-width="2" d="M124.98,-935.06C164.65,-923.4 215.71,-908.38 252.79,-897.47"/>
<polygon fill="grey" stroke="grey" stroke-width="2" points="253.77,-900.83 262.38,-894.65 251.8,-894.12 253.77,-900.83"/>
</g>
<!-- 9 -->
<g id="node10" class="node">
<title>9</title>
<path fill="none" stroke="#d8cb56" stroke-width="2" d="M914,-468C914,-468 852,-468 852,-468 846,-468 840,-462 840,-456 840,-456 840,-444 840,-444 840,-438 846,-432 852,-432 852,-432 914,-432 914,-432 920,-432 926,-438 926,-444 926,-444 926,-456 926,-456 926,-462 920,-468 914,-468"/>
<text text-anchor="middle" x="883" y="-447.5" font-family="sans" font-size="10.00">extract_chr_len</text>
</g>
<!-- 9&#45;&gt;0 -->
<g id="edge7" class="edge">
<title>9&#45;&gt;0</title>
<path fill="none" stroke="grey" stroke-width="2" d="M879.48,-431.15C874.5,-404.32 866,-351.94 866,-307 866,-307 866,-307 866,-161 866,-117.63 860.3,-98.54 826,-72 784.41,-39.81 630.2,-26.09 555.74,-21.24"/>
<polygon fill="grey" stroke="grey" stroke-width="2" points="556.03,-17.76 545.83,-20.63 555.6,-24.74 556.03,-17.76"/>
</g>
<!-- 11 -->
<g id="node12" class="node">
<title>11</title>
<path fill="none" stroke="#56c1d8" stroke-width="2" d="M765.5,-396C765.5,-396 656.5,-396 656.5,-396 650.5,-396 644.5,-390 644.5,-384 644.5,-384 644.5,-372 644.5,-372 644.5,-366 650.5,-360 656.5,-360 656.5,-360 765.5,-360 765.5,-360 771.5,-360 777.5,-366 777.5,-372 777.5,-372 777.5,-384 777.5,-384 777.5,-390 771.5,-396 765.5,-396"/>
<text text-anchor="middle" x="711" y="-375.5" font-family="sans" font-size="10.00">extend_mirs_annotations</text>
</g>
<!-- 9&#45;&gt;11 -->
<g id="edge19" class="edge">
<title>9&#45;&gt;11</title>
<path fill="none" stroke="grey" stroke-width="2" d="M839.15,-431.15C817.2,-422.22 790.38,-411.31 766.96,-401.77"/>
<polygon fill="grey" stroke="grey" stroke-width="2" points="768.45,-398.6 757.87,-398.08 765.81,-405.09 768.45,-398.6"/>
</g>
<!-- 10&#45;&gt;9 -->
<g id="edge16" class="edge">
<title>10&#45;&gt;9</title>
<path fill="none" stroke="grey" stroke-width="2" d="M914.27,-863.16C909,-836.34 900,-783.98 900,-739 900,-739 900,-739 900,-593 900,-554.38 893.72,-510.27 888.8,-481.59"/>
<polygon fill="grey" stroke="grey" stroke-width="2" points="892.26,-481.06 887.05,-471.83 885.37,-482.29 892.26,-481.06"/>
</g>
<!-- 11&#45;&gt;0 -->
<g id="edge3" class="edge">
<title>11&#45;&gt;0</title>
<path fill="none" stroke="grey" stroke-width="2" d="M705.2,-359.29C697,-332.63 683,-280.48 683,-235 683,-235 683,-235 683,-161 683,-114.96 664.22,-102.8 630,-72 608.53,-52.68 578.81,-39.23 554.96,-30.71"/>
<polygon fill="grey" stroke="grey" stroke-width="2" points="556.21,-27.44 545.62,-27.56 553.97,-34.08 556.21,-27.44"/>
</g>
<!-- 46 -->
<g id="node47" class="node">
<title>46</title>
<path fill="none" stroke="#61d856" stroke-width="2" d="M575.5,-324C575.5,-324 506.5,-324 506.5,-324 500.5,-324 494.5,-318 494.5,-312 494.5,-312 494.5,-300 494.5,-300 494.5,-294 500.5,-288 506.5,-288 506.5,-288 575.5,-288 575.5,-288 581.5,-288 587.5,-294 587.5,-300 587.5,-300 587.5,-312 587.5,-312 587.5,-318 581.5,-324 575.5,-324"/>
<text text-anchor="middle" x="541" y="-303.5" font-family="sans" font-size="10.00">premir_gfftobed</text>
</g>
<!-- 11&#45;&gt;46 -->
<g id="edge67" class="edge">
<title>11&#45;&gt;46</title>
<path fill="none" stroke="grey" stroke-width="2" d="M667.66,-359.15C645.97,-350.22 619.46,-339.31 596.31,-329.77"/>
<polygon fill="grey" stroke="grey" stroke-width="2" points="597.93,-326.66 587.35,-326.09 595.27,-333.13 597.93,-326.66"/>
</g>
<!-- 12 -->
<g id="node13" class="node">
<title>12</title>
<path fill="none" stroke="#d85e56" stroke-width="2" d="M745,-468C745,-468 677,-468 677,-468 671,-468 665,-462 665,-456 665,-456 665,-444 665,-444 665,-438 671,-432 677,-432 677,-432 745,-432 745,-432 751,-432 757,-438 757,-444 757,-444 757,-456 757,-456 757,-462 751,-468 745,-468"/>
<text text-anchor="middle" x="711" y="-447.5" font-family="sans" font-size="10.00">map_chr_names</text>
</g>
<!-- 12&#45;&gt;11 -->
<g id="edge18" class="edge">
<title>12&#45;&gt;11</title>
<path fill="none" stroke="grey" stroke-width="2" d="M711,-431.34C711,-424.75 711,-417.08 711,-409.67"/>
<polygon fill="grey" stroke="grey" stroke-width="2" points="714.5,-409.93 711,-399.93 707.5,-409.93 714.5,-409.93"/>
</g>
<!-- 13 -->
<g id="node14" class="node">
<title>13</title>
<path fill="none" stroke="#d8a456" stroke-width="2" d="M279,-252C279,-252 237,-252 237,-252 231,-252 225,-246 225,-240 225,-240 225,-228 225,-228 225,-222 231,-216 237,-216 237,-216 279,-216 279,-216 285,-216 291,-222 291,-228 291,-228 291,-240 291,-240 291,-246 285,-252 279,-252"/>
<text text-anchor="middle" x="258" y="-231.5" font-family="sans" font-size="10.00">index_bam</text>
</g>
<!-- 13&#45;&gt;0 -->
<g id="edge4" class="edge">
<title>13&#45;&gt;0</title>
<path fill="none" stroke="grey" stroke-width="2" d="M269.51,-215.32C282.36,-196.37 304.47,-166.04 328,-144 373.95,-100.97 436.18,-62.56 475.97,-40.02"/>
<polygon fill="grey" stroke="grey" stroke-width="2" points="477.64,-43.1 484.66,-35.16 474.22,-36.99 477.64,-43.1"/>
</g>
<!-- 14 -->
<g id="node15" class="node">
<title>14</title>
<path fill="none" stroke="#56c9d8" stroke-width="2" d="M427,-468C427,-468 359,-468 359,-468 353,-468 347,-462 347,-456 347,-456 347,-444 347,-444 347,-438 353,-432 359,-432 359,-432 427,-432 427,-432 433,-432 439,-438 439,-444 439,-444 439,-456 439,-456 439,-462 433,-468 427,-468"/>
<text text-anchor="middle" x="393" y="-447.5" font-family="sans" font-size="10.00">sort_by_position</text>
</g>
<!-- 14&#45;&gt;13 -->
<g id="edge20" class="edge">
<title>14&#45;&gt;13</title>
<path fill="none" stroke="grey" stroke-width="2" d="M381.72,-431.12C358.35,-394.07 304.43,-308.6 276.12,-263.72"/>
<polygon fill="grey" stroke="grey" stroke-width="2" points="279.25,-262.13 270.96,-255.54 273.33,-265.86 279.25,-262.13"/>
</g>
<!-- 45 -->
<g id="node46" class="node">
<title>45</title>
<path fill="none" stroke="#56d892" stroke-width="2" d="M445.5,-396C445.5,-396 404.5,-396 404.5,-396 398.5,-396 392.5,-390 392.5,-384 392.5,-384 392.5,-372 392.5,-372 392.5,-366 398.5,-360 404.5,-360 404.5,-360 445.5,-360 445.5,-360 451.5,-360 457.5,-366 457.5,-372 457.5,-372 457.5,-384 457.5,-384 457.5,-390 451.5,-396 445.5,-396"/>
<text text-anchor="middle" x="425" y="-375.5" font-family="sans" font-size="10.00">bamtobed</text>
</g>
<!-- 14&#45;&gt;45 -->
<g id="edge66" class="edge">
<title>14&#45;&gt;45</title>
<path fill="none" stroke="grey" stroke-width="2" d="M401.07,-431.34C404.23,-424.43 407.94,-416.31 411.49,-408.56"/>
<polygon fill="grey" stroke="grey" stroke-width="2" points="414.58,-410.2 415.56,-399.65 408.22,-407.29 414.58,-410.2"/>
</g>
<!-- 15 -->
<g id="node16" class="node">
<title>15</title>
<path fill="none" stroke="#b6d856" stroke-width="2" d="M427,-540C427,-540 359,-540 359,-540 353,-540 347,-534 347,-528 347,-528 347,-516 347,-516 347,-510 353,-504 359,-504 359,-504 427,-504 427,-504 433,-504 439,-510 439,-516 439,-516 439,-528 439,-528 439,-534 433,-540 427,-540"/>
<text text-anchor="middle" x="393" y="-519.5" font-family="sans" font-size="10.00">convert_to_bam</text>
</g>
<!-- 15&#45;&gt;14 -->
<g id="edge21" class="edge">
<title>15&#45;&gt;14</title>
<path fill="none" stroke="grey" stroke-width="2" d="M393,-503.34C393,-496.75 393,-489.08 393,-481.67"/>
<polygon fill="grey" stroke="grey" stroke-width="2" points="396.5,-481.93 393,-471.93 389.5,-481.93 396.5,-481.93"/>
</g>
<!-- 16 -->
<g id="node17" class="node">
<title>16</title>
<path fill="none" stroke="#80d856" stroke-width="2" d="M354.5,-612C354.5,-612 283.5,-612 283.5,-612 277.5,-612 271.5,-606 271.5,-600 271.5,-600 271.5,-588 271.5,-588 271.5,-582 277.5,-576 283.5,-576 283.5,-576 354.5,-576 354.5,-576 360.5,-576 366.5,-582 366.5,-588 366.5,-588 366.5,-600 366.5,-600 366.5,-606 360.5,-612 354.5,-612"/>
<text text-anchor="middle" x="319" y="-591.5" font-family="sans" font-size="10.00">uncollapse_reads</text>
</g>
<!-- 16&#45;&gt;15 -->
<g id="edge22" class="edge">
<title>16&#45;&gt;15</title>
<path fill="none" stroke="grey" stroke-width="2" d="M337.67,-575.34C345.85,-567.6 355.62,-558.36 364.66,-549.81"/>
<polygon fill="grey" stroke="grey" stroke-width="2" points="367.02,-552.4 371.88,-542.98 362.21,-547.31 367.02,-552.4"/>
</g>
<!-- 42 -->
<g id="node43" class="node">
<title>42</title>
<path fill="none" stroke="#70d856" stroke-width="2" d="M439,-180C439,-180 349,-180 349,-180 343,-180 337,-174 337,-168 337,-168 337,-156 337,-156 337,-150 343,-144 349,-144 349,-144 439,-144 439,-144 445,-144 451,-150 451,-156 451,-156 451,-168 451,-168 451,-174 445,-180 439,-180"/>
<text text-anchor="middle" x="394" y="-159.5" font-family="sans" font-size="10.00">intersection_sam_file</text>
</g>
<!-- 16&#45;&gt;42 -->
<g id="edge62" class="edge">
<title>16&#45;&gt;42</title>
<path fill="none" stroke="grey" stroke-width="2" d="M319,-575.07C319,-548.13 319,-495.62 319,-451 319,-451 319,-451 319,-305 319,-261.19 347.26,-217.66 369.08,-190.57"/>
<polygon fill="grey" stroke="grey" stroke-width="2" points="371.68,-192.93 375.41,-183.01 366.31,-188.44 371.68,-192.93"/>
</g>
<!-- 17 -->
<g id="node18" class="node">
<title>17</title>
<path fill="none" stroke="#5663d8" stroke-width="2" d="M350,-684C350,-684 288,-684 288,-684 282,-684 276,-678 276,-672 276,-672 276,-660 276,-660 276,-654 282,-648 288,-648 288,-648 350,-648 350,-648 356,-648 362,-654 362,-660 362,-660 362,-672 362,-672 362,-678 356,-684 350,-684"/>
<text text-anchor="middle" x="319" y="-663.5" font-family="sans" font-size="10.00">filter_by_indels</text>
</g>
<!-- 17&#45;&gt;16 -->
<g id="edge23" class="edge">
<title>17&#45;&gt;16</title>
<path fill="none" stroke="grey" stroke-width="2" d="M319,-647.34C319,-640.75 319,-633.08 319,-625.67"/>
<polygon fill="grey" stroke="grey" stroke-width="2" points="322.5,-625.93 319,-615.93 315.5,-625.93 322.5,-625.93"/>
</g>
<!-- 18 -->
<g id="node19" class="node">
<title>18</title>
<path fill="none" stroke="#8fd856" stroke-width="2" d="M355.5,-756C355.5,-756 282.5,-756 282.5,-756 276.5,-756 270.5,-750 270.5,-744 270.5,-744 270.5,-732 270.5,-732 270.5,-726 276.5,-720 282.5,-720 282.5,-720 355.5,-720 355.5,-720 361.5,-720 367.5,-726 367.5,-732 367.5,-732 367.5,-744 367.5,-744 367.5,-750 361.5,-756 355.5,-756"/>
<text text-anchor="middle" x="319" y="-735.5" font-family="sans" font-size="10.00">remove_inferiors</text>
</g>
<!-- 18&#45;&gt;17 -->
<g id="edge24" class="edge">
<title>18&#45;&gt;17</title>
<path fill="none" stroke="grey" stroke-width="2" d="M319,-719.34C319,-712.75 319,-705.08 319,-697.67"/>
<polygon fill="grey" stroke="grey" stroke-width="2" points="322.5,-697.93 319,-687.93 315.5,-697.93 322.5,-697.93"/>
</g>
<!-- 19 -->
<g id="node20" class="node">
<title>19</title>
<path fill="none" stroke="#d87d56" stroke-width="2" d="M334,-828C334,-828 304,-828 304,-828 298,-828 292,-822 292,-816 292,-816 292,-804 292,-804 292,-798 298,-792 304,-792 304,-792 334,-792 334,-792 340,-792 346,-798 346,-804 346,-804 346,-816 346,-816 346,-822 340,-828 334,-828"/>
<text text-anchor="middle" x="319" y="-807.5" font-family="sans" font-size="10.00">sort_id</text>
</g>
<!-- 19&#45;&gt;18 -->
<g id="edge25" class="edge">
<title>19&#45;&gt;18</title>
<path fill="none" stroke="grey" stroke-width="2" d="M319,-791.34C319,-784.75 319,-777.08 319,-769.67"/>
<polygon fill="grey" stroke="grey" stroke-width="2" points="322.5,-769.93 319,-759.93 315.5,-769.93 322.5,-769.93"/>
</g>
<!-- 20&#45;&gt;19 -->
<g id="edge26" class="edge">
<title>20&#45;&gt;19</title>
<path fill="none" stroke="grey" stroke-width="2" d="M306.29,-863.34C307.91,-856.67 309.8,-848.89 311.62,-841.39"/>
<polygon fill="grey" stroke="grey" stroke-width="2" points="314.98,-842.39 313.94,-831.84 308.18,-840.73 314.98,-842.39"/>
</g>
<!-- 21 -->
<g id="node22" class="node">
<title>21</title>
<path fill="none" stroke="#d8b456" stroke-width="2" d="M327.5,-972C327.5,-972 276.5,-972 276.5,-972 270.5,-972 264.5,-966 264.5,-960 264.5,-960 264.5,-948 264.5,-948 264.5,-942 270.5,-936 276.5,-936 276.5,-936 327.5,-936 327.5,-936 333.5,-936 339.5,-942 339.5,-948 339.5,-948 339.5,-960 339.5,-960 339.5,-966 333.5,-972 327.5,-972"/>
<text text-anchor="middle" x="302" y="-951.5" font-family="sans" font-size="10.00">cat_mapping</text>
</g>
<!-- 21&#45;&gt;20 -->
<g id="edge28" class="edge">
<title>21&#45;&gt;20</title>
<path fill="none" stroke="grey" stroke-width="2" d="M302,-935.34C302,-928.75 302,-921.08 302,-913.67"/>
<polygon fill="grey" stroke="grey" stroke-width="2" points="305.5,-913.93 302,-903.93 298.5,-913.93 305.5,-913.93"/>
</g>
<!-- 22&#45;&gt;21 -->
<g id="edge30" class="edge">
<title>22&#45;&gt;21</title>
<path fill="none" stroke="grey" stroke-width="2" d="M446.53,-1009.98C418.96,-999.5 381.94,-985.41 352.26,-974.12"/>
<polygon fill="grey" stroke="grey" stroke-width="2" points="353.88,-970.99 343.29,-970.71 351.39,-977.54 353.88,-970.99"/>
</g>
<!-- 23 -->
<g id="node24" class="node">
<title>23</title>
<path fill="none" stroke="#d8d356" stroke-width="2" d="M556.5,-1116C556.5,-1116 415.5,-1116 415.5,-1116 409.5,-1116 403.5,-1110 403.5,-1104 403.5,-1104 403.5,-1092 403.5,-1092 403.5,-1086 409.5,-1080 415.5,-1080 415.5,-1080 556.5,-1080 556.5,-1080 562.5,-1080 568.5,-1086 568.5,-1092 568.5,-1092 568.5,-1104 568.5,-1104 568.5,-1110 562.5,-1116 556.5,-1116"/>
<text text-anchor="middle" x="486" y="-1095.5" font-family="sans" font-size="10.00">remove_headers_transcriptome</text>
</g>
<!-- 23&#45;&gt;22 -->
<g id="edge31" class="edge">
<title>23&#45;&gt;22</title>
<path fill="none" stroke="grey" stroke-width="2" d="M486,-1079.34C486,-1072.75 486,-1065.08 486,-1057.67"/>
<polygon fill="grey" stroke="grey" stroke-width="2" points="489.5,-1057.93 486,-1047.93 482.5,-1057.93 489.5,-1057.93"/>
</g>
<!-- 24 -->
<g id="node25" class="node">
<title>24</title>
<path fill="none" stroke="#56d8c9" stroke-width="2" d="M536.5,-1188C536.5,-1188 435.5,-1188 435.5,-1188 429.5,-1188 423.5,-1182 423.5,-1176 423.5,-1176 423.5,-1164 423.5,-1164 423.5,-1158 429.5,-1152 435.5,-1152 435.5,-1152 536.5,-1152 536.5,-1152 542.5,-1152 548.5,-1158 548.5,-1164 548.5,-1164 548.5,-1176 548.5,-1176 548.5,-1182 542.5,-1188 536.5,-1188"/>
<text text-anchor="middle" x="486" y="-1167.5" font-family="sans" font-size="10.00">filter_nh_transcriptome</text>
</g>
<!-- 24&#45;&gt;23 -->
<g id="edge33" class="edge">
<title>24&#45;&gt;23</title>
<path fill="none" stroke="grey" stroke-width="2" d="M486,-1151.34C486,-1144.75 486,-1137.08 486,-1129.67"/>
<polygon fill="grey" stroke="grey" stroke-width="2" points="489.5,-1129.93 486,-1119.93 482.5,-1129.93 489.5,-1129.93"/>
</g>
<!-- 25 -->
<g id="node26" class="node">
<title>25</title>
<path fill="none" stroke="#56d873" stroke-width="2" d="M548,-1260C548,-1260 426,-1260 426,-1260 420,-1260 414,-1254 414,-1248 414,-1248 414,-1236 414,-1236 414,-1230 420,-1224 426,-1224 426,-1224 548,-1224 548,-1224 554,-1224 560,-1230 560,-1236 560,-1236 560,-1248 560,-1248 560,-1254 554,-1260 548,-1260"/>
<text text-anchor="middle" x="487" y="-1239.5" font-family="sans" font-size="10.00">merge_transcriptome_maps</text>
</g>
<!-- 25&#45;&gt;24 -->
<g id="edge34" class="edge">
<title>25&#45;&gt;24</title>
<path fill="none" stroke="grey" stroke-width="2" d="M486.75,-1223.34C486.65,-1216.75 486.54,-1209.08 486.44,-1201.67"/>
<polygon fill="grey" stroke="grey" stroke-width="2" points="489.94,-1201.88 486.3,-1191.93 482.94,-1201.98 489.94,-1201.88"/>
</g>
<!-- 26&#45;&gt;25 -->
<g id="edge36" class="edge">
<title>26&#45;&gt;25</title>
<path fill="none" stroke="grey" stroke-width="2" d="M487,-1367.02C487,-1343.54 487,-1302.11 487,-1273.64"/>
<polygon fill="grey" stroke="grey" stroke-width="2" points="490.5,-1273.87 487,-1263.87 483.5,-1273.87 490.5,-1273.87"/>
</g>
<!-- 27 -->
<g id="node28" class="node">
<title>27</title>
<path fill="none" stroke="#d89c56" stroke-width="2" d="M473.5,-1620C473.5,-1620 412.5,-1620 412.5,-1620 406.5,-1620 400.5,-1614 400.5,-1608 400.5,-1608 400.5,-1596 400.5,-1596 400.5,-1590 406.5,-1584 412.5,-1584 412.5,-1584 473.5,-1584 473.5,-1584 479.5,-1584 485.5,-1590 485.5,-1596 485.5,-1596 485.5,-1608 485.5,-1608 485.5,-1614 479.5,-1620 473.5,-1620"/>
<text text-anchor="middle" x="443" y="-1599.5" font-family="sans" font-size="10.00">fastx_collapser</text>
</g>
<!-- 27&#45;&gt;26 -->
<g id="edge37" class="edge">
<title>27&#45;&gt;26</title>
<path fill="none" stroke="grey" stroke-width="2" d="M446.68,-1583.12C454.2,-1546.54 471.42,-1462.77 480.74,-1417.45"/>
<polygon fill="grey" stroke="grey" stroke-width="2" points="484.11,-1418.44 482.69,-1407.94 477.25,-1417.03 484.11,-1418.44"/>
</g>
<!-- 33 -->
<g id="node34" class="node">
<title>33</title>
<path fill="none" stroke="#56a9d8" stroke-width="2" d="M591,-1548C591,-1548 483,-1548 483,-1548 477,-1548 471,-1542 471,-1536 471,-1536 471,-1524 471,-1524 471,-1518 477,-1512 483,-1512 483,-1512 591,-1512 591,-1512 597,-1512 603,-1518 603,-1524 603,-1524 603,-1536 603,-1536 603,-1542 597,-1548 591,-1548"/>
<text text-anchor="middle" x="537" y="-1527.5" font-family="sans" font-size="10.00">filter_fasta_for_oligomap</text>
</g>
<!-- 27&#45;&gt;33 -->
<g id="edge47" class="edge">
<title>27&#45;&gt;33</title>
<path fill="none" stroke="grey" stroke-width="2" d="M466.72,-1583.34C477.66,-1575.19 490.84,-1565.37 502.83,-1556.45"/>
<polygon fill="grey" stroke="grey" stroke-width="2" points="504.6,-1559.49 510.53,-1550.71 500.42,-1553.88 504.6,-1559.49"/>
</g>
<!-- 27&#45;&gt;38 -->
<g id="edge54" class="edge">
<title>27&#45;&gt;38</title>
<path fill="none" stroke="grey" stroke-width="2" d="M399.64,-1584.94C374.39,-1575.59 342.16,-1563.65 314.45,-1553.39"/>
<polygon fill="grey" stroke="grey" stroke-width="2" points="315.91,-1550.2 305.32,-1550.01 313.48,-1556.76 315.91,-1550.2"/>
</g>
<!-- 28 -->
<g id="node29" class="node">
<title>28</title>
<path fill="none" stroke="#568ad8" stroke-width="2" d="M459.5,-1692C459.5,-1692 426.5,-1692 426.5,-1692 420.5,-1692 414.5,-1686 414.5,-1680 414.5,-1680 414.5,-1668 414.5,-1668 414.5,-1662 420.5,-1656 426.5,-1656 426.5,-1656 459.5,-1656 459.5,-1656 465.5,-1656 471.5,-1662 471.5,-1668 471.5,-1668 471.5,-1680 471.5,-1680 471.5,-1686 465.5,-1692 459.5,-1692"/>
<text text-anchor="middle" x="443" y="-1671.5" font-family="sans" font-size="10.00">cutadapt</text>
</g>
<!-- 28&#45;&gt;27 -->
<g id="edge40" class="edge">
<title>28&#45;&gt;27</title>
<path fill="none" stroke="grey" stroke-width="2" d="M443,-1655.34C443,-1648.75 443,-1641.08 443,-1633.67"/>
<polygon fill="grey" stroke="grey" stroke-width="2" points="446.5,-1633.93 443,-1623.93 439.5,-1633.93 446.5,-1633.93"/>
</g>
<!-- 29 -->
<g id="node30" class="node">
<title>29</title>
<path fill="none" stroke="#56d8c1" stroke-width="2" d="M476,-1764C476,-1764 410,-1764 410,-1764 404,-1764 398,-1758 398,-1752 398,-1752 398,-1740 398,-1740 398,-1734 404,-1728 410,-1728 410,-1728 476,-1728 476,-1728 482,-1728 488,-1734 488,-1740 488,-1740 488,-1752 488,-1752 488,-1758 482,-1764 476,-1764"/>
<text text-anchor="middle" x="443" y="-1743.5" font-family="sans" font-size="10.00">fasta_formatter</text>
</g>
<!-- 29&#45;&gt;28 -->
<g id="edge41" class="edge">
<title>29&#45;&gt;28</title>
<path fill="none" stroke="grey" stroke-width="2" d="M443,-1727.34C443,-1720.75 443,-1713.08 443,-1705.67"/>
<polygon fill="grey" stroke="grey" stroke-width="2" points="446.5,-1705.93 443,-1695.93 439.5,-1705.93 446.5,-1705.93"/>
</g>
<!-- 30 -->
<g id="node31" class="node">
<title>30</title>
<path fill="none" stroke="#88d856" stroke-width="2" d="M458,-1836C458,-1836 428,-1836 428,-1836 422,-1836 416,-1830 416,-1824 416,-1824 416,-1812 416,-1812 416,-1806 422,-1800 428,-1800 428,-1800 458,-1800 458,-1800 464,-1800 470,-1806 470,-1812 470,-1812 470,-1824 470,-1824 470,-1830 464,-1836 458,-1836"/>
<text text-anchor="middle" x="443" y="-1815.5" font-family="sans" font-size="10.00">start</text>
</g>
<!-- 30&#45;&gt;29 -->
<g id="edge42" class="edge">
<title>30&#45;&gt;29</title>
<path fill="none" stroke="grey" stroke-width="2" d="M443,-1799.34C443,-1792.75 443,-1785.08 443,-1777.67"/>
<polygon fill="grey" stroke="grey" stroke-width="2" points="446.5,-1777.93 443,-1767.93 439.5,-1777.93 446.5,-1777.93"/>
</g>
<!-- 31 -->
<g id="node32" class="node">
<title>31</title>
<path fill="none" stroke="#56d86b" stroke-width="2" d="M674,-1332C674,-1332 534,-1332 534,-1332 528,-1332 522,-1326 522,-1320 522,-1320 522,-1308 522,-1308 522,-1302 528,-1296 534,-1296 534,-1296 674,-1296 674,-1296 680,-1296 686,-1302 686,-1308 686,-1308 686,-1320 686,-1320 686,-1326 680,-1332 674,-1332"/>
<text text-anchor="middle" x="604" y="-1311.5" font-family="sans" font-size="10.00">oligomap_transcriptome_toSAM</text>
</g>
<!-- 31&#45;&gt;25 -->
<g id="edge35" class="edge">
<title>31&#45;&gt;25</title>
<path fill="none" stroke="grey" stroke-width="2" d="M574.17,-1295.15C560.01,-1286.68 542.86,-1276.42 527.54,-1267.25"/>
<polygon fill="grey" stroke="grey" stroke-width="2" points="529.75,-1264.5 519.37,-1262.37 526.15,-1270.5 529.75,-1264.5"/>
</g>
<!-- 32&#45;&gt;31 -->
<g id="edge44" class="edge">
<title>32&#45;&gt;31</title>
<path fill="none" stroke="grey" stroke-width="2" d="M602.25,-1439.02C602.58,-1415.54 603.17,-1374.11 603.57,-1345.64"/>
<polygon fill="grey" stroke="grey" stroke-width="2" points="607.06,-1345.91 603.71,-1335.87 600.07,-1345.81 607.06,-1345.91"/>
</g>
<!-- 34 -->
<g id="node35" class="node">
<title>34</title>
<path fill="none" stroke="#56d0d8" stroke-width="2" d="M772,-1404C772,-1404 644,-1404 644,-1404 638,-1404 632,-1398 632,-1392 632,-1392 632,-1380 632,-1380 632,-1374 638,-1368 644,-1368 644,-1368 772,-1368 772,-1368 778,-1368 784,-1374 784,-1380 784,-1380 784,-1392 784,-1392 784,-1398 778,-1404 772,-1404"/>
<text text-anchor="middle" x="708" y="-1383.5" font-family="sans" font-size="10.00">sort_transcriptome_oligomap</text>
</g>
<!-- 32&#45;&gt;34 -->
<g id="edge48" class="edge">
<title>32&#45;&gt;34</title>
<path fill="none" stroke="grey" stroke-width="2" d="M629.02,-1439.15C641.61,-1430.84 656.79,-1420.82 670.46,-1411.79"/>
<polygon fill="grey" stroke="grey" stroke-width="2" points="672.08,-1414.91 678.5,-1406.48 668.23,-1409.07 672.08,-1414.91"/>
</g>
<!-- 33&#45;&gt;32 -->
<g id="edge45" class="edge">
<title>33&#45;&gt;32</title>
<path fill="none" stroke="grey" stroke-width="2" d="M553.4,-1511.34C560.43,-1503.77 568.8,-1494.75 576.6,-1486.35"/>
<polygon fill="grey" stroke="grey" stroke-width="2" points="579.08,-1488.83 583.32,-1479.12 573.95,-1484.07 579.08,-1488.83"/>
</g>
<!-- 33&#45;&gt;40 -->
<g id="edge58" class="edge">
<title>33&#45;&gt;40</title>
<path fill="none" stroke="grey" stroke-width="2" d="M486.78,-1511.06C461.3,-1501.97 430.13,-1490.83 403.15,-1481.2"/>
<polygon fill="grey" stroke="grey" stroke-width="2" points="404.54,-1477.97 393.94,-1477.91 402.18,-1484.57 404.54,-1477.97"/>
</g>
<!-- 34&#45;&gt;31 -->
<g id="edge43" class="edge">
<title>34&#45;&gt;31</title>
<path fill="none" stroke="grey" stroke-width="2" d="M681.49,-1367.15C669.26,-1358.93 654.54,-1349.02 641.23,-1340.06"/>
<polygon fill="grey" stroke="grey" stroke-width="2" points="643.23,-1337.18 632.98,-1334.5 639.32,-1342.99 643.23,-1337.18"/>
</g>
<!-- 35 -->
<g id="node36" class="node">
<title>35</title>
<path fill="none" stroke="#d85656" stroke-width="2" d="M350.5,-1044C350.5,-1044 235.5,-1044 235.5,-1044 229.5,-1044 223.5,-1038 223.5,-1032 223.5,-1032 223.5,-1020 223.5,-1020 223.5,-1014 229.5,-1008 235.5,-1008 235.5,-1008 350.5,-1008 350.5,-1008 356.5,-1008 362.5,-1014 362.5,-1020 362.5,-1020 362.5,-1032 362.5,-1032 362.5,-1038 356.5,-1044 350.5,-1044"/>
<text text-anchor="middle" x="293" y="-1023.5" font-family="sans" font-size="10.00">remove_headers_genome</text>
</g>
<!-- 35&#45;&gt;21 -->
<g id="edge29" class="edge">
<title>35&#45;&gt;21</title>
<path fill="none" stroke="grey" stroke-width="2" d="M295.27,-1007.34C296.12,-1000.75 297.1,-993.08 298.06,-985.67"/>
<polygon fill="grey" stroke="grey" stroke-width="2" points="301.51,-986.27 299.31,-975.9 294.57,-985.38 301.51,-986.27"/>
</g>
<!-- 36 -->
<g id="node37" class="node">
<title>36</title>
<path fill="none" stroke="#56d8b9" stroke-width="2" d="M324.5,-1188C324.5,-1188 249.5,-1188 249.5,-1188 243.5,-1188 237.5,-1182 237.5,-1176 237.5,-1176 237.5,-1164 237.5,-1164 237.5,-1158 243.5,-1152 249.5,-1152 249.5,-1152 324.5,-1152 324.5,-1152 330.5,-1152 336.5,-1158 336.5,-1164 336.5,-1164 336.5,-1176 336.5,-1176 336.5,-1182 330.5,-1188 324.5,-1188"/>
<text text-anchor="middle" x="287" y="-1167.5" font-family="sans" font-size="10.00">nh_filter_genome</text>
</g>
<!-- 36&#45;&gt;35 -->
<g id="edge49" class="edge">
<title>36&#45;&gt;35</title>
<path fill="none" stroke="grey" stroke-width="2" d="M287.76,-1151.02C288.75,-1127.54 290.5,-1086.11 291.71,-1057.64"/>
<polygon fill="grey" stroke="grey" stroke-width="2" points="295.19,-1058 292.12,-1047.86 288.2,-1057.71 295.19,-1058"/>
</g>
<!-- 37 -->
<g id="node38" class="node">
<title>37</title>
<path fill="none" stroke="#97d856" stroke-width="2" d="M334,-1260C334,-1260 238,-1260 238,-1260 232,-1260 226,-1254 226,-1248 226,-1248 226,-1236 226,-1236 226,-1230 232,-1224 238,-1224 238,-1224 334,-1224 334,-1224 340,-1224 346,-1230 346,-1236 346,-1236 346,-1248 346,-1248 346,-1254 340,-1260 334,-1260"/>
<text text-anchor="middle" x="286" y="-1239.5" font-family="sans" font-size="10.00">merge_genome_maps</text>
</g>
<!-- 37&#45;&gt;36 -->
<g id="edge50" class="edge">
<title>37&#45;&gt;36</title>
<path fill="none" stroke="grey" stroke-width="2" d="M286.25,-1223.34C286.35,-1216.75 286.46,-1209.08 286.56,-1201.67"/>
<polygon fill="grey" stroke="grey" stroke-width="2" points="290.06,-1201.98 286.7,-1191.93 283.06,-1201.88 290.06,-1201.98"/>
</g>
<!-- 38&#45;&gt;37 -->
<g id="edge51" class="edge">
<title>38&#45;&gt;37</title>
<path fill="none" stroke="grey" stroke-width="2" d="M242.92,-1511.16C219.22,-1470.48 168.81,-1368.79 208,-1296 214.11,-1284.65 223.85,-1275.26 234.39,-1267.71"/>
<polygon fill="grey" stroke="grey" stroke-width="2" points="236.08,-1270.79 242.57,-1262.41 232.27,-1264.92 236.08,-1270.79"/>
</g>
<!-- 39 -->
<g id="node40" class="node">
<title>39</title>
<path fill="none" stroke="#bed856" stroke-width="2" d="M343,-1332C343,-1332 229,-1332 229,-1332 223,-1332 217,-1326 217,-1320 217,-1320 217,-1308 217,-1308 217,-1302 223,-1296 229,-1296 229,-1296 343,-1296 343,-1296 349,-1296 355,-1302 355,-1308 355,-1308 355,-1320 355,-1320 355,-1326 349,-1332 343,-1332"/>
<text text-anchor="middle" x="286" y="-1311.5" font-family="sans" font-size="10.00">oligomap_genome_toSAM</text>
</g>
<!-- 39&#45;&gt;37 -->
<g id="edge52" class="edge">
<title>39&#45;&gt;37</title>
<path fill="none" stroke="grey" stroke-width="2" d="M286,-1295.34C286,-1288.75 286,-1281.08 286,-1273.67"/>
<polygon fill="grey" stroke="grey" stroke-width="2" points="289.5,-1273.93 286,-1263.93 282.5,-1273.93 289.5,-1273.93"/>
</g>
<!-- 40&#45;&gt;39 -->
<g id="edge56" class="edge">
<title>40&#45;&gt;39</title>
<path fill="none" stroke="grey" stroke-width="2" d="M348.43,-1439.02C354.93,-1420.35 361.81,-1390.75 351,-1368 346.01,-1357.49 337.8,-1348.37 328.86,-1340.81"/>
<polygon fill="grey" stroke="grey" stroke-width="2" points="331.07,-1338.09 321.01,-1334.78 326.81,-1343.64 331.07,-1338.09"/>
</g>
<!-- 41 -->
<g id="node42" class="node">
<title>41</title>
<path fill="none" stroke="#56d88a" stroke-width="2" d="M330,-1404C330,-1404 228,-1404 228,-1404 222,-1404 216,-1398 216,-1392 216,-1392 216,-1380 216,-1380 216,-1374 222,-1368 228,-1368 228,-1368 330,-1368 330,-1368 336,-1368 342,-1374 342,-1380 342,-1380 342,-1392 342,-1392 342,-1398 336,-1404 330,-1404"/>
<text text-anchor="middle" x="279" y="-1383.5" font-family="sans" font-size="10.00">sort_genome_oligomap</text>
</g>
<!-- 40&#45;&gt;41 -->
<g id="edge60" class="edge">
<title>40&#45;&gt;41</title>
<path fill="none" stroke="grey" stroke-width="2" d="M325.35,-1439.34C318.72,-1431.85 310.84,-1422.95 303.47,-1414.63"/>
<polygon fill="grey" stroke="grey" stroke-width="2" points="306.11,-1412.33 296.86,-1407.17 300.87,-1416.97 306.11,-1412.33"/>
</g>
<!-- 41&#45;&gt;39 -->
<g id="edge57" class="edge">
<title>41&#45;&gt;39</title>
<path fill="none" stroke="grey" stroke-width="2" d="M280.77,-1367.34C281.42,-1360.75 282.19,-1353.08 282.93,-1345.67"/>
<polygon fill="grey" stroke="grey" stroke-width="2" points="286.4,-1346.21 283.91,-1335.91 279.43,-1345.52 286.4,-1346.21"/>
</g>
<!-- 42&#45;&gt;0 -->
<g id="edge6" class="edge">
<title>42&#45;&gt;0</title>
<path fill="none" stroke="grey" stroke-width="2" d="M407.74,-143.33C421.98,-125.16 445.07,-96.2 466,-72 473.34,-63.51 481.55,-54.47 489.11,-46.31"/>
<polygon fill="grey" stroke="grey" stroke-width="2" points="491.58,-48.79 495.85,-39.1 486.47,-44.01 491.58,-48.79"/>
</g>
<!-- 43 -->
<g id="node44" class="node">
<title>43</title>
<path fill="none" stroke="#d6d856" stroke-width="2" d="M558.5,-252C558.5,-252 439.5,-252 439.5,-252 433.5,-252 427.5,-246 427.5,-240 427.5,-240 427.5,-228 427.5,-228 427.5,-222 433.5,-216 439.5,-216 439.5,-216 558.5,-216 558.5,-216 564.5,-216 570.5,-222 570.5,-228 570.5,-228 570.5,-240 570.5,-240 570.5,-246 564.5,-252 558.5,-252"/>
<text text-anchor="middle" x="499" y="-231.5" font-family="sans" font-size="10.00">intersect_extended_premir</text>
</g>
<!-- 43&#45;&gt;42 -->
<g id="edge61" class="edge">
<title>43&#45;&gt;42</title>
<path fill="none" stroke="grey" stroke-width="2" d="M472.23,-215.15C459.77,-206.84 444.73,-196.82 431.18,-187.79"/>
<polygon fill="grey" stroke="grey" stroke-width="2" points="433.5,-185.13 423.24,-182.49 429.62,-190.95 433.5,-185.13"/>
</g>
<!-- 48 -->
<g id="node49" class="node">
<title>48</title>
<path fill="none" stroke="#56a2d8" stroke-width="2" d="M549,-180C549,-180 481,-180 481,-180 475,-180 469,-174 469,-168 469,-168 469,-156 469,-156 469,-150 475,-144 481,-144 481,-144 549,-144 549,-144 555,-144 561,-150 561,-156 561,-156 561,-168 561,-168 561,-174 555,-180 549,-180"/>
<text text-anchor="middle" x="515" y="-159.5" font-family="sans" font-size="10.00">quant_mirna_pri</text>
</g>
<!-- 43&#45;&gt;48 -->
<g id="edge69" class="edge">
<title>43&#45;&gt;48</title>
<path fill="none" stroke="grey" stroke-width="2" d="M503.04,-215.34C504.56,-208.67 506.34,-200.89 508.05,-193.39"/>
<polygon fill="grey" stroke="grey" stroke-width="2" points="511.42,-194.38 510.23,-183.85 504.59,-192.82 511.42,-194.38"/>
</g>
<!-- 44 -->
<g id="node45" class="node">
<title>44</title>
<path fill="none" stroke="#56d89a" stroke-width="2" d="M464.5,-324C464.5,-324 397.5,-324 397.5,-324 391.5,-324 385.5,-318 385.5,-312 385.5,-312 385.5,-300 385.5,-300 385.5,-294 391.5,-288 397.5,-288 397.5,-288 464.5,-288 464.5,-288 470.5,-288 476.5,-294 476.5,-300 476.5,-300 476.5,-312 476.5,-312 476.5,-318 470.5,-324 464.5,-324"/>
<text text-anchor="middle" x="431" y="-303.5" font-family="sans" font-size="10.00">sort_alignments</text>
</g>
<!-- 44&#45;&gt;43 -->
<g id="edge64" class="edge">
<title>44&#45;&gt;43</title>
<path fill="none" stroke="grey" stroke-width="2" d="M448.16,-287.34C455.59,-279.69 464.46,-270.56 472.69,-262.08"/>
<polygon fill="grey" stroke="grey" stroke-width="2" points="475.04,-264.68 479.5,-255.07 470.02,-259.81 475.04,-264.68"/>
</g>
<!-- 45&#45;&gt;44 -->
<g id="edge65" class="edge">
<title>45&#45;&gt;44</title>
<path fill="none" stroke="grey" stroke-width="2" d="M426.51,-359.34C427.08,-352.75 427.74,-345.08 428.37,-337.67"/>
<polygon fill="grey" stroke="grey" stroke-width="2" points="431.84,-338.18 429.21,-327.92 424.87,-337.58 431.84,-338.18"/>
</g>
<!-- 46&#45;&gt;43 -->
<g id="edge63" class="edge">
<title>46&#45;&gt;43</title>
<path fill="none" stroke="grey" stroke-width="2" d="M530.4,-287.34C526.16,-280.26 521.15,-271.92 516.4,-264"/>
<polygon fill="grey" stroke="grey" stroke-width="2" points="519.44,-262.27 511.3,-255.5 513.44,-265.87 519.44,-262.27"/>
</g>
<!-- 47 -->
<g id="node48" class="node">
<title>47</title>
<path fill="none" stroke="#56d8d0" stroke-width="2" d="M543,-108C543,-108 487,-108 487,-108 481,-108 475,-102 475,-96 475,-96 475,-84 475,-84 475,-78 481,-72 487,-72 487,-72 543,-72 543,-72 549,-72 555,-78 555,-84 555,-84 555,-96 555,-96 555,-102 549,-108 543,-108"/>
<text text-anchor="middle" x="515" y="-87.5" font-family="sans" font-size="10.00">merge_tables</text>
</g>
<!-- 47&#45;&gt;0 -->
<g id="edge9" class="edge">
<title>47&#45;&gt;0</title>
<path fill="none" stroke="grey" stroke-width="2" d="M515,-71.34C515,-64.75 515,-57.08 515,-49.67"/>
<polygon fill="grey" stroke="grey" stroke-width="2" points="518.5,-49.93 515,-39.93 511.5,-49.93 518.5,-49.93"/>
</g>
<!-- 48&#45;&gt;47 -->
<g id="edge68" class="edge">
<title>48&#45;&gt;47</title>
<path fill="none" stroke="grey" stroke-width="2" d="M515,-143.34C515,-136.75 515,-129.08 515,-121.67"/>
<polygon fill="grey" stroke="grey" stroke-width="2" points="518.5,-121.93 515,-111.93 511.5,-121.93 518.5,-121.93"/>
</g>
</g>
</svg>
