<?xml version="1.0" encoding="UTF-8" standalone="no"?>
<!DOCTYPE svg PUBLIC "-//W3C//DTD SVG 1.1//EN"
 "http://www.w3.org/Graphics/SVG/1.1/DTD/svg11.dtd">
<!-- Generated by graphviz version 2.38.0 (20140413.2041)
 -->
<!-- Title: snakemake_dag Pages: 1 -->
<svg width="580pt" height="332pt"
 viewBox="0.00 0.00 579.98 332.00" xmlns="http://www.w3.org/2000/svg" xmlns:xlink="http://www.w3.org/1999/xlink">
<g id="graph0" class="graph" transform="scale(1 1) rotate(0) translate(4 328)">
<title>snakemake_dag</title>
<polygon fill="white" stroke="none" points="-4,4 -4,-328 575.982,-328 575.982,4 -4,4"/>
<!-- 0 -->
<g id="node1" class="node"><title>0</title>
<path fill="none" stroke="#d8cb56" stroke-width="2" d="M252.982,-36C252.982,-36 222.982,-36 222.982,-36 216.982,-36 210.982,-30 210.982,-24 210.982,-24 210.982,-12 210.982,-12 210.982,-6 216.982,-0 222.982,-0 222.982,-0 252.982,-0 252.982,-0 258.982,-0 264.982,-6 264.982,-12 264.982,-12 264.982,-24 264.982,-24 264.982,-30 258.982,-36 252.982,-36"/>
<text text-anchor="middle" x="237.982" y="-15.5" font-family="sans" font-size="10.00">finish</text>
</g>
<!-- 1 -->
<g id="node2" class="node"><title>1</title>
<path fill="none" stroke="#5692d8" stroke-width="2" d="M129.982,-180C129.982,-180 93.9819,-180 93.9819,-180 87.9819,-180 81.9819,-174 81.9819,-168 81.9819,-168 81.9819,-156 81.9819,-156 81.9819,-150 87.9819,-144 93.9819,-144 93.9819,-144 129.982,-144 129.982,-144 135.982,-144 141.982,-150 141.982,-156 141.982,-156 141.982,-168 141.982,-168 141.982,-174 135.982,-180 129.982,-180"/>
<text text-anchor="middle" x="111.982" y="-159.5" font-family="sans" font-size="10.00">trim_fasta</text>
</g>
<!-- 1&#45;&gt;0 -->
<g id="edge1" class="edge"><title>1&#45;&gt;0</title>
<path fill="none" stroke="grey" stroke-width="2" d="M81.6359,-154.819C56.7696,-147.981 23.1423,-134.26 6.98189,-108 -1.40392,-94.3736 -2.98685,-84.515 6.98189,-72 30.8031,-42.0944 141.774,-27.6777 200.81,-22.0218"/>
<polygon fill="grey" stroke="grey" stroke-width="2" points="201.215,-25.4993 210.852,-21.0963 200.573,-18.5289 201.215,-25.4993"/>
</g>
<!-- 2 -->
<g id="node3" class="node"><title>2</title>
<path fill="none" stroke="#d85656" stroke-width="2" d="M197.982,-108C197.982,-108 27.9819,-108 27.9819,-108 21.9819,-108 15.9819,-102 15.9819,-96 15.9819,-96 15.9819,-84 15.9819,-84 15.9819,-78 21.9819,-72 27.9819,-72 27.9819,-72 197.982,-72 197.982,-72 203.982,-72 209.982,-78 209.982,-84 209.982,-84 209.982,-96 209.982,-96 209.982,-102 203.982,-108 197.982,-108"/>
<text text-anchor="middle" x="112.982" y="-87.5" font-family="sans" font-size="10.00">generate_segemehl_index_transcriptome</text>
</g>
<!-- 1&#45;&gt;2 -->
<g id="edge7" class="edge"><title>1&#45;&gt;2</title>
<path fill="none" stroke="grey" stroke-width="2" d="M112.229,-143.697C112.339,-135.983 112.472,-126.712 112.595,-118.112"/>
<polygon fill="grey" stroke="grey" stroke-width="2" points="116.094,-118.153 112.738,-108.104 109.095,-118.053 116.094,-118.153"/>
</g>
<!-- 2&#45;&gt;0 -->
<g id="edge2" class="edge"><title>2&#45;&gt;0</title>
<path fill="none" stroke="grey" stroke-width="2" d="M143.56,-71.8761C161.201,-61.9975 183.478,-49.522 201.964,-39.17"/>
<polygon fill="grey" stroke="grey" stroke-width="2" points="203.682,-42.2192 210.697,-34.2793 200.262,-36.1117 203.682,-42.2192"/>
</g>
<!-- 3 -->
<g id="node4" class="node"><title>3</title>
<path fill="none" stroke="#56d8a9" stroke-width="2" d="M423.982,-108C423.982,-108 277.982,-108 277.982,-108 271.982,-108 265.982,-102 265.982,-96 265.982,-96 265.982,-84 265.982,-84 265.982,-78 271.982,-72 277.982,-72 277.982,-72 423.982,-72 423.982,-72 429.982,-72 435.982,-78 435.982,-84 435.982,-84 435.982,-96 435.982,-96 435.982,-102 429.982,-108 423.982,-108"/>
<text text-anchor="middle" x="350.982" y="-87.5" font-family="sans" font-size="10.00">generate_segemehl_index_genome</text>
</g>
<!-- 3&#45;&gt;0 -->
<g id="edge3" class="edge"><title>3&#45;&gt;0</title>
<path fill="none" stroke="grey" stroke-width="2" d="M323.339,-71.8761C308.454,-62.6553 289.916,-51.1717 273.923,-41.2646"/>
<polygon fill="grey" stroke="grey" stroke-width="2" points="275.684,-38.238 265.339,-35.9471 271.997,-44.1887 275.684,-38.238"/>
</g>
<!-- 4 -->
<g id="node5" class="node"><title>4</title>
<path fill="none" stroke="#afd856" stroke-width="2" d="M252.982,-180C252.982,-180 222.982,-180 222.982,-180 216.982,-180 210.982,-174 210.982,-168 210.982,-168 210.982,-156 210.982,-156 210.982,-150 216.982,-144 222.982,-144 222.982,-144 252.982,-144 252.982,-144 258.982,-144 264.982,-150 264.982,-156 264.982,-156 264.982,-168 264.982,-168 264.982,-174 258.982,-180 252.982,-180"/>
<text text-anchor="middle" x="237.982" y="-159.5" font-family="sans" font-size="10.00">gtftobed</text>
</g>
<!-- 4&#45;&gt;0 -->
<g id="edge4" class="edge"><title>4&#45;&gt;0</title>
<path fill="none" stroke="grey" stroke-width="2" d="M237.982,-143.871C237.982,-119.67 237.982,-75.2108 237.982,-46.3932"/>
<polygon fill="grey" stroke="grey" stroke-width="2" points="241.482,-46.1892 237.982,-36.1893 234.482,-46.1893 241.482,-46.1892"/>
</g>
<!-- 5 -->
<g id="node6" class="node"><title>5</title>
<path fill="none" stroke="#56d873" stroke-width="2" d="M559.982,-108C559.982,-108 465.982,-108 465.982,-108 459.982,-108 453.982,-102 453.982,-96 453.982,-96 453.982,-84 453.982,-84 453.982,-78 459.982,-72 465.982,-72 465.982,-72 559.982,-72 559.982,-72 565.982,-72 571.982,-78 571.982,-84 571.982,-84 571.982,-96 571.982,-96 571.982,-102 565.982,-108 559.982,-108"/>
<text text-anchor="middle" x="512.982" y="-87.5" font-family="sans" font-size="10.00">create_header_genome</text>
</g>
<!-- 5&#45;&gt;0 -->
<g id="edge5" class="edge"><title>5&#45;&gt;0</title>
<path fill="none" stroke="grey" stroke-width="2" d="M453.65,-73.8972C399.336,-60.072 320.656,-40.0443 274.866,-28.3887"/>
<polygon fill="grey" stroke="grey" stroke-width="2" points="275.62,-24.9692 265.066,-25.8942 273.894,-31.7529 275.62,-24.9692"/>
</g>
<!-- 6 -->
<g id="node7" class="node"><title>6</title>
<path fill="none" stroke="#56c9d8" stroke-width="2" d="M168.482,-252C168.482,-252 55.4819,-252 55.4819,-252 49.4819,-252 43.4819,-246 43.4819,-240 43.4819,-240 43.4819,-228 43.4819,-228 43.4819,-222 49.4819,-216 55.4819,-216 55.4819,-216 168.482,-216 168.482,-216 174.482,-216 180.482,-222 180.482,-228 180.482,-228 180.482,-240 180.482,-240 180.482,-246 174.482,-252 168.482,-252"/>
<text text-anchor="middle" x="111.982" y="-231.5" font-family="sans" font-size="10.00">extract_transcriptome_seqs</text>
</g>
<!-- 6&#45;&gt;1 -->
<g id="edge6" class="edge"><title>6&#45;&gt;1</title>
<path fill="none" stroke="grey" stroke-width="2" d="M111.982,-215.697C111.982,-207.983 111.982,-198.712 111.982,-190.112"/>
<polygon fill="grey" stroke="grey" stroke-width="2" points="115.482,-190.104 111.982,-180.104 108.482,-190.104 115.482,-190.104"/>
</g>
<!-- 7 -->
<g id="node8" class="node"><title>7</title>
<path fill="none" stroke="#d88d56" stroke-width="2" d="M264.982,-252C264.982,-252 210.982,-252 210.982,-252 204.982,-252 198.982,-246 198.982,-240 198.982,-240 198.982,-228 198.982,-228 198.982,-222 204.982,-216 210.982,-216 210.982,-216 264.982,-216 264.982,-216 270.982,-216 276.982,-222 276.982,-228 276.982,-228 276.982,-240 276.982,-240 276.982,-246 270.982,-252 264.982,-252"/>
<text text-anchor="middle" x="237.982" y="-231.5" font-family="sans" font-size="10.00">get_exons_gtf</text>
</g>
<!-- 7&#45;&gt;4 -->
<g id="edge8" class="edge"><title>7&#45;&gt;4</title>
<path fill="none" stroke="grey" stroke-width="2" d="M237.982,-215.697C237.982,-207.983 237.982,-198.712 237.982,-190.112"/>
<polygon fill="grey" stroke="grey" stroke-width="2" points="241.482,-190.104 237.982,-180.104 234.482,-190.104 241.482,-190.104"/>
</g>
<!-- 8 -->
<g id="node9" class="node"><title>8</title>
<path fill="none" stroke="#70d856" stroke-width="2" d="M211.982,-324C211.982,-324 137.982,-324 137.982,-324 131.982,-324 125.982,-318 125.982,-312 125.982,-312 125.982,-300 125.982,-300 125.982,-294 131.982,-288 137.982,-288 137.982,-288 211.982,-288 211.982,-288 217.982,-288 223.982,-294 223.982,-300 223.982,-300 223.982,-312 223.982,-312 223.982,-318 217.982,-324 211.982,-324"/>
<text text-anchor="middle" x="174.982" y="-303.5" font-family="sans" font-size="10.00">download_filter_gtf</text>
</g>
<!-- 8&#45;&gt;6 -->
<g id="edge9" class="edge"><title>8&#45;&gt;6</title>
<path fill="none" stroke="grey" stroke-width="2" d="M159.409,-287.697C151.78,-279.22 142.459,-268.864 134.106,-259.583"/>
<polygon fill="grey" stroke="grey" stroke-width="2" points="136.667,-257.196 127.376,-252.104 131.464,-261.879 136.667,-257.196"/>
</g>
<!-- 8&#45;&gt;7 -->
<g id="edge10" class="edge"><title>8&#45;&gt;7</title>
<path fill="none" stroke="grey" stroke-width="2" d="M190.555,-287.697C198.184,-279.22 207.505,-268.864 215.858,-259.583"/>
<polygon fill="grey" stroke="grey" stroke-width="2" points="218.5,-261.879 222.588,-252.104 213.297,-257.196 218.5,-261.879"/>
</g>
</g>
</svg>
