<?xml version="1.0" encoding="UTF-8" standalone="no"?>
<!DOCTYPE svg PUBLIC "-//W3C//DTD SVG 1.1//EN"
 "http://www.w3.org/Graphics/SVG/1.1/DTD/svg11.dtd">
<!-- Generated by graphviz version 2.40.1 (20161225.0304)
 -->
<!-- Title: snakemake_dag Pages: 1 -->
<svg width="1507pt" height="769pt"
 viewBox="0.00 0.00 1507.00 769.00" xmlns="http://www.w3.org/2000/svg" xmlns:xlink="http://www.w3.org/1999/xlink">
<g id="graph0" class="graph" transform="scale(1 1) rotate(0) translate(4 765)">
<title>snakemake_dag</title>
<polygon fill="#ffffff" stroke="transparent" points="-4,4 -4,-765 1503,-765 1503,4 -4,4"/>
<!-- 0 -->
<g id="node1" class="node">
<title>0</title>
<path fill="none" stroke="#d86e56" stroke-width="2" stroke-dasharray="5,2" d="M357.5,-36C357.5,-36 327.5,-36 327.5,-36 321.5,-36 315.5,-30 315.5,-24 315.5,-24 315.5,-12 315.5,-12 315.5,-6 321.5,0 327.5,0 327.5,0 357.5,0 357.5,0 363.5,0 369.5,-6 369.5,-12 369.5,-12 369.5,-24 369.5,-24 369.5,-30 363.5,-36 357.5,-36"/>
<text text-anchor="middle" x="342.5" y="-15.5" font-family="sans" font-size="10.00" fill="#000000">finish</text>
</g>
<!-- 1 -->
<g id="node2" class="node">
<title>1</title>
<path fill="none" stroke="#b6d856" stroke-width="2" stroke-dasharray="5,2" d="M207,-108C207,-108 12,-108 12,-108 6,-108 0,-102 0,-96 0,-96 0,-84 0,-84 0,-78 6,-72 12,-72 12,-72 207,-72 207,-72 213,-72 219,-78 219,-84 219,-84 219,-96 219,-96 219,-102 213,-108 207,-108"/>
<text text-anchor="middle" x="109.5" y="-87.5" font-family="sans" font-size="10.00" fill="#000000">generate_segemehl_index_transcriptome</text>
</g>
<!-- 1&#45;&gt;0 -->
<g id="edge1" class="edge">
<title>1&#45;&gt;0</title>
<path fill="none" stroke="#c0c0c0" stroke-width="2" d="M167.995,-71.9243C211.1214,-58.5977 268.4857,-40.8714 305.4568,-29.4468"/>
<polygon fill="#c0c0c0" stroke="#c0c0c0" stroke-width="2" points="306.7942,-32.6969 315.315,-26.4005 304.7274,-26.009 306.7942,-32.6969"/>
</g>
<!-- 2 -->
<g id="node3" class="node">
<title>2</title>
<path fill="none" stroke="#566bd8" stroke-width="2" stroke-dasharray="5,2" d="M131,-180C131,-180 88,-180 88,-180 82,-180 76,-174 76,-168 76,-168 76,-156 76,-156 76,-150 82,-144 88,-144 88,-144 131,-144 131,-144 137,-144 143,-150 143,-156 143,-156 143,-168 143,-168 143,-174 137,-180 131,-180"/>
<text text-anchor="middle" x="109.5" y="-159.5" font-family="sans" font-size="10.00" fill="#000000">trim_fasta</text>
</g>
<!-- 2&#45;&gt;1 -->
<g id="edge7" class="edge">
<title>2&#45;&gt;1</title>
<path fill="none" stroke="#c0c0c0" stroke-width="2" d="M109.5,-143.8314C109.5,-136.131 109.5,-126.9743 109.5,-118.4166"/>
<polygon fill="#c0c0c0" stroke="#c0c0c0" stroke-width="2" points="113.0001,-118.4132 109.5,-108.4133 106.0001,-118.4133 113.0001,-118.4132"/>
</g>
<!-- 3 -->
<g id="node4" class="node">
<title>3</title>
<path fill="none" stroke="#9fd856" stroke-width="2" stroke-dasharray="5,2" d="M173.5,-252C173.5,-252 45.5,-252 45.5,-252 39.5,-252 33.5,-246 33.5,-240 33.5,-240 33.5,-228 33.5,-228 33.5,-222 39.5,-216 45.5,-216 45.5,-216 173.5,-216 173.5,-216 179.5,-216 185.5,-222 185.5,-228 185.5,-228 185.5,-240 185.5,-240 185.5,-246 179.5,-252 173.5,-252"/>
<text text-anchor="middle" x="109.5" y="-231.5" font-family="sans" font-size="10.00" fill="#000000">extract_transcriptome_seqs</text>
</g>
<!-- 3&#45;&gt;2 -->
<g id="edge8" class="edge">
<title>3&#45;&gt;2</title>
<path fill="none" stroke="#c0c0c0" stroke-width="2" d="M109.5,-215.8314C109.5,-208.131 109.5,-198.9743 109.5,-190.4166"/>
<polygon fill="#c0c0c0" stroke="#c0c0c0" stroke-width="2" points="113.0001,-190.4132 109.5,-180.4133 106.0001,-190.4133 113.0001,-190.4132"/>
</g>
<!-- 4 -->
<g id="node5" class="node">
<title>4</title>
<path fill="none" stroke="#d88556" stroke-width="2" stroke-dasharray="5,2" d="M541,-761C541,-761 402,-761 402,-761 396,-761 390,-755 390,-749 390,-749 390,-737 390,-737 390,-731 396,-725 402,-725 402,-725 541,-725 541,-725 547,-725 553,-731 553,-737 553,-737 553,-749 553,-749 553,-755 547,-761 541,-761"/>
<text text-anchor="middle" x="471.5" y="-746" font-family="sans" font-size="10.00" fill="#000000">genome_process</text>
<text text-anchor="middle" x="471.5" y="-735" font-family="sans" font-size="10.00" fill="#000000">organism: homo_sapiens/chrY</text>
</g>
<!-- 4&#45;&gt;3 -->
<g id="edge9" class="edge">
<title>4&#45;&gt;3</title>
<path fill="none" stroke="#c0c0c0" stroke-width="2" d="M389.8289,-728.047C281.4131,-705.8262 103.5,-660.0594 103.5,-599 103.5,-599 103.5,-599 103.5,-383 103.5,-341.0355 105.9055,-292.4767 107.6703,-262.4985"/>
<polygon fill="#c0c0c0" stroke="#c0c0c0" stroke-width="2" points="111.1744,-262.5347 108.2858,-252.3412 104.1872,-262.1112 111.1744,-262.5347"/>
</g>
<!-- 6 -->
<g id="node7" class="node">
<title>6</title>
<path fill="none" stroke="#56c9d8" stroke-width="2" stroke-dasharray="5,2" d="M399,-617C399,-617 232,-617 232,-617 226,-617 220,-611 220,-605 220,-605 220,-593 220,-593 220,-587 226,-581 232,-581 232,-581 399,-581 399,-581 405,-581 411,-587 411,-593 411,-593 411,-605 411,-605 411,-611 405,-617 399,-617"/>
<text text-anchor="middle" x="315.5" y="-596.5" font-family="sans" font-size="10.00" fill="#000000">generate_segemehl_index_genome</text>
</g>
<!-- 4&#45;&gt;6 -->
<g id="edge11" class="edge">
<title>4&#45;&gt;6</title>
<path fill="none" stroke="#c0c0c0" stroke-width="2" d="M451.7425,-724.7623C424.0795,-699.2272 373.7092,-652.7316 342.5731,-623.9906"/>
<polygon fill="#c0c0c0" stroke="#c0c0c0" stroke-width="2" points="344.8191,-621.3006 335.0971,-617.0896 340.0712,-626.4443 344.8191,-621.3006"/>
</g>
<!-- 9 -->
<g id="node10" class="node">
<title>9</title>
<path fill="none" stroke="#59d856" stroke-width="2" stroke-dasharray="5,2" d="M486,-545C486,-545 379,-545 379,-545 373,-545 367,-539 367,-533 367,-533 367,-521 367,-521 367,-515 373,-509 379,-509 379,-509 486,-509 486,-509 492,-509 498,-515 498,-521 498,-521 498,-533 498,-533 498,-539 492,-545 486,-545"/>
<text text-anchor="middle" x="432.5" y="-524.5" font-family="sans" font-size="10.00" fill="#000000">create_header_genome</text>
</g>
<!-- 4&#45;&gt;9 -->
<g id="edge14" class="edge">
<title>4&#45;&gt;9</title>
<path fill="none" stroke="#c0c0c0" stroke-width="2" d="M466.6938,-724.5836C464.0728,-714.1809 460.8863,-700.9133 458.5,-689 449.1509,-642.3262 440.9286,-587.5572 436.3457,-555.1498"/>
<polygon fill="#c0c0c0" stroke="#c0c0c0" stroke-width="2" points="439.7861,-554.4795 434.9347,-545.0607 432.8536,-555.4491 439.7861,-554.4795"/>
</g>
<!-- 13 -->
<g id="node14" class="node">
<title>13</title>
<path fill="none" stroke="#56d86b" stroke-width="2" stroke-dasharray="5,2" d="M529.5,-689C529.5,-689 479.5,-689 479.5,-689 473.5,-689 467.5,-683 467.5,-677 467.5,-677 467.5,-665 467.5,-665 467.5,-659 473.5,-653 479.5,-653 479.5,-653 529.5,-653 529.5,-653 535.5,-653 541.5,-659 541.5,-665 541.5,-665 541.5,-677 541.5,-677 541.5,-683 535.5,-689 529.5,-689"/>
<text text-anchor="middle" x="504.5" y="-668.5" font-family="sans" font-size="10.00" fill="#000000">mirna_anno</text>
</g>
<!-- 4&#45;&gt;13 -->
<g id="edge19" class="edge">
<title>4&#45;&gt;13</title>
<path fill="none" stroke="#c0c0c0" stroke-width="2" d="M479.8273,-724.8314C483.473,-716.8771 487.8309,-707.369 491.8627,-698.5723"/>
<polygon fill="#c0c0c0" stroke="#c0c0c0" stroke-width="2" points="495.0757,-699.9622 496.0606,-689.4133 488.7123,-697.0456 495.0757,-699.9622"/>
</g>
<!-- 14 -->
<g id="node15" class="node">
<title>14</title>
<path fill="none" stroke="#d8cb56" stroke-width="2" stroke-dasharray="5,2" d="M603,-689C603,-689 572,-689 572,-689 566,-689 560,-683 560,-677 560,-677 560,-665 560,-665 560,-659 566,-653 572,-653 572,-653 603,-653 603,-653 609,-653 615,-659 615,-665 615,-665 615,-677 615,-677 615,-683 609,-689 603,-689"/>
<text text-anchor="middle" x="587.5" y="-668.5" font-family="sans" font-size="10.00" fill="#000000">dict_chr</text>
</g>
<!-- 4&#45;&gt;14 -->
<g id="edge20" class="edge">
<title>4&#45;&gt;14</title>
<path fill="none" stroke="#c0c0c0" stroke-width="2" d="M500.7717,-724.8314C516.0619,-715.3409 534.9156,-703.6386 551.1347,-693.5716"/>
<polygon fill="#c0c0c0" stroke="#c0c0c0" stroke-width="2" points="553.1842,-696.4189 559.8349,-688.1715 549.4927,-690.4714 553.1842,-696.4189"/>
</g>
<!-- 21 -->
<g id="node22" class="node">
<title>21</title>
<path fill="none" stroke="#d8b456" stroke-width="2" stroke-dasharray="5,2" d="M858.5,-689C858.5,-689 772.5,-689 772.5,-689 766.5,-689 760.5,-683 760.5,-677 760.5,-677 760.5,-665 760.5,-665 760.5,-659 766.5,-653 772.5,-653 772.5,-653 858.5,-653 858.5,-653 864.5,-653 870.5,-659 870.5,-665 870.5,-665 870.5,-677 870.5,-677 870.5,-683 864.5,-689 858.5,-689"/>
<text text-anchor="middle" x="815.5" y="-668.5" font-family="sans" font-size="10.00" fill="#000000">create_index_fasta</text>
</g>
<!-- 4&#45;&gt;21 -->
<g id="edge36" class="edge">
<title>4&#45;&gt;21</title>
<path fill="none" stroke="#c0c0c0" stroke-width="2" d="M553.0232,-725.937C613.3753,-713.3052 694.5038,-696.3248 750.5129,-684.6019"/>
<polygon fill="#c0c0c0" stroke="#c0c0c0" stroke-width="2" points="751.2491,-688.0238 760.3199,-682.5493 749.815,-681.1723 751.2491,-688.0238"/>
</g>
<!-- 5 -->
<g id="node6" class="node">
<title>5</title>
<path fill="none" stroke="#70d856" stroke-width="2" stroke-dasharray="5,2" d="M283,-326.5C283,-326.5 144,-326.5 144,-326.5 138,-326.5 132,-320.5 132,-314.5 132,-314.5 132,-302.5 132,-302.5 132,-296.5 138,-290.5 144,-290.5 144,-290.5 283,-290.5 283,-290.5 289,-290.5 295,-296.5 295,-302.5 295,-302.5 295,-314.5 295,-314.5 295,-320.5 289,-326.5 283,-326.5"/>
<text text-anchor="middle" x="213.5" y="-311.5" font-family="sans" font-size="10.00" fill="#000000">filter_anno_gtf</text>
<text text-anchor="middle" x="213.5" y="-300.5" font-family="sans" font-size="10.00" fill="#000000">organism: homo_sapiens/chrY</text>
</g>
<!-- 5&#45;&gt;3 -->
<g id="edge10" class="edge">
<title>5&#45;&gt;3</title>
<path fill="none" stroke="#c0c0c0" stroke-width="2" d="M188.3245,-290.4656C174.7563,-280.7461 157.8327,-268.6229 143.1487,-258.1041"/>
<polygon fill="#c0c0c0" stroke="#c0c0c0" stroke-width="2" points="144.9718,-255.1047 134.8041,-252.1265 140.8953,-260.7953 144.9718,-255.1047"/>
</g>
<!-- 8 -->
<g id="node9" class="node">
<title>8</title>
<path fill="none" stroke="#56d89a" stroke-width="2" stroke-dasharray="5,2" d="M280.5,-252C280.5,-252 218.5,-252 218.5,-252 212.5,-252 206.5,-246 206.5,-240 206.5,-240 206.5,-228 206.5,-228 206.5,-222 212.5,-216 218.5,-216 218.5,-216 280.5,-216 280.5,-216 286.5,-216 292.5,-222 292.5,-228 292.5,-228 292.5,-240 292.5,-240 292.5,-246 286.5,-252 280.5,-252"/>
<text text-anchor="middle" x="249.5" y="-231.5" font-family="sans" font-size="10.00" fill="#000000">get_exons_gtf</text>
</g>
<!-- 5&#45;&gt;8 -->
<g id="edge13" class="edge">
<title>5&#45;&gt;8</title>
<path fill="none" stroke="#c0c0c0" stroke-width="2" d="M222.2146,-290.4656C226.4285,-281.7453 231.5772,-271.0901 236.2623,-261.3948"/>
<polygon fill="#c0c0c0" stroke="#c0c0c0" stroke-width="2" points="239.5413,-262.6532 240.7409,-252.1265 233.2386,-259.6076 239.5413,-262.6532"/>
</g>
<!-- 6&#45;&gt;0 -->
<g id="edge2" class="edge">
<title>6&#45;&gt;0</title>
<path fill="none" stroke="#c0c0c0" stroke-width="2" d="M317.1576,-580.8326C319.5009,-553.5392 323.5,-500.3198 323.5,-455 323.5,-455 323.5,-455 323.5,-162 323.5,-121.5282 330.968,-75.2037 336.54,-46.2725"/>
<polygon fill="#c0c0c0" stroke="#c0c0c0" stroke-width="2" points="340.0483,-46.5746 338.5632,-36.0844 333.1823,-45.2111 340.0483,-46.5746"/>
</g>
<!-- 7 -->
<g id="node8" class="node">
<title>7</title>
<path fill="none" stroke="#d89c56" stroke-width="2" stroke-dasharray="5,2" d="M283.5,-108C283.5,-108 249.5,-108 249.5,-108 243.5,-108 237.5,-102 237.5,-96 237.5,-96 237.5,-84 237.5,-84 237.5,-78 243.5,-72 249.5,-72 249.5,-72 283.5,-72 283.5,-72 289.5,-72 295.5,-78 295.5,-84 295.5,-84 295.5,-96 295.5,-96 295.5,-102 289.5,-108 283.5,-108"/>
<text text-anchor="middle" x="266.5" y="-87.5" font-family="sans" font-size="10.00" fill="#000000">gtftobed</text>
</g>
<!-- 7&#45;&gt;0 -->
<g id="edge3" class="edge">
<title>7&#45;&gt;0</title>
<path fill="none" stroke="#c0c0c0" stroke-width="2" d="M285.678,-71.8314C294.8588,-63.1337 306.0006,-52.5783 315.9776,-43.1265"/>
<polygon fill="#c0c0c0" stroke="#c0c0c0" stroke-width="2" points="318.4757,-45.5811 323.3281,-36.1628 313.6615,-40.4995 318.4757,-45.5811"/>
</g>
<!-- 8&#45;&gt;7 -->
<g id="edge12" class="edge">
<title>8&#45;&gt;7</title>
<path fill="none" stroke="#c0c0c0" stroke-width="2" d="M251.6531,-215.7623C254.5527,-191.201 259.7416,-147.2474 263.1526,-118.3541"/>
<polygon fill="#c0c0c0" stroke="#c0c0c0" stroke-width="2" points="266.6678,-118.431 264.3644,-108.0896 259.7161,-117.6103 266.6678,-118.431"/>
</g>
<!-- 9&#45;&gt;0 -->
<g id="edge4" class="edge">
<title>9&#45;&gt;0</title>
<path fill="none" stroke="#c0c0c0" stroke-width="2" d="M416.7428,-508.8597C395.8256,-482.8524 361.5,-432.6151 361.5,-383 361.5,-383 361.5,-383 361.5,-162 361.5,-121.5282 354.032,-75.2037 348.46,-46.2725"/>
<polygon fill="#c0c0c0" stroke="#c0c0c0" stroke-width="2" points="351.8177,-45.2111 346.4368,-36.0844 344.9517,-46.5746 351.8177,-45.2111"/>
</g>
<!-- 10 -->
<g id="node11" class="node">
<title>10</title>
<path fill="none" stroke="#d85656" stroke-width="2" stroke-dasharray="5,2" d="M590,-473C590,-473 557,-473 557,-473 551,-473 545,-467 545,-461 545,-461 545,-449 545,-449 545,-443 551,-437 557,-437 557,-437 590,-437 590,-437 596,-437 602,-443 602,-449 602,-449 602,-461 602,-461 602,-467 596,-473 590,-473"/>
<text text-anchor="middle" x="573.5" y="-452.5" font-family="sans" font-size="10.00" fill="#000000">gfftobed</text>
</g>
<!-- 10&#45;&gt;0 -->
<g id="edge5" class="edge">
<title>10&#45;&gt;0</title>
<path fill="none" stroke="#c0c0c0" stroke-width="2" d="M544.7674,-445.7697C495.3466,-427.8859 399.5,-383.5304 399.5,-308.5 399.5,-308.5 399.5,-308.5 399.5,-162 399.5,-120.6022 391.7954,-110.0557 375.5,-72 371.5617,-62.8027 366.2497,-53.3159 361.0396,-44.9093"/>
<polygon fill="#c0c0c0" stroke="#c0c0c0" stroke-width="2" points="363.8442,-42.7994 355.4958,-36.276 357.954,-46.5817 363.8442,-42.7994"/>
</g>
<!-- 19 -->
<g id="node20" class="node">
<title>19</title>
<path fill="none" stroke="#56b1d8" stroke-width="2" stroke-dasharray="5,2" d="M864,-401C864,-401 781,-401 781,-401 775,-401 769,-395 769,-389 769,-389 769,-377 769,-377 769,-371 775,-365 781,-365 781,-365 864,-365 864,-365 870,-365 876,-371 876,-377 876,-377 876,-389 876,-389 876,-395 870,-401 864,-401"/>
<text text-anchor="middle" x="822.5" y="-380.5" font-family="sans" font-size="10.00" fill="#000000">filter_mature_mirs</text>
</g>
<!-- 10&#45;&gt;19 -->
<g id="edge34" class="edge">
<title>10&#45;&gt;19</title>
<path fill="none" stroke="#c0c0c0" stroke-width="2" d="M602.0635,-446.7407C640.027,-435.7633 708.1876,-416.0542 758.6993,-401.4484"/>
<polygon fill="#c0c0c0" stroke="#c0c0c0" stroke-width="2" points="759.918,-404.7395 768.5522,-398.5994 757.9735,-398.0149 759.918,-404.7395"/>
</g>
<!-- 11 -->
<g id="node12" class="node">
<title>11</title>
<path fill="none" stroke="#569ad8" stroke-width="2" stroke-dasharray="5,2" d="M612,-545C612,-545 535,-545 535,-545 529,-545 523,-539 523,-533 523,-533 523,-521 523,-521 523,-515 529,-509 535,-509 535,-509 612,-509 612,-509 618,-509 624,-515 624,-521 624,-521 624,-533 624,-533 624,-539 618,-545 612,-545"/>
<text text-anchor="middle" x="573.5" y="-524.5" font-family="sans" font-size="10.00" fill="#000000">filter_mir_1_anno</text>
</g>
<!-- 11&#45;&gt;10 -->
<g id="edge15" class="edge">
<title>11&#45;&gt;10</title>
<path fill="none" stroke="#c0c0c0" stroke-width="2" d="M573.5,-508.8314C573.5,-501.131 573.5,-491.9743 573.5,-483.4166"/>
<polygon fill="#c0c0c0" stroke="#c0c0c0" stroke-width="2" points="577.0001,-483.4132 573.5,-473.4133 570.0001,-483.4133 577.0001,-483.4132"/>
</g>
<!-- 12 -->
<g id="node13" class="node">
<title>12</title>
<path fill="none" stroke="#ced856" stroke-width="2" stroke-dasharray="5,2" d="M610,-617C610,-617 537,-617 537,-617 531,-617 525,-611 525,-605 525,-605 525,-593 525,-593 525,-587 531,-581 537,-581 537,-581 610,-581 610,-581 616,-581 622,-587 622,-593 622,-593 622,-605 622,-605 622,-611 616,-617 610,-617"/>
<text text-anchor="middle" x="573.5" y="-596.5" font-family="sans" font-size="10.00" fill="#000000">map_chr_names</text>
</g>
<!-- 12&#45;&gt;11 -->
<g id="edge16" class="edge">
<title>12&#45;&gt;11</title>
<path fill="none" stroke="#c0c0c0" stroke-width="2" d="M573.5,-580.8314C573.5,-573.131 573.5,-563.9743 573.5,-555.4166"/>
<polygon fill="#c0c0c0" stroke="#c0c0c0" stroke-width="2" points="577.0001,-555.4132 573.5,-545.4133 570.0001,-555.4133 577.0001,-555.4132"/>
</g>
<!-- 13&#45;&gt;12 -->
<g id="edge17" class="edge">
<title>13&#45;&gt;12</title>
<path fill="none" stroke="#c0c0c0" stroke-width="2" d="M521.9116,-652.8314C530.021,-644.3694 539.8156,-634.1489 548.682,-624.8971"/>
<polygon fill="#c0c0c0" stroke="#c0c0c0" stroke-width="2" points="551.4618,-627.0549 555.854,-617.4133 546.4079,-622.2115 551.4618,-627.0549"/>
</g>
<!-- 14&#45;&gt;12 -->
<g id="edge18" class="edge">
<title>14&#45;&gt;12</title>
<path fill="none" stroke="#c0c0c0" stroke-width="2" d="M583.9672,-652.8314C582.4699,-645.131 580.6895,-635.9743 579.0255,-627.4166"/>
<polygon fill="#c0c0c0" stroke="#c0c0c0" stroke-width="2" points="582.4248,-626.5614 577.0804,-617.4133 575.5535,-627.8975 582.4248,-626.5614"/>
</g>
<!-- 15 -->
<g id="node16" class="node">
<title>15</title>
<path fill="none" stroke="#5682d8" stroke-width="2" stroke-dasharray="5,2" d="M747.5,-108C747.5,-108 685.5,-108 685.5,-108 679.5,-108 673.5,-102 673.5,-96 673.5,-96 673.5,-84 673.5,-84 673.5,-78 679.5,-72 685.5,-72 685.5,-72 747.5,-72 747.5,-72 753.5,-72 759.5,-78 759.5,-84 759.5,-84 759.5,-96 759.5,-96 759.5,-102 753.5,-108 747.5,-108"/>
<text text-anchor="middle" x="716.5" y="-87.5" font-family="sans" font-size="10.00" fill="#000000">iso_anno_final</text>
</g>
<!-- 15&#45;&gt;0 -->
<g id="edge6" class="edge">
<title>15&#45;&gt;0</title>
<path fill="none" stroke="#c0c0c0" stroke-width="2" d="M673.2321,-81.6703C599.1603,-67.4105 449.3253,-38.5653 379.6658,-25.1549"/>
<polygon fill="#c0c0c0" stroke="#c0c0c0" stroke-width="2" points="380.0743,-21.6694 369.5929,-23.2158 378.7509,-28.5431 380.0743,-21.6694"/>
</g>
<!-- 16 -->
<g id="node17" class="node">
<title>16</title>
<path fill="none" stroke="#88d856" stroke-width="2" stroke-dasharray="5,2" d="M939.5,-180C939.5,-180 865.5,-180 865.5,-180 859.5,-180 853.5,-174 853.5,-168 853.5,-168 853.5,-156 853.5,-156 853.5,-150 859.5,-144 865.5,-144 865.5,-144 939.5,-144 939.5,-144 945.5,-144 951.5,-150 951.5,-156 951.5,-156 951.5,-168 951.5,-168 951.5,-174 945.5,-180 939.5,-180"/>
<text text-anchor="middle" x="902.5" y="-159.5" font-family="sans" font-size="10.00" fill="#000000">iso_anno_concat</text>
</g>
<!-- 16&#45;&gt;15 -->
<g id="edge21" class="edge">
<title>16&#45;&gt;15</title>
<path fill="none" stroke="#c0c0c0" stroke-width="2" d="M855.5643,-143.8314C829.1867,-133.6207 796.1948,-120.8496 768.9662,-110.3095"/>
<polygon fill="#c0c0c0" stroke="#c0c0c0" stroke-width="2" points="770.1849,-107.0282 759.5958,-106.6822 767.6579,-113.5562 770.1849,-107.0282"/>
</g>
<!-- 17 -->
<g id="node18" class="node">
<title>17</title>
<path fill="none" stroke="#56d882" stroke-width="2" stroke-dasharray="5,2" d="M1245,-252C1245,-252 1166,-252 1166,-252 1160,-252 1154,-246 1154,-240 1154,-240 1154,-228 1154,-228 1154,-222 1160,-216 1166,-216 1166,-216 1245,-216 1245,-216 1251,-216 1257,-222 1257,-228 1257,-228 1257,-240 1257,-240 1257,-246 1251,-252 1245,-252"/>
<text text-anchor="middle" x="1205.5" y="-231.5" font-family="sans" font-size="10.00" fill="#000000">iso_anno_rename</text>
</g>
<!-- 17&#45;&gt;16 -->
<g id="edge22" class="edge">
<title>17&#45;&gt;16</title>
<path fill="none" stroke="#c0c0c0" stroke-width="2" d="M1153.8566,-218.2469C1151.0353,-217.4676 1148.2361,-216.7134 1145.5,-216 1083.0986,-199.7293 1010.8817,-184.0796 961.4936,-173.8551"/>
<polygon fill="#c0c0c0" stroke="#c0c0c0" stroke-width="2" points="962.1224,-170.4112 951.6217,-171.8207 960.7094,-177.2671 962.1224,-170.4112"/>
</g>
<!-- 18 -->
<g id="node19" class="node">
<title>18</title>
<path fill="none" stroke="#56d8b1" stroke-width="2" stroke-dasharray="5,2" d="M1097.5,-329C1097.5,-329 1059.5,-329 1059.5,-329 1053.5,-329 1047.5,-323 1047.5,-317 1047.5,-317 1047.5,-300 1047.5,-300 1047.5,-294 1053.5,-288 1059.5,-288 1059.5,-288 1097.5,-288 1097.5,-288 1103.5,-288 1109.5,-294 1109.5,-300 1109.5,-300 1109.5,-317 1109.5,-317 1109.5,-323 1103.5,-329 1097.5,-329"/>
<text text-anchor="middle" x="1078.5" y="-317" font-family="sans" font-size="10.00" fill="#000000">iso_anno</text>
<text text-anchor="middle" x="1078.5" y="-306" font-family="sans" font-size="10.00" fill="#000000">bp_3p: &#45;1</text>
<text text-anchor="middle" x="1078.5" y="-295" font-family="sans" font-size="10.00" fill="#000000">bp_5p: &#45;1</text>
</g>
<!-- 18&#45;&gt;17 -->
<g id="edge31" class="edge">
<title>18&#45;&gt;17</title>
<path fill="none" stroke="#c0c0c0" stroke-width="2" d="M1109.5677,-290.2752C1126.6067,-280.28 1147.9043,-267.7864 1166.1013,-257.1118"/>
<polygon fill="#c0c0c0" stroke="#c0c0c0" stroke-width="2" points="1167.8985,-260.1154 1174.753,-252.0366 1164.3566,-254.0775 1167.8985,-260.1154"/>
</g>
<!-- 19&#45;&gt;18 -->
<g id="edge32" class="edge">
<title>19&#45;&gt;18</title>
<path fill="none" stroke="#c0c0c0" stroke-width="2" d="M876.0691,-367.5085C879.256,-366.6447 882.4177,-365.8025 885.5,-365 950.0665,-348.1901 971.0565,-352.6418 1037.6698,-328.8971"/>
<polygon fill="#c0c0c0" stroke="#c0c0c0" stroke-width="2" points="1039.1864,-332.0696 1047.3813,-325.3544 1036.7874,-325.4935 1039.1864,-332.0696"/>
</g>
<!-- 23 -->
<g id="node24" class="node">
<title>23</title>
<path fill="none" stroke="#56d8b1" stroke-width="2" stroke-dasharray="5,2" d="M1177.5,-329C1177.5,-329 1139.5,-329 1139.5,-329 1133.5,-329 1127.5,-323 1127.5,-317 1127.5,-317 1127.5,-300 1127.5,-300 1127.5,-294 1133.5,-288 1139.5,-288 1139.5,-288 1177.5,-288 1177.5,-288 1183.5,-288 1189.5,-294 1189.5,-300 1189.5,-300 1189.5,-317 1189.5,-317 1189.5,-323 1183.5,-329 1177.5,-329"/>
<text text-anchor="middle" x="1158.5" y="-317" font-family="sans" font-size="10.00" fill="#000000">iso_anno</text>
<text text-anchor="middle" x="1158.5" y="-306" font-family="sans" font-size="10.00" fill="#000000">bp_3p: &#45;1</text>
<text text-anchor="middle" x="1158.5" y="-295" font-family="sans" font-size="10.00" fill="#000000">bp_5p: 0</text>
</g>
<!-- 19&#45;&gt;23 -->
<g id="edge38" class="edge">
<title>19&#45;&gt;23</title>
<path fill="none" stroke="#c0c0c0" stroke-width="2" d="M876.0004,-367.2218C879.2046,-366.4301 882.3888,-365.682 885.5,-365 984.7553,-343.2422 1016.8807,-360.2118 1117.8083,-328.6955"/>
<polygon fill="#c0c0c0" stroke="#c0c0c0" stroke-width="2" points="1119.0119,-331.9852 1127.4661,-325.5994 1116.8749,-325.3194 1119.0119,-331.9852"/>
</g>
<!-- 25 -->
<g id="node26" class="node">
<title>25</title>
<path fill="none" stroke="#56d8b1" stroke-width="2" stroke-dasharray="5,2" d="M1257.5,-329C1257.5,-329 1219.5,-329 1219.5,-329 1213.5,-329 1207.5,-323 1207.5,-317 1207.5,-317 1207.5,-300 1207.5,-300 1207.5,-294 1213.5,-288 1219.5,-288 1219.5,-288 1257.5,-288 1257.5,-288 1263.5,-288 1269.5,-294 1269.5,-300 1269.5,-300 1269.5,-317 1269.5,-317 1269.5,-323 1263.5,-329 1257.5,-329"/>
<text text-anchor="middle" x="1238.5" y="-317" font-family="sans" font-size="10.00" fill="#000000">iso_anno</text>
<text text-anchor="middle" x="1238.5" y="-306" font-family="sans" font-size="10.00" fill="#000000">bp_3p: &#45;1</text>
<text text-anchor="middle" x="1238.5" y="-295" font-family="sans" font-size="10.00" fill="#000000">bp_5p: 1</text>
</g>
<!-- 19&#45;&gt;25 -->
<g id="edge41" class="edge">
<title>19&#45;&gt;25</title>
<path fill="none" stroke="#c0c0c0" stroke-width="2" d="M876.3144,-366.9972C879.4101,-366.2725 882.4878,-365.5994 885.5,-365 1019.6173,-338.3145 1062.4776,-368.1219 1197.1954,-328.8575"/>
<polygon fill="#c0c0c0" stroke="#c0c0c0" stroke-width="2" points="1198.478,-332.1272 1207.0564,-325.9093 1196.4728,-325.4205 1198.478,-332.1272"/>
</g>
<!-- 27 -->
<g id="node28" class="node">
<title>27</title>
<path fill="none" stroke="#56d8b1" stroke-width="2" stroke-dasharray="5,2" d="M625.5,-329C625.5,-329 587.5,-329 587.5,-329 581.5,-329 575.5,-323 575.5,-317 575.5,-317 575.5,-300 575.5,-300 575.5,-294 581.5,-288 587.5,-288 587.5,-288 625.5,-288 625.5,-288 631.5,-288 637.5,-294 637.5,-300 637.5,-300 637.5,-317 637.5,-317 637.5,-323 631.5,-329 625.5,-329"/>
<text text-anchor="middle" x="606.5" y="-317" font-family="sans" font-size="10.00" fill="#000000">iso_anno</text>
<text text-anchor="middle" x="606.5" y="-306" font-family="sans" font-size="10.00" fill="#000000">bp_3p: 0</text>
<text text-anchor="middle" x="606.5" y="-295" font-family="sans" font-size="10.00" fill="#000000">bp_5p: &#45;1</text>
</g>
<!-- 19&#45;&gt;27 -->
<g id="edge44" class="edge">
<title>19&#45;&gt;27</title>
<path fill="none" stroke="#c0c0c0" stroke-width="2" d="M768.8973,-369.1985C735.8592,-360.0919 692.6315,-347.0993 647.1323,-328.9682"/>
<polygon fill="#c0c0c0" stroke="#c0c0c0" stroke-width="2" points="648.2813,-325.6575 637.6987,-325.1473 645.6534,-332.1455 648.2813,-325.6575"/>
</g>
<!-- 29 -->
<g id="node30" class="node">
<title>29</title>
<path fill="none" stroke="#56d8b1" stroke-width="2" stroke-dasharray="5,2" d="M703.5,-329C703.5,-329 667.5,-329 667.5,-329 661.5,-329 655.5,-323 655.5,-317 655.5,-317 655.5,-300 655.5,-300 655.5,-294 661.5,-288 667.5,-288 667.5,-288 703.5,-288 703.5,-288 709.5,-288 715.5,-294 715.5,-300 715.5,-300 715.5,-317 715.5,-317 715.5,-323 709.5,-329 703.5,-329"/>
<text text-anchor="middle" x="685.5" y="-317" font-family="sans" font-size="10.00" fill="#000000">iso_anno</text>
<text text-anchor="middle" x="685.5" y="-306" font-family="sans" font-size="10.00" fill="#000000">bp_3p: 0</text>
<text text-anchor="middle" x="685.5" y="-295" font-family="sans" font-size="10.00" fill="#000000">bp_5p: 0</text>
</g>
<!-- 19&#45;&gt;29 -->
<g id="edge47" class="edge">
<title>19&#45;&gt;29</title>
<path fill="none" stroke="#c0c0c0" stroke-width="2" d="M789.3361,-364.9656C769.833,-354.3599 745.0671,-340.8923 724.6141,-329.7701"/>
<polygon fill="#c0c0c0" stroke="#c0c0c0" stroke-width="2" points="726.0118,-326.5461 715.5546,-324.8436 722.6677,-332.6957 726.0118,-326.5461"/>
</g>
<!-- 31 -->
<g id="node32" class="node">
<title>31</title>
<path fill="none" stroke="#56d8b1" stroke-width="2" stroke-dasharray="5,2" d="M781.5,-329C781.5,-329 745.5,-329 745.5,-329 739.5,-329 733.5,-323 733.5,-317 733.5,-317 733.5,-300 733.5,-300 733.5,-294 739.5,-288 745.5,-288 745.5,-288 781.5,-288 781.5,-288 787.5,-288 793.5,-294 793.5,-300 793.5,-300 793.5,-317 793.5,-317 793.5,-323 787.5,-329 781.5,-329"/>
<text text-anchor="middle" x="763.5" y="-317" font-family="sans" font-size="10.00" fill="#000000">iso_anno</text>
<text text-anchor="middle" x="763.5" y="-306" font-family="sans" font-size="10.00" fill="#000000">bp_3p: 0</text>
<text text-anchor="middle" x="763.5" y="-295" font-family="sans" font-size="10.00" fill="#000000">bp_5p: 1</text>
</g>
<!-- 19&#45;&gt;31 -->
<g id="edge50" class="edge">
<title>19&#45;&gt;31</title>
<path fill="none" stroke="#c0c0c0" stroke-width="2" d="M808.2177,-364.9656C801.6234,-356.6389 793.6321,-346.5481 786.2394,-337.2133"/>
<polygon fill="#c0c0c0" stroke="#c0c0c0" stroke-width="2" points="788.8992,-334.9343 779.947,-329.2679 783.4117,-339.2802 788.8992,-334.9343"/>
</g>
<!-- 33 -->
<g id="node34" class="node">
<title>33</title>
<path fill="none" stroke="#56d8b1" stroke-width="2" stroke-dasharray="5,2" d="M861.5,-329C861.5,-329 823.5,-329 823.5,-329 817.5,-329 811.5,-323 811.5,-317 811.5,-317 811.5,-300 811.5,-300 811.5,-294 817.5,-288 823.5,-288 823.5,-288 861.5,-288 861.5,-288 867.5,-288 873.5,-294 873.5,-300 873.5,-300 873.5,-317 873.5,-317 873.5,-323 867.5,-329 861.5,-329"/>
<text text-anchor="middle" x="842.5" y="-317" font-family="sans" font-size="10.00" fill="#000000">iso_anno</text>
<text text-anchor="middle" x="842.5" y="-306" font-family="sans" font-size="10.00" fill="#000000">bp_3p: 1</text>
<text text-anchor="middle" x="842.5" y="-295" font-family="sans" font-size="10.00" fill="#000000">bp_5p: &#45;1</text>
</g>
<!-- 19&#45;&gt;33 -->
<g id="edge53" class="edge">
<title>19&#45;&gt;33</title>
<path fill="none" stroke="#c0c0c0" stroke-width="2" d="M827.3414,-364.9656C829.4187,-357.2277 831.905,-347.9663 834.2574,-339.2038"/>
<polygon fill="#c0c0c0" stroke="#c0c0c0" stroke-width="2" points="837.7122,-339.8334 836.9247,-329.2679 830.9516,-338.0184 837.7122,-339.8334"/>
</g>
<!-- 35 -->
<g id="node36" class="node">
<title>35</title>
<path fill="none" stroke="#56d8b1" stroke-width="2" stroke-dasharray="5,2" d="M939.5,-329C939.5,-329 903.5,-329 903.5,-329 897.5,-329 891.5,-323 891.5,-317 891.5,-317 891.5,-300 891.5,-300 891.5,-294 897.5,-288 903.5,-288 903.5,-288 939.5,-288 939.5,-288 945.5,-288 951.5,-294 951.5,-300 951.5,-300 951.5,-317 951.5,-317 951.5,-323 945.5,-329 939.5,-329"/>
<text text-anchor="middle" x="921.5" y="-317" font-family="sans" font-size="10.00" fill="#000000">iso_anno</text>
<text text-anchor="middle" x="921.5" y="-306" font-family="sans" font-size="10.00" fill="#000000">bp_3p: 1</text>
<text text-anchor="middle" x="921.5" y="-295" font-family="sans" font-size="10.00" fill="#000000">bp_5p: 0</text>
</g>
<!-- 19&#45;&gt;35 -->
<g id="edge56" class="edge">
<title>19&#45;&gt;35</title>
<path fill="none" stroke="#c0c0c0" stroke-width="2" d="M846.4651,-364.9656C858.2008,-356.1343 872.5734,-345.3185 885.5877,-335.5249"/>
<polygon fill="#c0c0c0" stroke="#c0c0c0" stroke-width="2" points="888.0166,-338.0774 893.9024,-329.2679 883.8076,-332.4842 888.0166,-338.0774"/>
</g>
<!-- 37 -->
<g id="node38" class="node">
<title>37</title>
<path fill="none" stroke="#56d8b1" stroke-width="2" stroke-dasharray="5,2" d="M1017.5,-329C1017.5,-329 981.5,-329 981.5,-329 975.5,-329 969.5,-323 969.5,-317 969.5,-317 969.5,-300 969.5,-300 969.5,-294 975.5,-288 981.5,-288 981.5,-288 1017.5,-288 1017.5,-288 1023.5,-288 1029.5,-294 1029.5,-300 1029.5,-300 1029.5,-317 1029.5,-317 1029.5,-323 1023.5,-329 1017.5,-329"/>
<text text-anchor="middle" x="999.5" y="-317" font-family="sans" font-size="10.00" fill="#000000">iso_anno</text>
<text text-anchor="middle" x="999.5" y="-306" font-family="sans" font-size="10.00" fill="#000000">bp_3p: 1</text>
<text text-anchor="middle" x="999.5" y="-295" font-family="sans" font-size="10.00" fill="#000000">bp_5p: 1</text>
</g>
<!-- 19&#45;&gt;37 -->
<g id="edge59" class="edge">
<title>19&#45;&gt;37</title>
<path fill="none" stroke="#c0c0c0" stroke-width="2" d="M872.5569,-364.9436C896.833,-355.8355 926.4897,-344.1949 960.2755,-328.9125"/>
<polygon fill="#c0c0c0" stroke="#c0c0c0" stroke-width="2" points="961.7911,-332.068 969.4309,-324.7275 958.881,-325.7016 961.7911,-332.068"/>
</g>
<!-- 20 -->
<g id="node21" class="node">
<title>20</title>
<path fill="none" stroke="#56d8c9" stroke-width="2" stroke-dasharray="5,2" d="M974.5,-401C974.5,-401 906.5,-401 906.5,-401 900.5,-401 894.5,-395 894.5,-389 894.5,-389 894.5,-377 894.5,-377 894.5,-371 900.5,-365 906.5,-365 906.5,-365 974.5,-365 974.5,-365 980.5,-365 986.5,-371 986.5,-377 986.5,-377 986.5,-389 986.5,-389 986.5,-395 980.5,-401 974.5,-401"/>
<text text-anchor="middle" x="940.5" y="-380.5" font-family="sans" font-size="10.00" fill="#000000">extract_chr_len</text>
</g>
<!-- 20&#45;&gt;18 -->
<g id="edge33" class="edge">
<title>20&#45;&gt;18</title>
<path fill="none" stroke="#c0c0c0" stroke-width="2" d="M973.906,-364.9656C993.2747,-354.5093 1017.7964,-341.2711 1038.2273,-330.2414"/>
<polygon fill="#c0c0c0" stroke="#c0c0c0" stroke-width="2" points="1040.1565,-333.1774 1047.2934,-325.347 1036.8311,-327.0177 1040.1565,-333.1774"/>
</g>
<!-- 20&#45;&gt;23 -->
<g id="edge39" class="edge">
<title>20&#45;&gt;23</title>
<path fill="none" stroke="#c0c0c0" stroke-width="2" d="M986.6376,-371.4431C1020.834,-362.3331 1068.5762,-348.4728 1117.7774,-328.9936"/>
<polygon fill="#c0c0c0" stroke="#c0c0c0" stroke-width="2" points="1119.3363,-332.139 1127.3052,-325.1571 1116.7216,-325.6456 1119.3363,-332.139"/>
</g>
<!-- 20&#45;&gt;25 -->
<g id="edge42" class="edge">
<title>20&#45;&gt;25</title>
<path fill="none" stroke="#c0c0c0" stroke-width="2" d="M986.7141,-377.1305C1037.0889,-369.9013 1119.8819,-355.5828 1197.9187,-328.7648"/>
<polygon fill="#c0c0c0" stroke="#c0c0c0" stroke-width="2" points="1199.1339,-332.0477 1207.4093,-325.432 1196.8145,-325.4431 1199.1339,-332.0477"/>
</g>
<!-- 20&#45;&gt;27 -->
<g id="edge45" class="edge">
<title>20&#45;&gt;27</title>
<path fill="none" stroke="#c0c0c0" stroke-width="2" d="M894.4458,-367.3101C891.4334,-366.4754 888.4327,-365.6956 885.5,-365 784.0417,-340.9342 750.6997,-360.6954 647.1056,-328.6565"/>
<polygon fill="#c0c0c0" stroke="#c0c0c0" stroke-width="2" points="648.1205,-325.3066 637.53,-325.6115 645.9991,-331.9775 648.1205,-325.3066"/>
</g>
<!-- 20&#45;&gt;29 -->
<g id="edge48" class="edge">
<title>20&#45;&gt;29</title>
<path fill="none" stroke="#c0c0c0" stroke-width="2" d="M894.3843,-367.5507C891.3869,-366.6571 888.4064,-365.7985 885.5,-365 817.8355,-346.4091 795.2636,-353.5816 725.4978,-328.9214"/>
<polygon fill="#c0c0c0" stroke="#c0c0c0" stroke-width="2" points="726.4011,-325.5259 715.807,-325.4021 724.0116,-332.1054 726.4011,-325.5259"/>
</g>
<!-- 20&#45;&gt;31 -->
<g id="edge51" class="edge">
<title>20&#45;&gt;31</title>
<path fill="none" stroke="#c0c0c0" stroke-width="2" d="M894.2817,-366.3795C869.4433,-357.1154 838.2051,-344.9356 803.0776,-329.0697"/>
<polygon fill="#c0c0c0" stroke="#c0c0c0" stroke-width="2" points="804.1194,-325.6978 793.5691,-324.7275 801.2115,-332.0653 804.1194,-325.6978"/>
</g>
<!-- 20&#45;&gt;33 -->
<g id="edge54" class="edge">
<title>20&#45;&gt;33</title>
<path fill="none" stroke="#c0c0c0" stroke-width="2" d="M916.7769,-364.9656C905.1598,-356.1343 890.9324,-345.3185 878.0496,-335.5249"/>
<polygon fill="#c0c0c0" stroke="#c0c0c0" stroke-width="2" points="879.8978,-332.5335 869.8188,-329.2679 875.6615,-338.1061 879.8978,-332.5335"/>
</g>
<!-- 20&#45;&gt;35 -->
<g id="edge57" class="edge">
<title>20&#45;&gt;35</title>
<path fill="none" stroke="#c0c0c0" stroke-width="2" d="M935.9006,-364.9656C933.9272,-357.2277 931.5652,-347.9663 929.3305,-339.2038"/>
<polygon fill="#c0c0c0" stroke="#c0c0c0" stroke-width="2" points="932.6593,-338.0928 926.7965,-329.2679 925.8764,-339.8227 932.6593,-338.0928"/>
</g>
<!-- 20&#45;&gt;37 -->
<g id="edge60" class="edge">
<title>20&#45;&gt;37</title>
<path fill="none" stroke="#c0c0c0" stroke-width="2" d="M954.7823,-364.9656C961.3766,-356.6389 969.3679,-346.5481 976.7606,-337.2133"/>
<polygon fill="#c0c0c0" stroke="#c0c0c0" stroke-width="2" points="979.5883,-339.2802 983.053,-329.2679 974.1008,-334.9343 979.5883,-339.2802"/>
</g>
<!-- 21&#45;&gt;20 -->
<g id="edge35" class="edge">
<title>21&#45;&gt;20</title>
<path fill="none" stroke="#c0c0c0" stroke-width="2" d="M823.3193,-652.9843C844.54,-604.0919 903.3131,-468.6785 928.638,-410.33"/>
<polygon fill="#c0c0c0" stroke="#c0c0c0" stroke-width="2" points="931.9128,-411.5756 932.6836,-401.0089 925.4915,-408.7886 931.9128,-411.5756"/>
</g>
<!-- 22 -->
<g id="node23" class="node">
<title>22</title>
<path fill="none" stroke="#56d882" stroke-width="2" stroke-dasharray="5,2" d="M1366,-252C1366,-252 1287,-252 1287,-252 1281,-252 1275,-246 1275,-240 1275,-240 1275,-228 1275,-228 1275,-222 1281,-216 1287,-216 1287,-216 1366,-216 1366,-216 1372,-216 1378,-222 1378,-228 1378,-228 1378,-240 1378,-240 1378,-246 1372,-252 1366,-252"/>
<text text-anchor="middle" x="1326.5" y="-231.5" font-family="sans" font-size="10.00" fill="#000000">iso_anno_rename</text>
</g>
<!-- 22&#45;&gt;16 -->
<g id="edge23" class="edge">
<title>22&#45;&gt;16</title>
<path fill="none" stroke="#c0c0c0" stroke-width="2" d="M1274.9141,-218.0093C1272.0779,-217.2913 1269.2598,-216.6153 1266.5,-216 1160.4136,-192.3475 1034.566,-176.2829 962.0781,-168.1673"/>
<polygon fill="#c0c0c0" stroke="#c0c0c0" stroke-width="2" points="962.1033,-164.6488 951.779,-167.0276 961.3334,-171.6063 962.1033,-164.6488"/>
</g>
<!-- 23&#45;&gt;22 -->
<g id="edge37" class="edge">
<title>23&#45;&gt;22</title>
<path fill="none" stroke="#c0c0c0" stroke-width="2" d="M1189.8339,-292.1629C1192.7499,-290.7269 1195.6712,-289.3193 1198.5,-288 1222.3119,-276.8941 1249.0366,-265.4617 1271.8831,-255.9918"/>
<polygon fill="#c0c0c0" stroke="#c0c0c0" stroke-width="2" points="1273.5069,-259.1082 1281.4173,-252.0601 1270.8382,-252.6369 1273.5069,-259.1082"/>
</g>
<!-- 24 -->
<g id="node25" class="node">
<title>24</title>
<path fill="none" stroke="#56d882" stroke-width="2" stroke-dasharray="5,2" d="M1487,-252C1487,-252 1408,-252 1408,-252 1402,-252 1396,-246 1396,-240 1396,-240 1396,-228 1396,-228 1396,-222 1402,-216 1408,-216 1408,-216 1487,-216 1487,-216 1493,-216 1499,-222 1499,-228 1499,-228 1499,-240 1499,-240 1499,-246 1493,-252 1487,-252"/>
<text text-anchor="middle" x="1447.5" y="-231.5" font-family="sans" font-size="10.00" fill="#000000">iso_anno_rename</text>
</g>
<!-- 24&#45;&gt;16 -->
<g id="edge24" class="edge">
<title>24&#45;&gt;16</title>
<path fill="none" stroke="#c0c0c0" stroke-width="2" d="M1395.9401,-217.8875C1393.0972,-217.2009 1390.2706,-216.565 1387.5,-216 1236.0278,-185.1105 1054.0874,-170.8211 962.0651,-165.1607"/>
<polygon fill="#c0c0c0" stroke="#c0c0c0" stroke-width="2" points="962.0256,-161.6521 951.8331,-164.5443 961.6045,-168.6394 962.0256,-161.6521"/>
</g>
<!-- 25&#45;&gt;24 -->
<g id="edge40" class="edge">
<title>25&#45;&gt;24</title>
<path fill="none" stroke="#c0c0c0" stroke-width="2" d="M1269.7894,-297.3466C1300.7581,-286.3075 1348.9656,-269.1235 1387.3616,-255.4369"/>
<polygon fill="#c0c0c0" stroke="#c0c0c0" stroke-width="2" points="1388.6512,-258.693 1396.8955,-252.0385 1386.3008,-252.0994 1388.6512,-258.693"/>
</g>
<!-- 26 -->
<g id="node27" class="node">
<title>26</title>
<path fill="none" stroke="#56d882" stroke-width="2" stroke-dasharray="5,2" d="M519,-252C519,-252 440,-252 440,-252 434,-252 428,-246 428,-240 428,-240 428,-228 428,-228 428,-222 434,-216 440,-216 440,-216 519,-216 519,-216 525,-216 531,-222 531,-228 531,-228 531,-240 531,-240 531,-246 525,-252 519,-252"/>
<text text-anchor="middle" x="479.5" y="-231.5" font-family="sans" font-size="10.00" fill="#000000">iso_anno_rename</text>
</g>
<!-- 26&#45;&gt;16 -->
<g id="edge25" class="edge">
<title>26&#45;&gt;16</title>
<path fill="none" stroke="#c0c0c0" stroke-width="2" d="M531.2867,-218.1865C534.393,-217.4037 537.4812,-216.6672 540.5,-216 645.9118,-192.7034 770.8468,-176.5451 842.9651,-168.311"/>
<polygon fill="#c0c0c0" stroke="#c0c0c0" stroke-width="2" points="843.6696,-171.7537 853.2136,-167.1537 842.884,-164.798 843.6696,-171.7537"/>
</g>
<!-- 27&#45;&gt;26 -->
<g id="edge43" class="edge">
<title>27&#45;&gt;26</title>
<path fill="none" stroke="#c0c0c0" stroke-width="2" d="M575.4323,-290.2752C558.3933,-280.28 537.0957,-267.7864 518.8987,-257.1118"/>
<polygon fill="#c0c0c0" stroke="#c0c0c0" stroke-width="2" points="520.6434,-254.0775 510.247,-252.0366 517.1015,-260.1154 520.6434,-254.0775"/>
</g>
<!-- 28 -->
<g id="node29" class="node">
<title>28</title>
<path fill="none" stroke="#56d882" stroke-width="2" stroke-dasharray="5,2" d="M640,-252C640,-252 561,-252 561,-252 555,-252 549,-246 549,-240 549,-240 549,-228 549,-228 549,-222 555,-216 561,-216 561,-216 640,-216 640,-216 646,-216 652,-222 652,-228 652,-228 652,-240 652,-240 652,-246 646,-252 640,-252"/>
<text text-anchor="middle" x="600.5" y="-231.5" font-family="sans" font-size="10.00" fill="#000000">iso_anno_rename</text>
</g>
<!-- 28&#45;&gt;16 -->
<g id="edge26" class="edge">
<title>28&#45;&gt;16</title>
<path fill="none" stroke="#c0c0c0" stroke-width="2" d="M652.0176,-218.5362C655.2202,-217.6562 658.4004,-216.8036 661.5,-216 723.2401,-199.9928 794.6002,-184.3557 843.5551,-174.0633"/>
<polygon fill="#c0c0c0" stroke="#c0c0c0" stroke-width="2" points="844.2732,-177.4889 853.3436,-172.0137 842.8386,-170.6375 844.2732,-177.4889"/>
</g>
<!-- 29&#45;&gt;28 -->
<g id="edge46" class="edge">
<title>29&#45;&gt;28</title>
<path fill="none" stroke="#c0c0c0" stroke-width="2" d="M661.8228,-287.7476C651.5454,-278.7398 639.4277,-268.119 628.6898,-258.7076"/>
<polygon fill="#c0c0c0" stroke="#c0c0c0" stroke-width="2" points="630.9882,-256.0679 621.1609,-252.1087 626.3742,-261.3321 630.9882,-256.0679"/>
</g>
<!-- 30 -->
<g id="node31" class="node">
<title>30</title>
<path fill="none" stroke="#56d882" stroke-width="2" stroke-dasharray="5,2" d="M761,-252C761,-252 682,-252 682,-252 676,-252 670,-246 670,-240 670,-240 670,-228 670,-228 670,-222 676,-216 682,-216 682,-216 761,-216 761,-216 767,-216 773,-222 773,-228 773,-228 773,-240 773,-240 773,-246 767,-252 761,-252"/>
<text text-anchor="middle" x="721.5" y="-231.5" font-family="sans" font-size="10.00" fill="#000000">iso_anno_rename</text>
</g>
<!-- 30&#45;&gt;16 -->
<g id="edge27" class="edge">
<title>30&#45;&gt;16</title>
<path fill="none" stroke="#c0c0c0" stroke-width="2" d="M767.1739,-215.8314C791.5968,-206.1162 821.8466,-194.0831 847.5484,-183.8592"/>
<polygon fill="#c0c0c0" stroke="#c0c0c0" stroke-width="2" points="849.1563,-186.9864 857.1545,-180.038 846.569,-180.4821 849.1563,-186.9864"/>
</g>
<!-- 31&#45;&gt;30 -->
<g id="edge49" class="edge">
<title>31&#45;&gt;30</title>
<path fill="none" stroke="#c0c0c0" stroke-width="2" d="M751.8007,-287.7476C747.1168,-279.4394 741.6595,-269.7591 736.677,-260.9211"/>
<polygon fill="#c0c0c0" stroke="#c0c0c0" stroke-width="2" points="739.6688,-259.1009 731.7089,-252.1087 733.571,-262.5386 739.6688,-259.1009"/>
</g>
<!-- 32 -->
<g id="node33" class="node">
<title>32</title>
<path fill="none" stroke="#56d882" stroke-width="2" stroke-dasharray="5,2" d="M882,-252C882,-252 803,-252 803,-252 797,-252 791,-246 791,-240 791,-240 791,-228 791,-228 791,-222 797,-216 803,-216 803,-216 882,-216 882,-216 888,-216 894,-222 894,-228 894,-228 894,-240 894,-240 894,-246 888,-252 882,-252"/>
<text text-anchor="middle" x="842.5" y="-231.5" font-family="sans" font-size="10.00" fill="#000000">iso_anno_rename</text>
</g>
<!-- 32&#45;&gt;16 -->
<g id="edge28" class="edge">
<title>32&#45;&gt;16</title>
<path fill="none" stroke="#c0c0c0" stroke-width="2" d="M857.6405,-215.8314C864.6217,-207.454 873.0391,-197.3531 880.6876,-188.1749"/>
<polygon fill="#c0c0c0" stroke="#c0c0c0" stroke-width="2" points="883.4425,-190.3362 887.1556,-180.4133 878.0649,-185.8548 883.4425,-190.3362"/>
</g>
<!-- 33&#45;&gt;32 -->
<g id="edge52" class="edge">
<title>33&#45;&gt;32</title>
<path fill="none" stroke="#c0c0c0" stroke-width="2" d="M842.5,-287.7476C842.5,-279.8767 842.5,-270.7743 842.5,-262.3232"/>
<polygon fill="#c0c0c0" stroke="#c0c0c0" stroke-width="2" points="846.0001,-262.1086 842.5,-252.1087 839.0001,-262.1087 846.0001,-262.1086"/>
</g>
<!-- 34 -->
<g id="node35" class="node">
<title>34</title>
<path fill="none" stroke="#56d882" stroke-width="2" stroke-dasharray="5,2" d="M1003,-252C1003,-252 924,-252 924,-252 918,-252 912,-246 912,-240 912,-240 912,-228 912,-228 912,-222 918,-216 924,-216 924,-216 1003,-216 1003,-216 1009,-216 1015,-222 1015,-228 1015,-228 1015,-240 1015,-240 1015,-246 1009,-252 1003,-252"/>
<text text-anchor="middle" x="963.5" y="-231.5" font-family="sans" font-size="10.00" fill="#000000">iso_anno_rename</text>
</g>
<!-- 34&#45;&gt;16 -->
<g id="edge29" class="edge">
<title>34&#45;&gt;16</title>
<path fill="none" stroke="#c0c0c0" stroke-width="2" d="M948.1071,-215.8314C941.0096,-207.454 932.452,-197.3531 924.676,-188.1749"/>
<polygon fill="#c0c0c0" stroke="#c0c0c0" stroke-width="2" points="927.2348,-185.7807 918.1001,-180.4133 921.8939,-190.3056 927.2348,-185.7807"/>
</g>
<!-- 35&#45;&gt;34 -->
<g id="edge55" class="edge">
<title>35&#45;&gt;34</title>
<path fill="none" stroke="#c0c0c0" stroke-width="2" d="M933.1993,-287.7476C937.8832,-279.4394 943.3405,-269.7591 948.323,-260.9211"/>
<polygon fill="#c0c0c0" stroke="#c0c0c0" stroke-width="2" points="951.429,-262.5386 953.2911,-252.1087 945.3312,-259.1009 951.429,-262.5386"/>
</g>
<!-- 36 -->
<g id="node37" class="node">
<title>36</title>
<path fill="none" stroke="#56d882" stroke-width="2" stroke-dasharray="5,2" d="M1124,-252C1124,-252 1045,-252 1045,-252 1039,-252 1033,-246 1033,-240 1033,-240 1033,-228 1033,-228 1033,-222 1039,-216 1045,-216 1045,-216 1124,-216 1124,-216 1130,-216 1136,-222 1136,-228 1136,-228 1136,-240 1136,-240 1136,-246 1130,-252 1124,-252"/>
<text text-anchor="middle" x="1084.5" y="-231.5" font-family="sans" font-size="10.00" fill="#000000">iso_anno_rename</text>
</g>
<!-- 36&#45;&gt;16 -->
<g id="edge30" class="edge">
<title>36&#45;&gt;16</title>
<path fill="none" stroke="#c0c0c0" stroke-width="2" d="M1038.5737,-215.8314C1013.9077,-206.0734 983.3309,-193.977 957.414,-183.7242"/>
<polygon fill="#c0c0c0" stroke="#c0c0c0" stroke-width="2" points="958.6824,-180.4621 948.096,-180.038 956.1073,-186.9713 958.6824,-180.4621"/>
</g>
<!-- 37&#45;&gt;36 -->
<g id="edge58" class="edge">
<title>37&#45;&gt;36</title>
<path fill="none" stroke="#c0c0c0" stroke-width="2" d="M1023.1772,-287.7476C1033.4546,-278.7398 1045.5723,-268.119 1056.3102,-258.7076"/>
<polygon fill="#c0c0c0" stroke="#c0c0c0" stroke-width="2" points="1058.6258,-261.3321 1063.8391,-252.1087 1054.0118,-256.0679 1058.6258,-261.3321"/>
</g>
</g>
</svg>
