<?xml version="1.0" encoding="UTF-8" standalone="no"?>
<!DOCTYPE svg PUBLIC "-//W3C//DTD SVG 1.1//EN"
 "http://www.w3.org/Graphics/SVG/1.1/DTD/svg11.dtd">
<!-- Generated by graphviz version 2.40.1 (20161225.0304)
 -->
<!-- Title: snakemake_dag Pages: 1 -->
<svg width="410pt" height="404pt"
 viewBox="0.00 0.00 410.00 404.00" xmlns="http://www.w3.org/2000/svg" xmlns:xlink="http://www.w3.org/1999/xlink">
<g id="graph0" class="graph" transform="scale(1 1) rotate(0) translate(4 400)">
<title>snakemake_dag</title>
<polygon fill="#ffffff" stroke="transparent" points="-4,4 -4,-400 406,-400 406,4 -4,4"/>
<!-- 0 -->
<g id="node1" class="node">
<title>0</title>
<path fill="none" stroke="#d85656" stroke-width="2" stroke-dasharray="5,2" d="M211,-36C211,-36 181,-36 181,-36 175,-36 169,-30 169,-24 169,-24 169,-12 169,-12 169,-6 175,0 181,0 181,0 211,0 211,0 217,0 223,-6 223,-12 223,-12 223,-24 223,-24 223,-30 217,-36 211,-36"/>
<text text-anchor="middle" x="196" y="-15.5" font-family="sans" font-size="10.00" fill="#000000">finish</text>
</g>
<!-- 1 -->
<g id="node2" class="node">
<title>1</title>
<path fill="none" stroke="#56d87b" stroke-width="2" stroke-dasharray="5,2" d="M81.5,-108C81.5,-108 22.5,-108 22.5,-108 16.5,-108 10.5,-102 10.5,-96 10.5,-96 10.5,-84 10.5,-84 10.5,-78 16.5,-72 22.5,-72 22.5,-72 81.5,-72 81.5,-72 87.5,-72 93.5,-78 93.5,-84 93.5,-84 93.5,-96 93.5,-96 93.5,-102 87.5,-108 81.5,-108"/>
<text text-anchor="middle" x="52" y="-93" font-family="sans" font-size="10.00" fill="#000000">merge_tables</text>
<text text-anchor="middle" x="52" y="-82" font-family="sans" font-size="10.00" fill="#000000">mir: miRNA</text>
</g>
<!-- 1&#45;&gt;0 -->
<g id="edge1" class="edge">
<title>1&#45;&gt;0</title>
<path fill="none" stroke="#c0c0c0" stroke-width="2" d="M88.3373,-71.8314C110.2083,-60.8959 137.9528,-47.0236 159.7992,-36.1004"/>
<polygon fill="#c0c0c0" stroke="#c0c0c0" stroke-width="2" points="161.3876,-39.2194 168.7666,-31.6167 158.257,-32.9584 161.3876,-39.2194"/>
</g>
<!-- 2 -->
<g id="node3" class="node">
<title>2</title>
<path fill="none" stroke="#56a2d8" stroke-width="2" stroke-dasharray="5,2" d="M66,-180C66,-180 12,-180 12,-180 6,-180 0,-174 0,-168 0,-168 0,-156 0,-156 0,-150 6,-144 12,-144 12,-144 66,-144 66,-144 72,-144 78,-150 78,-156 78,-156 78,-168 78,-168 78,-174 72,-180 66,-180"/>
<text text-anchor="middle" x="39" y="-159.5" font-family="sans" font-size="10.00" fill="#000000">quant_mirna</text>
</g>
<!-- 2&#45;&gt;1 -->
<g id="edge4" class="edge">
<title>2&#45;&gt;1</title>
<path fill="none" stroke="#c0c0c0" stroke-width="2" d="M42.2804,-143.8314C43.6708,-136.131 45.3241,-126.9743 46.8692,-118.4166"/>
<polygon fill="#c0c0c0" stroke="#c0c0c0" stroke-width="2" points="50.3428,-118.8761 48.6754,-108.4133 43.4542,-117.6322 50.3428,-118.8761"/>
</g>
<!-- 11 -->
<g id="node12" class="node">
<title>11</title>
<path fill="none" stroke="#56d87b" stroke-width="2" stroke-dasharray="5,2" d="M268,-108C268,-108 124,-108 124,-108 118,-108 112,-102 112,-96 112,-96 112,-84 112,-84 112,-78 118,-72 124,-72 124,-72 268,-72 268,-72 274,-72 280,-78 280,-84 280,-84 280,-96 280,-96 280,-102 274,-108 268,-108"/>
<text text-anchor="middle" x="196" y="-93" font-family="sans" font-size="10.00" fill="#000000">merge_tables</text>
<text text-anchor="middle" x="196" y="-82" font-family="sans" font-size="10.00" fill="#000000">mir: miRNA_primary_transcript</text>
</g>
<!-- 2&#45;&gt;11 -->
<g id="edge15" class="edge">
<title>2&#45;&gt;11</title>
<path fill="none" stroke="#c0c0c0" stroke-width="2" d="M78.2127,-144.0171C99.1933,-134.3954 125.2185,-122.4603 147.4656,-112.2578"/>
<polygon fill="#c0c0c0" stroke="#c0c0c0" stroke-width="2" points="149.1123,-115.3532 156.743,-108.0032 146.1943,-108.9904 149.1123,-115.3532"/>
</g>
<!-- 12 -->
<g id="node13" class="node">
<title>12</title>
<path fill="none" stroke="#56d87b" stroke-width="2" stroke-dasharray="5,2" d="M369.5,-108C369.5,-108 310.5,-108 310.5,-108 304.5,-108 298.5,-102 298.5,-96 298.5,-96 298.5,-84 298.5,-84 298.5,-78 304.5,-72 310.5,-72 310.5,-72 369.5,-72 369.5,-72 375.5,-72 381.5,-78 381.5,-84 381.5,-84 381.5,-96 381.5,-96 381.5,-102 375.5,-108 369.5,-108"/>
<text text-anchor="middle" x="340" y="-93" font-family="sans" font-size="10.00" fill="#000000">merge_tables</text>
<text text-anchor="middle" x="340" y="-82" font-family="sans" font-size="10.00" fill="#000000">mir: isomirs</text>
</g>
<!-- 2&#45;&gt;12 -->
<g id="edge19" class="edge">
<title>2&#45;&gt;12</title>
<path fill="none" stroke="#c0c0c0" stroke-width="2" d="M78.101,-146.6731C81.0918,-145.7051 84.0817,-144.8 87,-144 171.9414,-120.714 198.9806,-130.5171 288.662,-107.8291"/>
<polygon fill="#c0c0c0" stroke="#c0c0c0" stroke-width="2" points="289.624,-111.1955 298.424,-105.2954 287.8654,-104.42 289.624,-111.1955"/>
</g>
<!-- 3 -->
<g id="node4" class="node">
<title>3</title>
<path fill="none" stroke="#d8a456" stroke-width="2" stroke-dasharray="5,2" d="M148.5,-252C148.5,-252 79.5,-252 79.5,-252 73.5,-252 67.5,-246 67.5,-240 67.5,-240 67.5,-228 67.5,-228 67.5,-222 73.5,-216 79.5,-216 79.5,-216 148.5,-216 148.5,-216 154.5,-216 160.5,-222 160.5,-228 160.5,-228 160.5,-240 160.5,-240 160.5,-246 154.5,-252 148.5,-252"/>
<text text-anchor="middle" x="114" y="-231.5" font-family="sans" font-size="10.00" fill="#000000">intersect_mirna</text>
</g>
<!-- 3&#45;&gt;2 -->
<g id="edge8" class="edge">
<title>3&#45;&gt;2</title>
<path fill="none" stroke="#c0c0c0" stroke-width="2" d="M95.0743,-215.8314C86.0143,-207.1337 75.0191,-196.5783 65.1735,-187.1265"/>
<polygon fill="#c0c0c0" stroke="#c0c0c0" stroke-width="2" points="67.5574,-184.5633 57.9196,-180.1628 62.7096,-189.613 67.5574,-184.5633"/>
</g>
<!-- 6 -->
<g id="node7" class="node">
<title>6</title>
<path fill="none" stroke="#c6d856" stroke-width="2" stroke-dasharray="5,2" d="M180,-180C180,-180 108,-180 108,-180 102,-180 96,-174 96,-168 96,-168 96,-156 96,-156 96,-150 102,-144 108,-144 108,-144 180,-144 180,-144 186,-144 192,-150 192,-156 192,-156 192,-168 192,-168 192,-174 186,-180 180,-180"/>
<text text-anchor="middle" x="144" y="-159.5" font-family="sans" font-size="10.00" fill="#000000">quant_mirna_pri</text>
</g>
<!-- 3&#45;&gt;6 -->
<g id="edge11" class="edge">
<title>3&#45;&gt;6</title>
<path fill="none" stroke="#c0c0c0" stroke-width="2" d="M121.5703,-215.8314C124.8493,-207.9617 128.762,-198.5712 132.3945,-189.8533"/>
<polygon fill="#c0c0c0" stroke="#c0c0c0" stroke-width="2" points="135.7124,-190.9902 136.3278,-180.4133 129.2508,-188.2979 135.7124,-190.9902"/>
</g>
<!-- 4 -->
<g id="node5" class="node">
<title>4</title>
<path fill="none" stroke="#56d8c9" stroke-width="2" stroke-dasharray="5,2" d="M149.5,-324C149.5,-324 78.5,-324 78.5,-324 72.5,-324 66.5,-318 66.5,-312 66.5,-312 66.5,-300 66.5,-300 66.5,-294 72.5,-288 78.5,-288 78.5,-288 149.5,-288 149.5,-288 155.5,-288 161.5,-294 161.5,-300 161.5,-300 161.5,-312 161.5,-312 161.5,-318 155.5,-324 149.5,-324"/>
<text text-anchor="middle" x="114" y="-303.5" font-family="sans" font-size="10.00" fill="#000000">sort_alignments</text>
</g>
<!-- 4&#45;&gt;3 -->
<g id="edge9" class="edge">
<title>4&#45;&gt;3</title>
<path fill="none" stroke="#c0c0c0" stroke-width="2" d="M114,-287.8314C114,-280.131 114,-270.9743 114,-262.4166"/>
<polygon fill="#c0c0c0" stroke="#c0c0c0" stroke-width="2" points="117.5001,-262.4132 114,-252.4133 110.5001,-262.4133 117.5001,-262.4132"/>
</g>
<!-- 5 -->
<g id="node6" class="node">
<title>5</title>
<path fill="none" stroke="#78d856" stroke-width="2" stroke-dasharray="5,2" d="M149.5,-396C149.5,-396 78.5,-396 78.5,-396 72.5,-396 66.5,-390 66.5,-384 66.5,-384 66.5,-372 66.5,-372 66.5,-366 72.5,-360 78.5,-360 78.5,-360 149.5,-360 149.5,-360 155.5,-360 161.5,-366 161.5,-372 161.5,-372 161.5,-384 161.5,-384 161.5,-390 155.5,-396 149.5,-396"/>
<text text-anchor="middle" x="114" y="-381" font-family="sans" font-size="10.00" fill="#000000">bamtobed</text>
<text text-anchor="middle" x="114" y="-370" font-family="sans" font-size="10.00" fill="#000000">sample: test_lib</text>
</g>
<!-- 5&#45;&gt;4 -->
<g id="edge10" class="edge">
<title>5&#45;&gt;4</title>
<path fill="none" stroke="#c0c0c0" stroke-width="2" d="M114,-359.8314C114,-352.131 114,-342.9743 114,-334.4166"/>
<polygon fill="#c0c0c0" stroke="#c0c0c0" stroke-width="2" points="117.5001,-334.4132 114,-324.4133 110.5001,-334.4133 117.5001,-334.4132"/>
</g>
<!-- 6&#45;&gt;1 -->
<g id="edge5" class="edge">
<title>6&#45;&gt;1</title>
<path fill="none" stroke="#c0c0c0" stroke-width="2" d="M120.7845,-143.8314C109.453,-134.9632 95.6536,-124.1637 83.3973,-114.5718"/>
<polygon fill="#c0c0c0" stroke="#c0c0c0" stroke-width="2" points="85.2402,-111.5697 75.2081,-108.1628 80.926,-117.0822 85.2402,-111.5697"/>
</g>
<!-- 6&#45;&gt;11 -->
<g id="edge16" class="edge">
<title>6&#45;&gt;11</title>
<path fill="none" stroke="#c0c0c0" stroke-width="2" d="M157.1218,-143.8314C163.0499,-135.6232 170.1729,-125.7606 176.6933,-116.7323"/>
<polygon fill="#c0c0c0" stroke="#c0c0c0" stroke-width="2" points="179.684,-118.5693 182.7015,-108.4133 174.0092,-114.4708 179.684,-118.5693"/>
</g>
<!-- 6&#45;&gt;12 -->
<g id="edge20" class="edge">
<title>6&#45;&gt;12</title>
<path fill="none" stroke="#c0c0c0" stroke-width="2" d="M192.198,-144.2946C221.5518,-133.5116 259.0246,-119.7461 288.8932,-108.7739"/>
<polygon fill="#c0c0c0" stroke="#c0c0c0" stroke-width="2" points="290.1239,-112.0506 298.3037,-105.317 287.7101,-105.4799 290.1239,-112.0506"/>
</g>
<!-- 7 -->
<g id="node8" class="node">
<title>7</title>
<path fill="none" stroke="#56a2d8" stroke-width="2" stroke-dasharray="5,2" d="M276,-180C276,-180 222,-180 222,-180 216,-180 210,-174 210,-168 210,-168 210,-156 210,-156 210,-150 216,-144 222,-144 222,-144 276,-144 276,-144 282,-144 288,-150 288,-156 288,-156 288,-168 288,-168 288,-174 282,-180 276,-180"/>
<text text-anchor="middle" x="249" y="-159.5" font-family="sans" font-size="10.00" fill="#000000">quant_mirna</text>
</g>
<!-- 7&#45;&gt;1 -->
<g id="edge6" class="edge">
<title>7&#45;&gt;1</title>
<path fill="none" stroke="#c0c0c0" stroke-width="2" d="M209.9807,-147.3266C206.9434,-146.197 203.9227,-145.0776 201,-144 168.5287,-132.028 131.996,-118.7844 103.2318,-108.409"/>
<polygon fill="#c0c0c0" stroke="#c0c0c0" stroke-width="2" points="104.3862,-105.1047 93.7918,-105.0063 102.0125,-111.69 104.3862,-105.1047"/>
</g>
<!-- 7&#45;&gt;11 -->
<g id="edge17" class="edge">
<title>7&#45;&gt;11</title>
<path fill="none" stroke="#c0c0c0" stroke-width="2" d="M235.6259,-143.8314C229.5838,-135.6232 222.3237,-125.7606 215.6779,-116.7323"/>
<polygon fill="#c0c0c0" stroke="#c0c0c0" stroke-width="2" points="218.3011,-114.3918 209.5542,-108.4133 212.6637,-118.5415 218.3011,-114.3918"/>
</g>
<!-- 7&#45;&gt;12 -->
<g id="edge21" class="edge">
<title>7&#45;&gt;12</title>
<path fill="none" stroke="#c0c0c0" stroke-width="2" d="M271.9631,-143.8314C283.1715,-134.9632 296.8209,-124.1637 308.9439,-114.5718"/>
<polygon fill="#c0c0c0" stroke="#c0c0c0" stroke-width="2" points="311.3737,-117.1125 317.0442,-108.1628 307.0303,-111.6229 311.3737,-117.1125"/>
</g>
<!-- 8 -->
<g id="node9" class="node">
<title>8</title>
<path fill="none" stroke="#d8a456" stroke-width="2" stroke-dasharray="5,2" d="M312.5,-252C312.5,-252 243.5,-252 243.5,-252 237.5,-252 231.5,-246 231.5,-240 231.5,-240 231.5,-228 231.5,-228 231.5,-222 237.5,-216 243.5,-216 243.5,-216 312.5,-216 312.5,-216 318.5,-216 324.5,-222 324.5,-228 324.5,-228 324.5,-240 324.5,-240 324.5,-246 318.5,-252 312.5,-252"/>
<text text-anchor="middle" x="278" y="-231.5" font-family="sans" font-size="10.00" fill="#000000">intersect_mirna</text>
</g>
<!-- 8&#45;&gt;7 -->
<g id="edge12" class="edge">
<title>8&#45;&gt;7</title>
<path fill="none" stroke="#c0c0c0" stroke-width="2" d="M270.6821,-215.8314C267.5124,-207.9617 263.73,-198.5712 260.2187,-189.8533"/>
<polygon fill="#c0c0c0" stroke="#c0c0c0" stroke-width="2" points="263.3992,-188.3815 256.4165,-180.4133 256.9061,-190.9968 263.3992,-188.3815"/>
</g>
<!-- 10 -->
<g id="node11" class="node">
<title>10</title>
<path fill="none" stroke="#c6d856" stroke-width="2" stroke-dasharray="5,2" d="M390,-180C390,-180 318,-180 318,-180 312,-180 306,-174 306,-168 306,-168 306,-156 306,-156 306,-150 312,-144 318,-144 318,-144 390,-144 390,-144 396,-144 402,-150 402,-156 402,-156 402,-168 402,-168 402,-174 396,-180 390,-180"/>
<text text-anchor="middle" x="354" y="-159.5" font-family="sans" font-size="10.00" fill="#000000">quant_mirna_pri</text>
</g>
<!-- 8&#45;&gt;10 -->
<g id="edge14" class="edge">
<title>8&#45;&gt;10</title>
<path fill="none" stroke="#c0c0c0" stroke-width="2" d="M297.178,-215.8314C306.3588,-207.1337 317.5006,-196.5783 327.4776,-187.1265"/>
<polygon fill="#c0c0c0" stroke="#c0c0c0" stroke-width="2" points="329.9757,-189.5811 334.8281,-180.1628 325.1615,-184.4995 329.9757,-189.5811"/>
</g>
<!-- 9 -->
<g id="node10" class="node">
<title>9</title>
<path fill="none" stroke="#56d8c9" stroke-width="2" stroke-dasharray="5,2" d="M319,-324C319,-324 237,-324 237,-324 231,-324 225,-318 225,-312 225,-312 225,-300 225,-300 225,-294 231,-288 237,-288 237,-288 319,-288 319,-288 325,-288 331,-294 331,-300 331,-300 331,-312 331,-312 331,-318 325,-324 319,-324"/>
<text text-anchor="middle" x="278" y="-309" font-family="sans" font-size="10.00" fill="#000000">sort_alignments</text>
<text text-anchor="middle" x="278" y="-298" font-family="sans" font-size="10.00" fill="#000000">sample: test_lib_2</text>
</g>
<!-- 9&#45;&gt;8 -->
<g id="edge13" class="edge">
<title>9&#45;&gt;8</title>
<path fill="none" stroke="#c0c0c0" stroke-width="2" d="M278,-287.8314C278,-280.131 278,-270.9743 278,-262.4166"/>
<polygon fill="#c0c0c0" stroke="#c0c0c0" stroke-width="2" points="281.5001,-262.4132 278,-252.4133 274.5001,-262.4133 281.5001,-262.4132"/>
</g>
<!-- 10&#45;&gt;1 -->
<g id="edge7" class="edge">
<title>10&#45;&gt;1</title>
<path fill="none" stroke="#c0c0c0" stroke-width="2" d="M305.916,-146.3603C302.9096,-145.5239 299.9198,-144.729 297,-144 214.9089,-123.5033 189.4924,-130.1421 103.257,-107.8279"/>
<polygon fill="#c0c0c0" stroke="#c0c0c0" stroke-width="2" points="104.145,-104.4424 93.5826,-105.2706 102.3561,-111.21 104.145,-104.4424"/>
</g>
<!-- 10&#45;&gt;11 -->
<g id="edge18" class="edge">
<title>10&#45;&gt;11</title>
<path fill="none" stroke="#c0c0c0" stroke-width="2" d="M314.1299,-143.8314C293.0923,-134.2446 267.1017,-122.4008 244.8604,-112.2655"/>
<polygon fill="#c0c0c0" stroke="#c0c0c0" stroke-width="2" points="246.1345,-108.9999 235.5834,-108.038 243.2317,-115.3697 246.1345,-108.9999"/>
</g>
<!-- 10&#45;&gt;12 -->
<g id="edge22" class="edge">
<title>10&#45;&gt;12</title>
<path fill="none" stroke="#c0c0c0" stroke-width="2" d="M350.4672,-143.8314C348.9699,-136.131 347.1895,-126.9743 345.5255,-118.4166"/>
<polygon fill="#c0c0c0" stroke="#c0c0c0" stroke-width="2" points="348.9248,-117.5614 343.5804,-108.4133 342.0535,-118.8975 348.9248,-117.5614"/>
</g>
<!-- 11&#45;&gt;0 -->
<g id="edge2" class="edge">
<title>11&#45;&gt;0</title>
<path fill="none" stroke="#c0c0c0" stroke-width="2" d="M196,-71.8314C196,-64.131 196,-54.9743 196,-46.4166"/>
<polygon fill="#c0c0c0" stroke="#c0c0c0" stroke-width="2" points="199.5001,-46.4132 196,-36.4133 192.5001,-46.4133 199.5001,-46.4132"/>
</g>
<!-- 12&#45;&gt;0 -->
<g id="edge3" class="edge">
<title>12&#45;&gt;0</title>
<path fill="none" stroke="#c0c0c0" stroke-width="2" d="M303.6627,-71.8314C281.7917,-60.8959 254.0472,-47.0236 232.2008,-36.1004"/>
<polygon fill="#c0c0c0" stroke="#c0c0c0" stroke-width="2" points="233.743,-32.9584 223.2334,-31.6167 230.6124,-39.2194 233.743,-32.9584"/>
</g>
</g>
</svg>
