<?xml version="1.0" encoding="UTF-8" standalone="no"?>
<!DOCTYPE svg PUBLIC "-//W3C//DTD SVG 1.1//EN"
 "http://www.w3.org/Graphics/SVG/1.1/DTD/svg11.dtd">
<!-- Generated by graphviz version 2.40.1 (20161225.0304)
 -->
<!-- Title: snakemake_dag Pages: 1 -->
<svg width="596pt" height="337pt"
 viewBox="0.00 0.00 595.50 337.00" xmlns="http://www.w3.org/2000/svg" xmlns:xlink="http://www.w3.org/1999/xlink">
<g id="graph0" class="graph" transform="scale(1 1) rotate(0) translate(4 333)">
<title>snakemake_dag</title>
<polygon fill="#ffffff" stroke="transparent" points="-4,4 -4,-333 591.5,-333 591.5,4 -4,4"/>
<!-- 0 -->
<g id="node1" class="node">
<title>0</title>
<path fill="none" stroke="#d88d56" stroke-width="2" d="M300.5,-36C300.5,-36 270.5,-36 270.5,-36 264.5,-36 258.5,-30 258.5,-24 258.5,-24 258.5,-12 258.5,-12 258.5,-6 264.5,0 270.5,0 270.5,0 300.5,0 300.5,0 306.5,0 312.5,-6 312.5,-12 312.5,-12 312.5,-24 312.5,-24 312.5,-30 306.5,-36 300.5,-36"/>
<text text-anchor="middle" x="285.5" y="-15.5" font-family="sans" font-size="10.00" fill="#000000">finish</text>
</g>
<!-- 1 -->
<g id="node2" class="node">
<title>1</title>
<path fill="none" stroke="#56c1d8" stroke-width="2" d="M495,-108C495,-108 300,-108 300,-108 294,-108 288,-102 288,-96 288,-96 288,-84 288,-84 288,-78 294,-72 300,-72 300,-72 495,-72 495,-72 501,-72 507,-78 507,-84 507,-84 507,-96 507,-96 507,-102 501,-108 495,-108"/>
<text text-anchor="middle" x="397.5" y="-87.5" font-family="sans" font-size="10.00" fill="#000000">generate_segemehl_index_transcriptome</text>
</g>
<!-- 1&#45;&gt;0 -->
<g id="edge1" class="edge">
<title>1&#45;&gt;0</title>
<path fill="none" stroke="#c0c0c0" stroke-width="2" d="M369.2377,-71.8314C354.7198,-62.4984 336.8745,-51.0264 321.3932,-41.0742"/>
<polygon fill="#c0c0c0" stroke="#c0c0c0" stroke-width="2" points="322.8987,-37.8812 312.5942,-35.4177 319.1134,-43.7695 322.8987,-37.8812"/>
</g>
<!-- 2 -->
<g id="node3" class="node">
<title>2</title>
<path fill="none" stroke="#d85656" stroke-width="2" d="M419,-180C419,-180 376,-180 376,-180 370,-180 364,-174 364,-168 364,-168 364,-156 364,-156 364,-150 370,-144 376,-144 376,-144 419,-144 419,-144 425,-144 431,-150 431,-156 431,-156 431,-168 431,-168 431,-174 425,-180 419,-180"/>
<text text-anchor="middle" x="397.5" y="-159.5" font-family="sans" font-size="10.00" fill="#000000">trim_fasta</text>
</g>
<!-- 2&#45;&gt;1 -->
<g id="edge5" class="edge">
<title>2&#45;&gt;1</title>
<path fill="none" stroke="#c0c0c0" stroke-width="2" d="M397.5,-143.8314C397.5,-136.131 397.5,-126.9743 397.5,-118.4166"/>
<polygon fill="#c0c0c0" stroke="#c0c0c0" stroke-width="2" points="401.0001,-118.4132 397.5,-108.4133 394.0001,-118.4133 401.0001,-118.4132"/>
</g>
<!-- 3 -->
<g id="node4" class="node">
<title>3</title>
<path fill="none" stroke="#bed856" stroke-width="2" d="M461.5,-252C461.5,-252 333.5,-252 333.5,-252 327.5,-252 321.5,-246 321.5,-240 321.5,-240 321.5,-228 321.5,-228 321.5,-222 327.5,-216 333.5,-216 333.5,-216 461.5,-216 461.5,-216 467.5,-216 473.5,-222 473.5,-228 473.5,-228 473.5,-240 473.5,-240 473.5,-246 467.5,-252 461.5,-252"/>
<text text-anchor="middle" x="397.5" y="-231.5" font-family="sans" font-size="10.00" fill="#000000">extract_transcriptome_seqs</text>
</g>
<!-- 3&#45;&gt;2 -->
<g id="edge6" class="edge">
<title>3&#45;&gt;2</title>
<path fill="none" stroke="#c0c0c0" stroke-width="2" d="M397.5,-215.8314C397.5,-208.131 397.5,-198.9743 397.5,-190.4166"/>
<polygon fill="#c0c0c0" stroke="#c0c0c0" stroke-width="2" points="401.0001,-190.4132 397.5,-180.4133 394.0001,-190.4133 401.0001,-190.4132"/>
</g>
<!-- 4 -->
<g id="node5" class="node">
<title>4</title>
<path fill="none" stroke="#d8bc56" stroke-width="2" d="M244,-329C244,-329 105,-329 105,-329 99,-329 93,-323 93,-317 93,-317 93,-300 93,-300 93,-294 99,-288 105,-288 105,-288 244,-288 244,-288 250,-288 256,-294 256,-300 256,-300 256,-317 256,-317 256,-323 250,-329 244,-329"/>
<text text-anchor="middle" x="174.5" y="-317" font-family="sans" font-size="10.00" fill="#000000">genome_process</text>
<text text-anchor="middle" x="174.5" y="-306" font-family="sans" font-size="10.00" fill="#000000">organism: homo_sapiens</text>
<text text-anchor="middle" x="174.5" y="-295" font-family="sans" font-size="10.00" fill="#000000">prefix_name: GRCh38.98_chrY</text>
</g>
<!-- 4&#45;&gt;3 -->
<g id="edge7" class="edge">
<title>4&#45;&gt;3</title>
<path fill="none" stroke="#c0c0c0" stroke-width="2" d="M236.026,-287.9453C266.388,-277.802 302.9835,-265.5761 333.6536,-255.3298"/>
<polygon fill="#c0c0c0" stroke="#c0c0c0" stroke-width="2" points="335.0122,-258.5662 343.3879,-252.0778 332.7941,-251.9269 335.0122,-258.5662"/>
</g>
<!-- 6 -->
<g id="node7" class="node">
<title>6</title>
<path fill="none" stroke="#568ad8" stroke-width="2" d="M258,-108C258,-108 91,-108 91,-108 85,-108 79,-102 79,-96 79,-96 79,-84 79,-84 79,-78 85,-72 91,-72 91,-72 258,-72 258,-72 264,-72 270,-78 270,-84 270,-84 270,-96 270,-96 270,-102 264,-108 258,-108"/>
<text text-anchor="middle" x="174.5" y="-87.5" font-family="sans" font-size="10.00" fill="#000000">generate_segemehl_index_genome</text>
</g>
<!-- 4&#45;&gt;6 -->
<g id="edge9" class="edge">
<title>4&#45;&gt;6</title>
<path fill="none" stroke="#c0c0c0" stroke-width="2" d="M174.5,-287.9441C174.5,-248.6867 174.5,-162.9857 174.5,-118.331"/>
<polygon fill="#c0c0c0" stroke="#c0c0c0" stroke-width="2" points="178.0001,-118.1716 174.5,-108.1716 171.0001,-118.1716 178.0001,-118.1716"/>
</g>
<!-- 9 -->
<g id="node10" class="node">
<title>9</title>
<path fill="none" stroke="#59d856" stroke-width="2" d="M119,-180C119,-180 12,-180 12,-180 6,-180 0,-174 0,-168 0,-168 0,-156 0,-156 0,-150 6,-144 12,-144 12,-144 119,-144 119,-144 125,-144 131,-150 131,-156 131,-156 131,-168 131,-168 131,-174 125,-180 119,-180"/>
<text text-anchor="middle" x="65.5" y="-159.5" font-family="sans" font-size="10.00" fill="#000000">create_header_genome</text>
</g>
<!-- 4&#45;&gt;9 -->
<g id="edge12" class="edge">
<title>4&#45;&gt;9</title>
<path fill="none" stroke="#c0c0c0" stroke-width="2" d="M159.1141,-287.8208C139.7559,-261.8027 106.4824,-217.0819 85.2602,-188.5585"/>
<polygon fill="#c0c0c0" stroke="#c0c0c0" stroke-width="2" points="87.867,-186.1987 79.0897,-180.265 82.251,-190.3773 87.867,-186.1987"/>
</g>
<!-- 5 -->
<g id="node6" class="node">
<title>5</title>
<path fill="none" stroke="#88d856" stroke-width="2" d="M540,-329C540,-329 401,-329 401,-329 395,-329 389,-323 389,-317 389,-317 389,-300 389,-300 389,-294 395,-288 401,-288 401,-288 540,-288 540,-288 546,-288 552,-294 552,-300 552,-300 552,-317 552,-317 552,-323 546,-329 540,-329"/>
<text text-anchor="middle" x="470.5" y="-317" font-family="sans" font-size="10.00" fill="#000000">filter_anno_gtf</text>
<text text-anchor="middle" x="470.5" y="-306" font-family="sans" font-size="10.00" fill="#000000">organism: homo_sapiens</text>
<text text-anchor="middle" x="470.5" y="-295" font-family="sans" font-size="10.00" fill="#000000">prefix_name: GRCh38.98_chrY</text>
</g>
<!-- 5&#45;&gt;3 -->
<g id="edge8" class="edge">
<title>5&#45;&gt;3</title>
<path fill="none" stroke="#c0c0c0" stroke-width="2" d="M450.1654,-287.7476C441.5104,-278.9147 431.3356,-268.5308 422.2486,-259.2571"/>
<polygon fill="#c0c0c0" stroke="#c0c0c0" stroke-width="2" points="424.7428,-256.8017 415.2441,-252.1087 419.743,-261.7009 424.7428,-256.8017"/>
</g>
<!-- 8 -->
<g id="node9" class="node">
<title>8</title>
<path fill="none" stroke="#56d8c1" stroke-width="2" d="M575.5,-252C575.5,-252 513.5,-252 513.5,-252 507.5,-252 501.5,-246 501.5,-240 501.5,-240 501.5,-228 501.5,-228 501.5,-222 507.5,-216 513.5,-216 513.5,-216 575.5,-216 575.5,-216 581.5,-216 587.5,-222 587.5,-228 587.5,-228 587.5,-240 587.5,-240 587.5,-246 581.5,-252 575.5,-252"/>
<text text-anchor="middle" x="544.5" y="-231.5" font-family="sans" font-size="10.00" fill="#000000">get_exons_gtf</text>
</g>
<!-- 5&#45;&gt;8 -->
<g id="edge11" class="edge">
<title>5&#45;&gt;8</title>
<path fill="none" stroke="#c0c0c0" stroke-width="2" d="M491.1131,-287.7476C499.8868,-278.9147 510.2009,-268.5308 519.4124,-259.2571"/>
<polygon fill="#c0c0c0" stroke="#c0c0c0" stroke-width="2" points="521.9488,-261.6701 526.5129,-252.1087 516.9824,-256.737 521.9488,-261.6701"/>
</g>
<!-- 6&#45;&gt;0 -->
<g id="edge2" class="edge">
<title>6&#45;&gt;0</title>
<path fill="none" stroke="#c0c0c0" stroke-width="2" d="M202.51,-71.8314C216.7909,-62.5681 234.3205,-51.1975 249.5834,-41.2972"/>
<polygon fill="#c0c0c0" stroke="#c0c0c0" stroke-width="2" points="251.7815,-44.0434 258.2664,-35.665 247.9721,-38.1706 251.7815,-44.0434"/>
</g>
<!-- 7 -->
<g id="node8" class="node">
<title>7</title>
<path fill="none" stroke="#56d88a" stroke-width="2" d="M571.5,-108C571.5,-108 537.5,-108 537.5,-108 531.5,-108 525.5,-102 525.5,-96 525.5,-96 525.5,-84 525.5,-84 525.5,-78 531.5,-72 537.5,-72 537.5,-72 571.5,-72 571.5,-72 577.5,-72 583.5,-78 583.5,-84 583.5,-84 583.5,-96 583.5,-96 583.5,-102 577.5,-108 571.5,-108"/>
<text text-anchor="middle" x="554.5" y="-87.5" font-family="sans" font-size="10.00" fill="#000000">gtftobed</text>
</g>
<!-- 7&#45;&gt;0 -->
<g id="edge3" class="edge">
<title>7&#45;&gt;0</title>
<path fill="none" stroke="#c0c0c0" stroke-width="2" d="M525.3009,-75.4138C522.3621,-74.1746 519.3945,-73.0109 516.5,-72 449.8064,-48.7071 368.7812,-32.3854 322.571,-24.1501"/>
<polygon fill="#c0c0c0" stroke="#c0c0c0" stroke-width="2" points="323.1591,-20.6999 312.705,-22.4208 321.9506,-27.5948 323.1591,-20.6999"/>
</g>
<!-- 8&#45;&gt;7 -->
<g id="edge10" class="edge">
<title>8&#45;&gt;7</title>
<path fill="none" stroke="#c0c0c0" stroke-width="2" d="M545.7665,-215.7623C547.4721,-191.201 550.5245,-147.2474 552.531,-118.3541"/>
<polygon fill="#c0c0c0" stroke="#c0c0c0" stroke-width="2" points="556.0425,-118.3081 553.2438,-108.0896 549.0593,-117.8231 556.0425,-118.3081"/>
</g>
<!-- 9&#45;&gt;0 -->
<g id="edge4" class="edge">
<title>9&#45;&gt;0</title>
<path fill="none" stroke="#c0c0c0" stroke-width="2" d="M60.544,-143.9048C56.2668,-123.9783 53.0715,-92.1044 69.5,-72 91.8461,-44.6539 192.3357,-28.8343 248.0323,-22.0186"/>
<polygon fill="#c0c0c0" stroke="#c0c0c0" stroke-width="2" points="248.6915,-25.465 258.21,-20.8123 247.8676,-18.5137 248.6915,-25.465"/>
</g>
</g>
</svg>
