<?xml version="1.0" encoding="UTF-8" standalone="no"?>
<!DOCTYPE svg PUBLIC "-//W3C//DTD SVG 1.1//EN"
 "http://www.w3.org/Graphics/SVG/1.1/DTD/svg11.dtd">
<!-- Generated by graphviz version 2.40.1 (20161225.0304)
 -->
<!-- Title: snakemake_dag Pages: 1 -->
<svg width="556pt" height="337pt"
 viewBox="0.00 0.00 555.50 337.00" xmlns="http://www.w3.org/2000/svg" xmlns:xlink="http://www.w3.org/1999/xlink">
<g id="graph0" class="graph" transform="scale(1 1) rotate(0) translate(4 333)">
<title>snakemake_dag</title>
<polygon fill="#ffffff" stroke="transparent" points="-4,4 -4,-333 551.5,-333 551.5,4 -4,4"/>
<!-- 0 -->
<g id="node1" class="node">
<title>0</title>
<path fill="none" stroke="#d85656" stroke-width="2" d="M303.5,-36C303.5,-36 273.5,-36 273.5,-36 267.5,-36 261.5,-30 261.5,-24 261.5,-24 261.5,-12 261.5,-12 261.5,-6 267.5,0 273.5,0 273.5,0 303.5,0 303.5,0 309.5,0 315.5,-6 315.5,-12 315.5,-12 315.5,-24 315.5,-24 315.5,-30 309.5,-36 303.5,-36"/>
<text text-anchor="middle" x="288.5" y="-15.5" font-family="sans" font-size="10.00" fill="#000000">finish</text>
</g>
<!-- 1 -->
<g id="node2" class="node">
<title>1</title>
<path fill="none" stroke="#d8bc56" stroke-width="2" d="M455,-108C455,-108 260,-108 260,-108 254,-108 248,-102 248,-96 248,-96 248,-84 248,-84 248,-78 254,-72 260,-72 260,-72 455,-72 455,-72 461,-72 467,-78 467,-84 467,-84 467,-96 467,-96 467,-102 461,-108 455,-108"/>
<text text-anchor="middle" x="357.5" y="-87.5" font-family="sans" font-size="10.00" fill="#000000">generate_segemehl_index_transcriptome</text>
</g>
<!-- 1&#45;&gt;0 -->
<g id="edge1" class="edge">
<title>1&#45;&gt;0</title>
<path fill="none" stroke="#c0c0c0" stroke-width="2" d="M340.0884,-71.8314C331.979,-63.3694 322.1844,-53.1489 313.318,-43.8971"/>
<polygon fill="#c0c0c0" stroke="#c0c0c0" stroke-width="2" points="315.5921,-41.2115 306.146,-36.4133 310.5382,-46.0549 315.5921,-41.2115"/>
</g>
<!-- 2 -->
<g id="node3" class="node">
<title>2</title>
<path fill="none" stroke="#59d856" stroke-width="2" d="M179,-108C179,-108 12,-108 12,-108 6,-108 0,-102 0,-96 0,-96 0,-84 0,-84 0,-78 6,-72 12,-72 12,-72 179,-72 179,-72 185,-72 191,-78 191,-84 191,-84 191,-96 191,-96 191,-102 185,-108 179,-108"/>
<text text-anchor="middle" x="95.5" y="-87.5" font-family="sans" font-size="10.00" fill="#000000">generate_segemehl_index_genome</text>
</g>
<!-- 2&#45;&gt;0 -->
<g id="edge2" class="edge">
<title>2&#45;&gt;0</title>
<path fill="none" stroke="#c0c0c0" stroke-width="2" d="M144.202,-71.8314C177.6557,-59.3512 221.3625,-43.0461 251.8709,-31.6648"/>
<polygon fill="#c0c0c0" stroke="#c0c0c0" stroke-width="2" points="253.1368,-34.9282 261.2827,-28.1536 250.69,-28.3697 253.1368,-34.9282"/>
</g>
<!-- 3 -->
<g id="node4" class="node">
<title>3</title>
<path fill="none" stroke="#d88d56" stroke-width="2" d="M531.5,-108C531.5,-108 497.5,-108 497.5,-108 491.5,-108 485.5,-102 485.5,-96 485.5,-96 485.5,-84 485.5,-84 485.5,-78 491.5,-72 497.5,-72 497.5,-72 531.5,-72 531.5,-72 537.5,-72 543.5,-78 543.5,-84 543.5,-84 543.5,-96 543.5,-96 543.5,-102 537.5,-108 531.5,-108"/>
<text text-anchor="middle" x="514.5" y="-87.5" font-family="sans" font-size="10.00" fill="#000000">gtftobed</text>
</g>
<!-- 3&#45;&gt;0 -->
<g id="edge3" class="edge">
<title>3&#45;&gt;0</title>
<path fill="none" stroke="#c0c0c0" stroke-width="2" d="M485.314,-75.9532C482.0327,-74.5467 478.7143,-73.198 475.5,-72 424.5606,-53.0142 363.7957,-36.5653 325.6707,-26.9626"/>
<polygon fill="#c0c0c0" stroke="#c0c0c0" stroke-width="2" points="326.0944,-23.4612 315.5448,-24.4392 324.4018,-30.2535 326.0944,-23.4612"/>
</g>
<!-- 4 -->
<g id="node5" class="node">
<title>4</title>
<path fill="none" stroke="#56d8c1" stroke-width="2" d="M273,-180C273,-180 166,-180 166,-180 160,-180 154,-174 154,-168 154,-168 154,-156 154,-156 154,-150 160,-144 166,-144 166,-144 273,-144 273,-144 279,-144 285,-150 285,-156 285,-156 285,-168 285,-168 285,-174 279,-180 273,-180"/>
<text text-anchor="middle" x="219.5" y="-159.5" font-family="sans" font-size="10.00" fill="#000000">create_header_genome</text>
</g>
<!-- 4&#45;&gt;0 -->
<g id="edge4" class="edge">
<title>4&#45;&gt;0</title>
<path fill="none" stroke="#c0c0c0" stroke-width="2" d="M220.4949,-143.8016C222.1603,-124.9141 226.6109,-94.9767 238.5,-72 243.8497,-61.6614 251.7246,-51.8419 259.6497,-43.4817"/>
<polygon fill="#c0c0c0" stroke="#c0c0c0" stroke-width="2" points="262.2875,-45.7932 266.871,-36.2411 257.3312,-40.85 262.2875,-45.7932"/>
</g>
<!-- 5 -->
<g id="node6" class="node">
<title>5</title>
<path fill="none" stroke="#bed856" stroke-width="2" d="M379,-180C379,-180 336,-180 336,-180 330,-180 324,-174 324,-168 324,-168 324,-156 324,-156 324,-150 330,-144 336,-144 336,-144 379,-144 379,-144 385,-144 391,-150 391,-156 391,-156 391,-168 391,-168 391,-174 385,-180 379,-180"/>
<text text-anchor="middle" x="357.5" y="-159.5" font-family="sans" font-size="10.00" fill="#000000">trim_fasta</text>
</g>
<!-- 5&#45;&gt;1 -->
<g id="edge5" class="edge">
<title>5&#45;&gt;1</title>
<path fill="none" stroke="#c0c0c0" stroke-width="2" d="M357.5,-143.8314C357.5,-136.131 357.5,-126.9743 357.5,-118.4166"/>
<polygon fill="#c0c0c0" stroke="#c0c0c0" stroke-width="2" points="361.0001,-118.4132 357.5,-108.4133 354.0001,-118.4133 361.0001,-118.4132"/>
</g>
<!-- 6 -->
<g id="node7" class="node">
<title>6</title>
<path fill="none" stroke="#88d856" stroke-width="2" d="M289,-329C289,-329 150,-329 150,-329 144,-329 138,-323 138,-317 138,-317 138,-300 138,-300 138,-294 144,-288 150,-288 150,-288 289,-288 289,-288 295,-288 301,-294 301,-300 301,-300 301,-317 301,-317 301,-323 295,-329 289,-329"/>
<text text-anchor="middle" x="219.5" y="-317" font-family="sans" font-size="10.00" fill="#000000">genome_process</text>
<text text-anchor="middle" x="219.5" y="-306" font-family="sans" font-size="10.00" fill="#000000">organism: homo_sapiens</text>
<text text-anchor="middle" x="219.5" y="-295" font-family="sans" font-size="10.00" fill="#000000">prefix_name: GRCh38.98_chrY</text>
</g>
<!-- 6&#45;&gt;2 -->
<g id="edge6" class="edge">
<title>6&#45;&gt;2</title>
<path fill="none" stroke="#c0c0c0" stroke-width="2" d="M207.097,-287.6883C192.065,-262.3653 166.0689,-218.2504 144.5,-180 132.7032,-159.0794 119.7218,-135.1953 110.0859,-117.291"/>
<polygon fill="#c0c0c0" stroke="#c0c0c0" stroke-width="2" points="112.92,-115.1706 105.1055,-108.0163 106.7529,-118.4823 112.92,-115.1706"/>
</g>
<!-- 6&#45;&gt;4 -->
<g id="edge8" class="edge">
<title>6&#45;&gt;4</title>
<path fill="none" stroke="#c0c0c0" stroke-width="2" d="M219.5,-287.8208C219.5,-262.3635 219.5,-219.0008 219.5,-190.4249"/>
<polygon fill="#c0c0c0" stroke="#c0c0c0" stroke-width="2" points="223.0001,-190.265 219.5,-180.265 216.0001,-190.2651 223.0001,-190.265"/>
</g>
<!-- 8 -->
<g id="node9" class="node">
<title>8</title>
<path fill="none" stroke="#568ad8" stroke-width="2" d="M421.5,-252C421.5,-252 293.5,-252 293.5,-252 287.5,-252 281.5,-246 281.5,-240 281.5,-240 281.5,-228 281.5,-228 281.5,-222 287.5,-216 293.5,-216 293.5,-216 421.5,-216 421.5,-216 427.5,-216 433.5,-222 433.5,-228 433.5,-228 433.5,-240 433.5,-240 433.5,-246 427.5,-252 421.5,-252"/>
<text text-anchor="middle" x="357.5" y="-231.5" font-family="sans" font-size="10.00" fill="#000000">extract_transcriptome_seqs</text>
</g>
<!-- 6&#45;&gt;8 -->
<g id="edge11" class="edge">
<title>6&#45;&gt;8</title>
<path fill="none" stroke="#c0c0c0" stroke-width="2" d="M257.5744,-287.9453C275.3192,-278.3657 296.5045,-266.9287 314.7923,-257.056"/>
<polygon fill="#c0c0c0" stroke="#c0c0c0" stroke-width="2" points="316.6459,-260.0328 323.7828,-252.2024 313.3205,-253.8731 316.6459,-260.0328"/>
</g>
<!-- 7 -->
<g id="node8" class="node">
<title>7</title>
<path fill="none" stroke="#56d88a" stroke-width="2" d="M535.5,-252C535.5,-252 473.5,-252 473.5,-252 467.5,-252 461.5,-246 461.5,-240 461.5,-240 461.5,-228 461.5,-228 461.5,-222 467.5,-216 473.5,-216 473.5,-216 535.5,-216 535.5,-216 541.5,-216 547.5,-222 547.5,-228 547.5,-228 547.5,-240 547.5,-240 547.5,-246 541.5,-252 535.5,-252"/>
<text text-anchor="middle" x="504.5" y="-231.5" font-family="sans" font-size="10.00" fill="#000000">get_exons_gtf</text>
</g>
<!-- 7&#45;&gt;3 -->
<g id="edge7" class="edge">
<title>7&#45;&gt;3</title>
<path fill="none" stroke="#c0c0c0" stroke-width="2" d="M505.7665,-215.7623C507.4721,-191.201 510.5245,-147.2474 512.531,-118.3541"/>
<polygon fill="#c0c0c0" stroke="#c0c0c0" stroke-width="2" points="516.0425,-118.3081 513.2438,-108.0896 509.0593,-117.8231 516.0425,-118.3081"/>
</g>
<!-- 8&#45;&gt;5 -->
<g id="edge9" class="edge">
<title>8&#45;&gt;5</title>
<path fill="none" stroke="#c0c0c0" stroke-width="2" d="M357.5,-215.8314C357.5,-208.131 357.5,-198.9743 357.5,-190.4166"/>
<polygon fill="#c0c0c0" stroke="#c0c0c0" stroke-width="2" points="361.0001,-190.4132 357.5,-180.4133 354.0001,-190.4133 361.0001,-190.4132"/>
</g>
<!-- 9 -->
<g id="node10" class="node">
<title>9</title>
<path fill="none" stroke="#56c1d8" stroke-width="2" d="M517,-329C517,-329 378,-329 378,-329 372,-329 366,-323 366,-317 366,-317 366,-300 366,-300 366,-294 372,-288 378,-288 378,-288 517,-288 517,-288 523,-288 529,-294 529,-300 529,-300 529,-317 529,-317 529,-323 523,-329 517,-329"/>
<text text-anchor="middle" x="447.5" y="-317" font-family="sans" font-size="10.00" fill="#000000">filter_anno_gtf</text>
<text text-anchor="middle" x="447.5" y="-306" font-family="sans" font-size="10.00" fill="#000000">organism: homo_sapiens</text>
<text text-anchor="middle" x="447.5" y="-295" font-family="sans" font-size="10.00" fill="#000000">prefix_name: GRCh38.98_chrY</text>
</g>
<!-- 9&#45;&gt;7 -->
<g id="edge10" class="edge">
<title>9&#45;&gt;7</title>
<path fill="none" stroke="#c0c0c0" stroke-width="2" d="M463.3777,-287.7476C469.935,-279.177 477.6095,-269.1463 484.5413,-260.0864"/>
<polygon fill="#c0c0c0" stroke="#c0c0c0" stroke-width="2" points="487.3483,-262.1775 490.645,-252.1087 481.7888,-257.924 487.3483,-262.1775"/>
</g>
<!-- 9&#45;&gt;8 -->
<g id="edge12" class="edge">
<title>9&#45;&gt;8</title>
<path fill="none" stroke="#c0c0c0" stroke-width="2" d="M422.43,-287.7476C411.548,-278.7398 398.7176,-268.119 387.348,-258.7076"/>
<polygon fill="#c0c0c0" stroke="#c0c0c0" stroke-width="2" points="389.3113,-255.7891 379.3762,-252.1087 384.8477,-261.1814 389.3113,-255.7891"/>
</g>
</g>
</svg>
